<svg id="add-chat" xmlns="http://www.w3.org/2000/svg" width="39.736" height="39.736" viewBox="0 0 39.736 39.736">
  <path id="Path_3087" data-name="Path 3087" d="M22.106,13a9.106,9.106,0,1,0,9.106,9.106A9.117,9.117,0,0,0,22.106,13Zm0,16.557a7.45,7.45,0,1,1,7.45-7.45A7.46,7.46,0,0,1,22.106,29.557Z" transform="translate(8.524 8.524)" fill="#254a5d"/>
  <path id="Path_3088" data-name="Path 3088" d="M23.45,19.311H20.967V16.828a.828.828,0,1,0-1.656,0v2.483H16.828a.828.828,0,1,0,0,1.656h2.483V23.45a.828.828,0,1,0,1.656,0V20.967H23.45a.828.828,0,1,0,0-1.656Z" transform="translate(10.491 10.491)" fill="#254a5d"/>
  <path id="Path_3089" data-name="Path 3089" d="M19.04,28.146H9.106a.826.826,0,0,0-.636.3L1.656,36.622V7.45A5.8,5.8,0,0,1,7.45,1.656H30.63A5.8,5.8,0,0,1,36.425,7.45V20.7a.828.828,0,1,0,1.656,0V7.45A7.46,7.46,0,0,0,30.63,0H7.45A7.46,7.46,0,0,0,0,7.45V38.908a.829.829,0,0,0,.828.828.817.817,0,0,0,.634-.3L9.494,29.8H19.04a.828.828,0,1,0,0-1.656Z" fill="#254a5d"/>
  <path id="Path_3090" data-name="Path 3090" d="M5,10.483A2.483,2.483,0,1,0,7.483,8,2.487,2.487,0,0,0,5,10.483Zm3.311,0a.828.828,0,1,1-.828-.828A.829.829,0,0,1,8.311,10.483Z" transform="translate(3.278 5.245)" fill="#254a5d"/>
  <path id="Path_3091" data-name="Path 3091" d="M12.483,8a2.483,2.483,0,1,0,2.483,2.483A2.487,2.487,0,0,0,12.483,8Zm0,3.311a.828.828,0,1,1,.828-.828A.829.829,0,0,1,12.483,11.311Z" transform="translate(6.557 5.245)" fill="#254a5d"/>
  <path id="Path_3092" data-name="Path 3092" d="M15,10.483A2.483,2.483,0,1,0,17.483,8,2.487,2.487,0,0,0,15,10.483Zm3.311,0a.828.828,0,1,1-.828-.828A.829.829,0,0,1,18.311,10.483Z" transform="translate(9.835 5.245)" fill="#254a5d"/>
</svg>
