<svg xmlns="http://www.w3.org/2000/svg" width="447.716" height="416.758" viewBox="0 0 447.716 416.758">
  <g id="Group_6281" data-name="Group 6281" transform="translate(-25.362 -50.752)">
    <g id="Floor">
      <path id="Floor-2" data-name="Floor" d="M407.51,431.19c-87.422,48.426-229.161,48.427-316.582,0s-87.422-126.941,0-175.367,229.161-48.427,316.583,0S494.933,382.764,407.51,431.19Z" fill="#f5f5f5" opacity="0.509"/>
    </g>
    <g id="Shadow">
      <path id="Shadow-2" data-name="Shadow" d="M116.856,416.413l-4.844-2.8c-3.286-1.9-3.286-4.974,0-6.871l135.466-78.488a13.153,13.153,0,0,1,11.9,0l4.846,2.8c3.287,1.9,3.287,4.973,0,6.87L128.756,416.413A13.153,13.153,0,0,1,116.856,416.413Z" fill="#e0e0e0"/>
      <ellipse id="Shadow-3" data-name="Shadow" cx="51.409" cy="24.502" rx="51.409" ry="24.502" transform="translate(297.793 342.308)" fill="#e0e0e0"/>
    </g>
    <g id="Plants">
      <g id="Plants-2" data-name="Plants">
        <g id="Group_6248" data-name="Group 6248">
          <g id="Group_6246" data-name="Group 6246">
            <path id="Path_4742" data-name="Path 4742" d="M358.93,330.827c.6-7.483,7.261-22.548,15.807-31.64s21.327-15.214,29.761-11.55c7.855,3.412,6.128,13.939-4.237,20.172s-25.8,13.871-31.09,25.662L358.93,347.637Z" fill="#19bdc1"/>
            <path id="Path_4743" data-name="Path 4743" d="M358.93,330.827c.6-7.483,7.261-22.548,15.807-31.64s21.327-15.214,29.761-11.55c7.855,3.412,6.128,13.939-4.237,20.172s-25.8,13.871-31.09,25.662L358.93,347.637Z" opacity="0.1"/>
          </g>
          <g id="Group_6247" data-name="Group 6247">
            <path id="Path_4744" data-name="Path 4744" d="M357.555,341.022a.55.55,0,0,0,.528-.4c7.065-25.141,29.4-44.242,42.136-47.835a.55.55,0,0,0,.379-.677.542.542,0,0,0-.677-.379c-12.98,3.661-35.722,23.072-42.894,48.594a.55.55,0,0,0,.528.7Z" fill="#fff"/>
          </g>
        </g>
        <g id="Group_6251" data-name="Group 6251">
          <g id="Group_6249" data-name="Group 6249">
            <path id="Path_4745" data-name="Path 4745" d="M360.05,357.679c1.54-4.11,7.236-10.638,16.007-15.7,9.7-5.6,21.571-7.585,24.65-12.307,3.7-5.671-.85-11.677-10.387-11.265s-27.176,11.96-31.39,31.144Z" fill="#19bdc1"/>
          </g>
          <g id="Group_6250" data-name="Group 6250">
            <path id="Path_4746" data-name="Path 4746" d="M358.577,353.118a.549.549,0,0,0,.5-.323c9.594-21.254,26.908-27.592,34.722-27.974a.55.55,0,0,0,.521-.575.541.541,0,0,0-.575-.521c-8.641.422-25.876,6.925-35.668,28.618a.55.55,0,0,0,.5.775Z" fill="#fff"/>
          </g>
        </g>
      </g>
      <g id="Plants-3" data-name="Plants">
        <g id="Group_6252" data-name="Group 6252">
          <path id="Path_4747" data-name="Path 4747" d="M113.682,372.7c-.67-8.329-4.482-22.009-14.167-35.028-10.363-13.932-23-22.651-32.385-18.573-8.743,3.8-5.428,15.863,9.617,27.766,10.558,8.353,21.506,19.219,27.389,32.344l9.546,16.7Z" fill="#19bdc1"/>
        </g>
        <g id="Group_6253" data-name="Group 6253" opacity="0.1">
          <path id="Path_4748" data-name="Path 4748" d="M113.682,372.7c-.67-8.329-4.482-22.009-14.167-35.028-10.363-13.932-23-22.651-32.385-18.573-8.743,3.8-5.428,15.863,9.617,27.766,10.558,8.353,21.506,19.219,27.389,32.344l9.546,16.7Z"/>
        </g>
        <g id="Group_6254" data-name="Group 6254">
          <path id="Path_4749" data-name="Path 4749" d="M112.838,379.048a.591.591,0,0,1-.556-.39c-8.387-23.091-25.851-46.456-40.622-54.349a.592.592,0,1,1,.557-1.045c15,8.016,32.7,31.656,41.177,54.989a.591.591,0,0,1-.354.759A.6.6,0,0,1,112.838,379.048Z" fill="#fff"/>
        </g>
        <g id="Group_6256" data-name="Group 6256">
          <path id="Path_4750" data-name="Path 4750" d="M112.838,401.16a35.2,35.2,0,0,1-16.71,7.157c-10.528,1.667-15.174-3.368-15.174-3.368S85.1,395.074,91.078,392.3c0,0-10.137,2.066-18.272,7.5,0,0-6.429.1-8.988-9.714,0,0,3.809-5.9,16.589-9.1,0,0-7.775-1.957-18.98.9-.84.334-4.421-12.352-5.5-18.2s1.269-5.791,5.832-7.01,20.1-1.984,22.957.526,4.307,11.09,4.307,11.09,2.733-4.855,2.078-9.189a16.309,16.309,0,0,1,9.708.232c5.125,1.787,4.8,4.285,4.8,8.015a39.461,39.461,0,0,1-1.536,11.106s3.54-3.063,3.665-14.353c0,0,6.927,5.929,9.71,11.025S119.52,393.556,112.838,401.16Z" fill="#19bdc1"/>
          <g id="Group_6255" data-name="Group 6255">
            <path id="Path_4751" data-name="Path 4751" d="M112.838,401.752a.592.592,0,0,1-.533-.335c-8.5-17.651-40.082-38.161-51.4-40.361a.592.592,0,1,1,.227-1.163c11.5,2.237,43.606,23.078,52.236,41.01a.591.591,0,0,1-.276.79A.578.578,0,0,1,112.838,401.752Z" fill="#fff"/>
          </g>
        </g>
      </g>
    </g>
    <g id="Device">
      <g id="Device-2" data-name="Device">
        <g id="Device-3" data-name="Device">
          <path id="Path_4752" data-name="Path 4752" d="M120.2,410.259l-3.073-1.774a9.991,9.991,0,0,1-4.519-7.828V131.367a9.988,9.988,0,0,1,4.519-7.827l124.2-71.707a9.988,9.988,0,0,1,9.038,0l3.075,1.776a9.988,9.988,0,0,1,4.519,7.827v269.29a9.988,9.988,0,0,1-4.519,7.827l-124.2,71.706A9.988,9.988,0,0,1,120.2,410.259Z" fill="#37474f"/>
          <path id="Path_4753" data-name="Path 4753" d="M130.775,136.638l-16.844-9.725a9.247,9.247,0,0,0-1.323,4.454v269.29a9.991,9.991,0,0,0,4.519,7.828l3.073,1.774a9.988,9.988,0,0,0,9.038,0l1.537-.887Z" fill="#263238"/>
          <path id="Path_4754" data-name="Path 4754" d="M124.719,138.36V407.65c0,2.882,2.023,4.05,4.519,2.609l124.2-71.706a9.988,9.988,0,0,0,4.519-7.827V61.436c0-2.882-2.023-4.05-4.519-2.609l-124.2,71.706A9.988,9.988,0,0,0,124.719,138.36Z" fill="#455a64"/>
          <path id="Path_4755" data-name="Path 4755" d="M134.649,155.382,248.026,89.924c2.14-1.235,3.874-.234,3.874,2.236V306.995a8.56,8.56,0,0,1-3.874,6.709L134.65,379.163c-2.139,1.235-3.874.233-3.874-2.237V162.091A8.56,8.56,0,0,1,134.649,155.382Z" fill="#fafafa"/>
          <path id="Path_4756" data-name="Path 4756" d="M191.337,101.673c1.673-.966,3.029-.183,3.029,1.748a6.694,6.694,0,0,1-3.029,5.245c-1.672.965-3.028.183-3.028-1.749A6.692,6.692,0,0,1,191.337,101.673Z" fill="#263238"/>
          <g id="Group_6257" data-name="Group 6257">
            <path id="Path_4757" data-name="Path 4757" d="M182.593,116.8c6.152-3.4,17.129-9.934,23.195-13.5,1.03-.6,1.864-.188,1.864.933a4.021,4.021,0,0,1-1.873,3.111L182.545,120.76c-1.035.6-1.873.172-1.873-.949A3.847,3.847,0,0,1,182.593,116.8Z" fill="#263238"/>
            <path id="Path_4758" data-name="Path 4758" d="M176.723,120.191c.94-.542,1.7-.1,1.7.982a3.76,3.76,0,0,1-1.7,2.945c-.94.542-1.7.1-1.7-.982A3.758,3.758,0,0,1,176.723,120.191Z" fill="#263238"/>
          </g>
          <path id="Path_4759" data-name="Path 4759" d="M191.337,353.426c3.345-1.931,6.057-.365,6.057,3.5a13.387,13.387,0,0,1-6.057,10.49c-3.344,1.931-6.056.365-6.056-3.5A13.39,13.39,0,0,1,191.337,353.426Z" fill="#263238"/>
        </g>
        <g id="Alert">
          <path id="Path_4760" data-name="Path 4760" d="M233.449,248.579l-35.555-74.286a2.7,2.7,0,0,0-.957-1.207v0l-3.051-1.762,0,0c-.673-.385-1.353.089-1.761,1.411L155.541,291.413c-.331,1.075-.187,1.775.289,2.04l-.006.02,3.049,1.76.007-.02c.4.221,1.033.14,1.85-.332l71.09-41.044A4.117,4.117,0,0,0,233.449,248.579Z" fill="#19bdc1"/>
          <path id="Path_4761" data-name="Path 4761" d="M233.449,248.579l-35.555-74.286a2.7,2.7,0,0,0-.957-1.207v0l-3.051-1.762,0,0c-.673-.385-1.353.089-1.761,1.411L155.541,291.413c-.331,1.075-.187,1.775.289,2.04l-.006.02,3.049,1.76.007-.02c.4.221,1.033.14,1.85-.332l71.09-41.044A4.117,4.117,0,0,0,233.449,248.579Z" opacity="0.1"/>
          <path id="Path_4762" data-name="Path 4762" d="M158.587,293.172l36.584-118.678c.61-1.979,1.829-2.069,2.723-.2l35.555,74.286a4.117,4.117,0,0,1-1.629,5.258l-71.09,41.044C158.937,295.916,157.977,295.151,158.587,293.172Z" fill="#19bdc1"/>
          <path id="Path_4763" data-name="Path 4763" d="M194,237.87l-.9-20.168q-.253-5.9-.253-8.535a15.231,15.231,0,0,1,1.22-6.3,8.088,8.088,0,0,1,3.212-3.863q2.412-1.392,3.226.708a21.04,21.04,0,0,1,.814,6.937q0,2.849-.2,5.9l-1.206,21.987a31.2,31.2,0,0,1-.842,6.317,5.04,5.04,0,0,1-2.132,3.26q-1.514.875-2.1-.751A22.186,22.186,0,0,1,194,237.87Zm3.114,24.106a2.519,2.519,0,0,1-2.988.019q-1.277-.967-1.276-4.035a12.207,12.207,0,0,1,1.22-5.261,7.835,7.835,0,0,1,2.988-3.6,2.338,2.338,0,0,1,3.015.137,5.04,5.04,0,0,1,1.249,3.836,11.8,11.8,0,0,1-1.263,5.479A8.032,8.032,0,0,1,197.116,261.976Z" fill="#fff"/>
        </g>
      </g>
    </g>
    <g id="Character">
      <g id="Character-2" data-name="Character">
        <g id="Group_6258" data-name="Group 6258">
          <path id="Path_4764" data-name="Path 4764" d="M424.141,165.242c-2.436,1.113-10.167,1.482-17.412,1.085-8.548-.468-19.041-4.024-23.324-6.176-8.693-4.37-20.079-12.5-24.956-15.327s-7.6-1.947-10.449-.27c-3.344,1.97-3.863,6.274,2.618,11.179A150.753,150.753,0,0,0,379.677,172.3a75.467,75.467,0,0,0,24.167,5.259c7.672.45,13.873.311,21.267-1.786C427.351,175.14,426.388,164.215,424.141,165.242Z" fill="#ffa8a7"/>
        </g>
        <g id="Group_6259" data-name="Group 6259">
          <path id="Path_4765" data-name="Path 4765" d="M416,165.551c-.2.868-2.55.924-2.55.924s-1.7,2.194-1.239,6.722,1.855,5.27,1.855,5.27a24.241,24.241,0,0,0,13.105-2.912Z" fill="#e0e0e0"/>
          <path id="Path_4766" data-name="Path 4766" d="M423.01,176.327c6.9-.238,9.456-3.733,10.417-9.792s.8-13.969.875-16.063c.077-2.113-.538-2.818-1.376-2.941-.315-.046-1.647.3-1.8,2.534-.27,4.085-.377,6.6-1.156,6.57s-.652-3.057-.591-7.185c.042-2.779-.046-5.125-1.6-5.125-1.65,0-2.062,1.653-2.144,5.419s.022,6.546-.989,6.621c-.8.06-.639-3.93-.82-6.506-.182-2.6-.176-4.111-1.784-4.079-1.459.03-1.854,2.1-1.794,4.636a99.279,99.279,0,0,1-.263,10.36c-.446,1.493-1.989-2.171-3.117-3.675-1.85-2.467-4.1-1.339-3.192.907a44.352,44.352,0,0,1,2.508,8.507C416.675,169.281,417.844,176.353,423.01,176.327Z" fill="#ebebeb"/>
          <path id="Path_4767" data-name="Path 4767" d="M422.983,163.815s4.158,4.332,2.657,8.957a6.121,6.121,0,0,0,.744-6.2A4.689,4.689,0,0,0,422.983,163.815Z" fill="#e0e0e0"/>
        </g>
        <g id="Group_6260" data-name="Group 6260">
          <path id="Path_4768" data-name="Path 4768" d="M351.019,142.08c2.839.322,5.53-.234,13.69,5.319s14.476,9.072,14.476,9.072.408,9.487-4.79,15.567a135.2,135.2,0,0,1-14.83-6.936C353.684,161.692,351.019,142.08,351.019,142.08Z" fill="#19bdc1"/>
          <path id="Path_4769" data-name="Path 4769" d="M351.019,142.08c2.839.322,5.53-.234,13.69,5.319s14.476,9.072,14.476,9.072.408,9.487-4.79,15.567a135.2,135.2,0,0,1-14.83-6.936C353.684,161.692,351.019,142.08,351.019,142.08Z" opacity="0.05"/>
        </g>
        <g id="Group_6267" data-name="Group 6267">
          <g id="Group_6261" data-name="Group 6261">
            <rect id="Rectangle_1302" data-name="Rectangle 1302" width="9.755" height="16.699" transform="translate(328.396 361.533) rotate(180)" fill="#ffa8a7"/>
            <path id="Path_4770" data-name="Path 4770" d="M350.451,349.4l9.75.335.488-17.673-9.749-.335Z" fill="#ffa8a7"/>
            <path id="Path_4771" data-name="Path 4771" d="M319.281,212.457c0,9.315-.01,67.473-.01,67.473-.227,2.68-2.206,7.323-2.745,18.734-.66,13.989-1.232,52.33-1.232,52.33s7.282,4.708,13.74.173c0,0,8.658-54.979,10.407-68.839,1.525-12.1,4.113-44.953,4.113-44.953l3.4,50.3s-1.591,9.092-1.94,15.509,2.5,38.844,2.5,38.844,7.709,4.433,13.365,1.411c0,0,4.243-50.522,5.249-56.318s-1.219-74.659-1.219-74.659Z" fill="#263238"/>
            <path id="Path_4772" data-name="Path 4772" d="M328.4,356.717v-1.4c.933.407,3.1,8.681,6.972,12.211,3.077,2.807,7.274,6.048,8.342,9.177,1.11,3.254-5.845,5.051-8.72,4.542-3.34-.592-9.129-2.944-10.583-5.124s-2.134-5.4-3.315-6.995-3.9-3.381-4.541-5.231c-.351-1.015.065-3.24.558-5.12.452-1.725.943-3.622,1.531-3.46,0,.21,0,1.064,0,1.064a7.725,7.725,0,0,0,4.878,1.648C324.945,358.089,328.407,357.806,328.4,356.717Z" fill="#263238"/>
            <path id="Path_4773" data-name="Path 4773" d="M360.3,346.728c.507.017.919.732,2.037,1.941a21.293,21.293,0,0,0,5.738,4.129c3.653,1.828,10.754,4.641,13.968,6.089,2.008.9,1.914,3.33-.161,4.71s-7.087,2.375-13.1,1.029c-3.278-.733-7.544-3.76-10.245-3.6s-7.754.125-9.748-1.249-1.2-4.309-.632-6.831c.614-2.752,1.494-6.963,2.4-6.775l-.029.865c1.173,1.776,7.143,2.5,9.72,1.194Z" fill="#263238"/>
            <path id="Path_4774" data-name="Path 4774" d="M343.554,237.375a36.138,36.138,0,0,0,13.584-7.789s-2.621,4.908-10.416,9.475l-1.165,27.944Z"/>
          </g>
          <path id="Path_4775" data-name="Path 4775" d="M328.653,145.069a22.307,22.307,0,0,0-4.027.928c-2.676,1.051-3.9,4.349-4.544,7.264a34.378,34.378,0,0,0-.8,7.406v51.79c6.841,7.442,30.688,10.909,45.626,0,0,0-.293-45.745-1.412-53.26-1.944-13.057-8.194-17.714-14.471-17.227l-15.058,2.155Z" fill="#19bdc1"/>
          <g id="Group_6263" data-name="Group 6263">
            <path id="Path_4776" data-name="Path 4776" d="M326.238,145.523c-4.681.68-9.369.362-14.335,7.323-5.479,7.679-7.076,9.326-15.53,22.7-3.235,5.117-6.866,10.25-6.708,11.727.467,4.367,8.288,15.4,16.05,22.784l7.854-6.778L304.76,186.7s7.023-7.861,9.806-11.159c4.715-5.587,8.466-9.991,8.466-9.991C325.574,159.913,327.728,155.208,326.238,145.523Z" fill="#ffa8a7"/>
            <path id="Path_4777" data-name="Path 4777" d="M327.894,145.2s-7.286-.825-11.724,2.316-16.9,21.682-16.9,21.682,3.379,9.582,12.636,11.467c0,0,9.258-10.988,11.707-14.23C326.293,162.886,329.26,155.669,327.894,145.2Z" fill="#19bdc1"/>
            <path id="Path_4778" data-name="Path 4778" d="M327.894,145.2s-7.286-.825-11.724,2.316-16.9,21.682-16.9,21.682,3.379,9.582,12.636,11.467c0,0,9.258-10.988,11.707-14.23C326.293,162.886,329.26,155.669,327.894,145.2Z" opacity="0.1"/>
            <g id="Group_6262" data-name="Group 6262">
              <path id="Path_4779" data-name="Path 4779" d="M339.4,215.68a38.2,38.2,0,0,1-6.429-.27c-2.453-.393-6.722-1.9-6.811-2.684s1.279-.688,3.081-2.006c2.75-2.012,2.745-3.687,1.965-4.69-.607-.78-2.171.591-4.494,1.611-2.2.732-5.778.286-8.077-.427s-5.319-5.319-5.319-5.319-6.491,2.373-8.561,8.258c0,0,4.744,7.6,9.947,12.048a24.777,24.777,0,0,0,14.288,5.538c3.962.22,6.094-1.412,6.785-2.948a3.433,3.433,0,0,0,3.132-1.677,2.692,2.692,0,0,0-.192-2.4C342.608,219.344,341.788,215.657,339.4,215.68Z" fill="#ebebeb"/>
              <path id="Path_4780" data-name="Path 4780" d="M338.72,220.711c-2.784.618-9.1.277-12.17-1.312,0,0,1.85,1.794,6.453,2.11s5.982-.194,5.982-.194A3.444,3.444,0,0,0,338.72,220.711Z" fill="#e0e0e0"/>
              <path id="Path_4781" data-name="Path 4781" d="M335.78,224.791a19.15,19.15,0,0,1-11.691-2.135s3.583,3.322,11.271,2.841A3.771,3.771,0,0,0,335.78,224.791Z" fill="#e0e0e0"/>
            </g>
          </g>
          <g id="Group_6266" data-name="Group 6266">
            <g id="Group_6264" data-name="Group 6264">
              <path id="Path_4782" data-name="Path 4782" d="M327.865,120.348s2.244,10.543,3.144,12.276a4.772,4.772,0,0,0,2.76,2.224l-.157-7.416Z" fill="#263238"/>
              <path id="Path_4783" data-name="Path 4783" d="M330.682,105.244a5.2,5.2,0,0,0-4.3,1.512c-1.847,1.889-.815,7.8,1.485,13.592l4.227.485Z" fill="#263238"/>
              <path id="Path_4784" data-name="Path 4784" d="M333.36,120.837c-.848.506-2.057-1.122-3.1-2.216s-4.458-2.588-6.16,1c-1.735,3.655,1.5,8.485,4.189,9.328,4.63,1.453,5.325-1.516,5.325-1.516l.353,16.7s6.044,6.418,14.253,7.531l.81-7.973-.013-5.082a29.229,29.229,0,0,0,6.242.32c3.4-.526,5.547-3.213,6.579-6.9,1.659-5.92,2.289-10.7.882-22.342-1.543-12.76-16.385-12.893-24.4-7.849S333.36,120.837,333.36,120.837Z" fill="#ffa8a7"/>
              <path id="Path_4785" data-name="Path 4785" d="M333.36,122.263c-.426.008-2.047-2.682-3.1-3.642-1.462-1.33.424-13.377.424-13.377,1.754-8.27,16.082-9.428,24.088-6.8,4.153,1.287,6.844,3.157,6.685,6.671-.534,2.293-5.6,3.538-7.531,3.773-5.424.66-13.762-.794-14.917-.952-1.573-.215-2,.28-2.852,4.444C335.41,116.04,334.793,122.235,333.36,122.263Z" fill="#263238"/>
              <path id="Path_4786" data-name="Path 4786" d="M330.69,106.181l-5.125-2.751a2.824,2.824,0,0,1,3.879-1.284A3.057,3.057,0,0,1,330.69,106.181Z" fill="#263238"/>
              <path id="Path_4787" data-name="Path 4787" d="M349.015,138.608s-7.6-1.531-10.257-2.944a8.756,8.756,0,0,1-3.673-3.634,11.978,11.978,0,0,0,2.086,4.286c1.944,2.485,11.844,4.314,11.844,4.314Z" fill="#f28f8f"/>
            </g>
            <g id="Group_6265" data-name="Group 6265">
              <path id="Path_4788" data-name="Path 4788" d="M347.671,120.333a1.525,1.525,0,1,1-1.524-1.586A1.55,1.55,0,0,1,347.671,120.333Z" fill="#263238"/>
              <path id="Path_4789" data-name="Path 4789" d="M346.055,114.583l-3.258,1.8a1.954,1.954,0,0,1,.759-2.6A1.816,1.816,0,0,1,346.055,114.583Z" fill="#263238"/>
              <path id="Path_4790" data-name="Path 4790" d="M361.253,115.851l-2.971-2.288a1.8,1.8,0,0,1,2.582-.4A1.969,1.969,0,0,1,361.253,115.851Z" fill="#263238"/>
              <path id="Path_4791" data-name="Path 4791" d="M360.338,119.9a1.524,1.524,0,1,1-1.523-1.587A1.548,1.548,0,0,1,360.338,119.9Z" fill="#263238"/>
              <path id="Path_4792" data-name="Path 4792" d="M352.1,117.059l.5,9.16,4.782-1.63Z" fill="#f28f8f"/>
            </g>
          </g>
        </g>
        <g id="Group_6270" data-name="Group 6270">
          <path id="Path_4793" data-name="Path 4793" d="M338.176,110.309s12.879,7,24.37,2.479c11.8-4.646-.723-9.731-.723-9.731Z" fill="#263238"/>
          <g id="Group_6269" data-name="Group 6269">
            <g id="Group_6268" data-name="Group 6268">
              <path id="Path_4794" data-name="Path 4794" d="M362.129,87.4c-8.91-1.977-18.638-3.022-30.327,1.761s-14.624,11.958-14.624,11.958,11.332,3.877,20.9,1.779S362.129,87.4,362.129,87.4Z" fill="#19bdc1"/>
              <path id="Path_4795" data-name="Path 4795" d="M362.129,87.4c-8.91-1.977-18.638-3.022-30.327,1.761s-14.624,11.958-14.624,11.958,11.332,3.877,20.9,1.779S362.129,87.4,362.129,87.4Z" fill="#fff" opacity="0.4"/>
            </g>
            <path id="Path_4796" data-name="Path 4796" d="M323.266,105s-5.651-2.4-6.088-3.884a39.4,39.4,0,0,0,13.58-1.667c7.676-2.251,16.005-10,24.6-11.782s11.949,2.306,11.949,2.306-2.271,6.127-5.447,9.943c0,0-3,5.852-13.1,7.757S323.266,105,323.266,105Z" fill="#19bdc1"/>
            <path id="Path_4797" data-name="Path 4797" d="M323.266,105l.371,1.611a3.6,3.6,0,0,0,2.066,2.419,40.968,40.968,0,0,0,23.154.9c7.12-1.7,10.41-3.683,11.763-5.109A3.851,3.851,0,0,0,362,101.5l-.14-1.578s-2.368,3.136-14.02,6.047S323.266,105,323.266,105Z" fill="#37474f"/>
            <path id="Path_4798" data-name="Path 4798" d="M356.029,90.983c-.2,1.771-2.287,5.117-4.673,3.738,0,0-.167,2.625-.279,4.438-.172,2.763,1.4,3.612,4.08,2.909a6.623,6.623,0,0,0,4.963-5.891c.081-.842.245-3.822.245-3.822C358.243,95.137,355.947,91.664,356.029,90.983Z" fill="#fafafa"/>
          </g>
        </g>
        <g id="Group_6277" data-name="Group 6277">
          <g id="Group_6271" data-name="Group 6271">
            <path id="Path_4799" data-name="Path 4799" d="M353.824,151.421c-.931,2.211-2.647,3.112-5.76,3.461a11.553,11.553,0,0,1-8.61-3l3.872-3.854,4.885,3.619.441-4.04Z" fill="#e0e0e0"/>
          </g>
          <g id="Group_6272" data-name="Group 6272">
            <path id="Path_4800" data-name="Path 4800" d="M349.938,157.862s5.008,18.573,5.212,20.817-4.183,14.212-6.1,14.28-5.411-8.092-5.467-10.132,3.013-24.6,3.013-24.6Z" fill="#f0f0f0"/>
            <path id="Path_4801" data-name="Path 4801" d="M351.386,150.214a22.831,22.831,0,0,1-.066,4.2,7.075,7.075,0,0,1-1.382,3.452,3.8,3.8,0,0,1-3.346.363,8.892,8.892,0,0,1-2.607-6.979l4.226.4Z" fill="#f0f0f0"/>
            <path id="Path_4802" data-name="Path 4802" d="M346.592,158.225a3.365,3.365,0,0,0,3.346-.363l.087.326a3.892,3.892,0,0,1-3.531.759Z" fill="#e0e0e0"/>
          </g>
          <g id="Group_6274" data-name="Group 6274">
            <g id="Group_6273" data-name="Group 6273">
              <path id="Path_4803" data-name="Path 4803" d="M348.211,151.651,334.04,141.034l-.206-3.173s-3.076,1.171-3.817,6.994c2.022,4.7,5.605,8.638,10.987,11.706l2.981-5.315Z" fill="#19bdc1"/>
              <path id="Path_4804" data-name="Path 4804" d="M349.015,139.193s3.248.46,4.671,2.807,1.1,11.3,1.1,11.3l-3.4-3.084-3.175,1.437c.3-2.984.812-7.954.812-7.954Z" fill="#19bdc1"/>
            </g>
          </g>
          <g id="Group_6276" data-name="Group 6276" opacity="0.1">
            <g id="Group_6275" data-name="Group 6275">
              <path id="Path_4805" data-name="Path 4805" d="M348.211,151.651,334.04,141.034l-.206-3.173s-3.076,1.171-3.817,6.994c2.022,4.7,5.605,8.638,10.987,11.706l2.981-5.315Z"/>
              <path id="Path_4806" data-name="Path 4806" d="M349.015,139.193s3.248.46,4.671,2.807,1.1,11.3,1.1,11.3l-3.4-3.084-3.175,1.437c.3-2.984.812-7.954.812-7.954Z"/>
            </g>
          </g>
        </g>
        <g id="Group_6280" data-name="Group 6280">
          <path id="Path_4807" data-name="Path 4807" d="M365.526,137.236a6.59,6.59,0,0,0-2.981-5.162,2.105,2.105,0,0,0-2.084-.217v0l-.02.011,0,0-3.026,1.748,4.256,7.274,2.984-1.723h0l.009,0v0A2.1,2.1,0,0,0,365.526,137.236Z" fill="#455a64"/>
          <path id="Path_4808" data-name="Path 4808" d="M359.565,133.795a6.587,6.587,0,0,1,2.981,5.162c0,1.9-1.335,2.671-2.98,1.721a6.59,6.59,0,0,1-2.981-5.162C356.585,133.615,357.92,132.845,359.565,133.795Z" fill="#37474f"/>
          <path id="Path_4809" data-name="Path 4809" d="M353.605,130.354v.987a1.4,1.4,0,0,0,.635,1.1l5.325,3.075v-1.721Z" fill="#37474f"/>
          <path id="Path_4810" data-name="Path 4810" d="M356.585,128.633l-2.98,1.721,5.961,3.441,2.98-1.721Z" fill="#455a64"/>
          <g id="Group_6278" data-name="Group 6278">
            <path id="Path_4811" data-name="Path 4811" d="M364.9,130.791s.185-.518.463-1.293l1.064-2.823c.386-1.027.755-2.062,1.1-2.806l.241-.505a1.592,1.592,0,0,1,.216-.376.811.811,0,0,1,.478-.195l.195.09a.813.813,0,0,1,.164.489,1.576,1.576,0,0,1-.145.408c-.067.153-.143.325-.225.513-.34.747-.884,1.7-1.411,2.664L365.6,129.6l-.679,1.193Z" fill="#e0e0e0"/>
            <path id="Path_4812" data-name="Path 4812" d="M367.446,133.181l1.19-.685,2.639-1.462c.959-.531,1.911-1.081,2.656-1.424l.512-.228a1.575,1.575,0,0,1,.408-.147.808.808,0,0,1,.489.161l.091.2a.81.81,0,0,1-.192.479,1.553,1.553,0,0,1-.375.217l-.5.245c-.742.349-1.775.723-2.8,1.115l-2.817,1.079-1.291.469Z" fill="#e0e0e0"/>
            <path id="Path_4813" data-name="Path 4813" d="M367.614,136.979l1.36.188,2.981.464c1.084.168,2.172.318,2.971.5l.544.134a1.6,1.6,0,0,1,.413.134.817.817,0,0,1,.288.427l-.048.211a.812.812,0,0,1-.445.26,1.587,1.587,0,0,1-.43-.058l-.548-.116c-.8-.18-1.846-.517-2.9-.836l-2.887-.876-1.307-.42Z" fill="#e0e0e0"/>
            <path id="Path_4814" data-name="Path 4814" d="M366.236,140.316l1,.941,2.162,2.1c.786.766,1.587,1.518,2.131,2.132l.366.424a1.545,1.545,0,0,1,.259.348.813.813,0,0,1-.013.515l-.161.144a.809.809,0,0,1-.513-.046,1.577,1.577,0,0,1-.317-.3l-.38-.412c-.548-.61-1.2-1.49-1.877-2.358l-1.846-2.386-.822-1.1Z" fill="#e0e0e0"/>
          </g>
          <g id="Group_6279" data-name="Group 6279">
            <path id="Path_4815" data-name="Path 4815" d="M361.11,131.67l-2.031,1.173,1.016.586,2.031-1.173Z" fill="#37474f"/>
            <path id="Path_4816" data-name="Path 4816" d="M359.079,132.842l2.031-1.173v.382l-1.7.982Z" fill="#263238"/>
            <path id="Path_4817" data-name="Path 4817" d="M361.11,132.052l.685.4.331-.191-1.016-.586Z"/>
          </g>
        </g>
      </g>
    </g>
  </g>
</svg>
