<svg xmlns="http://www.w3.org/2000/svg" width="594" height="424" viewBox="0 0 594 424">
  <g id="Page-not-found" transform="translate(-0.155 0.67)">
    <rect id="Rectangle_488" data-name="Rectangle 488" width="594" height="424" transform="translate(0.155 -0.67)" fill="#fff"/>
    <g id="Environment" transform="translate(91.467 26.365)">
      <g id="Tree-" transform="translate(84.115)">
        <path id="Tree-base" d="M486.391,80.491c0-.058,0-.115,0-.171a16.139,16.139,0,1,0-32.268,0c0,.029,0,.058,0,.088h0a28.473,28.473,0,0,1-6.194,18.022q-7.984,10.031-7.984,18.41a25.556,25.556,0,0,0,1.8,8.716h0a28.472,28.472,0,0,1-2.536,24.889q-6.742,10.842-6.742,19.329a35.279,35.279,0,0,0,2.912,12.761h0a28.473,28.473,0,0,1-2.014,25.163q-7.974,13.329-7.974,23.323c0,25.412,20.088,46.013,44.868,46.013s44.868-20.6,44.868-46.013q0-9.994-7.974-23.323h0a28.474,28.474,0,0,1-2.014-25.163,35.28,35.28,0,0,0,2.913-12.761q0-8.575-6.873-19.506h0a28.473,28.473,0,0,1-2.662-24.867,25.463,25.463,0,0,0,1.737-8.561q0-8.275-7.8-18.219h0A28.475,28.475,0,0,1,486.391,80.491Z" transform="translate(-425.391 -63.774)" fill="#e6ffff"/>
        <path id="Tree-base-2" data-name="Tree-base" d="M509.44,336.449v-23.2l16.291-21.279a.473.473,0,0,0-.752-.576L508.591,312.8a.471.471,0,0,0-.1.288v22.126L493.169,315.2a.473.473,0,1,0-.752.575l16.076,21v2.185a.475.475,0,0,0,.216.4v20.567l-.118.154a.472.472,0,0,0-.1.288v17.276l-15.324-20.015a.473.473,0,0,0-.752.576l16.076,21v7.033a.474.474,0,0,0,.216.4v12.4a.473.473,0,0,0-.072.251v38.083a.474.474,0,0,0,.947,0V405.433a.471.471,0,0,0,.071-.25V399.4l17.029-17.463a.473.473,0,1,0-.678-.661l-16.351,16.768V379.315a.474.474,0,0,0-.1-.288l-.118-.154V363.155a.474.474,0,0,0,.215-.4v-2.519l16.076-21a.473.473,0,1,0-.752-.575l-15.324,20.015v-21.79a.474.474,0,0,0-.1-.288Z" transform="translate(-464.701 -197.355)" fill="#0070ad"/>
      </g>
      <g id="Tree--2" data-name="Tree-" transform="translate(0 41.036)">
        <path id="Tree-base-3" data-name="Tree-base" d="M263.546,356.01c-23.191,0-41.992-19.28-41.992-43.063s18.8-149.73,41.992-149.73,41.992,125.947,41.992,149.73S286.737,356.01,263.546,356.01Z" transform="translate(-221.554 -163.217)" fill="#dcf1ff"/>
        <path id="Tree-base-4" data-name="Tree-base" d="M298.632,436.06V417.708l16.291-21.279a.473.473,0,1,0-.752-.575l-16.389,21.406a.473.473,0,0,0-.1.288v17.277l-15.324-20.015a.473.473,0,1,0-.752.576l16.076,21v7.033a.473.473,0,0,0,.215.4v13.05l-15.539-20.3a.473.473,0,0,0-.752.576L297.9,458.419v19.552a.477.477,0,0,0-.071.25V516.3a.473.473,0,1,0,.947,0V484.376a.471.471,0,0,0,.072-.25V478.34l17.029-17.463a.473.473,0,0,0-.678-.661l-16.351,16.768V436.5a.473.473,0,0,0-.1-.288Z" transform="translate(-256.77 -299.745)" fill="#0070ad"/>
      </g>
      <g id="Tree--3" data-name="Tree-" transform="translate(342.507 53.416)">
        <path id="Tree-base-5" data-name="Tree-base" d="M1093.546,386.01c-23.192,0-41.992-19.28-41.992-43.063s18.8-149.73,41.992-149.73,41.992,125.947,41.992,149.73S1116.737,386.01,1093.546,386.01Z" transform="translate(-1051.554 -193.217)" fill="#e6ffff"/>
        <path id="Tree-base-6" data-name="Tree-base" d="M1128.632,466.06V447.708l16.292-21.279a.473.473,0,0,0-.752-.575l-16.389,21.406a.473.473,0,0,0-.1.288v17.277l-15.324-20.015a.473.473,0,1,0-.752.576l16.076,21v7.033a.473.473,0,0,0,.215.4v13.05l-15.54-20.3a.473.473,0,0,0-.752.576l16.291,21.279v19.552a.476.476,0,0,0-.071.25V546.3a.473.473,0,1,0,.947,0V514.376a.47.47,0,0,0,.072-.251V508.34l17.029-17.463a.473.473,0,1,0-.678-.661l-16.351,16.768V466.5a.473.473,0,0,0-.1-.288Z" transform="translate(-1086.77 -329.745)" fill="#0070ad"/>
      </g>
    </g>
    <g id="Leaves-" transform="translate(371.328 245.239)">
      <path id="Leaves-base" d="M1015.829,701.12c-14.67,2.062-21.3-56.673-23.615-73.148s7.7-31.5,22.369-33.564,28.439,9.623,30.754,26.1S1030.5,699.058,1015.829,701.12Z" transform="translate(-953.86 -594.172)" fill="#dcf1ff"/>
      <path id="Leaves-base-2" data-name="Leaves-base" d="M1056,752.023V665.984" transform="translate(-991.521 -636.35)" fill="none" stroke="#22537f" stroke-linecap="round" stroke-linejoin="round" stroke-width="2"/>
      <path id="Leaves-base-3" data-name="Leaves-base" d="M1058.943,771.366c-11.014-6.618,17.848-51.942,25.637-64.907s23.033-18.109,34.047-11.492,13.627,22.492,5.837,35.457S1069.956,777.984,1058.943,771.366Z" transform="translate(-991.794 -651.678)" fill="#e6ffff"/>
      <path id="Leaves-base-4" data-name="Leaves-base" d="M1063.882,830.479c-3.874-8.307,45.229-30.106,58.938-36.5s27.96-4.84,31.834,3.467-4.1,20.223-17.806,26.615S1067.756,838.786,1063.882,830.479Z" transform="translate(-996.022 -709.215)" fill="#dcf1ff"/>
      <path id="Leaves-base-5" data-name="Leaves-base" d="M1069,862.784l53.027-16.3" transform="translate(-999.157 -742.365)" fill="none" stroke="#22537f" stroke-linecap="round" stroke-linejoin="round" stroke-width="2"/>
      <path id="Leaves-base-6" data-name="Leaves-base" d="M1067,809.178l42.5-48.694" transform="translate(-997.982 -691.854)" fill="none" stroke="#22537f" stroke-linecap="round" stroke-linejoin="round" stroke-width="2"/>
      <path id="Leaves-base-7" data-name="Leaves-base" d="M968.454,780.381c-6.133,6.811-45.385-29.871-56.626-39.991s-15.38-23.847-9.247-30.658,20.217-4.129,31.457,5.991S974.586,773.57,968.454,780.381Z" transform="translate(-899.744 -659.833)" fill="#e6ffff"/>
      <path id="Leaves-base-8" data-name="Leaves-base" d="M1014.31,818.264l-26.617-33.632" transform="translate(-951.401 -706.037)" fill="none" stroke="#22537f" stroke-linecap="round" stroke-linejoin="round" stroke-width="2"/>
      <path id="Leaves-base-9" data-name="Leaves-base" d="M971.543,842.029c-1.581,5.9-40.787-5.291-51.875-8.261S900.874,823.6,902.455,817.7s11.852-8.277,22.939-5.306S973.124,836.127,971.543,842.029Z" transform="translate(-901.216 -721.592)" fill="#cbeffc"/>
      <path id="Leaves-base-10" data-name="Leaves-base" d="M1004.189,862.959,959,847.484" transform="translate(-934.549 -742.952)" fill="none" stroke="#22537f" stroke-linecap="round" stroke-linejoin="round" stroke-width="2"/>
    </g>
    <g id="Boy" transform="translate(156.654 81.769)">
      <g id="_-Torch" data-name="-Torch" transform="translate(0 15.473)">
        <path id="_-Torch-base" data-name="-Torch-base" d="M440.362,526.384a2.339,2.339,0,0,1-2.807,2.24,4.221,4.221,0,0,1-3.3-3.3l-19.734-98.263a13.886,13.886,0,0,1,12.686-16.587q.646-.043,1.295-.029a14.483,14.483,0,0,1,14.151,14.809Z" transform="translate(-399.921 -338.26)" fill="#ffc55f"/>
        <path id="_-Torch-base-2" data-name="-Torch-base" d="M402.337,330.777c-10.026,3.641-26.966-12.555-21.886-30.827s9.579-29.228,4.79-34.9,12.528-2.9,12.528,7.992,1.318-27.195,14.593-37.512q3.476,18.947,12.832,29.52c9.356,10.573,7.394,18.92,3.506,29q6.75,1.33,5.962-3.338c5.992,5.669.161,29.532-13.776,36.095S412.362,327.136,402.337,330.777Z" transform="translate(-379.522 -235.529)" fill="#f95b03"/>
        <path id="_-Torch-base-3" data-name="-Torch-base" d="M443.28,429.143q-.684.394-1.4.73c-13.936,6.563-8.525.332-18.55,3.973a10.461,10.461,0,0,1-6.8-.114l-1.082-6.705q-.08-.5-.124-1a13.812,13.812,0,0,1,12.556-14.963q.392-.034.787-.047a14.044,14.044,0,0,1,14.474,13.6Z" transform="translate(-400.517 -338.598)" fill="#ec961f"/>
        <path id="_-Torch-base-4" data-name="-Torch-base" d="M438.13,429.068l4.6-8.986a1.238,1.238,0,0,1,2.2,1.128l-4.6,8.986A1.238,1.238,0,0,1,438.13,429.068Z" transform="translate(-413.854 -343.521)" fill="#1c2229"/>
        <path id="_-Torch-base-5" data-name="-Torch-base" d="M449.17,434.583l4.6-8.986a1.238,1.238,0,0,1,2.2,1.128l-4.6,8.986A1.238,1.238,0,0,1,449.17,434.583Z" transform="translate(-420.339 -346.76)" fill="#1c2229"/>
      </g>
      <g id="Hand-base" transform="translate(16.139 101.644)">
        <path id="Path_3490" data-name="Path 3490" d="M436.83,603.043c5.815-3.495-5.99-23.249-8.178-24.2-3.651-1.589-9.289,7.234-9.962,11.481-.841,5.311,7.44,12.416,11.715,15.117.347.22,2.257,1.868,2.76,1.785.453-.075-.09-2.233.422-2.461A28.207,28.207,0,0,0,436.83,603.043Z" transform="translate(-418.631 -523.231)" fill="#ffaa83"/>
        <path id="Path_3491" data-name="Path 3491" d="M631.515,647.825l-4.783-7.638Z" transform="translate(-540.857 -559.373)" fill="none" stroke="#ed5738" stroke-linecap="round" stroke-linejoin="round" stroke-width="6"/>
        <path id="Combined-Shape" d="M462.22,508.56c14.478,3.823,36.072,9.876,54.122,16.621-7.962-25.127-15.6-59.15-10.129-70.607,7.905-16.558,19.27-10.194,25.26-.627,5.851,9.345,26.439,79.14,20.017,97.8,2.482,11.233-4.4,16.493-18.857,13.534q-15.344-3.14-73.611-37.549a5.793,5.793,0,0,1-5.222-2.23,8.618,8.618,0,0,1-.731-1.3q-5.593-3.33-11.554-6.929a33.048,33.048,0,0,1-.7-7.732l-.057-.024c-6.147-2.708,3.719-14.185,7.534-12.781,2.535.933,5.816.422,9.9,4.1C459.981,502.446,461.356,505.287,462.22,508.56Z" transform="translate(-430.472 -444.349)" fill="#ffaa83"/>
        <path id="Path_3492" data-name="Path 3492" d="M433.281,584.84a34.451,34.451,0,0,1,3.75-4.493,1.238,1.238,0,1,0-1.8-1.7,36.306,36.306,0,0,0-4.037,4.862,5.556,5.556,0,0,0-.819,1.793,1.841,1.841,0,0,0,.756,2.027c2.068,1.332,5.093,1.522,9.045.127q1.657-.585,2.861-1.093a10.878,10.878,0,0,0,.93,6.967,9.371,9.371,0,0,0,2.2,3.146,2.34,2.34,0,0,0,3.184.033,1.238,1.238,0,0,0-1.569-1.914c-.019-.013-.038-.028-.06-.046a7.54,7.54,0,0,1-1.538-2.317,9.13,9.13,0,0,1,.034-7.884,1.238,1.238,0,0,0-1.941-1.421,20.542,20.542,0,0,1-4.927,2.194c-2.942,1.039-5.042,1.03-6.438.371A5.828,5.828,0,0,1,433.281,584.84Zm14.587,9.806h0Z" transform="translate(-425.497 -523)" fill="#ed5738"/>
      </g>
      <g id="Body-base" transform="translate(80.714 84.978)">
        <path id="Path_3493" data-name="Path 3493" d="M614.966,410.524c16.821-15.694,124.738-.079,132.04,13.878s-14.064,107.435-34.37,119.607-67.575,13.451-85.608-9S598.146,426.218,614.966,410.524Z" transform="translate(-593.605 -403.962)" fill="#ffaa83"/>
        <path id="Path_3494" data-name="Path 3494" d="M595.354,487.6c-9.683.423-18.18-3.206-19.505-12.327-2.573-17.711,1.829-48.6,14.649-61.754,4.606-4.725,8.664-6.5,12.09-6.324,7.011-2.42,17.9-3.365,30.4-3.222,10.2.116-11.493,67.213,24.231,70.967,45.229,4.753,25.013-66.339,32.694-64.832,20.028,3.928,35.968,9.218,38.622,14.29,6,11.463-7.344,76.566-23.553,106.21-3.527,6.45,10.716,34.6,7.087,36.775-17.7,10.613-29.094,8.834-61.191,9.724s-50.637-14.885-50.125-21.093c.825-10,2.488-24.829.506-37.491C600.256,512.122,597.778,500.728,595.354,487.6Z" transform="translate(-575.133 -403.962)" fill="#19bdc1"/>
        <path id="Path_3495" data-name="Path 3495" d="M710.6,475.954a1.733,1.733,0,0,1,3.455-.284c2.013,24.518,9.641,37.138,22.684,38.509,9.221.969,16.775-2.927,22.288-10.751,4.949-7.025,7.916-16.888,8.313-26.85a1.733,1.733,0,1,1,3.464.138c-.421,10.593-3.582,21.1-8.942,28.709-6.2,8.8-14.942,13.31-25.484,12.2C721.256,516.038,712.73,501.932,710.6,475.954Z" transform="translate(-654.685 -445.145)" fill="#fff"/>
        <path id="Path_3496" data-name="Path 3496" d="M592.894,580.946a40.706,40.706,0,0,1-17.37-9.577,1.238,1.238,0,0,1,1.658-1.839q8,7.218,16.345,8.97C594,580.188,594.963,580.946,592.894,580.946Z" transform="translate(-575.115 -501.02)" fill="#fff"/>
        <path id="Path_3497" data-name="Path 3497" d="M616.9,574.541a1.238,1.238,0,0,1-2.366.73c-2.705-8.767-3.833-15.081-3.354-19.041a1.238,1.238,0,1,1,2.458.3C613.212,560.048,614.29,566.085,616.9,574.541Z" transform="translate(-596.234 -492.756)" fill="#19bdc1"/>
      </g>
      <g id="Head" transform="translate(114.709)">
        <g id="Face-base" transform="translate(9.855 45.711)">
          <path id="Path_3498" data-name="Path 3498" d="M692.661,362.6c-4.432-1.405-12.414-8.437-11.148-13.923,1.316-5.7,5.866-9.516,10.163-8.524q.251.058.493.136.22-1.388.516-2.673c4.638-20.087,25-32.537,45.483-27.809s33.327,24.846,28.689,44.933S738.482,407.712,718,402.984C704.385,399.84,695.635,380.868,692.661,362.6Z" transform="translate(-681.379 -308.805)" fill="#ffaa83"/>
          <path id="Path_3499" data-name="Path 3499" d="M755.861,381.714l6.966,6.5a2.171,2.171,0,0,1-2.962,3.176l-6.966-6.5a2.171,2.171,0,1,1,2.962-3.176Z" transform="translate(-722.98 -351.285)" fill="#253238"/>
          <path id="Path_3500" data-name="Path 3500" d="M834.476,391.127l8.893-3.414a2.171,2.171,0,1,1,1.556,4.054l-8.893,3.414a2.171,2.171,0,1,1-1.557-4.054Z" transform="translate(-770.481 -355.066)" fill="#22537f"/>
          <path id="Path_3501" data-name="Path 3501" d="M792.611,407.26q-5.042,12.207-1.828,15.623t6.171,4.1q-4.453,3.874-8.124,4.364c-3.672.49-9.369-2.35-5.69-4.527" transform="translate(-740.449 -366.632)" fill="none" stroke="#ed5738" stroke-linecap="round" stroke-linejoin="round" stroke-width="6"/>
          <path id="Path_3502" data-name="Path 3502" d="M695.653,394.182a1.238,1.238,0,0,1,.712,2.372c-3.784,1.136-4.455,2.8-2.442,5.885a1.238,1.238,0,1,1-2.074,1.352C688.911,399.286,690.323,395.783,695.653,394.182Z" transform="translate(-686.645 -358.92)" fill="#ed5738"/>
          <path id="Path_3503" data-name="Path 3503" d="M757,481.545a1.238,1.238,0,1,1,.045-2.476c8.859.163,15.02,4.638,18.283,13.258a1.238,1.238,0,0,1-2.316.877C770.107,485.519,764.836,481.689,757,481.545Z" transform="translate(-725.083 -408.808)" fill="#ed5738"/>
          <path id="Path_3504" data-name="Path 3504" d="M722.706,488.735a1.238,1.238,0,0,1,2.352-.774c3.518,10.686,9.518,16.931,18.047,18.9,8.5,1.963,16.7-1.419,24.7-10.306a1.238,1.238,0,0,1,1.841,1.656c-8.556,9.506-17.625,13.248-27.093,11.062C733.108,507.094,726.478,500.193,722.706,488.735Z" transform="translate(-705.616 -413.531)" fill="#ed5738"/>
          <path id="Path_3505" data-name="Path 3505" d="M747.405,407.718l6.422-1.242L748.56,403.1a1.238,1.238,0,0,1,1.337-2.084l7.871,5.048a1.238,1.238,0,0,1-.433,2.257l-9.459,1.829a1.238,1.238,0,1,1-.47-2.431Z" transform="translate(-719.57 -362.848)" fill="#1c2229"/>
          <circle id="Ellipse_35" data-name="Ellipse 35" cx="2.682" cy="2.682" r="2.682" transform="translate(62.896 48.071)" fill="#1c2229"/>
        </g>
        <path id="Hair" d="M663.868,248.928l-5.294-2.17a1.733,1.733,0,1,1,1.315-3.207l2,.82-1.688-1.565a1.733,1.733,0,1,1,2.357-2.542l2.718,2.52q.24-.574.522-1.12c5.937-11.47,9.813-14.472,21.311-9.493,19.817-45.267,50.188-39.914,58.525-16.241,11.692-14.661,22.378-14.505,30.257-9.329l1.884-3.337a1.733,1.733,0,1,1,3.019,1.7l-2.121,3.757a32.069,32.069,0,0,1,4.273,4.593l9.2-6.362a1.733,1.733,0,0,1,1.971,2.852l-9.194,6.357.08.128,6.786-2.255a1.733,1.733,0,0,1,1.093,3.29l-6.157,2.046a29.657,29.657,0,0,1,2.041,5.207c30.451-4.661,42.939,20.245,5.839,35.306,2.641,17.474-19.233,22.709-27.064,18.133-.461,15.266-13.262,23.524-19.96,23.739,1.5-2.39,4.108-9.587,5.177-14.217-2.336-8.557-4.1-11.028-3.253-21.2-6.791,4.514-19.31,5.7-30.844,7.5-5.134.8-21.979-1.159-27.119-8.442-1.768,7.659-1.811,15.655-7.183,26.489-4.356,1.432-2.349-12.617-4.994-15.265-3.113-3.116-7.217.551-9.286,1.322C668.922,275.009,662.888,260.438,663.868,248.928Z" transform="translate(-657.498 -198.033)" fill="#253238"/>
      </g>
      <g id="Hand-base-2" data-name="Hand-base" transform="translate(165.279 102.3)">
        <path id="Path_3506" data-name="Path 3506" d="M883.873,484.24c.319,8.9-4.037,55.986-22.19,84.228-3.977,6.188-2.92,9.406-5.883,14.22-11.449,18.6-30.681,22.072-30.681-11.88,0-8.548,6.759-15.992,8.224-23.664,5.014-26.265,16.634-66.951,28.34-74.99C876.809,461.766,883.469,472.96,883.873,484.24Z" transform="translate(-806.518 -458.915)" fill="#ffaa83"/>
        <path id="Path_3507" data-name="Path 3507" d="M897,457.927c.342,11.065,2.282,29.258,2.338,45.835s-46.9,29.03-50.515,0,12.436-57.824,26.163-57.824S896.654,446.642,897,457.927Z" transform="translate(-820.138 -445.938)" fill="#19bdc1"/>
        <path id="Path_3508" data-name="Path 3508" d="M895.378,588.6c-17.26,14.295-33.772,14.569-49.091.755a1.238,1.238,0,0,1,1.658-1.839c14.376,12.964,29.511,12.712,45.853-.823a1.238,1.238,0,1,1,1.579,1.907Z" transform="translate(-818.711 -528.442)" fill="#fff"/>
        <path id="Path_3509" data-name="Path 3509" d="M856.862,560.444c2.041-8.945,4.221-14.977,6.615-18.167a1.238,1.238,0,0,1,1.98,1.486c-2.128,2.835-4.213,8.6-6.182,17.232a1.238,1.238,0,0,1-2.414-.551Z" transform="translate(-825.143 -502.231)" fill="#19bdc1"/>
        <path id="Path_3510" data-name="Path 3510" d="M846.852,652.163v-5.082a1.238,1.238,0,1,1,2.476,0v5.082a1.238,1.238,0,0,1-2.476,0Z" transform="translate(-819.283 -563.35)" fill="#ed5738"/>
        <path id="Path_3511" data-name="Path 3511" d="M895.18,663.836c1.6-4.134,1.606-10.649-.054-19.5-2.581-9.757-3.079-15.651-1.243-18.129a1.238,1.238,0,0,1,1.989,1.474c-1.184,1.6-.715,7.1,1.678,16.153,1.746,9.283,1.746,16.231-.062,20.894a1.238,1.238,0,0,1-2.308-.9Z" transform="translate(-846.26 -551.525)" fill="#ed5738"/>
        <path id="Path_3512" data-name="Path 3512" d="M782.707,585.774c-1.971-2.43-1.325-3.37-2.116-6.378-.272-1.036.971-2.677.81-3.773-.12-.815-1.371-1.992-1.358-2.818.022-1.469,1.076-2.918,1.358-4.422.248-1.322-1.582-2.392-.81-4.538s2.925-2.38,3.709-3.513c.623-.9-2.6-2.229,0-4.831s10.336-3.579,14.193-1.757c-1.179,7.376,5.395,7.8,9.093,5.58.934-.559.638-5.094,2.071-5.094,1.2,0,4.344,0,6.015,1.27,9.826,7.47,12.977,12.8,11.795,28.062-.59,7.616-21.817,8.963-28.973,7.47C794.369,590.171,785.558,589.287,782.707,585.774Z" transform="translate(-780.043 -508.707)" fill="#ffaa83"/>
      </g>
      <g id="_-Magnifier-base" data-name="-Magnifier-base" transform="translate(161.753 77.153)">
        <path id="Path_3513" data-name="Path 3513" d="M824.312,536.74l10.091,2.145-3.291,15.952-10.091-2.145Z" transform="translate(-800.586 -474.123)" fill="#1e5b89"/>
        <circle id="Ellipse_36" data-name="Ellipse 36" cx="33.219" cy="33.219" r="33.219" fill="#19bdc1"/>
        <circle id="Ellipse_37" data-name="Ellipse 37" cx="29.505" cy="29.505" r="29.505" transform="translate(3.714 4.127)" fill="#fff"/>
        <path id="Path_3514" data-name="Path 3514" d="M838,415.158c-2.43,11.424-9.728,26.253-19.234,37.531A29.508,29.508,0,1,1,838,415.158Z" transform="translate(-776.786 -390.873)" fill="#ffaa83"/>
        <g id="Eye" transform="translate(17.332 13.618)">
          <circle id="Ellipse_38" data-name="Ellipse 38" cx="16.094" cy="16.094" r="16.094" fill="#fff"/>
          <circle id="Ellipse_39" data-name="Ellipse 39" cx="8.253" cy="8.253" r="8.253" transform="translate(8.253 8.253)" fill="#22537f"/>
          <circle id="Ellipse_40" data-name="Ellipse 40" cx="4.127" cy="4.127" r="4.127" transform="translate(12.38 12.38)" fill="#1c2229"/>
          <circle id="Ellipse_41" data-name="Ellipse 41" cx="3.92" cy="3.92" r="3.92" transform="translate(18.157 9.078)" fill="#fff"/>
        </g>
      </g>
    </g>
    <g id="Frontground" transform="translate(57.158 260.09)">
      <path id="Leaves" d="M663.437,791.729q-10.579-28.462-30.98-28.462c-20.4,0-10.567-29.873-31.724-29.873-13.773,0-13.773,16.627-33.5,6.3-20.338-10.647.756-29.014-37.781-32.54s-29.684,32.54-45.552,32.54c-11.428,0-12.164-18.17-21.913-19.646s-11.082,10.579-18.387,9.068c-8.9-1.841-5.541-17.131-27.24-17.131s-14.319,29.535-19.609,32.778-12.09-7.588-19.394,5.258,5.349,18.89-5.289,18.89q-19.444,0-21.459,22.818,1.432,6.984,26.748,7.816c25.316.831,26.455-6.311,57.867-5.037s36.736,0,81.847,0,37.1,10.13,71.544,7.052,60.833,3.286,80.6,2.015Q685.456,802.531,663.437,791.729Z" transform="translate(-263.045 -675.24)" fill="#dcf1ff"/>
      <g id="Leaves-2" data-name="Leaves" transform="translate(13.329)">
        <path id="Leaves-base-11" data-name="Leaves-base" d="M254.86,707.906A3.347,3.347,0,0,1,253.2,712.9c-2.031.7-13.687,2.759-14.8.7s8.743-7.444,10.773-8.147A4.955,4.955,0,0,1,254.86,707.906Zm-12.03-7.08a3.347,3.347,0,0,1-1.665,4.994c-2.031.7-13.687,2.759-14.8.7s8.743-7.444,10.773-8.147A4.956,4.956,0,0,1,242.829,700.826Zm-10.59-7.453a3.241,3.241,0,0,1-2.528,4.53c-2.184.364-14.39.562-15.178-1.576s10.14-5.8,12.324-6.165A5.107,5.107,0,0,1,232.24,693.373Zm-11.113-7.55a3.214,3.214,0,0,1-3.244,4.023c-2.275.056-14.718-1.4-15.2-3.571s11.174-4.217,13.449-4.273A5.157,5.157,0,0,1,221.126,685.823ZM211,676.616a3.23,3.23,0,0,1-3.66,3.666c-2.31-.138-14.777-2.622-15.066-4.785s11.71-3.185,14.021-3.047A5.143,5.143,0,0,1,211,676.616Zm-9.794-8.832c-.146,2.1-2.149,3.344-4.473,2.786s-14.513-5.217-14.367-7.314,12.572-.839,14.9-.281A5,5,0,0,1,201.206,667.784Zm-8.022-9.252c-.728,1.885-3.107,2.524-5.313,1.428s-13.3-8.429-12.571-10.314,13,2.393,15.207,3.489S193.912,656.647,193.184,658.532Zm-6.3-11.455c-1.193,1.6-3.767,1.671-5.748.168s-11.508-10.756-10.315-12.352,12.654,5.069,14.636,6.572S188.073,645.48,186.88,647.077Zm4.054-3.537a3.816,3.816,0,0,1-2.889-3.795c.146-1.648,2.337-10.014,4.08-9.566s2.378,9.539,2.231,11.187A2.576,2.576,0,0,1,190.934,643.539Zm6.9,11.512a3.9,3.9,0,0,1-3.239-3.556c-.041-1.687,1.16-10.4,2.908-10.12s3.381,9.437,3.422,11.124A2.516,2.516,0,0,1,197.83,655.051Zm7.578,10.308a3.89,3.89,0,0,1-3.183-3.6c-.009-1.682,1.358-10.341,3.106-10.036s3.217,9.461,3.226,11.143A2.524,2.524,0,0,1,205.408,665.359Zm9.428,10.544a3.948,3.948,0,0,1-3.5-3.329c-.2-1.706.169-10.63,1.907-10.5s4.19,9.272,4.387,10.978A2.486,2.486,0,0,1,214.837,675.9Zm10.006,7.922a3.923,3.923,0,0,1-3.348-3.468c-.1-1.7.764-10.5,2.51-10.281s3.708,9.379,3.812,11.075A2.5,2.5,0,0,1,224.842,683.824Zm8.556,6.332a3.78,3.78,0,0,1-2.766-3.865c.209-1.631,2.724-9.862,4.461-9.358s2.037,9.55,1.828,11.181A2.6,2.6,0,0,1,233.4,690.157Zm8.807,5.538a3.68,3.68,0,0,1-2.442-4.02c.364-1.58,3.677-9.428,5.389-8.788s1.176,9.526.812,11.106A2.68,2.68,0,0,1,242.206,695.695Zm11.454,7.542a3.832,3.832,0,0,1-2.951-3.758c.116-1.656,2.142-10.086,3.887-9.666s2.548,9.529,2.432,11.185A2.565,2.565,0,0,1,253.66,703.237Z" transform="translate(-170.713 -630.161)" fill="#e6ffff"/>
        <path id="Leaves-base-12" data-name="Leaves-base" d="M297.94,731.519a1.188,1.188,0,0,1,.68,1.4.948.948,0,0,1-1.364.391q-69.844-34.491-86.19-73.115a.846.846,0,0,1,.567-1.223,1.314,1.314,0,0,1,1.415.786Q228.922,697.385,297.94,731.519Z" transform="translate(-194.363 -647.07)" fill="#465197"/>
        <path id="Leaves-base-13" data-name="Leaves-base" d="M382.837,715.966a3.161,3.161,0,0,1-3.467,3.742c-2.286-.069-14.691-2.166-15.062-4.3s11.433-3.5,13.719-3.432A5.156,5.156,0,0,1,382.837,715.966Zm-9.773-9.145c.059,2.105-1.771,3.508-4.088,3.132s-14.634-4.07-14.694-6.175,12.162-1.824,14.479-1.448A5.087,5.087,0,0,1,373.065,706.821Zm-8.449-10.5c-.137,2.066-2.122,3.284-4.436,2.72s-14.454-5.222-14.318-7.288,12.5-.756,14.811-.192A5,5,0,0,1,364.616,696.318Zm-8.189-10.084c-.561,1.923-2.835,2.7-5.079,1.744s-13.673-7.605-13.111-9.529,12.9,1.6,15.143,2.563S356.987,684.31,356.427,686.234Zm-8.084-11.151c-1.365,1.408-3.963,1.2-5.8-.458s-10.472-11.595-9.107-13,12.211,6.245,14.051,7.906S349.708,673.675,348.342,675.083Zm-4.226-12.6c-1.913.738-4.445-.343-5.657-2.414s-6.077-13.638-4.164-14.376,9.879,9.633,11.09,11.7S346.028,661.741,344.116,662.479Zm6.261-1.994a3.308,3.308,0,0,1-1.433-4.248c.768-1.361,6.1-7.769,7.658-6.784s-1.243,8.991-2.011,10.352A2.935,2.935,0,0,1,350.377,660.485Zm5.091,13.293a3.71,3.71,0,0,1-2.553-3.934c.294-1.589,3.232-9.529,4.936-8.945s1.528,9.471,1.234,11.06A2.6,2.6,0,0,1,355.468,673.778Zm5.654,11.047a3.689,3.689,0,0,1-2.487-3.963c.325-1.578,3.421-9.439,5.12-8.828s1.356,9.462,1.031,11.04A2.618,2.618,0,0,1,361.121,684.825Zm7.48,11.617a3.809,3.809,0,0,1-2.866-3.772c.139-1.635,2.275-9.932,4-9.485s2.379,9.471,2.24,11.106A2.531,2.531,0,0,1,368.6,696.442Zm8.575,9.287a3.753,3.753,0,0,1-2.68-3.873c.232-1.609,2.852-9.7,4.564-9.169s1.87,9.48,1.638,11.089A2.571,2.571,0,0,1,377.176,705.729Zm7.418,7.531a3.521,3.521,0,0,1-2.012-4.131c.536-1.489,4.711-8.734,6.359-7.942s.144,9.322-.392,10.811A2.751,2.751,0,0,1,384.594,713.259Z" transform="translate(-266.2 -639.259)" fill="#dcf1ff"/>
        <path id="Leaves-base-14" data-name="Leaves-base" d="M424.489,748.812a1.121,1.121,0,0,1,.5,1.425.993.993,0,0,1-1.427.185q-47.093-30.22-56.321-69.148a.8.8,0,0,1,.8-1.031,1.357,1.357,0,0,1,1.283,1Q378.275,719.147,424.489,748.812Z" transform="translate(-286.129 -659.576)" fill="#465197"/>
      </g>
      <g id="Leaves--2" data-name="Leaves-" transform="translate(251.791 49.058)">
        <path id="Leaves-base-15" data-name="Leaves-base" d="M810.182,749.045c1.321.023,2.366,1.545,2.333,3.4s-1.275,11.66-2.6,11.637-2.22-9.866-2.188-11.721S808.861,749.021,810.182,749.045Z" transform="translate(-783.322 -749.044)" fill="#fff"/>
        <path id="Leaves-base-16" data-name="Leaves-base" d="M788.38,769.895c1.108-.72,2.825-.042,3.836,1.514s5.464,10.38,4.356,11.1-7.358-6.937-8.368-8.493S787.272,770.615,788.38,769.895Z" transform="translate(-771.436 -761.122)" fill="#fff"/>
        <path id="Leaves-base-17" data-name="Leaves-base" d="M775.176,791.8c1.127-1.209,3.418-.906,5.116.678s9.775,10.948,8.648,12.157-11.033-6.2-12.73-7.779S774.048,793.007,775.176,791.8Z" transform="translate(-763.838 -773.72)" fill="#fff"/>
        <path id="Leaves-base-18" data-name="Leaves-base" d="M767.5,815.846c1.161-1.486,3.793-1.368,5.879.262s12.194,11.466,11.033,12.952-13.15-5.942-15.236-7.572S766.34,817.332,767.5,815.846Z" transform="translate(-759.372 -787.668)" fill="#fff"/>
        <path id="Leaves-base-19" data-name="Leaves-base" d="M758.614,844.815c1.136-1.817,4.125-2,6.677-.4s15.146,11.513,14.011,13.331-15.571-5.155-18.123-6.749S757.478,846.632,758.614,844.815Z" transform="translate(-754.215 -804.419)" fill="#fff"/>
        <path id="Leaves-base-20" data-name="Leaves-base" d="M748.789,876.886c.856-2.23,4.088-3.063,7.22-1.861s19.019,9.375,18.163,11.6-18.131-2.328-21.263-3.53S747.933,879.116,748.789,876.886Z" transform="translate(-748.579 -822.715)" fill="#fff"/>
        <path id="Leaves-base-21" data-name="Leaves-base" d="M824.986,769.895c1.108.72,1.187,2.564.177,4.12s-7.26,9.213-8.368,8.493,3.345-9.543,4.356-11.1S823.878,769.175,824.986,769.895Z" transform="translate(-788.542 -761.122)" fill="#fff"/>
        <path id="Leaves-base-22" data-name="Leaves-base" d="M830.74,791.8c1.127,1.209.665,3.473-1.033,5.056s-11.6,8.988-12.73,7.779,6.95-10.574,8.648-12.157S829.613,790.589,830.74,791.8Z" transform="translate(-788.689 -773.72)" fill="#fff"/>
        <path id="Leaves-base-23" data-name="Leaves-base" d="M834.056,815.846c1.16,1.486.41,4.012-1.676,5.641s-14.075,9.057-15.236,7.572,8.946-11.322,11.033-12.952S832.9,814.36,834.056,815.846Z" transform="translate(-788.796 -787.668)" fill="#fff"/>
        <path id="Leaves-base-24" data-name="Leaves-base" d="M837.751,844.815c1.136,1.817-.013,4.583-2.565,6.178s-16.987,8.567-18.123,6.749,11.459-11.736,14.011-13.331S836.615,843,837.751,844.815Z" transform="translate(-788.76 -804.419)" fill="#fff"/>
        <path id="Leaves-base-25" data-name="Leaves-base" d="M841.274,876.886c.856,2.23-.989,5.012-4.12,6.214s-20.407,5.759-21.263,3.53,15.032-10.4,18.163-11.6S840.418,874.656,841.274,876.886Z" transform="translate(-788.095 -822.715)" fill="#fff"/>
        <path id="Leaves-base-26" data-name="Leaves-base" d="M812.553,793.749a.413.413,0,0,1,.825,0v54.677a.413.413,0,1,1-.825,0Z" transform="translate(-786.154 -775.059)" fill="#fff"/>
      </g>
      <g id="Leaves--3" data-name="Leaves-" transform="translate(292.757 73.599)">
        <path id="Leaves-base-27" data-name="Leaves-base" d="M920.938,808.613c.868.368,1.152,1.655.635,2.873s-3.96,7.373-4.828,7,1.168-7.12,1.685-8.339S920.071,808.244,920.938,808.613Z" transform="translate(-888.192 -808.513)" fill="#fff"/>
        <path id="Leaves-base-28" data-name="Leaves-base" d="M903.807,816.363c.925-.18,1.88.728,2.133,2.027s.84,8.327-.085,8.507-3.013-6.556-3.266-7.856S902.881,816.542,903.807,816.363Z" transform="translate(-879.965 -813.11)" fill="#fff"/>
        <path id="Leaves-base-29" data-name="Leaves-base" d="M889.123,827.471c1.069-.5,2.5.314,3.2,1.816s3.541,9.856,2.472,10.354-5.643-7.048-6.343-8.549S888.054,827.97,889.123,827.471Z" transform="translate(-871.478 -819.562)" fill="#fff"/>
        <path id="Leaves-base-30" data-name="Leaves-base" d="M877.494,841.452c1.165-.673,2.875.108,3.82,1.744s5,10.845,3.837,11.517-7.111-7.446-8.056-9.082S876.329,842.125,877.494,841.452Z" transform="translate(-864.672 -827.718)" fill="#fff"/>
        <path id="Leaves-base-31" data-name="Leaves-base" d="M863.729,858.4c1.237-.9,3.263-.219,4.525,1.518s6.943,11.665,5.706,12.564-8.924-7.572-10.186-9.31S862.492,859.3,863.729,858.4Z" transform="translate(-856.64 -837.582)" fill="#fff"/>
        <path id="Leaves-base-32" data-name="Leaves-base" d="M848.489,877.252c1.162-1.246,3.523-.934,5.274.7s10.077,11.286,8.915,12.532-11.373-6.387-13.124-8.019S847.327,878.5,848.489,877.252Z" transform="translate(-847.853 -848.438)" fill="#fff"/>
        <path id="Leaves-base-33" data-name="Leaves-base" d="M924.324,828.192c.541.772.1,2.014-.984,2.773s-7.266,4.155-7.807,3.382,4.764-5.419,5.849-6.179S923.783,827.42,924.324,828.192Z" transform="translate(-887.582 -819.727)" fill="#fff"/>
        <path id="Leaves-base-34" data-name="Leaves-base" d="M921.988,845.88c.423,1.1-.488,2.475-2.035,3.069s-10.079,2.845-10.5,1.743,7.424-5.138,8.97-5.731S921.565,844.779,921.988,845.88Z" transform="translate(-884.023 -829.761)" fill="#fff"/>
        <path id="Leaves-base-35" data-name="Leaves-base" d="M917.488,863.6c.371,1.293-.8,2.764-2.617,3.284s-11.733,2.23-12.1.937,8.945-5.1,10.761-5.62S917.117,862.3,917.488,863.6Z" transform="translate(-880.1 -839.936)" fill="#fff"/>
        <path id="Leaves-base-36" data-name="Leaves-base" d="M912.118,884.813c.265,1.506-1.234,3.029-3.348,3.4s-13.529,1.127-13.794-.379,10.718-4.7,12.832-5.074S911.852,883.307,912.118,884.813Z" transform="translate(-875.527 -852.074)" fill="#fff"/>
        <path id="Leaves-base-37" data-name="Leaves-base" d="M906.707,908.148c-.03,1.7-1.994,3.052-4.387,3.01s-15.041-1.644-15.01-3.348,12.725-2.864,15.118-2.822S906.737,906.444,906.707,908.148Z" transform="translate(-871.028 -865.176)" fill="#fff"/>
        <path id="Leaves-base-38" data-name="Leaves-base" d="M893.32,837.97a.413.413,0,1,1,.766.309L879.47,874.453a.413.413,0,1,1-.765-.309Z" transform="translate(-865.956 -825.663)" fill="#fff"/>
      </g>
      <path id="Leaves-3" data-name="Leaves" d="M463.911,838.3q-5.913-9.4-26.984-9.4c-21.072,0-17.312-11.372-39.164-11.372s-8.722-42.976-61.852-45.25S294.809,797.3,278.42,797.3s-25.2-13.371-45.265-12.427S205,815.833,196.935,817.53s-2.081-5.941-24.193-5.941q-22.111,0-31.217,17.312-12.686,9.4,26.336,9.4c9.577,0,35.955-3.054,65.3-3.9,16.558-.479,46.787,8.656,84.806,8.656,17.95,0,33.332-4.081,68.417-4.753Q421.465,837.633,463.911,838.3Z" transform="translate(-138.412 -713.555)" fill="#e6ffff"/>
    </g>
  </g>
</svg>
