<svg xmlns="http://www.w3.org/2000/svg" xmlns:xlink="http://www.w3.org/1999/xlink" width="500" height="372.608" viewBox="0 0 500 372.608">
  <defs>
    <clipPath id="clip-path">
      <path id="Path_4898" data-name="Path 4898" d="M354.384,195.51a59.916,59.916,0,0,0-82.342-55.059,72.415,72.415,0,0,0-135.765,16.022,62.317,62.317,0,0,0,4.057,124.5H338.652a44.181,44.181,0,0,0,15.732-85.466Z" fill="none"/>
    </clipPath>
  </defs>
  <g id="Group_6343" data-name="Group 6343" transform="translate(0 -54.953)">
    <g id="Background_Complete" data-name="Background Complete">
      <g id="Group_6282" data-name="Group 6282">
        <rect id="Rectangle_1303" data-name="Rectangle 1303" width="500" height="0.25" transform="translate(0 382.398)" fill="#ebebeb"/>
        <rect id="Rectangle_1304" data-name="Rectangle 1304" width="55.235" height="0.25" transform="translate(394.667 398.494)" fill="#ebebeb"/>
        <rect id="Rectangle_1305" data-name="Rectangle 1305" width="8.693" height="0.25" transform="translate(321.807 393.25)" fill="#ebebeb"/>
        <rect id="Rectangle_1306" data-name="Rectangle 1306" width="19.192" height="0.25" transform="translate(372.474 389.208)" fill="#ebebeb"/>
        <rect id="Rectangle_1307" data-name="Rectangle 1307" width="43.193" height="0.25" transform="translate(52.459 390.888)" fill="#ebebeb"/>
        <rect id="Rectangle_1308" data-name="Rectangle 1308" width="45.722" height="0.25" transform="translate(215.333 397.347)" fill="#ebebeb"/>
        <rect id="Rectangle_1309" data-name="Rectangle 1309" width="93.676" height="0.25" transform="translate(140.464 393.125)" fill="#ebebeb"/>
        <path id="Path_4818" data-name="Path 4818" d="M242.721,332.092a5.715,5.715,0,0,1-5.707,5.708H43.915a5.715,5.715,0,0,1-5.708-5.708V60.66a5.714,5.714,0,0,1,5.708-5.707h193.1a5.714,5.714,0,0,1,5.707,5.707m-.25,0a5.463,5.463,0,0,0-5.457-5.457H43.915a5.463,5.463,0,0,0-5.458,5.457V332.092a5.464,5.464,0,0,0,5.458,5.458h193.1a5.463,5.463,0,0,0,5.457-5.458" fill="#ebebeb"/>
        <path id="Path_4819" data-name="Path 4819" d="M453.31,337.8h-193.1a5.714,5.714,0,0,1-5.707-5.708V60.66a5.713,5.713,0,0,1,5.707-5.707h193.1a5.714,5.714,0,0,1,5.709,5.707V332.092A5.715,5.715,0,0,1,453.31,337.8ZM260.212,55.2a5.463,5.463,0,0,0-5.457,5.457V332.092a5.463,5.463,0,0,0,5.457,5.458h193.1a5.464,5.464,0,0,0,5.459-5.458V60.66A5.464,5.464,0,0,0,453.31,55.2Z" fill="#ebebeb"/>
      </g>
      <g id="Group_6288" data-name="Group 6288">
        <path id="Path_4820" data-name="Path 4820" d="M193.152,147.563a28.422,28.422,0,0,0-39.059-26.117,34.35,34.35,0,0,0-64.4,7.6A29.56,29.56,0,0,0,91.619,188.1H185.69a20.957,20.957,0,0,0,7.462-40.54Z" fill="#254a5d" opacity="0.096"/>
        <path id="Path_4821" data-name="Path 4821" d="M434.041,284.008a28.42,28.42,0,0,0-39.059-26.117,34.349,34.349,0,0,0-64.4,7.6,29.56,29.56,0,0,0,1.925,59.058h94.07a20.957,20.957,0,0,0,7.463-40.54Z" fill="#f5f5f5" opacity="0.553"/>
        <path id="Path_4822" data-name="Path 4822" d="M343.96,191.859A14.742,14.742,0,0,0,323.7,178.313a17.816,17.816,0,0,0-33.4,3.942,15.332,15.332,0,0,0,1,30.631H340.09a10.87,10.87,0,0,0,3.87-21.027Z" fill="#e0e0e0"/>
        <path id="Path_4823" data-name="Path 4823" d="M412.766,103.827A19.474,19.474,0,0,0,386,85.931a23.537,23.537,0,0,0-44.127,5.207,20.255,20.255,0,0,0,1.319,40.467h64.459a14.36,14.36,0,0,0,5.113-27.778Z" fill="#254a5d" opacity="0.096"/>
        <path id="Path_4824" data-name="Path 4824" d="M206.087,275.221a19.475,19.475,0,0,0-26.764-17.9,23.537,23.537,0,0,0-44.127,5.207A20.255,20.255,0,0,0,136.515,303h64.459a14.36,14.36,0,0,0,5.113-27.779Z" fill="#f5f5f5" opacity="0.553"/>
        <g id="Group_6287" data-name="Group 6287">
          <g id="Group_6283" data-name="Group 6283">
            <path id="Path_4825" data-name="Path 4825" d="M131,175.06a.512.512,0,0,1-.351-.15.427.427,0,0,1-.109-.16.433.433,0,0,1-.04-.19.477.477,0,0,1,.04-.2.427.427,0,0,1,.109-.16.527.527,0,0,1,.541-.11.645.645,0,0,1,.16.11.491.491,0,0,1,.15.36.448.448,0,0,1-.04.19.43.43,0,0,1-.11.16A.509.509,0,0,1,131,175.06Z" fill="#e0e0e0"/>
            <path id="Path_4826" data-name="Path 4826" d="M130.5,196.6a.5.5,0,0,1,.5-.5h0a.5.5,0,0,1,.5.5h0a.5.5,0,0,1-.5.5h0A.5.5,0,0,1,130.5,196.6Zm0-5.51a.5.5,0,0,1,.5-.5h0a.5.5,0,0,1,.5.5h0a.5.5,0,0,1-.5.5h0A.508.508,0,0,1,130.5,191.09Zm0-5.51a.5.5,0,0,1,.5-.5h0a.5.5,0,0,1,.5.5h0a.5.5,0,0,1-.5.5h0A.508.508,0,0,1,130.5,185.58Zm0-5.51a.5.5,0,0,1,.5-.5h0a.5.5,0,0,1,.5.5h0a.5.5,0,0,1-.5.5h0A.508.508,0,0,1,130.5,180.07Z" fill="#e0e0e0"/>
            <path id="Path_4827" data-name="Path 4827" d="M131,202.61a.433.433,0,0,1-.19-.04.523.523,0,0,1-.27-.27.406.406,0,0,1-.04-.19.433.433,0,0,1,.04-.19.361.361,0,0,1,.109-.16.471.471,0,0,1,.161-.11.5.5,0,0,1,.38,0,.457.457,0,0,1,.16.11.363.363,0,0,1,.11.16.448.448,0,0,1,.04.19.469.469,0,0,1-.15.35.356.356,0,0,1-.16.11A.408.408,0,0,1,131,202.61Z" fill="#e0e0e0"/>
            <path id="Path_4828" data-name="Path 4828" d="M222.17,202.11a.5.5,0,0,1,.49-.5h0a.51.51,0,0,1,.51.5h0a.5.5,0,0,1-.51.5h0A.493.493,0,0,1,222.17,202.11Zm-6.11,0a.5.5,0,0,1,.5-.5h0a.5.5,0,0,1,.49.5h0a.493.493,0,0,1-.49.5h0A.5.5,0,0,1,216.06,202.11Zm-6.11,0a.5.5,0,0,1,.5-.5h0a.508.508,0,0,1,.5.5h0a.5.5,0,0,1-.5.5h0A.5.5,0,0,1,209.95,202.11Zm-6.12,0a.508.508,0,0,1,.5-.5h0a.5.5,0,0,1,.5.5h0a.5.5,0,0,1-.5.5h0A.5.5,0,0,1,203.83,202.11Zm-6.11,0a.508.508,0,0,1,.5-.5h0a.5.5,0,0,1,.5.5h0a.5.5,0,0,1-.5.5h0A.5.5,0,0,1,197.72,202.11Zm-6.111,0a.5.5,0,0,1,.5-.5h0a.5.5,0,0,1,.5.5h0a.5.5,0,0,1-.5.5h0A.5.5,0,0,1,191.609,202.11Zm-6.109,0a.5.5,0,0,1,.5-.5h0a.5.5,0,0,1,.5.5h0a.5.5,0,0,1-.5.5h0A.5.5,0,0,1,185.5,202.11Zm-6.11,0a.5.5,0,0,1,.5-.5h0a.508.508,0,0,1,.5.5h0a.5.5,0,0,1-.5.5h0A.5.5,0,0,1,179.39,202.11Zm-6.111,0a.5.5,0,0,1,.5-.5h0a.507.507,0,0,1,.5.5h0a.5.5,0,0,1-.5.5h0A.5.5,0,0,1,173.279,202.11Zm-6.109,0a.5.5,0,0,1,.5-.5h0a.508.508,0,0,1,.5.5h0a.5.5,0,0,1-.5.5h0A.5.5,0,0,1,167.17,202.11Zm-6.12,0a.507.507,0,0,1,.5-.5h0a.51.51,0,0,1,.51.5h0a.5.5,0,0,1-.51.5h0A.5.5,0,0,1,161.05,202.11Zm-6.1,0a.5.5,0,0,1,.5-.5h0a.5.5,0,0,1,.49.5h0a.493.493,0,0,1-.49.5h0A.5.5,0,0,1,154.95,202.11Zm-6.12,0a.508.508,0,0,1,.5-.5h0a.5.5,0,0,1,.5.5h0a.5.5,0,0,1-.5.5h0A.5.5,0,0,1,148.83,202.11Zm-6.11,0a.508.508,0,0,1,.5-.5h0a.5.5,0,0,1,.5.5h0a.5.5,0,0,1-.5.5h0A.5.5,0,0,1,142.72,202.11Zm-6.111,0a.509.509,0,0,1,.5-.5h0a.5.5,0,0,1,.5.5h0a.5.5,0,0,1-.5.5h0A.5.5,0,0,1,136.609,202.11Z" fill="#e0e0e0"/>
            <path id="Path_4829" data-name="Path 4829" d="M228.779,202.61a.4.4,0,0,1-.189-.04.444.444,0,0,1-.17-.11.451.451,0,0,1-.1-.16.418.418,0,0,1-.04-.19.482.482,0,0,1,.311-.46.5.5,0,0,1,.38,0,.361.361,0,0,1,.16.11.5.5,0,0,1,.149.35.508.508,0,0,1-.149.35.361.361,0,0,1-.16.11A.435.435,0,0,1,228.779,202.61Z" fill="#e0e0e0"/>
            <path id="Path_4830" data-name="Path 4830" d="M228.279,196.16a.5.5,0,0,1,.5-.5h0a.5.5,0,0,1,.5.5h0a.507.507,0,0,1-.5.5h0A.5.5,0,0,1,228.279,196.16Zm0-5.96a.5.5,0,0,1,.5-.5h0a.5.5,0,0,1,.5.5h0a.5.5,0,0,1-.5.5h0A.5.5,0,0,1,228.279,190.2Zm0-5.96a.5.5,0,0,1,.5-.5h0a.507.507,0,0,1,.5.5h0a.5.5,0,0,1-.5.5h0A.5.5,0,0,1,228.279,184.24Zm0-5.95a.5.5,0,0,1,.5-.5h0a.5.5,0,0,1,.5.5h0a.5.5,0,0,1-.5.5h0A.5.5,0,0,1,228.279,178.29Zm0-5.96a.5.5,0,0,1,.5-.5h0a.507.507,0,0,1,.5.5h0a.5.5,0,0,1-.5.5h0A.5.5,0,0,1,228.279,172.33Zm0-5.95a.5.5,0,0,1,.5-.5h0a.5.5,0,0,1,.5.5h0a.507.507,0,0,1-.5.5h0A.5.5,0,0,1,228.279,166.38Zm0-5.96a.5.5,0,0,1,.5-.5h0a.507.507,0,0,1,.5.5h0a.5.5,0,0,1-.5.5h0A.5.5,0,0,1,228.279,160.42Zm0-5.95a.5.5,0,0,1,.5-.5h0a.5.5,0,0,1,.5.5h0a.507.507,0,0,1-.5.5h0A.5.5,0,0,1,228.279,154.47Zm0-5.96a.5.5,0,0,1,.5-.5h0a.5.5,0,0,1,.5.5h0a.5.5,0,0,1-.5.5h0A.5.5,0,0,1,228.279,148.51Z" fill="#e0e0e0"/>
            <path id="Path_4831" data-name="Path 4831" d="M228.779,143.06a.579.579,0,0,1-.189-.04.954.954,0,0,1-.17-.11.562.562,0,0,1-.1-.16.448.448,0,0,1-.04-.19.493.493,0,0,1,.04-.2.562.562,0,0,1,.1-.16.954.954,0,0,1,.17-.11.5.5,0,0,1,.38,0,.664.664,0,0,1,.16.11.552.552,0,0,1,.149.36.511.511,0,0,1-.5.5Z" fill="#e0e0e0"/>
            <path id="Path_4832" data-name="Path 4832" d="M365.989,142.56a.5.5,0,0,1,.5-.51h0a.51.51,0,0,1,.5.51h0a.507.507,0,0,1-.5.5h0A.5.5,0,0,1,365.989,142.56Zm-5.989,0a.5.5,0,0,1,.5-.51h0a.5.5,0,0,1,.5.51h0a.5.5,0,0,1-.5.5h0A.5.5,0,0,1,360,142.56Zm-5.99,0a.51.51,0,0,1,.5-.51h0a.5.5,0,0,1,.5.51h0a.5.5,0,0,1-.5.5h0A.507.507,0,0,1,354.01,142.56Zm-5.981,0a.5.5,0,0,1,.5-.51h0a.5.5,0,0,1,.491.51h0a.5.5,0,0,1-.491.5h0A.5.5,0,0,1,348.029,142.56Zm-5.989,0a.5.5,0,0,1,.5-.51h0a.51.51,0,0,1,.5.51h0a.508.508,0,0,1-.5.5h0A.5.5,0,0,1,342.04,142.56Zm-5.99,0a.5.5,0,0,1,.5-.51h0a.5.5,0,0,1,.5.51h0a.5.5,0,0,1-.5.5h0A.5.5,0,0,1,336.05,142.56Zm-5.99,0a.51.51,0,0,1,.5-.51h0a.5.5,0,0,1,.5.51h0a.5.5,0,0,1-.5.5h0A.508.508,0,0,1,330.06,142.56Zm-5.98,0a.5.5,0,0,1,.5-.51h0a.51.51,0,0,1,.5.51h0a.508.508,0,0,1-.5.5h0A.5.5,0,0,1,324.08,142.56Zm-5.99,0a.5.5,0,0,1,.5-.51h0a.511.511,0,0,1,.5.51h0a.509.509,0,0,1-.5.5h0A.5.5,0,0,1,318.09,142.56Zm-5.99,0a.51.51,0,0,1,.5-.51h0a.5.5,0,0,1,.5.51h0a.5.5,0,0,1-.5.5h0A.508.508,0,0,1,312.1,142.56Zm-5.991,0a.513.513,0,0,1,.511-.51h0a.5.5,0,0,1,.489.51h0a.5.5,0,0,1-.489.5h0A.511.511,0,0,1,306.109,142.56Zm-5.979,0a.5.5,0,0,1,.5-.51h0a.511.511,0,0,1,.5.51h0a.509.509,0,0,1-.5.5h0A.5.5,0,0,1,300.13,142.56Zm-5.99,0a.5.5,0,0,1,.5-.51h0a.5.5,0,0,1,.5.51h0a.5.5,0,0,1-.5.5h0A.5.5,0,0,1,294.14,142.56Zm-5.991,0a.511.511,0,0,1,.5-.51h0a.5.5,0,0,1,.5.51h0a.5.5,0,0,1-.5.5h0A.509.509,0,0,1,288.149,142.56Zm-5.989,0a.51.51,0,0,1,.5-.51h0a.512.512,0,0,1,.51.51h0a.51.51,0,0,1-.51.5h0A.508.508,0,0,1,282.16,142.56Zm-5.98,0a.5.5,0,0,1,.5-.51h0a.51.51,0,0,1,.5.51h0a.508.508,0,0,1-.5.5h0A.5.5,0,0,1,276.18,142.56Zm-5.99,0a.5.5,0,0,1,.5-.51h0a.51.51,0,0,1,.5.51h0a.508.508,0,0,1-.5.5h0A.5.5,0,0,1,270.19,142.56Zm-5.99,0a.51.51,0,0,1,.5-.51h0a.5.5,0,0,1,.5.51h0a.5.5,0,0,1-.5.5h0A.508.508,0,0,1,264.2,142.56Zm-5.98,0a.5.5,0,0,1,.5-.51h0a.5.5,0,0,1,.49.51h0a.5.5,0,0,1-.49.5h0A.5.5,0,0,1,258.22,142.56Zm-5.99,0a.5.5,0,0,1,.5-.51h0a.51.51,0,0,1,.5.51h0a.508.508,0,0,1-.5.5h0A.5.5,0,0,1,252.23,142.56Zm-5.991,0a.5.5,0,0,1,.5-.51h0a.5.5,0,0,1,.5.51h0a.5.5,0,0,1-.5.5h0A.5.5,0,0,1,246.239,142.56Zm-5.989,0a.51.51,0,0,1,.5-.51h0a.5.5,0,0,1,.5.51h0a.5.5,0,0,1-.5.5h0A.508.508,0,0,1,240.25,142.56Zm-5.98,0a.5.5,0,0,1,.5-.51h0a.51.51,0,0,1,.5.51h0a.508.508,0,0,1-.5.5h0A.5.5,0,0,1,234.27,142.56Z" fill="#e0e0e0"/>
            <path id="Path_4833" data-name="Path 4833" d="M372.48,143.06a.495.495,0,0,1-.5-.5.538.538,0,0,1,.14-.36.938.938,0,0,1,.159-.11.524.524,0,0,1,.551.11.712.712,0,0,1,.11.17.583.583,0,0,1,.03.19.5.5,0,0,1-.14.35A.513.513,0,0,1,372.48,143.06Z" fill="#e0e0e0"/>
            <path id="Path_4834" data-name="Path 4834" d="M371.97,136.78a.5.5,0,0,1,.5-.49h0a.5.5,0,0,1,.51.49h0a.5.5,0,0,1-.51.5h0A.5.5,0,0,1,371.97,136.78Zm0-5.77a.508.508,0,0,1,.5-.5h0a.51.51,0,0,1,.51.5h0a.512.512,0,0,1-.51.51h0A.51.51,0,0,1,371.97,131.01Zm0-5.77a.508.508,0,0,1,.5-.5h0a.51.51,0,0,1,.51.5h0a.5.5,0,0,1-.51.5h0A.5.5,0,0,1,371.97,125.24Zm0-5.77a.508.508,0,0,1,.5-.5h0a.51.51,0,0,1,.51.5h0a.5.5,0,0,1-.51.5h0A.5.5,0,0,1,371.97,119.47Zm0-5.77a.508.508,0,0,1,.5-.5h0a.51.51,0,0,1,.51.5h0a.5.5,0,0,1-.51.5h0A.5.5,0,0,1,371.97,113.7Zm0-5.77a.508.508,0,0,1,.5-.5h0a.51.51,0,0,1,.51.5h0a.5.5,0,0,1-.51.5h0A.5.5,0,0,1,371.97,107.93Z" fill="#e0e0e0"/>
            <path id="Path_4835" data-name="Path 4835" d="M372.48,102.66a.5.5,0,0,1-.5-.5.557.557,0,0,1,.03-.19.644.644,0,0,1,.11-.16.513.513,0,0,1,.71,0,.5.5,0,0,1,.14.35.582.582,0,0,1-.03.19.644.644,0,0,1-.11.16.426.426,0,0,1-.16.11A.436.436,0,0,1,372.48,102.66Z" fill="#e0e0e0"/>
          </g>
          <g id="Group_6284" data-name="Group 6284">
            <path id="Path_4836" data-name="Path 4836" d="M165.8,290.83a.5.5,0,0,1-.36-.14.484.484,0,0,1-.11-.17.585.585,0,0,1-.04-.19.509.509,0,0,1,.15-.35.525.525,0,0,1,.549-.11.544.544,0,0,1,.16.11.5.5,0,0,1,.141.35.61.61,0,0,1-.03.19.684.684,0,0,1-.111.17.513.513,0,0,1-.16.1A.429.429,0,0,1,165.8,290.83Z" fill="#e0e0e0"/>
            <path id="Path_4837" data-name="Path 4837" d="M165.3,314.87a.5.5,0,0,1,.5-.5h0a.494.494,0,0,1,.49.5h0a.5.5,0,0,1-.49.5h0A.5.5,0,0,1,165.3,314.87Zm0-6.14a.5.5,0,0,1,.5-.5h0a.5.5,0,0,1,.49.5h0a.494.494,0,0,1-.49.5h0A.5.5,0,0,1,165.3,308.73Zm0-6.13a.5.5,0,0,1,.5-.5h0a.5.5,0,0,1,.49.5h0a.5.5,0,0,1-.49.5h0A.5.5,0,0,1,165.3,302.6Zm0-6.13a.5.5,0,0,1,.5-.5h0a.494.494,0,0,1,.49.5h0a.5.5,0,0,1-.49.5h0A.5.5,0,0,1,165.3,296.47Z" fill="#e0e0e0"/>
            <path id="Path_4838" data-name="Path 4838" d="M165.8,321.5a.474.474,0,0,1-.36-.15.444.444,0,0,1-.11-.16.585.585,0,0,1-.04-.19.646.646,0,0,1,.04-.19.444.444,0,0,1,.11-.16.506.506,0,0,1,.549-.11.4.4,0,0,1,.16.11.622.622,0,0,1,.111.16.66.66,0,0,1,.03.19.61.61,0,0,1-.03.19.622.622,0,0,1-.111.16.4.4,0,0,1-.16.11A.429.429,0,0,1,165.8,321.5Z" fill="#e0e0e0"/>
            <path id="Path_4839" data-name="Path 4839" d="M222.55,321a.5.5,0,0,1,.5-.5h0a.5.5,0,0,1,.5.5h0a.5.5,0,0,1-.5.5h0A.5.5,0,0,1,222.55,321Zm-5.72,0a.5.5,0,0,1,.5-.5h0a.5.5,0,0,1,.5.5h0a.5.5,0,0,1-.5.5h0A.5.5,0,0,1,216.83,321Zm-5.73,0a.5.5,0,0,1,.5-.5h0a.5.5,0,0,1,.5.5h0a.5.5,0,0,1-.5.5h0A.5.5,0,0,1,211.1,321Zm-5.72,0a.5.5,0,0,1,.5-.5h0a.5.5,0,0,1,.5.5h0a.5.5,0,0,1-.5.5h0A.5.5,0,0,1,205.38,321Zm-5.731,0a.5.5,0,0,1,.5-.5h0a.5.5,0,0,1,.5.5h0a.5.5,0,0,1-.5.5h0A.5.5,0,0,1,199.649,321Zm-5.729,0a.5.5,0,0,1,.51-.5h0a.493.493,0,0,1,.49.5h0a.493.493,0,0,1-.49.5h0A.5.5,0,0,1,193.92,321Zm-5.72,0a.5.5,0,0,1,.5-.5h0a.5.5,0,0,1,.5.5h0a.5.5,0,0,1-.5.5h0A.5.5,0,0,1,188.2,321Zm-5.73,0a.5.5,0,0,1,.5-.5h0a.5.5,0,0,1,.5.5h0a.5.5,0,0,1-.5.5h0A.5.5,0,0,1,182.47,321Zm-5.72,0a.5.5,0,0,1,.5-.5h0a.5.5,0,0,1,.5.5h0a.5.5,0,0,1-.5.5h0A.5.5,0,0,1,176.75,321Zm-5.73,0a.5.5,0,0,1,.5-.5h0a.5.5,0,0,1,.5.5h0a.5.5,0,0,1-.5.5h0A.5.5,0,0,1,171.02,321Z" fill="#e0e0e0"/>
            <path id="Path_4840" data-name="Path 4840" d="M228.779,321.5a.4.4,0,0,1-.189-.04.444.444,0,0,1-.17-.11.451.451,0,0,1-.1-.16.418.418,0,0,1-.04-.19.5.5,0,0,1,.141-.35.444.444,0,0,1,.17-.11.5.5,0,0,1,.38,0,.361.361,0,0,1,.16.11.508.508,0,0,1,.149.35.42.42,0,0,1-.04.19.442.442,0,0,1-.109.16.361.361,0,0,1-.16.11A.435.435,0,0,1,228.779,321.5Z" fill="#e0e0e0"/>
            <path id="Path_4841" data-name="Path 4841" d="M228.279,315.18a.5.5,0,0,1,.5-.5h0a.5.5,0,0,1,.5.5h0a.507.507,0,0,1-.5.5h0A.5.5,0,0,1,228.279,315.18Zm0-5.82a.5.5,0,0,1,.5-.51h0a.509.509,0,0,1,.5.51h0a.507.507,0,0,1-.5.5h0A.5.5,0,0,1,228.279,309.36Zm0-5.83a.5.5,0,0,1,.5-.5h0a.507.507,0,0,1,.5.5h0a.5.5,0,0,1-.5.5h0A.5.5,0,0,1,228.279,303.53Zm0-5.82a.5.5,0,0,1,.5-.5h0a.507.507,0,0,1,.5.5h0a.5.5,0,0,1-.5.5h0A.5.5,0,0,1,228.279,297.71Zm0-5.82a.5.5,0,0,1,.5-.5h0a.5.5,0,0,1,.5.5h0a.507.507,0,0,1-.5.5h0A.5.5,0,0,1,228.279,291.89Zm0-5.82a.5.5,0,0,1,.5-.5h0a.5.5,0,0,1,.5.5h0a.507.507,0,0,1-.5.5h0A.5.5,0,0,1,228.279,286.07Zm0-5.82a.5.5,0,0,1,.5-.5h0a.5.5,0,0,1,.5.5h0a.507.507,0,0,1-.5.5h0A.5.5,0,0,1,228.279,280.25Zm0-5.83a.5.5,0,0,1,.5-.5h0a.507.507,0,0,1,.5.5h0a.5.5,0,0,1-.5.5h0A.5.5,0,0,1,228.279,274.42Zm0-5.82a.5.5,0,0,1,.5-.5h0a.5.5,0,0,1,.5.5h0a.5.5,0,0,1-.5.5h0A.5.5,0,0,1,228.279,268.6Zm0-5.82a.5.5,0,0,1,.5-.5h0a.5.5,0,0,1,.5.5h0a.507.507,0,0,1-.5.5h0A.5.5,0,0,1,228.279,262.78Zm0-5.82a.5.5,0,0,1,.5-.5h0a.5.5,0,0,1,.5.5h0a.507.507,0,0,1-.5.5h0A.5.5,0,0,1,228.279,256.96Zm0-5.83a.5.5,0,0,1,.5-.5h0a.507.507,0,0,1,.5.5h0a.5.5,0,0,1-.5.5h0A.5.5,0,0,1,228.279,251.13Zm0-5.82a.5.5,0,0,1,.5-.5h0a.5.5,0,0,1,.5.5h0a.5.5,0,0,1-.5.5h0A.5.5,0,0,1,228.279,245.31Zm0-5.82a.5.5,0,0,1,.5-.5h0a.5.5,0,0,1,.5.5h0a.5.5,0,0,1-.5.5h0A.5.5,0,0,1,228.279,239.49Z" fill="#e0e0e0"/>
            <path id="Path_4842" data-name="Path 4842" d="M228.779,234.17a.579.579,0,0,1-.189-.04.6.6,0,0,1-.17-.11.562.562,0,0,1-.1-.16.448.448,0,0,1-.04-.19.525.525,0,0,1,.141-.36.573.573,0,0,1,.17-.1.5.5,0,0,1,.38,0,.444.444,0,0,1,.16.1.552.552,0,0,1,.149.36.42.42,0,0,1-.04.19.548.548,0,0,1-.109.16.664.664,0,0,1-.16.11A.646.646,0,0,1,228.779,234.17Z" fill="#e0e0e0"/>
            <path id="Path_4843" data-name="Path 4843" d="M306.91,233.67a.5.5,0,0,1,.5-.5h0a.5.5,0,0,1,.5.5h0a.5.5,0,0,1-.5.5h0A.508.508,0,0,1,306.91,233.67Zm-6.051,0a.5.5,0,0,1,.5-.5h0a.5.5,0,0,1,.511.5h0a.51.51,0,0,1-.511.5h0A.509.509,0,0,1,300.859,233.67Zm-6.049,0a.5.5,0,0,1,.5-.5h0a.5.5,0,0,1,.5.5h0a.5.5,0,0,1-.5.5h0A.508.508,0,0,1,294.81,233.67Zm-6.04,0a.492.492,0,0,1,.49-.5h0a.5.5,0,0,1,.5.5h0a.5.5,0,0,1-.5.5h0A.5.5,0,0,1,288.77,233.67Zm-6.05,0a.5.5,0,0,1,.5-.5h0a.5.5,0,0,1,.5.5h0a.509.509,0,0,1-.5.5h0A.5.5,0,0,1,282.72,233.67Zm-6.05,0a.5.5,0,0,1,.5-.5h0a.5.5,0,0,1,.5.5h0a.508.508,0,0,1-.5.5h0A.5.5,0,0,1,276.67,233.67Zm-6.05,0a.5.5,0,0,1,.5-.5h0a.5.5,0,0,1,.5.5h0a.508.508,0,0,1-.5.5h0A.5.5,0,0,1,270.62,233.67Zm-6.051,0a.5.5,0,0,1,.5-.5h0a.5.5,0,0,1,.5.5h0a.5.5,0,0,1-.5.5h0A.509.509,0,0,1,264.569,233.67Zm-6.049,0a.5.5,0,0,1,.5-.5h0a.5.5,0,0,1,.5.5h0a.5.5,0,0,1-.5.5h0A.5.5,0,0,1,258.52,233.67Zm-6.05,0a.5.5,0,0,1,.5-.5h0a.5.5,0,0,1,.5.5h0a.5.5,0,0,1-.5.5h0A.508.508,0,0,1,252.47,233.67Zm-6.05,0a.5.5,0,0,1,.5-.5h0a.5.5,0,0,1,.5.5h0a.5.5,0,0,1-.5.5h0A.507.507,0,0,1,246.42,233.67Zm-6.04,0a.5.5,0,0,1,.5-.5h0a.5.5,0,0,1,.5.5h0a.509.509,0,0,1-.5.5h0A.5.5,0,0,1,240.38,233.67Zm-6.05,0a.5.5,0,0,1,.5-.5h0a.5.5,0,0,1,.5.5h0a.508.508,0,0,1-.5.5h0A.5.5,0,0,1,234.33,233.67Z" fill="#e0e0e0"/>
            <path id="Path_4844" data-name="Path 4844" d="M313.46,234.17a.514.514,0,0,1-.351-.15.568.568,0,0,1-.109-.16.646.646,0,0,1-.04-.19.585.585,0,0,1,.04-.19.5.5,0,0,1,.109-.17.439.439,0,0,1,.161-.1.421.421,0,0,1,.379,0,.56.56,0,0,1,.17.1.5.5,0,0,1,.1.17.406.406,0,0,1,.04.19.5.5,0,0,1-.141.35A.549.549,0,0,1,313.46,234.17Z" fill="#e0e0e0"/>
            <path id="Path_4845" data-name="Path 4845" d="M312.96,227.36a.5.5,0,0,1,.5-.5h0a.5.5,0,0,1,.5.5h0a.5.5,0,0,1-.5.5h0A.508.508,0,0,1,312.96,227.36Zm0-6.31a.5.5,0,0,1,.5-.5h0a.5.5,0,0,1,.5.5h0a.494.494,0,0,1-.5.49h0A.5.5,0,0,1,312.96,221.05Zm0-6.32a.508.508,0,0,1,.5-.5h0a.5.5,0,0,1,.5.5h0a.5.5,0,0,1-.5.5h0A.5.5,0,0,1,312.96,214.73Zm0-6.31a.508.508,0,0,1,.5-.5h0a.5.5,0,0,1,.5.5h0a.5.5,0,0,1-.5.5h0A.5.5,0,0,1,312.96,208.42Z" fill="#e0e0e0"/>
            <path id="Path_4846" data-name="Path 4846" d="M313.46,202.61a.5.5,0,0,1-.351-.14.615.615,0,0,1-.109-.17.585.585,0,0,1-.04-.19.646.646,0,0,1,.04-.19.454.454,0,0,1,.109-.16.461.461,0,0,1,.161-.11.5.5,0,0,1,.379,0,.481.481,0,0,1,.17.11.451.451,0,0,1,.1.16.433.433,0,0,1,.04.19.481.481,0,0,1-.5.5Z" fill="#e0e0e0"/>
          </g>
          <g id="Group_6285" data-name="Group 6285">
            <path id="Path_4847" data-name="Path 4847" d="M372.48,313.17a.515.515,0,0,1-.36-.15.5.5,0,0,1-.14-.35.538.538,0,0,1,.14-.36.524.524,0,0,1,.55-.1.55.55,0,0,1,.16.1.711.711,0,0,1,.11.17.582.582,0,0,1,.03.19.5.5,0,0,1-.14.35A.513.513,0,0,1,372.48,313.17Z" fill="#e0e0e0"/>
            <path id="Path_4848" data-name="Path 4848" d="M371.97,347.24a.5.5,0,0,1,.5-.5h0a.5.5,0,0,1,.51.5h0a.5.5,0,0,1-.51.5h0A.5.5,0,0,1,371.97,347.24Zm0-5.76a.5.5,0,0,1,.5-.5h0a.5.5,0,0,1,.51.5h0a.51.51,0,0,1-.51.5h0A.508.508,0,0,1,371.97,341.48Zm0-5.77a.508.508,0,0,1,.5-.5h0a.51.51,0,0,1,.51.5h0a.512.512,0,0,1-.51.51h0A.51.51,0,0,1,371.97,335.71Zm0-5.76a.508.508,0,0,1,.5-.5h0a.51.51,0,0,1,.51.5h0a.5.5,0,0,1-.51.5h0A.5.5,0,0,1,371.97,329.95Zm0-5.76a.5.5,0,0,1,.5-.5h0a.5.5,0,0,1,.51.5h0a.5.5,0,0,1-.51.5h0A.5.5,0,0,1,371.97,324.19Zm0-5.76a.5.5,0,0,1,.5-.5h0a.5.5,0,0,1,.51.5h0a.51.51,0,0,1-.51.5h0A.508.508,0,0,1,371.97,318.43Z" fill="#e0e0e0"/>
            <path id="Path_4849" data-name="Path 4849" d="M372.48,353.5a.495.495,0,0,1-.5-.5.557.557,0,0,1,.03-.19.645.645,0,0,1,.11-.16.513.513,0,0,1,.71,0,.5.5,0,0,1,.14.35.628.628,0,0,1-.03.19.645.645,0,0,1-.11.16.426.426,0,0,1-.16.11A.436.436,0,0,1,372.48,353.5Z" fill="#e0e0e0"/>
            <path id="Path_4850" data-name="Path 4850" d="M365.989,353a.5.5,0,0,1,.5-.5h0a.5.5,0,0,1,.5.5h0a.5.5,0,0,1-.5.5h0A.5.5,0,0,1,365.989,353ZM360,353a.5.5,0,0,1,.5-.5h0a.5.5,0,0,1,.5.5h0a.5.5,0,0,1-.5.5h0A.5.5,0,0,1,360,353Zm-5.99,0a.5.5,0,0,1,.5-.5h0a.5.5,0,0,1,.5.5h0a.5.5,0,0,1-.5.5h0A.5.5,0,0,1,354.01,353Zm-5.99,0a.5.5,0,0,1,.5-.5h0a.5.5,0,0,1,.5.5h0a.5.5,0,0,1-.5.5h0A.5.5,0,0,1,348.02,353Zm-5.98,0a.5.5,0,0,1,.5-.5h0a.5.5,0,0,1,.5.5h0a.5.5,0,0,1-.5.5h0A.5.5,0,0,1,342.04,353Zm-5.99,0a.5.5,0,0,1,.5-.5h0a.5.5,0,0,1,.5.5h0a.5.5,0,0,1-.5.5h0A.5.5,0,0,1,336.05,353Zm-5.99,0a.5.5,0,0,1,.5-.5h0a.5.5,0,0,1,.5.5h0a.5.5,0,0,1-.5.5h0A.5.5,0,0,1,330.06,353Zm-5.991,0a.5.5,0,0,1,.511-.5h0a.5.5,0,0,1,.5.5h0a.5.5,0,0,1-.5.5h0A.5.5,0,0,1,324.069,353Zm-5.979,0a.5.5,0,0,1,.5-.5h0a.5.5,0,0,1,.5.5h0a.5.5,0,0,1-.5.5h0A.5.5,0,0,1,318.09,353Zm-5.99,0a.5.5,0,0,1,.5-.5h0a.5.5,0,0,1,.5.5h0a.5.5,0,0,1-.5.5h0A.5.5,0,0,1,312.1,353Zm-5.991,0a.5.5,0,0,1,.5-.5h0a.5.5,0,0,1,.5.5h0a.5.5,0,0,1-.5.5h0A.5.5,0,0,1,306.109,353Zm-5.989,0a.5.5,0,0,1,.5-.5h0a.5.5,0,0,1,.51.5h0a.5.5,0,0,1-.51.5h0A.5.5,0,0,1,300.12,353Zm-5.98,0a.5.5,0,0,1,.5-.5h0a.5.5,0,0,1,.5.5h0a.5.5,0,0,1-.5.5h0A.5.5,0,0,1,294.14,353Zm-5.991,0a.5.5,0,0,1,.5-.5h0a.5.5,0,0,1,.5.5h0a.5.5,0,0,1-.5.5h0A.5.5,0,0,1,288.149,353Zm-5.989,0a.5.5,0,0,1,.5-.5h0a.5.5,0,0,1,.5.5h0a.5.5,0,0,1-.5.5h0A.5.5,0,0,1,282.16,353Zm-5.98,0a.5.5,0,0,1,.5-.5h0a.5.5,0,0,1,.5.5h0a.5.5,0,0,1-.5.5h0A.5.5,0,0,1,276.18,353Zm-5.99,0a.5.5,0,0,1,.5-.5h0a.5.5,0,0,1,.5.5h0a.5.5,0,0,1-.5.5h0A.5.5,0,0,1,270.19,353Zm-5.99,0a.5.5,0,0,1,.5-.5h0a.5.5,0,0,1,.5.5h0a.5.5,0,0,1-.5.5h0A.5.5,0,0,1,264.2,353Zm-5.98,0a.493.493,0,0,1,.49-.5h0a.5.5,0,0,1,.5.5h0a.5.5,0,0,1-.5.5h0A.493.493,0,0,1,258.22,353Zm-5.99,0a.5.5,0,0,1,.5-.5h0a.5.5,0,0,1,.5.5h0a.5.5,0,0,1-.5.5h0A.5.5,0,0,1,252.23,353Zm-5.991,0a.5.5,0,0,1,.5-.5h0a.5.5,0,0,1,.5.5h0a.5.5,0,0,1-.5.5h0A.5.5,0,0,1,246.239,353Zm-5.989,0a.5.5,0,0,1,.5-.5h0a.5.5,0,0,1,.5.5h0a.5.5,0,0,1-.5.5h0A.5.5,0,0,1,240.25,353Zm-5.99,0a.5.5,0,0,1,.5-.5h0a.5.5,0,0,1,.51.5h0a.5.5,0,0,1-.51.5h0A.5.5,0,0,1,234.26,353Z" fill="#e0e0e0"/>
            <path id="Path_4851" data-name="Path 4851" d="M228.779,353.5a.4.4,0,0,1-.189-.04.444.444,0,0,1-.17-.11.515.515,0,0,1,0-.7.444.444,0,0,1,.17-.11.5.5,0,0,1,.38,0,.361.361,0,0,1,.16.11.489.489,0,0,1,0,.7.361.361,0,0,1-.16.11A.435.435,0,0,1,228.779,353.5Z" fill="#e0e0e0"/>
            <path id="Path_4852" data-name="Path 4852" d="M228.279,346.6a.5.5,0,0,1,.5-.5h0a.5.5,0,0,1,.5.5h0a.5.5,0,0,1-.5.5h0A.5.5,0,0,1,228.279,346.6Zm0-6.4a.5.5,0,0,1,.5-.5h0a.5.5,0,0,1,.5.5h0a.5.5,0,0,1-.5.5h0A.5.5,0,0,1,228.279,340.2Zm0-6.4a.5.5,0,0,1,.5-.5h0a.5.5,0,0,1,.5.5h0a.5.5,0,0,1-.5.5h0A.5.5,0,0,1,228.279,333.8Zm0-6.4a.5.5,0,0,1,.5-.5h0a.5.5,0,0,1,.5.5h0a.5.5,0,0,1-.5.5h0A.5.5,0,0,1,228.279,327.4Z" fill="#e0e0e0"/>
            <path id="Path_4853" data-name="Path 4853" d="M228.779,321.5a.4.4,0,0,1-.189-.04.444.444,0,0,1-.17-.11.451.451,0,0,1-.1-.16.418.418,0,0,1-.04-.19.5.5,0,0,1,.141-.35.444.444,0,0,1,.17-.11.5.5,0,0,1,.38,0,.361.361,0,0,1,.16.11.508.508,0,0,1,.149.35.42.42,0,0,1-.04.19.442.442,0,0,1-.109.16.361.361,0,0,1-.16.11A.435.435,0,0,1,228.779,321.5Z" fill="#e0e0e0"/>
          </g>
          <g id="Group_6286" data-name="Group 6286">
            <path id="Path_4854" data-name="Path 4854" d="M228.779,202.61a.4.4,0,0,1-.189-.04.444.444,0,0,1-.17-.11.451.451,0,0,1-.1-.16.418.418,0,0,1-.04-.19.482.482,0,0,1,.311-.46.5.5,0,0,1,.38,0,.361.361,0,0,1,.16.11.5.5,0,0,1,.149.35.508.508,0,0,1-.149.35.361.361,0,0,1-.16.11A.435.435,0,0,1,228.779,202.61Z" fill="#e0e0e0"/>
            <path id="Path_4855" data-name="Path 4855" d="M228.279,227.36a.5.5,0,0,1,.5-.51h0a.51.51,0,0,1,.5.51h0a.507.507,0,0,1-.5.5h0A.5.5,0,0,1,228.279,227.36Zm0-6.31a.5.5,0,0,1,.5-.5h0a.5.5,0,0,1,.5.5h0a.507.507,0,0,1-.5.5h0A.5.5,0,0,1,228.279,221.05Zm0-6.32a.5.5,0,0,1,.5-.5h0a.507.507,0,0,1,.5.5h0a.5.5,0,0,1-.5.5h0A.5.5,0,0,1,228.279,214.73Zm0-6.31a.5.5,0,0,1,.5-.5h0a.507.507,0,0,1,.5.5h0a.5.5,0,0,1-.5.5h0A.5.5,0,0,1,228.279,208.42Z" fill="#e0e0e0"/>
            <path id="Path_4856" data-name="Path 4856" d="M228.779,234.17a.579.579,0,0,1-.189-.04.6.6,0,0,1-.17-.11.562.562,0,0,1-.1-.16.448.448,0,0,1-.04-.19.525.525,0,0,1,.141-.36.573.573,0,0,1,.17-.1.5.5,0,0,1,.38,0,.444.444,0,0,1,.16.1.552.552,0,0,1,.149.36.42.42,0,0,1-.04.19.548.548,0,0,1-.109.16.664.664,0,0,1-.16.11A.646.646,0,0,1,228.779,234.17Z" fill="#e0e0e0"/>
          </g>
        </g>
      </g>
    </g>
    <g id="Shadow">
      <ellipse id="_Path_" data-name="&lt;Path&gt;" cx="193.889" cy="11.323" rx="193.889" ry="11.323" transform="translate(56.111 404.915)" fill="#254a5d" opacity="0.096"/>
    </g>
    <g id="Monitors">
      <g id="Group_6313" data-name="Group 6313">
        <g id="Group_6296" data-name="Group 6296">
          <g id="Group_6289" data-name="Group 6289">
            <path id="Path_4857" data-name="Path 4857" d="M123.3,353.483l1.961-34.242a3.885,3.885,0,0,1,3.831-3.624h55.564a3.385,3.385,0,0,1,3.416,3.624l-1.962,34.242a3.884,3.884,0,0,1-3.83,3.623H126.717A3.383,3.383,0,0,1,123.3,353.483Z" fill="#19bdc1"/>
          </g>
          <g id="Group_6290" data-name="Group 6290">
            <path id="Path_4858" data-name="Path 4858" d="M120.493,353.483l1.962-34.242a3.884,3.884,0,0,1,3.83-3.624H184.08a3.385,3.385,0,0,1,3.416,3.624l-1.961,34.242a3.886,3.886,0,0,1-3.831,3.623H123.909A3.385,3.385,0,0,1,120.493,353.483Z" fill="#fff"/>
            <path id="Path_4859" data-name="Path 4859" d="M120.493,353.483l1.962-34.242a3.884,3.884,0,0,1,3.83-3.624H184.08a3.385,3.385,0,0,1,3.416,3.624l-1.961,34.242a3.886,3.886,0,0,1-3.831,3.623H123.909A3.385,3.385,0,0,1,120.493,353.483Z" fill="#19bdc1" opacity="0.3"/>
          </g>
          <g id="Group_6293" data-name="Group 6293">
            <g id="Group_6291" data-name="Group 6291">
              <rect id="Rectangle_1310" data-name="Rectangle 1310" width="7.7" height="28.145" rx="3.623" transform="translate(172.36 360.39) rotate(90)" fill="#19bdc1"/>
            </g>
            <g id="Group_6292" data-name="Group 6292" opacity="0.6">
              <rect id="Rectangle_1311" data-name="Rectangle 1311" width="7.7" height="28.145" rx="3.623" transform="translate(172.36 360.39) rotate(90)" fill="#fff"/>
            </g>
          </g>
          <g id="Group_6294" data-name="Group 6294">
            <rect id="Rectangle_1312" data-name="Rectangle 1312" width="7.7" height="30.376" rx="3.623" transform="translate(166.005 360.39) rotate(90)" fill="#fff"/>
            <rect id="Rectangle_1313" data-name="Rectangle 1313" width="7.7" height="30.376" rx="3.623" transform="translate(166.005 360.39) rotate(90)" fill="#19bdc1" opacity="0.3"/>
          </g>
          <path id="Path_4860" data-name="Path 4860" d="M182.516,355.349H123.3a1.492,1.492,0,0,1-1.506-1.6l1.991-34.779a1.715,1.715,0,0,1,1.69-1.6h59.218a1.493,1.493,0,0,1,1.507,1.6l-1.992,34.779A1.714,1.714,0,0,1,182.516,355.349Z" fill="#fff" opacity="0.9"/>
          <g id="Group_6295" data-name="Group 6295">
            <path id="Path_4861" data-name="Path 4861" d="M140.365,355.349H128.589l10.773-37.975h11.776Z" fill="#19bdc1" opacity="0.1"/>
            <path id="Path_4862" data-name="Path 4862" d="M150.008,355.349h-8.228l10.773-37.975h8.228Z" fill="#19bdc1" opacity="0.1"/>
            <path id="Path_4863" data-name="Path 4863" d="M167.947,355.349h-8.228l10.773-37.975h8.228Z" fill="#19bdc1" opacity="0.1"/>
          </g>
        </g>
        <g id="Group_6304" data-name="Group 6304">
          <g id="Group_6297" data-name="Group 6297">
            <path id="Path_4864" data-name="Path 4864" d="M219.018,353.483l1.961-34.242a3.886,3.886,0,0,1,3.831-3.624h55.564a3.384,3.384,0,0,1,3.416,3.624l-1.961,34.242A3.886,3.886,0,0,1,278,357.106H222.434A3.385,3.385,0,0,1,219.018,353.483Z" fill="#19bdc1"/>
          </g>
          <g id="Group_6298" data-name="Group 6298">
            <path id="Path_4865" data-name="Path 4865" d="M216.21,353.483l1.961-34.242A3.886,3.886,0,0,1,222,315.617H279.8a3.384,3.384,0,0,1,3.415,3.624l-1.961,34.242a3.886,3.886,0,0,1-3.831,3.623H219.626A3.384,3.384,0,0,1,216.21,353.483Z" fill="#fff"/>
            <path id="Path_4866" data-name="Path 4866" d="M216.21,353.483l1.961-34.242A3.886,3.886,0,0,1,222,315.617H279.8a3.384,3.384,0,0,1,3.415,3.624l-1.961,34.242a3.886,3.886,0,0,1-3.831,3.623H219.626A3.384,3.384,0,0,1,216.21,353.483Z" fill="#19bdc1" opacity="0.3"/>
          </g>
          <g id="Group_6301" data-name="Group 6301">
            <g id="Group_6299" data-name="Group 6299">
              <rect id="Rectangle_1314" data-name="Rectangle 1314" width="7.7" height="28.145" rx="3.623" transform="translate(268.077 360.39) rotate(90)" fill="#19bdc1"/>
            </g>
            <g id="Group_6300" data-name="Group 6300" opacity="0.6">
              <rect id="Rectangle_1315" data-name="Rectangle 1315" width="7.7" height="28.145" rx="3.623" transform="translate(268.077 360.39) rotate(90)" fill="#fff"/>
            </g>
          </g>
          <g id="Group_6302" data-name="Group 6302">
            <rect id="Rectangle_1316" data-name="Rectangle 1316" width="7.7" height="30.375" rx="3.623" transform="translate(261.721 360.39) rotate(90)" fill="#fff"/>
            <rect id="Rectangle_1317" data-name="Rectangle 1317" width="7.7" height="30.375" rx="3.623" transform="translate(261.721 360.39) rotate(90)" fill="#19bdc1" opacity="0.3"/>
          </g>
          <path id="Path_4867" data-name="Path 4867" d="M278.233,355.349H219.015a1.493,1.493,0,0,1-1.507-1.6l1.992-34.779a1.714,1.714,0,0,1,1.689-1.6h59.219a1.492,1.492,0,0,1,1.506,1.6l-1.992,34.779A1.713,1.713,0,0,1,278.233,355.349Z" fill="#fff" opacity="0.9"/>
          <g id="Group_6303" data-name="Group 6303">
            <path id="Path_4868" data-name="Path 4868" d="M236.081,355.349H224.3l10.773-37.975h11.776Z" fill="#19bdc1" opacity="0.1"/>
            <path id="Path_4869" data-name="Path 4869" d="M245.725,355.349H237.5l10.773-37.975H256.5Z" fill="#19bdc1" opacity="0.1"/>
            <path id="Path_4870" data-name="Path 4870" d="M263.663,355.349h-8.228l10.773-37.975h8.228Z" fill="#19bdc1" opacity="0.1"/>
          </g>
        </g>
        <g id="Group_6312" data-name="Group 6312">
          <g id="Group_6305" data-name="Group 6305">
            <path id="Path_4871" data-name="Path 4871" d="M314.734,353.483l1.962-34.242a3.884,3.884,0,0,1,3.83-3.624h55.565a3.385,3.385,0,0,1,3.416,3.624l-1.962,34.242a3.884,3.884,0,0,1-3.83,3.623H318.15A3.385,3.385,0,0,1,314.734,353.483Z" fill="#19bdc1"/>
          </g>
          <g id="Group_6306" data-name="Group 6306">
            <path id="Path_4872" data-name="Path 4872" d="M311.926,353.483l1.962-34.242a3.884,3.884,0,0,1,3.83-3.624h57.8a3.385,3.385,0,0,1,3.416,3.624l-1.961,34.242a3.886,3.886,0,0,1-3.831,3.623H315.342A3.385,3.385,0,0,1,311.926,353.483Z" fill="#fff"/>
            <path id="Path_4873" data-name="Path 4873" d="M311.926,353.483l1.962-34.242a3.884,3.884,0,0,1,3.83-3.624h57.8a3.385,3.385,0,0,1,3.416,3.624l-1.961,34.242a3.886,3.886,0,0,1-3.831,3.623H315.342A3.385,3.385,0,0,1,311.926,353.483Z" fill="#19bdc1" opacity="0.3"/>
          </g>
          <g id="Group_6309" data-name="Group 6309">
            <g id="Group_6307" data-name="Group 6307">
              <rect id="Rectangle_1318" data-name="Rectangle 1318" width="7.7" height="28.145" rx="3.623" transform="translate(363.793 360.39) rotate(90)" fill="#19bdc1"/>
            </g>
            <g id="Group_6308" data-name="Group 6308" opacity="0.6">
              <rect id="Rectangle_1319" data-name="Rectangle 1319" width="7.7" height="28.145" rx="3.623" transform="translate(363.793 360.39) rotate(90)" fill="#fff"/>
            </g>
          </g>
          <g id="Group_6310" data-name="Group 6310">
            <rect id="Rectangle_1320" data-name="Rectangle 1320" width="7.7" height="30.376" rx="3.623" transform="translate(357.438 360.39) rotate(90)" fill="#fff"/>
            <rect id="Rectangle_1321" data-name="Rectangle 1321" width="7.7" height="30.376" rx="3.623" transform="translate(357.438 360.39) rotate(90)" fill="#19bdc1" opacity="0.3"/>
          </g>
          <path id="Path_4874" data-name="Path 4874" d="M373.949,355.349H314.731a1.491,1.491,0,0,1-1.506-1.6l1.991-34.779a1.715,1.715,0,0,1,1.69-1.6h59.218a1.493,1.493,0,0,1,1.507,1.6l-1.992,34.779A1.714,1.714,0,0,1,373.949,355.349Z" fill="#fff" opacity="0.9"/>
          <g id="Group_6311" data-name="Group 6311">
            <path id="Path_4875" data-name="Path 4875" d="M331.8,355.349H320.021l10.773-37.975h11.776Z" fill="#19bdc1" opacity="0.1"/>
            <path id="Path_4876" data-name="Path 4876" d="M341.441,355.349h-8.228l10.773-37.975h8.228Z" fill="#19bdc1" opacity="0.1"/>
            <path id="Path_4877" data-name="Path 4877" d="M359.379,355.349h-8.228l10.773-37.975h8.228Z" fill="#19bdc1" opacity="0.1"/>
          </g>
        </g>
      </g>
    </g>
    <g id="Connection">
      <g id="Group_6318" data-name="Group 6318">
        <g id="Group_6314" data-name="Group 6314">
          <path id="Path_4878" data-name="Path 4878" d="M153.68,308.8a.591.591,0,0,1-.191-.04,1.074,1.074,0,0,1-.17-.11.515.515,0,0,1-.1-.16.464.464,0,0,1-.04-.19.51.51,0,0,1,.139-.36.529.529,0,0,1,.551-.11.453.453,0,0,1,.159.11.411.411,0,0,1,.111.16.448.448,0,0,1,.04.2.464.464,0,0,1-.04.19.411.411,0,0,1-.111.16.638.638,0,0,1-.159.11A.653.653,0,0,1,153.68,308.8Z" fill="#19bdc1"/>
          <path id="Path_4879" data-name="Path 4879" d="M153.18,304.63a.5.5,0,0,1,.5-.5h0a.5.5,0,0,1,.5.5h0a.5.5,0,0,1-.5.5h0A.5.5,0,0,1,153.18,304.63Z" fill="#19bdc1"/>
          <path id="Path_4880" data-name="Path 4880" d="M153.68,301.47a.511.511,0,0,1-.361-.15.421.421,0,0,1-.1-.16.406.406,0,0,1-.04-.19.5.5,0,0,1,.139-.35.509.509,0,0,1,.551-.11.453.453,0,0,1,.159.11.35.35,0,0,1,.111.16.433.433,0,0,1,.04.19.406.406,0,0,1-.04.19.543.543,0,0,1-.27.27A.436.436,0,0,1,153.68,301.47Z" fill="#19bdc1"/>
          <path id="Path_4881" data-name="Path 4881" d="M245.489,300.97a.5.5,0,0,1,.491-.5h0a.5.5,0,0,1,.5.5h0a.5.5,0,0,1-.5.5h0A.494.494,0,0,1,245.489,300.97Zm-4.019,0a.508.508,0,0,1,.5-.5h0a.5.5,0,0,1,.5.5h0a.5.5,0,0,1-.5.5h0A.5.5,0,0,1,241.47,300.97Zm-4.01,0a.5.5,0,0,1,.5-.5h0a.508.508,0,0,1,.5.5h0a.5.5,0,0,1-.5.5h0A.5.5,0,0,1,237.46,300.97Zm-4.01,0a.5.5,0,0,1,.5-.5h0a.5.5,0,0,1,.49.5h0a.493.493,0,0,1-.49.5h0A.5.5,0,0,1,233.45,300.97Zm-4.02,0a.508.508,0,0,1,.5-.5h0a.5.5,0,0,1,.5.5h0a.5.5,0,0,1-.5.5h0A.5.5,0,0,1,229.43,300.97Zm-4.01,0a.5.5,0,0,1,.5-.5h0a.508.508,0,0,1,.5.5h0a.5.5,0,0,1-.5.5h0A.5.5,0,0,1,225.42,300.97Zm-4.01,0a.5.5,0,0,1,.5-.5h0a.508.508,0,0,1,.5.5h0a.5.5,0,0,1-.5.5h0A.5.5,0,0,1,221.41,300.97Zm-4.02,0a.508.508,0,0,1,.5-.5h0a.5.5,0,0,1,.5.5h0a.5.5,0,0,1-.5.5h0A.5.5,0,0,1,217.39,300.97Zm-4.01,0a.5.5,0,0,1,.5-.5h0a.509.509,0,0,1,.5.5h0a.5.5,0,0,1-.5.5h0A.5.5,0,0,1,213.38,300.97Zm-4.01,0a.5.5,0,0,1,.5-.5h0a.508.508,0,0,1,.5.5h0a.5.5,0,0,1-.5.5h0A.5.5,0,0,1,209.37,300.97Zm-4.02,0a.508.508,0,0,1,.5-.5h0a.5.5,0,0,1,.5.5h0a.5.5,0,0,1-.5.5h0A.5.5,0,0,1,205.35,300.97Zm-4.01,0a.5.5,0,0,1,.5-.5h0a.509.509,0,0,1,.5.5h0a.5.5,0,0,1-.5.5h0A.5.5,0,0,1,201.34,300.97Zm-4.021,0a.511.511,0,0,1,.511-.5h0a.508.508,0,0,1,.5.5h0a.5.5,0,0,1-.5.5h0A.5.5,0,0,1,197.319,300.97Zm-4.009,0a.508.508,0,0,1,.5-.5h0a.5.5,0,0,1,.5.5h0a.5.5,0,0,1-.5.5h0A.5.5,0,0,1,193.31,300.97Zm-4.01,0a.5.5,0,0,1,.5-.5h0a.5.5,0,0,1,.5.5h0a.5.5,0,0,1-.5.5h0A.5.5,0,0,1,189.3,300.97Zm-4.021,0a.509.509,0,0,1,.5-.5h0a.51.51,0,0,1,.511.5h0a.5.5,0,0,1-.511.5h0A.5.5,0,0,1,185.279,300.97Zm-4.009,0a.5.5,0,0,1,.5-.5h0a.5.5,0,0,1,.5.5h0a.5.5,0,0,1-.5.5h0A.5.5,0,0,1,181.27,300.97Zm-4.01,0a.5.5,0,0,1,.5-.5h0a.509.509,0,0,1,.5.5h0a.5.5,0,0,1-.5.5h0A.5.5,0,0,1,177.26,300.97Zm-4.021,0a.509.509,0,0,1,.5-.5h0a.5.5,0,0,1,.5.5h0a.5.5,0,0,1-.5.5h0A.5.5,0,0,1,173.239,300.97Zm-4.009,0a.508.508,0,0,1,.5-.5h0a.5.5,0,0,1,.5.5h0a.5.5,0,0,1-.5.5h0A.5.5,0,0,1,169.23,300.97Zm-4.01,0a.5.5,0,0,1,.5-.5h0a.509.509,0,0,1,.5.5h0a.5.5,0,0,1-.5.5h0A.5.5,0,0,1,165.22,300.97Zm-4.01,0a.5.5,0,0,1,.49-.5h0a.5.5,0,0,1,.5.5h0a.5.5,0,0,1-.5.5h0A.493.493,0,0,1,161.21,300.97Zm-4.02,0a.508.508,0,0,1,.5-.5h0a.5.5,0,0,1,.5.5h0a.5.5,0,0,1-.5.5h0A.5.5,0,0,1,157.19,300.97Z" fill="#19bdc1"/>
          <path id="Path_4882" data-name="Path 4882" d="M250,301.47a.406.406,0,0,1-.19-.04.448.448,0,0,1-.161-.1.461.461,0,0,1-.109-.17.406.406,0,0,1-.04-.19.433.433,0,0,1,.04-.19.428.428,0,0,1,.109-.16.47.47,0,0,1,.161-.11.5.5,0,0,1,.38,0,.457.457,0,0,1,.16.11.469.469,0,0,1,.15.35.419.419,0,0,1-.04.19.464.464,0,0,1-.11.17.435.435,0,0,1-.16.1A.408.408,0,0,1,250,301.47Z" fill="#19bdc1"/>
        </g>
        <g id="Group_6315" data-name="Group 6315">
          <path id="Path_4883" data-name="Path 4883" d="M250,301.47a.406.406,0,0,1-.19-.04.448.448,0,0,1-.161-.1.461.461,0,0,1-.109-.17.406.406,0,0,1-.04-.19.433.433,0,0,1,.04-.19.428.428,0,0,1,.109-.16.47.47,0,0,1,.161-.11.5.5,0,0,1,.38,0,.457.457,0,0,1,.16.11.469.469,0,0,1,.15.35.419.419,0,0,1-.04.19.464.464,0,0,1-.11.17.435.435,0,0,1-.16.1A.408.408,0,0,1,250,301.47Z" fill="#19bdc1"/>
          <path id="Path_4884" data-name="Path 4884" d="M249.5,297.5a.5.5,0,0,1,.5-.5h0a.5.5,0,0,1,.5.5h0a.5.5,0,0,1-.5.5h0A.5.5,0,0,1,249.5,297.5Zm0-3.47a.5.5,0,0,1,.5-.5h0a.5.5,0,0,1,.5.5h0a.5.5,0,0,1-.5.5h0A.5.5,0,0,1,249.5,294.03Zm0-3.47a.5.5,0,0,1,.5-.5h0a.5.5,0,0,1,.5.5h0a.5.5,0,0,1-.5.5h0A.5.5,0,0,1,249.5,290.56Z" fill="#19bdc1"/>
          <path id="Path_4885" data-name="Path 4885" d="M250,287.59a.471.471,0,0,1-.351-.15.361.361,0,0,1-.109-.16.433.433,0,0,1-.04-.19.406.406,0,0,1,.04-.19.393.393,0,0,1,.109-.17.448.448,0,0,1,.161-.1.458.458,0,0,1,.38,0,.435.435,0,0,1,.16.1.464.464,0,0,1,.11.17.419.419,0,0,1,.04.19.448.448,0,0,1-.04.19.363.363,0,0,1-.11.16A.469.469,0,0,1,250,287.59Z" fill="#19bdc1"/>
        </g>
        <g id="Group_6316" data-name="Group 6316">
          <path id="Path_4886" data-name="Path 4886" d="M250,301.47a.406.406,0,0,1-.19-.04.448.448,0,0,1-.161-.1.461.461,0,0,1-.109-.17.406.406,0,0,1-.04-.19.433.433,0,0,1,.04-.19.428.428,0,0,1,.109-.16.47.47,0,0,1,.161-.11.5.5,0,0,1,.38,0,.457.457,0,0,1,.16.11.469.469,0,0,1,.15.35.419.419,0,0,1-.04.19.464.464,0,0,1-.11.17.435.435,0,0,1-.16.1A.408.408,0,0,1,250,301.47Z" fill="#19bdc1"/>
          <path id="Path_4887" data-name="Path 4887" d="M249.5,304.63a.508.508,0,0,1,.5-.5h0a.5.5,0,0,1,.5.5h0a.5.5,0,0,1-.5.5h0A.5.5,0,0,1,249.5,304.63Z" fill="#19bdc1"/>
          <path id="Path_4888" data-name="Path 4888" d="M250,308.8a.512.512,0,0,1-.351-.15.427.427,0,0,1-.109-.16.448.448,0,0,1-.04-.2.433.433,0,0,1,.04-.19.427.427,0,0,1,.109-.16.512.512,0,0,1,.7,0,.43.43,0,0,1,.11.16.448.448,0,0,1,.04.19.462.462,0,0,1-.04.2.43.43,0,0,1-.11.16A.509.509,0,0,1,250,308.8Z" fill="#19bdc1"/>
        </g>
        <g id="Group_6317" data-name="Group 6317">
          <path id="Path_4889" data-name="Path 4889" d="M346.319,308.8a.509.509,0,0,1-.349-.15.555.555,0,0,1-.151-.36.5.5,0,0,1,.851-.35.4.4,0,0,1,.109.16.42.42,0,0,1,.04.19.511.511,0,0,1-.5.51Z" fill="#19bdc1"/>
          <path id="Path_4890" data-name="Path 4890" d="M345.819,304.63a.509.509,0,0,1,.5-.5h0a.5.5,0,0,1,.5.5h0a.5.5,0,0,1-.5.5h0A.5.5,0,0,1,345.819,304.63Z" fill="#19bdc1"/>
          <path id="Path_4891" data-name="Path 4891" d="M346.319,301.47a.5.5,0,0,1-.349-.14.555.555,0,0,1-.151-.36.51.51,0,0,1,.151-.35.5.5,0,0,1,.7,0,.468.468,0,0,1,.149.35.506.506,0,0,1-.149.36A.5.5,0,0,1,346.319,301.47Z" fill="#19bdc1"/>
          <path id="Path_4892" data-name="Path 4892" d="M341.81,300.97a.5.5,0,0,1,.5-.5h0a.5.5,0,0,1,.5.5h0a.5.5,0,0,1-.5.5h0A.5.5,0,0,1,341.81,300.97Zm-4.02,0a.5.5,0,0,1,.51-.5h0a.5.5,0,0,1,.5.5h0a.5.5,0,0,1-.5.5h0A.5.5,0,0,1,337.79,300.97Zm-4.011,0a.5.5,0,0,1,.5-.5h0a.5.5,0,0,1,.5.5h0a.5.5,0,0,1-.5.5h0A.5.5,0,0,1,333.779,300.97Zm-4.009,0a.5.5,0,0,1,.5-.5h0a.5.5,0,0,1,.5.5h0a.5.5,0,0,1-.5.5h0A.5.5,0,0,1,329.77,300.97Zm-4.02,0a.5.5,0,0,1,.5-.5h0a.5.5,0,0,1,.51.5h0a.5.5,0,0,1-.51.5h0A.5.5,0,0,1,325.75,300.97Zm-4.011,0a.5.5,0,0,1,.5-.5h0a.5.5,0,0,1,.5.5h0a.5.5,0,0,1-.5.5h0A.5.5,0,0,1,321.739,300.97Zm-4.009,0a.5.5,0,0,1,.5-.5h0a.5.5,0,0,1,.5.5h0a.5.5,0,0,1-.5.5h0A.5.5,0,0,1,317.73,300.97Zm-4.02,0a.5.5,0,0,1,.5-.5h0a.5.5,0,0,1,.51.5h0a.5.5,0,0,1-.51.5h0A.5.5,0,0,1,313.71,300.97Zm-4.01,0a.5.5,0,0,1,.5-.5h0a.5.5,0,0,1,.5.5h0a.5.5,0,0,1-.5.5h0A.5.5,0,0,1,309.7,300.97Zm-4.01,0a.5.5,0,0,1,.5-.5h0a.5.5,0,0,1,.5.5h0a.5.5,0,0,1-.5.5h0A.5.5,0,0,1,305.69,300.97Zm-4.02,0a.5.5,0,0,1,.5-.5h0a.5.5,0,0,1,.5.5h0a.5.5,0,0,1-.5.5h0A.5.5,0,0,1,301.67,300.97Zm-4.01,0a.5.5,0,0,1,.5-.5h0a.5.5,0,0,1,.5.5h0a.5.5,0,0,1-.5.5h0A.5.5,0,0,1,297.66,300.97Zm-4.011,0a.5.5,0,0,1,.5-.5h0a.5.5,0,0,1,.5.5h0a.5.5,0,0,1-.5.5h0A.5.5,0,0,1,293.649,300.97Zm-4.019,0a.5.5,0,0,1,.5-.5h0a.5.5,0,0,1,.5.5h0a.5.5,0,0,1-.5.5h0A.5.5,0,0,1,289.63,300.97Zm-4.01,0a.5.5,0,0,1,.5-.5h0a.5.5,0,0,1,.5.5h0a.5.5,0,0,1-.5.5h0A.5.5,0,0,1,285.62,300.97Zm-4.011,0a.5.5,0,0,1,.5-.5h0a.5.5,0,0,1,.5.5h0a.5.5,0,0,1-.5.5h0A.5.5,0,0,1,281.609,300.97Zm-4.019,0a.5.5,0,0,1,.5-.5h0a.5.5,0,0,1,.51.5h0a.5.5,0,0,1-.51.5h0A.5.5,0,0,1,277.59,300.97Zm-4.01,0a.5.5,0,0,1,.5-.5h0a.5.5,0,0,1,.5.5h0a.5.5,0,0,1-.5.5h0A.5.5,0,0,1,273.58,300.97Zm-4.011,0a.5.5,0,0,1,.5-.5h0a.5.5,0,0,1,.5.5h0a.5.5,0,0,1-.5.5h0A.5.5,0,0,1,269.569,300.97Zm-4.019,0a.5.5,0,0,1,.5-.5h0a.5.5,0,0,1,.51.5h0a.5.5,0,0,1-.51.5h0A.5.5,0,0,1,265.55,300.97Zm-4.01,0a.5.5,0,0,1,.5-.5h0a.5.5,0,0,1,.5.5h0a.5.5,0,0,1-.5.5h0A.5.5,0,0,1,261.54,300.97Zm-4.011,0a.5.5,0,0,1,.5-.5h0a.5.5,0,0,1,.5.5h0a.5.5,0,0,1-.5.5h0A.5.5,0,0,1,257.529,300.97Zm-4.019,0a.5.5,0,0,1,.5-.5h0a.5.5,0,0,1,.51.5h0a.5.5,0,0,1-.51.5h0A.5.5,0,0,1,253.51,300.97Z" fill="#19bdc1"/>
          <path id="Path_4893" data-name="Path 4893" d="M250,301.47a.406.406,0,0,1-.19-.04.448.448,0,0,1-.161-.1.461.461,0,0,1-.109-.17.406.406,0,0,1-.04-.19.433.433,0,0,1,.04-.19.428.428,0,0,1,.109-.16.47.47,0,0,1,.161-.11.5.5,0,0,1,.38,0,.457.457,0,0,1,.16.11.469.469,0,0,1,.15.35.419.419,0,0,1-.04.19.464.464,0,0,1-.11.17.435.435,0,0,1-.16.1A.408.408,0,0,1,250,301.47Z" fill="#19bdc1"/>
        </g>
      </g>
    </g>
    <g id="Cloud">
      <g id="Group_6342" data-name="Group 6342">
        <g id="Group_6323" data-name="Group 6323">
          <g id="Group_6319" data-name="Group 6319">
            <path id="Path_4894" data-name="Path 4894" d="M402.552,195.51A59.919,59.919,0,0,0,342.64,136.1H317.891a72.374,72.374,0,0,0-62.768-36.3H206.956v18.364a72.372,72.372,0,0,0-22.511,38.316,62.317,62.317,0,0,0,4.057,124.5H386.82a44.181,44.181,0,0,0,15.732-85.466Z" fill="#19bdc1"/>
            <path id="Path_4895" data-name="Path 4895" d="M402.552,195.51A59.919,59.919,0,0,0,342.64,136.1H317.891a72.374,72.374,0,0,0-62.768-36.3H206.956v18.364a72.372,72.372,0,0,0-22.511,38.316,62.317,62.317,0,0,0,4.057,124.5H386.82a44.181,44.181,0,0,0,15.732-85.466Z" fill="#fff" opacity="0.7"/>
          </g>
          <path id="Path_4896" data-name="Path 4896" d="M354.384,195.51a59.916,59.916,0,0,0-82.342-55.059,72.415,72.415,0,0,0-135.765,16.022,62.317,62.317,0,0,0,4.057,124.5H338.652a44.181,44.181,0,0,0,15.732-85.466Z" fill="#19bdc1"/>
          <g id="Group_6321" data-name="Group 6321">
            <g id="Group_6320" data-name="Group 6320" clip-path="url(#clip-path)">
              <path id="Path_4897" data-name="Path 4897" d="M402.552,195.51a59.916,59.916,0,0,0-82.342-55.059,72.415,72.415,0,0,0-135.765,16.022,62.317,62.317,0,0,0,4.057,124.5H386.82a44.181,44.181,0,0,0,15.732-85.466Z" opacity="0.1"/>
            </g>
          </g>
          <g id="Group_6322" data-name="Group 6322">
            <path id="Path_4899" data-name="Path 4899" d="M338.652,281.947H140.334a63.289,63.289,0,0,1-4.844-126.393,73.4,73.4,0,0,1,71.466-56.732,72.929,72.929,0,0,1,65.559,40.4,60.888,60.888,0,0,1,82.832,55.623,45.152,45.152,0,0,1-16.695,87.1Zm-131.7-181.183a71.856,71.856,0,0,0-69.73,55.919.974.974,0,0,1-.886.759,61.346,61.346,0,0,0,3.994,122.563H338.652a43.211,43.211,0,0,0,15.387-83.588.969.969,0,0,1-.625-.9A58.947,58.947,0,0,0,272.4,141.351a.973.973,0,0,1-1.235-.474A71.012,71.012,0,0,0,206.956,100.764Z" fill="#19bdc1"/>
            <path id="Path_4900" data-name="Path 4900" d="M338.652,281.947H140.334a63.289,63.289,0,0,1-4.844-126.393,73.4,73.4,0,0,1,71.466-56.732,72.929,72.929,0,0,1,65.559,40.4,60.888,60.888,0,0,1,82.832,55.623,45.152,45.152,0,0,1-16.695,87.1Zm-131.7-181.183a71.856,71.856,0,0,0-69.73,55.919.974.974,0,0,1-.886.759,61.346,61.346,0,0,0,3.994,122.563H338.652a43.211,43.211,0,0,0,15.387-83.588.969.969,0,0,1-.625-.9A58.947,58.947,0,0,0,272.4,141.351a.973.973,0,0,1-1.235-.474A71.012,71.012,0,0,0,206.956,100.764Z" fill="#fff" opacity="0.7"/>
          </g>
        </g>
        <g id="Group_6329" data-name="Group 6329">
          <path id="Rectangle_1322" data-name="Rectangle 1322" d="M4.445,0H20.37a0,0,0,0,1,0,0V87.409a0,0,0,0,1,0,0H4.445A4.445,4.445,0,0,1,0,82.964V4.445A4.445,4.445,0,0,1,4.445,0Z" transform="translate(202.047 280.005) rotate(180)" fill="#e0e0e0"/>
          <rect id="Rectangle_1323" data-name="Rectangle 1323" width="43.175" height="87.409" rx="4.445" transform="translate(144.531 192.596)" fill="#fff"/>
          <rect id="Rectangle_1324" data-name="Rectangle 1324" width="43.175" height="0.812" transform="translate(144.531 261.874)" fill="#e0e0e0"/>
          <rect id="Rectangle_1325" data-name="Rectangle 1325" width="43.175" height="0.812" transform="translate(144.531 244.555)" fill="#e0e0e0"/>
          <rect id="Rectangle_1326" data-name="Rectangle 1326" width="43.175" height="0.812" transform="translate(144.531 227.235)" fill="#e0e0e0"/>
          <rect id="Rectangle_1327" data-name="Rectangle 1327" width="43.175" height="0.812" transform="translate(144.531 209.916)" fill="#e0e0e0"/>
          <g id="Group_6324" data-name="Group 6324">
            <path id="Path_4901" data-name="Path 4901" d="M166.059,204.3H151.616a1.649,1.649,0,0,0-1.649,1.65h0a1.649,1.649,0,0,0,1.649,1.649h14.443a1.649,1.649,0,0,0,1.649-1.649h0A1.649,1.649,0,0,0,166.059,204.3Z" fill="#19bdc1" opacity="0.6"/>
            <path id="Path_4902" data-name="Path 4902" d="M166.059,200.012H151.616a1.65,1.65,0,0,0-1.649,1.65h0a1.649,1.649,0,0,0,1.649,1.65h14.443a1.649,1.649,0,0,0,1.649-1.65h0A1.649,1.649,0,0,0,166.059,200.012Z" fill="#19bdc1" opacity="0.6"/>
            <path id="Path_4903" data-name="Path 4903" d="M166.059,195.727H151.616a1.649,1.649,0,0,0-1.649,1.649h0a1.649,1.649,0,0,0,1.649,1.65h14.443a1.649,1.649,0,0,0,1.649-1.65h0A1.649,1.649,0,0,0,166.059,195.727Z" fill="#19bdc1" opacity="0.6"/>
            <rect id="Rectangle_1328" data-name="Rectangle 1328" width="6.03" height="3.299" transform="translate(175.254 207.597) rotate(180)" fill="#ebebeb"/>
            <rect id="Rectangle_1329" data-name="Rectangle 1329" width="6.03" height="3.299" transform="translate(175.254 203.312) rotate(180)" fill="#19bdc1"/>
            <rect id="Rectangle_1330" data-name="Rectangle 1330" width="6.03" height="3.299" transform="translate(175.254 199.026) rotate(180)" fill="#ebebeb"/>
            <rect id="Rectangle_1331" data-name="Rectangle 1331" width="6.03" height="3.299" transform="translate(182.27 207.597) rotate(180)" fill="#ebebeb"/>
            <rect id="Rectangle_1332" data-name="Rectangle 1332" width="6.03" height="3.299" transform="translate(182.27 203.312) rotate(180)" fill="#ebebeb"/>
            <rect id="Rectangle_1333" data-name="Rectangle 1333" width="6.03" height="3.299" transform="translate(182.27 199.026) rotate(180)" fill="#19bdc1"/>
          </g>
          <g id="Group_6325" data-name="Group 6325">
            <path id="Path_4904" data-name="Path 4904" d="M166.059,221.617H151.616a1.649,1.649,0,0,0-1.649,1.65h0a1.65,1.65,0,0,0,1.649,1.65h14.443a1.649,1.649,0,0,0,1.649-1.65h0A1.649,1.649,0,0,0,166.059,221.617Z" fill="#ebebeb"/>
            <path id="Path_4905" data-name="Path 4905" d="M166.059,217.332H151.616a1.649,1.649,0,0,0-1.649,1.649h0a1.649,1.649,0,0,0,1.649,1.65h14.443a1.649,1.649,0,0,0,1.649-1.65h0A1.649,1.649,0,0,0,166.059,217.332Z" fill="#19bdc1" opacity="0.6"/>
            <path id="Path_4906" data-name="Path 4906" d="M166.059,213.046H151.616a1.649,1.649,0,0,0-1.649,1.65h0a1.649,1.649,0,0,0,1.649,1.65h14.443a1.649,1.649,0,0,0,1.649-1.65h0A1.649,1.649,0,0,0,166.059,213.046Z" fill="#19bdc1" opacity="0.6"/>
            <rect id="Rectangle_1334" data-name="Rectangle 1334" width="6.03" height="3.299" transform="translate(175.254 224.917) rotate(180)" fill="#ebebeb"/>
            <rect id="Rectangle_1335" data-name="Rectangle 1335" width="6.03" height="3.299" transform="translate(175.254 220.631) rotate(180)" fill="#ebebeb"/>
            <rect id="Rectangle_1336" data-name="Rectangle 1336" width="6.03" height="3.299" transform="translate(175.254 216.346) rotate(180)" fill="#19bdc1"/>
            <rect id="Rectangle_1337" data-name="Rectangle 1337" width="6.03" height="3.299" transform="translate(182.27 224.917) rotate(180)" fill="#ebebeb"/>
            <rect id="Rectangle_1338" data-name="Rectangle 1338" width="6.03" height="3.299" transform="translate(182.27 220.631) rotate(180)" fill="#ebebeb"/>
            <rect id="Rectangle_1339" data-name="Rectangle 1339" width="6.03" height="3.299" transform="translate(182.27 216.346) rotate(180)" fill="#ebebeb"/>
          </g>
          <g id="Group_6326" data-name="Group 6326">
            <path id="Path_4907" data-name="Path 4907" d="M166.059,238.937H151.616a1.649,1.649,0,0,0-1.649,1.649h0a1.649,1.649,0,0,0,1.649,1.65h14.443a1.649,1.649,0,0,0,1.649-1.65h0A1.649,1.649,0,0,0,166.059,238.937Z" fill="#19bdc1" opacity="0.6"/>
            <path id="Path_4908" data-name="Path 4908" d="M166.059,234.651H151.616a1.649,1.649,0,0,0-1.649,1.65h0a1.649,1.649,0,0,0,1.649,1.65h14.443a1.649,1.649,0,0,0,1.649-1.65h0A1.649,1.649,0,0,0,166.059,234.651Z" fill="#19bdc1" opacity="0.6"/>
            <path id="Path_4909" data-name="Path 4909" d="M166.059,230.366H151.616a1.649,1.649,0,0,0-1.649,1.649h0a1.649,1.649,0,0,0,1.649,1.65h14.443a1.649,1.649,0,0,0,1.649-1.65h0A1.649,1.649,0,0,0,166.059,230.366Z" fill="#19bdc1" opacity="0.6"/>
            <rect id="Rectangle_1340" data-name="Rectangle 1340" width="6.03" height="3.299" transform="translate(175.254 242.236) rotate(180)" fill="#ebebeb"/>
            <rect id="Rectangle_1341" data-name="Rectangle 1341" width="6.03" height="3.299" transform="translate(175.254 237.951) rotate(180)" fill="#19bdc1"/>
            <rect id="Rectangle_1342" data-name="Rectangle 1342" width="6.03" height="3.299" transform="translate(175.254 233.665) rotate(180)" fill="#ebebeb"/>
            <rect id="Rectangle_1343" data-name="Rectangle 1343" width="6.03" height="3.299" transform="translate(182.27 242.236) rotate(180)" fill="#ebebeb"/>
            <rect id="Rectangle_1344" data-name="Rectangle 1344" width="6.03" height="3.299" transform="translate(182.27 237.951) rotate(180)" fill="#ebebeb"/>
            <rect id="Rectangle_1345" data-name="Rectangle 1345" width="6.03" height="3.299" transform="translate(182.27 233.665) rotate(180)" fill="#19bdc1"/>
          </g>
          <g id="Group_6327" data-name="Group 6327">
            <path id="Path_4910" data-name="Path 4910" d="M166.059,256.256H151.616a1.649,1.649,0,0,0-1.649,1.65h0a1.649,1.649,0,0,0,1.649,1.649h14.443a1.649,1.649,0,0,0,1.649-1.649h0A1.649,1.649,0,0,0,166.059,256.256Z" fill="#19bdc1" opacity="0.6"/>
            <rect id="Rectangle_1346" data-name="Rectangle 1346" width="17.742" height="3.299" rx="1.65" transform="translate(149.967 251.971)" fill="#19bdc1" opacity="0.6"/>
            <path id="Path_4911" data-name="Path 4911" d="M166.059,247.685H151.616a1.649,1.649,0,0,0-1.649,1.65h0a1.649,1.649,0,0,0,1.649,1.65h14.443a1.649,1.649,0,0,0,1.649-1.65h0A1.649,1.649,0,0,0,166.059,247.685Z" fill="#19bdc1" opacity="0.6"/>
            <rect id="Rectangle_1347" data-name="Rectangle 1347" width="6.03" height="3.299" transform="translate(175.254 259.556) rotate(180)" fill="#ebebeb"/>
            <rect id="Rectangle_1348" data-name="Rectangle 1348" width="6.03" height="3.299" transform="translate(175.254 255.27) rotate(180)" fill="#19bdc1"/>
            <rect id="Rectangle_1349" data-name="Rectangle 1349" width="6.03" height="3.299" transform="translate(175.254 250.985) rotate(180)" fill="#ebebeb"/>
            <rect id="Rectangle_1350" data-name="Rectangle 1350" width="6.03" height="3.299" transform="translate(182.27 259.556) rotate(180)" fill="#19bdc1"/>
            <rect id="Rectangle_1351" data-name="Rectangle 1351" width="6.03" height="3.299" transform="translate(182.27 255.27) rotate(180)" fill="#ebebeb"/>
            <rect id="Rectangle_1352" data-name="Rectangle 1352" width="6.03" height="3.299" transform="translate(182.27 250.985) rotate(180)" fill="#19bdc1"/>
          </g>
          <g id="Group_6328" data-name="Group 6328">
            <path id="Path_4912" data-name="Path 4912" d="M166.059,273.576H151.616a1.649,1.649,0,0,0-1.649,1.649h0a1.65,1.65,0,0,0,1.649,1.65h14.443a1.649,1.649,0,0,0,1.649-1.65h0A1.649,1.649,0,0,0,166.059,273.576Z" fill="#19bdc1" opacity="0.6"/>
            <path id="Path_4913" data-name="Path 4913" d="M166.059,269.29H151.616a1.649,1.649,0,0,0-1.649,1.65h0a1.649,1.649,0,0,0,1.649,1.65h14.443a1.649,1.649,0,0,0,1.649-1.65h0A1.649,1.649,0,0,0,166.059,269.29Z" fill="#19bdc1" opacity="0.6"/>
            <path id="Path_4914" data-name="Path 4914" d="M166.059,265.005H151.616a1.649,1.649,0,0,0-1.649,1.649h0a1.649,1.649,0,0,0,1.649,1.65h14.443a1.649,1.649,0,0,0,1.649-1.65h0A1.649,1.649,0,0,0,166.059,265.005Z" fill="#19bdc1" opacity="0.6"/>
            <rect id="Rectangle_1353" data-name="Rectangle 1353" width="6.03" height="3.299" transform="translate(175.254 276.875) rotate(180)" fill="#19bdc1"/>
            <rect id="Rectangle_1354" data-name="Rectangle 1354" width="6.03" height="3.299" transform="translate(175.254 272.59) rotate(180)" fill="#ebebeb"/>
            <rect id="Rectangle_1355" data-name="Rectangle 1355" width="6.03" height="3.299" transform="translate(175.254 268.304) rotate(180)" fill="#ebebeb"/>
            <rect id="Rectangle_1356" data-name="Rectangle 1356" width="6.03" height="3.299" transform="translate(182.27 276.875) rotate(180)" fill="#ebebeb"/>
            <rect id="Rectangle_1357" data-name="Rectangle 1357" width="6.03" height="3.299" transform="translate(182.27 272.59) rotate(180)" fill="#ebebeb"/>
            <rect id="Rectangle_1358" data-name="Rectangle 1358" width="6.03" height="3.299" transform="translate(182.27 268.304) rotate(180)" fill="#19bdc1"/>
          </g>
        </g>
        <g id="Group_6335" data-name="Group 6335">
          <path id="Rectangle_1359" data-name="Rectangle 1359" d="M6.544,0H29.989a0,0,0,0,1,0,0V128.681a0,0,0,0,1,0,0H6.544A6.544,6.544,0,0,1,0,122.137V6.544A6.544,6.544,0,0,1,6.544,0Z" transform="translate(273.877 280.005) rotate(180)" fill="#e0e0e0"/>
          <rect id="Rectangle_1360" data-name="Rectangle 1360" width="63.562" height="128.681" rx="6.544" transform="translate(189.204 151.325)" fill="#fff"/>
          <rect id="Rectangle_1361" data-name="Rectangle 1361" width="63.562" height="1.195" transform="translate(189.204 253.313)" fill="#e0e0e0"/>
          <rect id="Rectangle_1362" data-name="Rectangle 1362" width="63.562" height="1.195" transform="translate(189.204 227.816)" fill="#e0e0e0"/>
          <rect id="Rectangle_1363" data-name="Rectangle 1363" width="63.562" height="1.195" transform="translate(189.204 202.319)" fill="#e0e0e0"/>
          <rect id="Rectangle_1364" data-name="Rectangle 1364" width="63.562" height="1.195" transform="translate(189.204 176.822)" fill="#e0e0e0"/>
          <g id="Group_6330" data-name="Group 6330">
            <path id="Path_4915" data-name="Path 4915" d="M220.9,168.551H199.635a2.429,2.429,0,0,0-2.429,2.429h0a2.429,2.429,0,0,0,2.429,2.428H220.9a2.428,2.428,0,0,0,2.428-2.428h0A2.428,2.428,0,0,0,220.9,168.551Z" fill="#19bdc1" opacity="0.6"/>
            <path id="Path_4916" data-name="Path 4916" d="M220.9,162.242H199.635a2.429,2.429,0,0,0-2.429,2.429h0a2.429,2.429,0,0,0,2.429,2.428H220.9a2.428,2.428,0,0,0,2.428-2.428h0A2.428,2.428,0,0,0,220.9,162.242Z" fill="#19bdc1" opacity="0.6"/>
            <path id="Path_4917" data-name="Path 4917" d="M220.9,155.933H199.635a2.429,2.429,0,0,0-2.429,2.429h0a2.429,2.429,0,0,0,2.429,2.428H220.9a2.428,2.428,0,0,0,2.428-2.428h0A2.428,2.428,0,0,0,220.9,155.933Z" fill="#19bdc1" opacity="0.6"/>
            <rect id="Rectangle_1365" data-name="Rectangle 1365" width="8.877" height="4.857" transform="translate(234.434 173.408) rotate(180)" fill="#ebebeb"/>
            <rect id="Rectangle_1366" data-name="Rectangle 1366" width="8.877" height="4.857" transform="translate(234.434 167.099) rotate(180)" fill="#19bdc1"/>
            <rect id="Rectangle_1367" data-name="Rectangle 1367" width="8.877" height="4.857" transform="translate(234.434 160.79) rotate(180)" fill="#ebebeb"/>
            <rect id="Rectangle_1368" data-name="Rectangle 1368" width="8.877" height="4.857" transform="translate(244.763 173.408) rotate(180)" fill="#ebebeb"/>
            <rect id="Rectangle_1369" data-name="Rectangle 1369" width="8.877" height="4.857" transform="translate(244.763 167.099) rotate(180)" fill="#ebebeb"/>
            <rect id="Rectangle_1370" data-name="Rectangle 1370" width="8.877" height="4.857" transform="translate(244.763 160.79) rotate(180)" fill="#19bdc1"/>
          </g>
          <g id="Group_6331" data-name="Group 6331">
            <path id="Path_4918" data-name="Path 4918" d="M220.9,194.048H199.635a2.429,2.429,0,0,0-2.429,2.429h0a2.429,2.429,0,0,0,2.429,2.428H220.9a2.428,2.428,0,0,0,2.428-2.428h0A2.428,2.428,0,0,0,220.9,194.048Z" fill="#19bdc1" opacity="0.6"/>
            <path id="Path_4919" data-name="Path 4919" d="M220.9,187.739H199.635a2.43,2.43,0,0,0-2.429,2.429h0a2.429,2.429,0,0,0,2.429,2.428H220.9a2.428,2.428,0,0,0,2.428-2.428h0A2.429,2.429,0,0,0,220.9,187.739Z" fill="#19bdc1" opacity="0.6"/>
            <path id="Path_4920" data-name="Path 4920" d="M220.9,181.43H199.635a2.43,2.43,0,0,0-2.429,2.429h0a2.429,2.429,0,0,0,2.429,2.428H220.9a2.428,2.428,0,0,0,2.428-2.428h0A2.429,2.429,0,0,0,220.9,181.43Z" fill="#19bdc1" opacity="0.6"/>
            <rect id="Rectangle_1371" data-name="Rectangle 1371" width="8.877" height="4.857" transform="translate(234.434 198.905) rotate(180)" fill="#ebebeb"/>
            <rect id="Rectangle_1372" data-name="Rectangle 1372" width="8.877" height="4.857" transform="translate(234.434 192.596) rotate(180)" fill="#ebebeb"/>
            <rect id="Rectangle_1373" data-name="Rectangle 1373" width="8.877" height="4.857" transform="translate(234.434 186.288) rotate(180)" fill="#19bdc1"/>
            <rect id="Rectangle_1374" data-name="Rectangle 1374" width="8.877" height="4.857" transform="translate(244.763 198.905) rotate(180)" fill="#19bdc1"/>
            <rect id="Rectangle_1375" data-name="Rectangle 1375" width="8.877" height="4.857" transform="translate(244.763 192.596) rotate(180)" fill="#ebebeb"/>
            <rect id="Rectangle_1376" data-name="Rectangle 1376" width="8.877" height="4.857" transform="translate(244.763 186.288) rotate(180)" fill="#19bdc1"/>
          </g>
          <g id="Group_6332" data-name="Group 6332">
            <path id="Path_4921" data-name="Path 4921" d="M220.9,219.545H199.635a2.43,2.43,0,0,0-2.429,2.429h0a2.43,2.43,0,0,0,2.429,2.429H220.9a2.429,2.429,0,0,0,2.428-2.429h0A2.429,2.429,0,0,0,220.9,219.545Z" fill="#19bdc1" opacity="0.6"/>
            <path id="Path_4922" data-name="Path 4922" d="M220.9,213.236H199.635a2.43,2.43,0,0,0-2.429,2.429h0a2.43,2.43,0,0,0,2.429,2.429H220.9a2.429,2.429,0,0,0,2.428-2.429h0A2.429,2.429,0,0,0,220.9,213.236Z" fill="#19bdc1" opacity="0.6"/>
            <path id="Path_4923" data-name="Path 4923" d="M220.9,206.927H199.635a2.43,2.43,0,0,0-2.429,2.429h0a2.43,2.43,0,0,0,2.429,2.429H220.9a2.429,2.429,0,0,0,2.428-2.429h0A2.429,2.429,0,0,0,220.9,206.927Z" fill="#19bdc1" opacity="0.6"/>
            <rect id="Rectangle_1377" data-name="Rectangle 1377" width="8.877" height="4.857" transform="translate(234.434 224.402) rotate(180)" fill="#19bdc1"/>
            <rect id="Rectangle_1378" data-name="Rectangle 1378" width="8.877" height="4.857" transform="translate(234.434 218.094) rotate(180)" fill="#ebebeb"/>
            <rect id="Rectangle_1379" data-name="Rectangle 1379" width="8.877" height="4.857" transform="translate(234.434 211.785) rotate(180)" fill="#ebebeb"/>
            <rect id="Rectangle_1380" data-name="Rectangle 1380" width="8.877" height="4.857" transform="translate(244.763 224.402) rotate(180)" fill="#ebebeb"/>
            <rect id="Rectangle_1381" data-name="Rectangle 1381" width="8.877" height="4.857" transform="translate(244.763 218.094) rotate(180)" fill="#ebebeb"/>
            <rect id="Rectangle_1382" data-name="Rectangle 1382" width="8.877" height="4.857" transform="translate(244.763 211.785) rotate(180)" fill="#19bdc1"/>
          </g>
          <g id="Group_6333" data-name="Group 6333">
            <path id="Path_4924" data-name="Path 4924" d="M220.9,245.042H199.635a2.43,2.43,0,0,0-2.429,2.429h0a2.43,2.43,0,0,0,2.429,2.429H220.9a2.429,2.429,0,0,0,2.428-2.429h0A2.429,2.429,0,0,0,220.9,245.042Z" fill="#19bdc1" opacity="0.6"/>
            <path id="Path_4925" data-name="Path 4925" d="M220.9,238.734H199.635a2.429,2.429,0,0,0-2.429,2.428h0a2.43,2.43,0,0,0,2.429,2.429H220.9a2.429,2.429,0,0,0,2.428-2.429h0A2.428,2.428,0,0,0,220.9,238.734Z" fill="#ebebeb"/>
            <path id="Path_4926" data-name="Path 4926" d="M220.9,232.425H199.635a2.429,2.429,0,0,0-2.429,2.428h0a2.43,2.43,0,0,0,2.429,2.429H220.9a2.429,2.429,0,0,0,2.428-2.429h0A2.428,2.428,0,0,0,220.9,232.425Z" fill="#19bdc1" opacity="0.6"/>
            <rect id="Rectangle_1383" data-name="Rectangle 1383" width="8.877" height="4.857" transform="translate(234.434 249.9) rotate(180)" fill="#ebebeb"/>
            <rect id="Rectangle_1384" data-name="Rectangle 1384" width="8.877" height="4.857" transform="translate(234.434 243.591) rotate(180)" fill="#19bdc1"/>
            <rect id="Rectangle_1385" data-name="Rectangle 1385" width="8.877" height="4.857" transform="translate(234.434 237.282) rotate(180)" fill="#ebebeb"/>
            <rect id="Rectangle_1386" data-name="Rectangle 1386" width="8.877" height="4.857" transform="translate(244.763 249.9) rotate(180)" fill="#19bdc1"/>
            <rect id="Rectangle_1387" data-name="Rectangle 1387" width="8.877" height="4.857" transform="translate(244.763 243.591) rotate(180)" fill="#19bdc1"/>
            <rect id="Rectangle_1388" data-name="Rectangle 1388" width="8.877" height="4.857" transform="translate(244.763 237.282) rotate(180)" fill="#ebebeb"/>
          </g>
          <g id="Group_6334" data-name="Group 6334">
            <path id="Path_4927" data-name="Path 4927" d="M220.9,270.54H199.635a2.429,2.429,0,0,0-2.429,2.428h0a2.43,2.43,0,0,0,2.429,2.429H220.9a2.429,2.429,0,0,0,2.428-2.429h0A2.428,2.428,0,0,0,220.9,270.54Z" fill="#19bdc1" opacity="0.6"/>
            <path id="Path_4928" data-name="Path 4928" d="M220.9,264.231H199.635a2.429,2.429,0,0,0-2.429,2.428h0a2.429,2.429,0,0,0,2.429,2.429H220.9a2.428,2.428,0,0,0,2.428-2.429h0A2.428,2.428,0,0,0,220.9,264.231Z" fill="#19bdc1" opacity="0.6"/>
            <path id="Path_4929" data-name="Path 4929" d="M220.9,257.922H199.635a2.429,2.429,0,0,0-2.429,2.428h0a2.429,2.429,0,0,0,2.429,2.429H220.9a2.428,2.428,0,0,0,2.428-2.429h0A2.428,2.428,0,0,0,220.9,257.922Z" fill="#19bdc1" opacity="0.6"/>
            <rect id="Rectangle_1389" data-name="Rectangle 1389" width="8.877" height="4.857" transform="translate(234.434 275.397) rotate(180)" fill="#ebebeb"/>
            <rect id="Rectangle_1390" data-name="Rectangle 1390" width="8.877" height="4.857" transform="translate(234.434 269.088) rotate(180)" fill="#ebebeb"/>
            <rect id="Rectangle_1391" data-name="Rectangle 1391" width="8.877" height="4.857" transform="translate(234.434 262.779) rotate(180)" fill="#ebebeb"/>
            <rect id="Rectangle_1392" data-name="Rectangle 1392" width="8.877" height="4.857" transform="translate(244.763 275.397) rotate(180)" fill="#ebebeb"/>
            <rect id="Rectangle_1393" data-name="Rectangle 1393" width="8.877" height="4.857" transform="translate(244.763 269.088) rotate(180)" fill="#ebebeb"/>
            <rect id="Rectangle_1394" data-name="Rectangle 1394" width="8.877" height="4.857" transform="translate(244.763 262.779) rotate(180)" fill="#19bdc1"/>
          </g>
        </g>
        <g id="Group_6341" data-name="Group 6341">
          <path id="Rectangle_1395" data-name="Rectangle 1395" d="M5.692,0H26.083a0,0,0,0,1,0,0V111.922a0,0,0,0,1,0,0H5.692A5.692,5.692,0,0,1,0,106.23V5.692A5.692,5.692,0,0,1,5.692,0Z" transform="translate(328.296 280.005) rotate(180)" fill="#e0e0e0"/>
          <rect id="Rectangle_1396" data-name="Rectangle 1396" width="55.283" height="111.922" rx="5.692" transform="translate(254.65 168.084)" fill="#fff"/>
          <rect id="Rectangle_1397" data-name="Rectangle 1397" width="55.283" height="1.039" transform="translate(254.65 256.79)" fill="#e0e0e0"/>
          <rect id="Rectangle_1398" data-name="Rectangle 1398" width="55.283" height="1.039" transform="translate(254.65 234.613)" fill="#e0e0e0"/>
          <rect id="Rectangle_1399" data-name="Rectangle 1399" width="55.283" height="1.039" transform="translate(254.65 212.437)" fill="#e0e0e0"/>
          <rect id="Rectangle_1400" data-name="Rectangle 1400" width="55.283" height="1.039" transform="translate(254.65 190.26)" fill="#e0e0e0"/>
          <g id="Group_6336" data-name="Group 6336">
            <path id="Path_4930" data-name="Path 4930" d="M282.216,183.067H263.723a2.111,2.111,0,0,0-2.112,2.112h0a2.111,2.111,0,0,0,2.112,2.112h18.493a2.112,2.112,0,0,0,2.112-2.112h0A2.112,2.112,0,0,0,282.216,183.067Z" fill="#19bdc1" opacity="0.6"/>
            <path id="Path_4931" data-name="Path 4931" d="M282.216,177.579H263.723a2.112,2.112,0,0,0-2.112,2.113h0a2.112,2.112,0,0,0,2.112,2.112h18.493a2.113,2.113,0,0,0,2.112-2.112h0A2.113,2.113,0,0,0,282.216,177.579Z" fill="#19bdc1" opacity="0.6"/>
            <path id="Path_4932" data-name="Path 4932" d="M282.216,172.092H263.723a2.112,2.112,0,0,0-2.112,2.113h0a2.112,2.112,0,0,0,2.112,2.112h18.493a2.113,2.113,0,0,0,2.112-2.112h0A2.113,2.113,0,0,0,282.216,172.092Z" fill="#19bdc1" opacity="0.6"/>
            <rect id="Rectangle_1401" data-name="Rectangle 1401" width="7.721" height="4.225" transform="translate(293.99 265.022) rotate(180)" fill="#ebebeb"/>
            <rect id="Rectangle_1402" data-name="Rectangle 1402" width="7.721" height="4.225" transform="translate(293.99 270.51) rotate(180)" fill="#19bdc1"/>
            <rect id="Rectangle_1403" data-name="Rectangle 1403" width="7.721" height="4.225" transform="translate(293.99 275.997) rotate(180)" fill="#ebebeb"/>
            <rect id="Rectangle_1404" data-name="Rectangle 1404" width="7.721" height="4.225" transform="translate(302.973 265.022) rotate(180)" fill="#ebebeb"/>
            <rect id="Rectangle_1405" data-name="Rectangle 1405" width="7.721" height="4.225" transform="translate(302.973 270.51) rotate(180)" fill="#ebebeb"/>
            <rect id="Rectangle_1406" data-name="Rectangle 1406" width="7.721" height="4.225" transform="translate(302.973 275.997) rotate(180)" fill="#19bdc1"/>
          </g>
          <g id="Group_6337" data-name="Group 6337">
            <path id="Path_4933" data-name="Path 4933" d="M282.216,205.243H263.723a2.112,2.112,0,0,0-2.112,2.112h0a2.112,2.112,0,0,0,2.112,2.113h18.493a2.113,2.113,0,0,0,2.112-2.113h0A2.113,2.113,0,0,0,282.216,205.243Z" fill="#ebebeb"/>
            <path id="Path_4934" data-name="Path 4934" d="M282.216,199.756H263.723a2.112,2.112,0,0,0-2.112,2.112h0a2.111,2.111,0,0,0,2.112,2.112h18.493a2.112,2.112,0,0,0,2.112-2.112h0A2.113,2.113,0,0,0,282.216,199.756Z" fill="#19bdc1" opacity="0.6"/>
            <path id="Path_4935" data-name="Path 4935" d="M282.216,194.269H263.723a2.111,2.111,0,0,0-2.112,2.112h0a2.111,2.111,0,0,0,2.112,2.112h18.493a2.112,2.112,0,0,0,2.112-2.112h0A2.112,2.112,0,0,0,282.216,194.269Z" fill="#19bdc1" opacity="0.6"/>
            <rect id="Rectangle_1407" data-name="Rectangle 1407" width="7.721" height="4.225" transform="translate(293.99 242.846) rotate(180)" fill="#ebebeb"/>
            <rect id="Rectangle_1408" data-name="Rectangle 1408" width="7.721" height="4.225" transform="translate(293.99 248.333) rotate(180)" fill="#ebebeb"/>
            <rect id="Rectangle_1409" data-name="Rectangle 1409" width="7.721" height="4.225" transform="translate(293.99 253.821) rotate(180)" fill="#19bdc1"/>
            <rect id="Rectangle_1410" data-name="Rectangle 1410" width="7.721" height="4.225" transform="translate(302.973 242.846) rotate(180)" fill="#19bdc1"/>
            <rect id="Rectangle_1411" data-name="Rectangle 1411" width="7.721" height="4.225" transform="translate(302.973 248.333) rotate(180)" fill="#ebebeb"/>
            <rect id="Rectangle_1412" data-name="Rectangle 1412" width="7.721" height="4.225" transform="translate(302.973 253.821) rotate(180)" fill="#19bdc1"/>
          </g>
          <g id="Group_6338" data-name="Group 6338">
            <path id="Path_4936" data-name="Path 4936" d="M282.216,227.42H263.723a2.111,2.111,0,0,0-2.112,2.112h0a2.112,2.112,0,0,0,2.112,2.112h18.493a2.113,2.113,0,0,0,2.112-2.112h0A2.112,2.112,0,0,0,282.216,227.42Z" fill="#19bdc1" opacity="0.6"/>
            <path id="Path_4937" data-name="Path 4937" d="M282.216,221.932H263.723a2.112,2.112,0,0,0-2.112,2.113h0a2.112,2.112,0,0,0,2.112,2.112h18.493a2.113,2.113,0,0,0,2.112-2.112h0A2.113,2.113,0,0,0,282.216,221.932Z" fill="#19bdc1" opacity="0.6"/>
            <path id="Path_4938" data-name="Path 4938" d="M282.216,216.445H263.723a2.112,2.112,0,0,0-2.112,2.112h0a2.112,2.112,0,0,0,2.112,2.113h18.493a2.113,2.113,0,0,0,2.112-2.113h0A2.113,2.113,0,0,0,282.216,216.445Z" fill="#19bdc1" opacity="0.6"/>
            <rect id="Rectangle_1413" data-name="Rectangle 1413" width="7.721" height="4.225" transform="translate(293.99 220.67) rotate(180)" fill="#19bdc1"/>
            <rect id="Rectangle_1414" data-name="Rectangle 1414" width="7.721" height="4.225" transform="translate(293.99 226.157) rotate(180)" fill="#ebebeb"/>
            <rect id="Rectangle_1415" data-name="Rectangle 1415" width="7.721" height="4.225" transform="translate(293.99 231.644) rotate(180)" fill="#ebebeb"/>
            <rect id="Rectangle_1416" data-name="Rectangle 1416" width="7.721" height="4.225" transform="translate(302.973 220.67) rotate(180)" fill="#ebebeb"/>
            <rect id="Rectangle_1417" data-name="Rectangle 1417" width="7.721" height="4.225" transform="translate(302.973 226.157) rotate(180)" fill="#ebebeb"/>
            <rect id="Rectangle_1418" data-name="Rectangle 1418" width="7.721" height="4.225" transform="translate(302.973 231.644) rotate(180)" fill="#19bdc1"/>
          </g>
          <g id="Group_6339" data-name="Group 6339">
            <path id="Path_4939" data-name="Path 4939" d="M282.216,249.6H263.723a2.112,2.112,0,0,0-2.112,2.112h0a2.112,2.112,0,0,0,2.112,2.113h18.493a2.113,2.113,0,0,0,2.112-2.113h0A2.113,2.113,0,0,0,282.216,249.6Z" fill="#19bdc1" opacity="0.6"/>
            <path id="Path_4940" data-name="Path 4940" d="M282.216,244.109H263.723a2.112,2.112,0,0,0-2.112,2.112h0a2.111,2.111,0,0,0,2.112,2.112h18.493a2.112,2.112,0,0,0,2.112-2.112h0A2.113,2.113,0,0,0,282.216,244.109Z" fill="#19bdc1" opacity="0.6"/>
            <path id="Path_4941" data-name="Path 4941" d="M282.216,238.622H263.723a2.111,2.111,0,0,0-2.112,2.112h0a2.112,2.112,0,0,0,2.112,2.112h18.493a2.113,2.113,0,0,0,2.112-2.112h0A2.112,2.112,0,0,0,282.216,238.622Z" fill="#19bdc1" opacity="0.6"/>
            <rect id="Rectangle_1419" data-name="Rectangle 1419" width="7.721" height="4.225" transform="translate(293.99 198.493) rotate(180)" fill="#ebebeb"/>
            <rect id="Rectangle_1420" data-name="Rectangle 1420" width="7.721" height="4.225" transform="translate(293.99 203.98) rotate(180)" fill="#19bdc1"/>
            <rect id="Rectangle_1421" data-name="Rectangle 1421" width="7.721" height="4.225" transform="translate(293.99 209.468) rotate(180)" fill="#ebebeb"/>
            <rect id="Rectangle_1422" data-name="Rectangle 1422" width="7.721" height="4.225" transform="translate(302.973 198.493) rotate(180)" fill="#19bdc1"/>
            <rect id="Rectangle_1423" data-name="Rectangle 1423" width="7.721" height="4.225" transform="translate(302.973 203.98) rotate(180)" fill="#ebebeb"/>
            <rect id="Rectangle_1424" data-name="Rectangle 1424" width="7.721" height="4.225" transform="translate(302.973 209.468) rotate(180)" fill="#ebebeb"/>
          </g>
          <g id="Group_6340" data-name="Group 6340">
            <path id="Path_4942" data-name="Path 4942" d="M282.216,271.772H263.723a2.112,2.112,0,0,0-2.112,2.113h0A2.112,2.112,0,0,0,263.723,276h18.493a2.113,2.113,0,0,0,2.112-2.112h0A2.113,2.113,0,0,0,282.216,271.772Z" fill="#19bdc1" opacity="0.6"/>
            <path id="Path_4943" data-name="Path 4943" d="M282.216,266.285H263.723a2.112,2.112,0,0,0-2.112,2.113h0a2.112,2.112,0,0,0,2.112,2.112h18.493a2.113,2.113,0,0,0,2.112-2.112h0A2.113,2.113,0,0,0,282.216,266.285Z" fill="#19bdc1" opacity="0.6"/>
            <rect id="Rectangle_1425" data-name="Rectangle 1425" width="22.717" height="4.225" rx="2.112" transform="translate(261.611 260.798)" fill="#19bdc1" opacity="0.6"/>
            <rect id="Rectangle_1426" data-name="Rectangle 1426" width="7.721" height="4.225" transform="translate(293.99 176.317) rotate(180)" fill="#19bdc1"/>
            <rect id="Rectangle_1427" data-name="Rectangle 1427" width="7.721" height="4.225" transform="translate(293.99 181.804) rotate(180)" fill="#ebebeb"/>
            <rect id="Rectangle_1428" data-name="Rectangle 1428" width="7.721" height="4.225" transform="translate(293.99 187.291) rotate(180)" fill="#ebebeb"/>
            <rect id="Rectangle_1429" data-name="Rectangle 1429" width="7.721" height="4.225" transform="translate(302.973 176.317) rotate(180)" fill="#ebebeb"/>
            <rect id="Rectangle_1430" data-name="Rectangle 1430" width="7.721" height="4.225" transform="translate(302.973 181.804) rotate(180)" fill="#ebebeb"/>
            <rect id="Rectangle_1431" data-name="Rectangle 1431" width="7.721" height="4.225" transform="translate(302.973 187.291) rotate(180)" fill="#19bdc1"/>
          </g>
        </g>
      </g>
    </g>
  </g>
</svg>
