<svg xmlns="http://www.w3.org/2000/svg" width="542.538" height="339.75" viewBox="0 0 542.538 339.75">
  <g id="Group_6244" data-name="Group 6244" transform="translate(-282.214 -272.416)">
    <path id="Path_4702" data-name="Path 4702" d="M359.549,272.416V593.1h433.04l61.344-285.778Z" transform="translate(-29.181)" fill="#f9f9f9" fill-rule="evenodd"/>
    <path id="Path_4703" data-name="Path 4703" d="M873.922,413.693a10.431,10.431,0,0,1,9.635,12.9c-8.12,33.195-30.337,124.019-37.191,152.036a10.431,10.431,0,0,1-10.619,7.941l-146.71-6.853a10.432,10.432,0,0,1-9.666-12.814c7.816-33.139,29.26-124.07,35.905-152.248a10.432,10.432,0,0,1,10.65-8.025Z" transform="translate(-129.19 -42.001)" fill="#eaf3f8" fill-rule="evenodd"/>
    <path id="Path_4704" data-name="Path 4704" d="M418.508,446.314A47.309,47.309,0,1,1,371.2,493.623,47.332,47.332,0,0,1,418.508,446.314Zm18.936-80.345a129.044,129.044,0,0,0-37.871,0l-3.667,29.26a100.954,100.954,0,0,0-30.99,12.836l-23.283-18.1a129.075,129.075,0,0,0-26.779,26.78l18.1,23.283a100.952,100.952,0,0,0-12.836,30.99l-29.26,3.667a129.041,129.041,0,0,0,0,37.871l29.26,3.667a100.953,100.953,0,0,0,12.836,30.99l-18.1,23.283a129.077,129.077,0,0,0,26.779,26.779l23.283-18.1a100.955,100.955,0,0,0,30.99,12.836l3.667,29.26a129.035,129.035,0,0,0,37.871,0l3.667-29.26a100.955,100.955,0,0,0,30.99-12.836l23.283,18.1A129.057,129.057,0,0,0,522.162,570.5l-18.1-23.283a100.955,100.955,0,0,0,12.836-30.99l29.26-3.667a129.035,129.035,0,0,0,0-37.871L516.9,471.02a100.954,100.954,0,0,0-12.836-30.99l18.1-23.283a129.055,129.055,0,0,0-26.779-26.78l-23.283,18.1a100.954,100.954,0,0,0-30.99-12.836Z" transform="translate(-7.244 -28.843)" fill="#ccdee9" fill-rule="evenodd"/>
    <g id="Group_6242" data-name="Group 6242" transform="translate(320.422 406.826)">
      <path id="Path_4705" data-name="Path 4705" d="M400.807,748.67c29.89,0,54.156,2.812,54.156,6.276s-24.266,6.277-54.156,6.277-54.156-2.813-54.156-6.277S370.917,748.67,400.807,748.67Z" transform="translate(-345.566 -555.882)" fill="#ccdee9" fill-rule="evenodd"/>
      <path id="Path_4706" data-name="Path 4706" d="M483.457,543.629c-1.079,5.029-9.728,1.456-12.078,2.879a29.789,29.789,0,0,0-4.555,3.566l-9.982-9.082a18.77,18.77,0,0,0,5.063-5.008,6.482,6.482,0,0,0,.989-5.441c-1.718-5.462-1.353-11.563,3.93-13.2s13.727-.007,15.273,7c0,0,.1.612.261,1.628C482.963,529.861,484.316,539.644,483.457,543.629Z" transform="translate(-380.053 -483.3)" fill="#f9ae8a" fill-rule="evenodd"/>
      <path id="Path_4707" data-name="Path 4707" d="M484.665,525.973a5.188,5.188,0,0,1-1.594,2.3c-1.834,1.161-1.5,3.641-1.649,5.146,0,0-4.095-1.271-5.263,0s1.415,3.978,1.415,3.978a6.622,6.622,0,0,1-4.974,2.652c-2.872.275-6.932-2.851-8.389-4.067a6.482,6.482,0,0,0,.989-5.441c-1.718-5.462-1.353-11.563,3.93-13.2s13.727-.007,15.273,7C484.4,524.344,484.507,524.956,484.665,525.973Z" transform="translate(-382.36 -483.3)" fill="#1c2458" fill-rule="evenodd"/>
      <path id="Path_4708" data-name="Path 4708" d="M455.745,708.774H435.313L433,703.01c-1.395-3.483-3.071-7.667-3.957-9.921-1.7-4.294-12.731-23.373-15.156-32.07s-3.758-9.687-3.758-9.687l-18.907-17.018s-2.569,9.721-5.393,19.408c-.728,2.487-1.463,4.974-2.185,7.3-3.057,9.893-15.747,32.043-19.931,39.84-.625,1.154-1.058,1.992-1.244,2.432a38.346,38.346,0,0,1,4.624,4.328H345.072l2.514-6.76c3.717-10.044,10.408-28.113,11.618-31.555,1.7-4.816,6.85-18.55,7.887-34.99s.893-31.273,4.191-36.879S402.8,605.81,402.8,605.81s25.509,31.527,27.941,39.229,12.6,50,12.6,50a37.333,37.333,0,0,0,4.507,7.969c1.353,1.7,2.9,3.023,4.479,3.153A4.186,4.186,0,0,1,455.745,708.774Z" transform="translate(-345.072 -508.133)" fill="#3749be" fill-rule="evenodd"/>
      <path id="Path_4709" data-name="Path 4709" d="M495.8,757.474H475.367l-2.315-5.764h14.853c1.353,1.7,2.9,3.023,4.479,3.153A4.186,4.186,0,0,1,495.8,757.474Z" transform="translate(-385.127 -556.834)" fill="#1c2458" fill-rule="evenodd"/>
      <path id="Path_4710" data-name="Path 4710" d="M367.091,755.34H345.072l2.514-6.76h16.124c-.625,1.154-1.058,1.992-1.244,2.432A38.346,38.346,0,0,1,367.091,755.34Z" transform="translate(-345.072 -555.854)" fill="#1c2458" fill-rule="evenodd"/>
      <path id="Path_4711" data-name="Path 4711" d="M404.487,645.225s-2.569,9.721-5.393,19.408c-.062-.515-1.223-10.319-2.185-15.671-.989-5.5-4.438-10.573-7.592-14.242s-1.91-5.118.914-2.185S404.487,645.225,404.487,645.225Z" transform="translate(-358.34 -519.044)" fill="#1c2458" fill-rule="evenodd"/>
      <path id="Path_4712" data-name="Path 4712" d="M396.356,491.477s3.2-3.353,5.855-4.272,6.9-7.083,0-7.509c-2.137-.325-3.4-4.262-3.948-7.987s-5.3-4.856-8.5-2.194.8,11.467,1.672,14.311a7.872,7.872,0,0,1-1.114,5.118Z" transform="translate(-358.676 -468.057)" fill="#f9ae8a" fill-rule="evenodd"/>
      <path id="Path_4713" data-name="Path 4713" d="M477.413,569.284a47.458,47.458,0,0,1-14.338,9.227c-9.213-4.06-32.022-18.385-32.022-18.385a71.1,71.1,0,0,0-6.939,7.523c-6.877,8.231-15.444,19.642-15.444,19.642-17.863-6.163-29.35-22.754-29.35-22.754,3.964-5.613,21.023-23.5,21.023-23.5-2.363-.673-12.813-4.37-19.7-9.158l-.007-.007c-3.944-2.741-6.719-5.847-6.115-8.945,1.649-8.5,12.366-26.993,12.366-26.993a30.842,30.842,0,0,1,8.787,2.1c-2.714,7.564-3.737,24.891-3.737,24.891,5.228.845,25.276,2.37,35.134,7.6s22.136,20.645,27.646,27.447C459.269,563.588,472.83,567.937,477.413,569.284Z" transform="translate(-354.264 -476.781)" fill="#11d02c" fill-rule="evenodd"/>
      <path id="Path_4714" data-name="Path 4714" d="M452.4,587.343a71.1,71.1,0,0,0-6.939,7.523c.275-2.865.323-6.19-.7-7.523-1.965-2.556-3.566-5.558,0-4.04A69.455,69.455,0,0,1,452.4,587.343Z" transform="translate(-375.609 -503.998)" fill="#19b12f" fill-rule="evenodd"/>
      <path id="Path_4715" data-name="Path 4715" d="M409.3,551.108c-1.628,2.034-6.135,6.3-6.135,6.3-2.363-.673-12.813-4.37-19.7-9.158.412.137,14.393,4.974,17.169,4.26C403.464,551.788,410.932,549.074,409.3,551.108Z" transform="translate(-357.09 -493.156)" fill="#19b12f" fill-rule="evenodd"/>
    </g>
    <path id="Path_4716" data-name="Path 4716" d="M377.6,286.992a4.4,4.4,0,1,1-4.4,4.4A4.4,4.4,0,0,1,377.6,286.992Z" transform="translate(-33.453 -4.562)" fill="#f65d5d" fill-rule="evenodd"/>
    <path id="Path_4717" data-name="Path 4717" d="M397.856,288.64a4.4,4.4,0,1,1-4.4,4.4A4.4,4.4,0,0,1,397.856,288.64Z" transform="translate(-39.793 -5.078)" fill="#f0a513" fill-rule="evenodd"/>
    <path id="Path_4718" data-name="Path 4718" d="M418.115,290.288a4.4,4.4,0,1,1-4.4,4.4A4.4,4.4,0,0,1,418.115,290.288Z" transform="translate(-46.133 -5.594)" fill="#47d30a" fill-rule="evenodd"/>
    <path id="Path_4719" data-name="Path 4719" d="M875.914,340.7a4.715,4.715,0,0,0-4.339-5.063l-30.662-2.362a4.713,4.713,0,0,0-5.062,4.339v0a4.714,4.714,0,0,0,4.339,5.063l30.662,2.362a4.715,4.715,0,0,0,5.063-4.339Z" transform="translate(-178.248 -19.043)" fill="#eaf3f8" fill-rule="evenodd"/>
    <path id="Path_4720" data-name="Path 4720" d="M971.235,348.042a4.716,4.716,0,0,0-4.339-5.063l-30.662-2.362a4.715,4.715,0,0,0-5.063,4.339v0a4.715,4.715,0,0,0,4.339,5.063l30.662,2.362a4.714,4.714,0,0,0,5.062-4.339Z" transform="translate(-208.081 -21.341)" fill="#eaf3f8" fill-rule="evenodd"/>
    <g id="Group_6243" data-name="Group 6243" transform="translate(547.297 425.026)">
      <path id="Path_4721" data-name="Path 4721" d="M837.274,748.67c29.89,0,54.156,2.812,54.156,6.276s-24.266,6.277-54.156,6.277-54.156-2.813-54.156-6.277S807.385,748.67,837.274,748.67Z" transform="translate(-709.045 -574.082)" fill="#ccdee9" fill-rule="evenodd"/>
      <path id="Path_4722" data-name="Path 4722" d="M942.541,573.626l-7.33,30.944-35.457-8.4-5.249-1.244-3.854-.914a60.358,60.358,0,0,0,5.565-2.8,108.582,108.582,0,0,0-3.346-13.232c-1.683-5.469-3.318-9.921-3.4-10.161l-.007-.014,15.176,11.274a9.1,9.1,0,0,0,5.242-5.208,39.51,39.51,0,0,0-4.356-9.021Z" transform="translate(-742.328 -516.554)" fill="#ccdee9" fill-rule="evenodd"/>
      <path id="Path_4723" data-name="Path 4723" d="M902.5,580.736c-2.892.453-11.686-6.637-11.48-4.919.172,1.477,2.494,13.37,3.133,16.605l-5.249-1.244-16.557-36.6-.77-1.7s2.37,1.127,5.805,2.9c8.361,4.3,23.022,12.387,25.118,17.182C905.452,579.712,905.39,580.282,902.5,580.736Z" transform="translate(-736.732 -512.801)" fill="#a3c4d8" fill-rule="evenodd"/>
      <path id="Path_4724" data-name="Path 4724" d="M923.992,740.112l3.772,4.648,2.865,7.93H907.878a55.322,55.322,0,0,1,7.768-4.331l-1.785-5.61Z" transform="translate(-748.092 -571.403)" fill="#3749be" fill-rule="evenodd"/>
      <path id="Path_4725" data-name="Path 4725" d="M908.131,701.921H889.609a231.911,231.911,0,0,0-16.44-34.866c-1.463-2.535-3.016-5.111-4.665-7.7-13.74-21.593-23.352-48.978-23.352-48.978l2.425-4.294,34.77-2.851s2.535,16.076,4.61,29.549c1.415,9.206,2.618,17.2,2.652,18.014C889.685,652.806,908.131,701.921,908.131,701.921Z" transform="translate(-728.46 -528.562)" fill="#2a3475" fill-rule="evenodd"/>
      <path id="Path_4726" data-name="Path 4726" d="M886.957,632.779c-3.442,11.418-9.824,25.777-13.789,34.276-1.463-2.535-3.016-5.111-4.665-7.7-13.74-21.593-23.352-48.978-23.352-48.978l2.425-4.294,34.77-2.851S884.883,619.306,886.957,632.779Z" transform="translate(-728.46 -528.562)" fill="#1c2458" fill-rule="evenodd"/>
      <path id="Path_4727" data-name="Path 4727" d="M811.933,740.112l-1.211,4.648-6.707,9.086H785.5a25.346,25.346,0,0,1,10.338-4.633l3.6-6.2Z" transform="translate(-709.792 -571.403)" fill="#3749be" fill-rule="evenodd"/>
      <path id="Path_4728" data-name="Path 4728" d="M860.413,598.036l6.75,3.57s4.463,11.913-16.782,45.895c-24.365,38.972-36.173,52.793-36.173,52.793H796.642l42.782-92.934Z" transform="translate(-713.278 -526.937)" fill="#2a3475" fill-rule="evenodd"/>
      <path id="Path_4729" data-name="Path 4729" d="M914.5,577.875s3.908,1.632,4.54,5.2-3.612,2.976-5.75,1.207c0,0-1.619,2.678-3.17-2.723S914.5,577.875,914.5,577.875Z" transform="translate(-748.713 -520.546)" fill="#f9ae8a" fill-rule="evenodd"/>
      <path id="Path_4730" data-name="Path 4730" d="M889.384,562.172a9.1,9.1,0,0,1-5.242,5.208l-15.176-11.274.007.014c.082.24,1.718,4.692,3.4,10.161a108.6,108.6,0,0,1,3.346,13.232,60.371,60.371,0,0,1-5.565,2.8c-7.234,3.243-20.281,7.722-31.631,4.349l-1.731-12.25L832,540.593v-.007l-8.031-1.9s.488-7.324,17.409-11.233h3.731s17.5.447,29.5,12.614a73.674,73.674,0,0,1,10.415,13.088A39.511,39.511,0,0,1,889.384,562.172Z" transform="translate(-721.832 -504.845)" fill="#384ac2" fill-rule="evenodd"/>
      <path id="Path_4731" data-name="Path 4731" d="M884.491,572.636a7.365,7.365,0,0,1-1.985-1.463c-1.237-1.436-7.53-9.083-12.628-14.689s-10.388-10.992-4.788-7.75,15.994,13.727,15.994,13.727l.007.014C881.173,562.715,882.808,567.167,884.491,572.636Z" transform="translate(-733.95 -511.2)" fill="#243296" fill-rule="evenodd"/>
      <path id="Path_4732" data-name="Path 4732" d="M832,545.094l-8.031-1.9C829.571,539.316,832,545.094,832,545.094Z" transform="translate(-721.832 -509.353)" fill="#243296" fill-rule="evenodd"/>
      <path id="Path_4733" data-name="Path 4733" d="M803.1,572.329l-2.666-.632-19.161-4.541-12.586-2.975-52.351-12.4,7.331-30.95,66.621,15.781,3.394.811,1.5.357,3.133.735Z" transform="translate(-688.143 -502.773)" fill="#ccdee9" fill-rule="evenodd"/>
      <path id="Path_4734" data-name="Path 4734" d="M805.118,578.887l-12.586-2.975c2.7-2.817,10.958-12.25,10.958-12.25.227,0,.46.007.694.021.062-1.223.33-3.181,1.374-3.023,0,0,2.247-4.28,5.1-1.285,1.5,1.587,1.257,3.95.474,5.908.838.3,1.36.529,1.36.529S812.579,575.039,805.118,578.887Z" transform="translate(-711.992 -514.504)" fill="#a3c4d8" fill-rule="evenodd"/>
      <path id="Path_4735" data-name="Path 4735" d="M839.016,580.05l-2.666-.632c-.859-7.667-2.8-24.884-3.3-29.322a5.654,5.654,0,0,0-.612-2.013c-.364-.7-.872-1.69-1.34-2.583l3.133.735Z" transform="translate(-724.063 -510.494)" fill="#a3c4d8" fill-rule="evenodd"/>
      <path id="Path_4736" data-name="Path 4736" d="M844.586,512.989a9.087,9.087,0,0,0,1.347,4.163,16.969,16.969,0,0,1-6.011,4.9A3.682,3.682,0,0,1,834.8,520.2v-3.7s-6.891-.4-8.031-6.726c-1.106-6.087,3.538-11.075,3.889-11.439l.021-.021c3.291-5.359,11.927-4.28,14.407-1.161,2.645,3.325,1.608,5.956,0,11.267A11.95,11.95,0,0,0,844.586,512.989Z" transform="translate(-722.652 -494.547)" fill="#f9ae8a" fill-rule="evenodd"/>
      <path id="Path_4737" data-name="Path 4737" d="M806.925,562.57s-.107-4.182,1.392-3.956c0,0,2.252-4.277,5.1-1.284s-.579,8.777-2.04,9.344S806.925,562.57,806.925,562.57Z" transform="translate(-716.496 -513.864)" fill="#f9ae8a" fill-rule="evenodd"/>
      <path id="Path_4738" data-name="Path 4738" d="M788.765,577.091a11.171,11.171,0,0,0,13.137,2.345c7.759-3.765,7.666-13.231,7.666-13.231s-4.975-2.161-9-2.15C800.571,564.055,788.974,577.3,788.765,577.091Z" transform="translate(-710.813 -516.302)" fill="#384ac2" fill-rule="evenodd"/>
      <path id="Path_4739" data-name="Path 4739" d="M681.154,510.264l8.894-9.734,21.919,4.824a9.157,9.157,0,0,1,6.76,6.176l6.782,21.4L710.371,549.5a9.157,9.157,0,0,1-8.728,2.767l-21.919-4.825L675.3,533.484l22.651,4.986,9.32-10.2L703.1,515.094Z" transform="translate(-675.301 -496.42)" fill="#ccdee9" fill-rule="evenodd"/>
      <path id="Path_4740" data-name="Path 4740" d="M990.788,583.365l-3.751-12.639L965.207,565.5a9.155,9.155,0,0,0-8.777,2.607l-15.437,16.293s4.1,13.8,6.392,21.515a9.155,9.155,0,0,0,6.647,6.3l21.826,5.222,10.072-10.625-22.56-5.4-3.936-13.247,9.5-10.032Z" transform="translate(-758.457 -516.677)" fill="#ccdee9" fill-rule="evenodd"/>
      <path id="Path_4741" data-name="Path 4741" d="M846.929,508.413a11.952,11.952,0,0,0-.495,4.576c-3.208.646-4.974-2.789-4.974-2.789s1.45-1.037,1.649-1.972c.412-1.869-.955-3.167-2.576-2.6s-3.009.124-2.94-1.546-.055-3.408-2.494-4.047a4.951,4.951,0,0,1-2.6-1.7l.021-.021c3.291-5.359,11.927-4.28,14.407-1.161C849.574,500.471,848.537,503.1,846.929,508.413Z" transform="translate(-724.501 -494.547)" fill="#1c2458" fill-rule="evenodd"/>
    </g>
  </g>
</svg>
