<svg xmlns="http://www.w3.org/2000/svg" xmlns:xlink="http://www.w3.org/1999/xlink" width="473.23" height="451.309" viewBox="0 0 473.23 451.309">
  <defs>
    <linearGradient id="linear-gradient" x1="-0.926" y1="5.672" x2="-0.926" y2="5.753" gradientUnits="objectBoundingBox">
      <stop offset="0" stop-color="#1d164d"/>
      <stop offset="1" stop-color="#4a4975"/>
    </linearGradient>
    <linearGradient id="linear-gradient-2" x1="-8.735" y1="12.067" x2="-8.721" y2="12.022" xlink:href="#linear-gradient"/>
    <linearGradient id="linear-gradient-3" x1="-0.34" y1="27.41" x2="-0.311" y2="27.375" gradientUnits="objectBoundingBox">
      <stop offset="0" stop-color="#ffc0ac"/>
      <stop offset="1" stop-color="#ffd6c7"/>
    </linearGradient>
    <linearGradient id="linear-gradient-4" x1="1.089" y1="1.745" x2="1.108" y2="1.753" xlink:href="#linear-gradient"/>
    <linearGradient id="linear-gradient-5" x1="1.487" y1="12.219" x2="1.495" y2="12.126" gradientUnits="objectBoundingBox">
      <stop offset="0" stop-color="#1d164d"/>
      <stop offset="1" stop-color="#1d164d" stop-opacity="0"/>
    </linearGradient>
    <linearGradient id="linear-gradient-6" x1="0.516" y1="5.554" x2="0.51" y2="5.541" gradientUnits="objectBoundingBox">
      <stop offset="0" stop-color="#5ca0d3"/>
      <stop offset="1" stop-color="#6236d9"/>
    </linearGradient>
    <linearGradient id="linear-gradient-7" x1="1.014" y1="9.462" x2="1.02" y2="9.481" xlink:href="#linear-gradient"/>
    <linearGradient id="linear-gradient-8" x1="1.286" y1="10.188" x2="1.274" y2="10.204" xlink:href="#linear-gradient-3"/>
    <linearGradient id="linear-gradient-9" x1="3.279" y1="8.881" x2="3.294" y2="8.937" xlink:href="#linear-gradient-3"/>
    <linearGradient id="linear-gradient-10" x1="0.495" y1="8.881" x2="0.51" y2="8.935" xlink:href="#linear-gradient-3"/>
    <linearGradient id="linear-gradient-11" x1="0.598" y1="29.773" x2="0.62" y2="29.878" xlink:href="#linear-gradient-3"/>
    <linearGradient id="linear-gradient-12" x1="-0.749" y1="31.122" x2="-0.768" y2="31.1" gradientUnits="objectBoundingBox">
      <stop offset="0" stop-color="#eaf5ff"/>
      <stop offset="1" stop-color="#c9e2f4"/>
    </linearGradient>
    <linearGradient id="linear-gradient-13" x1="-1.58" y1="39.419" x2="-1.628" y2="39.338" xlink:href="#linear-gradient-12"/>
    <linearGradient id="linear-gradient-14" x1="-0.85" y1="29.217" x2="-0.863" y2="29.209" xlink:href="#linear-gradient-12"/>
    <linearGradient id="linear-gradient-15" x1="-1.743" y1="37.023" x2="-1.791" y2="36.941" xlink:href="#linear-gradient-12"/>
  </defs>
  <g id="Group_3464" data-name="Group 3464" transform="translate(-143.911 -198.688)">
    <g id="Background" transform="translate(155.4 198.688)">
      <path id="Path_1-2" data-name="Path 1-2" d="M208.453,617.107s-79.444-115.881-43.207-210.06,100.5,59.046,142.235,58.371-128.68-178.38-2.717-224.311c106.79-46.9,155.145-16.543,136.68,75.832C419.5,426.71,453.983,449.444,491,405.829c42.707-50.316,85.4,8.755,46.372,65.886s81.505,14.579,54.283,70.984c-25.252,52.322-8.687,66.947-8.687,66.947l-31.65,7.455Z" transform="translate(-155.777 -199.343)" fill="#24c0c4" opacity="0.03" style="isolation: isolate"/>
      <g id="Group_3462" data-name="Group 3462" transform="translate(35.686 0)" opacity="0.084">
        <rect id="Rectangle_1" data-name="Rectangle 1" width="78.036" height="37.189" rx="18.594" transform="translate(270.531 246.382) rotate(-35.025)" fill="#2fbbc7" style="isolation: isolate"/>
        <rect id="Rectangle_2" data-name="Rectangle 2" width="78.036" height="37.189" rx="18.594" transform="translate(105.222 23.375) rotate(-17.43)" fill="#2fbbc7" style="isolation: isolate"/>
        <rect id="Rectangle_3" data-name="Rectangle 3" width="27.794" height="9.789" rx="4.895" transform="translate(214.123 236.243) rotate(-35.025)" fill="#2fbbc7" style="isolation: isolate"/>
        <rect id="Rectangle_4" data-name="Rectangle 4" width="28.969" height="7.198" rx="3.599" transform="translate(236.073 327.695) rotate(-35.025)" fill="#2fbbc7" style="isolation: isolate"/>
        <rect id="Rectangle_5" data-name="Rectangle 5" width="39.264" height="19.287" rx="9.644" transform="translate(173.116 305.179) rotate(-35.025)" fill="#2fbbc7" style="isolation: isolate"/>
        <rect id="Rectangle_6-2" data-name="Rectangle 6-2" width="28.639" height="14.068" rx="7.034" transform="translate(322.847 349.511) rotate(-35.025)" fill="#2fbbc7" style="isolation: isolate"/>
        <rect id="Rectangle_7" data-name="Rectangle 7" width="40.685" height="13.172" rx="6.586" transform="translate(5.301 316.294) rotate(-35.025)" fill="#2fbbc7" style="isolation: isolate"/>
        <rect id="Rectangle_8" data-name="Rectangle 8" width="27.348" height="8.855" rx="4.427" transform="translate(0 231.28) rotate(-35.025)" fill="#2fbbc7" style="isolation: isolate"/>
      </g>
    </g>
    <g id="Cable" transform="translate(405.929 542.069)">
      <g id="Group_5" data-name="Group 5">
        <g id="Group_3" data-name="Group 3" transform="translate(81.509 50.432)">
          <path id="Path_2" data-name="Path 2" d="M617.682,634.081l-.028-.126a1.571,1.571,0,0,1,1.052-1.82c3.945-1.366,6.394-4.477,6.465-6.888.076-2.743-2.9-3.993-4.679-4.494-8.138-2.287-19.6.607-34.111,4.271-3.1.784-6.311,1.595-9.647,2.392-12.514,2.994-19.659,2.832-23.169-.528-2.2-2.1-2.845-5.3-1.977-9.79A4.694,4.694,0,0,0,549.9,612.4c-5.053-4.473-18.7-5.028-30.42-1.235-7.112,2.3-12.688,2.365-16.564.185a8.637,8.637,0,0,1-4.205-5.053l3.149-.777a5.446,5.446,0,0,0,2.733,3.048c2.1,1.143,6.223,1.986,13.889-.495,12.906-4.176,27.652-3.343,33.566,1.893a7.9,7.9,0,0,1,2.725,7.736c-.641,3.314-.3,5.548,1.037,6.83,2.518,2.41,9.307,2.316,20.172-.285,3.317-.795,6.513-1.6,9.606-2.382,14.981-3.787,26.813-6.771,35.783-4.249,6.5,1.827,7.088,6,7.04,7.7-.115,4.157-3.745,8.182-8.694,9.883a1.562,1.562,0,0,1-1.987-.965C617.71,634.189,617.695,634.135,617.682,634.081Z" transform="translate(-498.708 -605.42)" fill="url(#linear-gradient)"/>
        </g>
        <circle id="Ellipse_1" data-name="Ellipse 1" cx="7.408" cy="7.408" r="7.408" transform="translate(69.936 43.532)" fill="url(#linear-gradient-2)"/>
        <path id="Path_3" data-name="Path 3" d="M445.986,553.352,478.7,568.961a30.885,30.885,0,0,1,17.061,33.552h0A30.886,30.886,0,0,1,465.4,627.72H425.887Z" transform="translate(-414.886 -553.334)" fill="#302c48"/>
        <path id="Path_4-2" data-name="Path 4-2" d="M445.63,553.35s-12.8-1.293-24.476,18.641-6.483,50.506,4.376,55.725c0,0,19.126-11.366,23.017-38.6S445.63,553.35,445.63,553.35Z" transform="translate(-414.525 -553.333)" fill="#9fa3c1"/>
        <ellipse id="Ellipse_2" data-name="Ellipse 2" cx="5.555" cy="2.847" rx="5.555" ry="2.847" transform="translate(9.867 53.694) rotate(-75.957)" fill="#c9e2f4"/>
        <ellipse id="Ellipse_3" data-name="Ellipse 3" cx="5.555" cy="2.847" rx="5.555" ry="2.847" transform="translate(16.572 31.975) rotate(-75.957)" fill="#c9e2f4"/>
        <g id="Group_4" data-name="Group 4" transform="translate(25.806 18.176)">
          <path id="Path_5" data-name="Path 5" d="M496.247,603.169h0a30.889,30.889,0,0,0-10.167-29.042c3.588,3.889,3.341,10.565-2.328,17.057-6.7,7.674,6.915,15.451-7.132,26.257s-35.443,10.935-35.443,10.935h24.711A30.886,30.886,0,0,0,496.247,603.169Z" transform="translate(-441.177 -572.17)" fill="#9fa3c1"/>
          <path id="Path_6" data-name="Path 6" d="M484.96,572.106a1.429,1.429,0,0,0,.175.122Z" transform="translate(-442.568 -572.106)" fill="#9fa3c1"/>
        </g>
      </g>
    </g>
    <g id="Confused" transform="translate(143.911 250.627)">
      <path id="Path_7" data-name="Path 7" d="M367.423,301.122l-2.915-.451-3.972,7.1,1.548,1.623a10.946,10.946,0,0,1,1.347,1.73l4.073,6.482,8.915-5.836-5.391-8.318A5.256,5.256,0,0,0,367.423,301.122Z" transform="translate(-150.792 -253.866)" fill="url(#linear-gradient-3)"/>
      <path id="Path_8" data-name="Path 8" d="M363.286,444.937V630.69H346.325L333.786,509.558,315.222,630.69H297.478V444.937Z" transform="translate(-148.789 -258.448)" fill="url(#linear-gradient-4)"/>
      <path id="Path_9" data-name="Path 9" d="M297.478,475.578v4.812c10.84-12.706,28.1-21.128,47.035-22.755l-.278-3.233C325.832,455.986,308.92,463.753,297.478,475.578Z" transform="translate(-148.789 -258.749)" fill="url(#linear-gradient-5)"/>
      <path id="Path_3490" data-name="Path 3490" d="M331.471,445.766a5.434,5.434,0,0,0-5.41,4.953c-21.115,2-40.213,12.116-51.191,27.167-15.092,20.694-14.2,45.262-13.336,69.021.2,5.4.4,10.974.4,16.348,0,25.644-8.628,46.73-25.646,62.673-21.159,19.823-54.952,30.408-90.662,28.447a1.618,1.618,0,0,0-1.71,1.508v.013a1.625,1.625,0,0,0,1.527,1.717q4.308.234,8.571.234c33.373,0,64.413-10.739,84.5-29.553,17.7-16.58,26.672-38.462,26.672-65.039,0-5.433-.2-11.042-.4-16.463-.845-23.208-1.719-47.2,12.715-66.992C288,465.394,306.4,455.727,326.76,453.9a5.434,5.434,0,1,0,4.711-8.138Z" transform="translate(-143.911 -258.475)" fill="#1d164d"/>
      <path id="Path_10" data-name="Path 10" d="M403.074,470.343l-32.316,4.227a29.711,29.711,0,0,1-33.314-25.608c-.009-.061-.016-.121-.023-.181h0a29.713,29.713,0,0,1,23.995-32.873l30.042-5.647Z" transform="translate(-150.05 -257.347)" fill="url(#linear-gradient-6)"/>
      <path id="Path_11" data-name="Path 11" d="M410.883,377.243l-36.808-65.1-8.915,5.836,16.209,46.759-20.812-10.043a28.723,28.723,0,0,0-4.9-1.828l-10.03-2.717-18.555-1.082-24.579,8.7a16.152,16.152,0,0,0-10.679,13.557l-5.08,49.314a9.244,9.244,0,0,0,4.507,8.921l5.9,2.82v8.214h24.91l22.124,7.3,5.5-7.3h13.276V387.215l32.579,9.447a13.369,13.369,0,0,0,15.356-19.419Z" transform="translate(-148.446 -254.23)" fill="#37abc7"/>
      <path id="Path_12" data-name="Path 12" d="M327.912,332.647s-13.454-9.887-14.587-21.476,8.752-9.644,8.752-9.644-3.133-10.267,4-14.593,13.549,1.189,13.549,1.189,7.306-10.266,21.139-4.863,5.619,22.418-1.728,23.906c0,0-.1,6.021-3.293,9.373S330.185,323.571,327.912,332.647Z" transform="translate(-149.289 -253.263)" fill="url(#linear-gradient-7)"/>
      <path id="Path_13" data-name="Path 13" d="M328.238,349V326.629s-6.051-3.621-4.538-8.43,8.05-2.108,8.807,1.783c0,0,4.214-3.565,1.294-10.1,0,0,9.236,6.267,22.638,0,0,0-.81,21.963-2.679,27.153a5.772,5.772,0,0,1-6.97,3.809v9.236S344.771,360.774,328.238,349Z" transform="translate(-149.614 -254.159)" fill="url(#linear-gradient-8)"/>
      <g id="Group_6" data-name="Group 6" transform="translate(148.689 372.242)">
        <path id="Path_14" data-name="Path 14" d="M312.825,652.455l2.4-15.671H297.478v15.671Z" transform="translate(-297.478 -636.784)" fill="url(#linear-gradient-9)"/>
        <path id="Path_15" data-name="Path 15" d="M349.548,652.455h15.341V636.784H347.926Z" transform="translate(-299.08 -636.784)" fill="url(#linear-gradient-10)"/>
      </g>
      <path id="Path_16" data-name="Path 16" d="M334.923,335.576s2.27,9.4,12.238,9.4v-3.325S339.624,340.763,334.923,335.576Z" transform="translate(-149.978 -254.975)" fill="#1d164d"/>
      <path id="Path_17" data-name="Path 17" d="M350.394,442.782l-12.539-7.942-26.985-17.1,6.659-37.112c-.239,1.51-1.251,8.936.907,13.771,2.411,5.414-2.431,13.564,1.294,14.374s9.076-1.407,13.4,11.346a40.669,40.669,0,0,0,6.146,11.2A65.878,65.878,0,0,0,350.394,442.782Z" transform="translate(-149.214 -256.406)" fill="#40b1ca"/>
      <path id="Path_18" data-name="Path 18" d="M403.079,470.343l-32.315,4.227a29.707,29.707,0,0,1-33.317-25.594c-.009-.065-.017-.131-.025-.2-.019-.169-.039-.331-.058-.5l8.416,2.77,5.492-7.3-.039-.026-12.54-7.943a28.21,28.21,0,0,1,1.425-3.527,29.661,29.661,0,0,1,21.3-16.357l3.132-.591,26.906-5.056Z" transform="translate(-150.056 -257.347)" fill="#302c48"/>
      <path id="Path_19" data-name="Path 19" d="M361.422,416.094a29.662,29.662,0,0,0-21.3,16.358,28.192,28.192,0,0,0-1.425,3.527l12.539,7.942.039.026-5.491,7.3-8.416-2.771c.019.169.039.331.058.5a29.708,29.708,0,0,0,33.145,25.817l.2-.025,2.943-.384h0s-4.072.479-9.043-5.356-11.453-.434-12.1-6.269,2.994-7.957,8-10.373,4.322-2.377-1.891-6.753-12.589-.378-10.644-9.889S361.422,416.094,361.422,416.094Z" transform="translate(-150.056 -257.532)" fill="#9fa3c1"/>
      <path id="Path_20" data-name="Path 20" d="M322.388,444.591l-24.91-8.214v4.648Z" transform="translate(-148.789 -258.177)" fill="#5899cf"/>
      <path id="Path_21" data-name="Path 21" d="M392.971,410.26s-11.077,10.319-7.349,32.04,18.966,28.041,18.966,28.041,14.749-11.184,9.887-32.9S392.971,410.26,392.971,410.26Z" transform="translate(-151.564 -257.347)" fill="#9fa3c1"/>
      <path id="Path_22" data-name="Path 22" d="M346.056,452.159l7.451,3.015a7.7,7.7,0,0,0,9.53-3.241h0a1.048,1.048,0,0,0-.58-1.529l-5.993-1.958s2.1-.5,2.479-1.906-1.486-.136-3.35-.433-2.055-1.161-4.039-1.242Z" transform="translate(-150.332 -258.446)" fill="url(#linear-gradient-11)"/>
      <path id="Path_23" data-name="Path 23" d="M342.976,475.466l-8,35.013,2.925,28.254Z" transform="translate(-149.98 -259.418)" fill="#1d164d"/>
      <g id="Group_8" data-name="Group 8" transform="translate(243.126 161.151)">
        <path id="Path_25" data-name="Path 25" d="M395.517,424.725a3.941,3.941,0,0,0,.875,4.924,1.453,1.453,0,0,0,1.222.345l29.619-5.112a3.077,3.077,0,0,0,2.511-3.556h0a3.079,3.079,0,0,0-3.557-2.512l-29.6,5.108A1.462,1.462,0,0,0,395.517,424.725Z" transform="translate(-395.013 -418.768)" fill="url(#linear-gradient-12)"/>
        <path id="Path_26" data-name="Path 26" d="M415.734,423.831a3.079,3.079,0,0,0-3.558-2.511l-15.663,2.7a1.458,1.458,0,0,0-1,.782,3.94,3.94,0,0,0,.875,4.924,1.453,1.453,0,0,0,1.222.345l15.7-2.709A3.074,3.074,0,0,0,415.734,423.831Z" transform="translate(-395.013 -418.848)" fill="url(#linear-gradient-13)"/>
        <path id="Path_27" data-name="Path 27" d="M399.333,429.857l-1.718.3a1.5,1.5,0,0,1-1.225-.344,3.944,3.944,0,0,1-.87-4.927,1.444,1.444,0,0,1,1.063-.8l1.731-.3a1.488,1.488,0,0,0-1.07.8,3.955,3.955,0,0,0,.876,4.928A1.464,1.464,0,0,0,399.333,429.857Z" transform="translate(-395.013 -418.927)" fill="#1d164d"/>
      </g>
      <g id="Group_9" data-name="Group 9" transform="translate(246.501 182.463)">
        <path id="Path_28" data-name="Path 28" d="M399,446.738a3.941,3.941,0,0,0,.873,4.923,1.461,1.461,0,0,0,1.222.346l29.621-5.112a3.08,3.08,0,0,0,2.512-3.558h0a3.081,3.081,0,0,0-3.559-2.512l-29.6,5.109A1.46,1.46,0,0,0,399,446.738Z" transform="translate(-398.498 -440.779)" fill="url(#linear-gradient-14)"/>
        <path id="Path_29" data-name="Path 29" d="M419.219,445.842a3.08,3.08,0,0,0-3.557-2.512L400,446.032a1.452,1.452,0,0,0-.994.782,3.941,3.941,0,0,0,.873,4.924,1.458,1.458,0,0,0,1.222.346l15.7-2.709A3.073,3.073,0,0,0,419.219,445.842Z" transform="translate(-385.462 -443.032)" fill="url(#linear-gradient-15)"/>
        <path id="Path_30" data-name="Path 30" d="M402.819,451.868l-1.719.3a1.5,1.5,0,0,1-1.225-.344,3.941,3.941,0,0,1-.869-4.927,1.441,1.441,0,0,1,1.063-.8l1.73-.3a1.479,1.479,0,0,0-1.069.8,3.953,3.953,0,0,0,.874,4.927A1.468,1.468,0,0,0,402.819,451.868Z" transform="translate(-398.498 -440.938)" fill="#1d164d"/>
      </g>
      <g id="Group_10" data-name="Group 10" transform="translate(145.982 99.2)" opacity="0.2">
        <path id="Path_31" data-name="Path 31" d="M380.542,365.6l-19.73-9.521c-.145-.071-.294-.133-.44-.2a11.472,11.472,0,0,1-3.366,8.241L345.831,375.3a11.507,11.507,0,0,1-16.273,0h0l-11.175-11.176a11.483,11.483,0,0,1-3.3-9.337l-12.337,4.367a16.164,16.164,0,0,0-8.058,6.281L329.555,400.3a11.506,11.506,0,0,0,16.273,0l0,0Z" transform="translate(-294.682 -354.785)" fill="#fff"/>
      </g>
      <path id="Path_32" data-name="Path 32" d="M297.349,644.876h0a3.943,3.943,0,0,0-3.943,3.941h0v10.3a5.055,5.055,0,0,0,5.055,5.054H336.3a3.731,3.731,0,0,0,3.731-3.731h0a2.17,2.17,0,0,0-1.856-2.151c-3.67-.537-11.859-1.89-15.973-3.765-5.4-2.462-5.634-8.805-8.437-8.805C313.767,645.717,306.636,653.363,297.349,644.876Z" transform="translate(-148.659 -264.799)" fill="#302c48"/>
      <path id="Path_33" data-name="Path 33" d="M348.358,644.876h.268a4.178,4.178,0,0,0-4.209,3.942v10.3a5.054,5.054,0,0,0,5.054,5.054h37.842a3.731,3.731,0,0,0,3.731-3.731h0a2.171,2.171,0,0,0-1.856-2.15c-3.671-.537-11.859-1.89-15.978-3.765-5.4-2.462-5.634-8.805-8.438-8.805C364.777,645.717,357.648,653.363,348.358,644.876Z" transform="translate(-150.28 -264.799)" fill="#302c48"/>
      <g id="Group_11" data-name="Group 11" transform="translate(165.551 386.883)">
        <path id="Path_34" data-name="Path 34" d="M321.828,655.776c.472-.289.959-.587,1.445-.868-.128-.054-.264-.107-.384-.163a9.124,9.124,0,0,1-.992-.529l-.745.454c-2.444,1.5-4.221,2.488-4.833,1.57a.6.6,0,0,1-.084-.592c.326-.908,2.124-1.925,4.014-2.728a11.4,11.4,0,0,1-.916-1.017c-1.867.832-3.844,1.986-4.319,3.3a1.893,1.893,0,0,0,.228,1.755C316.594,658.98,319.256,657.353,321.828,655.776Z" transform="translate(-314.893 -651.905)" fill="#fff"/>
        <path id="Path_35" data-name="Path 35" d="M328.767,656.667c-1.408,1.146-2.853,2.308-3.762,1.771a.32.32,0,0,1-.111-.092c-.092-.383,1.236-1.622,1.877-2.211-.5-.142-.97-.29-1.428-.442-1.016.961-1.836,1.881-1.739,2.788a1.391,1.391,0,0,0,.739,1.07,2.267,2.267,0,0,0,1.178.327c1.353,0,2.76-1.147,4.13-2.265.236-.194.474-.386.712-.574Q329.559,656.862,328.767,656.667Z" transform="translate(-315.17 -652.025)" fill="#fff"/>
      </g>
      <g id="Group_12" data-name="Group 12" transform="translate(216.802 387.524)">
        <path id="Path_36" data-name="Path 36" d="M374.761,655.8l.7-.43c-.541-.194-1.052-.393-1.507-.6-2.379,1.455-4.107,2.4-4.71,1.5a.6.6,0,0,1-.085-.591c.255-.706,1.4-1.478,2.783-2.166a9.834,9.834,0,0,1-.994-.94c-1.4.746-2.644,1.659-3.007,2.666a1.89,1.89,0,0,0,.228,1.755C369.525,659,372.189,657.375,374.761,655.8Z" transform="translate(-367.825 -652.567)" fill="#fff"/>
        <path id="Path_37" data-name="Path 37" d="M381.279,657.022c-1.27,1.02-2.525,1.911-3.34,1.43a.327.327,0,0,1-.11-.092c-.073-.312.789-1.186,1.459-1.821-.5-.128-.984-.258-1.456-.394-.793.8-1.374,1.582-1.294,2.35a1.394,1.394,0,0,0,.74,1.07,2.267,2.267,0,0,0,1.178.327c1.353,0,2.759-1.147,4.13-2.265.106-.088.212-.174.319-.261Q382.1,657.207,381.279,657.022Z" transform="translate(-368.101 -652.681)" fill="#fff"/>
      </g>
      <g id="Group_3463" data-name="Group 3463" transform="translate(125.001)">
        <g id="Group_14" data-name="Group 14" transform="translate(0 21.579)">
          <path id="Path_38" data-name="Path 38" d="M287.222,304.153a16.08,16.08,0,0,1-10.353-3.369c-2.852-2.321-4.133-4.957-3.805-7.837,1.061-9.319,18.472-17.965,19.211-18.329l.294.6c-.179.087-17.826,8.848-18.848,17.809-.3,2.638.9,5.079,3.564,7.245,6.051,4.922,15.307,3.631,22.467,0a7.842,7.842,0,0,1-1.856-1.3c-3.906.624-8.659.277-11.655-2.679-3.078-3.034-2.962-5.152-2.321-6.393,1.755-3.409,9.421-4.373,20-2.51,3.879.683,4.96,2.292,5.183,3.523.462,2.566-2.365,6.078-7.215,8.944-.2.119-.4.234-.605.349a13.765,13.765,0,0,0,4.505.688v.664a13.857,13.857,0,0,1-5.264-.938A29.4,29.4,0,0,1,287.222,304.153Zm11.5-5.327a7.817,7.817,0,0,0,1.761,1.068q.545-.293,1.068-.6c4.537-2.678,7.309-6,6.9-8.252-.267-1.468-1.873-2.5-4.645-2.99-10.122-1.783-17.7-.933-19.292,2.161-.773,1.5-.013,3.439,2.2,5.617,2.726,2.687,7.013,3.077,10.657,2.569a4.7,4.7,0,0,1-.524-.813,2.816,2.816,0,0,1,.135-3.038c.929-1.225,2.951-1.644,5.542-1.156,1.629.308,2.507.853,2.615,1.622.113.8-.685,1.68-2.243,2.464a17.044,17.044,0,0,1-4.166,1.356Zm1.785-4.98a3.633,3.633,0,0,0-3,1.1,2.175,2.175,0,0,0-.07,2.341,4.287,4.287,0,0,0,.7.987,16.961,16.961,0,0,0,4.455-1.392c1.471-.739,1.94-1.4,1.885-1.78-.028-.206-.29-.721-2.081-1.06a10.07,10.07,0,0,0-1.882-.193Z" transform="translate(-273.013 -274.618)" fill="#254a5d"/>
        </g>
        <g id="Group_18" data-name="Group 18" transform="translate(108.936)">
          <g id="Group_15" data-name="Group 15">
            <path id="Path_39" data-name="Path 39" d="M420.866,287.076H389.33a3.284,3.284,0,0,1-3.069-5.317l15.767-27.309a3.282,3.282,0,0,1,6.139,0l15.77,27.309a3.283,3.283,0,0,1-3.068,5.317Zm-15.772-33.482a2.479,2.479,0,0,0-1.977,1.488l-15.762,27.31a2.058,2.058,0,0,0,1.976,3.425h31.534a2.058,2.058,0,0,0,1.977-3.425l-15.768-27.311A2.48,2.48,0,0,0,405.094,253.595Z" transform="translate(-385.522 -252.331)" fill="#254a5d"/>
          </g>
          <g id="Group_17" data-name="Group 17" transform="translate(17.598 13.247)">
            <g id="Group_16" data-name="Group 16">
              <path id="Path_40" data-name="Path 40" d="M403.7,278.721a1.98,1.98,0,1,1,1.873,1.873A1.982,1.982,0,0,1,403.7,278.721Zm.061-12.709h3.831l-.638,9.412H404.4Z" transform="translate(-403.698 -266.012)" fill="#254a5d"/>
            </g>
          </g>
        </g>
      </g>
    </g>
    <path id="Path_3491" data-name="Path 3491" d="M428.754,396.055" transform="translate(-9.047 -6.269)" fill="#fff" stroke="#000" stroke-miterlimit="10" stroke-width="1"/>
  </g>
</svg>
