<svg id="Group_3199" data-name="Group 3199" xmlns="http://www.w3.org/2000/svg" width="54.452" height="51.977" viewBox="0 0 54.452 51.977">
  <path id="Path_3059" data-name="Path 3059" d="M43.6,4V23.8a9.929,9.929,0,0,1-9.9,9.9H4a4.965,4.965,0,0,0,4.95,4.95H36.176a6.741,6.741,0,0,1,5.2,2.228l4.95,4.95c.248.248.5.248.99.248a1.169,1.169,0,0,0,1.238-1.238V8.95A4.965,4.965,0,0,0,43.6,4Z" transform="translate(5.9 5.9)" fill="#254a5d"/>
  <path id="Path_3060" data-name="Path 3060" d="M34.651,0H9.9A9.929,9.929,0,0,0,0,9.9V40.839a1.169,1.169,0,0,0,1.238,1.238c.248,0,.743,0,.743-.5l4.95-4.95a8.649,8.649,0,0,1,5.445-1.98H34.651a9.929,9.929,0,0,0,9.9-9.9V9.9A9.929,9.929,0,0,0,34.651,0ZM39.6,24.751a4.965,4.965,0,0,1-4.95,4.95H12.375A11.68,11.68,0,0,0,4.95,32.176V9.9A4.965,4.965,0,0,1,9.9,4.95H34.651A4.965,4.965,0,0,1,39.6,9.9Z" fill="#19bdc1"/>
  <path id="Path_3061" data-name="Path 3061" d="M13.238,10.95h2.475A1.169,1.169,0,0,0,16.95,9.713V7.238A1.169,1.169,0,0,0,15.713,6H13.238A1.169,1.169,0,0,0,12,7.238V9.713A1.169,1.169,0,0,0,13.238,10.95Z" transform="translate(17.701 8.85)" fill="#254a5d"/>
  <path id="Path_3062" data-name="Path 3062" d="M9.238,10.95h2.475A1.169,1.169,0,0,0,12.95,9.713V7.238A1.169,1.169,0,0,0,11.713,6H9.238A1.169,1.169,0,0,0,8,7.238V9.713A1.169,1.169,0,0,0,9.238,10.95Z" transform="translate(11.801 8.85)" fill="#254a5d"/>
  <path id="Path_3063" data-name="Path 3063" d="M8.95,9.713V7.238A1.169,1.169,0,0,0,7.713,6H5.238A1.169,1.169,0,0,0,4,7.238V9.713A1.169,1.169,0,0,0,5.238,10.95H7.713A1.169,1.169,0,0,0,8.95,9.713Z" transform="translate(5.9 8.85)" fill="#254a5d"/>
</svg>
