<svg id="chat-help.2" xmlns="http://www.w3.org/2000/svg" width="40.512" height="40.512" viewBox="0 0 40.512 40.512">
  <path id="Path_3080" data-name="Path 3080" d="M22.284,13a9.284,9.284,0,1,0,9.284,9.284A9.294,9.294,0,0,0,22.284,13Zm0,16.88a7.6,7.6,0,1,1,7.6-7.6A7.605,7.605,0,0,1,22.284,29.88Z" transform="translate(8.944 8.944)" fill="#254a5d"/>
  <path id="Path_3081" data-name="Path 3081" d="M18.253,21.248a.766.766,0,0,0-.253.591.844.844,0,1,0,1.435-.591A.846.846,0,0,0,18.253,21.248Z" transform="translate(12.384 14.453)" fill="#254a5d"/>
  <path id="Path_3082" data-name="Path 3082" d="M20.217,15c-2.252,0-4.065,1.352-4.213,3.143a.844.844,0,0,0,.77.912.828.828,0,0,0,.912-.77c.073-.881,1.21-1.6,2.532-1.6,1.372,0,2.534.773,2.534,1.688,0,.822-.8,1.354-2.517,1.671l-.184.035a.844.844,0,0,0-.674.825l0,1.688a.844.844,0,1,0,1.688,0l0-1c2.24-.527,3.374-1.609,3.374-3.221C24.439,16.514,22.545,15,20.217,15Z" transform="translate(11.009 10.32)" fill="#254a5d"/>
  <path id="Path_3083" data-name="Path 3083" d="M19.412,28.7H9.284a.845.845,0,0,0-.648.3L1.688,37.337V7.6A5.915,5.915,0,0,1,7.6,1.688H31.228A5.915,5.915,0,0,1,37.136,7.6V21.1a.844.844,0,0,0,1.688,0V7.6a7.605,7.605,0,0,0-7.6-7.6H7.6A7.605,7.605,0,0,0,0,7.6V39.668a.844.844,0,0,0,1.492.54l8.187-9.824h9.733a.844.844,0,0,0,0-1.688Z" fill="#254a5d"/>
  <path id="Path_3084" data-name="Path 3084" d="M5,10.532A2.532,2.532,0,1,0,7.532,8,2.535,2.535,0,0,0,5,10.532Zm3.376,0a.844.844,0,1,1-.844-.844A.844.844,0,0,1,8.376,10.532Z" transform="translate(3.44 5.504)" fill="#254a5d"/>
  <path id="Path_3085" data-name="Path 3085" d="M12.532,8a2.532,2.532,0,1,0,2.532,2.532A2.535,2.535,0,0,0,12.532,8Zm0,3.376a.844.844,0,1,1,.844-.844A.844.844,0,0,1,12.532,11.376Z" transform="translate(6.88 5.504)" fill="#254a5d"/>
  <path id="Path_3086" data-name="Path 3086" d="M15,10.532A2.532,2.532,0,1,0,17.532,8,2.535,2.535,0,0,0,15,10.532Zm3.376,0a.844.844,0,1,1-.844-.844A.844.844,0,0,1,18.376,10.532Z" transform="translate(10.32 5.504)" fill="#254a5d"/>
</svg>
