<svg id="chrome" xmlns="http://www.w3.org/2000/svg" width="37.833" height="37.833" viewBox="0 0 37.833 37.833">
  <path id="Path_3158" data-name="Path 3158" d="M9.544,17.151a.5.5,0,0,0,.5.252h.126a.542.542,0,0,0,.5-.5,7.568,7.568,0,0,1,7.314-5.549H34.262a.6.6,0,0,0,.631-.631.463.463,0,0,0-.126-.378A18.469,18.469,0,0,0,17.994,0,18.8,18.8,0,0,0,3.743,6.558c-.252.126-.252.5-.126.757Z" transform="translate(0.923)" fill="#fff"/>
  <path id="Path_3159" data-name="Path 3159" d="M33.176,10.378A.694.694,0,0,0,32.546,10H21.069a.694.694,0,0,0-.631.378.555.555,0,0,0,.126.631,7.654,7.654,0,0,1,2.144,5.3,7.834,7.834,0,0,1-1.766,4.918c-.126.126-.126.126-.126.252V21.6L14.512,34.213c-.126.126,0,.378,0,.631s.378.252.5.378h.126A18.891,18.891,0,0,0,34.059,16.306,24.083,24.083,0,0,0,33.176,10.378Z" transform="translate(3.775 2.611)" fill="#fff"/>
  <path id="Path_3160" data-name="Path 3160" d="M21.565,24.608c-.126-.252-.378-.252-.631-.252a7.658,7.658,0,0,1-8.576-3.405.124.124,0,0,0-.126-.126l-.126-.126L4.036,7.078c-.126-.252-.252-.378-.5-.378a.694.694,0,0,0-.631.378A19.133,19.133,0,0,0,0,17.167,18.845,18.845,0,0,0,16.016,35.832h.126c.252,0,.5-.126.5-.378l5.044-10.215C21.817,25.112,21.817,24.86,21.565,24.608Z" transform="translate(0 1.749)" fill="#fff"/>
  <path id="Path_3161" data-name="Path 3161" d="M10,16.306A6.306,6.306,0,1,0,16.306,10,6.244,6.244,0,0,0,10,16.306Z" transform="translate(2.611 2.611)" fill="#fff"/>
</svg>
