<svg id="clock" xmlns="http://www.w3.org/2000/svg" width="51.372" height="51.372" viewBox="0 0 51.372 51.372">
  <g id="Group_3207" data-name="Group 3207" transform="translate(0 0)">
    <path id="Path_3077" data-name="Path 3077" d="M26.186,51.872A25.686,25.686,0,1,1,51.872,26.186,25.715,25.715,0,0,1,26.186,51.872Zm0-49.138A23.452,23.452,0,1,0,49.638,26.186,23.478,23.478,0,0,0,26.186,2.734Z" transform="translate(-0.5 -0.5)" fill="#254a5d"/>
  </g>
  <g id="Group_3208" data-name="Group 3208" transform="translate(24.569 11.168)">
    <path id="Path_3078" data-name="Path 3078" d="M12.617,21.135a1.1,1.1,0,0,1-.427-.085,1.117,1.117,0,0,1-.69-1.032V6.617a1.117,1.117,0,0,1,2.234,0V17.322l4.793-4.793a1.117,1.117,0,1,1,1.579,1.579l-6.7,6.7A1.116,1.116,0,0,1,12.617,21.135Z" transform="translate(-11.5 -5.5)" fill="#254a5d"/>
  </g>
  <g id="Group_3209" data-name="Group 3209" transform="translate(6.701 6.701)">
    <path id="Path_3079" data-name="Path 3079" d="M22.485,41.471A18.985,18.985,0,1,1,41.471,22.485,19.007,19.007,0,0,1,22.485,41.471Zm0-35.737A16.752,16.752,0,1,0,39.237,22.485,16.769,16.769,0,0,0,22.485,5.734Z" transform="translate(-3.5 -3.5)" fill="#254a5d"/>
  </g>
</svg>
