<svg xmlns="http://www.w3.org/2000/svg" width="56.227" height="55.772" viewBox="0 0 56.227 55.772">
  <path id="firefox" d="M28.48.514a.616.616,0,0,0-.83.415.665.665,0,0,0,.277.83c3.456,2.35,6.636,9.4,6.636,14.655a8.08,8.08,0,0,1-.277,2.489,13.281,13.281,0,0,0-4.148-7.189,1.181,1.181,0,0,0-.968,0,1.181,1.181,0,0,0,0,.968c1.106,1.521,1.244,3.595,1.244,5.807,0,5.53-3.871,9.678-8.986,9.678a11.887,11.887,0,0,1-3.318-.277,32.357,32.357,0,0,0,3.318-1.244A10.768,10.768,0,0,1,25.576,25.4a.718.718,0,0,0,.553-.277.831.831,0,0,0,.138-.553c0-.138-.691-3.318-3.456-3.318a3.246,3.246,0,0,0-2.212.691c-.553.415-1.244.691-3.318.691-1.8,0-4.839-.415-4.839-2.765a2.619,2.619,0,0,1,1.521-2.212c.138.138.277.138.553.138s.415-.138.553-.138a2.527,2.527,0,0,0,.415-2.212l4.977-2.489a1.965,1.965,0,0,0,.277-.83c0-.277-.415-.553-.691-.553H17.973c-2.074,0-3.456-.415-3.733-1.244-.553-1.244,1.106-3.456,2.212-4.562a1.036,1.036,0,0,0,.138-.691c0-.277-.415-.415-.691-.415a6.262,6.262,0,0,0-5.115,2.9c-.277,0-.83-.138-1.659-.138a15.071,15.071,0,0,0-2.35.138A4.507,4.507,0,0,1,5.254,5.906,7.74,7.74,0,0,1,4.148,2.588.76.76,0,0,0,3.733,1.9a.608.608,0,0,0-.691.138C.83,4.247,1.383,7.7,1.936,9.5.277,12.819,0,17.243,0,19.731A21.1,21.1,0,0,0,20.738,40.607c11.613,0,20.738-8.848,20.738-20.046V19.178A19.331,19.331,0,0,0,28.48.514Z" transform="translate(20.914 -0.396) rotate(31)" fill="#fff"/>
</svg>
