<svg xmlns="http://www.w3.org/2000/svg" xmlns:xlink="http://www.w3.org/1999/xlink" width="1366.353" height="504.409" viewBox="0 0 1366.353 504.409">
  <defs>
    <linearGradient id="linear-gradient" x1="0.5" y1="1" x2="0.5" gradientUnits="objectBoundingBox">
      <stop offset="0" stop-color="#fff"/>
      <stop offset="0.5" stop-color="#fff"/>
      <stop offset="1" stop-color="#f0f5fb"/>
    </linearGradient>
    <linearGradient id="linear-gradient-2" x1="0.5" y1="1" x2="0.5" gradientUnits="objectBoundingBox">
      <stop offset="0" stop-color="#5899cf"/>
      <stop offset="1" stop-color="#19bdc1"/>
    </linearGradient>
    <linearGradient id="linear-gradient-3" x1="-0.001" y1="0.503" x2="0.999" y2="0.503" xlink:href="#linear-gradient-2"/>
    <linearGradient id="linear-gradient-4" x1="-0.001" y1="0.502" x2="1.001" y2="0.502" xlink:href="#linear-gradient-2"/>
    <linearGradient id="linear-gradient-5" x1="-0.009" y1="0.5" x2="0.998" y2="0.5" xlink:href="#linear-gradient-2"/>
    <linearGradient id="linear-gradient-6" x1="0.499" y1="1" x2="0.499" y2="0" xlink:href="#linear-gradient-2"/>
  </defs>
  <g id="Group_3242" data-name="Group 3242" transform="translate(206.081 -83.669)">
    <path id="Path_3156" data-name="Path 3156" d="M0,0H1366.353V327H0Z" transform="translate(1160.272 588.078) rotate(180)" opacity="0.289" fill="url(#linear-gradient)"/>
    <g id="Group_3237" data-name="Group 3237" transform="translate(130.104 261.077)">
      <path id="Path_3098" data-name="Path 3098" d="M614.427,843.322v101.3H571.87v-5.418a5.46,5.46,0,0,0-5.45-5.45H446.907a5.46,5.46,0,0,0-5.45,5.45v5.418H398.9v-101.3A44.236,44.236,0,0,1,443.122,799.1H570.206A44.236,44.236,0,0,1,614.427,843.322Z" transform="translate(-398.9 -799.1)" fill="#f0f5fb"/>
      <path id="Path_3099" data-name="Path 3099" d="M614.427,998.611v66.055H571.87v-5.418a5.46,5.46,0,0,0-5.45-5.45H446.907a5.46,5.46,0,0,0-5.45,5.45v5.418H398.9V998.611a21.321,21.321,0,0,1,31.363-18.766,21.534,21.534,0,0,1,8,7.506,22.147,22.147,0,0,1,2.676,6.4,6.28,6.28,0,0,0,6.1,4.863H566.387a6.308,6.308,0,0,0,6.1-4.863,21.243,21.243,0,0,1,41.937,4.863Z" transform="translate(-398.9 -919.143)" fill="url(#linear-gradient-2)"/>
    </g>
    <path id="Path_3100" data-name="Path 3100" d="M1037.543,1300.72c-9.138-.392-20.267-.62-32.277-.62-31,0-56.166,1.5-56.166,3.329s25.13,3.329,56.166,3.329c12.01,0,23.139-.228,32.277-.62Z" transform="translate(-639.434 -875.517)" fill="#254a5d" opacity="0.085"/>
    <path id="Path_3101" data-name="Path 3101" d="M727.407,1303.461V1298.5c-24.346,1.044-40.207,2.709-40.207,4.634,0,2.056,18.5,3.851,46.18,4.863v-4.5h-5.972Z" transform="translate(-463.007 -874.439)" fill="#254a5d" opacity="0.085"/>
    <path id="Path_3102" data-name="Path 3102" d="M1184.9,1330.13v0Z" transform="translate(-798.278 -895.659)" fill="#a4098b"/>
    <path id="Path_3103" data-name="Path 3103" d="M1174.463,1177.934c-.065-.522-.1-1.012-.163-1.534C1174.365,1176.922,1174.43,1177.412,1174.463,1177.934Z" transform="translate(-791.138 -792.187)" fill="#a4098b"/>
    <path id="Path_3104" data-name="Path 3104" d="M1177.333,1207.589c0-.163-.033-.326-.033-.49A2.474,2.474,0,0,0,1177.333,1207.589Z" transform="translate(-793.159 -812.868)" fill="#a4098b"/>
    <path id="Path_3105" data-name="Path 3105" d="M1173.9,1171.662l-.2-1.762Z" transform="translate(-790.734 -787.809)" fill="#a4098b"/>
    <path id="Path_3106" data-name="Path 3106" d="M1176.3,1196.779l-.1-.979Z" transform="translate(-792.418 -805.256)" fill="#a4098b"/>
    <path id="Path_3107" data-name="Path 3107" d="M1178.432,1221.126c0-.1-.033-.228-.033-.326C1178.4,1220.9,1178.432,1221.028,1178.432,1221.126Z" transform="translate(-793.9 -822.097)" fill="#a4098b"/>
    <path id="Path_3108" data-name="Path 3108" d="M1185,1331.4Z" transform="translate(-798.346 -896.602)" fill="#a4098b"/>
    <path id="Path_3109" data-name="Path 3109" d="M1178.8,1226.1v0Z" transform="translate(-794.169 -825.6)" fill="#a4098b"/>
    <path id="Path_3110" data-name="Path 3110" d="M1175.73,1190.167c-.033-.522-.1-1.044-.13-1.567C1175.633,1189.122,1175.7,1189.644,1175.73,1190.167Z" transform="translate(-792.014 -800.406)" fill="#a4098b"/>
    <path id="Path_3111" data-name="Path 3111" d="M1175.163,1184.228c-.065-.62-.13-1.24-.163-1.828C1175.065,1182.987,1175.1,1183.608,1175.163,1184.228Z" transform="translate(-791.609 -796.229)" fill="#a4098b"/>
    <path id="Path_3112" data-name="Path 3112" d="M1185.1,1334.633v0Z" transform="translate(-798.413 -898.757)" fill="#a4098b"/>
    <path id="Path_3113" data-name="Path 3113" d="M1017.333,570.042a8.766,8.766,0,0,0-1.762-.816c-.326-2.872-.555-5.385-.718-7.441l-.228-2.9c-.163-2.415-.228-3.721-.228-3.721h-.065l-2.448-30.417a103.349,103.349,0,0,0,10.313,10.378l15.078-14s-8.29-16.938-19.875-31c-6.234-7.572-13.413-14.294-20.756-17.1-.685-.261-1.338-.49-2.023-.685a21.925,21.925,0,0,0-13.152-2.643l-7.343-2.187s-19.777,2.089-29.5,20.006c-7.637,14.033-17.036,37.662-3.884,54.7a54.8,54.8,0,0,0,8.942,9.138,216.941,216.941,0,0,1-2.741,27.871C959.176,581.04,980.454,580.061,1017.333,570.042Z" transform="translate(-629.373 -314.643)" fill="#19bdc1"/>
    <path id="Path_3114" data-name="Path 3114" d="M1153.5,1050.4c2.839,8.714,4.993,23.661,6.592,38.9-.914-8.583-1.991-17.1-3.264-24.444A109.715,109.715,0,0,0,1153.5,1050.4Z" transform="translate(-777.126 -707.309)" fill="#a4098b"/>
    <path id="Path_3115" data-name="Path 3115" d="M1150.259,1041.681c-.13-.294-.228-.587-.359-.881A5.5,5.5,0,0,1,1150.259,1041.681Z" transform="translate(-774.701 -700.842)" fill="#a4098b"/>
    <path id="Path_3116" data-name="Path 3116" d="M1185.1,1333.4Z" transform="translate(-798.413 -897.949)" fill="#a4098b"/>
    <path id="Path_3117" data-name="Path 3117" d="M1151.561,1045.018c-.1-.261-.163-.49-.261-.718A4.668,4.668,0,0,1,1151.561,1045.018Z" transform="translate(-775.644 -703.199)" fill="#a4098b"/>
    <path id="Path_3118" data-name="Path 3118" d="M1176.865,1202.383c-.033-.261-.033-.522-.065-.783A6.323,6.323,0,0,0,1176.865,1202.383Z" transform="translate(-792.822 -809.163)" fill="#a4098b"/>
    <path id="Path_3119" data-name="Path 3119" d="M1152.694,1048.116c-.1-.294-.2-.555-.294-.816C1152.5,1047.561,1152.6,1047.855,1152.694,1048.116Z" transform="translate(-776.385 -705.22)" fill="#a4098b"/>
    <path id="Path_3120" data-name="Path 3120" d="M1178.033,1216.092c0-.13-.033-.261-.033-.391C1178,1215.831,1178.033,1215.961,1178.033,1216.092Z" transform="translate(-793.63 -818.662)" fill="#a4098b"/>
    <path id="Path_3121" data-name="Path 3121" d="M1178.2,1218.173q-.049-.637-.1-1.273Z" transform="translate(-793.698 -819.47)" fill="#ffaea2"/>
    <path id="Path_3122" data-name="Path 3122" d="M1185.033,1333.792a2.04,2.04,0,0,0-.033-.392A1.877,1.877,0,0,1,1185.033,1333.792Z" transform="translate(-798.346 -897.949)" fill="#ffaea2"/>
    <path id="Path_3123" data-name="Path 3123" d="M1185.1,1334.8v0Z" transform="translate(-798.413 -898.825)" fill="#ffaea2"/>
    <path id="Path_3124" data-name="Path 3124" d="M1178.6,1223.138c-.033-.457-.065-.881-.1-1.338C1178.533,1222.257,1178.565,1222.714,1178.6,1223.138Z" transform="translate(-793.967 -822.771)" fill="#ffaea2"/>
    <path id="Path_3125" data-name="Path 3125" d="M1184.97,1330.726v-.326A1.1,1.1,0,0,0,1184.97,1330.726Z" transform="translate(-798.316 -895.928)" fill="#ffaea2"/>
    <path id="Path_3126" data-name="Path 3126" d="M1180.791,1260.143c-.2-4.308-.816-19.32-1.991-33.843C1179.975,1240.823,1180.595,1255.8,1180.791,1260.143Z" transform="translate(-794.169 -825.802)" fill="#ffaea2"/>
    <path id="Path_3127" data-name="Path 3127" d="M1185.033,1332.12c0-.163-.033-.392-.033-.62A3.751,3.751,0,0,0,1185.033,1332.12Z" transform="translate(-798.346 -896.669)" fill="#ffaea2"/>
    <path id="Path_3128" data-name="Path 3128" d="M1152.2,1046.761a2.223,2.223,0,0,0-.1-.261A2.245,2.245,0,0,1,1152.2,1046.761Z" transform="translate(-776.183 -704.681)" fill="#ffaea2"/>
    <path id="Path_3129" data-name="Path 3129" d="M1153.365,1050c-.033-.065-.033-.13-.065-.2C1153.333,1049.865,1153.333,1049.931,1153.365,1050Z" transform="translate(-776.991 -706.904)" fill="#ffaea2"/>
    <path id="Path_3130" data-name="Path 3130" d="M1177.6,1211.017c-.065-.783-.131-1.534-.2-2.317C1177.465,1209.451,1177.531,1210.234,1177.6,1211.017Z" transform="translate(-793.226 -813.946)" fill="#ffaea2"/>
    <path id="Path_3131" data-name="Path 3131" d="M1173.7,1169.8v0Z" transform="translate(-790.734 -787.674)" fill="#ffaea2"/>
    <path id="Path_3132" data-name="Path 3132" d="M1151.1,1043.661c-.033-.1-.065-.163-.1-.261A2.251,2.251,0,0,0,1151.1,1043.661Z" transform="translate(-775.442 -702.593)" fill="#ffaea2"/>
    <path id="Path_3133" data-name="Path 3133" d="M1174.333,1175.659c0-.131-.033-.229-.033-.359A1.341,1.341,0,0,0,1174.333,1175.659Z" transform="translate(-791.138 -791.446)" fill="#ffaea2"/>
    <path id="Path_3134" data-name="Path 3134" d="M1174.933,1181.524c0-.131-.033-.294-.033-.424A2,2,0,0,0,1174.933,1181.524Z" transform="translate(-791.542 -795.354)" fill="#ffaea2"/>
    <path id="Path_3135" data-name="Path 3135" d="M1177.1,1205.012c-.033-.326-.065-.653-.1-1.012C1177.033,1204.326,1177.065,1204.685,1177.1,1205.012Z" transform="translate(-792.957 -810.78)" fill="#ffaea2"/>
    <path id="Path_3136" data-name="Path 3136" d="M1176.6,1199.714c-.033-.294-.065-.62-.1-.914C1176.533,1199.094,1176.565,1199.42,1176.6,1199.714Z" transform="translate(-792.62 -807.277)" fill="#ffaea2"/>
    <path id="Path_3137" data-name="Path 3137" d="M1175.533,1188.228a.637.637,0,0,0-.033-.228C1175.5,1188.065,1175.533,1188.13,1175.533,1188.228Z" transform="translate(-791.946 -800.002)" fill="#ffaea2"/>
    <path id="Path_3138" data-name="Path 3138" d="M1176.065,1194.183c-.033-.261-.033-.522-.065-.783A6.345,6.345,0,0,1,1176.065,1194.183Z" transform="translate(-792.283 -803.639)" fill="#ffaea2"/>
    <path id="Path_3139" data-name="Path 3139" d="M925.966,957.642H902.305v-.131a1.465,1.465,0,0,0-.033-.359v-.033c0-.163-.033-.392-.033-.653a1.109,1.109,0,0,0-.033-.326v-.131c-.1-2.219-.326-7.213-.653-13.479-.326-6.038-.751-8.518-1.338-15.633v-.1c-.033-.457-.065-.881-.1-1.338,0-.13-.033-.228-.033-.326l-.1-1.273a1.588,1.588,0,0,1-.033-.392c-.065-.783-.131-1.534-.2-2.317a2.474,2.474,0,0,1-.033-.49c-.033-.326-.065-.653-.1-1.012-.033-.261-.033-.522-.065-.783a8.6,8.6,0,0,1-.065-.914l-.1-.979a6.332,6.332,0,0,1-.065-.783c-.065-.522-.1-1.044-.163-1.567a.638.638,0,0,0-.033-.228c-.065-.62-.131-1.24-.163-1.828a1.864,1.864,0,0,1-.033-.424c-.065-.49-.1-1.012-.163-1.534a1.34,1.34,0,0,1-.033-.359l-.2-1.762v-.1c-.914-8.583-1.991-17.1-3.264-24.444a107.289,107.289,0,0,0-3.329-14.458c-.033-.065-.033-.131-.065-.2-.1-.294-.2-.555-.294-.816a2.243,2.243,0,0,0-.1-.261c-.1-.261-.163-.49-.261-.718a2.244,2.244,0,0,1-.1-.261c-.131-.294-.228-.587-.359-.881-.522-1.24-1.11-2.546-1.762-3.949-7.408-9.758-12.532-17.395-18.113-26.011-18.831,46.212-48.53,74.312-82.047,95.492-1.4.881-2.774,1.73-4.177,2.578-.033.033-.1.065-.131.1,2.644,6.038-.718,14.295.163,16.22s7.082,1.175,7.082,5.026c0,3.818-2.643,3.818-7.213,3.982-4.569.13-6.495-3.394-9.269-8.257-2.807-4.863-10.019-17.982-10.019-17.982h0a56.072,56.072,0,0,0,4.373-5.679c.228-.326.457-.653.718-1.012.849-1.208,1.828-2.611,2.9-4.243h0l4.243-5.776,42.329-57.831,10.607-54.176.033-.163c.163-.685.294-1.338.457-2.023l.685-3.231c.2-.914.359-1.828.522-2.709.131-.653.261-1.305.359-1.926.228-1.273.457-2.546.653-3.818,12.238,1.86,33.517.849,70.363-9.171a11.059,11.059,0,0,1,4.863,6.984,20.578,20.578,0,0,1-4.406-.457c-1.305-.392,3.3,7.278.163,9.562a290.381,290.381,0,0,0,13.152,51.434c11.977,32.9,2.284,72.223-.979,89.977-.816,4.536-1.24,7.376-.783,7.833,2.317,2.317,9.073.457,11.945,4.079C930.4,954.835,927.076,957.642,925.966,957.642Z" transform="translate(-515.619 -526.368)" fill="#016db6"/>
    <path id="Path_3140" data-name="Path 3140" d="M1207.212,1282.674h-23.661v-.13a1.465,1.465,0,0,0-.033-.359v-.033c0-.163-.033-.391-.033-.653a1.108,1.108,0,0,0-.033-.326v-.13c-.1-2.219-.326-7.213-.653-13.479a109.058,109.058,0,0,1,14.751-3.264c-.816,4.536-1.24,7.376-.783,7.833,2.317,2.317,9.073.457,11.945,4.079C1211.65,1279.867,1208.321,1282.674,1207.212,1282.674Z" transform="translate(-796.864 -851.4)" fill="#253c84"/>
    <path id="Path_3141" data-name="Path 3141" d="M1115.181,373.036s-8.159,14.556-17.917,20.2c-3,1.73-6.168,2.644-9.269,2.023a15.092,15.092,0,0,1-8.192-4.177c-.065-.065-.1-.13-.163-.2l-.816,3.035a21.31,21.31,0,0,1-11.292.1,20.889,20.889,0,0,1-5.059-2.056,24.712,24.712,0,0,1-5.874-4.667s6.951-8.518,10.052-17.787,9.726-26.4,26.957-19.451A37.591,37.591,0,0,1,1115.181,373.036Z" transform="translate(-711.85 -234.441)" fill="#ffc4b1"/>
    <path id="Path_3142" data-name="Path 3142" d="M1095.479,338.974c-1.567,2.154-5.385,6.527-8.942,3.459,0,0-4.079-23.987,13.25-23.53,0,0,8.061-16.122,23.433-8.616s16.024,23.987,20.234,24.085-1.893,15.8-14.36,15.045c-12.5-.783-14.49-16.024-18.667-14.36-4.21,1.664-7.506,6.527-9.269,6.2s1.436-6.4,1.893-6.756c.457-.326,3.1-4.243-.1-6.56s-8.877,2.187-8.779,5.515a6.077,6.077,0,0,0,1.273,3.721A1.468,1.468,0,0,1,1095.479,338.974Z" transform="translate(-731.735 -207.396)" fill="#254a5d"/>
    <path id="Path_3143" data-name="Path 3143" d="M1248.329,854.668l-17.395,40.142-99.964-15.078-9.171-37.727,15.73-40.305,12.891,6.168Z" transform="translate(-755.772 -539.774)" fill="#d2ceca"/>
    <path id="Path_3144" data-name="Path 3144" d="M1152.119,840.145l-21.148,39.587-9.171-37.727,15.73-40.305,12.891,6.168Z" transform="translate(-755.772 -539.774)" fill="#b3b3b3"/>
    <path id="Path_3145" data-name="Path 3145" d="M1176.625,801.7l98.005,17.036,6.168,35.932-96.211-14.523L1170,801.7Z" transform="translate(-788.241 -539.774)" fill="#898989"/>
    <path id="Path_3146" data-name="Path 3146" d="M1172.676,801.7l17.656,17.036,7.147,23.367-12.891-1.958L1170,801.7Z" transform="translate(-788.241 -539.774)" fill="#c7c7c7"/>
    <path id="Path_3147" data-name="Path 3147" d="M1029.2,721.884c-7.278,0-9.725-5.515-12.141-7.963-2.415-2.415-21.67-5.972-48.562-23.661a57,57,0,0,1-14.1-12.924c8.159-7.115,22.127-9.236,22.127-9.236,7.506,14.654,42.753,34.529,50.422,35.638a10.626,10.626,0,0,1,8.91,8.387,20.575,20.575,0,0,1-4.406-.457C1029.919,711.212,1036.479,721.884,1029.2,721.884Z" transform="translate(-643.004 -449.776)" fill="#ffc4b1"/>
    <path id="Path_3148" data-name="Path 3148" d="M1218.91,631.7s19.973,46.343,17.526,64.978a1.527,1.527,0,0,1-2.872.49l-2.285-4.471-7.245-1.24L1203.8,645.7Z" transform="translate(-811.01 -425.255)" fill="#ffc4b1"/>
    <path id="Path_3149" data-name="Path 3149" d="M1456.244,853.9,1439.6,873.318l2.089,13.381,20.724,3.133Z" transform="translate(-969.855 -574.938)" fill="#c7c7c7"/>
    <path id="Path_3150" data-name="Path 3150" d="M1303.635,934.023l-3.818,25.064L1203.9,945.021l3.525-25.521Z" transform="translate(-811.078 -619.129)" fill="#ddd"/>
    <path id="Path_3151" data-name="Path 3151" d="M1102.108,460.379l-.816,3.035a21.309,21.309,0,0,1-11.292.1c1.893-6.135,9.2-11.912,9.2-11.912C1098,456.1,1102.108,460.379,1102.108,460.379Z" transform="translate(-734.35 -303.932)" fill="#e3b3a3"/>
    <g id="Group_3241" data-name="Group 3241" transform="translate(337.634 90.456)">
      <g id="Group_3238" data-name="Group 3238" transform="translate(0 17.917)">
        <path id="Path_3152" data-name="Path 3152" d="M1049.516,332.894a1.318,1.318,0,0,1-1.371,1.273l-12.075-.326a1.318,1.318,0,0,1-1.273-1.371,1.3,1.3,0,0,1,1.371-1.273l12.075.326A1.361,1.361,0,0,1,1049.516,332.894Z" transform="translate(-1034.796 -331.196)" fill="url(#linear-gradient-3)"/>
      </g>
      <g id="Group_3239" data-name="Group 3239" transform="translate(5.875 4.962)">
        <path id="Path_3153" data-name="Path 3153" d="M1063.732,301.649a1.269,1.269,0,0,1-.424.914,1.3,1.3,0,0,1-1.86-.065l-8.289-8.779a1.316,1.316,0,1,1,1.925-1.795l8.29,8.779A1.327,1.327,0,0,1,1063.732,301.649Z" transform="translate(-1052.799 -291.499)" fill="url(#linear-gradient-4)"/>
      </g>
      <g id="Group_3240" data-name="Group 3240" transform="translate(18.864)">
        <path id="Path_3154" data-name="Path 3154" d="M1095.567,277.668l-.326,12.075a1.323,1.323,0,1,1-2.643-.1l.326-12.075a1.323,1.323,0,0,1,2.644.1Z" transform="translate(-1092.596 -276.296)" fill="url(#linear-gradient-5)"/>
      </g>
    </g>
    <rect id="Rectangle_450" data-name="Rectangle 450" width="33.256" height="75.422" transform="translate(84.022 330.657)" fill="url(#linear-gradient-6)"/>
    <rect id="Rectangle_451" data-name="Rectangle 451" width="15.078" height="21.213" transform="translate(92.899 309.444)" fill="#f0f5fb"/>
    <rect id="Rectangle_452" data-name="Rectangle 452" width="51.858" height="58.222" transform="translate(459.138 83.669)" fill="#f0f5fb"/>
    <rect id="Rectangle_453" data-name="Rectangle 453" width="31.396" height="31.396" transform="translate(451.306 154.913)" fill="#f0f5fb" opacity="0.624"/>
    <path id="Path_3155" data-name="Path 3155" d="M791.8,1234.367c0,3.818-2.643,3.818-7.213,3.982-4.569.13-6.495-3.394-9.269-8.257-2.807-4.863-10.019-17.982-10.019-17.982h0a56.1,56.1,0,0,0,4.373-5.679c.228-.326.457-.653.718-1.012.849-1.208,1.828-2.611,2.9-4.243h0l4.243-5.777c3.133,4.438,7.017,9.693,11.39,15.11-1.4.881-2.774,1.73-4.177,2.578-.033.033-.1.065-.131.1,2.643,6.038-.718,14.295.163,16.22C785.632,1231.3,791.8,1230.549,791.8,1234.367Z" transform="translate(-515.619 -804.987)" fill="#253c84"/>
  </g>
</svg>
