<svg xmlns="http://www.w3.org/2000/svg" width="35.385" height="44.698" viewBox="0 0 35.385 44.698">
  <g id="insurance.1" transform="translate(-2.5 0)">
    <path id="Path_3093" data-name="Path 3093" d="M20.193,44.7a.909.909,0,0,1-.289-.047C12.466,42.224,2.5,32.136,2.5,25.142V6.519a.932.932,0,0,1,.931-.931c4.976,0,12.18-1.393,16.1-5.315a.932.932,0,0,1,1.317,0c3.924,3.922,11.128,5.315,16.1,5.315a.932.932,0,0,1,.931.931V25.142c0,6.993-9.966,17.082-17.4,19.508A.909.909,0,0,1,20.193,44.7ZM4.362,7.435V25.142c0,5.524,8.653,15.121,15.83,17.64,7.178-2.52,15.83-12.117,15.83-17.64V7.435c-5-.158-11.675-1.6-15.83-5.23C16.038,5.831,9.361,7.275,4.362,7.435Z" transform="translate(0 0)" fill="#254a5d"/>
    <path id="Path_3094" data-name="Path 3094" d="M18.468,38.816a.928.928,0,0,1-.372-.078C11.869,36.016,4.5,27.477,4.5,22.985V8.086a.931.931,0,0,1,.832-.926,29.3,29.3,0,0,0,12.618-4.5.938.938,0,0,1,1.037,0,29.3,29.3,0,0,0,12.618,4.5.93.93,0,0,1,.831.926v14.9c0,4.492-7.369,13.031-13.6,15.752A.928.928,0,0,1,18.468,38.816ZM6.362,8.911V22.985c0,3.319,6.408,11.171,12.105,13.877,5.7-2.706,12.105-10.556,12.105-13.877V8.911A30.983,30.983,0,0,1,18.468,4.542,30.983,30.983,0,0,1,6.362,8.911Z" transform="translate(1.725 2.157)" fill="#254a5d"/>
    <path id="Path_3095" data-name="Path 3095" d="M15.013,23.761c-3.477,0-6.276-1.862-6.509-4.33a.931.931,0,0,1,1.853-.177c.14,1.458,2.227,2.645,4.656,2.645,2.525,0,4.66-1.279,4.66-2.794,0-2.019-3.408-2.576-4.527-2.758l-.549-.093c-1.509-.246-6.1-1-6.1-4.6C8.5,9.045,11.364,7,15.02,7,18.5,7,21.3,8.862,21.529,11.33a.93.93,0,0,1-.838,1.015.917.917,0,0,1-1.015-.838c-.138-1.458-2.226-2.645-4.654-2.645-2.525,0-4.66,1.279-4.66,2.794,0,2.019,3.414,2.578,4.537,2.76l.549.093c1.507.246,6.09,1,6.09,4.6C21.537,21.717,18.67,23.761,15.013,23.761Z" transform="translate(5.173 6.037)" fill="#254a5d"/>
    <path id="Path_3096" data-name="Path 3096" d="M12.43,26.486a.932.932,0,0,1-.931-.931V6.931a.931.931,0,1,1,1.862,0V25.555A.932.932,0,0,1,12.43,26.486Z" transform="translate(7.761 5.175)" fill="#254a5d"/>
  </g>
</svg>
