<svg id="money-bag" xmlns="http://www.w3.org/2000/svg" width="38.436" height="48.552" viewBox="0 0 38.436 48.552">
  <path id="Path_3072" data-name="Path 3072" d="M21.718,40.368C11.122,40.368,2.5,33.562,2.5,25.2,2.5,19.3,12.469,8.759,12.894,8.314A1.01,1.01,0,0,1,13.626,8H29.81a1.01,1.01,0,0,1,.732.314C30.967,8.759,40.936,19.3,40.936,25.2,40.936,33.562,32.315,40.368,21.718,40.368ZM14.063,10.023c-2.919,3.132-9.54,11.094-9.54,15.172,0,7.25,7.714,13.149,17.2,13.149s17.2-5.9,17.2-13.149c0-4.082-6.621-12.043-9.54-15.172Z" transform="translate(-2.5 8.184)" fill="#254a5d"/>
  <path id="Path_3073" data-name="Path 3073" d="M24.7,8.023H8.511A1.011,1.011,0,0,1,8.511,6H24.7a1.011,1.011,0,0,1,0,2.023Z" transform="translate(2.615 6.138)" fill="#254a5d"/>
  <path id="Path_3074" data-name="Path 3074" d="M26.741,10.115H10.558a1.013,1.013,0,0,1-.9-.558L5.608,1.465A1.012,1.012,0,0,1,6.965.107l7.44,3.72L17.935.3a1.012,1.012,0,0,1,1.43,0l3.53,3.53,7.44-3.72a1.012,1.012,0,0,1,1.357,1.357L27.648,9.557A1.018,1.018,0,0,1,26.741,10.115ZM11.183,8.092H26.118l2.407-4.819L23.149,5.962a1.006,1.006,0,0,1-1.167-.19L18.65,2.442l-3.33,3.33a1.012,1.012,0,0,1-1.167.19L8.773,3.273Z" transform="translate(0.569 0)" fill="#254a5d"/>
  <path id="Path_3075" data-name="Path 3075" d="M14.553,27.161c-2.7,0-4.867-1.618-5.049-3.767a1.011,1.011,0,1,1,2.015-.17c.089,1.054,1.45,1.914,3.034,1.914,1.647,0,3.039-.927,3.039-2.023,0-.987-.959-1.622-3.014-2l-.223-.042c-3.281-.6-4.855-1.948-4.855-4.026C9.5,14.815,11.77,13,14.561,13c2.7,0,4.867,1.618,5.049,3.765a1.013,1.013,0,0,1-.922,1.094,1.026,1.026,0,0,1-1.092-.922c-.089-1.054-1.45-1.914-3.034-1.914-1.647,0-3.039.927-3.039,2.023,0,.987.961,1.622,3.022,2l.221.042c3.277.6,4.847,1.948,4.847,4.026C19.615,25.346,17.345,27.161,14.553,27.161Z" transform="translate(4.661 13.299)" fill="#254a5d"/>
  <path id="Path_3076" data-name="Path 3076" d="M12.511,30.207A1.012,1.012,0,0,1,11.5,29.2V13.011a1.011,1.011,0,0,1,2.023,0V29.2A1.011,1.011,0,0,1,12.511,30.207Z" transform="translate(6.707 12.276)" fill="#254a5d"/>
</svg>
