<svg xmlns="http://www.w3.org/2000/svg" width="66.775" height="50.081" viewBox="0 0 66.775 50.081">
  <g id="Group_3198" data-name="Group 3198" transform="translate(-991.613 -556.959)">
    <g id="Слой_2_1_" transform="translate(991.613 556.959)">
      <g id="Icons_1_">
        <path id="Video_1_" d="M5.565,49.246a2.508,2.508,0,0,1-1.391-.278A8.3,8.3,0,0,1,0,41.734V8.347A8.3,8.3,0,0,1,4.173,1.113a2.736,2.736,0,0,1,3.9.835,3,3,0,0,1-.835,3.9H6.956a2.922,2.922,0,0,0-1.391,2.5V41.734a2.922,2.922,0,0,0,1.391,2.5,3.08,3.08,0,0,1,1.113,3.9A3.527,3.527,0,0,1,5.565,49.246ZM62.6,48.968a8.3,8.3,0,0,0,4.173-7.234V8.347A8.3,8.3,0,0,0,62.6,1.113a2.456,2.456,0,0,0-3.617,1.113,2.948,2.948,0,0,0,.835,3.617,2.922,2.922,0,0,1,1.391,2.5V41.734a2.922,2.922,0,0,1-1.391,2.5,2.566,2.566,0,0,0-1.113,3.617c.556,1.391,2.226,1.948,3.9,1.113ZM16.694,44.516a2.782,2.782,0,1,0,0,5.565,2.782,2.782,0,1,0,0-5.565Zm11.129,0a2.782,2.782,0,1,0,0,5.565,2.782,2.782,0,1,0,0-5.565Zm11.129,0A2.782,2.782,0,1,0,41.734,47.3,2.629,2.629,0,0,0,38.952,44.516Zm11.129,0A2.782,2.782,0,1,0,52.863,47.3,2.629,2.629,0,0,0,50.081,44.516ZM16.694,0a2.629,2.629,0,0,0-2.782,2.782,2.629,2.629,0,0,0,2.782,2.782,2.629,2.629,0,0,0,2.782-2.782A2.629,2.629,0,0,0,16.694,0ZM27.823,0a2.629,2.629,0,0,0-2.782,2.782,2.629,2.629,0,0,0,2.782,2.782,2.629,2.629,0,0,0,2.782-2.782A2.629,2.629,0,0,0,27.823,0ZM38.952,0A2.629,2.629,0,0,0,36.17,2.782a2.782,2.782,0,0,0,5.565,0A2.629,2.629,0,0,0,38.952,0ZM50.081,0A2.629,2.629,0,0,0,47.3,2.782a2.782,2.782,0,0,0,5.565,0A2.629,2.629,0,0,0,50.081,0Z" fill="#254a5d"/>
      </g>
    </g>
    <path id="Path_3058" data-name="Path 3058" d="M14.565,29.227V12.534l8.625,6.677-1.669.835a2.736,2.736,0,0,0-.835,3.9,2.649,2.649,0,0,0,3.617.835l5.286-3.061a3.08,3.08,0,0,0,1.113-3.9c-.278-.278-.278-.556-.556-.835L13.73,4.465a2.721,2.721,0,0,0-3.9.556A3.7,3.7,0,0,0,9,6.969V29.227a2.629,2.629,0,0,0,2.782,2.782A2.629,2.629,0,0,0,14.565,29.227Z" transform="translate(1007.653 563.902)" fill="#19bdc1"/>
  </g>
</svg>
