<svg id="web-development-2" xmlns="http://www.w3.org/2000/svg" width="40.802" height="39.028" viewBox="0 0 40.802 39.028">
  <g id="Group_3206" data-name="Group 3206" transform="translate(0 0)">
    <path id="Path_3071" data-name="Path 3071" d="M11.144,29.384a3.548,3.548,0,1,0,3.548,3.548A3.552,3.552,0,0,0,11.144,29.384Zm0,5.322a1.774,1.774,0,1,1,1.774-1.774A1.777,1.777,0,0,1,11.144,34.706Zm17.74-7.1a3.548,3.548,0,1,0-3.548-3.548A3.552,3.552,0,0,0,28.884,27.61Zm0-5.322a1.774,1.774,0,1,1-1.774,1.774A1.777,1.777,0,0,1,28.884,22.288ZM36.867,1H4.935A4.441,4.441,0,0,0,.5,5.435V35.593a4.441,4.441,0,0,0,4.435,4.435H36.867A4.441,4.441,0,0,0,41.3,35.593V5.435A4.441,4.441,0,0,0,36.867,1Zm2.661,34.593a2.664,2.664,0,0,1-2.661,2.661H4.935a2.664,2.664,0,0,1-2.661-2.661V9.87H39.528Zm0-27.5H2.274V5.435A2.664,2.664,0,0,1,4.935,2.774H36.867a2.664,2.664,0,0,1,2.661,2.661Zm-27.5-3.548a.887.887,0,1,0,.887.887A.887.887,0,0,0,12.031,4.548Zm-3.548,0a.887.887,0,1,0,.887.887A.887.887,0,0,0,8.483,4.548Zm-3.548,0a.887.887,0,1,0,.887.887A.887.887,0,0,0,4.935,4.548Zm.447,19.416L7.575,22.7l1.737,2.217a.89.89,0,0,0,.812.332,7.717,7.717,0,0,1,2.022,0,.885.885,0,0,0,.818-.332L14.7,22.7l3.523,2.04-1.05,2.611a.887.887,0,0,0,.122.876,7.875,7.875,0,0,1,1.022,1.747.889.889,0,0,0,.692.529l2.778.39v4.236a.888.888,0,0,0,1.453,1.015,1.464,1.464,0,0,0,.321-.9V30.626a1.4,1.4,0,0,0-.032-.176.487.487,0,0,0,.05-.009l1.529-.616a6.148,6.148,0,0,0,.669.389l.236,1.643a1.287,1.287,0,0,0,1.274,1.075H30.48a1.313,1.313,0,0,0,1.279-1.1l.234-1.636a6.389,6.389,0,0,0,.655-.376l1.568.628a1.314,1.314,0,0,0,1.568-.564L37.392,27.1a1.3,1.3,0,0,0-.287-1.6l-.044-.037-1.318-1.022c.011-.126.016-.254.016-.385s0-.264-.011-.392l1.343-1.054A1.3,1.3,0,0,0,37.364,21l-1.586-2.743a1.308,1.308,0,0,0-1.605-.573l-1.529.616a6.148,6.148,0,0,0-.669-.389l-.227-1.568a1.268,1.268,0,0,0-1.267-1.15H27.287a1.312,1.312,0,0,0-1.279,1.1l-.234,1.634a7.2,7.2,0,0,0-.663.38l-1.561-.628a1.307,1.307,0,0,0-1.566.564l-1.605,2.78a1.276,1.276,0,0,0,.326,1.634l1.315,1.029c-.005.124-.009.25-.009.38s0,.255.009.38l-1.355,1.063a1.307,1.307,0,0,0-.275,1.62l1.118,1.934-1.769-.248A9.664,9.664,0,0,0,19,27.551l.977-2.429a1.476,1.476,0,0,0-.633-1.786l-3.974-2.3a1.474,1.474,0,0,0-1.9.344L11.871,23.43a8.462,8.462,0,0,0-1.469,0L8.776,21.355a1.456,1.456,0,0,0-1.863-.326l-2.42,1.4a.887.887,0,0,0,.889,1.535Zm18.4.1a5.2,5.2,0,0,1,.041-.672.883.883,0,0,0-.334-.809L22.134,21.52l1.174-2.033,1.586.639a.884.884,0,0,0,.873-.119,5.557,5.557,0,0,1,1.171-.672.887.887,0,0,0,.525-.687l.241-1.682h2.342l.241,1.684a.884.884,0,0,0,.557.7,4.515,4.515,0,0,1,1.137.658.884.884,0,0,0,.873.119l1.584-.64,1.176,2.033-1.355,1.061a.884.884,0,0,0-.326.86,3.23,3.23,0,0,1,.05.619,5.18,5.18,0,0,1-.057.672.887.887,0,0,0,.335.811L35.629,26.6l-1.173,2.033-1.6-.64a.89.89,0,0,0-.883.131,5.019,5.019,0,0,1-1.141.662.887.887,0,0,0-.525.687l-.241,1.682H27.7l-.241-1.684a.889.889,0,0,0-.559-.7,4.516,4.516,0,0,1-1.137-.658A.892.892,0,0,0,24.894,28l-1.584.64L22.134,26.6l1.355-1.061a.886.886,0,0,0,.334-.809A5.2,5.2,0,0,1,23.782,24.062Z" transform="translate(-0.5 -1)" fill="#254a5d"/>
  </g>
</svg>
