<svg xmlns="http://www.w3.org/2000/svg" width="20" height="22" viewBox="0 0 20 22">
    <path fill="#FFF" d="M17.619 5.799l1.244-1.22c.21-.21.21-.546 0-.756l-.782-.767c-.103-.102-.244-.16-.39-.16-.148 0-.288.058-.392.16l-1.222 1.263c-1.158-.921-2.513-1.574-3.964-1.911V1.08c0-.597-.493-1.08-1.101-1.08H8.809c-.608 0-1.1.483-1.1 1.08v1.328C3.2 3.415.002 7.345 0 11.878c.06 5.235 4.29 9.506 9.624 9.718 3.86.102 7.427-2.003 9.143-5.394 1.716-3.391 1.268-7.451-1.148-10.403zM9.91 19.437c-4.257 0-7.708-3.384-7.708-7.559 0-4.175 3.451-7.559 7.708-7.559 4.258 0 7.709 3.384 7.709 7.56 0 4.174-3.451 7.558-7.709 7.558zm.419-12.958h-.837c-.304 0-.55.242-.55.54v5.399c0 .298.246.54.55.54h.837c.304 0 .55-.242.55-.54v-5.4c0-.297-.246-.54-.55-.54z"/>
</svg>
