<svg xmlns="http://www.w3.org/2000/svg" width="24" height="22" viewBox="0 0 24 22">
    <path fill="#FFF" d="M2.854.185C2.745.067 2.594 0 2.434 0c-.158 0-.31.067-.42.185L1.38.833c-.116.11-.182.266-.182.428 0 .162.066.316.182.427L4.497 4.89C2.467 6.273.92 8.275.072 10.609c-.045.125-.07.258-.072.391 0 .13.024.259.072.379 1.95 4.96 6.677 8.202 11.92 8.175 1.942-.011 3.856-.467 5.601-1.332l3.538 3.593c.109.118.26.185.42.185.159 0 .31-.067.42-.185l.635-.648c.116-.11.182-.266.182-.428 0-.162-.066-.316-.182-.427L2.854.185zm9.139 16.925C7.935 17.1 4.24 14.727 2.483 11c.798-1.799 2.105-3.314 3.753-4.35l2.59 2.64c-.656 1.401-.375 3.073.703 4.171 1.078 1.099 2.719 1.386 4.095.716l2.11 2.151c-1.191.485-2.458.75-3.741.782zm11.992-6.477C21.53 4.416 14.863 1.093 8.54 2.935L10.566 5c.472-.073.949-.11 1.427-.11 4.058.01 7.752 2.383 9.51 6.11-.48 1.144-1.191 2.172-2.087 3.018l1.703 1.736c1.256-1.205 2.213-2.696 2.794-4.35.052-.129.076-.266.072-.404.02-.121.02-.245 0-.367z"/>
</svg>
