<svg xmlns="http://www.w3.org/2000/svg" width="32" height="28" viewBox="0 0 32 28">
    <path fill="#FFF" d="M.343 7.092c8.64-8.69 22.648-8.69 31.288 0 .303.294.425.73.318 1.14-.107.409-.424.729-.832.836-.407.107-.84-.015-1.132-.32-3.713-3.734-8.748-5.832-13.998-5.832S5.702 5.014 1.989 8.748c-.292.305-.725.427-1.132.32C.449 8.96.132 8.64.025 8.23c-.107-.41.015-.845.318-1.139zm4.116 4.14C7.516 8.158 11.663 6.43 15.987 6.43c4.324 0 8.47 1.728 11.528 4.804.334.335.434.84.253 1.278-.18.438-.606.723-1.077.722-.31 0-.606-.124-.825-.344-5.46-5.48-14.3-5.48-19.76 0-.457.444-1.184.438-1.633-.014-.45-.452-.455-1.183-.014-1.642zm4.117 4.143c4.096-4.11 10.726-4.11 14.822 0 .333.335.432.838.252 1.276-.18.438-.605.723-1.076.723-.308 0-.605-.124-.823-.343-3.186-3.197-8.342-3.197-11.528 0-.457.444-1.183.437-1.632-.014-.45-.452-.456-1.183-.015-1.642zm3.411 8.399c0-2.21 1.79-4 4-4s4 1.79 4 4-1.79 4-4 4-4-1.79-4-4zm2 0c0 1.105.895 2 2 2s2-.895 2-2-.895-2-2-2-2 .895-2 2z"/>
</svg>
