<svg xmlns="http://www.w3.org/2000/svg" width="27" height="27" viewBox="0 0 27 27">
    <path fill="#FFF" fill-rule="evenodd" d="M13.125 26.65c-5.716 0-10.777-3.7-12.507-9.148C-1.114 12.055.88 6.109 5.547 2.808c.476-.34 1.099-.398 1.634-.154.535.246.897.755.951 1.339.056.584-.205 1.153-.682 1.493-3.504 2.474-5.003 6.932-3.707 11.02 1.299 4.088 5.093 6.866 9.382 6.866 4.288 0 8.084-2.778 9.383-6.866 1.296-4.088-.203-8.548-3.707-11.02-.48-.34-.738-.909-.684-1.493.056-.584.418-1.094.951-1.339.533-.246 1.157-.185 1.636.154 4.666 3.301 6.66 9.245 4.929 14.694-1.734 5.447-6.791 9.148-12.508 9.148zm0-13.125c-.905 0-1.64-.735-1.64-1.64V2.04c0-.906.735-1.641 1.64-1.641.906 0 1.64.735 1.64 1.64v9.844c0 .906-.734 1.641-1.64 1.641z"/>
</svg>
