<svg xmlns="http://www.w3.org/2000/svg" width="24" height="26" viewBox="0 0 24 26">
    <path fill="#FFF" d="M21.504 6.824l1.456-1.427c.245-.246.245-.639 0-.885l-.915-.897c-.121-.12-.286-.186-.458-.186-.171 0-.336.067-.457.186L19.7 5.094c-1.355-1.079-2.94-1.843-4.638-2.237V1.303c0-.697-.577-1.263-1.288-1.263h-2.577c-.712 0-1.289.566-1.289 1.263v1.554C4.635 4.036.893 8.633.89 13.937c.07 6.125 5.02 11.123 11.26 11.37 4.515.12 8.69-2.344 10.697-6.311 2.008-3.968 1.484-8.717-1.343-12.172zm-9.019 15.957c-4.98 0-9.018-3.96-9.018-8.844 0-4.884 4.037-8.843 9.018-8.843 4.981 0 9.019 3.96 9.019 8.843 0 4.885-4.038 8.844-9.019 8.844zm.49-15.16h-.98c-.355 0-.644.282-.644.631v6.317c0 .349.289.632.645.632h.979c.356 0 .644-.283.644-.632V8.252c0-.349-.288-.632-.644-.632z"/>
</svg>
