<svg xmlns="http://www.w3.org/2000/svg" width="32" height="28" viewBox="0 0 32 28">
    <path fill="#FFF" d="M27.91 21.844l2.583 2.572H31.5v-2.572h-3.59zm.994-2.571l.013-12.857c0-1.427-1.163-2.572-2.584-2.572H9.826l6.755 6.725c.233-.052.465-.09.71-.129V7.701l5.167 4.796-2.04 1.89 7.155 7.123c.788-.424 1.33-1.273 1.33-2.237zM3.587.9L1.934 2.533l1.989 1.98c-.517.463-.84 1.144-.84 1.903v12.857c0 1.414 1.15 2.571 2.584 2.571H.5v2.572h23.418l3.5 3.484 1.64-1.633L3.589.9zm5.955 17.087c.4-1.903 1.188-3.793 2.673-5.22l2.054 2.044c-1.989.489-3.487 1.518-4.727 3.176z"/>
</svg>
