<svg xmlns="http://www.w3.org/2000/svg" width="31" height="31" viewBox="0 0 31 31">
    <path fill="#FFF" d="M24.5 18.4L11 4.677h10.5c1.657 0 3 1.365 3 3.05V12.3l4.065-4.132c.28-.282.656-.44 1.05-.443h.135c.414 0 .75.342.75.763v13.723c0 .421-.336.763-.75.763h-.135c-.394-.002-.77-.16-1.05-.443L24.5 18.4zm5.775 10.674l-.795.808c-.292.29-.758.29-1.05 0l-4.785-4.864c-.55.62-1.325.983-2.145 1.006h-18c-1.657 0-3-1.365-3-3.05V7.727c0-1.684 1.343-3.05 3-3.05l-2.34-2.47c-.145-.138-.227-.33-.227-.533 0-.202.082-.395.227-.534L2 .331C2.136.184 2.326.1 2.525.1s.389.084.525.231l27.225 27.721c.258.29.258.732 0 1.022zm-18-15.675l-2.52-2.44H5.75c-.414 0-.75.341-.75.762v1.16c0 .42.336.762.75.762h6c.171-.003.336-.068.465-.183l.06-.061z"/>
</svg>
