<svg xmlns="http://www.w3.org/2000/svg" xmlns:xlink="http://www.w3.org/1999/xlink" width="56.43" height="69.997" viewBox="0 0 56.43 69.997">
  <defs>
    <linearGradient id="linear-gradient" x1="1.087" y1="1.182" x2="0.332" y2="0.444" gradientUnits="objectBoundingBox">
      <stop offset="0" stop-color="#5899cf"/>
      <stop offset="1" stop-color="#19bdc1"/>
    </linearGradient>
    <clipPath id="clip-path">
      <path id="Path_4" data-name="Path 4" d="M51.67,25.25v3.27c-5.47,3.2-10,8.63-12.4,17.7a44.14,44.14,0,0,0,1.65,6.56,17.35,17.35,0,0,0-3.35,5.11,17.69,17.69,0,0,0-3.16-5.18,34.8,34.8,0,0,0,1.36-6.43A29.18,29.18,0,0,0,23.51,28.5V25.25C30.62,29.89,35.82,35.33,36.83,46c-.45-9.57-4.71-17.66-13.21-22.74l2.15-2.56c5.31,4.2,9.21,11,11,19.39-1.19-9-4.41-16.2-9.47-20.44l2.58-1.69c6.27,4.73,7.74,14,7.5,28h.38c-.29-14.84,1.6-23.95,7.42-28l2.69,1.83C42.71,24,39.25,30.92,38.28,40.22,40.89,29.28,44.87,23.59,49,20.7l2.28,2.54a26,26,0,0,0-13,22.69c.46-8.82,5.16-15.73,13.36-20.68ZM37.62,51a.87.87,0,0,1,.17,1.73l-.07,4.11h-.21l-.07-4.11A.87.87,0,0,1,37.62,51Z" fill="url(#linear-gradient)"/>
    </clipPath>
    <clipPath id="clip-path-2">
      <path id="Path_7" data-name="Path 7" d="M51.6,46l14.11-7.2V18.66c-13.83-22.18-44-20.96-56.33.2L9.31,38.92,23.58,46.2l.13-22.55c6.33-9.24,20.18-10.09,27.75.14Zm-.4,26.5L65.71,61V40.92l-8.78,4.47V63.65L55.23,65l.05-18.75-3.82,2v20.7h-28V48.12L20,46.36V65l-1.65-1.3V45.55l-9-4.63L9.28,61.05,23.58,72.5Zm-25.12-3v.57h0a.65.65,0,0,0-.09-.28.35.35,0,0,0-.13-.14.34.34,0,0,0-.17,0h-.12v1.61a.87.87,0,0,0,0,.2.19.19,0,0,0,.06.07.18.18,0,0,0,.11,0h-.78a.21.21,0,0,0,.12,0,.16.16,0,0,0,.05-.08.61.61,0,0,0,0-.19V69.65H25a.3.3,0,0,0-.25.09.62.62,0,0,0-.14.36h-.05v-.57Zm25.09,0v.06a.23.23,0,0,0-.13.06,1.27,1.27,0,0,0-.2.35l-.37.76v.5a.87.87,0,0,0,0,.2.19.19,0,0,0,.06.07.16.16,0,0,0,.11,0h-.82a.18.18,0,0,0,.11,0,.17.17,0,0,0,.06-.08.77.77,0,0,0,0-.19v-.42l-.4-.89a1.32,1.32,0,0,0-.17-.31.19.19,0,0,0-.13,0v-.06h.82v.06h0a.13.13,0,0,0-.1,0,.92.92,0,0,0,.1.28l.3.69.31-.63a.87.87,0,0,0,.12-.3.1.1,0,0,0,0-.07.26.26,0,0,0-.15,0v-.06Zm-1.93,0v.57h0a1.14,1.14,0,0,0-.09-.28.44.44,0,0,0-.13-.14.37.37,0,0,0-.17,0h-.13v1.61a.69.69,0,0,0,0,.2v.07a.21.21,0,0,0,.12,0h-.78a.21.21,0,0,0,.12,0,.16.16,0,0,0,0-.08.77.77,0,0,0,0-.19V69.65h-.12a.32.32,0,0,0-.25.09.7.7,0,0,0-.14.36h0v-.57Zm-1.68,2h-.83a.21.21,0,0,0,.12,0,.16.16,0,0,0,0-.08.77.77,0,0,0,0-.19V69.89a.87.87,0,0,0,0-.2.13.13,0,0,0-.06-.07.16.16,0,0,0-.11,0h-.06v-.06h.89v.06h-.05a.21.21,0,0,0-.12,0,.16.16,0,0,0,0,.08.61.61,0,0,0,0,.19v1.37a.69.69,0,0,0,0,.2v.07a.21.21,0,0,0,.12,0ZM46.4,69.49v.69h0a.73.73,0,0,0-.18-.42.38.38,0,0,0-.3-.16.273.273,0,0,0-.28.28.43.43,0,0,0,0,.12.53.53,0,0,0,.12.14,1.491,1.491,0,0,0,.27.18,1.38,1.38,0,0,1,.41.34.66.66,0,0,1,.1.37.68.68,0,0,1-.17.45.54.54,0,0,1-.42.18.39.39,0,0,1-.15,0,.6.6,0,0,1-.18-.07h-.17l-.06.09h0V70.9h0a.93.93,0,0,0,.22.5.43.43,0,0,0,.33.18.28.28,0,0,0,.23-.1.32.32,0,0,0,.08-.21.4.4,0,0,0,0-.15.38.38,0,0,0-.1-.13,1.64,1.64,0,0,0-.23-.16,1.77,1.77,0,0,1-.33-.24.69.69,0,0,1-.16-.22.75.75,0,0,1-.05-.26.64.64,0,0,1,.15-.43.48.48,0,0,1,.37-.17h.16l.15.07a.28.28,0,0,0,.12,0h0a.5.5,0,0,0,0-.12ZM44,70.67v.58a.5.5,0,0,0,0,.21.13.13,0,0,0,.06.07.28.28,0,0,0,.16,0h-.88a.28.28,0,0,0,.16,0,.13.13,0,0,0,.06-.07.78.78,0,0,0,0-.21V69.9a.78.78,0,0,0,0-.21.11.11,0,0,0-.06-.07.28.28,0,0,0-.16,0v-.06h.79a1.3,1.3,0,0,1,.46.06.47.47,0,0,1,.23.19.58.58,0,0,1,.09.33.51.51,0,0,1-.14.38.46.46,0,0,1-.24.14l.41.71a1.35,1.35,0,0,0,.12.17.17.17,0,0,0,.12,0h-.54l-.55-.94Zm0-1v.91h.07a.59.59,0,0,0,.26,0,.27.27,0,0,0,.14-.14.68.68,0,0,0,0-.27.56.56,0,0,0-.09-.35.35.35,0,0,0-.3-.11Zm-1.7,0v.85h0a.26.26,0,0,0,.23-.12.87.87,0,0,0,.09-.37h0V71.1h0a1,1,0,0,0-.06-.29.27.27,0,0,0-.11-.15.34.34,0,0,0-.19,0v.79a.18.18,0,0,0,.05.07h.21a.56.56,0,0,0,.38-.14.79.79,0,0,0,.2-.41h0l-.08.66H41.73a.21.21,0,0,0,.12,0,.16.16,0,0,0,0-.08.77.77,0,0,0,0-.19V69.72a.19.19,0,0,0,0-.09.25.25,0,0,0-.13,0h-.06v-.06H43.1v.62h-.05a.8.8,0,0,0-.1-.32.4.4,0,0,0-.19-.15.75.75,0,0,0-.26,0Zm-.73-.12v.06a.25.25,0,0,0-.16.12,1.64,1.64,0,0,0-.16.36l-.58,1.59h0L40.06,70a2.49,2.49,0,0,0-.14-.35.17.17,0,0,0-.13-.07v-.06h.81v.06h0a.28.28,0,0,0-.15,0,.09.09,0,0,0,0,.07v.07l.07.2.36,1,.34-.92a1,1,0,0,0,.07-.22.44.44,0,0,0,0-.1.19.19,0,0,0,0-.08.1.1,0,0,0-.06,0,.29.29,0,0,0-.14,0v-.06Zm-1.88,2H38.8a.21.21,0,0,0,.12,0,.16.16,0,0,0,0-.08.61.61,0,0,0,0-.19V69.89a.69.69,0,0,0,0-.2.18.18,0,0,0,0-.07.21.21,0,0,0-.12,0h0v-.06h.89v.06h-.06a.21.21,0,0,0-.12,0,.16.16,0,0,0-.05.08.77.77,0,0,0,0,.19v1.37a.87.87,0,0,0,0,.2.19.19,0,0,0,.06.07.16.16,0,0,0,.11,0Zm-2.16-2,.84,1.29v-.89a.47.47,0,0,0,0-.25.22.22,0,0,0-.2-.09v-.06h.56v.06a.49.49,0,0,0-.14,0,.2.2,0,0,0-.06.09.91.91,0,0,0,0,.21v1.73h0l-1.15-1.73v1.32a.35.35,0,0,0,.06.24.21.21,0,0,0,.16.07h-.61a.27.27,0,0,0,.2-.07.38.38,0,0,0,.06-.24V69.78h0a.37.37,0,0,0-.1-.11.17.17,0,0,0-.12,0v-.06Zm-2.44,0H36v.06h0a.24.24,0,0,0-.14,0,.13.13,0,0,0-.05.07.82.82,0,0,0,0,.22v1a1,1,0,0,0,0,.37.33.33,0,0,0,.11.15.32.32,0,0,0,.2.06.36.36,0,0,0,.23-.08.41.41,0,0,0,.15-.21,1.57,1.57,0,0,0,.05-.46v-.85a.49.49,0,0,0,0-.2.1.1,0,0,0-.06-.08.22.22,0,0,0-.15,0v-.06h.58v.06h0a.16.16,0,0,0-.12,0,.18.18,0,0,0-.07.1.68.68,0,0,0,0,.18v.79a2.3,2.3,0,0,1,0,.53.55.55,0,0,1-.19.3.6.6,0,0,1-.42.13.66.66,0,0,1-.34-.07.55.55,0,0,1-.23-.25,1.12,1.12,0,0,1-.07-.41v-1a1,1,0,0,0,0-.22.11.11,0,0,0-.06-.07.28.28,0,0,0-.15,0v-.06Zm-2,1.08v.65a.69.69,0,0,0,0,.2.15.15,0,0,0,0,.07.21.21,0,0,0,.12,0h-.78a.21.21,0,0,0,.12,0,.16.16,0,0,0,0-.08.77.77,0,0,0,0-.19V69.89a.87.87,0,0,0,0-.2.13.13,0,0,0-.06-.07.16.16,0,0,0-.11,0h-.06v-.06h.89v.06h.09a.21.21,0,0,0-.12,0,.16.16,0,0,0,0,.08.61.61,0,0,0,0,.19v.59h.6v-.59a.87.87,0,0,0,0-.2.13.13,0,0,0-.06-.07.18.18,0,0,0-.11,0h-.06v-.06h.89v.06h0a.21.21,0,0,0-.12,0,.16.16,0,0,0,0,.08.61.61,0,0,0,0,.19v1.37a.69.69,0,0,0,0,.2.15.15,0,0,0,0,.07.21.21,0,0,0,.12,0h-.83a.21.21,0,0,0,.12,0,.16.16,0,0,0,.05-.08.77.77,0,0,0,0-.19v-.65ZM31.62,71H31l-.07.21a.62.62,0,0,0,0,.16.15.15,0,0,0,.06.13.37.37,0,0,0,.17,0h-.57a.24.24,0,0,0,.15-.09,1.64,1.64,0,0,0,.15-.32l.61-1.66h0l.62,1.71a.83.83,0,0,0,.14.3.23.23,0,0,0,.12.06h-.82a.18.18,0,0,0,.14,0,.08.08,0,0,0,0-.07h0a.48.48,0,0,0,0-.12Zm0-.11-.25-.72-.27.72Zm-1.6-.4a.76.76,0,0,1,.34.17.45.45,0,0,1,.14.36.53.53,0,0,1-.15.39.78.78,0,0,1-.55.18h-.87a.3.3,0,0,0,.16,0,.13.13,0,0,0,.06-.07.78.78,0,0,0,0-.21V69.9a.78.78,0,0,0,0-.21.11.11,0,0,0-.06-.07.3.3,0,0,0-.16,0v-.06h.82a1,1,0,0,1,.41.07.39.39,0,0,1,.19.19.524.524,0,0,1-.01.54.64.64,0,0,1-.32.18Zm-.46,0a.62.62,0,0,0,.27,0,.35.35,0,0,0,.13-.14.48.48,0,0,0,0-.22.5.5,0,0,0,0-.23.27.27,0,0,0-.13-.13.46.46,0,0,0-.27,0v.82Zm0,.12v.74a.17.17,0,0,0,0,.13.11.11,0,0,0,.1,0,.41.41,0,0,0,.19,0,.53.53,0,0,0,.13-.16.59.59,0,0,0,0-.23A.67.67,0,0,0,30,70.8a.38.38,0,0,0-.16-.17.71.71,0,0,0-.29,0Zm-.74,1H28a.2.2,0,0,0,.11,0,.11.11,0,0,0,.05-.08.61.61,0,0,0,0-.19V69.89a.69.69,0,0,0,0-.2l-.05-.07a.2.2,0,0,0-.11,0h-.06v-.06h.89v.06h-.06a.21.21,0,0,0-.12,0,.16.16,0,0,0-.05.08.77.77,0,0,0,0,.19v1.37a.87.87,0,0,0,0,.2.19.19,0,0,0,.06.07.18.18,0,0,0,.11,0ZM27.05,71h-.6l-.07.21a.37.37,0,0,0,0,.16.15.15,0,0,0,.06.13.37.37,0,0,0,.17,0H26a.24.24,0,0,0,.15-.09,1.64,1.64,0,0,0,.15-.32l.61-1.66h0l.61,1.71a1,1,0,0,0,.15.3.23.23,0,0,0,.12.06H27a.2.2,0,0,0,.14,0,.08.08,0,0,0,0-.07h0v-.12Zm0-.11-.26-.72-.26.72ZM14.61,60.8,13,59.66V47l1.57.84V60.77Zm45.83,0,1.75-1.37V47.17L60.42,48V60.79ZM20.05,39.9l-1.8-.9.09-17c9.43-15,29.43-14,38.5-.1v17l-1.62.85V23.11C44.78,7.44,26.64,11.37,20,23l.08,16.94Zm-5.44-2.83L13,36.28V19.81C23.2,2.15,49.63.5,62.23,19.81V36.26l-1.65.86V20.89C49.67,3.1,25.26,3.57,14.68,20.92l-.07,16.15Z" fill="url(#linear-gradient)"/>
    </clipPath>
  </defs>
  <g id="_1-3-10-2019-5d9587e23b1f7" data-name="1-3-10-2019-5d9587e23b1f7" transform="translate(-9.28 -2.503)">
    <path id="Path_3" data-name="Path 3" d="M51.67,25.25v3.27c-5.47,3.2-10,8.63-12.4,17.7a44.14,44.14,0,0,0,1.65,6.56,17.35,17.35,0,0,0-3.35,5.11,17.69,17.69,0,0,0-3.16-5.18,34.8,34.8,0,0,0,1.36-6.43A29.18,29.18,0,0,0,23.51,28.5V25.25C30.62,29.89,35.82,35.33,36.83,46c-.45-9.57-4.71-17.66-13.21-22.74l2.15-2.56c5.31,4.2,9.21,11,11,19.39-1.19-9-4.41-16.2-9.47-20.44l2.58-1.69c6.27,4.73,7.74,14,7.5,28h.38c-.29-14.84,1.6-23.95,7.42-28l2.69,1.83C42.71,24,39.25,30.92,38.28,40.22,40.89,29.28,44.87,23.59,49,20.7l2.28,2.54a26,26,0,0,0-13,22.69c.46-8.82,5.16-15.73,13.36-20.68ZM37.62,51a.87.87,0,0,1,.17,1.73l-.07,4.11h-.21l-.07-4.11A.87.87,0,0,1,37.62,51Z" fill-rule="evenodd" fill="url(#linear-gradient)"/>
    <g id="Group_5" data-name="Group 5" clip-path="url(#clip-path)">
      <rect id="Rectangle_247" data-name="Rectangle 247" width="28.16" height="39.97" rx="5" transform="translate(23.51 17.92)" fill="url(#linear-gradient)"/>
    </g>
    <path id="Path_5" data-name="Path 5" d="M50.48,67.44c-5.28.87-9.35-7.23-13,0-3.38-6.94-7.17.46-12.85,0l-.26.87H50.75Zm-19.32-.53h0a2.28,2.28,0,0,1,.1.7c0,.21,0,.32-.09.32h-.05a.68.68,0,0,1,0-.13.68.68,0,0,0,0-.14,3.38,3.38,0,0,0-.31-.93,1.08,1.08,0,0,0-.08-.13.41.41,0,0,1-.07-.12.51.51,0,0,1,.07-.14l.09-.16a.56.56,0,0,1,.13.12l.12.14h.07a.27.27,0,0,0,.22-.07.5.5,0,0,0,.09-.12.1.1,0,0,1,.09-.07.3.3,0,0,1,0,.15C31.49,66.66,31.38,66.87,31.16,66.91Zm1.14.55-.36-.24.13-.49.36.24Zm1.15,0-.36-.24.13-.49.36.24Zm1.59-.8c-.06.13-.13.19-.22.19a.34.34,0,0,1-.15,0h-.09a1,1,0,0,1-.17.12,3.09,3.09,0,0,1,.07.66c0,.23,0,.34-.09.34s-.08-.06-.1-.19a2.459,2.459,0,0,0,0-.26,1.76,1.76,0,0,0-.11-.4,2.58,2.58,0,0,0-.16-.39l-.05-.09a.28.28,0,0,1,0-.07.7.7,0,0,1,.08-.16.85.85,0,0,1,.1-.15l.15.17c.08.08.13.12.17.12s.1-.06.17-.17.12-.18.14-.18h0a.61.61,0,0,0,0,.15.12.12,0,0,0,.12.06s.06,0,.09-.1.06-.1.08-.1.06,0,.06.11a.92.92,0,0,1-.13.34Zm5.55,1.27a1.2,1.2,0,0,1-.1-.33c-.04-.22-.06-.28-.08-.41a3.1,3.1,0,0,0-.27-.6h0a1.26,1.26,0,0,1,.06-.24q.06-.18.09-.18s.05,0,.09.09a2.52,2.52,0,0,1,.31,1.25C40.69,67.78,40.66,67.93,40.59,67.93Zm1.28,0h0a1,1,0,0,1-.38-.09c-.16-.07-.24-.15-.24-.25a.53.53,0,0,1,.1-.27l.16-.23L41.39,67a.78.78,0,0,1-.16-.15v-.06a.69.69,0,0,1,.2-.43.55.55,0,0,1,.39-.25l-.06.35a.51.51,0,0,0-.21.09h0a.5.5,0,0,0,.15.11.89.89,0,0,1,.18.1h0a.46.46,0,0,1-.15.28,1,1,0,0,0-.18.25.9.9,0,0,0,.22.11l.24.07h0a2.11,2.11,0,0,1-.14.45Zm1-1h0a2.28,2.28,0,0,1,.1.7c0,.21,0,.32-.09.32h0a.33.33,0,0,1,0-.13s0-.09,0-.14a3.73,3.73,0,0,0-.32-.93l-.09-.13-.07-.12a.51.51,0,0,1,.07-.14l.09-.16a.54.54,0,0,1,.14.12l.12.14h.07a.31.31,0,0,0,.24-.07s0-.06.09-.12a.09.09,0,0,1,.09-.07.3.3,0,0,1,0,.15c-.06.31-.17.52-.4.56Zm1.34,1h0a.87.87,0,0,1-.37-.09c-.17-.07-.25-.15-.25-.25a.65.65,0,0,1,.1-.27,2,2,0,0,0,.17-.23L43.75,67a.47.47,0,0,1-.16-.15v-.06a.67.67,0,0,1,.19-.43.55.55,0,0,1,.39-.25l-.05.35a.5.5,0,0,0-.22.09h0s0,.06.15.11l.17.1a.43.43,0,0,1-.14.28.65.65,0,0,0-.18.25.75.75,0,0,0,.22.11l.23.07h0a2.71,2.71,0,0,1-.1.45Z" fill-rule="evenodd" fill="url(#linear-gradient)"/>
    <path id="Path_6" data-name="Path 6" d="M51.6,46l14.11-7.2V18.66c-13.83-22.18-44-20.96-56.33.2L9.31,38.92,23.58,46.2l.13-22.55c6.33-9.24,20.18-10.09,27.75.14Zm-.4,26.5L65.71,61V40.92l-8.78,4.47V63.65L55.23,65l.05-18.75-3.82,2v20.7h-28V48.12L20,46.36V65l-1.65-1.3V45.55l-9-4.63L9.28,61.05,23.58,72.5Zm-25.12-3v.57h0a.65.65,0,0,0-.09-.28.35.35,0,0,0-.13-.14.34.34,0,0,0-.17,0h-.12v1.61a.87.87,0,0,0,0,.2.19.19,0,0,0,.06.07.18.18,0,0,0,.11,0h-.78a.21.21,0,0,0,.12,0,.16.16,0,0,0,.05-.08.61.61,0,0,0,0-.19V69.65H25a.3.3,0,0,0-.25.09.62.62,0,0,0-.14.36h-.05v-.57Zm25.09,0v.06a.23.23,0,0,0-.13.06,1.27,1.27,0,0,0-.2.35l-.37.76v.5a.87.87,0,0,0,0,.2.19.19,0,0,0,.06.07.16.16,0,0,0,.11,0h-.82a.18.18,0,0,0,.11,0,.17.17,0,0,0,.06-.08.77.77,0,0,0,0-.19v-.42l-.4-.89a1.32,1.32,0,0,0-.17-.31.19.19,0,0,0-.13,0v-.06h.82v.06h0a.13.13,0,0,0-.1,0,.92.92,0,0,0,.1.28l.3.69.31-.63a.87.87,0,0,0,.12-.3.1.1,0,0,0,0-.07.26.26,0,0,0-.15,0v-.06Zm-1.93,0v.57h0a1.14,1.14,0,0,0-.09-.28.44.44,0,0,0-.13-.14.37.37,0,0,0-.17,0h-.13v1.61a.69.69,0,0,0,0,.2v.07a.21.21,0,0,0,.12,0h-.78a.21.21,0,0,0,.12,0,.16.16,0,0,0,0-.08.77.77,0,0,0,0-.19V69.65h-.12a.32.32,0,0,0-.25.09.7.7,0,0,0-.14.36h0v-.57Zm-1.68,2h-.83a.21.21,0,0,0,.12,0,.16.16,0,0,0,0-.08.77.77,0,0,0,0-.19V69.89a.87.87,0,0,0,0-.2.13.13,0,0,0-.06-.07.16.16,0,0,0-.11,0h-.06v-.06h.89v.06h-.05a.21.21,0,0,0-.12,0,.16.16,0,0,0,0,.08.61.61,0,0,0,0,.19v1.37a.69.69,0,0,0,0,.2v.07a.21.21,0,0,0,.12,0ZM46.4,69.49v.69h0a.73.73,0,0,0-.18-.42.38.38,0,0,0-.3-.16.273.273,0,0,0-.28.28.43.43,0,0,0,0,.12.53.53,0,0,0,.12.14,1.491,1.491,0,0,0,.27.18,1.38,1.38,0,0,1,.41.34.66.66,0,0,1,.1.37.68.68,0,0,1-.17.45.54.54,0,0,1-.42.18.39.39,0,0,1-.15,0,.6.6,0,0,1-.18-.07h-.17l-.06.09h0V70.9h0a.93.93,0,0,0,.22.5.43.43,0,0,0,.33.18.28.28,0,0,0,.23-.1.32.32,0,0,0,.08-.21.4.4,0,0,0,0-.15.38.38,0,0,0-.1-.13,1.64,1.64,0,0,0-.23-.16,1.77,1.77,0,0,1-.33-.24.69.69,0,0,1-.16-.22.75.75,0,0,1-.05-.26.64.64,0,0,1,.15-.43.48.48,0,0,1,.37-.17h.16l.15.07a.28.28,0,0,0,.12,0h0a.5.5,0,0,0,0-.12ZM44,70.67v.58a.5.5,0,0,0,0,.21.13.13,0,0,0,.06.07.28.28,0,0,0,.16,0h-.88a.28.28,0,0,0,.16,0,.13.13,0,0,0,.06-.07.78.78,0,0,0,0-.21V69.9a.78.78,0,0,0,0-.21.11.11,0,0,0-.06-.07.28.28,0,0,0-.16,0v-.06h.79a1.3,1.3,0,0,1,.46.06.47.47,0,0,1,.23.19.58.58,0,0,1,.09.33.51.51,0,0,1-.14.38.46.46,0,0,1-.24.14l.41.71a1.35,1.35,0,0,0,.12.17.17.17,0,0,0,.12,0h-.54l-.55-.94Zm0-1v.91h.07a.59.59,0,0,0,.26,0,.27.27,0,0,0,.14-.14.68.68,0,0,0,0-.27.56.56,0,0,0-.09-.35.35.35,0,0,0-.3-.11Zm-1.7,0v.85h0a.26.26,0,0,0,.23-.12.87.87,0,0,0,.09-.37h0V71.1h0a1,1,0,0,0-.06-.29.27.27,0,0,0-.11-.15.34.34,0,0,0-.19,0v.79a.18.18,0,0,0,.05.07h.21a.56.56,0,0,0,.38-.14.79.79,0,0,0,.2-.41h0l-.08.66H41.73a.21.21,0,0,0,.12,0,.16.16,0,0,0,0-.08.77.77,0,0,0,0-.19V69.72a.19.19,0,0,0,0-.09.25.25,0,0,0-.13,0h-.06v-.06H43.1v.62h-.05a.8.8,0,0,0-.1-.32.4.4,0,0,0-.19-.15.75.75,0,0,0-.26,0Zm-.73-.12v.06a.25.25,0,0,0-.16.12,1.64,1.64,0,0,0-.16.36l-.58,1.59h0L40.06,70a2.49,2.49,0,0,0-.14-.35.17.17,0,0,0-.13-.07v-.06h.81v.06h0a.28.28,0,0,0-.15,0,.09.09,0,0,0,0,.07v.07l.07.2.36,1,.34-.92a1,1,0,0,0,.07-.22.44.44,0,0,0,0-.1.19.19,0,0,0,0-.08.1.1,0,0,0-.06,0,.29.29,0,0,0-.14,0v-.06Zm-1.88,2H38.8a.21.21,0,0,0,.12,0,.16.16,0,0,0,0-.08.61.61,0,0,0,0-.19V69.89a.69.69,0,0,0,0-.2.18.18,0,0,0,0-.07.21.21,0,0,0-.12,0h0v-.06h.89v.06h-.06a.21.21,0,0,0-.12,0,.16.16,0,0,0-.05.08.77.77,0,0,0,0,.19v1.37a.87.87,0,0,0,0,.2.19.19,0,0,0,.06.07.16.16,0,0,0,.11,0Zm-2.16-2,.84,1.29v-.89a.47.47,0,0,0,0-.25.22.22,0,0,0-.2-.09v-.06h.56v.06a.49.49,0,0,0-.14,0,.2.2,0,0,0-.06.09.91.91,0,0,0,0,.21v1.73h0l-1.15-1.73v1.32a.35.35,0,0,0,.06.24.21.21,0,0,0,.16.07h-.61a.27.27,0,0,0,.2-.07.38.38,0,0,0,.06-.24V69.78h0a.37.37,0,0,0-.1-.11.17.17,0,0,0-.12,0v-.06Zm-2.44,0H36v.06h0a.24.24,0,0,0-.14,0,.13.13,0,0,0-.05.07.82.82,0,0,0,0,.22v1a1,1,0,0,0,0,.37.33.33,0,0,0,.11.15.32.32,0,0,0,.2.06.36.36,0,0,0,.23-.08.41.41,0,0,0,.15-.21,1.57,1.57,0,0,0,.05-.46v-.85a.49.49,0,0,0,0-.2.1.1,0,0,0-.06-.08.22.22,0,0,0-.15,0v-.06h.58v.06h0a.16.16,0,0,0-.12,0,.18.18,0,0,0-.07.1.68.68,0,0,0,0,.18v.79a2.3,2.3,0,0,1,0,.53.55.55,0,0,1-.19.3.6.6,0,0,1-.42.13.66.66,0,0,1-.34-.07.55.55,0,0,1-.23-.25,1.12,1.12,0,0,1-.07-.41v-1a1,1,0,0,0,0-.22.11.11,0,0,0-.06-.07.28.28,0,0,0-.15,0v-.06Zm-2,1.08v.65a.69.69,0,0,0,0,.2.15.15,0,0,0,0,.07.21.21,0,0,0,.12,0h-.78a.21.21,0,0,0,.12,0,.16.16,0,0,0,0-.08.77.77,0,0,0,0-.19V69.89a.87.87,0,0,0,0-.2.13.13,0,0,0-.06-.07.16.16,0,0,0-.11,0h-.06v-.06h.89v.06h.09a.21.21,0,0,0-.12,0,.16.16,0,0,0,0,.08.61.61,0,0,0,0,.19v.59h.6v-.59a.87.87,0,0,0,0-.2.13.13,0,0,0-.06-.07.18.18,0,0,0-.11,0h-.06v-.06h.89v.06h0a.21.21,0,0,0-.12,0,.16.16,0,0,0,0,.08.61.61,0,0,0,0,.19v1.37a.69.69,0,0,0,0,.2.15.15,0,0,0,0,.07.21.21,0,0,0,.12,0h-.83a.21.21,0,0,0,.12,0,.16.16,0,0,0,.05-.08.77.77,0,0,0,0-.19v-.65ZM31.62,71H31l-.07.21a.62.62,0,0,0,0,.16.15.15,0,0,0,.06.13.37.37,0,0,0,.17,0h-.57a.24.24,0,0,0,.15-.09,1.64,1.64,0,0,0,.15-.32l.61-1.66h0l.62,1.71a.83.83,0,0,0,.14.3.23.23,0,0,0,.12.06h-.82a.18.18,0,0,0,.14,0,.08.08,0,0,0,0-.07h0a.48.48,0,0,0,0-.12Zm0-.11-.25-.72-.27.72Zm-1.6-.4a.76.76,0,0,1,.34.17.45.45,0,0,1,.14.36.53.53,0,0,1-.15.39.78.78,0,0,1-.55.18h-.87a.3.3,0,0,0,.16,0,.13.13,0,0,0,.06-.07.78.78,0,0,0,0-.21V69.9a.78.78,0,0,0,0-.21.11.11,0,0,0-.06-.07.3.3,0,0,0-.16,0v-.06h.82a1,1,0,0,1,.41.07.39.39,0,0,1,.19.19.524.524,0,0,1-.01.54.64.64,0,0,1-.32.18Zm-.46,0a.62.62,0,0,0,.27,0,.35.35,0,0,0,.13-.14.48.48,0,0,0,0-.22.5.5,0,0,0,0-.23.27.27,0,0,0-.13-.13.46.46,0,0,0-.27,0v.82Zm0,.12v.74a.17.17,0,0,0,0,.13.11.11,0,0,0,.1,0,.41.41,0,0,0,.19,0,.53.53,0,0,0,.13-.16.59.59,0,0,0,0-.23A.67.67,0,0,0,30,70.8a.38.38,0,0,0-.16-.17.71.71,0,0,0-.29,0Zm-.74,1H28a.2.2,0,0,0,.11,0,.11.11,0,0,0,.05-.08.61.61,0,0,0,0-.19V69.89a.69.69,0,0,0,0-.2l-.05-.07a.2.2,0,0,0-.11,0h-.06v-.06h.89v.06h-.06a.21.21,0,0,0-.12,0,.16.16,0,0,0-.05.08.77.77,0,0,0,0,.19v1.37a.87.87,0,0,0,0,.2.19.19,0,0,0,.06.07.18.18,0,0,0,.11,0ZM27.05,71h-.6l-.07.21a.37.37,0,0,0,0,.16.15.15,0,0,0,.06.13.37.37,0,0,0,.17,0H26a.24.24,0,0,0,.15-.09,1.64,1.64,0,0,0,.15-.32l.61-1.66h0l.61,1.71a1,1,0,0,0,.15.3.23.23,0,0,0,.12.06H27a.2.2,0,0,0,.14,0,.08.08,0,0,0,0-.07h0v-.12Zm0-.11-.26-.72-.26.72ZM14.61,60.8,13,59.66V47l1.57.84V60.77Zm45.83,0,1.75-1.37V47.17L60.42,48V60.79ZM20.05,39.9l-1.8-.9.09-17c9.43-15,29.43-14,38.5-.1v17l-1.62.85V23.11C44.78,7.44,26.64,11.37,20,23l.08,16.94Zm-5.44-2.83L13,36.28V19.81C23.2,2.15,49.63.5,62.23,19.81V36.26l-1.65.86V20.89C49.67,3.1,25.26,3.57,14.68,20.92l-.07,16.15Z" fill-rule="evenodd" fill="url(#linear-gradient)"/>
    <g id="Group_6" data-name="Group 6" clip-path="url(#clip-path-2)">
      <rect id="Rectangle_248" data-name="Rectangle 248" width="56.43" height="76.02" rx="5" transform="translate(9.28 -3.52)" fill="url(#linear-gradient)"/>
    </g>
    <path id="Path_8" data-name="Path 8" d="M36.5,62.39a2.161,2.161,0,0,0-1.36.83,5.78,5.78,0,0,0,.65-.06,5.25,5.25,0,0,0,1.34-.38A.8.8,0,0,0,36.5,62.39Z" fill-rule="evenodd" fill="url(#linear-gradient)"/>
    <path id="Path_9" data-name="Path 9" d="M37.46,67.36V64.09c-.09.19-.2.28-.33.28a.51.51,0,0,1-.41-.29,1.48,1.48,0,0,1-.19-.72,7.507,7.507,0,0,1-.92.18c-.36.06-1.16.2-1.24-.4a1.38,1.38,0,0,1-.2.32c-.3.29-1.47.11-1.69,0a.43.43,0,0,1-.28-.41,1.07,1.07,0,0,1-.19.32.82.82,0,0,1-1.05-.07,1.53,1.53,0,0,1-.2-.3c-.05-.1-.11-.15-.16-.15a.623.623,0,0,0-.3.18,1.15,1.15,0,0,0-.25.33l-.24.62c-.09.19-.19.29-.31.3A.46.46,0,0,1,29,64a1.45,1.45,0,0,1-.18-.76,2.59,2.59,0,0,1,.05-.49c0-.07,0-.11.05-.11s0,0,0,.12A2.09,2.09,0,0,1,29,63v.17a1.19,1.19,0,0,0,.1.49q.11.31.3.3a.36.36,0,0,0,.27-.22c.07-.16.13-.32.19-.48a2.2,2.2,0,0,1,.34-.57.67.67,0,0,1,.43-.27c.07,0,.14,0,.22.16a2.33,2.33,0,0,0,.2.31A.86.86,0,0,0,32,63a.26.26,0,0,0,0-.1l.07-.12c.09-.12.14-.15.14-.08a.52.52,0,0,1,0,.11.63.63,0,0,0,0,.09.46.46,0,0,0,.16.14,3.27,3.27,0,0,0,1.69.06.48.48,0,0,0,.08-.12l.07-.13c.09-.12.14-.14.14-.07a.44.44,0,0,1,0,.1.69.69,0,0,0,0,.1.64.64,0,0,0,.53.25L35.1,63v-.14a2.41,2.41,0,0,0,.07-.42c0-.26,0-.85,0-1.78v-.83a1.07,1.07,0,0,0,0-.16,1.74,1.74,0,0,1,.15-.35h0s.05,0,.07.13l.12.39a1.14,1.14,0,0,1,.08.36h0a.86.86,0,0,1-.13-.16s0,.28,0,.71a12.549,12.549,0,0,1,0,1.35.49.49,0,0,1,0,.12,1.85,1.85,0,0,1-.2.67,4.74,4.74,0,0,1,.75-.64,1.09,1.09,0,0,1,.68-.25.88.88,0,0,1,.53.22.56.56,0,0,1,.17.22.33.33,0,0,1,0,.14.63.63,0,0,1-.24.45,2.7,2.7,0,0,1-.53.23,1.34,1.34,0,0,0,.1.43c.08.21.18.31.32.31a.32.32,0,0,0,.28-.19l.15-.35V61.32h-.1l.14-.11V60.14l-.65.23c-.24.09-.56.22-1,.4v-.2c.19-.09.51-.22,1-.4l.64-.23v-.62c-1.87-4.47-4.35.4-7.83-.69l-4.88,8.81c5.62.41,9.39-6.85,12.75-.08ZM31,62a.67.67,0,0,1-.13.17L30.72,62a.37.37,0,0,1-.11-.11.928.928,0,0,1-.05.1.58.58,0,0,1-.13.16L30.24,62c-.09-.07-.13-.13-.13-.16a.61.61,0,0,1,.09-.14c.06-.09.09-.13.11-.13a1.3,1.3,0,0,1,.3.25.72.72,0,0,0,.07-.11c.06-.08.09-.13.11-.12.22.15.32.24.32.28A.59.59,0,0,1,31,62Zm3.33-1.09.05-.06h0l-.1.26a.31.31,0,0,1,.25.1.39.39,0,0,1,.13.31.44.44,0,0,1-.15.32.45.45,0,0,1-.31.13c-.15,0-.22-.09-.22-.28a1.17,1.17,0,0,1,.1-.43l.14-.25s.07.1.15-.07Zm-.15-.46v.21L33,61.1l-1.56.58v-.2L33,60.89Zm-5,.49c.34-.16.91-.4,1.71-.74l1.34-.53v.2l-1.34.53c-.42.17-1,.42-1.72.74Zm3.09,3.43L32,64.23c-.05,0-.08-.06-.08-.09a.9.9,0,0,1,.1-.35,2.11,2.11,0,0,0,.27.16q.15.06.15.12a.48.48,0,0,1-.17.33Zm2.62-.17a.67.67,0,0,1-.13.17l-.2-.16-.1-.11a.36.36,0,0,0-.05.09.58.58,0,0,1-.13.16l-.2-.16c-.09-.07-.13-.13-.12-.16a1,1,0,0,1,.09-.14c.05-.09.09-.13.11-.12a1.64,1.64,0,0,1,.3.24l.07-.11c.06-.08.09-.12.11-.12.22.15.32.24.31.28a.3.3,0,0,1-.06.17Z" fill-rule="evenodd" fill="url(#linear-gradient)"/>
    <path id="Path_10" data-name="Path 10" d="M34.61,61.66c-.08-.18-.19-.26-.36-.23a.22.22,0,0,0,0,.18.42.42,0,0,0,.09.15,1.31,1.31,0,0,0,.27-.1Z" fill-rule="evenodd" fill="url(#linear-gradient)"/>
    <path id="Path_11" data-name="Path 11" d="M44.17,62.84H44a.35.35,0,0,0-.18.11.31.31,0,0,0-.09.17,2.76,2.76,0,0,0,.25.52,4.74,4.74,0,0,0,1.49-.52,3.649,3.649,0,0,1-.61-.16,2.56,2.56,0,0,0-.69-.12Z" fill-rule="evenodd" fill="url(#linear-gradient)"/>
    <path id="Path_12" data-name="Path 12" d="M45.61,58.63c-3.62,1.2-5.58-4.05-8.06.71v1.78l.31-.24a2.36,2.36,0,0,0,.6-.57l-.18-.13a.22.22,0,0,1-.07-.21.42.42,0,0,1,.11-.21c.08-.1.15-.14.2-.14a.294.294,0,0,1,.21.29.53.53,0,0,1-.06.23,1,1,0,0,1,.17.14.17.17,0,0,1,0,.14s0,.06-.06,0a1.08,1.08,0,0,1-.21-.11,2.81,2.81,0,0,1-.63.63,3.578,3.578,0,0,1-.38.27v.49h0c.06-.09.09-.13.11-.13a1.3,1.3,0,0,1,.3.25.721.721,0,0,0,.07-.11c.06-.08.09-.13.11-.12.22.15.32.24.31.28a.3.3,0,0,1-.06.14.67.67,0,0,1-.13.17L38.09,62a.37.37,0,0,1-.11-.11.929.929,0,0,1,0,.1.58.58,0,0,1-.13.16L37.61,62h-.06v1.25a1.92,1.92,0,0,1,.27-.39.65.65,0,0,1,.44-.24c.07,0,.15.07.23.19s.19.3.21.32a1,1,0,0,0,1.09.18,2.16,2.16,0,0,0,.36-.19.9.9,0,0,0-.43-.23.53.53,0,0,0-.23.06h0a2.52,2.52,0,0,1,.12-.29l.07-.07a1.9,1.9,0,0,1,1.63,0v.06l-.12.3-.47.2.22.13a.78.78,0,0,0,.71.06.74.74,0,0,0,.26-.27c.1-.15.16-.22.18-.22h0q.2-.36.42-.36c.12,0,.21.08.28.22a1.28,1.28,0,0,1,.08.47.66.66,0,0,1-.06.27c-.05.09-.11.13-.17.13a.79.79,0,0,1-.32-.1,1,1,0,0,1-.36-.27,2.47,2.47,0,0,1-.22.33c-.44.5-.93.08-1.37-.24l-.52.29a1,1,0,0,1-1.31-.08,1.83,1.83,0,0,1-.2-.32c-.06-.1-.11-.16-.17-.16a.371.371,0,0,0-.31.15,1,1,0,0,0-.26.32l-.08.18v3.76h0c3.62-7.16,7.67.87,12.93,0Zm-3.17,1.69-1.63.59c-.5.19-1.2.46-2.09.82v-.21l2.08-.82,1.63-.59Zm1.3.23L44.87,60l.89-.4v.2l-.89.41c-.28.13-.66.33-1.14.59Zm1.62,3.75c0,.09,0,.14-.08.14a.46.46,0,0,1-.18-.07c-.09-.05-.13-.07-.14-.09s0,0,0-.06L45,64v-.05h.05l.25.11h0v.06Zm.88-1.24c0,.11-.05.17-.07.17a2.27,2.27,0,0,0-.84.31,5.08,5.08,0,0,1-1.26.48.39.39,0,0,1,0,.21h0v-.09a.89.89,0,0,0,0-.14c-.39.07-.61-.16-.74-.6a4.88,4.88,0,0,1-.09-1,9.621,9.621,0,0,0-.08-1.55,3.349,3.349,0,0,0-.1-.58.871.871,0,0,0-.07-.36c0-.01.07-.19.11-.32h0a1.484,1.484,0,0,1,.17.44,5.43,5.43,0,0,1,.12.76q0,.64.06,1.32v.73a1.64,1.64,0,0,0,.09.47c.06.14.17.4.35.35a1.64,1.64,0,0,1-.18-.49.72.72,0,0,1,.16-.5.59.59,0,0,1,.45-.23,3.56,3.56,0,0,1,.86.18,10.33,10.33,0,0,0,1.19.25A.363.363,0,0,0,46.24,63.06Z" fill-rule="evenodd" fill="url(#linear-gradient)"/>
    <path id="Path_13" data-name="Path 13" d="M40.82,62.75a1.07,1.07,0,0,0-.56,0l.21.19Z" fill-rule="evenodd" fill="url(#linear-gradient)"/>
    <path id="Path_14" data-name="Path 14" d="M38.49,59.85a.08.08,0,0,0-.1.07s0,.11.18.19a.22.22,0,0,0,0-.08Q38.6,59.85,38.49,59.85Z" fill-rule="evenodd" fill="url(#linear-gradient)"/>
    <path id="Path_15" data-name="Path 15" d="M42.62,63.11a.48.48,0,0,0-.06-.18.14.14,0,0,0-.12-.08.24.24,0,0,0-.18.06l.14.12a.39.39,0,0,0,.22.08Z" fill-rule="evenodd" fill="url(#linear-gradient)"/>
  </g>
</svg>
