<svg xmlns="http://www.w3.org/2000/svg" width="45" height="45" viewBox="0 0 45 45">
  <path id="close-with-circle" d="M36.35,20.05,28.9,27.5l7.4,7.4a.967.967,0,0,1,0,1.4.967.967,0,0,1-1.4,0l-7.4-7.4-7.45,7.45a.967.967,0,0,1-1.4,0,.967.967,0,0,1,0-1.4L26.1,27.5l-7.45-7.45a.99.99,0,0,1,1.4-1.4L27.5,26.1l7.45-7.45a.99.99,0,1,1,1.4,1.4ZM50,27.5A22.5,22.5,0,1,1,27.5,5,22.534,22.534,0,0,1,50,27.5Zm-2,0A20.5,20.5,0,1,0,27.5,48,20.528,20.528,0,0,0,48,27.5Z" transform="translate(-5 -5)" fill="#254a5d"/>
</svg>
