<svg xmlns="http://www.w3.org/2000/svg" xmlns:xlink="http://www.w3.org/1999/xlink" width="71.893" height="60.981" viewBox="0 0 71.893 60.981">
  <defs>
    <linearGradient id="linear-gradient" x1="1.087" y1="1.182" x2="0.332" y2="0.444" gradientUnits="objectBoundingBox">
      <stop offset="0" stop-color="#5899cf"/>
      <stop offset="1" stop-color="#19bdc1"/>
    </linearGradient>
  </defs>
  <g id="DMM" transform="translate(-1.508 -7.833)">
    <path id="Path_16" data-name="Path 16" d="M43.9,42.6c-.1-.6-.7-.9-1-1.2-2.4-2.1-4.6-4.5-6.9-6.8a1.128,1.128,0,0,0-1.1-.3,51.182,51.182,0,0,1-5.6,1.5c-.9.2-.9.3-.3,1L46.7,54.5c.5.5.5.8,0,1.3-1.2,1.1-2.4,2.3-3.5,3.5-.4.5-.7.5-1.1,0-6.8-6.9-13.7-13.7-20.5-20.6a1.24,1.24,0,0,0-1.5-.4c-1.7.5-3.4.9-5.2,1.4-1,.3-1.1.5-.3,1.2L37.4,63.7c.6.6.6.9,0,1.4q-1.8,1.65-3.3,3.3c-.5.5-.7.6-1.3,0L10.2,45.8C7.6,43,4.8,40.2,2,37.4c-.7-.7-.7-.9.3-1.1L14.9,33c.6-.2.7-.3.2-.9-2.8-2.8-5.7-5.6-8.5-8.5-.2-.2-.6-.4-.5-.8s.5-.3.8-.4c6.5-1.7,13-3.5,19.5-5.3,5.1-1.4,10.3-2.7,15.4-4.1.5-.1.8.2,1.1.5L55.5,26.1c3.3,3.3,6.6,6.7,10,10,.4.4.5.6,0,1.1-1.3,1.2-2.5,2.4-3.7,3.6-.5.5-.7.4-1.1,0l-7.3-7.3c-.1-.1-.1-.3-.2-.4-1.7-1.7-3.4-3.4-5.2-5.1-2.4-2.5-4.9-4.9-7.3-7.4-.3-.3-.6-.2-.9-.2-6.7,1.8-13.5,3.6-20.2,5.4-.9.2-.9.4-.3,1.1l3.3,3.3c.4.5.8.5,1.4.3,4.4-1.2,8.7-2.3,13.1-3.5.5-.2.8,0,1.2.3,4.4,4.4,8.8,8.8,13.3,13.2l4.8,4.8c.4.4.4.6,0,.9l-3.6,3.6c-.4.5-.7.5-1.1,0a7.561,7.561,0,0,0-2.1-1.9c0-.4-.3-.5-.5-.7l-3.6-3.6C44.8,43.3,44.5,42.8,43.9,42.6Z" fill="url(#linear-gradient)"/>
    <path id="Path_17" data-name="Path 17" d="M73.4,8.7c-.5,1.7-.9,3.5-1.4,5.2-1.6,5.9-3.1,11.7-4.7,17.6l-.6,2.1c-.1.5-.4.6-.8.2l-4.5-4.5c-.4-.4-.3-.8-.1-1.3.4-1.2.7-2.4,1-3.6,0-.2.3-.5,0-.6a.878.878,0,0,0-.7.1c-.9.6-1.8,1.2-2.7,1.9-.4.3-.7.3-1-.1-1.2-1.3-2.5-2.5-3.8-3.8-.4-.4-.4-.6.1-1,3.8-2.6,7.5-5.3,11.3-7.9,2.4-1.6,4.7-3.3,7.1-4.9.2-.1.3-.4.5-.2A.912.912,0,0,1,73.4,8.7Z" fill="url(#linear-gradient)"/>
    <path id="Path_18" data-name="Path 18" d="M43.9,42.6c.6.2.9.8,1.4,1.2l3.6,3.6c.2.2.5.4.5.7a17.321,17.321,0,0,0-1.1,3.7c-.2.8-.4.8-1,.3-1.4-1.5-2.8-2.9-4.3-4.3a.959.959,0,0,1-.3-1C43.2,45.4,43.5,44,43.9,42.6Z" fill="url(#linear-gradient)"/>
    <path id="Path_19" data-name="Path 19" d="M47.9,28c1.7,1.7,3.4,3.4,5.2,5.1.1.1.1.3.2.4-.6,1.4-.7,3-1.4,4.5l-5-5c-.2-.2-.2-.3-.1-.6C47.1,31,47.5,29.5,47.9,28Z" fill="url(#linear-gradient)"/>
  </g>
</svg>
