<svg xmlns="http://www.w3.org/2000/svg" xmlns:xlink="http://www.w3.org/1999/xlink" width="39.911" height="24.01" viewBox="0 0 39.911 24.01">
  <defs>
    <linearGradient id="linear-gradient" x1="1.087" y1="1.182" x2="0.332" y2="0.444" gradientUnits="objectBoundingBox">
      <stop offset="0" stop-color="#5899cf"/>
      <stop offset="1" stop-color="#19bdc1"/>
    </linearGradient>
  </defs>
  <path id="mortarboard" d="M39.562,8.713,20.2.054a.589.589,0,0,0-.482,0L11.864,3.564a.59.59,0,0,0,.482,1.078l7.61-3.4,6.967,3.115V8.7a24.209,24.209,0,0,0-6.95-1.459h-.033a24.393,24.393,0,0,0-7.764,1.773A20.124,20.124,0,0,0,7.8,11.454a.59.59,0,0,0-.206.281L2.037,9.252,9.822,5.77A.59.59,0,0,0,9.34,4.692L.349,8.713a.59.59,0,0,0,0,1.078l7.208,3.223v2.827a.59.59,0,0,0,1.181,0v-3.2h0v-.414a19.1,19.1,0,0,1,3.884-2.118,23.744,23.744,0,0,1,7.334-1.685,23.622,23.622,0,0,1,6.966,1.539v5.867a2.086,2.086,0,0,0-.205,3.928L26.3,20.847a22.062,22.062,0,0,0-6.348,1.9c-3.5-1.84-9.37-2.36-11.217-2.483V18.61a.59.59,0,0,0-1.181,0v2.214a.591.591,0,0,0,.565.59c.077,0,7.75.362,11.542,2.521a.59.59,0,0,0,.585,0,18.917,18.917,0,0,1,5.566-1.8l-.349.919a.59.59,0,0,0,.552.8h2.991a.591.591,0,0,0,.552-.8l-.534-1.4c1.607-.184,2.75-.236,2.763-.236a.59.59,0,0,0,.565-.59V18.609a.59.59,0,0,0-1.181,0v1.657c-.551.037-1.467.111-2.579.245l-.285-.751a2.086,2.086,0,0,0-.206-3.928V10.465a18.7,18.7,0,0,1,3.07,1.764v.414h0v3.2a.59.59,0,1,0,1.181,0V13.014L39.562,9.79a.59.59,0,0,0,0-1.078ZM26.873,22.673l.64-1.684.64,1.684Zm1.545-4.841a.905.905,0,1,1-.905-.905A.906.906,0,0,1,28.418,17.832Zm3.9-6.1a.59.59,0,0,0-.206-.281A19.947,19.947,0,0,0,28.1,9.174V4.882l9.771,4.369Zm0,0" transform="translate(0 -0.002)" fill="url(#linear-gradient)"/>
</svg>
