<svg xmlns="http://www.w3.org/2000/svg" xmlns:xlink="http://www.w3.org/1999/xlink" width="25.957" height="25.959" viewBox="0 0 25.957 25.959">
  <defs>
    <linearGradient id="linear-gradient" x1="1.087" y1="1.182" x2="0.332" y2="0.444" gradientUnits="objectBoundingBox">
      <stop offset="0" stop-color="#5899cf"/>
      <stop offset="1" stop-color="#19bdc1"/>
    </linearGradient>
  </defs>
  <g id="id-card" transform="translate(-1.496 0.001)">
    <path id="Union_3" data-name="Union 3" d="M-3093.341,143.937a2.164,2.164,0,0,1-2.164-2.164V128.8a2.163,2.163,0,0,1,2.164-2.164h8.652a.433.433,0,0,1,.433.433.433.433,0,0,1-.433.433h-8.652a1.3,1.3,0,0,0-1.3,1.3v12.978a1.3,1.3,0,0,0,1.3,1.3h21.631a1.3,1.3,0,0,0,1.3-1.3V128.8a1.3,1.3,0,0,0-1.3-1.3h-5.624a.434.434,0,0,1-.433-.433.433.433,0,0,1,.433-.433h5.624a2.163,2.163,0,0,1,2.163,2.164v12.978a2.164,2.164,0,0,1-2.163,2.164Zm.865-2.164a.865.865,0,0,1-.865-.865v-7.788a.865.865,0,0,1,.865-.865h6.922a.865.865,0,0,1,.865.865v6.49a.432.432,0,0,1-.432.432.432.432,0,0,1-.433-.432v-6.49h-6.922v7.788h5.624a.432.432,0,0,1,.433.432.432.432,0,0,1-.433.433Zm16.439-.865a.433.433,0,0,1-.433-.433.434.434,0,0,1,.433-.433h2.6a.433.433,0,0,1,.433.433.432.432,0,0,1-.433.433Zm-5.624,0a.432.432,0,0,1-.432-.433.433.433,0,0,1,.432-.433h3.461a.432.432,0,0,1,.432.433.432.432,0,0,1-.432.433Zm-5.624-1.3v-.866a1.3,1.3,0,0,0-1.3-1.3h-.865a1.3,1.3,0,0,0-1.3,1.3v.866a.432.432,0,0,1-.433.432.433.433,0,0,1-.433-.432v-.866a2.164,2.164,0,0,1,1.251-1.955,1.7,1.7,0,0,1-.385-1.074,1.731,1.731,0,0,1,1.731-1.73,1.73,1.73,0,0,1,1.73,1.73,1.706,1.706,0,0,1-.384,1.074,2.162,2.162,0,0,1,1.25,1.955v.866a.432.432,0,0,1-.433.432A.433.433,0,0,1-3087.284,139.611Zm-2.6-3.894a.866.866,0,0,0,.866.866.865.865,0,0,0,.865-.866.865.865,0,0,0-.865-.865A.866.866,0,0,0-3089.88,135.716Zm10.383,3.461a.432.432,0,0,1-.432-.433.432.432,0,0,1,.432-.432h6.057a.432.432,0,0,1,.433.432.432.432,0,0,1-.433.433Zm-1.73-2.163a.433.433,0,0,1-.433-.433.433.433,0,0,1,.433-.433h4.326a.432.432,0,0,1,.432.433.433.433,0,0,1-.432.433Zm0-2.164a.865.865,0,0,1-.865-.865v-.866a.865.865,0,0,1,.865-.865h6.057a.432.432,0,0,1,.432.433.432.432,0,0,1-.432.432h-6.057v.866h6.057a.432.432,0,0,1,.432.433.432.432,0,0,1-.432.432Zm-3.461-3.893a1.3,1.3,0,0,1-1.3-1.3.433.433,0,0,1,.433-.433.433.433,0,0,1,.433.433.432.432,0,0,0,.432.433h4.326a.433.433,0,0,0,.433-.433.433.433,0,0,1,.433-.433.432.432,0,0,1,.432.433,1.3,1.3,0,0,1-1.3,1.3Zm.481-1.947a.434.434,0,0,1,.031-.45l7.354-10.382a.435.435,0,0,1,.606-.1.434.434,0,0,1,.1.606l-6.874,9.682h1.968l7.224-10.2a.435.435,0,0,1,.606-.1.433.433,0,0,1,.1.606l-7.354,10.382a.432.432,0,0,1-.355.182h-3.041A.432.432,0,0,1-3084.208,129.011Zm.61-3.409-4.906-6.922a.435.435,0,0,1,.1-.606.434.434,0,0,1,.606.1l4.9,6.922a.433.433,0,0,1-.1.6.438.438,0,0,1-.251.082A.434.434,0,0,1-3083.6,125.6Zm-3.028,0-4.906-6.922a.434.434,0,0,1,.1-.606.435.435,0,0,1,.606.1l4.9,6.922a.433.433,0,0,1-.1.6.44.44,0,0,1-.251.082A.432.432,0,0,1-3086.626,125.6Z" transform="translate(3097 -117.979)" fill="url(#linear-gradient)"/>
  </g>
</svg>
