<svg xmlns="http://www.w3.org/2000/svg" xmlns:xlink="http://www.w3.org/1999/xlink" width="45.6" height="71.3" viewBox="0 0 45.6 71.3">
  <defs>
    <linearGradient id="linear-gradient" x1="1.087" y1="1.182" x2="0.332" y2="0.444" gradientUnits="objectBoundingBox">
      <stop offset="0" stop-color="#5899cf"/>
      <stop offset="1" stop-color="#19bdc1"/>
    </linearGradient>
  </defs>
  <g id="KSU_1_" transform="translate(-14.7 -2.1)">
    <g id="Group_18" data-name="Group 18">
      <path id="Path_44" data-name="Path 44" d="M39.5,37.8a2.092,2.092,0,0,1-.6.4c.9.6,1.7,1.2,2.3,1.6a1.129,1.129,0,0,1,1-.3c.1,0,.1.1.1.2a2.544,2.544,0,0,1-.2.7c1.1.8,1.6,1.1,1.9,1.3a1.268,1.268,0,0,1,.9-.4.923.923,0,0,1,1,.9.752.752,0,0,1-.5.7,1.445,1.445,0,0,1-.7.2,7.2,7.2,0,0,1-3.5-1.5,1.626,1.626,0,0,1-.9.4h-.2c-.1,0-.1-.1-.1-.2a1.6,1.6,0,0,1,.3-.8c-.1-.1-.2-.1-.3-.2h0a19.876,19.876,0,0,1-2.4-1.6c-1,.6-1.7,1.1-2.4,1.6h0c-.1.1-.2.1-.3.2a1.6,1.6,0,0,1,.3.8.349.349,0,0,1-.1.2h-.2a2.263,2.263,0,0,1-.9-.4,7.611,7.611,0,0,1-3.5,1.5c-.3,0-.5-.1-.7-.1a.752.752,0,0,1-.5-.7c0-.5.4-.8,1-.9a1.268,1.268,0,0,1,.9.4,21.781,21.781,0,0,1,1.9-1.3c-.2-.3-.3-.5-.2-.7a.349.349,0,0,1,.1-.2,1.129,1.129,0,0,1,1,.3c.6-.4,1.4-1,2.3-1.6a4.348,4.348,0,0,0-.7-.4c-6-4.1-9.6-4.4-11.7-4.5,0,0,6-1.4,13.3,3.6.1.1.3.2.4.3.1-.1.3-.2.4-.3,7.3-5.1,13.3-3.6,13.3-3.6-2.2,0-5.8.3-11.8,4.4Zm7.6,25.4a18.843,18.843,0,0,1-3.8-.9,5.185,5.185,0,0,0-5.8,1.3,5.229,5.229,0,0,0-5.8-1.3,18.844,18.844,0,0,1-3.8.9L25.2,50.7a10.229,10.229,0,0,0,5.9-1.1,5.518,5.518,0,0,1,4.6-.4c.8.4,1.5,1.8,1.8,3.4v0c.3-1.6,1-3.1,1.8-3.4a5.941,5.941,0,0,1,4.6.4,10.229,10.229,0,0,0,5.9,1.1L47.1,63.2ZM32.5,11.5a8.851,8.851,0,0,1,4.1.5,11.094,11.094,0,0,1,.9-2.9,11.094,11.094,0,0,1,.9,2.9,8.851,8.851,0,0,1,4.1-.5,7.9,7.9,0,0,0-3.3,1.8c4.2-1.1,8.5,1.7,8.5,1.7a12.786,12.786,0,0,0-7.1.3,10.044,10.044,0,0,1,7,5.8,15.07,15.07,0,0,0-7.4-3.7c2.3,2.1,2.4,6.1,2.4,6.1s-1.6-3.7-4.5-5v3.2c0,3.8.1,7.2.2,9.9a10.23,10.23,0,0,1,1.1-.3,4.186,4.186,0,0,0-.9,1.1,4.516,4.516,0,0,1,1.8,0h0c-1,.4-1.9.9-2.9,1.4a30.013,30.013,0,0,0-3.2-1.5v-.1a4.577,4.577,0,0,1,2,.1,4.186,4.186,0,0,0-.9-1.1,3.366,3.366,0,0,1,1.2.3c.2-2.7.2-6.1.2-9.9V18.4c-2.8,1.4-4.4,5-4.4,5s.1-3.9,2.4-6.1A14.762,14.762,0,0,0,27.2,21a10.088,10.088,0,0,1,7-5.8,12.927,12.927,0,0,0-7-.2s4.3-2.7,8.5-1.7a8.723,8.723,0,0,0-3.2-1.8Zm5-9.4a118.457,118.457,0,0,1-22.8,8V50.6a22.8,22.8,0,0,0,45.6,0V10.1a106.349,106.349,0,0,1-22.8-8Z" fill="url(#linear-gradient)"/>
      <path id="Path_45" data-name="Path 45" d="M35,56.6a.736.736,0,0,1-.8-.8c0-.6.2-1,.8-1s.9.4.9,1.5a1.222,1.222,0,0,1-.9.3Zm0-2.5a1.847,1.847,0,0,0-2,1.8,1.55,1.55,0,0,0,1.7,1.6,2.375,2.375,0,0,0,1.2-.3c-.1.9-.4,1.5-1.4,1.5a1.292,1.292,0,0,1-.8-.2h-.4v.8a3.73,3.73,0,0,0,1.2.2c1.7,0,2.6-1,2.6-2.8s-.9-2.6-2.1-2.6Z" fill="url(#linear-gradient)"/>
      <path id="Path_46" data-name="Path 46" d="M30.2,54.9v.7h.3l.6-.3v4h1.2V54.1h-.8Z" fill="url(#linear-gradient)"/>
      <path id="Path_47" data-name="Path 47" d="M39.5,56c-.4,0-.8.1-.9.3h0V55h2.3v-.9H37.8v3h.7c.1-.2.4-.3.8-.3a.789.789,0,0,1,.8.8c0,.6-.4.9-1,.9a1.333,1.333,0,0,1-1-.4h-.4V59a2.331,2.331,0,0,0,1.4.4c1.3,0,2.1-.7,2.1-1.7A1.62,1.62,0,0,0,39.5,56Z" fill="url(#linear-gradient)"/>
      <path id="Path_48" data-name="Path 48" d="M41.2,55h2.7l-2,3.8v.5H43l1.7-4.2v-1H41.2Z" fill="url(#linear-gradient)"/>
    </g>
  </g>
</svg>
