<svg xmlns="http://www.w3.org/2000/svg" xmlns:xlink="http://www.w3.org/1999/xlink" width="57.887" height="70.407" viewBox="0 0 57.887 70.407">
  <defs>
    <linearGradient id="linear-gradient" x1="1.087" y1="1.182" x2="0.332" y2="0.444" gradientUnits="objectBoundingBox">
      <stop offset="0" stop-color="#5899cf"/>
      <stop offset="1" stop-color="#19bdc1"/>
    </linearGradient>
  </defs>
  <g id="Layer_4" transform="translate(-10.613 -1.3)">
    <g id="Group_17" data-name="Group 17">
      <g id="Group_8" data-name="Group 8">
        <path id="Path_20" data-name="Path 20" d="M65.5,54H12.9c-.6.2-.2,1-.2,1l4.6,12.4a.666.666,0,0,0,1,.3,44.127,44.127,0,0,1,21-5.2h2.8a41.917,41.917,0,0,1,18.2,5.2.754.754,0,0,0,1-.3c.1-.2,4.6-12.5,4.6-12.6C66,54.5,66.1,54.2,65.5,54ZM54.8,58.5c1-.7.2-.8.2-.8-.1,0,0-.2.3-.3.4-.1.6.5.6.5a2.228,2.228,0,0,1,.9-.2.867.867,0,0,1,.7.4c.1.2.1.2-.2.2a2.769,2.769,0,0,0-1.3.1,5.033,5.033,0,0,0-1.3.4C54.5,58.7,54.7,58.6,54.8,58.5Zm-3.2-1.2.6-.5s.1-.1.1,0l.5.7s.1.1,0,.1l-.7.6s-.1.1-.1,0-.5-.6-.5-.6C51.5,57.4,51.5,57.3,51.6,57.3Zm-.2,1.4.6-.5s.1-.1.1,0l.5.7s.1.1,0,.1l-.7.6s-.1.1-.1,0-.5-.6-.5-.6A.367.367,0,0,1,51.4,58.7Zm-12.2,0a3.581,3.581,0,0,0,1.1-.6c0-.2-.3-.2-.6-.4-.3-.1-.4-.4-.1-.6a8.464,8.464,0,0,1,1.5-.9s.2,0,.1.1c0,.1-.4.5-.4.5a2.073,2.073,0,0,0-.6.2s0,.1.2.2.6.2.5.5-.5,1-1.9,1.1C39.2,58.8,38.9,58.8,39.2,58.7Zm-7.5-2.5c.3-.2,1.6-.7,1.7-.8.3-.1.3-.1.2,0a5.072,5.072,0,0,1-.7.6c-.2.1-1.7.8-1.8.8C31.1,56.8,31.4,56.3,31.7,56.2ZM29,55.7s1.1-.3,1.2.2c.2.6-1.1,1.2-1.3,1.3-.3.1-.1-.1-.1-.1a2.751,2.751,0,0,0,.9-.8c.1-.3-1.1-.1-1.1-.1ZM26.6,55a6.612,6.612,0,0,0,.1,1.1c.1,1,.2,2.5-.3,3.1,0,0-.1.1-.1-.1a3.056,3.056,0,0,0,0-1c-.1-.7-.1-1.5-.2-1.8A4.351,4.351,0,0,1,26.6,55ZM16.2,57.3l.3-.7a.1.1,0,0,1,.1-.1,5.938,5.938,0,0,1,.8.4.1.1,0,0,1,.1.1,5.938,5.938,0,0,1-.4.8s0,.1-.1,0c-.1,0-.7-.3-.8-.3C16.3,57.5,16.2,57.4,16.2,57.3Zm.3,4.6a5.8,5.8,0,0,0,1-.9c.6-.7.4-1.4.8-2.1.3-.7.8-.7,1-.9.2-.1.3-.7.3-.7.2-.3.2.3,0,1a1.593,1.593,0,0,1-1,1.1c-.4.3-.3.7-.4,1.2a2.461,2.461,0,0,1-.4,1,2.959,2.959,0,0,1-1.2.3C16.4,62.1,16.4,62,16.5,61.9Zm.4,1.6.3-.7a.1.1,0,0,1,.1-.1,5.938,5.938,0,0,1,.8.4.1.1,0,0,1,.1.1,5.938,5.938,0,0,1-.4.8s0,.1-.1,0c-.1,0-.7-.3-.8-.3A.139.139,0,0,1,16.9,63.5ZM18,65.6h0a9.439,9.439,0,0,1-.9-.3.349.349,0,0,1-.1-.2l.3-.7a.1.1,0,0,1,.1-.1,5.938,5.938,0,0,1,.8.4.1.1,0,0,1,.1.1A6.89,6.89,0,0,1,18,65.6ZM24.5,59c-.1.4-.3,1.9-1.6,1.4h-.1c-.1.1-.1.2-.2.2a13.062,13.062,0,0,0-1.5,1.2c-1,1.2-.7,2.1-2.5,2.8,0,0-.3.1.1-.2a4.411,4.411,0,0,0,1.1-1.2c.6-1,.4-1.6,1.3-2.5a8.342,8.342,0,0,1,1.2-.8,1.542,1.542,0,0,0-1.6-.1,5.938,5.938,0,0,1-.4.8s0,.1-.1,0c-.1,0-.7-.3-.8-.3a.349.349,0,0,1-.1-.2l.3-.7a.1.1,0,0,1,.1-.1,5.938,5.938,0,0,1,.8.4.1.1,0,0,1,.1.1,4.432,4.432,0,0,0,.6-.5c.3-.3,1.2-1.1,1.9-.6.2.1.4.5,0,1.2.5.1.7-.2.9-.5a3.588,3.588,0,0,0,0-1.1c-.1-.7-.1-1.5-.2-1.8-.1-.4.4-1.5.5-1.4a6.612,6.612,0,0,0,.1,1.1A6.56,6.56,0,0,1,24.5,59Zm6.4,3.8h0a9.439,9.439,0,0,1-.9-.3.349.349,0,0,1-.1-.2l.3-.7a.1.1,0,0,1,.1-.1,5.938,5.938,0,0,1,.8.4.1.1,0,0,1,.1.1Zm3.2-4.4s-.5.5-1.2,1.1c-.3.2-.6.5-.9.7-.2.1-.5.5-.9.6s-.7-.5-1.1-.1c-.1.2-.8,1.1-1.6,1-.7-.1-.8-.6-.7-.8,0,0,0-.1-.1,0-.2.3-.5.9-1,.9-.4,0-.5.1-.9.1,0,0-.4,0-.2-.1a4.553,4.553,0,0,0,1.9-1.5,5.888,5.888,0,0,0,.7-1.4s.2-.1.1,0c0,.1-.3.8-.2,1,.1.3.3.5.8.6a1.433,1.433,0,0,0,1.1-.5c.2-.2.6-.5.8-.3a.623.623,0,0,0,.5.3,1.054,1.054,0,0,0,.8-.5,1.418,1.418,0,0,1-1.1-.8,3.266,3.266,0,0,1,1.2-1.5.8.8,0,0,1,1.2.2c.1.2,0,.3-.1.4a.446.446,0,0,1-.5,0c-.2-.2-.5-.1-.6-.1-.1.1-.3.2-.3.4,0,.1.2.3.4.5a1.69,1.69,0,0,0,.5.2c.5.1,1-.5,1.1-.6C34.1,58.1,34.2,58.3,34.1,58.4ZM44.4,61c.4,0,.6-.5.6-.8a15.509,15.509,0,0,1,.2-1.8l.7-1.1s.1-.1.1,0a14.344,14.344,0,0,0-.5,2.8c0,.7.9.4,1,.2a5.5,5.5,0,0,1,.7-.9v-.1a4.069,4.069,0,0,0,.2-1,5.94,5.94,0,0,0,.1-1.1c.1-.4.7-1.4.7-1.2a7.967,7.967,0,0,0-.1,1.1,3.649,3.649,0,0,1-.6,2v.4c.1.2.7.4.4,1-.3.5-.4.5-.4.5s-.5-.5-.9-.4-.5.9-1.2.8a.842.842,0,0,1-.7-.7c-.4,1-1,1.1-1,1.1-1.4-.1-.6-2.1-.6-2.1,0-.2-.1-.1-.1-.1a1.928,1.928,0,0,1-1.2,1.1,8.125,8.125,0,0,1-3.4.4c-2.5-.1-2.8-.3-3.1-.6-.6-.5,0-2,.1-2.3s.1-.1.1-.1a2.423,2.423,0,0,0,0,.9c.1.4.3.7,1,.8a22.719,22.719,0,0,0,4.4.1c1.4-.1,1.9-.6,2.1-.9a11.614,11.614,0,0,0,.6-1.6,2.326,2.326,0,0,1,.9-1.1,8.706,8.706,0,0,1,1.9-1,13.6,13.6,0,0,0,1.8-.9c.2-.2.1,0,.1,0-.6.9-2.2,1.5-3.4,2.2a7.2,7.2,0,0,0-1,.6s-.2.6-.6,2C43.5,60.6,44,61,44.4,61Zm4.5.3s-.1.1,0-.1c0-.1.2-.5.3-.9a8.574,8.574,0,0,0,.3-1.7c0-.4.8-1.4.8-1.2,0,.1-.1.5-.2,1.1C49.9,59.4,49.6,60.9,48.9,61.3Zm8.5.5c-.4.4-.7.3-.7.3s-.3-.5-.7-.4a10.891,10.891,0,0,1-1.7,1,.831.831,0,0,1-.7-.3,4.328,4.328,0,0,1-1.2.5,2.18,2.18,0,0,1-.6-.1c-.1-.1-.2-.3-.3-.3a1.659,1.659,0,0,0-1.4.3s-.2,0,0-.2a2.706,2.706,0,0,1,1.1-.9,1.063,1.063,0,0,1,.8-.1c.4.1.5.3.7.4.2.2.3.2.7.1-.1-.5-.3-.9-.8-.9,0,0-.1-.1.1-.3.3-.3,2-.4,1.9.4-.1.4-.1.5-.6.8a.367.367,0,0,0,.3.1c1.2-.1,1.7-1.4,2.1-1.3,0,0,.5-.5.6-.5s.3.3.4.4A.735.735,0,0,1,57.4,61.8ZM60,65.3l-.7.6s-.1.1-.1,0-.5-.6-.5-.6v-.2l.6-.5s.1-.1.1,0l.5.7Zm1.8-2.7c-.1.1-2.1,2-3.6,1.2-.2-.1-.6-.6-.3-1.6a12.949,12.949,0,0,1,1.2-2.3s.9-.8.8-.5a11.563,11.563,0,0,0-1.3,2.4c-.2.7.1.9.2,1h0l.1.1c.8.8,1.9-.1,1.9-.1s-.4-.6-.8-.6c-.3,0-1,.6-1.1.7a.1.1,0,0,1-.1-.1c.2-.1,1.2-1.1,1.8-1.1a1.234,1.234,0,0,1,.8.5s.2.2.3.2C61.9,62.4,61.9,62.6,61.8,62.6Z" fill="url(#linear-gradient)"/>
        <g id="Group_7" data-name="Group 7">
          <path id="Path_21" data-name="Path 21" d="M35.5,66.7c-.1,0-.2,0-.2.1s-.1.1-.1.2,0,.2.1.2c.1.1.1.1.2.1s.2,0,.2-.1c.1-.1.1-.1.1-.2s0-.2-.1-.2C35.6,66.7,35.6,66.7,35.5,66.7Z" fill="url(#linear-gradient)"/>
          <path id="Path_22" data-name="Path 22" d="M38.6,66.5c-.1,0-.2,0-.2.1-.1.1-.1.1-.1.2s0,.2.1.2c.1.1.1.1.2.1s.2,0,.2-.1c.1-.1.1-.1.1-.2s0-.2-.1-.2C38.7,66.5,38.7,66.5,38.6,66.5Z" fill="url(#linear-gradient)"/>
          <path id="Path_23" data-name="Path 23" d="M32.6,67.4a.6.6,0,0,0,.4-.1,1.38,1.38,0,0,0-.3-.4A.749.749,0,0,0,32.6,67.4Z" fill="url(#linear-gradient)"/>
          <path id="Path_24" data-name="Path 24" d="M47.1,67.2h-.2l-.1.1c.2,0,.4.1.6.1,0-.1,0-.1-.1-.2C47.2,67.3,47.2,67.2,47.1,67.2Z" fill="url(#linear-gradient)"/>
          <path id="Path_25" data-name="Path 25" d="M30.7,67.5c-.1,0-.1.1-.2.1,0,.1-.1.1,0,.2,0,.1.1.1.1.2.1,0,.1.1.2,0,.1,0,.1-.1.2-.1,0-.1.1-.1,0-.2,0-.1-.1-.1-.1-.2S30.8,67.4,30.7,67.5Z" fill="url(#linear-gradient)"/>
          <path id="Path_26" data-name="Path 26" d="M34.2,66.8a.349.349,0,0,0-.2.1c0,.1-.1.1-.1.2a.349.349,0,0,0,.1.2c.1,0,.1.1.2.1s.1,0,.2-.1c0-.1.1-.1.1-.2s0-.2-.1-.2A.31.31,0,0,0,34.2,66.8Z" fill="url(#linear-gradient)"/>
        </g>
        <path id="Path_27" data-name="Path 27" d="M67.3,52.4H57c-.2,0-.6-.1-.6-.5V49.1a28.548,28.548,0,0,0-1.2-8.6,20.509,20.509,0,0,0-3.7-7.1,23.205,23.205,0,0,0-1.8-2.1,18.162,18.162,0,0,0-1.4-1.4L48,39.3s-6.3-1.3-5.9-1l-2.5,1.9v.1h-.3l-2.4-2-.6-.1-5.4,1.1c-.1-.5-.2-4.4-.2-4.4V29.6l-1,1a26.019,26.019,0,0,0-6.1,9.8A28.548,28.548,0,0,0,22.4,49v2.8c0,.4-.1.5-.5.5H11.6c-1.4,0-.9,1.3-.9,1.3L16.4,69a1.143,1.143,0,0,0,1.7.8,48.456,48.456,0,0,1,6.6-3c.4-.1.5.2.6.3s1,2.5,1.4,3.3.4,1.6,1.6,1.2a33.62,33.62,0,0,1,22.5,0c1.3.4,1.3-.4,1.7-1.1.4-.8,1.3-3.2,1.4-3.4.1-.1.1-.5.6-.3a65,65,0,0,1,6.6,3,1.143,1.143,0,0,0,1.7-.8l5.7-15.4C68.2,53.7,68.7,52.4,67.3,52.4Zm-38.6-12s6.3-1.6,7-1.7c.7-.2.9.1,1.4.5S39.3,41,39.3,41s1.6-1.4,2.1-1.8.7-.6,1.4-.5c.7.2,7,1.7,7,1.7a.808.808,0,0,1,.6,1l-2.7,8.7a.618.618,0,0,1-1,.3,3.537,3.537,0,0,0-1.7-.9,20.553,20.553,0,0,0-2.5,0c-.3,0-.8.9-1.6,1a1.172,1.172,0,0,1-1.2-.6.723.723,0,0,0-.6-.4.618.618,0,0,0-.5.4,1.172,1.172,0,0,1-1.2.6c-.8,0-1.3-1-1.6-1a20.553,20.553,0,0,0-2.5,0,3.537,3.537,0,0,0-1.7.9.618.618,0,0,1-1-.3l-2.7-8.7A1.067,1.067,0,0,1,28.7,40.4ZM28.2,69c-.2-.2-.4-.3-.6-.5.1.2.1.4.2.6-.1,0-.2.1-.3.1a6.468,6.468,0,0,1-.4-1.3c.1,0,.2-.1.3-.1a.9.9,0,0,1,.1.5c.1-.2.1-.4.2-.6.1,0,.2-.1.3-.1-.1.3-.2.5-.3.8a4.173,4.173,0,0,1,.8.6C28.4,68.9,28.4,68.9,28.2,69Zm.1-1.4v-.1l.1-.1h.1l.1.1v.1l-.1.1h-.1A.1.1,0,0,1,28.3,67.6Zm.4,1.2c-.1-.4-.2-.6-.3-1a.367.367,0,0,0,.3-.1c.1.4.2.6.3,1C28.8,68.8,28.8,68.8,28.7,68.8Zm1.2-.3c0-.2-.1-.3-.1-.4a.349.349,0,0,0-.1-.2.1.1,0,0,0-.1-.1h-.1c-.1,0-.1,0-.1.1v.4c0,.2.1.2.1.4a.367.367,0,0,0-.3.1c-.1-.4-.2-.6-.3-1a.367.367,0,0,0,.3-.1v.1a.1.1,0,0,1,.1-.1l.1-.1h.3c.1,0,.1.1.2.2.1.3.1.4.2.7Zm1.5-.1a1.381,1.381,0,0,1-.4.3h-.3c-.1,0-.1,0-.2-.1-.1,0-.1-.1-.1-.2a.367.367,0,0,0,.3-.1h.2c.1,0,.1,0,.2-.1l.1-.1v-.2l-.1.1a.349.349,0,0,1-.2.1.6.6,0,0,1-.4-.1c-.1-.1-.2-.2-.2-.3,0-.2,0-.3.1-.4s.2-.2.3-.2h.2c.1,0,.1,0,.2.1v-.1a.367.367,0,0,0,.3-.1c.1.4.1.5.2.9C31.4,68.2,31.4,68.3,31.4,68.4Zm1.9-.6c-.1-.1-.1-.2-.2-.3-.2,0-.4.1-.6.1a.367.367,0,0,1-.1.3.367.367,0,0,0-.3.1c.1-.6.2-.9.3-1.5a.367.367,0,0,0,.3-.1c.3.5.5.8.8,1.3C33.4,67.8,33.4,67.8,33.3,67.8Zm1.4-.3c-.1.1-.2.2-.3.2h-.2c-.1,0-.1,0-.2-.1v.1h-.3c-.1-.6-.1-.9-.2-1.4h.3a.9.9,0,0,0,.1.5.1.1,0,0,1,.1-.1c.1,0,.1-.1.2-.1a.6.6,0,0,1,.4.1.52.52,0,0,1,.2.4C34.8,67.2,34.7,67.4,34.7,67.5Zm1.1,0v-.1a.1.1,0,0,1-.1.1h-.2a.6.6,0,0,1-.4-.1c-.1-.1-.1-.2-.2-.4,0-.2,0-.3.1-.4s.2-.2.3-.2h.2c.1,0,.1,0,.2.1V66H36a7.084,7.084,0,0,1,.1,1.4A.367.367,0,0,1,35.8,67.5Zm1.5-.4a.349.349,0,0,1-.1.2,1.007,1.007,0,0,1-.3.1.367.367,0,0,1-.3-.1c-.1,0-.1-.1-.2-.2a.367.367,0,0,0-.1-.3v-.4h.3v.7a.1.1,0,0,0,.1.1h.2l.1-.1v-.7h.3v.4C37.3,66.9,37.3,67.1,37.3,67.1Zm.3.3a7.569,7.569,0,0,0-.1-1.5h.3a7.569,7.569,0,0,0,.1,1.5C37.7,67.3,37.7,67.3,37.6,67.4Zm1.3-.1v-.1c-.1,0-.1.1-.2.1h-.2a.6.6,0,0,1-.4-.1c0-.1-.1-.2-.1-.4s0-.3.1-.4a.52.52,0,0,1,.4-.2h.2c.1,0,.1.1.2.1v-.1h.3v1C39,67.3,39,67.3,38.9,67.3Zm1.3-.2v.2h-.9c.2-.3.3-.5.5-.8h-.4v-.2h.8c-.2.3-.3.5-.5.8Zm.4.2h-.3v-1h.3Zm0-1.2h-.1a.1.1,0,0,1-.1-.1s-.1-.1,0-.1a.1.1,0,0,1,.1-.1h.1a.1.1,0,0,1,.1.1V66A.1.1,0,0,1,40.6,66.1Zm1,1.1v.2h-.9c.2-.3.3-.5.5-.8h-.4v-.2h.8c-.2.3-.3.5-.5.8A.454.454,0,0,1,41.6,67.2Zm1.8-.3a.367.367,0,0,1-.1.3c0,.1-.1.1-.1.2-.1,0-.1.1-.2.1h-.2a.367.367,0,0,1-.3-.1l-.2-.2v-.4a2.2,2.2,0,0,1,.1-.8h.3a2.769,2.769,0,0,1-.1.9v.2a.1.1,0,0,0,.1.1h.2a.1.1,0,0,0,.1-.1v-.2c0-.4.1-.5.1-.9h.3C43.4,66.4,43.4,66.6,43.4,66.9Zm1.1.8h-.3a.9.9,0,0,1,.1-.5v-.3h-.2L44,67v.6h-.3c0-.4.1-.6.1-1h.3v.1c.1,0,.1-.1.2-.1h.2c.1,0,.2.1.3.1a.367.367,0,0,1,.1.3C44.6,67.2,44.6,67.4,44.5,67.7Zm.5,0h-.3a3.4,3.4,0,0,0,.1-1h.3A3.4,3.4,0,0,1,45,67.7Zm.2-1.1h-.1a.1.1,0,0,1-.1-.1v-.1a.1.1,0,0,1,.1-.1h.1a.1.1,0,0,1,.1.1v.1A.1.1,0,0,0,45.2,66.6Zm.6,1.3h-.2c-.1-.4-.2-.7-.3-1.1h.3c.1.3.1.4.2.7a6.125,6.125,0,0,1,.4-.6h.3C46.2,67.3,46.1,67.5,45.8,67.9Zm1.8-.2h0c-.4,0-.5-.1-.9-.1,0,.1,0,.1.1.2,0,.1.1.1.2.1h.3c.1.1.1.1.2.1a.31.31,0,0,1-.2.1H47a.52.52,0,0,1-.4-.2.6.6,0,0,1-.1-.4.52.52,0,0,1,.2-.4.6.6,0,0,1,.4-.1.52.52,0,0,1,.4.2A.9.9,0,0,1,47.6,67.7Zm.5-.2a.438.438,0,0,0-.1.3v.1c0,.2-.1.2-.1.4a.367.367,0,0,1-.3-.1c.1-.4.1-.6.2-1,.1,0,.1,0,.2.1v.1l.1-.1h.1a.1.1,0,0,1,.1.1c-.1.1-.1.1-.1.2h-.1C48.2,67.5,48.1,67.5,48.1,67.5Zm.8.9h-.3a.265.265,0,0,1-.3-.3c.1-.1.1-.1.2-.1l.1.1.1.1h.1a.1.1,0,0,0-.1-.1l-.1-.1c-.2-.1-.2-.2-.2-.4,0-.1.1-.1.1-.2h.3c.1,0,.1,0,.2.1.1,0,.1.1.1.2-.1,0-.1.1-.2.1-.1-.1-.1-.1-.2-.1h-.1l.1.1a.1.1,0,0,1,.1.1c.2,0,.2.1.2.1v.2C49,68.3,49,68.4,48.9,68.4Zm.3.2c.1-.4.2-.6.3-1a.367.367,0,0,1,.3.1c-.1.4-.2.6-.3,1C49.3,68.6,49.3,68.6,49.2,68.6Zm.3-1.3a.1.1,0,0,1,.1-.1h.1a.1.1,0,0,1,.1.1v.1a.1.1,0,0,1-.1.1h-.1a.1.1,0,0,1-.1-.1S49.4,67.3,49.5,67.3Zm.5,1.4c-.1,0-.2.1-.3,0,.1-.3.1-.5.2-.8h-.1c0-.1,0-.1.1-.2H50c0-.1.1-.2.1-.4a.367.367,0,0,1,.3.1c0,.1-.1.2-.1.4h.2c0,.1,0,.1-.1.2h-.2A1.854,1.854,0,0,0,50,68.7Zm.5.6a.367.367,0,0,1-.3-.1c.1-.2.2-.2.3-.4,0-.4-.1-.6-.1-1a.367.367,0,0,1,.3.1c0,.3.1.4.1.7l.5-.5c.1,0,.2.1.3.1A11.408,11.408,0,0,0,50.5,69.3ZM67.7,53.4h0L62,68.9h0a1.439,1.439,0,0,1-.2.3c-.1.1-.2.2-.3.2a.756.756,0,0,1-.4-.1,45.3,45.3,0,0,0-6.7-3c-.1,0-.2-.1-.4-.1a.764.764,0,0,0-.5.2,46.115,46.115,0,0,0-14.4-2.6c-5,0-10.8,1.1-14,2.6a.44.44,0,0,0-.5-.1.6.6,0,0,0-.4.1c-2.7.9-5.4,2.5-6.7,3a.756.756,0,0,1-.4.1.52.52,0,0,1-.4-.2.349.349,0,0,0-.1-.2V69h0L11,53.5h0v-.4a.584.584,0,0,1,.4-.1H21.8a1.078,1.078,0,0,0,.7-.2v.1l31.6.1c0-.1,2,.1,2.1-.2h0a1.854,1.854,0,0,0,.7.2H67.3a.584.584,0,0,1,.4.1v.3Z" fill="url(#linear-gradient)"/>
        <path id="Path_28" data-name="Path 28" d="M49.8,40.9c-.1,0-6.3-1.6-7-1.7h-.2c-.1,0-.2.1-.5.3l-.1.1c-.5.4-2.1,1.8-2.1,1.8l-.4.3-.5-.3s-1.7-1.4-2.2-1.8l-.1-.1c-.3-.2-.4-.3-.5-.3h-.3c-.7.2-7,1.7-7,1.7a.373.373,0,0,0-.3.4l2.7,8.6.1.1a.1.1,0,0,0,.1-.1c.2-.1.3-.2.5-.3a2.292,2.292,0,0,1,1.5-.6h2.6a1.012,1.012,0,0,1,.7.4c.2.2.5.5.8.5h.1c.4,0,.5-.1.6-.3a1.427,1.427,0,0,1,1-.7,1.318,1.318,0,0,1,1,.7c.2.2.2.3.6.3H41c.3,0,.6-.3.8-.5a1.012,1.012,0,0,1,.7-.4H45a2.959,2.959,0,0,1,1.5.6,2.186,2.186,0,0,0,.5.3l.1.1.1-.1,2.7-8.6C50,41.2,50.1,41,49.8,40.9Zm-5.5,1s.3-.4.4-.4a.349.349,0,0,1,.2-.1,1.69,1.69,0,0,1,.6.3l.1.1h0s.3-.4.4-.4a.349.349,0,0,1,.2-.1,1.69,1.69,0,0,1,.6.3c.1.1.1.1.1.2,0,0-.4.4-.4.5-.1.1-.1,0-.1,0l-.6-.3h0s-.4.4-.4.5c-.1.1-.1,0-.1,0l-.6-.3C44.3,42,44.2,41.9,44.3,41.9Zm-1.8.2c.1-.1.7-.6.6-.6-.1-.1-.6-.1-.6-.4a1.176,1.176,0,0,1,.5-.6c.3-.2.6-.4.6-.3a2.269,2.269,0,0,1-.1.4,1.546,1.546,0,0,0-.6.3s-.1.1.4.2c0,0,.3.1.2.3,0,0,0,.4-1,.7C42.5,42.2,42.4,42.2,42.5,42.1Zm1,.1a4.126,4.126,0,0,0-.1.9,7.845,7.845,0,0,1-.2,2.2,1.915,1.915,0,0,1-.4.8s-.1.1,0-.2a10.529,10.529,0,0,0,.1-1.2V43.1C43.1,43,43.5,42.1,43.5,42.2Zm-10.4.4c.4-.4.7-.6.7-.5a2.567,2.567,0,0,1-.2.5,1.1,1.1,0,0,0-.5.5s-.1.2.5.2c0,0,.4,0,.3.3,0,.2,0,.7-1.2,1.3,0,0-.1,0,0-.1s.8-.8.7-.9-.8,0-.8-.4A1.648,1.648,0,0,1,33.1,42.6Zm1.2,4.6s-.4.4-.4.5c-.1.1-.1,0-.1,0l-.6-.3s-.1-.1,0-.1c0,0,.3-.4.4-.4a.349.349,0,0,1,.2-.1,1.69,1.69,0,0,1,.6.3Zm1.7-.1a3.024,3.024,0,0,1-1,.2c-.1,0-.1-.1,0-.2s1.2-.5,1.4-1.3c.1-.7.2-1.1.2-1.1s.1-.2.1,0C36.6,44.9,36.6,46.9,36,47.1Zm-.2-4.4c-.3.3-.5.6-.6.6a4.12,4.12,0,0,0-.2.9c-.1.5,0,1,.4,1.1.3,0,.4-.4.4-.5.1-.1.1,0,.1.1-.1.3-.2,1.1-.8,1.2-.5,0-.5-.8-.5-.9s0-.1-.1,0a3.329,3.329,0,0,0-.3.6,3.115,3.115,0,0,1-2.5.7c-.7-.1-.4-1-.3-1.4s.2-.2.1.2c0,.4.6.5,1.3.4a1.841,1.841,0,0,0,1.6-.9c.1-.2.4-1.5.4-1.5.1-.6.9-1.2,1.5-1.7a5.351,5.351,0,0,1,.9-.7c.1-.2.1-.1.1-.1C37.3,41.4,36.4,42.1,35.8,42.7Zm3.8,1c-.1,0-.1-.1-.2-.1-.2,0-.4.3-.5.5,0,.1,0,.1.1.1a1.421,1.421,0,0,1,.6.2c.2.2.1.5,0,.7,0,0-.1.4-1,.6a1.793,1.793,0,0,0-.8.4.831.831,0,0,0-.3.7c-.1.6-.2,1.4-.2,1.5-.1.1-.1.1-.1,0a6.22,6.22,0,0,1,.1-1.8c.3-1.1.9-1.4,1.2-1.4a2.409,2.409,0,0,1,.3-1.1,2.189,2.189,0,0,1,1-.9c.2-.1.4.1.4.1a.887.887,0,0,0,.4-.5c0-.2.1-.1.1,0s.1.2.2.1c.2-.1.3-.5.3-.5s.1-.1.1,0-.1.9-.6,1.1c-.3.1-.5.4-.7.4A1.577,1.577,0,0,0,39.6,43.7Zm1.5,3.5s-.4.4-.4.5c-.1.1-.1,0-.1,0l-.6-.3s-.1-.1,0-.1c0,0,.3-.4.4-.4a.349.349,0,0,1,.2-.1,1.69,1.69,0,0,1,.6.3C41.2,47.2,41.2,47.2,41.1,47.2Zm.2-.6c-.3,0-.5-.4-.5-.6,0-.3.1-1.9.1-2.1,0-.1.3-.6.3-.7.1-.2.1,0,.1,0a3.784,3.784,0,0,0-.1.8c0,.5-.1,1.1-.1,1.3s.1.5.4.5c.4,0,.4-.4.5-.6,0-.1.1,0,.1.1C42.1,46.1,41.6,46.6,41.3,46.6Zm4.8-1.8a1.657,1.657,0,0,1-1,1,2.415,2.415,0,0,0-1.3,1.1,3.731,3.731,0,0,1-2,1s-.2-.1.3-.2a3.588,3.588,0,0,0,1.7-1.5A2.235,2.235,0,0,1,45.4,45c.2-.1.4-.2.4-.3s-.2-.1-.2-.1a.5.5,0,0,1-.8-.2c-.2-.3.2-1.4.7-1.4C46,42.9,46.5,43.4,46.1,44.8Zm1.2-1.6a12,12,0,0,1-.3,2,2.146,2.146,0,0,1-.4.7s-.1.1,0-.2a4.172,4.172,0,0,0,.2-1.1c.1-.7.2-1.4.2-1.5a2.768,2.768,0,0,1,.5-.8A1.44,1.44,0,0,0,47.3,43.2Z" fill="url(#linear-gradient)"/>
      </g>
      <path id="Path_29" data-name="Path 29" d="M42.2,33.5a4.384,4.384,0,0,0-.6-2.8c1.2-5.1-1.6-11.2-2.3-12.8l-1,13.2,1,9.8A16.2,16.2,0,0,0,42.2,33.5Z" fill="url(#linear-gradient)"/>
      <path id="Path_30" data-name="Path 30" d="M37,30.8s-.8.8-.5,2.9A18.746,18.746,0,0,0,39.3,41V18C38.7,19.4,35.8,25.6,37,30.8Z" fill="url(#linear-gradient)"/>
      <g id="Group_9" data-name="Group 9">
        <path id="Path_31" data-name="Path 31" d="M44.1,7.7a.319.319,0,0,0-.3.3h0a.319.319,0,0,0,.3.3h9.6q.3-.15.3-.3h0a.319.319,0,0,0-.3-.3H44.1Z" fill="url(#linear-gradient)"/>
      </g>
      <g id="Group_10" data-name="Group 10">
        <path id="Path_32" data-name="Path 32" d="M49,5.9l-5.1,1c-.1,0-.1.1-.1.3h0a.215.215,0,0,0,.2.2h0l5.1-1c.1,0,.1-.1.1-.3h0a.215.215,0,0,0-.2-.2h0" fill="url(#linear-gradient)"/>
      </g>
      <g id="Group_11" data-name="Group 11">
        <path id="Path_33" data-name="Path 33" d="M43.8,8.8c0,.1,0,.3.1.3h0l5.1,1a.215.215,0,0,0,.2-.2h0c0-.1,0-.3-.1-.3h0L44,8.6h0c-.1-.1-.1,0-.2.2" fill="url(#linear-gradient)"/>
      </g>
      <g id="Group_12" data-name="Group 12">
        <path id="Path_34" data-name="Path 34" d="M25,7.8a.319.319,0,0,0-.3.3h0a.319.319,0,0,0,.3.3h9.6a.319.319,0,0,0,.3-.3h0a.319.319,0,0,0-.3-.3H25Z" fill="url(#linear-gradient)"/>
      </g>
      <g id="Group_13" data-name="Group 13">
        <path id="Path_35" data-name="Path 35" d="M29.5,6.2c0,.1,0,.3.1.3h0l5.1,1a.215.215,0,0,0,.2-.2h0c0-.1,0-.3-.1-.3h0L29.7,6h0a.215.215,0,0,0-.2.2" fill="url(#linear-gradient)"/>
      </g>
      <g id="Group_14" data-name="Group 14">
        <path id="Path_36" data-name="Path 36" d="M34.7,8.6l-5.1,1c-.1,0-.1.1-.1.3h0a.215.215,0,0,0,.2.2h0l5.1-1c.1,0,.1-.1.1-.3h0a.215.215,0,0,0-.2-.2h0" fill="url(#linear-gradient)"/>
      </g>
      <g id="Group_16" data-name="Group 16">
        <g id="Group_15" data-name="Group 15">
          <path id="Path_37" data-name="Path 37" d="M47.3,15.8c-1.1-.5-6.9-3-7.8-3.4v6l.2.3c.1.3,3.1,6.5,2,12a4.166,4.166,0,0,1,.6,2.6,13.486,13.486,0,0,1-2.5,6.6l-.2.3v.1c.5-.4,2-1.7,2.2-1.8.3-.3.4-.4,1.2-.2.6.1,3.3.7,4.5,1a.5.5,0,0,0,.6-.4L48.4,18A2.7,2.7,0,0,0,47.3,15.8Zm-4.9,2.5-1.3-.5s-.3-.1-.3-.6-.1-2.3-.1-2.3-.1-.5.3-.4,1.4.5,1.4.5.3,0,.3.5c0,.3.1,1.6.1,2.4C42.9,18.5,42.4,18.3,42.4,18.3Zm3.3,1.3-1.3-.5s-.3-.1-.3-.6-.1-2.3-.1-2.3-.1-.5.3-.4,1.4.5,1.4.5.3,0,.3.5c0,.3.1,1.6.1,2.4C46.2,19.8,45.7,19.6,45.7,19.6Z" fill="none" stroke="#19bdc1" stroke-width="0.2"/>
          <path id="Path_38" data-name="Path 38" d="M39.2,18.4v-6c-1,.4-6.7,2.9-7.8,3.4a2.481,2.481,0,0,0-1.2,2.1l.4,20.9a.5.5,0,0,0,.6.4c1.2-.3,3.9-.9,4.5-1,.8-.1.9,0,1.2.2.2.1,1.6,1.4,2.2,1.8v-.1l-.3-.3a13.486,13.486,0,0,1-2.5-6.6,3.58,3.58,0,0,1,.6-2.6c-1.1-5.4,1.8-11.7,2-12Zm-4.6-2.1v2.3c0,.5-.3.6-.3.6l-1.3.5s-.5.2-.5-.3c0-.7.1-2,.1-2.3,0-.5.3-.5.3-.5s1-.4,1.4-.5C34.6,15.8,34.6,16.3,34.6,16.3ZM37.8,15s-.1,1.8-.1,2.3-.3.6-.3.6l-1.3.5s-.5.2-.5-.3c0-.7.1-2,.1-2.4,0-.5.3-.5.3-.5s1-.4,1.4-.5C37.9,14.5,37.8,15,37.8,15Z" fill="none" stroke="#19bdc1" stroke-width="0.2"/>
        </g>
        <path id="Path_39" data-name="Path 39" d="M39.2,4.3a1.067,1.067,0,0,0-1.1-.1L35.7,5.6a.75.75,0,0,0-.3.6V9.4c0,.9.3,1.1,1.2.8L39.2,9ZM38.2,6V7.9a.5.5,0,0,1-.3.5l-1.1.4s-.4.2-.4-.3c0-.6.1-1.7.1-2,0-.4.3-.4.3-.4a8,8,0,0,0,1.1-.5C38.2,5.5,38.2,6,38.2,6Z" fill="url(#linear-gradient)"/>
        <path id="Path_40" data-name="Path 40" d="M43.3,6.2c0-.5-.3-.6-.3-.6L40.6,4.2a1.067,1.067,0,0,0-1.1.1V9.1l2.6,1.2c.9.3,1.2.1,1.2-.8ZM41.9,8.8l-1.1-.4a.5.5,0,0,1-.3-.5V6s-.1-.4.3-.3c.3.1,1.1.5,1.1.5s.3,0,.3.4c0,.3.1,1.4.1,2C42.3,8.9,41.9,8.8,41.9,8.8Z" fill="url(#linear-gradient)"/>
        <path id="Path_41" data-name="Path 41" d="M40.4,4.9a9.68,9.68,0,0,0,.2-1.2c0-1.1-.5-2.1-1.2-2.1s-1.2,1-1.2,2.1c0,.2.1,1,.1,1.2h-.4a4.1,4.1,0,0,1-.1-1.1c0-1.4.7-2.5,1.6-2.5S41,2.4,41,3.8a3.75,3.75,0,0,1-.1,1.1Z" fill="url(#linear-gradient)"/>
        <path id="Path_42" data-name="Path 42" d="M39.2,12a.215.215,0,0,1-.2.2l-2.7,1.2c-.1,0-.2,0-.2-.1V10.8a.215.215,0,0,1,.2-.2L39,9.4c.1,0,.2,0,.2.1Z" fill="url(#linear-gradient)"/>
        <path id="Path_43" data-name="Path 43" d="M39.5,12a.215.215,0,0,0,.2.2l2.7,1.2c.1,0,.2,0,.2-.1V10.8a.215.215,0,0,0-.2-.2L39.7,9.4c-.1,0-.2,0-.2.1Z" fill="url(#linear-gradient)"/>
      </g>
    </g>
  </g>
</svg>
