<svg xmlns="http://www.w3.org/2000/svg" width="67" height="67" viewBox="0 0 67 67">
    <defs>
        <linearGradient id="prefix__a" x1=".058%" x2="99.855%" y1="99.942%" y2=".145%">
            <stop offset="0%" stop-color="#09CDD1"/>
            <stop offset="99.971%" stop-color="#24E8A6"/>
        </linearGradient>
    </defs>
    <path fill="url(#prefix__a)" d="M961.547 357.576v7.36h25.132c1.734 0 3.14 1.414 3.14 3.156v30.493H994v3.156c-.003 2.903-2.345 5.256-5.235 5.259h-56.53c-2.89-.003-5.232-2.356-5.235-5.26v-3.155h4.186v-30.493c0-1.742 1.406-3.155 3.141-3.155h25.126v-7.361h2.094zm-7.15 43.117h-25.303v1.044c0 1.743 1.406 3.155 3.141 3.155h56.53c1.735 0 3.141-1.412 3.141-3.155v-1.044h-25.305c-.445 1.26-1.63 2.101-2.96 2.104h-6.282c-1.33-.002-2.517-.844-2.962-2.104zm9.903-8.106c-.604.966-1.622 1.595-2.753 1.7v3.243h-2.094v-3.243c-1.131-.105-2.149-.734-2.753-1.7l-5.988 2.26c-.409.154-.68.546-.68.984v2.75h6.274v1.052c0 .581.469 1.052 1.047 1.052h6.288c.578 0 1.047-.47 1.047-1.052v-1.051h6.282v-2.754c0-.438-.27-.83-.678-.985zm22.371-25.55h-52.342c-.578 0-1.047.47-1.047 1.051v30.497h2.092v-29.447h21.98v2.104h-19.886v27.343h10.466v-2.75c.004-1.314.816-2.489 2.04-2.953l6.34-2.387v-3.24l-1.047-.801v-5.746h-2.388l.325-1.306c.728-2.943 3.36-5.007 6.378-5.005h3.008c.833 0 1.632.333 2.221.925.59.591.92 1.394.92 2.23v8.902l-1.047.8v3.241l6.34 2.387c1.223.465 2.033 1.64 2.038 2.953v2.75h10.468v-27.343h-19.89v-2.104h21.984v29.444h2.094v-30.494c0-.58-.469-1.051-1.047-1.051zm-24.077 21.816l-.346.264h-3.498l-.344-.264v2.368c.012.15.177 1.052 2.094 1.052 1.917 0 2.08-.886 2.094-1.08v-2.34zm-.006-12.358h-3.01c-1.541-.002-2.975.793-3.794 2.104h5.763v2.104h-4.188v4.705l2.094 1.605h2.094l2.088-1.607v-7.859c0-.58-.469-1.052-1.047-1.052zm-1.041-7.357v2.104h-2.094v-2.104h2.094zm16.299-29.134c6.182 6.222 6.182 16.298 0 22.52l-1.48-1.488c5.363-5.4 5.363-14.143 0-19.544zM943.153 340l1.479 1.49c-5.364 5.401-5.364 14.145 0 19.546l-1.48 1.485c-6.182-6.223-6.182-16.299 0-22.521zm4.078 2.806l1.481 1.488c-3.824 3.851-3.824 10.085 0 13.936l-1.481 1.488c-4.645-4.671-4.645-12.24 0-16.912zm26.536.002c4.644 4.672 4.644 12.239 0 16.91l-1.481-1.486c3.824-3.85 3.824-10.085 0-13.936zm-4.078 2.8c3.102 3.124 3.102 8.18 0 11.304l-1.482-1.486c2.286-2.302 2.286-6.028 0-8.33zm-18.378-.002l1.482 1.488c-2.286 2.302-2.286 6.028 0 8.33l-1.482 1.486c-3.102-3.123-3.102-8.18 0-11.304zm9.189 1.448c2.313 0 4.188 1.884 4.188 4.207 0 2.324-1.875 4.208-4.188 4.208-2.313 0-4.188-1.884-4.188-4.208 0-2.323 1.875-4.207 4.188-4.207zm0 2.104c-1.156 0-2.094.941-2.094 2.103 0 1.162.938 2.104 2.094 2.104s2.094-.942 2.094-2.104c0-1.162-.938-2.103-2.094-2.103z" transform="translate(-927 -340)"/>
</svg>
