<?xml version="1.0" encoding="utf-8"?>
<!-- Generator: Adobe Illustrator 23.0.4, SVG Export Plug-In . SVG Version: 6.00 Build 0)  -->
<svg version="1.1" id="Layer_1" xmlns="http://www.w3.org/2000/svg" xmlns:xlink="http://www.w3.org/1999/xlink" x="0px" y="0px"
	 viewBox="0 0 163.8 52" style="enable-background:new 0 0 163.8 52;" xml:space="preserve">
<style type="text/css">
	.st0{fill:#FFFFFF;}
</style>
<g id="logo" transform="translate(-1064 -36.028)">
	<g>
		<path class="st0" d="M1081.4,77.7c-0.5,0-0.9,0.2-1.2,0.5c-0.3,0.3-0.5,0.7-0.5,1.1c0,0.5,0.2,0.9,0.5,1.2s0.7,0.5,1.2,0.5
			c0.5,0,0.9-0.2,1.2-0.5c0.3-0.3,0.5-0.7,0.5-1.2c0-0.5-0.2-0.8-0.5-1.1C1082.3,77.9,1081.9,77.7,1081.4,77.7z"/>
		<path class="st0" d="M1077.1,77.7c-0.5,0-0.9,0.2-1.2,0.5c-0.3,0.3-0.5,0.7-0.5,1.1c0,0.5,0.2,0.9,0.5,1.2
			c0.3,0.3,0.7,0.5,1.2,0.5c0.5,0,0.9-0.2,1.2-0.5s0.5-0.7,0.5-1.2c0-0.5-0.2-0.8-0.5-1.1C1078,77.9,1077.6,77.7,1077.1,77.7z"/>
		<path class="st0" d="M1116.1,72.4c-0.5,0-0.9,0.2-1.2,0.5s-0.5,0.7-0.5,1.1c0,0.5,0.2,0.9,0.5,1.2c0.3,0.3,0.7,0.5,1.2,0.5
			s0.9-0.2,1.2-0.5c0.3-0.3,0.5-0.7,0.5-1.2c0-0.5-0.2-0.8-0.5-1.1S1116.5,72.4,1116.1,72.4z"/>
		<path class="st0" d="M1121.2,59.4h-3.2v7.9h-3.5c-0.1,0-0.1,0-0.2,0h-1c-0.6,0-1-0.1-1.3-0.2c-0.3-0.2-0.6-0.4-0.7-0.6
			c-0.2-0.2-0.3-0.5-0.3-0.7c0-0.3-0.1-0.5-0.1-0.6c0-2.1-0.5-3.7-1.4-4.8c-1-1.2-2.3-1.7-4.2-1.7c-0.8,0-1.6,0.2-2.3,0.5
			c-0.7,0.3-1.3,0.7-1.8,1.3c-0.5,0.5-0.9,1.2-1.2,1.9c-0.3,0.8-0.4,1.6-0.4,2.5c0,0.5,0,1-0.1,1.3c-0.1,0.3-0.2,0.6-0.4,0.8
			c-0.2,0.2-0.3,0.3-0.5,0.4s-0.4,0.1-0.6,0.1h-1.1c-0.1,0-0.1,0-0.1,0h-1.5v-2.2c0-1.9-0.5-3.4-1.4-4.3s-2.4-1.4-4.4-1.4h-3.9v9.7
			c0,0.7-0.1,1.2-0.4,1.8c-0.3,0.5-0.7,0.9-1.3,1.3c-0.6,0.3-1.2,0.6-1.9,0.8c-0.7,0.2-1.6,0.3-2.5,0.3c-0.9,0-1.7-0.1-2.4-0.3
			s-1.3-0.5-1.8-0.9c-0.5-0.4-0.8-0.8-1.1-1.3c-0.2-0.5-0.4-1.1-0.4-1.7c0-0.5,0.1-1.1,0.3-1.7c0.2-0.6,0.5-1.2,0.9-1.9l-2.6-1.5
			c-0.5,0.8-1,1.6-1.3,2.5c-0.3,0.9-0.5,1.8-0.5,2.8c0,0.9,0.2,1.8,0.5,2.6c0.3,0.9,0.8,1.7,1.5,2.4c0.7,0.7,1.6,1.3,2.7,1.7
			c1.1,0.4,2.4,0.7,3.9,0.7c1.7,0,3.1-0.2,4.3-0.6c1.2-0.4,2.2-1,3-1.7c0.8-0.7,1.4-1.6,1.7-2.6c0.4-1,0.6-2,0.6-3.1v-5.9h0.3
			c0.5,0,0.9,0,1.3,0.1s0.7,0.2,1,0.4s0.4,0.5,0.6,0.9c0.1,0.4,0.2,0.9,0.2,1.5v5.1h4.8h0.2h1.1c0.6,0,1.2-0.2,1.7-0.5
			c0.5-0.4,0.9-0.8,1.1-1.4c0.4,0.6,1,1.1,1.7,1.5c0.7,0.4,1.6,0.6,2.6,0.6c0.4,0,0.9,0,1.3-0.1c0.4,0,0.8-0.1,1.2-0.3
			s0.8-0.4,1.1-0.7c0.4-0.3,0.7-0.7,1.1-1.2c0.3,0.6,0.7,1.1,1.3,1.5s1.3,0.6,2.1,0.6h0.9h0.2h6.9V59.4z M1107.2,66.6
			c-0.4,0.5-1.1,0.8-2,0.8c-0.9,0-1.6-0.3-2-0.8s-0.6-1.2-0.6-2c0-0.5,0.1-0.9,0.2-1.3s0.3-0.7,0.6-1c0.2-0.3,0.5-0.5,0.8-0.6
			c0.3-0.1,0.7-0.2,1-0.2c0.3,0,0.7,0.1,1,0.2c0.3,0.1,0.6,0.4,0.8,0.6c0.2,0.3,0.4,0.6,0.6,1c0.1,0.4,0.2,0.8,0.2,1.3
			C1107.8,65.4,1107.6,66.1,1107.2,66.6z"/>
		<path class="st0" d="M1120.4,72.4c-0.5,0-0.9,0.2-1.2,0.5c-0.3,0.3-0.5,0.7-0.5,1.1c0,0.5,0.2,0.9,0.5,1.2
			c0.3,0.3,0.7,0.5,1.2,0.5s0.9-0.2,1.2-0.5c0.3-0.3,0.5-0.7,0.5-1.2c0-0.5-0.2-0.8-0.5-1.1S1120.9,72.4,1120.4,72.4z"/>
		<path class="st0" d="M1133.4,59.4c-0.6-0.4-1.2-0.7-1.9-0.9c-0.7-0.1-1.5-0.2-2.2-0.2h-3.4v3.1h2.7c0.5,0,1,0,1.4,0.1
			c0.4,0.1,0.8,0.2,1.1,0.4c0.3,0.2,0.5,0.5,0.7,0.9c0.1,0.4,0.2,0.9,0.2,1.5v2.8h-7.6v3.2h10.9v-6.3c0-1.2-0.2-2.2-0.5-3
			C1134.4,60.4,1134,59.8,1133.4,59.4z"/>
		<path class="st0" d="M1154.2,59.8c-0.5-0.4-1.2-0.7-1.9-0.9c-0.7-0.2-1.4-0.3-2.2-0.3h-0.3l4.3-6.6l-2.6-1.8l-5.4,8.6v2.8h3.4
			c0.4,0,0.9,0,1.3,0.1s0.8,0.2,1,0.4c0.3,0.2,0.5,0.5,0.7,0.9c0.2,0.4,0.3,0.9,0.3,1.6v2.7h-8.5h-0.1h-1.8V50.5h-3.2v20h5h0.1h11.7
			v-6.2c0-1.1-0.2-2.1-0.5-2.8C1155.1,60.8,1154.7,60.2,1154.2,59.8z"/>
		<path class="st0" d="M1162.8,46.6c-0.5,0-0.9-0.1-1.2-0.4c-0.3-0.2-0.4-0.5-0.4-0.8c0-0.3,0.1-0.6,0.3-0.7
			c0.2-0.2,0.4-0.2,0.7-0.2c0.3,0,0.7,0,1,0.1l0.3-1.4c-0.2-0.1-0.4-0.1-0.7-0.1s-0.5-0.1-0.7-0.1c-0.8,0-1.5,0.2-1.9,0.6
			c-0.4,0.4-0.6,0.9-0.6,1.4c0,0.3,0.1,0.6,0.2,0.8c0.1,0.2,0.3,0.5,0.4,0.7h-1.3v1.5h4.7v-1.5H1162.8z"/>
		<rect x="1159.9" y="50.5" class="st0" width="3.2" height="20"/>
	</g>
	<g id="Group_3" transform="translate(1173.533 39.253)">
		<path id="Path_1" class="st0" d="M27.8,15.7c1.5-1,3.2-1.7,5-2.1c0.8-0.2,1.2-0.5,1.1-1.1c0-0.6-0.1-1.2,0-1.8
			c0-0.7-0.3-0.8-1.2-0.6c-0.9,0.2-1.8,0.5-2.7,0.8c-4.9,1.6-8.5,4.2-9.5,8c-0.7,3-0.4,6-0.5,9c0,0.3,0.2,0.3,0.6,0.3
			c1.2,0,2.4-0.6,3.2-1.5c0.4-0.6,0.7-1.2,0.9-1.9c0.1-0.4,0.5-0.7,1-0.7c1.1,0,2.3,0,3.4,0c0.4,0.3,0.3,0.7,0.2,1.1
			c-0.6,2.8-2.6,5-6.3,6.3c-1,0.3-2.4,0.4-2.8,1.1s-0.1,1.6-0.1,2.4c0,0,0,0.1,0,0.1c0,0.5,0.3,0.6,1,0.5c0.9-0.2,1.9-0.5,2.8-0.8
			c4.2-1.4,7.4-3.4,9.2-6.6c1.2-2.2,0.9-4.4,0.9-6.7c0-1,0-2.1,0.1-3.1c0-0.5-0.3-0.5-0.8-0.5c-0.9,0-1.8,0.4-2.6,1
			c-0.5,0.5-0.9,1-1.2,1.7c-0.2,0.5-0.6,0.8-1.2,0.8c-1,0-1.9,0-2.9,0c-0.6,0-0.9-0.2-0.8-0.7C24.9,18.7,26.1,16.9,27.8,15.7z"/>
		<path id="Path_2" class="st0" d="M26.9,45.2c-2.6,0-5.2-1-7-2.9L7.3,29.8c-3.9-3.9-3.9-10.2,0-14.1L19.8,3.2
			c3.9-3.9,10.2-3.9,14.1,0l12.5,12.5c3.9,3.9,3.9,10.2,0,14.1L33.9,42.3C32,44.2,29.5,45.2,26.9,45.2z M26.9,1.3
			c-2.4,0-4.7,0.9-6.4,2.6L8,16.4c-3.5,3.5-3.5,9.2,0,12.7l12.5,12.5c3.5,3.5,9.2,3.5,12.7,0l12.5-12.5c3.5-3.5,3.5-9.2,0-12.7
			L33.2,3.9C31.5,2.2,29.2,1.3,26.9,1.3z"/>
	</g>
</g>
</svg>
