<svg xmlns="http://www.w3.org/2000/svg" width="72.743" height="72.755" viewBox="0 0 72.743 72.755">
  <g id="logo" transform="translate(-1124.014 -18.738)">
    <g id="Group_3" data-name="Group 3" transform="translate(1124.014 18.738)">
      <path id="Path_1" data-name="Path 1" d="M1391.779,903.471a22.477,22.477,0,0,1,8.064-3.408c1.272-.287,1.939-.754,1.782-1.8a20.878,20.878,0,0,1-.024-2.933c-.008-1.06-.543-1.359-2-1-1.49.364-2.968.771-4.393,1.247-7.942,2.653-13.853,6.729-15.435,13.007-1.21,4.8-.716,9.753-.795,14.642-.008.513.4.463.9.423a7.087,7.087,0,0,0,5.166-2.39,8.743,8.743,0,0,0,1.445-3.075,1.48,1.48,0,0,1,1.611-1.087,49.312,49.312,0,0,1,5.489.08c.682.534.449,1.18.327,1.766-.959,4.609-4.266,8.029-10.173,10.152-1.572.565-3.881.675-4.573,1.733-.7,1.077-.194,2.556-.214,3.859,0,.072,0,.145,0,.217-.039.823.547,1.041,1.554.777,1.526-.4,3.074-.771,4.549-1.253,6.819-2.232,12.075-5.581,14.868-10.665,1.928-3.51,1.47-7.185,1.521-10.826.041-1.665.052-3.332.136-5,.038-.739-.483-.855-1.329-.778a6.931,6.931,0,0,0-4.16,1.635,8.749,8.749,0,0,0-1.89,2.71,1.891,1.891,0,0,1-1.879,1.225c-1.579.008-3.158.018-4.738.009-.971-.006-1.38-.384-1.23-1.06A12.956,12.956,0,0,1,1391.779,903.471Z" transform="translate(-1353.855 -878.607)" fill="#fff"/>
      <path id="Path_2" data-name="Path 2" d="M1306.013,916.016a16.074,16.074,0,0,1-11.4-4.715l-20.261-20.261a16.169,16.169,0,0,1,0-22.8l20.261-20.261a16.142,16.142,0,0,1,22.8,0l20.261,20.261a16.143,16.143,0,0,1,0,22.8L1317.414,911.3A16.074,16.074,0,0,1,1306.013,916.016Zm0-71.208a14.527,14.527,0,0,0-10.306,4.263l-20.261,20.261a14.621,14.621,0,0,0,0,20.613l20.261,20.261a14.591,14.591,0,0,0,20.613,0l20.261-20.261a14.592,14.592,0,0,0,0-20.613l-20.261-20.261A14.532,14.532,0,0,0,1306.013,844.809Z" transform="translate(-1269.647 -843.261)" fill="#fff"/>
    </g>
  </g>
</svg>
