<svg xmlns="http://www.w3.org/2000/svg" width="35.5" height="30.927" viewBox="0 0 35.5 30.927">
  <path id="message" d="M33.321,14.947a83.833,83.833,0,0,0-25.126,0H8.156a2.874,2.874,0,0,0-2.248,2.209A52.961,52.961,0,0,0,5,26.622a52.29,52.29,0,0,0,.947,9.9,2.834,2.834,0,0,0,2.169,2.209,48.212,48.212,0,0,0,9.112.907,43.772,43.772,0,0,0,9.782-1.1.864.864,0,0,1,.749.118l4.1,2.051a2.9,2.9,0,0,0,.828.276h.039a1.342,1.342,0,0,0,.394.039,2.755,2.755,0,0,0,2.722-2.367,71.854,71.854,0,0,0,.671-10.1,67.458,67.458,0,0,0-.907-11.4A2.722,2.722,0,0,0,33.321,14.947Zm.986,23.469a.974.974,0,0,1-.473.749,1.174,1.174,0,0,1-.828.237c-.158-.039-.276-.039-.355-.118l-.039-.039-4.142-2.051a2.817,2.817,0,0,0-1.223-.316,3.045,3.045,0,0,0-.592.079,40.729,40.729,0,0,1-9.427,1.1,45.007,45.007,0,0,1-8.8-.907,1.132,1.132,0,0,1-.907-.947,49.052,49.052,0,0,1-.947-9.585,49.268,49.268,0,0,1,.907-9.151,1.174,1.174,0,0,1,.986-.947,81.989,81.989,0,0,1,24.653,0,1.13,1.13,0,0,1,.986.947,63.653,63.653,0,0,1,.907,11.084A74.189,74.189,0,0,1,34.307,38.416ZM40.5,24.61a59.978,59.978,0,0,1-1.183,12.78.8.8,0,0,1-.749.631h-.158a.756.756,0,0,1-.592-.947A56.634,56.634,0,0,0,39,24.61a63.653,63.653,0,0,0-.907-11.084,1.174,1.174,0,0,0-.986-.947,80.977,80.977,0,0,0-25.994.237.781.781,0,0,1-.276-1.538A82.781,82.781,0,0,1,37.3,11.042a2.813,2.813,0,0,1,2.327,2.209A71.159,71.159,0,0,1,40.5,24.61ZM29.85,28.989a.791.791,0,0,1-.789.789H16.439a.789.789,0,1,1,0-1.578H29.061A.791.791,0,0,1,29.85,28.989Zm0-5.917a.791.791,0,0,1-.789.789H12.494a.789.789,0,0,1,0-1.578H29.061A.791.791,0,0,1,29.85,23.072Z" transform="translate(-5 -10.092)" fill="#fff"/>
</svg>
