<svg xmlns="http://www.w3.org/2000/svg" xmlns:xlink="http://www.w3.org/1999/xlink" width="26.038" height="26.038" viewBox="0 0 26.038 26.038">
  <defs>
    <linearGradient id="linear-gradient" x1="1.087" y1="1.182" x2="0.332" y2="0.444" gradientUnits="objectBoundingBox">
      <stop offset="0" stop-color="#5899cf"/>
      <stop offset="1" stop-color="#19bdc1"/>
    </linearGradient>
  </defs>
  <g id="resume" transform="translate(-0.007)">
    <g id="Group_5110" data-name="Group 5110" transform="translate(0.007)">
      <g id="Group_5109" data-name="Group 5109" transform="translate(0)">
        <path id="Path_5088" data-name="Path 5088" d="M21.061,7.565a.509.509,0,0,0,.509-.509V1.526A1.527,1.527,0,0,0,20.044,0H1.533A1.527,1.527,0,0,0,.007,1.526V24.513a1.527,1.527,0,0,0,1.526,1.526H20.044a1.527,1.527,0,0,0,1.526-1.526V20.766a.509.509,0,0,0-1.017,0v3.747a.509.509,0,0,1-.509.509H1.533a.509.509,0,0,1-.509-.509V1.526a.509.509,0,0,1,.509-.509H20.044a.509.509,0,0,1,.509.509V7.056A.509.509,0,0,0,21.061,7.565Z" transform="translate(-0.007)" fill="url(#linear-gradient)"/>
      </g>
    </g>
    <g id="Group_5112" data-name="Group 5112" transform="translate(6.11 2.746)">
      <g id="Group_5111" data-name="Group 5111">
        <path id="Path_5089" data-name="Path 5089" d="M124.686,54a4.676,4.676,0,0,0-3.21,8.079.5.5,0,0,0,.055.051,4.67,4.67,0,0,0,6.311,0,.508.508,0,0,0,.055-.051A4.676,4.676,0,0,0,124.686,54Zm0,8.34a3.642,3.642,0,0,1-2.212-.746,2.543,2.543,0,0,1,4.424,0A3.642,3.642,0,0,1,124.686,62.34Zm-.814-3.865v-.331a.814.814,0,1,1,1.627,0v.331a.814.814,0,1,1-1.627,0Zm3.76,2.374a3.528,3.528,0,0,0-1.5-1.256,1.821,1.821,0,0,0,.383-1.118v-.331a1.831,1.831,0,0,0-3.662,0v.331a1.821,1.821,0,0,0,.383,1.118,3.528,3.528,0,0,0-1.5,1.256,3.662,3.662,0,1,1,5.893,0Z" transform="translate(-120.007 -54)" fill="url(#linear-gradient)"/>
      </g>
    </g>
    <g id="Group_5114" data-name="Group 5114" transform="translate(10.28 22.275)">
      <g id="Group_5113" data-name="Group 5113">
        <path id="Path_5090" data-name="Path 5090" d="M205.262,438h-2.746a.509.509,0,0,0,0,1.017h2.746a.509.509,0,0,0,0-1.017Z" transform="translate(-202.007 -438)" fill="url(#linear-gradient)"/>
      </g>
    </g>
    <g id="Group_5116" data-name="Group 5116" transform="translate(5.805 19.427)">
      <g id="Group_5115" data-name="Group 5115">
        <path id="Path_5091" data-name="Path 5091" d="M121.737,382h-7.222a.509.509,0,1,0,0,1.017h7.222a.509.509,0,1,0,0-1.017Z" transform="translate(-114.007 -382)" fill="url(#linear-gradient)"/>
      </g>
    </g>
    <g id="Group_5118" data-name="Group 5118" transform="translate(5.805 16.579)">
      <g id="Group_5117" data-name="Group 5117">
        <path id="Path_5092" data-name="Path 5092" d="M121.737,326h-7.222a.509.509,0,1,0,0,1.017h7.222a.509.509,0,1,0,0-1.017Z" transform="translate(-114.007 -326)" fill="url(#linear-gradient)"/>
      </g>
    </g>
    <g id="Group_5120" data-name="Group 5120" transform="translate(3.632 13.731)">
      <g id="Group_5119" data-name="Group 5119">
        <path id="Path_5093" data-name="Path 5093" d="M72.156,270.149a.508.508,0,1,0,.149.36A.512.512,0,0,0,72.156,270.149Z" transform="translate(-71.287 -270)" fill="url(#linear-gradient)"/>
      </g>
    </g>
    <g id="Group_5122" data-name="Group 5122" transform="translate(3.632 16.579)">
      <g id="Group_5121" data-name="Group 5121">
        <path id="Path_5094" data-name="Path 5094" d="M72.156,326.149a.508.508,0,1,0,.149.36A.513.513,0,0,0,72.156,326.149Z" transform="translate(-71.287 -326)" fill="url(#linear-gradient)"/>
      </g>
    </g>
    <g id="Group_5124" data-name="Group 5124" transform="translate(3.632 19.427)">
      <g id="Group_5123" data-name="Group 5123">
        <path id="Path_5095" data-name="Path 5095" d="M72.156,382.149a.508.508,0,1,0,.149.36A.513.513,0,0,0,72.156,382.149Z" transform="translate(-71.287 -382)" fill="url(#linear-gradient)"/>
      </g>
    </g>
    <g id="Group_5126" data-name="Group 5126" transform="translate(5.805 13.731)">
      <g id="Group_5125" data-name="Group 5125">
        <path id="Path_5096" data-name="Path 5096" d="M121.737,270h-7.222a.509.509,0,1,0,0,1.017h7.222a.509.509,0,1,0,0-1.017Z" transform="translate(-114.007 -270)" fill="url(#linear-gradient)"/>
      </g>
    </g>
    <g id="Group_5128" data-name="Group 5128" transform="translate(15.141 6.34)">
      <g id="Group_5127" data-name="Group 5127">
        <path id="Path_5097" data-name="Path 5097" d="M307.425,124.962a2.136,2.136,0,0,0-2.918.782l-6.4,11.085a.509.509,0,0,0-.065.2l-.451,4.035a.509.509,0,0,0,.807.466l3.269-2.408a.508.508,0,0,0,.139-.155l6.4-11.085A2.138,2.138,0,0,0,307.425,124.962Zm-8.693,15.057.235-2.107,1.472.85Zm2.449-2-1.938-1.119,5.136-8.9,1.938,1.119Zm6.146-10.644-.5.868-1.938-1.119.5-.868a1.119,1.119,0,0,1,1.938,1.119Z" transform="translate(-297.589 -124.675)" fill="url(#linear-gradient)"/>
      </g>
    </g>
  </g>
</svg>
