<svg xmlns="http://www.w3.org/2000/svg" width="18" height="22" viewBox="0 0 18 22">
  <path id="security-warning" d="M20.12,5.12,16.59,1.59A2,2,0,0,0,15.17,1H8.83a2,2,0,0,0-1.42.59L3.88,5.12A3,3,0,0,0,3,7.24v5.85A8,8,0,0,0,6.09,19.4l4.08,3.18A2,2,0,0,0,11.4,23h1.2a2,2,0,0,0,1.23-.42l4.08-3.18A8,8,0,0,0,21,13.09V7.24a3,3,0,0,0-.88-2.12ZM13,15.5a.5.5,0,0,1-.5.5h-1a.5.5,0,0,1-.5-.5v-1a.5.5,0,0,1,.5-.5h1a.5.5,0,0,1,.5.5Zm-.22-3.72a.25.25,0,0,1-.25.22H11.47a.25.25,0,0,1-.25-.22l-.4-3.22a.5.5,0,0,1,.5-.56h1.36a.5.5,0,0,1,.5.56Z" transform="translate(-3 -1)" fill="#ff2d55"/>
</svg>
