<svg xmlns="http://www.w3.org/2000/svg" width="18.682" height="20.532" viewBox="0 0 18.682 20.532">
  <g id="Слой_2" data-name="Слой 2" transform="translate(0.003 0.002)">
    <g id="Icons">
      <path id="Serch" d="M17.69,20.53a1,1,0,0,1-.75-.34l-3.86-4.37A8.556,8.556,0,1,1,8.75,0,8.63,8.63,0,0,1,17.1,7.91a8.54,8.54,0,0,1-.52,3.67,1,1,0,0,1-1.87-.71A6.57,6.57,0,0,0,8.71,2,6.46,6.46,0,0,0,3.55,4.33a6.57,6.57,0,0,0,8.5,9.8,2,2,0,0,1,2.52.37l3.86,4.37a1,1,0,0,1-.75,1.66Z" fill="#19bdc1"/>
    </g>
  </g>
</svg>
