<svg id="hand" xmlns="http://www.w3.org/2000/svg" width="52.192" height="52.131" viewBox="0 0 52.192 52.131">
  <path id="Path_89" data-name="Path 89" d="M39.857,373.019c-.518.282-1.044.573-1.577.868-4.505,2.493-9.611,5.319-14.52,4.882L6.382,377.22c-.023,0-.045,0-.068,0H1.529v-8.586H6.314a.766.766,0,0,0,.493-.18,19.532,19.532,0,0,1,2.336-1.611.764.764,0,1,0-.782-1.313A22.257,22.257,0,0,0,6.044,367.1H.764a.764.764,0,0,0-.764.764v10.115a.764.764,0,0,0,.764.764H6.28l17.345,1.546q.587.052,1.173.052c4.973,0,9.867-2.709,14.222-5.119.529-.293,1.052-.582,1.567-.862a.764.764,0,0,0-.73-1.343Z" transform="translate(0 -328.211)" fill="#fff"/>
  <path id="Path_90" data-name="Path 90" d="M146.222,302.512a2.913,2.913,0,0,0-3.458-.937,2.645,2.645,0,0,0-3.872-2.175l-1.825.96a2.622,2.622,0,0,0-3.868-2.168l-1.365.739a2.706,2.706,0,0,0-3.959-2.274l-9.832,5.148a16.851,16.851,0,0,0-8.747-.8,17.294,17.294,0,0,0-3.466,1.052.764.764,0,0,0,.587,1.411,15.765,15.765,0,0,1,3.158-.96,15.42,15.42,0,0,1,8.2.841l.008,0,.025.01c.021.008.042.016.063.022l.031.008c.021.005.042.01.064.013l.03,0a.759.759,0,0,0,.085.006h10.24a1.32,1.32,0,0,1,.166,2.63l-12.97,1.64a.764.764,0,0,0,0,1.517l5.508.663a25.21,25.21,0,0,0,15.337-3l6.883-3.82a1.4,1.4,0,0,1,1.311,2.465l-7.39,4.02a.764.764,0,1,0,.73,1.343l7.389-4.02a2.925,2.925,0,0,0,.936-4.332Zm-12.3-2.976a1.1,1.1,0,1,1,1.032,1.934h0l-4.031,2.121a2.864,2.864,0,0,0-1.646-1.541l1.138-.616h0Zm-5.342-1.525a1.178,1.178,0,0,1,1.107,2.079l-3.311,1.792H121.19Zm7.036,7.509a23.68,23.68,0,0,1-13.732,2.9l6.785-.858a2.855,2.855,0,0,0,2.45-2.343l4.546-2.392h0l3.933-2.069a1.122,1.122,0,0,1,1.429.339,1.118,1.118,0,0,1-.366,1.628Z" transform="translate(-94.621 -266.175)" fill="#fff"/>
  <path id="Path_91" data-name="Path 91" d="M104.746,16.436a.764.764,0,0,0,.291-1.041,11,11,0,0,1-1.508-6.964c.523-3.825,2.928-6.284,6.432-6.578,3.189-.268,6.18,1.4,6.957,3.88a.764.764,0,0,0,1.459,0c.777-2.48,3.769-4.148,6.957-3.88,3.5.295,5.909,2.754,6.432,6.578a11.057,11.057,0,0,1-1.587,7.1,23.123,23.123,0,0,1-5.005,5.8,41.929,41.929,0,0,1-7.526,5.1c-1.447-.756-7.257-3.969-10.983-8.64a.764.764,0,0,0-1.2.953c4.474,5.61,11.545,9.087,11.844,9.233a.77.77,0,0,0,.668,0,42.228,42.228,0,0,0,8.166-5.465,24.68,24.68,0,0,0,5.347-6.2,12.551,12.551,0,0,0,1.785-8.087,9.24,9.24,0,0,0-2.819-5.767,8.366,8.366,0,0,0-5-2.127A9.345,9.345,0,0,0,120.247,1.4a7.248,7.248,0,0,0-2.6,2.343,7.25,7.25,0,0,0-2.6-2.343A9.346,9.346,0,0,0,109.834.33a8.365,8.365,0,0,0-5,2.127,9.24,9.24,0,0,0-2.819,5.767,12.486,12.486,0,0,0,1.69,7.92A.764.764,0,0,0,104.746,16.436Z" transform="translate(-91.526 -0.297)" fill="#fff"/>
  <path id="Path_92" data-name="Path 92" d="M186.345,97.466a1.483,1.483,0,1,0-1.483,1.483A1.485,1.485,0,0,0,186.345,97.466Z" transform="translate(-164.692 -86.232)" fill="#fff"/>
  <path id="Path_93" data-name="Path 93" d="M303.159,97.466a1.483,1.483,0,1,0-1.483,1.483A1.485,1.485,0,0,0,303.159,97.466Z" transform="translate(-269.602 -86.232)" fill="#fff"/>
  <path id="Path_94" data-name="Path 94" d="M227.424,130.151a3.387,3.387,0,0,0,3.246-2.384.764.764,0,1,0-1.459-.457,1.873,1.873,0,0,1-3.574,0,.764.764,0,1,0-1.459.457A3.386,3.386,0,0,0,227.424,130.151Z" transform="translate(-201.302 -113.886)" fill="#fff"/>
</svg>
