<svg id="student" xmlns="http://www.w3.org/2000/svg" width="39.99" height="39.858" viewBox="0 0 39.99 39.858">
  <g id="Group_85" data-name="Group 85" transform="translate(0 8.636)">
    <g id="Group_81" data-name="Group 81" transform="translate(0 16.653)">
      <path id="Path_178" data-name="Path 178" d="M39.193,33.6H.664A.628.628,0,0,1,0,32.939V31.345a10.881,10.881,0,0,1,7.174-10.1l4.251-2.126a.626.626,0,0,1,.8.133,10.545,10.545,0,0,0,7.706,3.587,10.772,10.772,0,0,0,7.706-3.587.626.626,0,0,1,.8-.133l4.517,2.524A10.586,10.586,0,0,1,39.99,31.61v1.2c0,.133-.133.4-.133.531S39.326,33.6,39.193,33.6ZM1.329,32.275h37.2v-.531a9.307,9.307,0,0,0-6.244-8.769h-.133l-4.119-2.259A11.95,11.95,0,0,1,19.8,24.3a11.325,11.325,0,0,1-8.237-3.72L7.706,22.576a9.378,9.378,0,0,0-6.377,8.769v.93Z" transform="translate(0 -19.034)" fill="#254a5d"/>
    </g>
    <g id="Group_82" data-name="Group 82" transform="translate(14.614 5.979)">
      <path id="Path_179" data-name="Path 179" d="M12.993,12.329H11.664a.664.664,0,0,1,0-1.329h1.329a.664.664,0,0,1,0,1.329Z" transform="translate(-11 -11)" fill="#254a5d"/>
    </g>
    <g id="Group_83" data-name="Group 83" transform="translate(22.586 5.979)">
      <path id="Path_180" data-name="Path 180" d="M18.993,12.329H17.664a.664.664,0,1,1,0-1.329h1.329a.664.664,0,1,1,0,1.329Z" transform="translate(-17 -11)" fill="#254a5d"/>
    </g>
    <g id="Group_84" data-name="Group 84" transform="translate(7.972)">
      <path id="Path_181" data-name="Path 181" d="M17.824,25.764c-4.119,0-7.972-3.587-9.433-8.636h0C7.063,17.129,6,15.4,6,13.143c0-2.126.531-3.454,1.329-3.853V7.164a.664.664,0,0,1,1.329,0V9.423c0,.4,0,.664-.133.8a1.007,1.007,0,0,1-.531.266c-.266,0-.664.8-.664,2.657,0,1.594.664,2.657,1.063,2.657h.133a.593.593,0,0,1,.664,0c.133.133.4.266.4.4,1.2,4.783,4.783,8.237,8.37,8.237,3.986,0,7.573-3.189,8.636-7.573a.352.352,0,0,1,.4-.4c.133-.133.4,0,.664,0h.133c.4,0,1.063-1.063,1.063-2.657,0-1.86-.4-2.657-.664-2.657h0c-.664,0-.93-.266-.93-.664V7.164a.664.664,0,0,1,1.329,0v2.79c.8.4,1.329,1.727,1.329,3.853,0,2.259-1.063,3.986-2.391,3.986h0C26.062,22.443,22.076,25.764,17.824,25.764Z" transform="translate(-6 -6.5)" fill="#254a5d"/>
    </g>
  </g>
  <g id="Group_86" data-name="Group 86" transform="translate(5.314)">
    <path id="Path_182" data-name="Path 182" d="M19.279,6.643h0L4.664,5.314A.628.628,0,0,1,4,4.65a.678.678,0,0,1,.531-.664L17.817,0h.266L32.7,1.329a.571.571,0,0,1,.531.531c0,.266-.133.664-.531.664L19.412,6.51A.13.13,0,0,1,19.279,6.643ZM8.119,4.251,19.146,5.314l9.832-2.923L18.083,1.329Z" transform="translate(-4)" fill="#254a5d"/>
  </g>
  <g id="Group_87" data-name="Group 87" transform="translate(9.3 2.657)">
    <path id="Path_183" data-name="Path 183" d="M17.629,11.3c-6.643,0-10.1-1.993-10.23-2.126-.266-.133-.4-.266-.4-.531V4.657a.664.664,0,1,1,1.329,0V8.244a24.413,24.413,0,0,0,9.3,1.727,24.413,24.413,0,0,0,9.3-1.727V2.664a.664.664,0,1,1,1.329,0V8.643c0,.266-.133.4-.4.531C27.726,9.307,24.272,11.3,17.629,11.3Z" transform="translate(-7 -2)" fill="#254a5d"/>
  </g>
  <g id="Group_88" data-name="Group 88" transform="translate(31.886 1.329)">
    <path id="Path_184" data-name="Path 184" d="M25.993,15.614a.731.731,0,0,1-.664-.4L24,11.23V10.7l1.329-2.524V1.664a.664.664,0,1,1,1.329,0v6.51l1.2,2.524c.133.133.133.266.133.531l-1.329,3.986A.731.731,0,0,1,25.993,15.614Zm-.664-4.65.664,1.86.664-1.86-.664-1.2Z" transform="translate(-24 -1)" fill="#254a5d"/>
  </g>
</svg>
