<svg xmlns="http://www.w3.org/2000/svg" width="63" height="57"><defs><linearGradient id="a" x1="100%" x2="0%" y1="90.5%" y2="9.5%"><stop offset="0%" stop-color="#0C9EE2"/><stop offset="100%" stop-color="#00D0D3"/></linearGradient></defs><path fill="url(#a)" fill-rule="nonzero" d="M977.84 365c1.66 0 3.02 1.3 3.12 2.94v1.22h7.28a4.16 4.16 0 014.15 3.95l.01.21V417a4.16 4.16 0 01-3.95 4.15l-.21.01h-54.08a4.16 4.16 0 01-4.15-3.95L930 417v-43.68a4.16 4.16 0 013.95-4.15l.21-.01h7.28v-1.04a3.12 3.12 0 016.24-.18v1.22h10.4v-1.04a3.12 3.12 0 016.24-.18v1.22h10.4v-1.04c0-1.72 1.4-3.12 3.12-3.12zm12.48 14.56h-58.24V417c0 1.1.85 2 1.93 2.07l.15.01h54.08c1.1 0 2-.85 2.07-1.93l.01-.15v-37.44zm-16.64 27.04a4.16 4.16 0 110 8.32 4.16 4.16 0 010-8.32zm-10.4 0a4.16 4.16 0 110 8.32 4.16 4.16 0 010-8.32zm20.8 0a4.16 4.16 0 110 8.33 4.16 4.16 0 010-8.33zm-32.24 5.2v2.08h-2.08v-2.08h2.08zm-4.16 0v2.08h-2.08v-2.08h2.08zm-4.16 0v2.08h-2.08v-2.08h2.08zm40.56-3.12a2.08 2.08 0 100 4.16 2.08 2.08 0 000-4.16zm-10.4 0a2.08 2.08 0 100 4.16 2.08 2.08 0 000-4.16zm-10.4 0a2.08 2.08 0 100 4.16 2.08 2.08 0 000-4.16zm-12.48-24.96c.54 0 .98.4 1.03.93l.01.11v3.12h2.08c.54 0 .98.4 1.03.93l.01.11v19.76c0 .54-.4.98-.93 1.03l-.11.01h-16.64c-.54 0-.98-.4-1.03-.93l-.01-.11v-19.76c0-.54.4-.98.93-1.03l.11-.01h4.16v-3.12c0-.54.4-.98.93-1.03l.11-.01h8.32zm-2.08 20.8c-.54 0-.98.4-1.03.93l-.01.11v2.08h2.08v-2.08c0-.57-.47-1.04-1.04-1.04zm4.16-3.12h-8.32v6.24h1.04v-2.08a3.12 3.12 0 016.24-.18V407.64h1.04v-6.24zm-10.4 5.2h-4.16v1.04h4.16v-1.04zm0-16.64h-4.16v14.56h4.16v-14.56zm41.6 6.24a4.16 4.16 0 110 8.33 4.16 4.16 0 010-8.33zm-20.8 0a4.16 4.16 0 110 8.32 4.16 4.16 0 010-8.32zm12.36 4.85l1.96.7a4.16 4.16 0 01-7.77.2l-.07-.2 1.96-.7a2.08 2.08 0 003.86.16l.06-.16zm-34.2-.69v2.08h-2.08v-2.08h2.08zm42.64-2.08a2.08 2.08 0 100 4.16 2.08 2.08 0 000-4.16zm-20.8 0a2.08 2.08 0 100 4.16 2.08 2.08 0 000-4.16zm14.8-4.83a1.04 1.04 0 011.68 1.23l-.08.1-5.2 6.25c-.16.19-.38.32-.63.36l-.15.01h-.02c-.23 0-.45-.08-.63-.21l-.1-.1-2.09-2.07a1.04 1.04 0 011.38-1.56l.1.08 1.27 1.28 4.47-5.37zm-25.2-3.49h-8.32v9.36h8.32v-9.36zm-11.44 6.24v2.08h-2.08v-2.08h2.08zm8.32-1.04a1.04 1.04 0 01.11 2.07l-.11.01h-2.08a1.04 1.04 0 01-.11-2.07l.11-.01h2.08zm23.92-9.36a4.16 4.16 0 110 8.32 4.16 4.16 0 010-8.32zm10.4 0a4.16 4.16 0 110 8.32 4.16 4.16 0 010-8.32zm-20.8 0a4.16 4.16 0 110 8.32 4.16 4.16 0 010-8.32zm-13.52 6.24a1.04 1.04 0 01.11 2.07l-.11.01h-2.08a1.04 1.04 0 01-.11-2.07l.11-.01h2.08zm-8.32 0v2.08h-2.08v-2.08h2.08zm21.84-4.16a2.08 2.08 0 100 4.16 2.08 2.08 0 000-4.16zm10.4 0a2.08 2.08 0 100 4.16 2.08 2.08 0 000-4.16zm10.4 0a2.08 2.08 0 100 4.16 2.08 2.08 0 000-4.16zm-34.32-2.08h-6.24v2.08h6.24v-2.08zm29.12-4.16v2.08h-9.36v-2.08h9.36zm-37.44-10.4h-7.28c-1.1 0-2 .85-2.07 1.93l-.01.15v4.16h58.24v-4.16c0-1.1-.85-2-1.93-2.07l-.15-.01h-7.28v1.04a3.12 3.12 0 01-6.24.18v-1.22h-10.4v1.04a3.12 3.12 0 01-6.24.18v-1.22h-10.4v1.04a3.12 3.12 0 01-6.24.18v-1.22zm36.4-4.16c-.54 0-.98.4-1.03.93l-.01.11v4.16a1.04 1.04 0 002.07.11l.01-.11v-4.16c0-.57-.47-1.04-1.04-1.04zm-16.64 0c-.54 0-.98.4-1.03.93l-.01.11v4.16a1.04 1.04 0 002.07.11l.01-.11v-4.16c0-.57-.47-1.04-1.04-1.04zm-16.64 0c-.54 0-.98.4-1.03.93l-.01.11v4.16a1.04 1.04 0 002.07.11l.01-.11v-4.16c0-.57-.47-1.04-1.04-1.04z" transform="translate(-930 -365)"/></svg>