<svg xmlns="http://www.w3.org/2000/svg" width="60" height="60"><defs><linearGradient id="a" x1="100%" x2="0%" y1="100%" y2="0%"><stop offset="0%" stop-color="#0C9EE2"/><stop offset="100%" stop-color="#00D0D3"/></linearGradient></defs><path fill="url(#a)" fill-rule="nonzero" d="M751.96 499v32.27l2.7 1.8c.42.28.9.45 1.4.48l.2.01h6.26v1.92h-6.25c-.86 0-1.7-.23-2.43-.66l-.24-.15-6.7-4.47a2.87 2.87 0 00-1.39-.47l-.21-.01h-.6l-.78 2.91a2.87 2.87 0 01-.17 5.73h-10.73a2.88 2.88 0 00-2.87 2.71v.17h8.37c1.4 0 2.78.2 4.12.6l.44.14 1.62.54c2.1.7 4.4.83 6.57.36l.4-.1 4.47-1.11c.98-.24 1.99-.39 3-.42l.5-.01h2.88v1.92h-2.88c-.87 0-1.75.1-2.6.27l-.43.1-4.47 1.12-.18.03v8.08h-12.48v5.76H703v-53.76h12.48V499h36.48zm-1.92 1.92H717.4v5.76h-12.48v49.92h32.64v-7.76c-.16.03-.32.06-.48.07l-.24.01h-.19l-.3 1.2-1.86-.47.3-1.2a3.49 3.49 0 01-1.7-3.72l.05-.23.37-1.34h-3.37a1.92 1.92 0 01-1.92-1.92l.02-.14a3 3 0 01-3.11-4.83l.13-.15 1.6-1.6h-3.7v-1.92h5.63l1.92-1.92h-7.55v-1.92h9.56c.76-.56 1.65-.9 2.6-.95l.25-.01h1.99v-21.12h-18.24v-1.92h20.16v16.3l2.67-9.87a3.51 3.51 0 013.18-2.58l.2-.01h.31a3.5 3.5 0 013.43 4.2l-.05.22-4 14.78h.08c.86 0 1.69.23 2.42.66l.24.15 2.08 1.38v-29.07zM731.8 551.8v1.92h-10.56v-1.92h10.56zm3.84 0v1.92h-1.92v-1.92h1.92zm-21.12-11.52v1.92h-5.76v7.68h7.68v-3.84h1.92v5.76h-11.52v-11.52h7.68zm26.48 3.14l-.78 2.91c-.12.45-.33.85-.6 1.2l-.14.17v3.14h10.56v-5.85a14.37 14.37 0 01-5.5-.51l-.45-.14-1.62-.54c-.36-.12-.73-.22-1.1-.3l-.37-.08zm-19.48-6.7l1.36 1.36-10.28 10.28-2.6-2.6 1.36-1.36 1.24 1.24 8.92-8.92zm17 6.44h-3.02l-.5 1.85c-.04.13-.06.27-.06.4 0 .83.64 1.51 1.44 1.58l.15.01h.3c.67 0 1.27-.42 1.5-1.04l.04-.13.71-2.65-.28-.01-.28-.01zm-1.38-13.44h-1.57a2.9 2.9 0 00-1.88.7l-.15.14-6.92 6.92c-.2.2-.32.48-.32.76a1.08 1.08 0 001.75.84l.1-.08 4.99-5c.8-.8 1.84-1.27 2.96-1.37l.26-.01.78-2.9zm-1.33 4.9c-.42.11-.82.31-1.15.6l-.16.14-1.08 1.08h1.9l.5-1.82zm5.56-13.18l-4.06 15h3.6l3.75-13.9-3.3-1.1zm2.21 13.08h-.17l-.52 1.92h.7a.96.96 0 00.1-1.91l-.1-.01zm-29.06-10.56v1.92h-5.76v7.68h7.68v-3.84h1.92v5.76h-11.52v-11.52h7.68zm7-3.56l1.36 1.36-10.28 10.28-2.6-2.6 1.36-1.36 1.24 1.24 8.92-8.92zm14.12 4.52v1.92h-12.48v-1.92h12.48zm6.76-7.3l-.53 1.96 3.3 1.1.52-1.96-3.3-1.1zm-10.6-9.02v9.6h-24.96v-9.6h24.96zm14.04 1.92h-.31c-.67 0-1.26.42-1.49 1.04l-.04.13-1.1 4.08 3.3 1.1 1.17-4.35a1.58 1.58 0 00-1.39-2h-.14zm-15.96 0h-21.12v5.76h21.12v-5.76zm-17.28 1.92v1.92h-1.92v-1.92h1.92zm3.84 0v1.92h-1.92v-1.92h1.92zm3.84 0v1.92h-1.92v-1.92h1.92zm3.84 0v1.92h-1.92v-1.92h1.92zm3.84 0v1.92h-1.92v-1.92h1.92z" transform="translate(-703 -499)"/></svg>