<svg xmlns="http://www.w3.org/2000/svg" width="67" height="67"><title>13</title><desc>Created with Sketch.</desc><defs><linearGradient id="a" x1="100%" x2="0%" y1="100%" y2="0%"><stop stop-color="#0C9EE2" offset="0%"/><stop stop-color="#00D0D3" offset="100%"/></linearGradient></defs><g fill="none"><g fill="url(#a)" fill-rule="nonzero" transform="translate(-381 -496)"><path d="M407.43 496c.72 0 1.3.6 1.3 1.3 0 .72-.56 1.3-1.26 1.32h-14.69V532.88l10.82 10.83 1.26-1.13c2.64-2.4 6.07-3.72 9.64-3.72.1 0 .2 0 .28 0h.14l-4.48-4.48-.5.5c-1.33 1.33-3.1 2.07-5 2.07-1.88 0-3.65-.74-5-2.07-1.32-1.33-2.05-3.1-2.05-5 0-1.85.7-3.6 2-4.93l.05-.06 4.75-4.74 8.82-20.72c.17-.4.53-.7.95-.77.42-.08.84.05 1.15.33l.03.03 6.25 6.27c.87-.53 1.86-.82 2.9-.82 1.5 0 2.88.58 3.94 1.63 1.05 1.05 1.62 2.45 1.62 3.94 0 1-.26 1.97-.77 2.82l-.05.07 6.26 6.27c.3.3.45.75.37 1.17-.08.42-.36.76-.74.94l-.04.02-19.16 8.16 4.4 4.4c.5.5.5 1.3.02 1.82l-.03.03-3.4 3.4c2.53.5 4.88 1.66 6.82 3.4l.1.07 1.25 1.14 10.82-10.82V515.1c0-.72.6-1.3 1.3-1.3.72 0 1.3.56 1.32 1.27v1.44h.02l8.64 6.73c.3.24.5.6.5 1v32.1c0 3.64-2.93 6.6-6.56 6.67h-53.77c-3.64 0-6.6-2.93-6.67-6.56v-32.17c0-.42.2-.78.5-1.02l8.63-6.94h.03v-19c0-.7.57-1.28 1.27-1.3h16zm14.95 48.5c-4.45-4.03-11.13-4.07-15.63-.1l-.13.1-10.27 9.34h6.72c.72 0 1.3.6 1.3 1.3 0 .72-.56 1.3-1.26 1.32H393.48l-4.33 3.92h50.72l-17.48-15.87zm-38.76-17.08v28.9c0 1.56.88 2.9 2.16 3.6.02-.03.05-.06.07-.08l.04-.03 15.76-14.33-18.04-18.05zm61.76 0l-18.04 18.05 15.77 14.34c.05.04.1.08.12.1 1.27-.66 2.14-1.98 2.16-3.5v-28.97zm-36.94 26.42c.34 0 .68.14.92.38.24.25.38.58.38.93 0 .34-.14.68-.38.92-.24.25-.58.4-.92.4-.35 0-.7-.15-.93-.4-.23-.24-.37-.58-.37-.92 0-.35.14-.68.38-.93.25-.24.6-.38.94-.38zm5.5-22.97l-1.65 1.65 3.9 3.92 1.66-1.65-3.92-3.93zm-8.13-8.14l-4 4c-.83.84-1.3 1.96-1.3 3.15 0 1.18.47 2.3 1.3 3.14.84.84 1.96 1.3 3.15 1.3 1.16 0 2.26-.44 3.1-1.25l.04-.05 4-4-6.3-6.3zm33.04-2.92v10.47l5.88-5.88-5.88-4.6zm-48.68-.16l-5.9 4.73 5.9 5.9v-10.63zm22.72-12.03l-5.52 12.98 6.88 6.9 12.97-5.54-14.32-14.33zm2.3-5.37l-1.2 2.78 15.83 15.83 2.8-1.18-17.43-17.42zm-12.06 8.43c.73 0 1.3.58 1.3 1.3 0 .72-.55 1.3-1.26 1.3h-6.34c-.73 0-1.3-.57-1.3-1.3 0-.7.56-1.28 1.26-1.3h6.34zm21.68-3.6c-.3 0-.6.06-.87.14l-.07.03 3.73 3.72c.1-.3.15-.6.15-.93 0-.8-.3-1.53-.87-2.1-.55-.54-1.3-.85-2.08-.85zm12.82-.92c.72 0 1.3.6 1.3 1.3 0 .72-.56 1.3-1.26 1.32H434.9c-.72 0-1.3-.58-1.3-1.3 0-.72.56-1.3 1.27-1.32h2.75zm-30.7-2.8c.33 0 .67.13.92.37.24.25.38.6.38.94 0 .34-.14.68-.38.92-.25.25-.6.4-.93.4-.33 0-.67-.15-.92-.4-.24-.24-.38-.58-.38-.92 0-.35.14-.7.38-.93.25-.23.6-.37.93-.37zm-4.85 0c.73 0 1.3.57 1.3 1.3 0 .7-.55 1.3-1.26 1.3h-5.28c-.73 0-1.3-.58-1.3-1.3 0-.7.56-1.3 1.26-1.3h5.29zm34.6-6.9c.5-.52 1.33-.52 1.84 0 .5.5.52 1.3.04 1.82l-.03.03-5.28 5.27c-.25.26-.6.4-.92.4-.34 0-.67-.14-.93-.4-.5-.5-.5-1.3-.03-1.82l.03-.03 5.3-5.3zm-9.3-.44c.72 0 1.3.57 1.32 1.27v2.68c0 .72-.6 1.3-1.32 1.3-.7 0-1.3-.56-1.3-1.27V497.3c0-.7.58-1.3 1.3-1.3z"/></g></g></svg>