<svg xmlns="http://www.w3.org/2000/svg" width="60" height="60"><defs><linearGradient id="a" x1="100%" x2="0%" y1="100%" y2="0%"><stop offset="0%" stop-color="#0C9EE2"/><stop offset="100%" stop-color="#00D0D3"/></linearGradient></defs><path fill="url(#a)" fill-rule="nonzero" d="M1098.56 363c.5 0 .9.37.95.85l.01.11v51.84c0 .5-.37.9-.85.95l-.11.01h-6.72v.96c0 .5-.37.9-.85.95l-.11.01h-5.46a6.72 6.72 0 01-5.8 3.83l-.26.01h-32.64a6.73 6.73 0 01-6.72-6.72c0-.5.37-.9.85-.95l.11-.01h4.8v-43.2c0-.5.37-.9.85-.95l.11-.01h4.8v-2.88c0-.5.37-.9.85-.95l.11-.01h6.72v-2.88c0-.5.37-.9.85-.95l.11-.01h38.4zm-25.81 53.76h-30.73a4.8 4.8 0 004.48 3.83l.22.01h28a6.67 6.67 0 01-1.92-3.54l-.05-.3zm1.81-44.16h-26.88v42.24h25.96c.53 0 .96.43.96.96a4.77 4.77 0 004.76 4.76 1 1 0 01.25.03 4.8 4.8 0 004.55-4.57v-34.78h-8.64c-.5 0-.9-.37-.95-.85l-.01-.11v-7.68zm15.36-3.84h-36.48v1.92h22.08c.2 0 .39.06.55.17l.1.08 9.6 8.64c.17.15.28.37.3.6l.01.11v35.52c0 .22-.01.43-.04.64l-.04.32h3.92v-48zm7.68-3.84h-36.48v1.92h29.76c.5 0 .9.37.95.85l.01.11v47.04h5.76v-49.92zm-17.28 44.16V411h-7.68v-1.92h7.68zm0-3.84v1.92h-19.2v-1.92h19.2zm0-3.84v1.92h-7.68v-1.92h7.68zm0-3.84v1.92h-19.2v-1.92h19.2zm-21.12-5.76v1.92h-7.68v-1.92h7.68zm11.52 0v1.92h-7.68v-1.92h7.68zm0-3.84v1.92h-19.2v-1.92h19.2zm-11.52-5.76v1.92h-7.68v-1.92h7.68zm11.52 0v1.92h-7.68v-1.92h7.68zm0-3.84v1.92h-19.2v-1.92h19.2zm5.76-4.56v5.52h6.14l-6.14-5.52z" transform="translate(-1040 -363)"/></svg>