<svg xmlns="http://www.w3.org/2000/svg" width="65" height="65"><defs><linearGradient id="a" x1="100%" x2="0%" y1="100%" y2="0%"><stop offset="0%" stop-color="#0C9EE2"/><stop offset="100%" stop-color="#00D0D3"/></linearGradient></defs><path fill="url(#a)" fill-rule="nonzero" d="M630.31 399.45c1.63 0 3.23.41 4.65 1.2l.3.18c.12.06.23.13.34.2l.16.12a9.58 9.58 0 012.61 2.71c.39-.07.78-.1 1.16-.13l.4-.01h8.54a9.61 9.61 0 019.6 9.3l.01.31v4.27a7.49 7.49 0 01-7.12 7.47l-.36.01h-10.68v-2.14h9.62V411.2h2.13v11.64a5.35 5.35 0 004.27-5v-4.51a7.49 7.49 0 00-7.15-7.47H639.92c-.18 0-.36.02-.55.03.32.89.5 1.82.54 2.77l.01.4v10.68a5.35 5.35 0 01-5.12 5.34H631.38v-17.09h2.14v14.95h1.06a3.2 3.2 0 003.2-3.02v-10.86a7.46 7.46 0 00-7.15-7.47h-8.86a7.48 7.48 0 00-7.47 7.23v10.92a3.2 3.2 0 003.01 3.2h1.25V408h2.14v17.09h-3.2a5.35 5.35 0 01-5.34-5.12v-10.9c0-1.08.19-2.15.55-3.17l-.37-.03h-8.73a7.48 7.48 0 00-7.47 7.2V417.6a5.35 5.35 0 003.97 5.17l.3.07V411.2h2.13v11.74h9.62v2.14h-10.68a7.48 7.48 0 01-7.47-7.2l-.01-.28v-4.27a9.61 9.61 0 019.25-9.6l.36-.01h8.55c.52 0 1.04.05 1.55.14a9.5 9.5 0 017.74-4.4l.32-.01h8.54zm0 23.5v2.13h-8.54v-2.14h8.54zm13.89-33.11a6.4 6.4 0 110 12.81 6.4 6.4 0 010-12.81zm-36.32 0a6.4 6.4 0 110 12.81 6.4 6.4 0 010-12.81zm36.32 2.13a4.27 4.27 0 100 8.55 4.27 4.27 0 000-8.55zm-36.32 0a4.27 4.27 0 100 8.55 4.27 4.27 0 000-8.55zm18.16-6.4a6.4 6.4 0 110 12.81 6.4 6.4 0 010-12.82zm3.2-24.57a3.2 3.2 0 013.2 3.2v4.14c1.48.44 2.91 1.03 4.26 1.77l2.94-2.93a3.27 3.27 0 014.52 0l4.54 4.53a3.2 3.2 0 010 4.53l-2.94 2.93a21.9 21.9 0 011.78 4.26h4.13a3.2 3.2 0 013.2 3.2v6.41a3.2 3.2 0 01-3.2 3.2v-2.13c.6 0 1.07-.48 1.07-1.07v-6.4c0-.6-.48-1.08-1.07-1.08h-5.77l-.2-.8c-.47-1.83-1.2-3.6-2.18-5.22l-.43-.71 4.1-4.1c.4-.42.4-1.09 0-1.5l-4.54-4.54c-.42-.4-1.08-.4-1.5 0l-4.1 4.1-.71-.43a19.78 19.78 0 00-5.23-2.18l-.8-.2v-5.78c0-.59-.48-1.06-1.07-1.06h-6.4c-.6 0-1.07.47-1.07 1.06v5.77l-.8.2c-1.84.48-3.6 1.21-5.22 2.19l-.72.42-4.1-4.09c-.42-.4-1.08-.4-1.5 0l-4.54 4.54a1.06 1.06 0 000 1.5l4.1 4.1-.42.71a19.73 19.73 0 00-2.18 5.22l-.2.8h-5.78c-.6 0-1.07.48-1.07 1.07v6.41c0 .59.48 1.07 1.07 1.07v2.13a3.2 3.2 0 01-3.2-3.2v-6.4a3.2 3.2 0 013.2-3.21h4.13a21.8 21.8 0 011.78-4.26l-2.94-2.93a3.2 3.2 0 010-4.52l4.54-4.54a3.27 3.27 0 014.52 0l2.94 2.93a21.81 21.81 0 014.25-1.77v-4.14a3.2 3.2 0 013.2-3.2h6.41zm-3.2 26.7a4.27 4.27 0 100 8.54 4.27 4.27 0 000-8.54zm0-12.82c8.26 0 14.95 6.7 14.95 14.96h-2.13a12.82 12.82 0 00-25.64 0h-2.13c0-8.26 6.7-14.96 14.95-14.96z" transform="translate(-594 -361)"/></svg>