<svg xmlns="http://www.w3.org/2000/svg" width="61" height="61"><title>16</title><desc>Created with Sketch.</desc><defs><linearGradient id="a" x1="100%" x2="0%" y1="99.982%" y2=".018%"><stop stop-color="#0C9EE2" offset="0%"/><stop stop-color="#00D0D3" offset="100%"/></linearGradient></defs><g fill="none"><g fill="url(#a)" fill-rule="nonzero" transform="translate(-382 -363)"><path d="M394.85 395.44c3.8 0 6.88 3.06 6.88 6.8 0 2.18-1.07 4.56-2.74 6.14 2.73.46 5.18 1.86 6.75 4 1.54 2.06 2.16 4.48 1.9 7.37l-.04.38-.44 3.82h-24.62l-.44-3.82c-.35-3.07.25-5.6 1.86-7.76 1.58-2.13 4.02-3.53 6.75-4-1.66-1.56-2.72-3.95-2.72-6.12 0-3.75 3.08-6.8 6.87-6.8zm35.26 0c3.8 0 6.88 3.06 6.88 6.8 0 2.18-1.06 4.56-2.73 6.14 2.72.46 5.17 1.86 6.75 4 1.54 2.06 2.16 4.47 1.9 7.36l-.04.38-.44 3.82H417.8l-.45-3.82c-.35-3.06.25-5.6 1.86-7.75 1.6-2.13 4.03-3.53 6.77-4-1.67-1.56-2.74-3.95-2.74-6.12 0-3.75 3.1-6.8 6.88-6.8zm-33 14.76h-4.5c-2.86 0-5.5 1.24-7.07 3.36-1.25 1.67-1.73 3.58-1.5 6l.02.34.24 2.1h3.68v-4.93h1.96V422h9.82v-4.93h1.97V422h3.68l.25-2.1c.3-2.58-.17-4.6-1.47-6.34-1.52-2.03-4.03-3.27-6.77-3.36h-.3zm35.26 0h-4.5c-2.86 0-5.5 1.24-7.08 3.36-1.25 1.67-1.73 3.58-1.5 6l.03.34.25 2.1h3.68v-4.93h1.97V422h9.82v-4.93h1.96V422h3.7l.23-2.1c.3-2.58-.16-4.6-1.47-6.34-1.5-2.03-4.02-3.27-6.76-3.36h-.3zm-18.94-16.73v12.78h4.9v1.97h-11.78v-1.97h4.9v-12.78h1.98zm-18.57 3.93c-2.7 0-4.9 2.18-4.9 4.85 0 2.7 2.26 5.97 4.9 5.97 2.64 0 4.9-3.28 4.9-5.97 0-2.67-2.2-4.85-4.9-4.85zm35.26 0c-2.7 0-4.9 2.18-4.9 4.85 0 2.7 2.27 5.97 4.9 5.97 2.65 0 4.92-3.28 4.92-5.97 0-2.67-2.2-4.85-4.9-4.85zM412.45 363c3.8 0 6.88 3.06 6.88 6.82 0 2.17-1.07 4.54-2.74 6.13 2.73.45 5.18 1.86 6.76 3.98 1.54 2.06 2.17 4.48 1.9 7.37l-.04.38-.44 3.82h-24.63l-.44-3.82c-.36-3.06.24-5.6 1.85-7.75 1.58-2.12 4.02-3.53 6.75-3.98-1.66-1.57-2.73-3.96-2.73-6.13 0-3.76 3.08-6.82 6.87-6.82zm2.25 14.74h-4.52c-2.86 0-5.5 1.24-7.07 3.36-1.24 1.68-1.72 3.6-1.5 6l.03.34.24 2.1h3.7v-4.93h1.95v4.93h9.82v-4.92h1.97v4.93h3.7l.23-2.1c.3-2.57-.17-4.58-1.47-6.33-1.52-2.03-4.03-3.27-6.77-3.36h-.3zm-2.27-12.78c-2.7 0-4.9 2.17-4.9 4.84 0 2.7 2.26 5.97 4.9 5.97 2.64 0 4.9-3.28 4.9-5.97 0-2.67-2.2-4.84-4.9-4.84z"/></g></g></svg>