<svg xmlns="http://www.w3.org/2000/svg" width="63" height="58"><title>17</title><desc>Created with Sketch.</desc><defs><linearGradient id="a" x1="100%" x2="0%" y1="92.378%" y2="7.622%"><stop stop-color="#0C9EE2" offset="0%"/><stop stop-color="#00D0D3" offset="100%"/></linearGradient></defs><g fill="none"><g fill="url(#a)" fill-rule="nonzero" transform="translate(-157 -365)"><path d="M188.86 405.3c.3 0 .6.15.78.4l.06.1 2.4 4.7 5.18.84c.35.06.64.3.74.65.1.3.04.6-.15.86l-.07.1-3.7 3.74.8 5.2c.06.36-.1.7-.38.92-.25.18-.58.23-.87.12l-.1-.04-4.7-2.37-4.68 2.37c-.13.07-.28.1-.42.1-.2 0-.4-.06-.56-.18-.27-.2-.4-.5-.4-.8v-.12l.8-5.2-3.7-3.75c-.23-.25-.32-.62-.2-.96.08-.3.32-.54.62-.63l.1-.03 5.2-.85 2.4-4.7c.16-.3.48-.5.84-.5zm0 3.02l-1.8 3.47c-.1.22-.32.4-.57.46l-.12.03-3.83.62 2.73 2.78c.2.2.28.44.28.7v.1l-.6 3.87 3.47-1.75c.23-.12.5-.13.73-.05l.12.05 3.47 1.75-.58-3.86c-.04-.25.03-.5.2-.72l.06-.08 2.73-2.78-3.83-.63c-.26-.05-.5-.2-.63-.42l-.06-.1-1.78-3.46zm20.73-10.03c.3 0 .6.15.77.4l.06.1 2.4 4.7 5.18.84c.36.06.65.3.76.65.1.3.04.62-.15.86l-.07.1-3.7 3.74.8 5.2c.06.36-.1.7-.38.92-.16.12-.36.18-.55.18-.1 0-.22-.02-.32-.06l-.1-.04-4.7-2.36-4.68 2.36c-.3.16-.7.13-.98-.08-.25-.2-.4-.5-.4-.8l.02-.1.8-5.22-3.7-3.75c-.24-.25-.33-.62-.22-.96.1-.3.33-.54.63-.63l.12-.03 5.17-.85 2.4-4.7c.17-.3.5-.5.85-.5zm-41.48 0c.32 0 .6.15.8.4l.05.1 2.4 4.7 5.18.84c.34.06.63.3.74.65.1.3.03.62-.16.86l-.07.1-3.7 3.74.8 5.2c.05.36-.1.7-.38.92-.17.12-.37.18-.57.18-.1 0-.2-.02-.32-.05l-.1-.05-4.68-2.36-4.68 2.36c-.32.16-.7.13-.98-.08-.26-.2-.4-.48-.4-.8l.02-.1.8-5.22-3.7-3.75c-.25-.25-.33-.62-.22-.96.1-.3.33-.54.63-.63l.1-.03 5.18-.85 2.4-4.7c.16-.3.5-.5.84-.5zm41.47 3.02l-1.8 3.47c-.12.22-.33.4-.57.47l-.1.02-3.85.62 2.73 2.78c.2.2.3.44.3.7l-.02.1-.6 3.87 3.48-1.75c.14-.07.28-.1.43-.1.1 0 .2.02.3.06l.1.04 3.5 1.75-.6-3.86c-.04-.25.03-.5.2-.72l.06-.08 2.73-2.78-3.84-.63c-.26-.05-.5-.2-.63-.4l-.06-.1-1.78-3.48zm-41.48 0l-1.78 3.47c-.12.22-.33.4-.58.47l-.1.02-3.84.62 2.73 2.78c.18.2.28.44.27.7v.1l-.6 3.87 3.48-1.75c.13-.07.28-.1.42-.1.1 0 .22.02.33.06l.1.04 3.47 1.75-.6-3.86c-.02-.25.04-.5.2-.72l.08-.08 2.73-2.78-3.83-.63c-.26-.05-.5-.2-.64-.4l-.05-.1-1.78-3.48zm1.94-36.32c2.96 0 5.37 2.36 5.48 5.3v4.55c0 1.2-.4 2.35-1.16 3.27l-.17.2-1.64 1.83v1.7h2.65c2.6 0 4.74 1.84 5.28 4.27.17-.03.34-.04.52-.05H184.36v-2.1l-1.9-2.1c-.88-.98-1.4-2.24-1.45-3.56v-5.15c0-3.35 2.72-6.08 6.06-6.08.52 0 .94.42.94.95s-.42.95-.94.95c-2.23 0-4.05 1.77-4.16 3.98V378.05c0 .87.3 1.7.83 2.37l.14.17 1.95 2.15c.23.15.4.4.43.68V387c0 .5-.36.9-.83.96H181.26c-.42 0-.82.07-1.2.2-.06.02-.13.04-.2.06-1.5.55-2.57 1.96-2.66 3.62V398.02h22.56v-5.97c0-2.2-1.72-3.98-3.87-4.08h-4.26c-.5 0-.9-.37-.94-.84V383.56c0-.3.12-.56.33-.73l.1-.07 1.95-2.16c.58-.66.92-1.47.97-2.34V373.16c0-2.3-1.86-4.2-4.15-4.2-.53 0-.95-.4-.95-.94 0-.53.42-.95.95-.95 3.26 0 5.93 2.6 6.05 5.86v5.12c0 1.32-.46 2.6-1.3 3.62l-.17.2-1.9 2.1v2.1h3.1c.3 0 .57 0 .84.05.52-2.36 2.56-4.14 5.04-4.25h2.87v-1.72l-1.65-1.83c-.82-.9-1.28-2.02-1.34-3.2V370.5c0-2.96 2.34-5.38 5.27-5.5h2.73c2.95 0 5.36 2.36 5.48 5.3v4.55c0 1.2-.4 2.35-1.17 3.27l-.16.2-1.65 1.83v1.7h2.65c2.9 0 5.3 2.34 5.4 5.23V393.43c0 .5-.37.9-.84.95h-14.68c-.52 0-.95-.42-.95-.95 0-.48.37-.9.84-.94l.1-.02h13.64v-5.2c0-1.87-1.47-3.4-3.3-3.5H211c-.48 0-.88-.38-.94-.85v-3.2c0-.28.13-.54.33-.7l.08-.08 1.72-1.9c.5-.56.8-1.26.84-2v-4.54c0-1.92-1.5-3.5-3.4-3.6h-2.7c-1.92 0-3.5 1.52-3.6 3.42v4.53c0 .75.26 1.46.72 2.04l.13.14 1.7 1.9c.24.16.4.4.43.68v3.2c0 .48-.36.9-.83.94h-3.7c-1.74 0-3.18 1.27-3.46 2.93 1.9.93 3.2 2.86 3.3 5.1v7.17c0 .5-.36.9-.83.95h-24.55c-.5 0-.9-.36-.94-.84V392.05c0-2.36 1.37-4.4 3.36-5.38-.3-1.6-1.63-2.8-3.27-2.9H171.6c-.47 0-.88-.37-.93-.84v-3.2c0-.28.12-.54.33-.7l.1-.08 1.7-1.9c.5-.56.8-1.26.85-2v-4.54c0-1.92-1.5-3.5-3.4-3.6h-2.7c-1.92 0-3.5 1.52-3.6 3.42v4.53c0 .75.26 1.46.7 2.04l.15.14 1.72 1.9c.22.16.38.4.4.68l.02.12v3.08c0 .48-.36.9-.83.94h-3.7c-1.87 0-3.4 1.5-3.5 3.34v5.38h13.78c.53 0 .95.43.95.95 0 .5-.37.9-.84.95h-14.85c-.5 0-.9-.36-.94-.83v-6.26c0-2.93 2.3-5.32 5.2-5.43h2.85v-1.72l-1.66-1.83c-.8-.9-1.27-2.02-1.33-3.2V370.5c0-2.96 2.34-5.38 5.26-5.5h2.73z"/></g></g></svg>