<svg xmlns="http://www.w3.org/2000/svg" width="65" height="60"><title>18</title><desc>Created with Sketch.</desc><defs><linearGradient id="a" x1="100%" x2="0%" y1="92.604%" y2="7.396%"><stop stop-color="#0C9EE2" offset="0%"/><stop stop-color="#00D0D3" offset="100%"/></linearGradient></defs><g fill="none"><g fill="url(#a)" fill-rule="nonzero" transform="translate(-215 -218)"><path d="M257.18 218.73c1.24-.72 2.7-.92 4.07-.55 1.3.36 2.4 1.17 3.14 2.32l.13.23 3.3 5.8c.18.32.22.7.12 1.05-.1.35-.33.65-.65.83-2.2 1.2-3.55 3.5-3.55 5.96 0 .85.2 1.66.52 2.44l.12.3h10.18c2.9 0 5.3 2.3 5.42 5.22v7.03c0 .77-.6 1.38-1.35 1.38-3.74 0-6.78 3.06-6.78 6.82 0 3.76 3.04 6.8 6.78 6.8.7 0 1.27.55 1.34 1.24v6.95c0 2.93-2.3 5.32-5.2 5.45h-46.26c-2.9 0-5.3-2.32-5.4-5.22l-.02-.23v-6.82c0-.76.6-1.37 1.36-1.37 3 0 5.54-2 6.4-4.74-.86-2.84-3.45-4.8-6.4-4.8-1.22 0-2.38.34-3.48 1-.3.2-.68.24-1.04.15-.3-.08-.56-.26-.75-.5l-.07-.14-3.4-6c-1.45-2.53-.66-5.76 1.74-7.32l.2-.1 39.5-23.17zm-17.8 21.1h-10.84c-1.43 0-2.6 1.12-2.7 2.54V248.1c4.58.66 8.12 4.65 8.12 9.45 0 4.7-3.4 8.62-7.85 9.4l-.27.04v5.55c0 1.44 1.12 2.62 2.53 2.72h11.01v-2.38c0-.77.6-1.38 1.36-1.38.7 0 1.28.54 1.35 1.23V275.26h32.5c1.44 0 2.6-1.13 2.7-2.55V267c-4.58-.67-8.1-4.65-8.1-9.45 0-4.7 3.38-8.63 7.84-9.4l.27-.05v-5.55c0-1.45-1.13-2.63-2.54-2.73h-32.68v3.07c0 .74-.6 1.35-1.35 1.35-.7 0-1.28-.54-1.35-1.22v-3.22zm23.02 19.08c2.27 0 4.06 2.4 4.06 5.46s-1.8 5.46-4.06 5.46c-2.28 0-4.07-2.4-4.07-5.46 0-3.05 1.8-5.45 4.07-5.45zm1.62-13.08c.45-.6 1.3-.72 1.9-.27.55.42.7 1.2.35 1.78l-.08.12-16.26 21.82c-.27.36-.68.55-1.1.55-.27 0-.56-.1-.8-.27-.56-.43-.7-1.2-.35-1.8l.07-.1 16.25-21.83zm-1.62 15.82c-.56 0-1.36 1.06-1.36 2.72 0 1.67.8 2.73 1.36 2.73.55 0 1.35-1.07 1.35-2.74 0-1.66-.8-2.72-1.35-2.72zm-21.67-1.03c.7 0 1.28.55 1.35 1.24V264.7c0 .76-.6 1.37-1.35 1.37-.7 0-1.28-.54-1.35-1.23V261.98c0-.76.6-1.37 1.35-1.37zm10.83-15.33c2.28 0 4.06 2.4 4.06 5.46s-1.78 5.45-4.06 5.45c-2.28 0-4.06-2.4-4.06-5.45 0-3.06 1.78-5.46 4.06-5.46zm-10.83 4.44c.7 0 1.28.54 1.35 1.23v2.87c0 .75-.6 1.36-1.35 1.36-.7 0-1.28-.54-1.35-1.22v-2.87c0-.76.6-1.36 1.35-1.36zm-17.53-7.9l-4.15 2.44c-1.23.72-1.7 2.3-1.07 3.56l.1.17 2.76 4.88c1.16-.5 2.4-.76 3.64-.76 2.17 0 4.2.74 5.82 2.03-1.17-2.02-3.33-3.4-5.82-3.4-.7 0-1.28-.54-1.35-1.23V242.56c0-.18 0-.35.03-.5l.04-.25zm28.36 6.2c-.55 0-1.35 1.06-1.35 2.73 0 1.66.8 2.72 1.36 2.72.55 0 1.36-1.06 1.36-2.72 0-1.67-.8-2.73-1.36-2.73zm9-27.18c-.62-.17-1.27-.1-1.83.17l-.2.1-27.3 16h30.23c-.27-.9-.42-1.8-.42-2.74 0-2.9 1.33-5.6 3.55-7.4l.24-.2-2.66-4.67c-.36-.64-.94-1.1-1.63-1.28z"/></g></g></svg>