<svg xmlns="http://www.w3.org/2000/svg" width="45" height="54"><title>19</title><desc>Created with Sketch.</desc><defs><linearGradient id="a" x1="84.722%" x2="15.278%" y1="100%" y2="0%"><stop stop-color="#0C9EE2" offset="0%"/><stop stop-color="#00D0D3" offset="100%"/></linearGradient></defs><g fill="none"><g fill="url(#a)" fill-rule="nonzero" transform="translate(-569 -221)"><path d="M591.5 221c1.54 0 2.94.84 3.68 2.12l.1.2h.94c1.64 0 3.14.6 4.3 1.6l.2.2h8.1c2.78 0 5.05 2.18 5.17 4.9v39.84c0 2.76-2.2 5-4.94 5.13H574.17c-2.77 0-5.04-2.18-5.16-4.9v-39.84c0-2.76 2.2-5.02 4.94-5.14h8.33c1.1-1.05 2.58-1.72 4.2-1.8h1.24c.72-1.4 2.18-2.32 3.8-2.32zm-10.7 6.22h-6.63c-1.62 0-2.95 1.27-3.04 2.86v39.78c0 1.6 1.27 2.93 2.87 3.03h34.83c1.62 0 2.95-1.27 3.04-2.86v-39.78c0-1.62-1.27-2.94-2.87-3.03h-6.79c.3.7.5 1.44.54 2.23V230.5c0 .53-.4.98-.93 1.04h-20.5c-.53 0-.98-.4-1.04-.92v-.83c0-.8.14-1.57.4-2.28l.13-.3zm21.52 37.66c.28 0 .55.1.75.3.2.2.3.47.3.75s-.1.55-.3.75c-.2.2-.47.3-.75.3s-.55-.1-.75-.3c-.2-.2-.3-.47-.3-.75s.1-.55.3-.75c.2-.2.47-.3.75-.3zm-4.47 0c.6 0 1.07.47 1.07 1.05 0 .54-.4 1-.94 1.05H591.5c-.6 0-1.06-.47-1.06-1.05 0-.54.4-1 .94-1.05h6.47zm-15.7-5.07c.55 0 1 .42 1.06.94l.02.13v5.06c0 .54-.4 1-.94 1.05h-5.22c-.54 0-1-.4-1.05-.93v-5.18c0-.54.4-1 .94-1.05H582.17zm-1.05 2.12h-2.97v2.95h2.97v-2.95zm25.68-2.1c.6 0 1.06.46 1.06 1.05 0 .54-.4.98-.93 1.04l-.12.02H591.5c-.6 0-1.06-.47-1.06-1.05 0-.54.4-1 .94-1.05H606.78zm-4.46-6.34c.28 0 .55.12.75.3.2.2.3.48.3.76s-.1.55-.3.74c-.2.2-.47.3-.75.3s-.55-.1-.75-.3c-.2-.2-.3-.46-.3-.74 0-.28.1-.55.3-.75.2-.2.47-.32.75-.32zm-4.47 0c.6 0 1.07.48 1.07 1.06 0 .54-.4 1-.94 1.05H591.5c-.6 0-1.06-.48-1.06-1.06 0-.54.4-1 .94-1.05l.12-.02h6.35zm-15.7-5.06c.55 0 1 .4 1.06.93l.02.13v5.06c0 .54-.4 1-.94 1.05h-5.22c-.54 0-1-.4-1.05-.94v-5.18c0-.54.4-1 .94-1.05H582.17zm-1.05 2.1h-2.97v2.96h2.97v-2.95zm25.68-2.1c.6 0 1.06.47 1.06 1.06 0 .54-.4.98-.93 1.04H591.5c-.6 0-1.06-.46-1.06-1.04 0-.54.4-1 .94-1.05H606.78zm-4.46-6.33c.28 0 .55.1.75.3.2.2.3.47.3.75s-.1.55-.3.74c-.2.2-.47.3-.75.3s-.55-.1-.75-.3c-.2-.2-.3-.47-.3-.75s.1-.55.3-.75c.2-.2.47-.3.75-.3zm-4.47 0c.6 0 1.07.47 1.07 1.05 0 .54-.4 1-.94 1.05H591.5c-.6 0-1.06-.47-1.06-1.05 0-.54.4-1 .94-1.05h6.47zm-14.6-5.32c.4-.4 1.1-.4 1.5 0 .38.38.4.98.1 1.4l-.1.1-5.3 5.25c-.2.2-.47.3-.74.3-.2 0-.44-.07-.63-.2l-.1-.1-2.16-2.14c-.4-.42-.4-1.1 0-1.5.4-.38 1-.4 1.4-.1l.1.1 1.4 1.4 4.55-4.52zm23.53.25c.6 0 1.06.47 1.06 1.06 0 .53-.4.97-.93 1.03H591.5c-.6 0-1.06-.46-1.06-1.04 0-.55.4-1 .94-1.06H606.78zM591.5 223.1c-.9 0-1.7.57-2 1.4l-.05.16c-.1.4-.47.7-.9.76h-1.77c-2.23 0-4.08 1.66-4.37 3.8v.22h18.2c-.17-2.17-1.96-3.9-4.16-4H594.57c-.44 0-.82-.27-.98-.66l-.05-.12c-.26-.9-1.1-1.55-2.05-1.55zm0 2.44c.28 0 .55.1.75.3.2.2.3.47.3.75 0 .27-.1.54-.3.74-.2.2-.47.3-.75.3s-.55-.1-.75-.3c-.2-.2-.3-.47-.3-.75 0-.3.1-.56.3-.76.2-.2.47-.3.75-.3z"/></g></g></svg>