<svg xmlns="http://www.w3.org/2000/svg" width="62" height="62"><defs><linearGradient id="a" x1="99.997%" x2=".003%" y1="100%" y2="0%"><stop offset="0%" stop-color="#0C9EE2"/><stop offset="100%" stop-color="#00D0D3"/></linearGradient></defs><path fill="url(#a)" fill-rule="nonzero" d="M1192.4 362a4.09 4.09 0 014.07 3.88l.01.2v17.77l5.5-5.5a4.38 4.38 0 016.34 6.03l-.16.16-11.68 11.68v23.14a4.09 4.09 0 01-3.88 4.07l-.2.01h-40.32a4.09 4.09 0 01-4.07-3.88l-.01-.2v-53.28a4.09 4.09 0 013.88-4.07l.2-.01h40.32zm-30.38 2.4h-9.94c-.88 0-1.6.68-1.67 1.54l-.01.14v53.28c0 .88.68 1.6 1.54 1.67l.14.01h40.32c.88 0 1.6-.68 1.67-1.54l.01-.14v-20.74c-.07.07-.14.12-.22.17l-.12.06-2.06.92v17.67a1.2 1.2 0 01-1.08 1.2H1177.04a1.2 1.2 0 01-.12-2.4h12.36v-15.4l-3.63 1.61a1.2 1.2 0 01-1.63-1.46l.04-.12 3.6-8.1c.05-.08.1-.16.16-.24l.1-.11 1.36-1.37V369.2h-6.82v.09c0 2-1.58 3.64-3.55 3.74l-.2.01h-12.94c-2 0-3.64-1.58-3.74-3.55l-.01-.2v-.09h-6.82v47.04h12.24a1.2 1.2 0 01.12 2.4H1154a1.2 1.2 0 01-1.2-1.08V368c0-.62.47-1.13 1.08-1.2H1162.02v-2.4zm10.22 51.84a1.21 1.21 0 011.2 1.2 1.21 1.21 0 01-1.2 1.2 1.21 1.21 0 01-1.2-1.2 1.21 1.21 0 011.2-1.2zm-4.8-13.44c.62 0 1.13.47 1.2 1.08v7.8a1.2 1.2 0 01-1.08 1.2h-7.8a1.2 1.2 0 01-1.2-1.08V404c0-.62.47-1.13 1.08-1.2h7.8zm7.25 1.48a1.2 1.2 0 011.6-.08l.1.08 1.86 1.86 1.86-1.86a1.2 1.2 0 011.79 1.6l-.1.1-1.85 1.86 1.86 1.86a1.2 1.2 0 01-1.6 1.8l-.1-.1-1.86-1.86-1.86 1.86a1.2 1.2 0 01-1.7 0 1.2 1.2 0 01-.08-1.6l.08-.1 1.86-1.86-1.86-1.86a1.2 1.2 0 010-1.7zm-8.45.92h-5.28v5.28h5.28v-5.28zm1.2-15.6c.62 0 1.13.47 1.2 1.08v7.8a1.2 1.2 0 01-1.08 1.2h-7.8a1.2 1.2 0 01-1.2-1.08v-7.8c0-.62.47-1.13 1.08-1.2h7.8zm21.7 5.75l-1.61 3.64 3.64-1.62-2.02-2.02zm-7.7-4.27a1.2 1.2 0 011.8 1.6l-.1.1-5.41 5.42a1.2 1.2 0 01-1.6.09l-.1-.1-2.67-2.66a1.2 1.2 0 011.6-1.79l.1.1 1.82 1.81 4.57-4.57zm-15.2.92h-5.28v5.28h5.28V392zm35.04-9.55l-10.82 10.82 2.79 2.79 10.82-10.82-2.8-2.8zm-8.88-18.05h-9.94v2.4h8.02c.62 0 1.13.47 1.2 1.08v20.77l2.4-2.4v-20.17c0-.88-.68-1.6-1.54-1.67l-.14-.01zm-24.96 12c.62 0 1.13.47 1.2 1.08v7.8a1.2 1.2 0 01-1.08 1.2h-7.8a1.2 1.2 0 01-1.2-1.08v-7.8c0-.62.47-1.13 1.08-1.2h7.8zm14 1.48a1.2 1.2 0 011.8 1.6l-.1.1-5.41 5.42a1.2 1.2 0 01-1.6.1l-.1-.1-2.67-2.67a1.2 1.2 0 011.6-1.79l.1.09 1.82 1.82 4.57-4.57zm-15.2.92h-5.28v5.28h5.28v-5.28zm40.22 1.26a1.98 1.98 0 00-2.66-.12l-.13.12-.7.69 2.8 2.8.7-.7c.76-.77.76-2.03 0-2.8zm-26.4-15.66h-15.64v4.89c0 .7.54 1.28 1.22 1.34l.13.01h12.94c.7 0 1.28-.54 1.34-1.22l.01-.13v-4.89z" transform="translate(-1148 -362)"/></svg>