<svg xmlns="http://www.w3.org/2000/svg" width="61" height="61"><title>20</title><desc>Created with Sketch.</desc><defs><linearGradient id="a" x1="100%" x2="0%" y1="100%" y2="0%"><stop stop-color="#0C9EE2" offset="0%"/><stop stop-color="#00D0D3" offset="100%"/></linearGradient></defs><g fill="none"><g fill="url(#a)" fill-rule="nonzero" transform="translate(-453 -217)"><path d="M498.75 217c.52 0 .95.4 1 .9l.02.12v3.05h3.05c.52 0 .95.4 1 .9v29.6c.53 0 .96.4 1.02.9v2.5l1.7-1.7c.15-.15.35-.25.57-.28l.15-.02h.13c.18.03.35.1.5.2l.1.1 4.3 4.32c.2.2.3.45.3.72 0 .22-.07.44-.2.62l-.1.1-1.68 1.68h2.38c.52 0 .95.4 1 .9l.02.1v6.1c0 .53-.4.96-.9 1.02h-2.5l1.7 1.7c.18.18.3.44.3.7 0 .23-.1.45-.22.63l-.1.1-4.3 4.32c-.17.15-.38.25-.6.28h-.27c-.16-.03-.33-.1-.47-.2l-.1-.1-1.68-1.68v2.38c0 .52-.4.95-.9 1l-.12.02h-6.1c-.52 0-.95-.4-1-.9v-2.5l-1.7 1.7c-.15.15-.36.25-.58.28h-.27c-.17-.03-.34-.1-.48-.2l-.1-.1-2.36-2.35h-33.16c-.52 0-.95-.4-1-.9v-3.16H454c-.52 0-.95-.4-1-.9l-.02-.12v-40.67c0-.22.07-.44.2-.6l.1-.12 10.16-10.16c.16-.16.37-.26.6-.3h34.69zm4.07 36.6h-4.07v3.82c0 .42-.26.8-.65.95-.34.13-.73.07-1-.16l-.1-.1-.06-.04-.06-.05-2.56-2.56-2.88 2.88 2.6 2.6.03.02.04.05c.32.27.42.7.27 1.1-.14.35-.46.6-.82.64H489.6v4.08h3.82c.42 0 .8.25.96.64.13.35.06.74-.17 1.02l-.1.1-.04.05-.05.06-2.56 2.56 2.88 2.88 2.6-2.6.02-.04.05-.05c.27-.3.7-.4 1.1-.25.35.13.6.45.64.82v3.95h4.08v-3.83c0-.4.26-.8.64-.94.35-.13.74-.07 1.02.16l.1.1.05.05.06.06 2.55 2.58 2.9-2.9-2.62-2.58-.03-.04-.05-.04c-.3-.28-.4-.73-.25-1.12.13-.35.45-.6.82-.64h3.95v-4.07h-3.83c-.4 0-.8-.26-.94-.65-.13-.34-.07-.73.16-1l.1-.1.05-.06.06-.06 2.58-2.56-2.9-2.88-2.58 2.6-.04.03-.04.04c-.28.32-.73.42-1.12.27-.35-.14-.6-.46-.64-.82V253.6zm-1.02-30.5h-32.53v9.15c0 .52-.4.95-.9 1l-.12.02h-9.15v38.63h30.13c-.32-.36-.33-.9-.04-1.27l.08-.1 1.68-1.68h-2.38c-.52 0-.95-.4-1-.9v-6.22c0-.52.38-.95.88-1h2.5l-1.68-1.7c-.2-.18-.3-.44-.3-.7 0-.24.08-.45.2-.63l.1-.1 4.32-4.32c.16-.16.36-.26.58-.3h.27c.18.03.35.1.5.2l.1.1 1.67 1.68v-2.38c0-.52.4-.95.9-1h4.18V223.1zm-1.02 36.6c2.8 0 5.08 2.28 5.1 5.08 0 2.8-2.3 5.1-5.1 5.1s-5.08-2.3-5.08-5.1 2.28-5.08 5.08-5.08zm-41.08-30.5h-4.67v38.63h2.04v-35.58c0-.22.07-.44.2-.62l.1-.1 2.33-2.33zm41.08 32.53c-1.68 0-3.05 1.37-3.05 3.05 0 1.7 1.37 3.05 3.05 3.05 1.7 0 3.05-1.36 3.05-3.05 0-1.68-1.36-3.05-3.05-3.05zm-16.26 3.05c.56 0 1 .46 1 1.02 0 .52-.38.95-.88 1l-.12.02h-20.34c-.56 0-1-.46-1-1.02 0-.52.38-.95.88-1l.12-.02h20.34zm0-4.06c.56 0 1 .45 1 1 0 .53-.38.96-.88 1.02h-20.46c-.56 0-1-.45-1-1 0-.53.38-.96.88-1.02h20.46zm0-4.07c.56 0 1 .46 1 1.02 0 .52-.38.95-.88 1h-20.46c-.56 0-1-.44-1-1 0-.52.38-.95.88-1l.12-.02h20.34zm-8.14-18.3c.52 0 .95.4 1 .9l.02.12v12.2c0 .52-.4.95-.9 1H464.18c-.52 0-.95-.38-1-.88v-12.33c0-.52.38-.95.88-1l.12-.02h12.2zm14.24 12.2c.56 0 1 .46 1 1.02 0 .52-.38.95-.88 1h-8.26c-.56 0-1-.44-1-1 0-.52.38-.95.88-1l.12-.02h8.14zm-15.25-10.17H465.2v10.17h10.17v-10.17zm21.35 6.1c.56 0 1 .46 1 1.02 0 .52-.38.95-.88 1l-.12.02h-14.24c-.56 0-1-.46-1-1.02 0-.52.38-.95.88-1l.12-.02h14.24zm0-4.06c.56 0 1 .45 1 1 0 .53-.38.96-.88 1.02h-14.36c-.56 0-1-.45-1-1 0-.53.38-.96.88-1.02h14.36zm0-4.07c.56 0 1 .46 1 1.02 0 .52-.38.95-.88 1h-14.36c-.56 0-1-.44-1-1 0-.52.38-.95.88-1l.12-.02h14.24zm0-11.18c.52 0 .95.4 1 .9V233.26c0 .52-.38.95-.88 1H474.35c-.52 0-.95-.38-1-.88l-.02-.13v-5.1c0-.5.4-.94.9-1H496.72zm-1.02 2.03h-20.33v3.05h20.33v-3.05zm-28.47-4.66l-6.7 6.7h6.7v-6.7zm-4.06-4.07l-6.7 6.7h5.26l1.44-1.44v-5.26zm34.56-1.44H465.2v4.67l2.33-2.34c.16-.15.37-.26.6-.28h29.6v-2.05z"/></g></g></svg>