<svg xmlns="http://www.w3.org/2000/svg" width="58" height="62"><title>22</title><desc>Created with Sketch.</desc><defs><linearGradient id="a" x1="93.944%" x2="6.056%" y1="100%" y2="0%"><stop stop-color="#0C9EE2" offset="0%"/><stop stop-color="#00D0D3" offset="100%"/></linearGradient></defs><g fill="none"><g fill="url(#a)" fill-rule="nonzero" transform="translate(-826 -498)"><path d="M881.68 498c1 0 1.84.78 1.9 1.77l.02.15v57.6c0 1-.78 1.84-1.77 1.9l-.15.02H840.4c-.5 0-.9-.37-.95-.85v-6.84h1.9v5.76h40.33v-57.6H874v3.84h4.8c.5 0 .9.37.95.85v24.12h-1.9v-23.04H874v1.92c0 1-.78 1.84-1.77 1.9l-.15.02h-21.12c-1 0-1.84-.78-1.9-1.77l-.02-.15v-1.92h-3.84v7.68h-1.92v-8.64c0-.5.37-.9.85-.95H849.03v-3.85h-7.67v13.44h-1.92v-13.44c0-1 .78-1.84 1.77-1.9l.16-.02h40.32zm-3.84 32.64h1.92v14.55l-.03.06-.03.1-.03.1-.05.07-.05.1-.05.04-.07.08-10.6 9.64-.1.06-.08.04-.08.03-.06.02-.17.04h-24.12c-.5 0-.9-.37-.95-.85l-.02-.1v-2.9h1.92v1.93h22.08v-8.64c0-.5.37-.9.85-.95l.1-.02h9.6v-13.44zM876.32 546h-7.12v6.47l7.12-6.47zm-35.4-30.6c.24-.14.53-.16.78-.06l.1.05 14.4 7.67c.34.18.54.53.52.9l-.02.12-1.3 7.34c-1.03 5.87-4.17 11.1-8.86 14.74l-.37.3-4.23 3.17c-.18.13-.38.2-.58.2-.16 0-.33-.05-.47-.13l-.12-.07-4.36-3.32c-4.7-3.57-7.9-8.7-9.03-14.47l-.1-.47-1.3-7.3c-.05-.38.1-.75.4-.96l.1-.07 14.4-7.68zm24.44 30.6v1.92h-16.32V546h16.32zm-24-28.67l-13.33 7.1 1.16 6.63c.93 5.33 3.77 10.1 8 13.46l.38.28 3.78 2.88 3.66-2.75c4.38-3.28 7.35-8 8.4-13.36l.1-.46 1.17-6.66-13.34-7.1zm6.2 5.4l4.8 2.56c.34.16.53.5.52.88l-.02.12-.95 5.4c-.75 4.33-3.07 8.2-6.52 10.9l-.34.27-3.1 2.33c-.18.13-.38.2-.58.2-.16 0-.33-.05-.47-.13l-.12-.07-3.2-2.43c-3.47-2.64-5.84-6.42-6.7-10.7l-.08-.42-.95-5.35c-.06-.37.1-.74.4-.95l.1-.06 4.8-2.58.9 1.7-4.2 2.23.84 4.67c.67 3.83 2.7 7.25 5.73 9.68l.3.24 2.63 2 2.53-1.9c3.13-2.36 5.27-5.75 6.05-9.58l.07-.4.83-4.7-4.18-2.24.9-1.7zm16.84 17.5v1.93h-10.56v-1.92h10.56zm10.56 0v1.93h-8.64v-1.92h8.64zm-32.64-1.9v1.9h-1.92v-1.9h1.92zm24.96-3.85v1.92h-10.56v-1.92h10.56zm7.68 0v1.92h-5.76v-1.92h5.76zm-28.56-7.35l1.44 1.26-6.72 7.67c-.16.18-.37.3-.6.32h-.16c-.24 0-.48-.1-.65-.3l-.07-.08-2.88-3.84 1.54-1.16 2.16 2.9 5.94-6.8zm26.64-13.77c.5 0 .9.37.95.85V529.7c0 .5-.37.9-.85.95H857.68v-1.9h14.4v-13.45h-20.16v2.88H850v-3.84c0-.5.37-.9.85-.95H873.05zm-30.72 11.52v1.92h-1.92v-1.92h1.92zm-1.4-5.23c.23-.13.52-.14.78-.05l.1.05 3.85 2.05-.9 1.7-3.4-1.8-3.38 1.8-.9-1.7 3.84-2.05zm31.16-19.73h-21.12v7.68h21.12v-7.68zm-17.28 2.88v1.92h-1.92v-1.92h1.92zm15.36 0v1.92h-1.92v-1.92h1.92zm-3.84 0v1.92h-9.6v-1.92h9.6z"/></g></g></svg>