<svg xmlns="http://www.w3.org/2000/svg" width="61" height="68"><title>23</title><desc>Created with Sketch.</desc><defs><linearGradient id="a" x1="90.236%" x2="9.764%" y1="100%" y2="0%"><stop stop-color="#0C9EE2" offset="0%"/><stop stop-color="#00D0D3" offset="100%"/></linearGradient></defs><g fill="none"><g fill="url(#a)" fill-rule="nonzero" transform="translate(-545 -495)"><path d="M558.34 511.68c1.06 0 1.9.86 1.9 1.92 0 1.07-.84 1.93-1.9 1.93h-8.9c-.34 0-.63.3-.63.64v26.3h53.4v-26.3c0-.35-.3-.64-.65-.64h-8.9c-1.05 0-1.9-.86-1.9-1.93 0-1.06.85-1.92 1.9-1.92h8.9c2.45 0 4.45 2 4.45 4.5v34.63c0 2.5-2 4.5-4.45 4.5h-19.13c.44 1.27 1.2 2.86 2.43 4.2.5.34.82.92.82 1.58 0 1.06-.86 1.92-1.9 1.92h-16.53c-.77 0-1.47-.47-1.76-1.2-.3-.7-.13-1.53.4-2.08 1.38-1.4 2.2-3.1 2.66-4.42h-19.1c-2.44 0-4.44-2-4.44-4.5v-34.63c0-2.48 2-4.5 4.45-4.5h8.9zm20.08 43.62h-5.88c-.28 1.03-.75 2.4-1.54 3.85h8.96c-.78-1.44-1.26-2.82-1.54-3.85zm23.77-8.98h-53.4v4.5c0 .35.3.63.65.63h52.1c.35 0 .64-.28.64-.64v-4.48zm-19.8-22.45h1.55c1.85.04 3.3.1 4.34.23.43.05.8.23 1.15.53.34.3.55.7.65 1.14.2.8.3 2.02.3 3.67v.33c0 1.8-.1 3.13-.3 4-.1.46-.32.84-.65 1.14-.34.32-.72.5-1.16.54l-.43.04-.48.05c-1.35.1-3.15.15-5.4.15h-1.93c-1.86-.04-3.32-.12-4.37-.24-.44-.05-.82-.22-1.16-.53-.34-.3-.55-.67-.65-1.12-.2-.85-.3-2.2-.3-4v-1.25c.05-1.18.14-2.1.3-2.76.1-.45.3-.83.65-1.14.33-.3.72-.48 1.16-.53 1.26-.14 3.1-.22 5.5-.23h1.2zm-16.06 4.3c.52 0 .92.2 1.2.58.2.25.3.63.3 1.14l.02.2v2c0 .6-.1 1.06-.32 1.34-.28.4-.68.58-1.2.58-.5 0-.9-.2-1.2-.58-.18-.26-.28-.64-.3-1.15v-2.2c0-.63.1-1.07.3-1.35.3-.4.7-.6 1.2-.6zm3.4.06v4.58c.02.18.1.26.24.26.18 0 .37-.13.57-.38l.07-.1v-4.37h1.04v5.7h-1.04v-.62c-.4.5-.78.72-1.16.72-.35 0-.57-.14-.67-.42-.06-.16-.1-.4-.1-.7v-4.66h1.03zm-7.65-1.96l.8 3 .76-3h1.16l-1.37 4.57v3.1h-1.14v-3.1c-.1-.56-.32-1.37-.68-2.43l-.4-1.1-.23-.7-.1-.33h1.2zm17.45 1.5h-1v4.5c0 .36.02.64.08.82.1.28.3.42.66.42.32 0 .66-.2 1.03-.58l.1-.12v.62h1.02v-5.66h-1v4.33c-.23.33-.45.5-.65.5-.12 0-.2-.07-.23-.2v-.07l-.02-.07V527.78zm3.8-1.92h-1v7.6h1v-.56c.34.4.7.62 1.05.62.4 0 .68-.2.8-.63.07-.2.1-.52.1-.98v-2.43c0-.57-.03-.95-.1-1.14-.12-.43-.4-.65-.8-.65-.34 0-.66.18-.96.5l-.1.13v-2.48zm4.28 1.86c-.5 0-.92.2-1.2.6-.2.25-.3.63-.33 1.13v2.18c0 .6.1 1.05.33 1.33.3.4.7.6 1.22.6.55 0 .96-.2 1.23-.62.1-.15.18-.32.22-.48l.02-.13c0-.06 0-.2.02-.42v-.4h-1.03v.56c0 .06 0 .1-.02.14-.05.27-.2.4-.45.4-.32 0-.5-.2-.52-.66v-1.12h2.04v-1.17c0-.6-.1-1.05-.3-1.33-.3-.4-.7-.6-1.2-.6zm-9.24-1.85h-3.55v1.07h1.2v6.52h1.13v-6.52h1.2v-1.07zm-12.06 3.24c-.3 0-.46.2-.5.66v2.52c0 .54.17.8.5.8.3 0 .46-.22.48-.68v-2.52c0-.53-.16-.8-.48-.8zm17.52-.46c.27 0 .4.22.43.65v2.52c0 .5-.15.77-.44.77-.15 0-.3-.07-.43-.18l-.08-.08v-3.45c.16-.17.33-.26.5-.26zm3.76 0c.3 0 .48.22.5.66v.65h-1v-.53c0-.52.16-.78.5-.78zm-2.25-17.6c.95 0 1.73.8 1.73 1.8v3.6c0 2.33-1.8 4.22-4.03 4.22H568.1c-2.23 0-4.04-1.9-4.04-4.2v-3.62c0-1 .78-1.8 1.73-1.8.94 0 1.72.8 1.72 1.8v3.6c0 .34.26.6.57.6h14.97c.3 0 .57-.26.57-.6v-3.6c0-1 .78-1.8 1.73-1.8zM575.17 495c.08 0 .14 0 .2 0 .5-.05 1.02.12 1.4.52l5.07 5.3c.66.68.66 1.8 0 2.48-.33.35-.76.52-1.2.52-.43 0-.86-.17-1.2-.52l-2.67-2.8v10.43c0 .95-.7 1.7-1.6 1.7-.86 0-1.58-.75-1.58-1.7v-9.6l-1.9 1.97c-.65.7-1.72.7-2.38 0-.66-.7-.66-1.8 0-2.5l4.32-4.5c.17-.75.8-1.3 1.54-1.3z"/></g></g></svg>