<svg xmlns="http://www.w3.org/2000/svg" width="68" height="58"><title>24</title><desc>Created with Sketch.</desc><defs><linearGradient id="a" x1="100%" x2="0%" y1="86.12%" y2="13.88%"><stop stop-color="#0C9EE2" offset="0%"/><stop stop-color="#00D0D3" offset="100%"/></linearGradient></defs><g fill="none"><g fill="url(#a)" fill-rule="nonzero" transform="translate(-294 -500)"><path d="M337.88 500.53c1.37-.66 2.95-.7 4.35-.12l.26.13 17.33 8.4c1 .5 1.68 1.48 1.75 2.58V551.8c0 3.05-2.4 5.52-5.4 5.64h-56.55c-3.03 0-5.5-2.4-5.63-5.4V516.9c0-3.04 2.4-5.52 5.4-5.64h19.43c.15-.94.7-1.76 1.53-2.23l.18-.1 17.34-8.4zm-19.1 12.98h-19.15c-1.8.02-3.27 1.43-3.37 3.2v35.1c0 1.8 1.4 3.3 3.2 3.38h56.49c1.8 0 3.28-1.4 3.38-3.18V533.4c-2.12 5.13-5.5 9.64-9.8 13.12l-7.15 5.66c-1.24.96-2.95 1-4.22.12l-.17-.12-6.7-5.3c-7.64-5.8-12.24-14.76-12.5-24.35l-.02-.5v-8.52zm22.72-10.95c-.77-.37-1.65-.4-2.44-.08l-.2.08-17.34 8.4c-.26.13-.43.37-.48.64v10.43c.12 8.93 4.28 17.3 11.28 22.8l.38.3 6.68 5.28c.43.35 1.02.37 1.48.1l.12-.1 6.68-5.28c7.1-5.4 11.4-13.7 11.66-22.6v-10.8c0-.3-.14-.55-.37-.7l-.1-.06-17.35-8.4zm-31.73 45.88c.62 0 1.13.5 1.13 1.13 0 .58-.44 1.06-1 1.12H301c-.6 0-1.1-.5-1.1-1.12 0-.58.43-1.06 1-1.12h8.87zm9-4.5c.63 0 1.14.5 1.14 1.12 0 .58-.43 1.06-1 1.12H301c-.6 0-1.1-.5-1.1-1.12 0-.58.43-1.06 1-1.12H318.77zm-13.6-24.22c1.2-1.2 2.9-1.82 4.6-1.68 1.7-.14 3.4.47 4.6 1.7.7.8 1.07 1.82 1.04 2.87v2.1c.23.33.37.7.4 1.1V527.64c0 .8-.4 1.54-1.08 1.96-.3.8-.7 1.55-1.2 2.25l-.1.1-.07.1v1.13c0 .1.05.2.13.26l.07.04 3.9 1.93c1.44.7 2.38 2.12 2.45 3.7v1.45c0 .3-.1.58-.32.8-.18.17-.42.3-.67.32h-18.14c-.3 0-.6-.12-.8-.33-.18-.18-.3-.4-.32-.67v-1.42c0-1.54.8-2.96 2.1-3.74l.2-.1 3.65-1.96c.08-.05.14-.13.17-.23V532.05c-.6-.84-1.05-1.77-1.35-2.76-.4-.4-.64-.9-.68-1.47v-1.79c0-.4.1-.78.3-1.13l.1-.17v-1.86c-.1-1.14.27-2.26 1.02-3.13zm4.6.57c-1.06-.1-2.12.22-2.92.92-.33.4-.5.9-.47 1.43v2.48c0 .3-.1.55-.27.76l-.1.1-.02 1.66c.26.2.46.46.54.77.2.8.56 1.6 1.05 2.28l.2.26c.14.17.22.37.25.6v1.6c0 .9-.45 1.7-1.2 2.2l-.16.08-3.66 1.97c-.63.33-1.05.96-1.1 1.67l-.02.17v.18h15.77v-.1c0-.75-.4-1.44-1.04-1.8l-.13-.1-3.92-1.92c-.83-.4-1.38-1.22-1.44-2.14v-1.7c0-.27.1-.54.3-.75.1-.1.2-.23.28-.37.46-.64.82-1.35 1.06-2.1.1-.3.33-.55.62-.68l.12-.05.08-1.7c-.22-.2-.36-.45-.4-.74V522.8c0-.05 0-.1 0-.15.03-.53-.14-1.05-.5-1.46-.8-.68-1.84-1-2.9-.9zm30.35-8.92c6.2 0 11.22 5 11.24 11.2 0 6.18-5 11.2-11.18 11.24-6.2 0-11.24-5.03-11.26-11.23 0-6.2 5-11.2 11.2-11.22zm.06 2.25c-4.96 0-9 4-9 8.97 0 4.95 4 8.96 8.94 8.97 4.95 0 8.97-4 8.98-8.94.02-4.95-3.97-8.97-8.92-9zm2.9 5.88c.43-.44 1.14-.44 1.58 0 .4.4.44 1.05.1 1.5l-.1.1-5.52 5.52c-.22.2-.5.33-.8.33-.26 0-.5-.1-.7-.25l-.1-.08-1.84-1.85c-.44-.44-.44-1.15 0-1.6.4-.4 1.05-.42 1.5-.08l.1.1 1.04 1.04 4.73-4.72z"/></g></g></svg>