<svg xmlns="http://www.w3.org/2000/svg" width="66" height="66"><title>25</title><desc>Created with Sketch.</desc><defs><linearGradient id="a" x1="100%" x2="0%" y1="99.743%" y2=".257%"><stop stop-color="#0C9EE2" offset="0%"/><stop stop-color="#00D0D3" offset="100%"/></linearGradient></defs><g fill="none"><g fill="url(#a)" fill-rule="nonzero" transform="translate(-268 -360)"><path d="M301.16 370.1c.98-.92 2.32-1.36 3.66-1.2 1.33.18 2.53.93 3.25 2.06h.3c4.54 0 8.4 3.24 9.24 7.7 1.3.27 2.42 1.1 3.05 2.27.63 1.17.72 2.55.24 3.8.9 1.47 1.2 3.24.84 4.94.2.03.42.05.63.08.9.14 1.6.8 1.82 1.68l.02.16.16.94h2.14c1 0 1.88.68 2.14 1.63l.04.17 4.86 24.93c.2.98-.07 2-.7 2.75-.6.72-1.45 1.15-2.36 1.2h-23.38c-.94 1.54-3.7 2.23-6.3 2.23-2.55 0-5.23-.65-6.25-2.06l-.1-.17h-23.14c-1 0-1.93-.44-2.57-1.2-.6-.72-.85-1.64-.73-2.55l.03-.2 4.86-24.95c.2-1 1.02-1.72 2-1.8H277.25l.16-.94c.16-.97.9-1.7 1.87-1.85l.9-.12c-.84-2.58-.45-5.4 1.05-7.66-.07-.3-.1-.62-.1-.94 0-1.84 1.1-3.5 2.8-4.2.1-1.68.95-3.22 2.32-4.2 1.38-.95 3.12-1.24 4.73-.77 1.45-1.88 3.68-2.98 6.05-3 1.47.02 2.9.44 4.14 1.24zm3.7 47.38c-1.02.25-2.02.58-3 .96l-.57.24c-.16.08-.32.1-.5.1-.1 0-.24 0-.35-.05l-.12-.05c-.96-.4-1.95-.75-2.96-1.03l-.6-.16-.4 4.6c.23.34 1.77 1.13 4.44 1.13 2.58 0 4.1-.73 4.4-1.1l.04-.04-.38-4.62zm21.67-22.72h-1.78l3.48 20.9c.12.77-.16 1.54-.74 2.05-.6.5-1.4.68-2.12.46-5.72-1.86-11.8-2.3-17.7-1.3l-.63.12.33 4.03h22.9c.34 0 .66-.14.87-.4.18-.2.27-.5.25-.77v-.14l-4.87-24.94zm-49.66 0h-1.77l-4.86 24.94c-.06.32.02.65.23.9.2.23.45.37.74.4H294.24l.35-4c-6.1-1.16-12.4-.76-18.33 1.15-.73.23-1.54.07-2.12-.44-.54-.45-.82-1.15-.76-1.85l.02-.17 3.47-20.92zm4.28-3.02l-1.05.13-.52.08-4 24.1c7.64-2.56 15.9-2.62 23.56-.2l.56.2v-13.9c0-.6.5-1.1 1.1-1.1.58 0 1.05.43 1.1.98l.02.12v13.9c7.64-2.56 15.9-2.62 23.56-.2l.56.2-4-24.1c-.38-.06-.75-.1-1.12-.15-.2.32-.4.6-.64.9-.5 2.27-1.8 4.28-3.7 5.63.42.72.74 1.48 1 2.26.1.33.16.68.16 1.04 0 1.37-.8 2.6-2.07 3.14-.42.18-.87.27-1.32.27-.96 0-1.87-.4-2.53-1.1l-.15-.16c-.54-.64-1.22-1.12-2-1.4l-.26-.1c-3.24-1.1-4.8-2.32-5.32-4.35-.8-.06-1.57-.2-2.32-.42-1.58 1.47-3.76 2.13-5.9 1.77-2.13-.37-3.98-1.7-4.98-3.62-3.76.93-7.68-.67-9.73-3.94zm15.87-20.65c-1.92 0-3.7 1-4.68 2.66-.25.44-.45.9-.57 1.4-.17.57-.76.92-1.35.77-.58-.16-.94-.75-.8-1.33.07-.24.14-.47.23-.7-.13-.02-.27-.03-.4-.04-1.6 0-2.96 1.12-3.3 2.67 1.26.12 2.4.77 3.16 1.77.24.32.3.74.13 1.1-.15.37-.5.62-.9.67-.38.04-.77-.13-1-.44-.44-.6-1.13-.95-1.87-.94-1.05 0-1.97.7-2.25 1.7-.25.96.12 1.98.92 2.54l.14.1c.52.3.68 1 .37 1.5-.3.53-1 .7-1.5.4-.3-.2-.6-.4-.84-.67-1 2.34-.6 5.03 1 6.98 1.62 1.95 4.2 2.84 6.66 2.3-.06-.36-.1-.73-.1-1.1-1.95-.2-3.44-1.86-3.44-3.83 0-.6.5-1.12 1.1-1.12.3 0 .58.1.8.3.17.2.28.42.3.67l.02.15c0 .88.7 1.6 1.57 1.64.17-.5.38-.98.65-1.43.2-.34.57-.55.97-.54.4 0 .76.2.95.56.2.35.2.77 0 1.1-1.27 2.12-.7 4.85 1.28 6.3 2 1.44 4.75 1.12 6.37-.73.3-.36.8-.48 1.24-.3 1.17.45 2.43.64 3.68.54.65-.04 1.3-.16 1.9-.35.4-.12.8-.02 1.1.25.28.27.4.67.32 1.06-.1.38-.38.7-.76.8-.55.18-1.12.3-1.7.37.38.75 1.25 1.44 3.44 2.2l.28.1c1.17.37 2.2 1.03 3.04 1.93l.2.23c.35.42.93.58 1.44.38.44-.2.73-.62.73-1.1 0-.12-.02-.24-.06-.36-.2-.66-.5-1.3-.83-1.9-.63.26-1.3.45-1.97.57-.06 0-.1 0-.17 0-.58 0-1.06-.43-1.1-1-.05-.58.35-1.1.92-1.2 1.83-.3 3.47-1.3 4.57-2.8-1.7.53-3.55.36-5.13-.46-.47-.26-.9-.55-1.3-.9-.45.18-.92.27-1.4.27-1.46 0-2.8-.82-3.45-2.14-.18-.35-.15-.77.06-1.1.22-.33.6-.52 1-.5.35.02.67.2.86.5l.06.1c.22.43.6.74 1.07.85.46.12.95.04 1.34-.22.64-.44.88-1.25.6-1.96l-.05-.14c-.18-.35-.16-.77.06-1.1.23-.34.6-.53 1-.5.4.02.75.25.93.6.64 1.26.52 2.77-.3 3.9.18.14.36.25.54.35 1.84.92 4.05.56 5.5-.87l.2-.2c1.14-1.28 1.5-3.1.93-4.72-.26.2-.54.38-.83.53-.15.07-.3.1-.47.1-.52 0-.96-.36-1.08-.86-.1-.5.14-1.02.6-1.25.45-.2.8-.54 1.05-.97.54-.96.34-2.17-.5-2.9-.77-.7-1.9-.77-2.77-.23l-.16.1c-.3.24-.73.3-1.1.14-.36-.16-.62-.5-.66-.9-.05-.38.12-.77.43-1 .44-.33.93-.57 1.45-.72-.72-3.1-3.4-5.36-6.57-5.56 0 .1.02.17.02.26 0 .6-.5 1.1-1.1 1.1-.58 0-1.05-.43-1.1-.98v-.12c0-1.3-1.06-2.34-2.35-2.34-1.3 0-2.33 1.05-2.33 2.34 0 .6-.5 1.1-1.1 1.1-.62 0-1.12-.5-1.12-1.1 0-.5.1-1 .26-1.46-.87-.57-1.9-.88-2.94-.9zm10.08 11.14c.38-.14.8-.06 1.1.2.3.27.44.68.36 1.07-.54 2.75-2.72 4.88-5.48 5.33-.8 2.15-2.87 3.57-5.17 3.56-.6 0-1.1-.5-1.1-1.12 0-.6.5-1.1 1.1-1.1 1.08 0 2.1-.52 2.7-1.4-1.36-.3-2.6-1-3.55-2.05-.4-.45-.37-1.15.08-1.56.46-.42 1.16-.38 1.57.07 1.52 1.63 4 1.9 5.84.67.9-.6 1.53-1.53 1.8-2.58l.04-.23c.06-.4.34-.73.72-.86zm-9.84-4.5c.6 0 1.1.5 1.1 1.12 0 .57-.42 1.04-.98 1.1h-.12c-.77 0-1.5.3-2.04.85-.5.5-.8 1.16-.84 1.84v.2c0 .62-.5 1.12-1.1 1.12-.3 0-.6-.12-.8-.32-.2-.2-.32-.5-.32-.8 0-2.8 2.28-5.1 5.1-5.1zM326 376.1c.37-.16.8-.1 1.1.14.32.24.48.63.43 1.03-.04.34-.25.65-.56.82l-.1.05-3.1 1.27c-.12.06-.27.08-.4.08-.54 0-1-.37-1.1-.9-.1-.47.13-.95.55-1.18l.1-.05 3.1-1.27zm-51.84.6c.22-.53.8-.8 1.34-.64l.1.04 3.1 1.27c.55.23.82.88.6 1.45-.23.53-.8.8-1.35.64l-.1-.04-3.1-1.27c-.55-.24-.82-.9-.6-1.45zm44.85-8.74c.3-.3.7-.4 1.1-.3.38.1.68.4.78.8.1.34 0 .7-.2.97l-.1.1-1.1 1.1c-.3.3-.7.4-1.1.3-.37-.1-.68-.4-.78-.78-.1-.35 0-.7.2-.98l.1-.1 1.1-1.1zm-37.47-.3c.34-.1.7 0 .98.2l.1.1 1.1 1.1c.33.33.43.8.26 1.22-.18.4-.58.68-1.03.68-.25 0-.5-.08-.7-.24l-.08-.08-1.1-1.1c-.3-.3-.42-.7-.32-1.1.1-.38.4-.68.8-.78zm28.87-5.97c.23-.58.88-.85 1.45-.6.27.1.5.3.6.6.1.2.1.46.04.7l-.05.14-1.28 3.07c-.17.43-.57.7-1.02.7-.15 0-.3-.03-.43-.1-.27-.1-.48-.32-.6-.6-.1-.22-.1-.47-.04-.7l.04-.14 1.28-3.07zm-20.2-.72h.14c.35.06.66.28.83.6l.05.1 1.28 3.08c.1.27.1.58 0 .85-.12.28-.33.5-.6.6-.14.07-.28.1-.43.1-.4 0-.77-.22-.97-.57l-.05-.12-1.28-3.06c-.16-.37-.1-.8.13-1.12.22-.28.55-.45.9-.44zm10.6-.98c.58 0 1.05.43 1.1 1l.02.1v1.12c0 .6-.5 1.1-1.1 1.1-.58 0-1.05-.42-1.1-.98l-.02-.12v-1.1c0-.62.5-1.12 1.1-1.12z"/></g></g></svg>