<svg xmlns="http://www.w3.org/2000/svg" width="54" height="54"><title>3</title><desc>Created with Sketch.</desc><defs><linearGradient id="a" x1="100%" x2="0%" y1="100%" y2="0%"><stop stop-color="#0C9EE2" offset="0%"/><stop stop-color="#00D0D3" offset="100%"/></linearGradient></defs><g fill="none"><g fill="url(#a)" fill-rule="nonzero" transform="translate(-1098 -221)"><path d="M1148.52 221c1.85 0 3.37 1.46 3.47 3.28v.2l-.06 38.28c0 1.58-1.06 2.92-2.5 3.34l-.2.05v.38c0 .8-.6 1.47-1.4 1.55h-14.77v1h2.4c1.52 0 2.78 1.2 2.87 2.72V273.67c0 .7-.5 1.26-1.18 1.32h-24.27c-.68 0-1.24-.52-1.3-1.18l-.02-.14v-1.7c0-1.54 1.2-2.8 2.7-2.9h2.58v-2.84h-7.6c-.44 0-.8-.35-.8-.8 0-.4.3-.72.7-.77h17.03v-2c0-.8.6-1.46 1.4-1.54h.77v-1.37h-28.8v3c0 1 .78 1.82 1.75 1.9H1104.45c.44 0 .8.36.8.8 0 .4-.3.73-.7.78H1101.5c-1.85 0-3.37-1.45-3.47-3.28V224.48c0-1.85 1.45-3.37 3.28-3.47h47.24zm-13.05 49.66h-21c-.68 0-1.23.52-1.3 1.18v1.58h23.6v-1.45c0-.67-.5-1.23-1.17-1.3h-.13zm-9.28-4.42h-7.76v2.84h13.06v-1h-3.75c-.8 0-1.47-.62-1.55-1.4V266.23zm21.47-3.53h-19.9v3.8h19.9v-3.8zm-14.03 1.1c.43 0 .8.37.8.8 0 .4-.3.74-.7.8h-3.9c-.44 0-.8-.36-.8-.8 0-.4.3-.73.7-.78h3.9zm11.97 0c.44 0 .8.37.8.8 0 .4-.3.74-.7.8h-5.46c-.44 0-.8-.36-.8-.8 0-.4.3-.73.7-.78h5.47zm-8.05 0c.44 0 .8.37.8.8 0 .4-.3.74-.7.8h-1.33c-.43 0-.8-.36-.8-.8 0-.4.3-.73.7-.78h1.33zm12.8-4.04h-3.28v1.37h.62c.8 0 1.47.6 1.54 1.4v1.95c.62-.27 1.05-.86 1.1-1.55l.02-.17v-3zm-4.86-.3h-15.55v1.67h15.54v-1.67zm4.86-27.7h-50.78v26.42h26.64l-.02-2.37v-1.74c0-.8.6-1.47 1.4-1.55h.77v-1.66h-.62c-.8 0-1.47-.62-1.55-1.4v-4c0-.8.6-1.48 1.4-1.55l.15-.02h10.56c.45 0 .8.36.8.8 0 .4-.3.72-.68.78h-10.65v3.8h19.9v-3.8h-4.44c-.44 0-.8-.35-.8-.8 0-.4.3-.72.7-.77l.1-.02h4.46c.8 0 1.47.62 1.54 1.4v4c0 .8-.6 1.48-1.4 1.55h-.78v1.67h.62c.8 0 1.47.62 1.54 1.4v.16s0 2.92 0 3.85l-.02.28h1.14v-26.42zm-2.7 22.33h-19.9v3.78h19.9v-3.8zm-14.02 1.1c.43 0 .8.35.8.78 0 .4-.3.73-.7.8h-3.9c-.44 0-.8-.36-.8-.8 0-.4.3-.73.7-.78h3.9zm11.97 0c.44 0 .8.35.8.78 0 .4-.3.73-.7.8h-5.46c-.44 0-.8-.36-.8-.8 0-.4.3-.73.7-.78h5.47zm-8.05 0c.44 0 .8.35.8.78 0 .4-.3.73-.7.8h-1.33c-.43 0-.8-.36-.8-.8 0-.4.3-.73.7-.78h1.33zm7.94-4.36h-15.55v1.66h15.54v-1.66zm-21.27-.2c.44 0 .8.35.8.78 0 .4-.3.74-.7.8h-7.05c-.44 0-.8-.36-.8-.8 0-.4.3-.73.7-.78h7.05zm-9.65 0c.44 0 .8.35.8.78 0 .4-.3.74-.7.8h-5.42c-.44 0-.8-.36-.8-.8 0-.4.3-.73.7-.78h5.42zm-7.74 0c.43 0 .8.35.8.78 0 .4-.3.74-.7.8H1102.74c-.43 0-.78-.36-.78-.8 0-.4.3-.73.68-.78H1106.84zm-1.83-3.32c.45 0 .8.36.8.8 0 .4-.3.73-.68.78h-2.37c-.44 0-.8-.35-.8-.78 0-.4.3-.74.7-.8h2.36zm13.82 0c.44 0 .8.36.8.8 0 .4-.3.73-.7.78h-1.48c-.43 0-.8-.35-.8-.78 0-.4.3-.74.7-.8h1.48zm-4.25 0c.44 0 .8.36.8.8 0 .4-.3.73-.7.78h-6.88c-.45 0-.8-.35-.8-.78 0-.4.3-.74.68-.8H1114.58zm9.35 0c.43 0 .8.36.8.8 0 .4-.3.73-.7.78h-2.7c-.43 0-.78-.35-.78-.78 0-.4.3-.74.68-.8h2.7zm9.72-.75c.43 0 .8.35.8.8 0 .4-.3.72-.7.77h-3.9c-.44 0-.8-.34-.8-.78 0-.4.3-.73.7-.78h3.9zm11.97 0c.44 0 .8.35.8.8 0 .4-.3.72-.7.77h-5.46c-.44 0-.8-.34-.8-.78 0-.4.3-.73.7-.78h5.47zm-8.05 0c.44 0 .8.35.8.8 0 .4-.3.72-.7.77h-1.33c-.43 0-.8-.34-.8-.78 0-.4.3-.73.7-.78h1.33zm-29.48-2.58c.44 0 .8.34.8.78 0 .4-.3.73-.7.78h-5.42c-.44 0-.8-.34-.8-.78 0-.4.3-.73.7-.8h5.42zm12.26 0c.44 0 .8.34.8.78 0 .4-.3.73-.7.78H1110.98c-.43 0-.8-.34-.8-.78 0-.4.3-.73.7-.8H1120.33zm6.54-3.8c.43 0 .8.34.8.78 0 .4-.3.73-.7.78h-2.42c-.44 0-.8-.34-.8-.78 0-.4.3-.73.7-.78h2.42zm-4.96 0c.45 0 .8.34.8.78 0 .4-.3.73-.68.78H1116.24c-.44 0-.8-.34-.8-.78 0-.4.3-.73.7-.78h5.77zm14.24 0c.44 0 .8.34.8.78 0 .4-.3.73-.7.78h-6.84c-.44 0-.8-.34-.8-.78 0-.4.3-.73.7-.78h6.84zm-28.08-5.3c.16-.42.62-.62 1.03-.46.36.15.56.54.46.92l-.03.1-1.94 4.97c-.14.3-.43.5-.75.5-.1 0-.2-.02-.3-.06-.36-.14-.56-.54-.47-.92l.03-.1 1.96-4.96zm2.08-.28c.28-.28.72-.3 1.03-.08l.1.08 2.47 2.48c.28.28.3.72.07 1.03l-.06.1-2.48 2.47c-.15.15-.36.23-.56.23-.2 0-.4-.08-.56-.23-.28-.28-.3-.72-.07-1.03l.07-.1 1.92-1.9-1.92-1.93c-.3-.3-.3-.8 0-1.12zm-5.92 0c.3-.3.8-.3 1.12 0 .28.28.3.72.07 1.03l-.06.1-1.92 1.9 1.92 1.93c.3.3.3.8 0 1.12-.16.15-.36.23-.56.23-.16 0-.33-.05-.46-.15l-.1-.08-2.48-2.48c-.15-.15-.23-.35-.23-.56 0-.17.06-.33.16-.47l.08-.1 2.48-2.48zm14.74 2.1c.44 0 .8.34.8.78 0 .4-.3.73-.7.78H1116.25c-.44 0-.8-.34-.8-.78 0-.4.3-.73.7-.78H1118.95zm19.7 0c.45 0 .8.34.8.78 0 .4-.3.73-.68.78h-16.76c-.44 0-.8-.34-.8-.78 0-.4.3-.73.7-.78h16.75zm9.8-14.14h-46.92c-1 0-1.82.77-1.9 1.75V230.18h50.72v-5.7c0-1-.77-1.8-1.74-1.9h-.16zm-44.63 1.46c1.28 0 2.32 1.04 2.32 2.32 0 1.28-1.04 2.32-2.32 2.32-1.28 0-2.32-1.04-2.32-2.32 0-1.28 1.05-2.32 2.33-2.32zm5.9 0c1.28 0 2.32 1.04 2.32 2.32 0 1.28-1.04 2.32-2.32 2.32-1.28 0-2.32-1.04-2.32-2.32 0-1.28 1.05-2.32 2.33-2.32zm5.9 0c1.3 0 2.33 1.04 2.33 2.32 0 1.28-1.04 2.32-2.32 2.32-1.28 0-2.32-1.04-2.32-2.32 0-1.28 1.04-2.32 2.32-2.32zm-11.8 1.58c-.4 0-.74.33-.74.74 0 .4.32.74.73.74.4 0 .74-.33.74-.74 0-.4-.33-.74-.74-.74zm5.9 0c-.4 0-.74.33-.74.74 0 .4.33.74.73.74.4 0 .74-.33.74-.74 0-.4-.33-.74-.74-.74zm5.9 0c-.4 0-.73.33-.73.74 0 .4.33.74.74.74.4 0 .74-.33.74-.74 0-.4-.33-.74-.74-.74z"/></g></g></svg>