<svg xmlns="http://www.w3.org/2000/svg" width="53" height="53"><title>4</title><desc>Created with Sketch.</desc><defs><linearGradient id="a" x1="100%" x2="0%" y1="100%" y2="0%"><stop stop-color="#0C9EE2" offset="0%"/><stop stop-color="#00D0D3" offset="100%"/></linearGradient></defs><g fill="none"><g fill="url(#a)" fill-rule="nonzero" transform="translate(-786 -221)"><path d="M797.1 221c1.37 0 2.48 1.06 2.57 2.4v17.26c0 1.36-1.05 2.47-2.38 2.56h-3.6v2.57h6.33c.55-.34 1.16-.6 1.8-.73 1-2.62 3.56-4.4 6.4-4.4.96 0 1.9.2 2.78.6 1.26-1.96 3.43-3.17 5.77-3.17 3.78 0 6.84 3.06 6.84 6.84v.25c.84.24 1.6.67 2.24 1.23l.23.22h3.53v-8.55h-4.28v-1.7h1.7v-1.72h-2.55c-1.36 0-2.47-1.06-2.56-2.4V223.58c0-1.35 1.06-2.46 2.4-2.55h12.14c1.35 0 2.46 1.06 2.55 2.4v8.71c0 1.37-1.06 2.48-2.4 2.57h-2.73v1.72h1.7v1.7h-4.26v10.25h-4.02c.22.45.38.92.48 1.42l.06.3h5.2v8.54H839V274h-13.68v-15.4h6v-6.83h-3.5c-.4 2.82-2.77 5-5.66 5.13H803.1c-3.22 0-5.86-2.56-5.98-5.75v-.23h-1.72v7.7h5.13c1.36 0 2.47 1.05 2.56 2.38v7.88h1.7v2.56c0 1.35-1.05 2.46-2.38 2.55h-13.86c-1.35 0-2.46-1.06-2.55-2.4v-2.73h1.7v-7.7c0-1.35 1.07-2.46 2.4-2.55h3.59v-9.4h3.68c.16-.53.38-1 .66-1.46l.17-.26H792v-4.27h-3.42c-1.35 0-2.46-1.06-2.55-2.4V223.57c0-1.35 1.06-2.46 2.4-2.55h8.71zm6 49.58h-15.4v.86c0 .43.34.8.76.84h13.78c.44 0 .8-.32.85-.74v-.96zm34.2-3.42h-10.27v5.13h10.26v-5.14zm-1.72 1.7v1.72h-1.7v-1.7h1.7zm-3.42 0v1.72h-3.42v-1.7h3.42zm-31.63-8.54h-10.26c-.43 0-.8.33-.84.75v7.8h11.96v-7.7c0-.43-.34-.8-.76-.84h-.1zm36.76 0h-10.27v5.13h10.26v-5.13zm-6.85 1.7v1.72h-1.7v-1.7h1.7zm5.13 0v1.72h-3.42v-1.7h3.42zm-18.8-22.2c-1.9 0-3.66 1.06-4.54 2.74l-.1.2-.42.88-.8-.5c-.82-.5-1.75-.77-2.7-.77-2.18 0-4.14 1.42-4.85 3.48l-.07.22-.16.54-.56.08c-2.14.26-3.76 2.08-3.76 4.24 0 2.28 1.8 4.16 4.06 4.27h19.02c2.36 0 4.28-1.92 4.28-4.28 0-2.02-1.46-3.78-3.42-4.18l-.2-.04-.85-.13.14-.84c.04-.3.06-.56.06-.8 0-2.82-2.3-5.12-5.13-5.12zm-18.8-3.43H787.7v4.26c0 .44.34.8.76.85l.1.02h8.55c.45 0 .8-.33.86-.75v-4.38zm-3.43 1.7v1.7h-3.42v-1.7h3.42zm37.6-3.42h-3.4v1.7h3.4v-1.7zm-34.18-8.55H787.7v8.55h10.27v-8.55zm39.32 5.13h-13.7v.85c0 .45.34.8.76.86h12.08c.43 0 .8-.32.84-.74v-.96zm-.86-8.55h-11.97c-.44 0-.8.34-.85.76v6.1h13.67v-6c0-.43-.34-.8-.76-.84h-.1zm-39.33 0h-8.54c-.43 0-.8.34-.84.76v.96h10.25v-.86c0-.43-.33-.8-.75-.84h-.1z"/></g></g></svg>