<svg xmlns="http://www.w3.org/2000/svg" width="62" height="62"><title>5</title><desc>Created with Sketch.</desc><defs><linearGradient id="a" x1="100%" x2="0%" y1="100%" y2="0%"><stop stop-color="#0C9EE2" offset="0%"/><stop stop-color="#00D0D3" offset="100%"/></linearGradient></defs><g fill="none"><g fill="url(#a)" fill-rule="nonzero" transform="translate(-490 -365)"><path d="M527.6 365c.62 0 1.13.47 1.2 1.08V387.64h21.44c.62 0 1.13.47 1.2 1.08V425.24c0 .62-.47 1.13-1.08 1.2H513.84c-.62 0-1.13-.47-1.2-1.08V403.8H491.2c-.62 0-1.13-.47-1.2-1.08V366.2c0-.62.47-1.13 1.08-1.2H527.6zm21.44 25.04H528.8v2.4h16.64c.62 0 1.13.47 1.2 1.08v26.92c0 .62-.47 1.13-1.08 1.2h-26.92c-.62 0-1.13-.47-1.2-1.08V403.8h-2.4v20.24h34v-34zm-4.8 4.8H528.8v7.76c0 .62-.47 1.13-1.08 1.2h-7.88v15.44h24.4v-24.4zm-3.96 7.76c.62 0 1.13.47 1.2 1.08v11.6c0 .62-.47 1.13-1.08 1.2H527.44c-.66 0-1.2-.54-1.2-1.2 0-.62.47-1.13 1.08-1.2h11.76V403.8c0-.66.54-1.2 1.2-1.2zm-17.4 11.48l.15.02c.07.02.15.04.22.07.07.03.14.07.2.1.07.06.13.1.2.16.04.06.1.12.14.18.03.08.07.15.1.22s.05.15.07.23c0 .07.02.15.02.23 0 .08-.02.16-.03.23-.02.1-.04.17-.07.24-.03.07-.07.14-.1.2-.05.07-.1.13-.16.2-.06.04-.12.1-.18.14-.07.04-.14.08-.2.1-.08.04-.16.06-.23.08-.08 0-.16.02-.24.02-.1 0-.17 0-.24-.02-.08-.02-.16-.04-.23-.07-.07-.04-.14-.08-.2-.12-.07-.05-.13-.1-.2-.15-.04-.06-.1-.12-.14-.18-.05-.07-.1-.14-.12-.2-.03-.08-.05-.16-.07-.24 0-.06 0-.14 0-.22 0-.08 0-.16 0-.23.03-.08.05-.16.08-.23s.07-.14.1-.2c.06-.07.1-.13.16-.2.06-.04.12-.1.18-.14.07-.04.14-.08.2-.1.08-.04.16-.06.24-.08.1-.02.2-.02.3-.02zm3.52-24.04h-11.36v11.36h11.36v-11.36zm0-22.64h-34v34h20.24V399H496c-.62 0-1.13-.47-1.2-1.08V371c0-.62.47-1.13 1.08-1.2h26.92c.62 0 1.13.47 1.2 1.08v16.76h2.4V367.4zm-4.8 4.8h-24.4v24.4h15.44v-7.76c0-.62.47-1.13 1.08-1.2h7.88V372.2zm-7.6 2.76c.66 0 1.2.54 1.2 1.2 0 .62-.47 1.13-1.08 1.2h-11.76v10.28c0 .66-.54 1.2-1.2 1.2-.62 0-1.13-.47-1.2-1.08v-11.6c0-.62.47-1.13 1.08-1.2H514zm4.73 0l.15.02c.08.02.16.04.23.07.08.03.15.07.22.1.06.06.12.1.18.16.05.07.1.13.15.2.04.06.08.13.1.2.04.07.06.15.08.23 0 .07.02.15.02.23 0 .32-.13.63-.35.85-.06.06-.12.1-.18.16-.07.04-.14.08-.2.1-.08.04-.16.06-.24.08-.07 0-.15.02-.23.02-.08 0-.16 0-.24-.02-.06-.02-.14-.04-.2-.07-.08-.03-.15-.07-.22-.1-.06-.06-.12-.1-.18-.16-.22-.2-.35-.52-.35-.84 0-.08 0-.16.02-.23.02-.08.04-.16.07-.23.03-.07.07-.14.1-.2.05-.07.1-.13.16-.2.06-.04.12-.1.18-.14.07-.04.14-.08.2-.1.08-.04.16-.06.23-.08.12-.02.22-.02.33-.02z"/></g></g></svg>