<svg xmlns="http://www.w3.org/2000/svg" width="65" height="65"><title>6</title><desc>Created with Sketch.</desc><defs><linearGradient id="a" x1="100%" x2="0%" y1="100%" y2="0%"><stop stop-color="#0C9EE2" offset="0%"/><stop stop-color="#00D0D3" offset="100%"/></linearGradient></defs><g fill="none"><g fill="url(#a)" fill-rule="nonzero" transform="translate(-817 -361)"><path d="M876.28 361c2.8 0 5.08 2.2 5.2 4.98v33.5c0 2.8-2.2 5.08-4.98 5.2H873.16v3.12c0 2.8-2.2 5.08-4.98 5.2H853.4v4.16h1.04c1.66 0 3.02 1.3 3.12 2.94v4.34c0 .54-.4.98-.93 1.03h-23c-.53 0-.97-.4-1.02-.92v-4.27c0-1.66 1.3-3.02 2.94-3.12h1.22V413H822.2c-2.8 0-5.08-2.2-5.2-4.98v-33.5c0-2.8 2.2-5.08 4.98-5.2h7.5v-3.12c0-2.8 2.2-5.08 4.98-5.2h41.82zm-21.84 58.24h-18.72c-.54 0-.98.4-1.03.93l-.02.1v3.13h20.8v-3.12c0-.54-.4-.98-.93-1.03h-.1zm-3.12-6.24h-12.48v4.16h12.48V413zm-21.84-41.6h-7.28c-1.66 0-3.02 1.3-3.12 2.94v33.46c0 1.66 1.3 3.02 2.94 3.12h45.94c1.66 0 3.02-1.3 3.12-2.94V404.68H869v3.12c0 .54-.4.98-.93 1.03H822.2c-.54 0-.98-.4-1.03-.92v-33.38c0-.54.4-.98.92-1.03l.1-.02h7.28v-2.08zm0 4.16h-6.24v31.2h43.68v-2.08h-32.24c-2.8 0-5.08-2.2-5.2-4.98v-24.14zm49.92-4.16h-6.24v1.04c0 1.66-1.3 3.02-2.94 3.12h-38.66v23.92c0 1.66 1.3 3.02 2.94 3.12h41.78c1.66 0 3.02-1.3 3.12-2.94V371.4zm-6.24 14.56c2.3 0 4.16 1.87 4.16 4.16 0 1.68-1 3.12-2.44 3.78l-.2.08 2.53 5.04c.2.4.13.88-.18 1.2-.2.2-.47.3-.74.3-.12 0-.24-.02-.35-.06l-.1-.05-3.7-1.84-3.7 1.85c-.4.2-.9.13-1.2-.18-.3-.3-.38-.7-.25-1.08l.05-.12 2.52-5.04c-1.54-.6-2.63-2.1-2.63-3.86 0-2.22 1.75-4.05 3.95-4.15H873.17zm-11.44-8.32c1.66 0 3.02 1.3 3.12 2.94v12.66c0 1.66-1.3 3.02-2.94 3.12h-1.22v1.04c0 1.66-1.3 3.02-2.94 3.12h-20.98c-1.66 0-3.02-1.3-3.12-2.94v-12.66c0-1.66 1.3-3.02 2.94-3.12h1.22v-1.04c0-1.66 1.3-3.02 2.94-3.12h20.98zm-3.12 10.4h-22.88v9.36c0 .54.4.98.93 1.03H857.55c.55 0 1-.4 1.04-.92V388.05zm13.52 5.45l-1.83 3.65 1.36-.68c.14-.07.3-.1.46-.1.12 0 .24 0 .35.05l.1.05 1.38.68-1.83-3.66zm-18.72-3.38c1.72 0 3.12 1.4 3.12 3.12 0 1.72-1.4 3.12-3.12 3.12-.35 0-.7-.06-1.04-.2-.34.14-.7.2-1.04.2-1.72 0-3.12-1.4-3.12-3.12 0-1.72 1.4-3.12 3.12-3.12.35 0 .7.06 1.04.2.34-.14.7-.2 1.04-.2zm8.32-10.4h-20.8c-.54 0-.98.4-1.03.93l-.02.1v1.05h17.68c1.66 0 3.02 1.3 3.12 2.94v9.54h1.04c.54 0 .98-.4 1.03-.93v-12.6c0-.53-.4-.97-.92-1.02h-.1zm-9.76 12.7l-.12-.07c-.72-.42-1.56.14-1.56.9 0 .7.77 1.25 1.45.94l.1-.07c.17-.1.35-.14.53-.14.14 0 .27.02.4.07l.12.06c.7.42 1.56-.14 1.56-.9 0-.7-.77-1.24-1.45-.94l-.12.05c-.28.16-.62.18-.92.06zm21.2-4.38h-2.08c-1.15 0-2.08.93-2.08 2.08 0 .88.56 1.63 1.34 1.93l.15.05.7-1.4c.32-.67 1.37-.7 1.78-.12l.07.12.7 1.4c.86-.25 1.5-1.04 1.5-1.98 0-1.1-.86-2-1.94-2.07h-.14zm-15.6-4.16h-20.8c-.54 0-.98.4-1.03.93V385.97h22.87v-1.04c0-.54-.4-.98-.93-1.03l-.1-.02zm-3.12-12.48h-6.24v2.08h6.24v-2.08zm8.32 0h-6.24v2.08h6.24v-2.08zm8.32 0h-6.24v2.08h5.2c.54 0 .98-.4 1.03-.93V371.4zm-33.28 0h-6.24v2.08h6.24v-2.08zm8.32 0h-6.24v2.08h6.24v-2.08zm30.16-8.32h-41.6c-1.66 0-3.02 1.3-3.12 2.94V369.32h47.84v-3.12c0-1.66-1.3-3.02-2.94-3.12h-.18zm-1.04 2.08v2.08h-2.08v-2.08h2.08zm-4.16 0v2.08H869v-2.08h2.08zm-4.16 0v2.08h-2.08v-2.08h2.08z"/></g></g></svg>