<svg xmlns="http://www.w3.org/2000/svg" width="62" height="54"><defs><linearGradient id="a" x1="100%" x2="0%" y1="87.929%" y2="12.071%"><stop offset="0%" stop-color="#0C9EE2"/><stop offset="100%" stop-color="#00D0D3"/></linearGradient></defs><path fill="url(#a)" fill-rule="nonzero" d="M759.7 366a5.19 5.19 0 015.17 5.1V393h1.03a3.1 3.1 0 013.1 3.06v20.82a3.1 3.1 0 01-3.05 3.12h-8.32a3.1 3.1 0 01-3.1-3.06v-9.4h-12.4v6.23h3.1a5.19 5.19 0 015.17 5.2c0 .55-.45 1.01-1 1.03H710.1a3.1 3.1 0 01-3.1-3.06v-27.06a3.1 3.1 0 013.05-3.11h1.08v-15.58a5.19 5.19 0 015.08-5.19h43.49zm-29.97 49.85h-20.66v1.03c0 .57.44 1.03 1 1.04H728.7c.56 0 1.02-.44 1.03-1v-1.07zm15.5 0H731.8v1.03c0 .34-.06.66-.17.98l-.02.06h16.55a3.1 3.1 0 00-2.87-2.07h-.06zm21.7 0H756.6v1.03c0 .57.45 1.03 1 1.04H765.9c.56 0 1.02-.44 1.03-1v-1.07zm-38.23-27h-18.6c-.56 0-1.02.44-1.03 1v23.92h20.66v-23.89c0-.56-.44-1.02-1-1.03h-.03zm5.17 18.69h-2.07v6.23h2.07v-6.23zm6.2 0h-4.14v6.23h4.14v-6.23zm25.83-12.46h-8.27c-.56 0-1.01.44-1.03 1V413.77h10.33v-17.65c0-.57-.44-1.03-1-1.04h-.03zm-3.4 7.14c.4-.39 1.03-.39 1.43 0 .4.4.42 1.03.05 1.44l-.02.03-2.95 2.96c-.41.4-1.06.39-1.46-.02a1.04 1.04 0 010-1.45l2.95-2.96zm-44.61-2.81c.4-.4 1.05-.4 1.46 0-.18.52.16 1.11.01 1.44l-.01.03-4.41 4.43c-.41.4-1.07.39-1.46-.03a1.04 1.04 0 010-1.44l4.4-4.43zm6.2 0c.4-.39 1.03-.39 1.43 0 .4.39.42 1.03.05 1.44l-.02.03-4.41 4.43c-.41.4-1.07.39-1.46-.03a1.04 1.04 0 010-1.44l4.4-4.43zm30.44-.18H731.8v6.23h22.73v-6.23zm-16.5 2.08c.56 0 1.02.46 1.02 1.04a1.04 1.04 0 01-2.07 0c0-.56.44-1.02 1-1.04h.04zm21.67-33.23h-43.4a3.1 3.1 0 00-3.1 3.06v15.63h15.5c.44 0 .88.1 1.28.28.02-.02.03-.04.04-.06l.02-.02 10.23-10.28c.4-.4 1.03-.4 1.43 0 .4.39.42 1.03.05 1.44l-.02.03-10.23 10.28c-.02.01-.04.02-.05.03.21.42.34.88.35 1.35V397.15h22.73v-1.03a3.1 3.1 0 013.05-3.12h5.22v-21.8a3.1 3.1 0 00-3.05-3.12h-.05zm-13.13 8.6c.4-.38 1.03-.38 1.44 0 .4.4.42 1.04.04 1.45l-.02.03-10.25 10.3c-.42.4-1.07.4-1.47-.02a1.04 1.04 0 010-1.45l10.26-10.3zm-6.5-6.53c.57 0 1.03.47 1.03 1.04 0 .56-.45 1.02-1 1.04h-4.17c-.57 0-1.03-.46-1.03-1.04 0-.56.45-1.02 1-1.04h4.17z" transform="translate(-707 -366)"/></svg>