<svg xmlns="http://www.w3.org/2000/svg" width="64" height="64"><defs><linearGradient id="a" x1="100%" x2="0%" y1="100%" y2="0%"><stop offset="0%" stop-color="#0C9EE2"/><stop offset="100%" stop-color="#00D0D3"/></linearGradient></defs><path fill="url(#a)" fill-rule="nonzero" d="M375.61 216a22.36 22.36 0 0116.92 37.03l.14.3h3.2c1.12 0 2.04.88 2.12 1.98l.01.16v6.4c0 1.12-.87 2.04-1.97 2.13H392.67c-.4.97-.9 1.88-1.52 2.73l-.26.36 1.6 2.77a2.13 2.13 0 01-.62 2.81l-.16.1-5.54 3.2a2.13 2.13 0 01-2.82-.63l-.1-.16-1.59-2.76c-1.01.13-2.04.15-3.06.06l-.51-.06-1.6 2.77a2.13 2.13 0 01-2.73.88l-.16-.09-5.56-3.2a2.13 2.13 0 01-.86-2.76l.1-.17 1.58-2.76a13.5 13.5 0 01-1.6-2.68l-.18-.4h-3.2a2.14 2.14 0 01-2.12-1.98V260.92c-.77.3-1.6.3-2.36 0l-.2-.1-3.3 3.3a3.2 3.2 0 01-.46 3.47l-.15.16-11.3 11.31a3.2 3.2 0 01-4.38.15l-.15-.15-4.52-4.52a3.2 3.2 0 01-.15-4.37l.15-.16 11.3-11.31a3.28 3.28 0 013.42-.7l.2.1 3.3-3.3a3.15 3.15 0 01.47-3.48l.15-.16 1.3-1.3-1.14-1.97c-1.01.13-2.04.15-3.06.05l-.51-.05-1.6 2.77c-.27.49-.74.85-1.28 1-.49.12-1 .08-1.45-.13l-.16-.08-5.56-3.2a2.13 2.13 0 01-.86-2.76l.1-.17 1.59-2.76a13.52 13.52 0 01-1.6-2.68l-.19-.41h-3.2a2.14 2.14 0 01-2.12-1.98V230.93c0-1.12.86-2.04 1.97-2.12H339.37c.4-.98.9-1.9 1.5-2.74l.28-.36-1.6-2.77a2.13 2.13 0 01.61-2.81l.16-.1 5.55-3.2a2.13 2.13 0 012.81.63l.1.16 1.59 2.76c1.02-.13 2.04-.15 3.06-.05l.51.05 1.6-2.77a2.14 2.14 0 012.73-.88l.17.09 4.93 2.85a22.23 22.23 0 0112.24-3.67zm-37.66 54.01l-1.5 1.51a1.07 1.07 0 00-.1 1.4l.1.1 4.52 4.54c.38.38.99.4 1.4.08l.1-.08 1.51-1.51-6.03-6.04zm11.3-9.8a1.1 1.1 0 00-1.4-.09l-.1.09-8.29 8.3 6.03 6.03 8.3-8.3c.38-.38.4-.99.08-1.4l-.09-.1-4.52-4.53zm41.66-5.5a22.5 22.5 0 01-2.71 2.2 8.52 8.52 0 11-16.67 3.5 22.22 22.22 0 01-6.07-2.05l-.52-.27-1.06 1.06v2.72h3.94c.45 0 .86.29 1 .72.48 1.36 1.2 2.61 2.14 3.7.27.31.33.74.18 1.11l-.06.12-1.97 3.4 5.54 3.2 1.96-3.4c.22-.39.67-.6 1.11-.51a12 12 0 004.3 0c.4-.08.81.08 1.05.4l.08.11 1.96 3.4 5.53-3.2-1.96-3.4c-.23-.4-.18-.88.11-1.23.94-1.09 1.66-2.35 2.14-3.7.13-.4.47-.66.87-.71l.13-.01h3.94v-6.4h-3.94c-.4 0-.76-.23-.94-.58l-.06-.12c0-.02-.01-.04-.02-.06zm-4.68 3.4a22.23 22.23 0 01-12.4 2.6 6.39 6.39 0 0012.44-2.04c0-.19-.02-.37-.04-.55zm-31.7-1.67l-3 3.01 3 3.02 3.02-3.01-3.01-3.02zm2.52-5.53l-1.76 1.76c-.38.38-.41.98-.09 1.4l.09.1 4.52 4.53.01.01c.39.38.99.4 1.4.08l.1-.09 1.75-1.75a22.57 22.57 0 01-5.7-5.57l-.32-.47zm19.69-32.74a20.25 20.25 0 00-4.43 40.2h.04c.18-.02.35.02.51.09 4.52.66 9.13-.27 13.03-2.62l.4-.25c.02-.02.05-.03.08-.05a20.25 20.25 0 00-9.63-37.37zm-7.96 3.37a18.06 18.06 0 0117.94 2.46l.07.05.08.06a18.12 18.12 0 11-23 27.98l-.8-.71a18.1 18.1 0 01-5.4-15l.04-.5a18.08 18.08 0 0111.07-14.34zm16.59 29.48a9.04 9.04 0 00-11.47 3.2c4.1.45 8.2-.7 11.47-3.2zm4.65-14.68a.58.58 0 00-.73.13l-.05.08-3.03 5.26c-.23.4-.68.6-1.12.52-2.27-.42-4.6-.42-6.87 0-.4.07-.8-.09-1.04-.4l-.07-.12-3.03-5.26a.56.56 0 00-.35-.27.58.58 0 00-.36.02l-.08.04-8.55 4.95a.58.58 0 00-.25.7l.04.09 3.03 5.26c.23.4.18.89-.12 1.23-.62.73-1.18 1.51-1.67 2.34a15.85 15.85 0 005.9 2.9 11.19 11.19 0 0115.1-4.48l.3.18a15.96 15.96 0 004.53-11.86l-.02-.41-1.56-.9zm-32.64-17.67l-1.95 3.41c-.23.4-.68.6-1.12.52a12.02 12.02 0 00-4.3 0c-.4.07-.8-.09-1.05-.4l-.07-.12-1.96-3.4-5.54 3.2 1.97 3.4c.22.4.18.88-.12 1.23a11.48 11.48 0 00-2.13 3.7c-.14.4-.48.66-.88.72H336.17v6.4h3.93c.45 0 .86.3 1 .72.48 1.36 1.2 2.62 2.14 3.71.27.31.33.74.18 1.1l-.06.13-1.96 3.4 5.53 3.2 1.96-3.4c.22-.4.67-.6 1.11-.52 1.43.26 2.89.26 4.31 0 .05 0 .1 0 .15 0a22.1 22.1 0 01-.84-3.14 8.53 8.53 0 112.88-15.73 22.55 22.55 0 014.53-5.38l.46-.38-4.1-2.37zm28.85 7.7l-6.6 6.7a2.72 2.72 0 01-3.7.15l-.14-.13-3.8-3.75a21.48 21.48 0 01-5.3 1.55l-.6.09-1.34 5.15a2.7 2.7 0 01-3.07 2l-.22-.05-1.76-.51c-.22 4.4 1.4 8.7 4.45 11.88.28-.44.57-.86.88-1.28l.31-.4-2.66-4.62a2.7 2.7 0 01.8-3.6l.19-.1 8.56-4.96a2.7 2.7 0 013.59.82l.11.19 2.66 4.6c1.83-.26 3.69-.29 5.52-.07l.62.08 2.66-4.62a2.7 2.7 0 013.5-1.1l.18.1.09.04a15.88 15.88 0 00-4.2-7.51l-.24-.22-.49-.43zm-34.07 1.36a6.4 6.4 0 101.16 12.69c-.05-.67-.1-1.34-.1-2.02 0-3.37.78-6.69 2.25-9.72-1-.62-2.14-.95-3.31-.95zm32.38-2.69a16 16 0 00-24.52 9.95l-.09.43 2.09.6a.57.57 0 00.63-.34l.03-.08 1.53-5.87c.1-.44.48-.76.93-.8a19.21 19.21 0 006.62-1.83c.37-.17.8-.12 1.11.12l.1.09 4.32 4.26a.58.58 0 00.76.05l.06-.06 6.43-6.52z" transform="translate(-334 -216)"/></svg>