<svg xmlns="http://www.w3.org/2000/svg" width="42" height="54"><defs><linearGradient id="a" x1="80.247%" x2="19.753%" y1="100%" y2="0%"><stop offset="0%" stop-color="#0C9EE2"/><stop offset="100%" stop-color="#00D0D3"/></linearGradient></defs><path fill="url(#a)" fill-rule="nonzero" d="M1034.18 221a2.4 2.4 0 012.4 2.21v2.27h.8a2.4 2.4 0 012.4 2.21l.01.17v2.1h.8a2.4 2.4 0 012.4 2.22l.01.16v5.52a.8.8 0 01-.8.8.8.8 0 01-.8-.7V232.35a.8.8 0 00-.7-.79h-.9v36.6c0 1.25-1 2.28-2.25 2.36h-5.32a.8.8 0 01-.8-.78c0-.4.3-.73.69-.79h5.27c.4 0 .74-.3.8-.69v-40.4a.8.8 0 00-.7-.78h-.9v36.6c0 1.25-1 2.28-2.24 2.36H1005.8v2.11c0 .4.3.74.7.79h22.32a.8.8 0 01.1 1.57l-.1.02h-19.81v2.1c0 .4.3.74.69.8h30.89c.4 0 .74-.3.79-.69v-31.51c0-.44.37-.8.8-.8.41 0 .75.3.8.69l.01.1v31.42c0 1.25-1 2.28-2.24 2.36l-.16.01h-30.78a2.4 2.4 0 01-2.4-2.21v-2.27h-.8a2.4 2.4 0 01-2.4-2.21l-.01-.17v-2.1h-.8a2.4 2.4 0 01-2.4-2.22l-.01-.16v-32.55c0-.44.36-.79.8-.79.4 0 .74.3.8.68v32.66c0 .4.3.73.7.79H1034.18c.4 0 .74-.3.8-.68v-40.4a.8.8 0 00-.69-.78h-30.89a.8.8 0 00-.79.68v4.47a.8.8 0 01-.8.79.8.8 0 01-.8-.69l-.01-.1v-4.37c0-1.25 1-2.28 2.24-2.36l.16-.01h30.78zm-21 32.33c.64 0 1.16.47 1.22 1.08l.01.13v5.48c0 .63-.48 1.14-1.1 1.2l-.13.02h-5.55c-.64 0-1.16-.48-1.23-1.08v-5.62c0-.63.48-1.14 1.1-1.2l.13-.01h5.55zm-.37 1.58H1008v4.74h4.8v-4.74zm17.58 3.06c.44 0 .8.35.8.79 0 .4-.3.73-.7.78h-12.93a.8.8 0 01-.8-.78c0-.4.3-.73.7-.79h12.93zm0-3.38a.8.8 0 01.1 1.57l-.1.01h-12.83a.8.8 0 01-.8-.79c0-.4.3-.73.7-.78h12.93zm-17.2-11.5c.63 0 1.15.48 1.21 1.09l.01.13v5.48c0 .63-.48 1.14-1.1 1.2l-.13.02h-5.55c-.64 0-1.16-.48-1.23-1.09v-5.61c0-.63.48-1.14 1.1-1.2l.13-.01h5.55zm-.38 1.59H1008v4.74h4.8v-4.74zm17.58 3.06c.44 0 .8.35.8.79 0 .4-.3.73-.7.78h-12.93a.8.8 0 01-.8-.78c0-.4.3-.73.7-.79h12.93zm0-3.38a.8.8 0 01.1 1.57l-.1.01h-12.83a.8.8 0 01-.8-.79c0-.4.3-.73.7-.78h12.93zM1015 232.9a.8.8 0 011.13.08c.27.3.26.75 0 1.04l-.09.08-1.64 1.38v4.08c0 .63-.48 1.14-1.1 1.2l-.13.02h-5.55c-.64 0-1.16-.48-1.23-1.09v-5.61c0-.63.48-1.14 1.1-1.2l.13-.01h5.55c.43 0 .8.21 1.03.54l.06.11.74-.62zm-2.2 1.55H1008v4.74h4.8v-2.36l-1.13.96a.81.81 0 01-1.02.01l-.09-.07-1.28-1.38a.78.78 0 01.05-1.11.81.81 0 011.04-.04l.09.08.76.81 1.59-1.34v-.3zm17.58 3.06c.44 0 .8.35.8.79 0 .4-.3.73-.7.78h-12.93a.8.8 0 01-.8-.78c0-.4.3-.73.7-.79h12.93zm0-3.38a.8.8 0 01.1 1.57l-.1.01h-12.83a.8.8 0 01-.8-.79c0-.4.3-.73.7-.78h12.93zm-4.06-9.39a2.66 2.66 0 012.67 2.64c0 1.4-1.1 2.54-2.5 2.63h-14.92a2.66 2.66 0 01-2.67-2.63c0-1.4 1.1-2.54 2.5-2.63h14.92zm0 1.59h-14.75c-.59 0-1.07.47-1.07 1.05 0 .54.41.99.95 1.05h14.87c.59 0 1.07-.47 1.07-1.05 0-.54-.42-.99-.95-1.05h-.12z" transform="translate(-1001 -221)"/></svg>