<svg xmlns="http://www.w3.org/2000/svg" width="58" height="58" viewBox="0 0 58 58">
    <defs>
        <linearGradient id="prefix__a" x1="100%" x2="0%" y1="100%" y2="0%">
            <stop offset="0%" stop-color="#0C9EE2"/>
            <stop offset="100%" stop-color="#00D0D3"/>
        </linearGradient>
    </defs>
    <g fill="none">
        <circle cx="28.8" cy="28.8" r="28.8" fill="url(#prefix__a)"/>
        <path fill="#FFF" d="M37.657 19.884c-6.662-1.01-13.439-1.01-20.101 0h-.031c-.898.178-1.604.872-1.799 1.767-.468 2.497-.711 5.032-.726 7.573 0 2.658.254 5.31.758 7.92.177.88.857 1.574 1.735 1.767 2.401.472 4.842.715 7.29.725 2.633.002 5.258-.293 7.825-.88.204-.062.425-.027.6.095l3.28 1.64c.208.107.43.182.662.221h.03c.104.026.21.037.316.032 1.096-.003 2.023-.81 2.178-1.894.368-2.677.548-5.377.536-8.08.017-3.055-.226-6.106-.725-9.12-.167-.92-.903-1.631-1.828-1.766zm.789 18.775c-.023.249-.164.472-.379.6-.189.144-.425.212-.662.189-.127-.032-.221-.032-.284-.095l-.031-.03-3.314-1.642c-.303-.157-.637-.243-.978-.253-.16.006-.319.027-.474.064-2.471.586-5.002.881-7.542.88-2.364-.01-4.722-.253-7.04-.726-.378-.072-.67-.376-.725-.758-.504-2.524-.757-5.093-.758-7.668.013-2.457.256-4.908.726-7.32.073-.396.39-.7.789-.758 6.536-.994 13.185-.994 19.722 0 .403.047.726.357.789.758.5 2.929.743 5.896.725 8.867-.012 2.64-.2 5.277-.564 7.892zM43.4 27.614c.051 3.432-.266 6.86-.946 10.224-.062.285-.308.493-.6.505h-.126c-.167-.03-.314-.13-.404-.274-.09-.145-.115-.32-.07-.484.683-3.278 1-6.622.946-9.97.017-2.972-.226-5.94-.726-8.868-.073-.395-.39-.7-.788-.758-6.897-1.057-13.92-.993-20.796.19-.34.06-.664-.165-.725-.505-.061-.34.165-.665.505-.726 7-1.197 14.149-1.261 21.17-.188.929.142 1.67.847 1.862 1.767.475 3.005.708 6.044.698 9.087zm-8.52 3.503c0 .349-.283.63-.631.631H24.15c-.348 0-.631-.282-.631-.63 0-.35.283-.632.631-.632H34.25c.348.001.63.283.631.631zm0-4.733c0 .348-.283.63-.631.63H20.995c-.348 0-.631-.282-.631-.63 0-.349.283-.632.631-.632H34.25c.348.001.63.283.631.632z"/>
    </g>
</svg>
