<svg xmlns="http://www.w3.org/2000/svg" width="128" height="86"><path fill="#FFF" d="M19.04 79.9c.95 0 1.55.24 2.12.68l.14.1-.66.8c-.45-.38-.9-.63-1.65-.63-1.05 0-1.84.87-1.9 1.93v.15c0 1.22.8 2.12 2 2.12.48 0 .92-.13 1.27-.35l.14-.1v-1.1h-1.48v-.9h2.5v2.48c-.57.5-1.4.92-2.45.92-1.77 0-2.97-1.23-3.05-2.86v-.18c0-1.67 1.24-3.07 3.02-3.07zm13.28 0c1.73 0 2.96 1.26 3.07 2.85v.18c0 1.7-1.3 3.07-3.1 3.07-1.74 0-2.98-1.3-3.07-2.86v-.18c0-1.7 1.28-3.07 3.1-3.07zm17 0c1.73 0 2.97 1.26 3.06 2.85v.18c0 1.7-1.28 3.07-3.1 3.07-1.73 0-2.97-1.3-3.06-2.86v-.18c0-1.7 1.28-3.07 3.1-3.07zm24.9.07v3.36c0 1.1.56 1.7 1.5 1.7.86 0 1.4-.5 1.46-1.47v-3.58h1.03v3.33c0 1.77-.98 2.65-2.52 2.65-1.46 0-2.42-.8-2.5-2.4v-3.58h1.04zm-10.66-.08c.76 0 1.4.2 1.95.6l.2.13-.57.8c-.53-.4-1.06-.62-1.6-.62-.56 0-.9.28-.96.63v.11c0 .47.27.66 1.4.93 1.17.3 1.82.7 1.88 1.54V84.17c0 1.1-.86 1.77-2.1 1.77-.82 0-1.6-.27-2.27-.8L61.3 85l.63-.75c.56.5 1.12.77 1.85.77.6 0 .98-.25 1.04-.64V84.26c0-.4-.23-.64-1.32-.9-1.2-.27-1.9-.62-1.95-1.6v-.15c0-1.02.84-1.7 2-1.7zm59.15.04l2.6 5.95h-1.1l-.6-1.44h-2.77l-.6 1.43h-1.07l2.6-5.96h.95zM81.94 80c1.77 0 3.03 1.17 3.12 2.75V82.95c0 1.6-1.2 2.85-2.93 2.93H79.72V80h2.2zM8 80v5.9H6.98V80H8zm2.55 0l3.16 4.07V80h1.02v5.9h-.87l-3.23-4.2v4.2H9.6V80h.95zm107.63 0v5.9h-1.04V80h1.04zm-60.15 0v.94H54.7v1.6h2.97v.94H54.7v2.4h-1.04V80h4.37zm-32.9 0c1.8 0 3.03 1.17 3.1 2.75l.02.18v.02c0 1.6-1.2 2.85-2.93 2.93H22.92V80h2.2zm-23.3 0v2.95L4.64 80h1.28L3.5 82.52l2.54 3.36H4.77l-2.02-2.66-.9.93v1.72H.8V80h1.02zm35.93 0l1.8 2.77 1.8-2.78h1.08v5.9H41.4v-4.24l-1.85 2.78h-.03l-1.84-2.76v4.2h-1.02V80h1.1zm62.97 0c.73 0 1.3.2 1.7.58.26.28.43.65.47 1.08v.2c0 .9-.5 1.48-1.24 1.74l-.15.05 1.6 2.24h-1.22l-1.44-2.07h-1.3v2.06H98.1V80h2.63zM87.4 80v5.9h-1.04V80h1.04zm-17.44-.06l2.6 5.93h-1.1l-.58-1.43h-2.8l-.6 1.43h-1.05l2.6-5.93h.93zm37.43 0l2.58 5.93h-1.1l-.58-1.43h-2.78l-.6 1.43h-1.07l2.6-5.93h.94zm-12.9 0l2.6 5.93h-1.08l-.6-1.43h-2.78l-.6 1.43h-1.06l2.6-5.93h.93zm19.1.03c.66 0 1.2.2 1.52.53.24.23.37.5.4.84v.16c0 .7-.4 1.1-.83 1.32.63.22 1.1.57 1.14 1.26V84.25c0 1-.78 1.57-2 1.62h-2.9v-5.9h2.65zm-64.3.87c-1.13 0-1.92.85-2 1.92v.18c0 1.14.84 2.1 2 2.1 1.12 0 1.92-.86 2-1.93V82.93c0-1.14-.84-2.1-2-2.1zm-17.02 0c-1.1 0-1.9.85-1.98 1.92v.18c0 1.14.83 2.1 2 2.1 1.12 0 1.9-.86 1.98-1.93V82.93c0-1.14-.83-2.1-2-2.1zm81.34 2.5H112v1.6h1.7c.65.02 1.07-.22 1.13-.68v-.13c0-.5-.4-.78-1.2-.78zm-88.5-2.4h-1.15v4h1.16c1.25 0 2.05-.84 2.05-2 0-1.15-.82-2-2.05-2zm56.8 0h-1.16v4h1.15c1.26 0 2.06-.84 2.06-2 0-1.15-.82-2-2.05-2zm-12.44.24l-1 2.36h2.03l-1.02-2.36zm24.55 0l-1 2.36h2.03l-1.03-2.36zm12.88 0l-1 2.36h2.03l-1.02-2.36zm15.32 0l-1 2.36h2.02l-1.02-2.36zm-21.6-.24h-1.5v1.97h1.5c.7 0 1.17-.32 1.22-.85v-.12c0-.64-.44-1-1.2-1zm12.85-.04H112v1.58h1.4c.62 0 1.05-.22 1.1-.7l.02-.1v-.02c0-.47-.4-.76-1.04-.76zM77.5 67.16v7.4H66.9v.2c0 .3-.04.6-.1.85-.05.27-.13.5-.23.62-.13.18-.3.33-.5.42-.2.1-.46.15-.75.15-.17 0-.34-.03-.5-.07l-.17-.04.2-.8c.1.02.18.05.23.05.05.02.1.02.2.02.15 0 .28-.02.38-.07.1-.03.17-.1.24-.2.06-.1.1-.23.12-.4.02-.1.03-.25.03-.4v-5.96h.82v4.78h3.08l-1.46-3.46c.2-.2.44-.37.68-.55.26-.16.5-.3.77-.44.27-.1.53-.2.8-.3.27-.07.53-.1.8-.1.26 0 .5.05.78.1.28.1.55.2.8.32.28.13.53.3.77.45.17.12.33.24.48.36l.23.18-1.43 3.45h3.5v-6.57h.82zm-33.93-.05v7.42h-2.33v-.02c-.23 0-.42-.03-.6-.08-.22-.04-.4-.1-.57-.2-.16-.1-.3-.2-.4-.3-.08-.14-.18-.25-.24-.36-.2.35-.45.6-.8.78-.36.18-.77.26-1.27.26-.48 0-.9-.08-1.23-.27-.35-.18-.63-.44-.82-.77-.18.3-.44.5-.74.7-.27.13-.56.2-.88.24h-13v.16c0 .65-.17 1.16-.53 1.55-.36.4-.95.6-1.75.6-.24 0-.5-.03-.74-.1-.2-.03-.4-.1-.64-.2l-.2-.05.27-.8c.24.13.47.2.68.25.2.05.43.07.68.07.45 0 .8-.08 1.05-.28.22-.18.34-.43.37-.78v-.4h-.5c-.46 0-.9-.05-1.3-.16-.42-.1-.8-.27-1.1-.5-.3-.22-.56-.5-.73-.85-.18-.34-.27-.76-.27-1.24 0-.4.08-.78.24-1.13.17-.35.4-.64.7-.9.28-.26.65-.45 1.07-.6.35-.12.73-.18 1.14-.2h1.56v4.77h2.86l-1.45-3.46c.22-.2.45-.37.7-.54.24-.18.5-.32.76-.45.27-.12.52-.2.8-.3.27-.07.52-.1.8-.1s.52.04.8.1c.27.1.54.18.8.3.27.14.53.3.77.46.17.13.32.25.47.37l.23.2-1.44 3.45h4.32v-4.26h.82v4.26h1.6c.2 0 .37-.04.53-.08.18-.05.32-.13.45-.25s.22-.26.3-.44c.07-.14.1-.3.1-.5v-3h.83v2.92c0 .2.06.4.14.56.08.18.2.34.34.47.14.14.32.24.5.32.2.08.42.1.66.1.52 0 .9-.14 1.16-.43.22-.26.35-.57.38-.97v-2.98h.82v2.67c0 .3-.03.57-.08.78.16.3.38.48.65.62.24.13.55.2.94.2h1.56v-6.6h.8zM7.53 75.56v.85h-.85v-.85h.85zm56.08-.02v.85h-.84v-.85h.85zm-4.44 0v.85h-.85v-.85h.86zm1.44 0v.85h-.85v-.85h.85zm-51.63 0v.85h-.85v-.85h.85zm84.62-8.4l-1.57 2.97h3.65c.42 0 .76.06 1.03.18.28.1.52.3.73.53.18.2.3.44.38.73.07.22.12.43.13.67v1.5h2.64v-6.58h.82v6.58h2.6c-.07-.18-.13-.37-.18-.58-.05-.2-.06-.4-.06-.63 0-.42.08-.8.22-1.18.16-.35.35-.68.62-.95.26-.27.58-.48.93-.64.36-.16.74-.24 1.16-.24.4 0 .8.05 1.17.2.35.17.67.38.95.66.27.25.48.58.64.94.14.37.22.76.22 1.2 0 .35-.06.7-.18 1.02l-.08.2h2.55c-.06-.18-.13-.37-.18-.58-.05-.2-.07-.4-.07-.63 0-.4.08-.8.22-1.16.16-.36.37-.68.63-.95.26-.3.58-.5.93-.66.36-.16.74-.24 1.16-.24.42 0 .82.07 1.2.23.34.16.66.37.93.64.26.26.47.58.63.95.15.37.23.76.23 1.2 0 .35-.06.7-.18 1.02l-.08.2h2.85v-6.58h.85v7.4h-4.2c-.27.28-.6.52-.97.68-.4.16-.8.24-1.24.24-.44 0-.84-.1-1.2-.25-.3-.15-.57-.32-.8-.53l-.17-.16h-3.62c-.26.28-.58.53-.97.7-.38.15-.8.23-1.23.23-.43 0-.83-.1-1.2-.26-.3-.13-.56-.3-.8-.5l-.16-.18H88.2c-.46 0-.9-.05-1.3-.16-.42-.1-.8-.28-1.1-.5-.3-.23-.54-.5-.73-.87-.18-.36-.27-.78-.27-1.26 0-.4.08-.77.24-1.1.15-.37.4-.65.68-.9.3-.27.66-.46 1.08-.6.34-.13.72-.2 1.14-.2l.25-.02h1.3v4.78h7.6v-1.27c0-.2 0-.42-.05-.6-.05-.2-.13-.33-.24-.48-.12-.13-.27-.24-.46-.32-.15-.06-.33-.1-.52-.1H91.47c-.1-.12-.17-.25-.24-.38-.05-.1-.08-.2-.1-.34l-.03-.12 1.6-2.96h.9zm21.03 3.2c-.3 0-.6.06-.85.17-.26.1-.46.27-.66.47-.17.2-.32.43-.43.7-.12.25-.17.53-.17.82 0 .28.05.57.16.83.1.27.25.5.44.7.2.18.42.35.67.46.27.1.54.16.84.16.32 0 .6-.04.87-.16.27-.1.5-.25.7-.45.2-.2.35-.43.46-.7.1-.24.18-.53.15-.86 0-.3-.04-.62-.15-.87-.12-.28-.28-.5-.47-.7-.2-.2-.42-.33-.7-.45-.24-.1-.53-.16-.85-.16zm-8 0c-.3 0-.58.06-.84.17-.27.1-.48.27-.67.47-.17.2-.32.43-.43.7-.1.25-.16.53-.16.82 0 .28.05.57.16.83.1.27.26.5.45.7.2.18.4.35.67.46.26.1.53.16.83.16.32 0 .6-.04.87-.16.25-.1.5-.25.7-.45.18-.2.34-.43.45-.7.1-.24.18-.53.14-.86.02-.3-.03-.62-.14-.87-.12-.28-.28-.5-.47-.7-.2-.2-.43-.33-.7-.45-.25-.1-.54-.16-.86-.16zM46.8 67.15v7.4h-.82v-7.4h.8zm77.47 0v7.4h-.82v-7.4h.82zm-68.7 1.8v4.8h3.28v-4.8h.82v4.8h3.1v-4.8h.82v5.6h-9.34c-.45 0-.88-.04-1.3-.15-.42-.1-.8-.27-1.1-.5-.3-.22-.53-.5-.73-.86-.17-.35-.27-.77-.27-1.25 0-.4.08-.78.24-1.12.16-.36.4-.65.7-.9.3-.26.65-.45 1.06-.6.35-.1.72-.18 1.1-.2h1.6zm25.13-1.8v7.4h-.82v-7.4h.82zm-68.32 1.78c.38 0 .72.07 1 .18.26.13.5.3.73.54.18.2.33.44.4.73.07.2.1.43.13.67v3.48h-4.7v-.82h3.88v-2.4c0-.23 0-.44-.06-.62s-.13-.33-.24-.47c-.13-.15-.27-.26-.45-.34-.13-.07-.27-.1-.42-.13h-.87v-.83h.6zm-7.67.02v4.77H8v-4.77h.8v5.6H3.4c-.45 0-.9-.06-1.3-.17-.4-.1-.77-.28-1.08-.5-.3-.23-.54-.52-.73-.88-.2-.35-.28-.77-.28-1.25 0-.4.08-.77.24-1.1.16-.36.4-.65.68-.9.3-.27.66-.46 1.08-.6.34-.13.72-.2 1.14-.2H4.7zm-.82.83h-.82c-.27 0-.55.04-.82.14-.27.1-.5.22-.72.4-.2.18-.37.38-.5.63s-.2.5-.2.8c0 .3.06.58.2.84.1.26.26.47.47.63.18.16.42.3.7.4.2.05.4.1.64.1l.22.02h.82V69.8zm50.87-.02h-.8c-.3 0-.56.04-.83.14-.27.1-.5.23-.72.4-.23.18-.4.4-.5.63-.14.24-.2.5-.2.8 0 .33.06.6.17.84.1.25.27.46.48.62.2.16.43.3.7.38.22.08.45.12.7.13h1v-3.95zm-34.9.03H19c-.28 0-.55.06-.82.15-.28.1-.52.23-.72.4-.2.17-.37.4-.5.63-.13.26-.2.53-.2.82 0 .3.07.58.18.82.12.24.28.45.48.6.2.17.45.3.72.38.2.06.42.1.64.12h1.07v-3.9zm5.28-.02c-.37 0-.7.06-1.04.2-.28.1-.54.24-.8.43l-.2.16 1.3 3.17h1.48l1.28-3.18c-.26-.2-.56-.4-.93-.55-.37-.14-.74-.22-1.1-.22zm63.52 0h-.8c-.28 0-.56.04-.83.14-.27.1-.5.23-.72.4-.22.18-.38.4-.5.63s-.2.5-.2.8c0 .33.06.6.17.84.1.25.27.46.48.62.2.16.43.3.7.38.2.06.42.1.65.12h1.05V69.8zm-17.1 0c-.35 0-.7.06-1.04.2-.26.1-.52.24-.77.43l-.2.16 1.3 3.16h1.47l1.28-3.17c-.25-.2-.56-.4-.92-.55-.37-.14-.74-.22-1.1-.22zm17.92-2.62V68h-.85v-.84h.85zm-35.34 0V68h-.85v-.84h.85zm-49.44 0V68h-.86v-.84h.85zm83.33 0V68h-.85v-.84h.85zm-84.78 0V68H2.4v-.84h.85zm52.32 0V68h-.85v-.84h.85zm-8.23-6.6l2.1 1.95-1.94 2.12-2.1-1.95 1.94-2.12zm-2.72-2.68l1.68 1.56-1.57 1.7-1.68-1.57 1.57-1.7zm5.4-.1l1.67 1.58-1.58 1.7-1.68-1.6L50 57.8zm-13.4-.48l.57 2.82-2.82.57-.57-2.83 2.82-.57zm21.32-.4l2.85.36-.36 2.86-2.85-.36.34-2.85zM110.6 25.7c10 0 17.23 7.38 17.4 16.6v.4c0 9.36-7.37 17.02-17.5 17.02-10 0-17.2-7.4-17.38-16.6V42.68c0-9.35 7.37-17 17.5-17zm-19.86.54v5.45l-8.3 7.95c4.37.74 8.67 3.02 8.8 8.88V48.93c0 6.2-4.5 10.75-11.8 10.75-5.77 0-9.78-2.25-12.6-5.44l-.2-.25 4.96-4.76c2.26 2.53 4.6 3.94 7.93 3.94 2.64 0 4.53-1.45 4.64-3.77V49.1c0-2.62-2.27-4.1-6.13-4.18h-3.3l-1.1-4.6 10.5-10.6-4.2 2.7H68.57v-6.2h22.16zM40.4 56.62l.44 2.27-2.26.44-.45-2.27 2.26-.46zM12.94 25.77c6.7 0 11.16 3.86 11.3 9.85V36c0 5.38-2.7 8.1-8.25 12.45l-.37.28-7.18 5.55-1.4 1.08 5.02-2.5h12.5v6.26H.3V53.4l10.93-8.98c4.06-3.4 5.66-5.17 5.66-7.9 0-2.77-1.83-4.27-4.4-4.27-2.45 0-4.16 1.32-6.47 4.12l-.25.3L.72 32.6c3.24-4.43 6.37-6.83 12.23-6.83zm41.2 30.56l2.3.28-.3 2.3-2.28-.28.3-2.3zm-6.86-.25l1.3 1.22-1.2 1.32-1.33-1.22 1.22-1.32zm-4.77-.63l1.32 1.22L42.63 58l-1.3-1.23 1.2-1.32zm8.53.14l1.78.2-.22 1.8-1.78-.22.22-1.8zM45.03 54l1.3 1.2-1.2 1.33-1.32-1.22 1.23-1.3zm3.94-.08l1.3 1.23-1.2 1.3-1.32-1.2 1.22-1.33zm-13-.4l.46 2.28-2.26.46L33.7 54l2.28-.47zm3.22.1l.34 1.78-1.76.36-.36-1.77 1.77-.37zm19.3-.53l2.27.27-.28 2.3-2.3-.28.3-2.3zm-3.23.22l1.78.22-.22 1.78-1.78-.22.22-1.78zm-13.46-.44l.36 1.77-1.76.35-.35-1.77 1.76-.35zm10.42.06l1.78.22-.22 1.8-1.78-.23.22-1.8zm-5.14-.1l.93.84-.84.94-.93-.86.85-.93zm-3.44-.64l.93.86-.85.93-.93-.88.84-.92zm6.43.1l1.26.15-.15 1.26-1.26-.14.15-1.26zm60.44-19.97c-5.7 0-9.7 4.45-9.83 9.96v.37c0 5.64 4.13 10.34 9.94 10.34 5.73 0 9.72-4.44 9.85-9.95v-.38c0-5.64-4.12-10.34-9.94-10.34zM38.58 50.6l.36 1.78-1.76.35-.35-1.76 1.75-.36zm-3.98-.34l1.62.74-.73 1.64-1.65-.76.74-1.62zm20.8.3l1.77.23-.22 1.77-1.78-.22.22-1.8zm-14.48.32l.25 1.25-1.24.25-.25-1.25 1.24-.25zm18.7-1.04l.86 1.58-1.57.86-.85-1.57 1.57-.86zm-6.4.96l1.26.16-.15 1.26-1.26-.16.16-1.26zM31.2 49.07l2.1.96-.97 2.1-2.1-.95.96-2.1zm31.82-.7l1.1 2.03-2.02 1.1-1.1-2 2-1.12zm-35.8-1.18l2.6 1.18-1.2 2.62-2.6-1.2 1.2-2.6zm19.7-13.87l.02.02c.06.36.2.77.33 1.1.05.1.1.2.14.3l.08.12h.02c.37-.56.93-.8 1.47-.74.2.02.42.08.6.2.2.1.36.24.52.4 0 0 0 .03-.02.03-.13-.06-.3-.1-.5-.1s-.4 0-.6.07c-.3.08-.6.25-.8.54 0 .02 0 .02.02.02.23-.1.5-.15.77-.15.2 0 .4.03.6.08.3.08.62.24.86.45.32.27.54.66.6 1.15 0 0-.03.02-.03 0-.06-.1-.24-.38-.57-.6-.2-.15-.48-.28-.85-.34-.18-.05-.4-.06-.6-.06-.1 0-.2 0-.3 0 0 0 0 .03 0 .03.08.02.18.03.3.06.17.05.4.15.6.28.3.18.62.46.85.83.32.5.48 1.22.22 2.15 0 .02 0 .02 0 0 0-.34-.06-.7-.2-1.06-.17-.43-.44-.85-.86-1.16-.14-.1-.3-.18-.45-.25l-.16-.06-.25-.06c-.02 0-.04 0-.02 0l.24.25c.26.28.47.55.6.84.52 1 .4 2 .08 2.72l-.07.13c-.02 0-.02 0-.02 0 0-.06.02-.1.02-.17.02-.23.02-.47 0-.74-.03-.52-.2-1.1-.6-1.63-.14-.2-.3-.35-.5-.5.27.46.92 2.23-.42 3.82 0 0-.02 0-.02-.02.24-.54.55-2.46-.54-3.13 0-.02-.02 0-.02 0-.1 1.4-.35 4.24.15 7.3.44-.32.9-.65 1.36-.92.2-.1.4-.24.6-.34.24-.12.48-.2.72-.3.03-.02.08-.04.12-.06.48-.17.93-.3 1.37-.35 1.3-.22 2.38-.03 3.15.2.52.2.92.38 1.13.5.03.03.02.06-.06.08-.4-.1-.76-.2-1.12-.26-1.12-.18-2.17-.08-3.14.2-.48.12-.93.3-1.36.5-.3.15-.58.3-.85.47-.2.1-.42.25-.6.38-.48.34-.94.68-1.37 1.05.48.43.94.85 1.36 1.23.2.2.42.37.6.55.33.3.62.54.86.7.1.07.2.13.28.18.16-.2.44-.34.74-.28.13.04.24.1.34.18.1.1.17.23.2.36.05.2-.02.43-.1.55l-.04.05-.06.04c-.4.33-.85.3-1.36.03-.26-.15-.55-.36-.85-.6-.2-.16-.4-.34-.6-.53-.42-.38-.87-.8-1.35-1.26l-.36-.33-.33-.3c-.12.1-.23.2-.35.3-1.34 1.25-2.45 2.44-3.34 2.8-.46.2-.86.18-1.2-.17-.15-.13-.2-.4-.15-.6.04-.27.27-.48.52-.54.27-.07.5.02.68.2l.06.06.1-.05c.66-.37 1.75-1.47 3.03-2.6-.9-.75-1.92-1.47-3.02-1.97-.8-.37-1.64-.6-2.54-.7-.83-.07-1.7 0-2.63.27-.08 0-.16.03-.24.06-.02 0-.05-.03-.02-.05.06-.03.16-.08.25-.13.5-.24 1.43-.6 2.63-.66.75-.02 1.6.07 2.55.38.12.03.23.06.34.1.9.37 1.83.94 2.7 1.62.48-2.95.27-5.7.15-7.14l-.02-.18h-.02c-1.07.68-.77 2.6-.54 3.14 0 .02-.02.03-.02.02-1.34-1.6-.7-3.36-.42-3.8 0-.03 0-.03 0-.03-1.2 1-1.17 2.3-1.1 3.03 0 0-.02.02-.02 0-.5-.96-.64-2.6.87-3.92 0 0 0 0-.02 0-1.25.3-1.8 1.48-1.87 2.4v.2s-.02 0-.02 0c-.2-.7-.15-1.3.02-1.76.4-1.06 1.44-1.5 1.96-1.57 0 0 0-.02 0-.02-1-.08-1.6.23-1.96.53-.2.2-.32.4-.37.47 0 .02 0 .02 0 0 .04-.37.18-.7.4-.95.58-.7 1.68-.9 2.4-.6.02 0 .02 0 .02 0-.46-.67-1.4-.75-1.9-.5 0 0 0 0 0-.02.7-.82 1.84-.87 2.5-.02l.1.13c.1-.14.15-.3.2-.43.16-.35.3-.74.35-1.13zm20 13.02l1.38 2.53-2.5 1.38-1.4-2.52 2.52-1.4zm-28.42 2l.25 1.25-1.24.25-.24-1.24 1.24-.24zm17.93-.34l.6 1.12-1.1.6-.6-1.1 1.1-.6zM35 47.1l1.63.73-.75 1.64-1.63-.74.75-1.64zm24.03-.1l.86 1.6-1.58.84-.86-1.56 1.57-.87zm-26.62-.85l1.64.75-.74 1.64-1.63-.75.74-1.65zm29.32-.63l.86 1.57-1.57.86-.85-1.58 1.57-.86zM29.4 43.97l2.1.95-.95 2.1-2.1-.94.95-2.1zm6.52 1.2l1.14.52-.52 1.15-1.15-.53.52-1.14zm22.2-.23l.6 1.1-1.1.62-.6-1.1 1.1-.62zm6.5-1.72l1.12 2.02-2.02 1.1-1.1-2 2-1.12zm-30.93.14l1.62.75-.75 1.65-1.63-.75.75-1.64zm26.5-.13l.88 1.58-1.6.88-.84-1.58 1.57-.87zm-28.68-1.8l1.63.76-.74 1.62-1.62-.74.74-1.64zm30.12-.42l1.6.8-.75 1.6-1.63-.76.77-1.62zm-26.22.7l1.16.52-.53 1.16-1.15-.53.52-1.14zM58 41.43l1.13.54-.54 1.15-1.15-.54.54-1.14zm-27.77-2.9l1.14 2-2 1.15-1.14-2 2-1.15zm4.23.6l.9 1.57-1.57.9-.9-1.57 1.56-.9zm25.05-.05l1.63.77-.77 1.63-1.62-.78.77-1.63zm4.04-1.22l2.1 1-1 2.07-2.1-.98 1-2.1zm-27.2.27l.62 1.1-1.1.62-.63-1.1 1.1-.62zm21.2-.2l1.15.56-.55 1.14-1.14-.55.55-1.14zM32.92 36.9l.9 1.56-1.55.9-.9-1.57 1.56-.9zm27.92-.6l1.62.78-.77 1.62-1.62-.77.77-1.6zm-32.7-1.63l1.4 2.5-2.5 1.42-1.4-2.5 2.5-1.42zm7.46.7l.9 1.55-1.57.9-.87-1.56 1.55-.9zm29.95-1.44l2.6 1.25-1.24 2.6-2.6-1.24 1.23-2.6zm-7.27 1.42l1.62.77-.77 1.62-1.6-.77.76-1.63zm-20.3-.3l.64 1.1-1.1.62-.63-1.1 1.1-.62zm-6.2-1.7l1.15 2.02-2 1.14-1.14-2 2-1.15zm24.87 1.6l.23 1.24-1.24.23-.23-1.26 1.23-.23zm5.22-2.2l2.08.98-1 2.1-2.08-1 1-2.08zm-26.9-.2l.87 1.56-1.55.9-.88-1.57 1.54-.87zm24.94-.16l.3 1.77-1.75.33-.33-1.77 1.77-.34zm-23-.17l1.8.18-.2 1.8-1.78-.2.2-1.8zm20.12-.16l.33 1.77-1.77.33-.32-1.77 1.76-.32zm-17.48.47l1.26.14-.13 1.27-1.26-.13.14-1.26zm14.72-.16l.23 1.25-1.25.22-.23-1.25 1.24-.23zm-3.75-1.66l.9.86-.86.92-.9-.88.87-.9zm-7.83.28l1.25.13-.13 1.25-1.27-.13.14-1.26zm11.15-1.24l.32 1.78-1.76.32-.32-1.77 1.76-.33zm-6.75.27l.9.85-.87.92-.9-.87.87-.9zm-7.04-.23l1.78.2-.18 1.78-1.8-.2.2-1.78zm-6.72-.63l2.3.25-.24 2.3-2.3-.26.25-2.3zm3.66.3l1.8.2-.2 1.78-1.8-.2.2-1.78zm23.12-.86l.42 2.27-2.27.42L57.8 29l2.28-.42zm-3.6.42l.3 1.77-1.75.32-.32-1.77 1.77-.33zm-7.35-.9l1.3 1.26-1.25 1.28-1.28-1.23 1.23-1.3zm-4.34-.14l1.3 1.24-1.26 1.3-1.28-1.25 1.23-1.3zm6.85-1.27l1.3 1.23-1.24 1.3-1.3-1.25 1.25-1.3zm-10.5.4l1.78.18-.2 1.8-1.77-.2.2-1.8zm5.76-1.12l1.3 1.24-1.25 1.3-1.28-1.25 1.24-1.3zm-9.32-.14l2.3.25-.25 2.3-2.3-.25.25-2.3zm18.13-.43l.42 2.28-2.27.42-.4-2.28 2.26-.4zm-22.4-.7l2.84.3-.3 2.88-2.85-.3.3-2.87zm26.64-.58l.52 2.84-2.82.5-.52-2.82 2.82-.52zm-10.34-.6l1.66 1.58-1.58 1.67-1.67-1.6 1.6-1.66zm-5.4 0l1.67 1.58-1.6 1.67-1.66-1.6 1.6-1.66zm2.75-3.26l2.12 1.96-1.96 2.1-2.1-1.96 1.95-2.1zm59.83-.76v1.45h-1.44V19.5h1.44zm-2.88 0v1.45h-1.44V19.5h1.44zM42.63 4.2c4.03 0 6.77 3.1 6.87 6.74v.27c0 3.75-2.8 7.02-6.92 7.02-4.03 0-6.75-3.1-6.86-6.73v-.28c0-3.74 2.8-7 6.9-7zm75.27.25v10.07c0 1.14-.32 2.02-.96 2.7-.64.66-1.65 1-3.06 1-.44 0-.85-.07-1.28-.16-.35-.1-.74-.2-1.16-.35l-.32-.1.45-1.4c.47.22.87.36 1.22.44.34.08.74.13 1.2.13.77 0 1.38-.16 1.8-.48.4-.3.62-.78.65-1.44v-1.63l-.48 1.02h-.38c-.83 0-1.58-.08-2.3-.28s-1.36-.48-1.9-.87c-.55-.38-.98-.88-1.3-1.5-.3-.6-.47-1.33-.47-2.18 0-.7.15-1.36.43-1.98.3-.6.7-1.14 1.22-1.57.5-.44 1.14-.77 1.88-1.03.63-.22 1.32-.35 2.06-.38h2.67zm6.37 0v10.1c0 .56-.03 1.08-.13 1.53-.1.45-.25.83-.46 1.16-.2.3-.5.56-.85.72-.35.18-.8.26-1.3.24-.32 0-.63-.03-.95-.1l-.23-.06.38-1.38c.18.04.3.08.4.1.1 0 .2 0 .34 0 .27 0 .5-.02.67-.1.18-.08.32-.2.42-.4.1-.17.16-.4.2-.68.04-.22.06-.5.07-.8V4.46h1.44zM23.9 4.25c1.85 0 3.2.5 4.5 1.48l.25.2-.88 1.16c-1.27-1.02-2.5-1.47-3.9-1.47-1.7 0-2.8.9-2.88 2.04l-.02.14v.05c0 1.28.7 2 3.67 2.63 2.9.64 4.3 1.7 4.4 3.63V14.35c0 2.32-1.92 3.83-4.6 3.83-2.04 0-3.73-.65-5.28-1.95L18.9 16l.96-1.13c1.4 1.27 2.75 1.92 4.63 1.92 1.73 0 2.9-.9 3-2.16v-.2c0-1.25-.68-1.97-3.5-2.57-3.02-.65-4.45-1.62-4.54-3.7V7.94c0-2.14 1.87-3.7 4.43-3.7zm-22.2.2l.83 2 4 9.66.36.93-.16-1.48 4.6-11.1h1.63l-5.8 13.64H5.83L0 4.43h1.7zm78.04 0v9.96c0 .4 0 .75.06 1.04.03.3.1.5.2.7.12.16.25.3.42.37.14.08.32.1.52.12h24.9V4.45h1.44v13.6H81.03c-.5 0-.94-.1-1.3-.25-.35-.16-.62-.4-.84-.73l-.06-.07-.05-.07V18h-3c-3.9 0-6.54-2.98-6.65-6.5v-.26c0-3.54 2.6-6.65 6.44-6.78h4.14zm-26.3 0l9.13 11.64-.63-1.66v-10h1.5V18H62.2L52.64 5.8l.85 1.98v10.2H52V4.45h1.44zm-20.35 0v13.53h-1.53V4.44h1.52zm-16.52 0v13.53h-1.53V4.44h1.53zM42.6 5.62c-3.02 0-5.18 2.35-5.28 5.32v.26c0 3.1 2.24 5.6 5.33 5.6 3 0 5.17-2.35 5.28-5.32v-.26c0-3.08-2.24-5.6-5.33-5.6zm36.57.2H75.8c-2.9 0-5 2.27-5.1 5.14v.24c0 2.92 2.04 5.3 4.92 5.42h3.02c-.1-.22-.17-.47-.22-.72-.06-.36-.1-.76-.12-1.2V6.24l.87-.43zm38.1.1h-2.62c-.4.04-.77.12-1.13.24-.46.16-.88.4-1.24.7-.37.32-.66.7-.88 1.12-.2.43-.32.9-.32 1.42 0 .55.1 1.03.3 1.45.2.42.5.77.85 1.06.35.3.77.5 1.25.66.38.1.78.18 1.2.2h1.76V6.34l.82-.4zM76.84 1.57v1.44H75.4V1.58h1.45zm2.88 0v1.44H78.3V1.58h1.43zM117.46 0v1h-1c-.2 0-.37.06-.44.14-.06.08-.1.2-.1.32V1.9h1.96V3h-3.16V1.8c0-.63.16-1.1.45-1.4.26-.24.63-.4 1.1-.42h1.19z"/></svg>