<svg xmlns="http://www.w3.org/2000/svg" width="57" height="57" viewBox="0 0 57 57">
    <path fill="#FFF" d="M35.136 40.486c.248 0 .486.099.661.274.175.175.274.413.274.66V55.44c0 .248-.099.486-.274.66-.175.176-.413.275-.66.275H22.051c-.248 0-.485-.099-.66-.274-.176-.175-.274-.413-.274-.661V41.421c0-.248.098-.486.273-.661.176-.175.413-.274.661-.274zm-20.56-9.346c.248 0 .485.099.66.274.176.175.274.413.274.661v3.738h1.87c.247 0 .485.099.66.274.176.175.274.413.274.66v4.674c0 .248-.098.485-.274.66-.175.176-.413.274-.66.274v2.804h.934c.248 0 .486.098.66.274.176.175.275.413.275.66v9.346c0 .248-.099.486-.274.66-.175.176-.413.275-.661.275H5.23c-.248 0-.485-.099-.66-.274-.176-.175-.274-.413-.274-.661v-8.411H3.36c-.248 0-.485-.098-.66-.274-.176-.175-.274-.413-.274-.66V41.42c0-.248.098-.486.273-.661.176-.175.413-.274.661-.274v-2.804H1.492c-.248 0-.486-.098-.66-.273-.176-.176-.275-.413-.275-.661v-4.673c0-.248.099-.486.274-.66.175-.176.413-.275.661-.275zm41.12 0c.248 0 .486.099.661.274.176.175.274.413.274.661v4.673c0 .248-.098.485-.274.66-.175.176-.413.274-.66.274h-2.804v2.804h.934c.248 0 .486.099.661.274.175.175.274.413.274.66v4.673c0 .248-.099.486-.274.661-.175.176-.413.274-.66.274h-.935v8.411c0 .248-.099.486-.274.66-.175.176-.413.275-.66.275H38.873c-.248 0-.485-.099-.66-.274-.176-.175-.274-.413-.274-.661v-9.346c0-.247.098-.485.274-.66.175-.176.412-.274.66-.274h.935v-2.804h-.935c-.248 0-.485-.098-.66-.274-.176-.175-.274-.412-.274-.66v-4.673c0-.248.098-.486.274-.661.175-.175.412-.274.66-.274h2.804v-3.738c0-.248.098-.486.274-.66.175-.176.413-.275.66-.275zM34.202 51.7H22.987v2.804h11.215v-2.803zm-16.823 0H6.165v2.804h11.214v-2.803zm33.645 0H39.809v2.804h11.215v-2.803zm-16.822-4.672H22.987v2.804h11.215v-2.804zm-16.823 0H6.165v2.804h11.214v-2.804zm33.645 0H39.809v2.804h11.215v-2.804zm-16.822-4.673H22.987v2.804h11.215v-2.804zm-18.692 0H4.296v2.804H15.51v-2.804zm37.383 0H41.678v2.804h11.215v-2.804zm-36.448-4.673H5.23v2.804h11.215v-2.804zm34.579 0H39.809v2.804h11.215v-2.804zM41.678.3c.248 0 .486.098.66.274.176.175.275.413.275.66v25.701c0 1.131-.584 2.182-1.545 2.78-.961.596-2.162.653-3.176.151-.195 1.214-.975 2.255-2.085 2.782-1.111.528-2.41.475-3.475-.141v.503c.001 1.38-.76 2.648-1.977 3.298-1.218.65-2.694.575-3.84-.194-.603 1.72-2.358 2.756-4.155 2.45-1.797-.305-3.112-1.863-3.111-3.685v-1.814c-2.863-1.419-4.673-4.337-4.673-7.532 0-3.194 1.81-6.113 4.673-7.532v-2.748c0-.159.04-.315.117-.454l4.555-8.2V1.236c0-.248.099-.486.274-.661.175-.176.413-.274.661-.274zm-20.56 33.432v1.147c0 1.032.837 1.868 1.869 1.869 1.032-.001 1.868-.837 1.869-1.87v-1.141c-.613.138-1.24.207-1.87.207-.628 0-1.255-.071-1.868-.212zm33.644-.722H43.547v2.803h11.215V33.01zm-41.12 0H2.426v2.803H13.64V33.01zm16.821-3.621c-.818 1.596-2.127 2.888-3.735 3.684.035 1.006.86 1.804 1.866 1.806 1.032-.001 1.868-.838 1.87-1.87zM22.987 18.99c-3.175 0-5.892 2.28-6.443 5.408-.55 3.127 1.223 6.198 4.207 7.283 2.984 1.086 6.317-.128 7.904-2.879-1.19-.658-1.929-1.91-1.93-3.27v-5.368c-1.094-.769-2.4-1.179-3.738-1.174zM40.743 7.776H25.406l-4.288 7.72v1.838c1.89-.433 3.871-.198 5.607.666v-4.616h1.87v12.15c0 1.031.836 1.868 1.868 1.868 1.033 0 1.87-.837 1.87-1.869v-5.607c0-.294.138-.571.373-.748l1.496-1.121c1.173-.885 1.865-2.269 1.869-3.739v-2.803h1.869v2.803c-.005 2.058-.974 3.995-2.617 5.234l-1.121.841v5.14c-.001 1.335-.714 2.568-1.87 3.235v.503c0 1.033.837 1.87 1.87 1.87 1.032 0 1.869-.837 1.869-1.87V22.73h1.869v4.206c0 .774.627 1.402 1.402 1.402.774 0 1.401-.628 1.401-1.402V7.776zM23.921 20.86v.935h1.87v1.869H22.52c-.258 0-.468.21-.468.467 0 .258.21.468.468.468h.934c1.2 0 2.204.908 2.325 2.101.12 1.193-.682 2.284-1.858 2.524v.982h-1.869v-.935h-1.869v-1.869h3.271c.258 0 .467-.209.467-.467s-.209-.467-.467-.467h-.934c-1.2 0-2.204-.908-2.325-2.102-.12-1.193.682-2.284 1.857-2.524v-.982h1.87zM40.743 2.17H25.791v3.737h14.952V2.17z"/>
</svg>
