<svg xmlns="http://www.w3.org/2000/svg" xmlns:xlink="http://www.w3.org/1999/xlink" width="140" height="141" viewBox="0 0 140 141">
    <defs>
        <linearGradient id="prefix__c" x1="100%" x2="0%" y1="100%" y2="0%">
            <stop offset="0%" stop-color="#0C9EE2"/>
            <stop offset="100%" stop-color="#00D0D3"/>
        </linearGradient>
        <filter id="prefix__a" width="399.4%" height="399.4%" x="-149.7%" y="-149.7%" filterUnits="objectBoundingBox">
            <feOffset in="SourceAlpha" result="shadowOffsetOuter1"/>
            <feGaussianBlur in="shadowOffsetOuter1" result="shadowBlurOuter1" stdDeviation="24.5"/>
            <feColorMatrix in="shadowBlurOuter1" values="0 0 0 0 0.063 0 0 0 0 0.114 0 0 0 0 0.443 0 0 0 0.0767864948 0"/>
        </filter>
        <path id="prefix__b" d="M102.59 0l.545 2.213c.175.065.35.135.526.211l.262.118 1.952-1.182 4.238 4.239-1.181 1.952c.081.175.157.35.228.525l.101.263 2.213.544v5.994l-2.212.543c-.065.176-.136.35-.212.526l-.118.262 1.182 1.953-4.239 4.238-1.952-1.181c-.175.081-.35.157-.525.228l-.263.101-.45 1.83-.08.079c1.534 1.157 2.533 2.99 2.533 5.056 0 2.19-1.117 4.122-2.81 5.261 5.18 1.504 9.005 6.224 9.142 11.85l.004.313v3.168H69.498c-.825 0-1.505-.634-1.578-1.44l-.006-.144v-1.584c0-.825.634-1.505 1.44-1.578l.144-.006h3.168v-3.168H66.33c-2.117 0-3.852-1.67-3.955-3.763l-.005-.197V18.216c0-2.117 1.67-3.852 3.763-3.955l.197-.005h21.384V8.883l2.212-.543c.065-.176.136-.35.212-.526l.118-.262-1.182-1.953 4.239-4.238 1.952 1.181c.175-.081.35-.157.525-.228l.263-.101L96.597 0h5.994zm.53 35.724L99.845 47.52h.083l2.729-4.777-.857-1.716 1.808-1.808.502-3.015c-.214-.117-.431-.227-.653-.33l-.335-.15zm-8.636 0c-.226.096-.448.2-.665.31l-.323.17.502 3.016 1.808 1.808-.858 1.715 2.73 4.777h.082l-3.276-11.795zM86.13 45.937H69.498v1.584H86.13v-1.584zm5.92-8.775c-2.547 1.964-4.225 5-4.33 8.43l-.006.345v1.584h2.376v-6.336h1.584v6.336h4.18l-2.701-4.727.726-1.453-1.36-1.36-.47-2.819zm13.505 0l-.47 2.82-1.36 1.359.727 1.453-2.701 4.727h4.179v-6.336h1.584v6.336h2.376v-1.584c0-3.457-1.596-6.54-4.083-8.575l-.252-.2zm-6.753-2.313c-.834 0-1.644.102-2.425.28l-.388.095 2.813 10.129 2.813-10.129c-.9-.236-1.84-.375-2.813-.375zm-11.739 6.336H74.25v3.168h11.99c.119-.948.34-1.864.657-2.736l.166-.432zm3.386-4.752H63.954v.792c0 1.255.979 2.287 2.214 2.37l.162.006h21.515c.616-1.06 1.38-2.022 2.266-2.86l.338-.308zm2.017-17.424H67.122v15.84h6.336v-7.92h4.752v7.92h1.584V23.76h4.752v11.088h1.584V20.592h4.752v14.256h1.584v-15.84zm-15.84 9.504h-1.584v6.336h1.584v-6.336zm12.672-6.336h-1.584v12.672h1.584V22.176zm-6.336 3.168h-1.584v9.504h1.584v-9.504zm10.296-9.504H66.33c-1.255 0-2.287.979-2.37 2.214l-.006.162v16.632h1.584v-15.84c0-.825.634-1.505 1.44-1.578l.144-.006h25.344c.825 0 1.505.634 1.578 1.44l.006.144v5.327c.388-.441.837-.828 1.332-1.148l.252-.154v-4.817c0-1.255-.979-2.287-2.214-2.37l-.162-.006zm.792 16.849v1.508c.4-.162.809-.303 1.227-.424-.365-.244-.7-.528-1.005-.843l-.222-.241zm4.752-8.929c-2.62 0-4.752 2.131-4.752 4.752 0 2.62 2.131 4.752 4.752 4.752 2.62 0 4.752-2.131 4.752-4.752 0-2.62-2.131-4.752-4.752-4.752zm-22.176 0v1.584h-7.92V23.76h7.92zm24.723-22.176h-3.51l-.456 1.858-.425.134c-.339.107-.683.243-1.025.403l-.341.169-.394.205-1.643-.994-2.481 2.481.994 1.643-.206.394c-.177.341-.329.685-.455 1.026l-.116.34-.134.425-1.859.457v4.131h3.593c-.27-.76-.425-1.56-.425-2.376 0-3.93 3.197-7.128 7.128-7.128 3.93 0 7.128 3.197 7.128 7.128 0 3.93-3.197 7.128-7.128 7.128-.7 0-1.387-.114-2.048-.316l-.328-.109v3.801c.508-.131 1.036-.208 1.584-.208.733 0 1.437.128 2.092.36l.278.105.084-.082.55-2.241.425-.134c.339-.107.682-.243 1.024-.403l.342-.169.394-.205 1.643.994 2.481-2.481-.995-1.643.206-.394c.177-.341.329-.685.455-1.027l.116-.34.134-.424 1.859-.457v-3.51l-1.858-.456-.134-.425c-.107-.339-.243-.683-.403-1.025l-.169-.341-.205-.394.994-1.643-2.481-2.481-1.643.994-.394-.206c-.341-.177-.685-.329-1.026-.455l-.34-.116-.425-.134-.457-1.859zM76.626 20.592v1.584h-1.584v-1.584h1.584zm-3.168 0v1.584h-1.584v-1.584h1.584zm-3.168 0v1.584h-1.584v-1.584h1.584zM99.594 6.336c-3.056 0-5.544 2.488-5.544 5.544 0 .94.248 1.855.699 2.672.985.403 1.77 1.188 2.173 2.173.816.451 1.731.699 2.672.699 3.056 0 5.544-2.488 5.544-5.544 0-3.056-2.488-5.544-5.544-5.544zm0 1.584c2.184 0 3.96 1.776 3.96 3.96s-1.776 3.96-3.96 3.96-3.96-1.776-3.96-3.96 1.776-3.96 3.96-3.96zm0 1.584c-1.31 0-2.376 1.066-2.376 2.376 0 1.31 1.066 2.376 2.376 2.376 1.31 0 2.376-1.066 2.376-2.376 0-1.31-1.066-2.376-2.376-2.376z"/>
    </defs>
    <g fill="none" transform="translate(-16.165 44.165)">
        <use fill="#000" filter="url(#prefix__a)" xlink:href="#prefix__b"/>
        <use fill="url(#prefix__c)" xlink:href="#prefix__b"/>
    </g>
</svg>
