<svg xmlns="http://www.w3.org/2000/svg" xmlns:xlink="http://www.w3.org/1999/xlink" width="138" height="137" viewBox="0 0 138 137">
    <defs>
        <linearGradient id="prefix__c" x1="100%" x2="0%" y1="100%" y2="0%">
            <stop offset="0%" stop-color="#0C9EE2"/>
            <stop offset="100%" stop-color="#00D0D3"/>
        </linearGradient>
        <filter id="prefix__a" width="409.3%" height="409.3%" x="-154.7%" y="-154.7%" filterUnits="objectBoundingBox">
            <feOffset in="SourceAlpha" result="shadowOffsetOuter1"/>
            <feGaussianBlur in="shadowOffsetOuter1" result="shadowBlurOuter1" stdDeviation="24.5"/>
            <feColorMatrix in="shadowBlurOuter1" values="0 0 0 0 0.063 0 0 0 0 0.114 0 0 0 0 0.443 0 0 0 0.0767864948 0"/>
        </filter>
        <path id="prefix__b" d="M90.52.232l-2.144 2.144h-2.84c-.437 0-.792.355-.792.792v2.84L82.04 8.712H79.2c-.437 0-.792.355-.792.792v2.84l-2.704 2.704h-2.84c-.437 0-.792.355-.792.792v2.84l-3.496 3.496h-2.708c.443-2.649 1.99-4.985 4.255-6.426l-.854-1.334c-4.15 2.652-6.054 7.725-4.672 12.454 1.382 4.728 5.717 7.978 10.643 7.978h10.173c-2.777 2.546-6.406 3.959-10.173 3.96-8.298 0-15.048-6.75-15.048-15.048h-1.584c0 1.334.16 2.664.478 3.96h-6.022V19.8H59.4c.32 0 .61-.193.732-.489l1.279-3.088c.123-.296.055-.637-.172-.863l-4.48-4.48 5.6-5.601 4.48 4.48c.227.227.568.295.864.172l3.088-1.28c.296-.122.489-.41.489-.731V1.584h7.92v4.752h1.584V.792c0-.437-.355-.792-.792-.792h-9.504c-.437 0-.792.355-.792.792v6.599l-2.11.874-4.667-4.666c-.309-.31-.81-.31-1.12 0l-6.72 6.72c-.31.31-.31.811 0 1.12l4.666 4.666-.874 2.111h-6.599c-.437 0-.792.355-.792.792v9.504c0 .437.355.792.792.792h6.599l.874 2.11-4.666 4.667c-.31.309-.31.81 0 1.12l6.72 6.72c.31.31.811.31 1.12 0l4.666-4.666 2.111.874v6.599c0 .437.355.792.792.792h9.504c.437 0 .792-.355.792-.792v-6.599l2.11-.874 4.667 4.666c.309.31.81.31 1.12 0l6.72-6.72c.31-.31.31-.811 0-1.12l-1.233-1.233h4.04c.437 0 .792-.355.792-.792V7.128c0-.437-.355-.792-.792-.792h-6.336c-.437 0-.792.355-.792.792v5.544h-5.544c-.437 0-.792.355-.792.792v3.96H79.2c-.437 0-.792.355-.792.792v4.752h-5.544c-.437 0-.792.355-.792.792v3.168H66.28c-.361-1.017-.545-2.089-.544-3.168h3.168c.21 0 .412-.083.56-.232l3.728-3.728h2.84c.437 0 .792-.355.792-.792v-2.84l2.704-2.704h2.84c.437 0 .792-.355.792-.792v-2.84l2.704-2.704h2.84c.437 0 .792-.355.792-.792v-2.84l1.912-1.912H99V0h-7.92c-.21 0-.412.083-.56.232zM62.36 42.24l-5.601-5.6 4.261-4.262c1.393 2.288 3.313 4.208 5.6 5.6l-4.26 4.262zm8.92 3.695v-6.022c2.602.638 5.319.637 7.92-.001v6.023h-7.92zm22.441-9.295l-5.6 5.6-4.26-4.26c1.406-.852 2.678-1.908 3.774-3.133h4.293l1.793 1.793zM92.664 7.92h4.752v25.344h-4.752V7.92zm-6.336 6.336h4.752v19.008h-4.752V14.256zm-6.336 4.752h4.752v14.256h-4.752V19.008zm-6.336 5.544h4.752v8.712H75.24c-.53 0-1.06-.044-1.584-.133v-8.579zm-1.584 3.96v4.208c-2.132-.759-3.925-2.25-5.06-4.208h5.06zm3.168-10.296h-1.584v-1.584h1.584v1.584zm6.336-6.336h-1.584v-1.584h1.584v1.584zm6.336-6.336h-1.584V3.96h1.584v1.584z"/>
    </defs>
    <g fill="none" transform="translate(-7.912 46.135)">
        <use fill="#000" filter="url(#prefix__a)" xlink:href="#prefix__b"/>
        <use fill="url(#prefix__c)" xlink:href="#prefix__b"/>
    </g>
</svg>
