<svg xmlns="http://www.w3.org/2000/svg" xmlns:xlink="http://www.w3.org/1999/xlink" width="143" height="145" viewBox="0 0 143 145">
    <defs>
        <linearGradient id="prefix__c" x1="100%" x2="0%" y1="100%" y2="0%">
            <stop offset="0%" stop-color="#0C9EE2"/>
            <stop offset="100%" stop-color="#00D0D3"/>
        </linearGradient>
        <filter id="prefix__a" width="465%" height="465%" x="-182.5%" y="-182.5%" filterUnits="objectBoundingBox">
            <feOffset in="SourceAlpha" result="shadowOffsetOuter1"/>
            <feGaussianBlur in="shadowOffsetOuter1" result="shadowBlurOuter1" stdDeviation="26.5"/>
            <feColorMatrix in="shadowBlurOuter1" values="0 0 0 0 0.063 0 0 0 0 0.114 0 0 0 0 0.443 0 0 0 0.0767864948 0"/>
        </filter>
        <path id="prefix__b" d="M93.092 0c1.111 0 2.025.865 2.102 1.957l.006.15v25.098c1.65 1.408 2.718 3.468 2.804 5.73l.006.296v1.195h-3.247c1.934 2.155 3.15 4.965 3.242 8.059l.005.372v.703H72.717v-.703c0-3.115 1.143-5.963 3.019-8.169l.228-.262h-3.247v-1.195c0-.687.095-1.357.267-1.999l.092-.318H56.558c-1.112 0-2.025-.866-2.103-1.958l-.005-.15V2.108c0-1.112.865-2.025 1.957-2.103l.15-.005h36.535zm-8.43 34.462c-.515.042-1.017.13-1.502.26l-.36.106.525 1.268-1.299.539-.523-1.264c-.453.234-.882.507-1.283.816l-.294.238.966.967-.993.993-.967-.966c-.327.386-.618.802-.872 1.242l-.182.335 1.263.523-.537 1.299-1.27-.526c-.152.476-.26.97-.325 1.48l-.04.383h4.953c.267-1.309 1.263-2.355 2.545-2.694l.194-.046v-2.178h1.405v2.178c1.309.267 2.355 1.264 2.696 2.546l.046.195h4.953c-.043-.515-.13-1.018-.26-1.503l-.107-.36-1.27.526-.537-1.299 1.264-.523c-.234-.453-.507-.882-.816-1.283l-.239-.295-.966.967-.994-.993.967-.967c-.386-.327-.802-.618-1.242-.872l-.335-.183-.524 1.264-1.298-.538.525-1.269c-.476-.152-.97-.26-1.478-.325l-.384-.04v1.369h-1.405v-1.37zm.702-2.846c-5.863 0-10.693 4.512-11.198 10.246l-.022.293h1.42c.362-5.096 4.613-9.134 9.8-9.134 5.093 0 9.285 3.895 9.777 8.862l.023.272h1.42c-.365-5.872-5.258-10.539-11.22-10.539zm0 9.134c-.858 0-1.59.518-1.918 1.255l-.06.15h3.956c-.29-.816-1.064-1.405-1.978-1.405zm6.297-13.842c-.261.91-.588 1.8-.984 2.658l-.245.511-.5 1.001c1.088.423 2.104.988 3.023 1.678l.34.265h3.307c-.095-2.901-2.15-5.412-4.941-6.113zm-12.594 0c-2.71.68-4.725 3.065-4.927 5.858l-.014.255h3.307c.894-.722 1.889-1.32 2.958-1.778l.405-.165-.5-1c-.507-1.015-.916-2.079-1.229-3.17zm10.406 1.898h-8.218l.145.323.153.32.596 1.192c1.028-.271 2.102-.43 3.215-.43.953 0 1.878.117 2.771.32l.444.11.596-1.192.152-.32.146-.323zm4.322-21.78H76.58l-2.107 2.81H55.855v18.97c0 .355.265.65.608.696l.095.006h17.111c1.043-1.934 2.862-3.415 5.064-3.966-.256-1.236-.395-2.497-.395-3.758 0-3.672 1.068-7.208 3.094-10.257l.258-.378.887-1.267c.635-.909 1.677-1.451 2.787-1.451 1.04 0 2.02.477 2.663 1.285l.124.166.886 1.267c2.193 3.133 3.352 6.81 3.352 10.635 0 1.26-.139 2.521-.395 3.758.508.127.995.307 1.458.528l.343.173V7.026zM72.717 26.698v1.405H57.26v-1.405h15.457zm16.749-11.944H81.26c-.992 2.198-1.518 4.579-1.518 7.03 0 1.747.277 3.495.804 5.164l.15.453h9.333c.625-1.804.954-3.71.954-5.617 0-2.288-.459-4.514-1.326-6.588l-.192-.442zm-30.8 9.134v1.405H57.26v-1.405h1.405zm14.051 0v1.405H60.071v-1.405h12.646zm12.647-7.729c2.324 0 4.215 1.891 4.215 4.216s-1.89 4.215-4.215 4.215-4.216-1.89-4.216-4.215 1.89-4.216 4.216-4.216zm0 1.406c-1.55 0-2.81 1.26-2.81 2.81s1.26 2.81 2.81 2.81 2.81-1.26 2.81-2.81-1.26-2.81-2.81-2.81zm-8.431-6.324v11.242H57.26V11.24h19.673zm-1.406 1.405H58.665v8.431h16.862v-8.43zm9.837-2.81c-.597 0-1.16.268-1.538.723l-.098.129-.887 1.266c-.21.302-.407.61-.595.923l-.275.472h6.785c-.18-.316-.366-.63-.564-.937l-.306-.457-.887-1.267c-.373-.534-.984-.852-1.635-.852zm7.728-8.43H56.558c-.355 0-.65.264-.696.607l-.007.095V8.43h17.916l2.108-2.81h17.916V2.108c0-.355-.266-.65-.608-.696l-.095-.007zM72.717 2.81v4.216h-4.215V2.81h4.215zm-5.62 0v4.216H62.88V2.81h4.215zm-5.621 0v4.216H57.26V2.81h4.216zm9.836 1.405h-1.405v1.406h1.405V4.215zm-5.62 0h-1.406v1.406h1.405V4.215zm-5.621 0h-1.406v1.406h1.406V4.215z"/>
    </defs>
    <g fill="none" transform="translate(-4.43 50.89)">
        <use fill="#000" filter="url(#prefix__a)" xlink:href="#prefix__b"/>
        <use fill="url(#prefix__c)" xlink:href="#prefix__b"/>
    </g>
</svg>
