<svg xmlns="http://www.w3.org/2000/svg" width="78" height="72" viewBox="0 0 78 72">
    <defs>
        <linearGradient id="prefix__a" x1="91.682%" x2="8.318%" y1="100%" y2="0%">
            <stop offset="0%" stop-color="#0C9EE2"/>
            <stop offset="100%" stop-color="#00D0D3"/>
        </linearGradient>
        <linearGradient id="prefix__b" x1="89.721%" x2="10.279%" y1="100%" y2="0%">
            <stop offset="0%" stop-color="#00D0D3"/>
            <stop offset="100%" stop-color="#0C9EE2"/>
        </linearGradient>
    </defs>
    <g fill="none" fill-rule="evenodd">
        <path fill="#FFF" d="M75.332 47.255c.115-.302.227-.607.334-.915 11.739-33.601-25.318-55.118-52.9-42.862C4.574 11.563-4.561 29.174 2.26 48.452c11.181 31.585 61.411 29.42 73.072-1.197z"/>
        <path fill="#EBFCFC" d="M75.332 47.255c.115-.302.227-.607.334-.915 11.739-33.601-25.318-55.118-52.9-42.862C4.574 11.563-4.561 29.174 2.26 48.452c11.181 31.585 61.411 29.42 73.072-1.197z"/>
        <g fill-rule="nonzero" transform="translate(18 15.3)">
            <path fill="#00D0D3" d="M22.425 41.4H.975C.39 41.4 0 40.95 0 40.275v-2.25C0 37.35.39 36.9.975 36.9h21.45c.585 0 .975.45.975 1.125v2.25c0 .675-.39 1.125-.975 1.125z"/>
            <path fill="#09B4B7" d="M18 37.8H0c0-.54.379-.9.947-.9H18v.9z"/>
            <g>
                <path fill="#09B9BC" d="M18.477.045V1.21c0 .698-.39 1.164-.973 1.164H0c0 .698.389 1.163.972 1.163h21.395c.583 0 .972-.465.972-1.163V.045h-4.862z" transform="translate(0 37.8)"/>
                <path fill="#09B9BC" d="M2.917 2.373V.627c0-.349-.194-.582-.486-.582s-.486.233-.486.582v1.746M5.835 2.373V.627c0-.349-.195-.582-.486-.582-.292 0-.487.233-.487.582v1.746" transform="translate(0 37.8)"/>
                <path fill="#F19920" d="M8.752 2.373V.627c0-.349-.194-.582-.486-.582S7.78.278 7.78.627v1.746M11.67 2.373V.627c0-.349-.195-.582-.487-.582-.291 0-.486.233-.486.582v1.746M14.587 2.373V.627c0-.349-.194-.582-.486-.582s-.486.233-.486.582v1.746M17.504 2.373V.627c0-.349-.194-.582-.486-.582s-.486.233-.486.582v1.746" transform="translate(0 37.8)"/>
            </g>
            <path fill="#00D0D3" d="M25.125 37.8H3.675c-.585 0-.975-.45-.975-1.125v-2.25c0-.675.39-1.125.975-1.125h21.45c.585 0 .975.45.975 1.125v2.25c0 .675-.39 1.125-.975 1.125z"/>
            <path fill="#09B4B7" d="M20.7 35.1h-18c0-.54.379-.9.947-.9H20.7v.9z"/>
            <g>
                <path fill="#09B9BC" d="M18.5.09v1.164c0 .699-.39 1.164-.973 1.164H.023c0 .698.389 1.164.972 1.164H22.39c.583 0 .972-.466.972-1.164V.091H18.5z" transform="translate(2.7 33.3)"/>
                <path fill="#09B9BC" d="M2.94 2.418V.673c0-.35-.194-.582-.486-.582s-.486.233-.486.582v1.745M5.858 2.418V.673c0-.35-.195-.582-.487-.582-.291 0-.486.233-.486.582v1.745" transform="translate(2.7 33.3)"/>
                <path fill="#F19920" d="M8.775 2.418V.673c0-.35-.194-.582-.486-.582s-.486.233-.486.582v1.745M11.692 2.418V.673c0-.35-.194-.582-.486-.582s-.486.233-.486.582v1.745M14.61 2.418V.673c0-.35-.195-.582-.486-.582-.292 0-.487.233-.487.582v1.745M17.527 2.418V.673c0-.35-.194-.582-.486-.582s-.486.233-.486.582v1.745" transform="translate(2.7 33.3)"/>
            </g>
            <path fill="#00D0D3" d="M26.925 29.7H5.475c-.585 0-.975-.45-.975-1.125v-2.25c0-.675.39-1.125.975-1.125h21.45c.585 0 .975.45.975 1.125v2.25c0 .675-.39 1.125-.975 1.125z"/>
            <path fill="#FFCB5B" d="M22.5 26.1h-18c0-.54.379-.9.947-.9H22.5v.9z"/>
            <g>
                <path fill="#09B9BC" d="M18.522.082v1.163c0 .699-.389 1.164-.972 1.164H.046c0 .698.389 1.164.972 1.164h21.394c.584 0 .973-.466.973-1.164V.082h-4.863z" transform="translate(4.5 26.1)"/>
                <path fill="#09B9BC" d="M2.963 2.41V.663c0-.35-.194-.582-.486-.582S1.99.314 1.99.664v1.745M5.88 2.41V.663c0-.35-.194-.582-.486-.582s-.486.232-.486.582v1.745" transform="translate(4.5 26.1)"/>
                <path fill="#F19920" d="M8.798 2.41V.663c0-.35-.195-.582-.486-.582-.292 0-.487.232-.487.582v1.745M11.715 2.41V.663c0-.35-.194-.582-.486-.582s-.486.232-.486.582v1.745M14.633 2.41V.663c0-.35-.195-.582-.487-.582-.291 0-.486.232-.486.582v1.745M17.55 2.41V.663c0-.35-.194-.582-.486-.582s-.486.232-.486.582v1.745" transform="translate(4.5 26.1)"/>
            </g>
            <path fill="#00D0D3" d="M25.125 26.1H3.675c-.585 0-.975-.45-.975-1.125v-2.25c0-.675.39-1.125.975-1.125h21.45c.585 0 .975.45.975 1.125v2.25c0 .675-.39 1.125-.975 1.125z"/>
            <path fill="#09B4B7" d="M20.7 22.5h-18c0-.54.379-.9.947-.9H20.7v.9z"/>
            <g>
                <path fill="#09B9BC" d="M18.5.027v1.164c0 .698-.39 1.163-.973 1.163H.023c0 .699.389 1.164.972 1.164H22.39c.583 0 .972-.465.972-1.164V.027H18.5z" transform="translate(2.7 22.5)"/>
                <path fill="#09B9BC" d="M2.94 2.354V.61c0-.35-.194-.582-.486-.582S1.968.26 1.968.61v1.745M5.858 2.354V.61c0-.35-.195-.582-.487-.582-.291 0-.486.233-.486.582v1.745M8.775 2.354V.61c0-.35-.194-.582-.486-.582S7.803.26 7.803.61v1.745" transform="translate(2.7 22.5)"/>
                <path fill="#F19920" d="M11.692 2.354V.61c0-.35-.194-.582-.486-.582S10.72.26 10.72.61v1.745M14.61 2.354V.61c0-.35-.195-.582-.486-.582-.292 0-.487.233-.487.582v1.745M17.527 2.354V.61c0-.35-.194-.582-.486-.582s-.486.233-.486.582v1.745" transform="translate(2.7 22.5)"/>
            </g>
            <path fill="#00D0D3" d="M22.425 34.2H.975C.39 34.2 0 33.75 0 33.075v-2.25C0 30.15.39 29.7.975 29.7h21.45c.585 0 .975.45.975 1.125v2.25c0 .675-.39 1.125-.975 1.125z"/>
            <path fill="#09B4B7" d="M18 30.6H0c0-.54.379-.9.947-.9H18v.9z"/>
            <g>
                <path fill="#09B9BC" d="M18.477.036V1.2c0 .698-.39 1.164-.973 1.164H0c0 .698.389 1.163.972 1.163h21.395c.583 0 .972-.465.972-1.163V.036h-4.862z" transform="translate(0 30.6)"/>
                <path fill="#09B9BC" d="M2.917 2.364V.618c0-.349-.194-.582-.486-.582s-.486.233-.486.582v1.746M5.835 2.364V.618c0-.349-.195-.582-.486-.582-.292 0-.487.233-.487.582v1.746M8.752 2.364V.618c0-.349-.194-.582-.486-.582S7.78.27 7.78.618v1.746" transform="translate(0 30.6)"/>
                <path fill="#F19920" d="M11.67 2.364V.618c0-.349-.195-.582-.487-.582-.291 0-.486.233-.486.582v1.746M14.587 2.364V.618c0-.349-.194-.582-.486-.582s-.486.233-.486.582v1.746M17.504 2.364V.618c0-.349-.194-.582-.486-.582s-.486.233-.486.582v1.746" transform="translate(0 30.6)"/>
            </g>
            <path fill="url(#prefix__a)" d="M41.21 34.993c-1.293-.887-1.989-2.366-1.989-3.943 0-6.013-2.387-11.73-6.665-15.968l-4.277-4.239V7.886l3.482-4.337c.298-.395.497-.887.497-1.38C32.258.986 31.263 0 30.07 0h-3.78l-.995 1.971L23.305 0h-4.774c-1.194 0-2.189.986-2.189 2.169 0 .492.2.985.498 1.38l3.481 4.337v2.957l-4.277 4.238c-4.278 4.239-6.665 9.956-6.665 15.969 0 1.577-.696 3.056-1.99 3.943-1.293.887-1.989 2.366-1.989 3.943 0 1.38 1.094 2.464 2.487 2.464h32.826c1.393 0 2.487-1.084 2.487-2.464 0-1.577-.696-3.056-1.99-3.943z"/>
            <path fill="url(#prefix__b)" d="M41.253 35.076c-1.266-.988-1.948-2.47-1.948-4.05.098-6.225-2.726-12.055-7.01-16.501l-3.7-3.656V7.905l3.408-4.348c.585-.692.682-1.68.195-2.569C31.808.296 31.03 0 30.251 0c-.682 0-1.071.79-.876 1.383.097.198.194.494.194.79 0 .495-.194.989-.487 1.384l-3.407 4.348v2.964h-4.868l-.974.988h6.815l3.603 3.656c3.992 4.05 5.55 9.584 5.16 15.216-.097 1.68.584 3.26 1.85 4.249.097.098.195.197.292.197 1.46 1.581.195 4.249-2.045 4.249H6.3C6.495 40.51 7.468 41.4 8.637 41.4h32.129c1.363 0 2.434-1.087 2.434-2.47v-.198c0-1.482-.779-2.766-1.947-3.656z"/>
            <path fill="#00D0D3" d="M29.138 10.8h-8.775c-.78 0-1.463-.84-1.463-1.8 0-.96.682-1.8 1.463-1.8h8.774c.78 0 1.463.84 1.463 1.8 0 .96-.682 1.8-1.462 1.8z"/>
            <path fill="#09B4B7" d="M20.25 8.1h4.5c.27 0 .45.18.45.45s-.18.45-.45.45h-4.5c-.27 0-.45-.18-.45-.45s.18-.45.45-.45z"/>
            <path fill="#09B9BC" d="M29.125 7.2h-.491v1.2c0 .72-.394 1.2-.984 1.2H18.9c.197.72.787 1.2 1.376 1.2h8.85c.786 0 1.474-.84 1.474-1.8 0-.96-.688-1.8-1.475-1.8z"/>
            <path fill="#09B4B7" d="M25.762 9.9h3.376c.337 0 .562.18.562.45s-.225.45-.562.45h-3.376c-.337 0-.562-.18-.562-.45s.225-.45.562-.45z"/>
            <path fill="#00D0D3" d="M24.3 10.8H26.1V18H24.3z"/>
            <path fill="#09B9BC" d="M24.3 10.8L24.3 11.7 25.2 11.7 25.2 18 26.1 18 26.1 11.7 26.1 10.8z"/>
            <ellipse cx="24.3" cy="26.55" fill="#02C2C5" rx="8.1" ry="7.65"/>
            <path fill="#07A1A3" d="M30.338 20.7c1.226 1.43 1.94 3.166 1.94 5.209 0 4.493-3.676 8.17-8.17 8.17-2.042 0-3.778-.715-5.208-1.94 1.532 1.838 3.779 2.961 6.23 2.961 4.493 0 8.17-3.677 8.17-8.17 0-2.553-1.123-4.8-2.962-6.23z"/>
            <circle cx="24.3" cy="25.2" r="7.2" fill="#00D0D3"/>
            <path fill="#02C4C7" d="M24.3 18.9V18c-3.96 0-7.2 3.24-7.2 7.2h.9c0-3.51 2.79-6.3 6.3-6.3z"/>
            <path fill="#FFF" d="M25.2 24.675h-1.8c-.54 0-.9-.39-.9-.975s.36-.975.9-.975h2.7c.54 0 .9-.39.9-.975s-.36-.975-.9-.975h-.9c0-.585-.36-.975-.9-.975s-.9.39-.9.975c-1.53 0-2.7 1.267-2.7 2.925s1.17 2.925 2.7 2.925h1.8c.54 0 .9.39.9.975s-.36.975-.9.975h-2.7c-.54 0-.9.39-.9.975s.36.975.9.975h.9c0 .585.36.975.9.975s.9-.39.9-.975c1.53 0 2.7-1.267 2.7-2.925s-1.17-2.925-2.7-2.925z"/>
        </g>
    </g>
</svg>
