<svg xmlns="http://www.w3.org/2000/svg" xmlns:xlink="http://www.w3.org/1999/xlink" width="72" height="67" viewBox="0 0 72 67">
    <defs>
        <linearGradient id="prefix__c" x1="100%" x2="0%" y1="81.707%" y2="18.293%">
            <stop offset="0%" stop-color="#0C9EE2"/>
            <stop offset="100%" stop-color="#00D0D3"/>
        </linearGradient>
        <linearGradient id="prefix__d" x1="45.129%" x2="85.546%" y1="17.833%" y2="116.753%">
            <stop offset="0%" stop-color="#FFF"/>
            <stop offset="100%" stop-color="#FFF" stop-opacity="0"/>
        </linearGradient>
        <path id="prefix__a" d="M67.499 56.334c-7.178 11.007-21.635 11.424-33.154 9.755-6.86-.995-13.717-2.731-19.715-6.205-4.725-2.736-8.642-6.501-11.195-11.088C1.943 46.12.945 43.198.49 40.168c-1.817-12.116 4.546-29.32 14.932-36.381 15.594-10.604 37.935 3.17 48.301 15.41 8.243 9.738 10.994 26.066 3.776 37.137z"/>
    </defs>
    <g fill="none" fill-rule="evenodd">
        <path fill="#FFF" d="M67.499 56.334c-7.178 11.007-21.635 11.424-33.154 9.755-6.86-.995-13.717-2.731-19.715-6.205-4.725-2.736-8.642-6.501-11.195-11.088C1.943 46.12.945 43.198.49 40.168c-1.817-12.116 4.546-29.32 14.932-36.381 15.594-10.604 37.935 3.17 48.301 15.41 8.243 9.738 10.994 26.066 3.776 37.137z"/>
        <mask id="prefix__b" fill="#fff">
            <use xlink:href="#prefix__a"/>
        </mask>
        <use fill="#EBFCFC" xlink:href="#prefix__a"/>
        <g mask="url(#prefix__b)">
            <g>
                <g opacity=".68">
                    <path fill="#FFF" d="M23.93 46.513L.78 29.6l2.222-7.9c.6-2.14 2.454-3.693 4.666-3.91.135-.014.269-.023.404-.025l1.107-.026 1.803-.041.96-.023 2.042-.047h.073l-.05.155-.269.841.447.211 3.35 1.578 1.19.56.56-1.98.135-.478.282.139.969.478 1.052.517 2.404 1.181c.286.147.556.322.806.523l.031.026c1.391 1.13 1.85 2.873 1.781 4.827L23.93 46.513z" transform="translate(-7.614 16.571) translate(53.356 13.375)"/>
                    <path fill="#00D0D3" d="M23.93 46.513L.004 37.804l2.998-16.103c.6-2.14 2.454-3.694 4.666-3.911.135-.014.269-.023.404-.025l1.107-.026 1.803-.041.96-.023 2.042-.047h.073l-.05.155-.269.841.447.211 3.35 1.578 1.19.56.56-1.98.135-.478.282.139.969.478 1.052.517 2.404 1.181c.286.147.556.322.806.523l.031.026c1.391 1.13 1.85 2.873 1.781 4.827L23.93 46.513z" opacity=".31" transform="translate(-7.614 16.571) translate(53.356 13.375)"/>
                    <path fill="#FFF" d="M24.643 12.372c-.13.508-.48 1.005-.852 1.24-.005.006-.012.01-.02.014l-.054.032c-.112.063-.229.117-.349.163l-1.07.417-.077.03c-.072.093-.14.184-.212.273-.436.55-1.064.873-1.64 1.283-.257.185-.526.368-.81.534l-.026.015-.188 1.397-.372 2.746-.218 1.6-5.524-1.23.363-1.2.744-2.447.443-1.461-.022-.026c-.735-.887-1.231-2.062-1.639-3.018-.118-.276-.223-.526-.31-.767l-.638-.639c-.501-.5-.792-1.173-.81-1.882-.014-.41.283-.766.689-.827l.97-.145c.317-.76.742-1.486 1.086-2.227.48-1.032.958-2.064 1.437-3.097l7.537-.463.4 3.87V9.78c0 .305.013.62.018.936l.016.009 1.01.636c.004.006.009.012.012.019.183.286.196.643.106.992z" opacity=".11" transform="translate(-7.614 16.571) translate(53.356 13.375)"/>
                    <path fill="#1F60E5" d="M19.452 17.3c-.907.556-1.945.961-3.008.728-.817-.183-1.454-.693-1.975-1.345l.297-.928c.505.61 1.123 1.084 1.905 1.258 1.017.227 2.012-.135 2.891-.654l-.11.942z" opacity=".14" transform="translate(-7.614 16.571) translate(53.356 13.375)"/>
                    <path fill="#00D0D3" d="M23.704 10.955c-.035.083-.201.498-.453-.228-.016-.043-.029-.085-.042-.13-.02-.061-.036-.126-.05-.193-.015-.066-.036-.154-.052-.236v-.016c-.013-.078-.026-.158-.038-.241-.007-.044-.012-.09-.018-.135-.012-.09-.023-.183-.03-.279l-.026-.29c-.008-.1-.013-.198-.017-.299-.008-.15-.014-.3-.016-.453 0-.07 0-.14-.004-.211-.003-.07 0-.139 0-.207v-.191c0-.21.005-.418.01-.619 0-.086.006-.172.008-.256l.007-.18.014-.3c0-.056.006-.112.01-.165v-.023l.072-.967v-.069c-1.933.529-6.094-1.344-7.04-1.5-.107-.019-.172-.014-.192.016l-.015.028-.017.037c-.013.027-.027.06-.044.1-.012.025-.024.057-.038.09l-.107.26-.066.157-.083.2-.192.452-.064.146-.117.268c-.04.092-.077.168-.117.253l-.19.401c-.087.18-.176.359-.27.533-.072.13-.14.26-.211.383l-.085.146-.085.14c-.028.046-.057.09-.086.134l-.086.127c-.103.153-.217.3-.342.436-.409.443-.518.277-.614.494.241-1.495.16-2.253.42-3.742.134-.776.296-1.501.567-2.13.107-.257.24-.503.397-.733 2.362-3.44 9.807-1.89 10.686 2.17.039.18.072.355.095.524.356 2.398-.54 4.057-1.479 6.298z" opacity=".63" transform="translate(-7.614 16.571) translate(53.356 13.375)"/>
                    <path fill="#1F60E5" d="M23.115 5.34L23 6.305c.043-.469.092-.824.114-.967zM23.006 9.21l.039.29c-.004-.01-.007-.021-.007-.032-.013-.086-.024-.172-.032-.259z" opacity=".31" transform="translate(-7.614 16.571) translate(53.356 13.375)"/>
                    <path fill="#00D0D3" d="M20.427 27.427l-1.864-.626.646 1.83-3.758 3.256-4.472 3.873-1.97-5.307-1.786-4.806 2.253-2.556-1.607-.358 1.074-4.82.426-.086 1.669-.038.889-.02 1.89-.045.024.145.164.974.595 3.495 2.505-2.036 1.62-1.314.386-.313.896.442.973.478 2.226 1.09c.264.136.514.298.746.484l.028.024-3.553 6.234z" opacity=".42" transform="translate(-7.614 16.571) translate(53.356 13.375)"/>
                    <path fill="#FFF" d="M19.391 18.5l-.415.183c-1.487.66-3.23.29-4.32-.916l-.364-.404-.337.495-1.768 14.074 4.888-7.113 2.316-6.32z" transform="translate(-7.614 16.571) translate(53.356 13.375)"/>
                </g>
                <path fill="#FFF" d="M45.564 33.609L37.146 31.733 37.701 29.904 38.833 26.176 40.031 22.229 47.047 22.639 46.461 26.98 45.895 31.166z" transform="translate(-7.614 16.571)"/>
                <path fill="#FFF" d="M57.249 53.72l-39.09-8.708 3.386-12.04c.916-3.263 3.74-5.63 7.114-5.961.203-.02.408-.034.614-.039l1.688-.039 2.747-.063 1.465-.033 3.112-.073h.115l-.072.237-.411 1.282.682.322 5.107 2.405 1.811.853.855-3.019.206-.727.43.213 1.477.727 1.603.787 3.665 1.801c.436.224.848.492 1.23.8.015.012.031.027.046.038 2.12 1.723 2.819 4.38 2.715 7.358l-.495 13.879z" transform="translate(-7.614 16.571)"/>
                <path fill="#00D0D3" d="M57.249 53.72l-39.09-8.708 3.386-12.04c.916-3.263 3.74-5.63 7.114-5.961.203-.02.408-.034.614-.039l1.688-.039 2.747-.063 1.465-.033 3.112-.073h.115l-.072.237-.411 1.282.682.322 5.107 2.405 1.811.853.855-3.019.206-.727.43.213 1.477.727 1.603.787 3.665 1.801c.436.224.848.492 1.23.8.015.012.031.027.046.038 2.12 1.723 2.819 4.38 2.715 7.358l-.495 13.879z" opacity=".31" transform="translate(-7.614 16.571)"/>
                <path fill="#FFF" d="M52.602 18.305c-.316 1.201-1.002 2.334-1.756 3.336-.108.141-.214.28-.323.416-.666.84-1.622 1.324-2.501 1.956-.391.281-.8.56-1.236.814-1.34.791-2.854 1.343-4.408.997-1.191-.265-2.133-.988-2.908-1.918-1.12-1.35-1.876-3.14-2.498-4.598-.18-.421-.338-.803-.472-1.17-.39-1.09-.54-2.04-.267-3.448.131-.645.328-1.275.588-1.88.483-1.159 1.128-2.264 1.653-3.395l2.19-4.718 11.491-.707.607 5.898V14.8c0 .467.022.945.029 1.426.01.706-.016 1.41-.19 2.08z" transform="translate(-7.614 16.571)"/>
                <path fill="#1F60E5" d="M46.619 26.268c-1.381.847-2.964 1.465-4.585 1.104-1.244-.277-2.22-1.056-3.01-2.05l.452-1.415c.77.93 1.713 1.653 2.908 1.918 1.553.346 3.068-.205 4.408-.996l-.173 1.44z" opacity=".11" transform="translate(-7.614 16.571)"/>
                <path fill="#FFF" d="M37.267 12.747l-1.92.29c-.62.093-1.073.634-1.054 1.26.032 1.079.474 2.105 1.236 2.869l1.325 1.325.413-5.744zM54.534 18.755c-.196.778-.726 1.534-1.297 1.89-.01.007-.019.014-.03.02-.026.017-.054.031-.083.048-.171.095-.348.178-.53.25l-1.63.633-.118.047 1.937-5.42.035.023 1.538.968c.008.01.015.02.02.03.273.432.294.976.158 1.51z" transform="translate(-7.614 16.571)"/>
                <path fill="#2D1D2C" d="M52.034 9.507c.04-.67.088-1.187.113-1.429l-.113 1.43zM52.007 10.375c.008-.15.018-.296.028-.436-.009.142-.02.287-.028.436zM55.49 8.015c-.015-.15-.032-.3-.056-.453.026.154.043.303.055.453z" transform="translate(-7.614 16.571)"/>
                <path fill="#FFF" d="M52.048 14.32c-.852-1.828-1.573-5.367-1.573-5.367-1.642.61-8.707-1.94-8.707-1.94-.757 1.491-1.963 2.784-2.98 3.701 1.158-2.01 2.18-4.798 2.337-5.052.029-.045.129-.052.29-.025 1.445.24 7.787 3.093 10.732 2.288l-.006.068c-.018.186-.066.75-.11 1.512v.034c-.073 1.317-.129 3.207.017 4.781zM49.168 42.743l-3.07-1.03 1.065 3.015-6.19 5.362-7.364 6.379-3.248-8.742-2.94-7.917 3.715-4.208-2.647-.59 1.768-7.941.704-.14 2.747-.064 1.465-.033 3.112-.073.04.235.271 1.604.98 5.755 4.127-3.35 2.666-2.166.636-.516 1.477.727 1.603.787 3.665 1.802c.436.224.848.492 1.23.8l.046.038-5.858 10.266z" transform="translate(-7.614 16.571)"/>
                <path fill="#00D0D3" d="M49.168 42.743l-3.07-1.03 1.065 3.015-6.19 5.362-7.364 6.379-3.248-8.742-2.94-7.917 3.715-4.208-2.647-.59 1.768-7.941.704-.14 2.747-.064 1.465-.033 3.112-.073.04.235.271 1.604.98 5.755 4.127-3.35 2.666-2.166.636-.516 1.477.727 1.603.787 3.665 1.802c.436.224.848.492 1.23.8l.046.038-5.858 10.266z" opacity=".42" transform="translate(-7.614 16.571)"/>
                <path fill="#FFF" d="M46.527 28.093l-.633.28c-2.266 1.005-4.922.442-6.586-1.397l-.556-.616-.516.754-2.694 21.453 7.451-10.84 3.534-9.634z" transform="translate(-7.614 16.571)"/>
                <path fill="#00D0D3" d="M55.275 10.64c-.384 1.968-1.269 3.78-2.175 5.951-.052.127-.306.761-.691-.346-.056-.16-.103-.324-.141-.49-.042-.175-.079-.36-.11-.556l-.03-.199c-.045-.31-.079-.642-.106-.985l-.02-.29c-.023-.384-.035-.777-.04-1.171v-.232-.232-.258c0-.145 0-.29.004-.429 0-.072 0-.151.005-.224.004-.19.01-.378.015-.559 0-.03 0-.063.004-.094 0-.051.004-.101.005-.151.005-.15.013-.291.019-.437.005-.145.013-.27.02-.397v-.034l.103-1.43.004-.045v-.035l.005-.068c-.06.016-.119.03-.18.043-3.018.65-9.136-2.095-10.552-2.332-.162-.026-.26-.018-.29.026-.027.05-.052.1-.073.152-.006.011-.01.024-.016.037l-.011.026-.04.094-.103.247-.025.06c-.01.02-.016.04-.025.061l-.068.163-.047.113-.06.15c-.077.179-.158.376-.246.582l-.051.12-.257.591-.09.202c-.046.103-.094.208-.146.314-.022.05-.044.099-.067.146-.038.082-.073.166-.116.248l-.218.46c-.121.245-.246.49-.373.726-.065.122-.132.244-.198.363-.066.12-.13.232-.198.344l-.04.066c-.085.146-.17.283-.26.416-.02.033-.042.066-.064.098-.177.269-.374.523-.589.761-.621.675-.788.424-.935.754.364-2.28.243-3.429.639-5.705.205-1.182.453-2.285.867-3.245.164-.392.366-.766.604-1.118 1.285-1.87 3.556-2.774 6.007-2.879 1.62-.062 3.238.19 4.762.745 0 0 .006 0 .01.006.535.29 1.09.543 1.662.756 4.105 1.514 6.064-.509 6.064-.509s.83 4.91-2.003 6.548c.015.153.026.303.036.453.009.15.013.295.014.442v.218c0 .073 0 .146-.004.218-.003.073-.004.146-.008.214-.008.179-.021.355-.039.53-.004.05-.01.1-.015.145-.009.077-.018.153-.03.227l-.02.155-.026.162c-.01.054-.02.105-.028.16-.009.053-.013.105-.025.157z" opacity=".63" transform="translate(-7.614 16.571)"/>
                <path fill="#2D1D2C" d="M52.144 8.036c-.06-.012-.116-.027-.175-.043.062-.019.122-.042.18-.068l-.005.111z" transform="translate(-7.614 16.571)"/>
                <g opacity=".68">
                    <path fill="#FFF" d="M23.189 46.45L.039 29.537l2.221-7.899c.601-2.14 2.454-3.693 4.667-3.91.134-.014.268-.022.403-.025l1.107-.026 1.802-.042.961-.022 2.042-.047h.073l-.05.155-.27.841.449.212 3.35 1.578 1.188.56.561-1.981.135-.478.282.139.97.478 1.05.516 2.405 1.182c.286.146.556.322.806.524l.032.025c1.39 1.13 1.849 2.874 1.78 4.827L23.19 46.45z" transform="translate(-7.614 16.571) translate(0 .8)"/>
                    <path fill="#00D0D3" d="M23.189 46.45L.039 29.537l2.221-7.899c.601-2.14 2.454-3.693 4.667-3.91.134-.014.268-.022.403-.025l1.107-.026 1.802-.042.961-.022 2.042-.047h.073l-.05.155-.27.841.449.212 3.35 1.578 1.188.56.561-1.981.135-.478.282.139.97.478 1.05.516 2.405 1.182c.286.146.556.322.806.524l.032.025c1.39 1.13 1.849 2.874 1.78 4.827L23.19 46.45z" opacity=".31" transform="translate(-7.614 16.571) translate(0 .8)"/>
                    <path fill="#FFF" d="M23.905 12.312c-.13.509-.478 1.005-.851 1.24-.006.006-.013.01-.02.015l-.055.032c-.112.062-.228.116-.348.162l-1.07.417-.078.03c-.072.093-.14.184-.211.274-.436.55-1.064.868-1.64 1.282-.257.185-.527.369-.81.534l-.027.016-.187 1.397-.372 2.745-.218 1.6-5.524-1.23.363-1.2.744-2.447.444-1.461-.023-.027c-.735-.886-1.23-2.06-1.638-3.017-.118-.276-.223-.526-.31-.768l-.639-.638c-.502-.5-.792-1.174-.811-1.883-.013-.41.284-.766.69-.826l.97-.146c.318-.76.742-1.485 1.086-2.227.48-1.031.959-2.063 1.437-3.096l7.538-.464.399 3.87V9.72c0 .305.013.62.019.936l.015.01 1.01.635c.005.006.009.013.012.02.18.285.193.643.105.992z" opacity=".11" transform="translate(-7.614 16.571) translate(0 .8)"/>
                    <path fill="#1F60E5" d="M18.712 17.243c-.908.555-1.945.96-3.009.727-.816-.182-1.454-.692-1.975-1.345l.297-.928c.51.61 1.124 1.084 1.906 1.258 1.017.227 2.012-.135 2.891-.654l-.11.942z" opacity=".14" transform="translate(-7.614 16.571) translate(0 .8)"/>
                    <path fill="#00D0D3" d="M22.964 10.895c-.035.082-.201.499-.453-.227-.016-.043-.03-.086-.042-.131-.02-.06-.036-.125-.05-.192-.015-.067-.036-.154-.052-.237v-.015c-.013-.079-.026-.159-.037-.242-.007-.044-.013-.09-.018-.136-.013-.09-.023-.182-.032-.277l-.025-.291c-.008-.1-.013-.197-.017-.298-.007-.15-.013-.3-.015-.454v-.21-.208-.19c0-.211.004-.419.01-.62 0-.086.005-.173.007-.255 0-.06.006-.121.007-.181l.015-.3c0-.057.005-.112.009-.165v-.022l.072-.967V5.208c-1.932.528-6.093-1.344-7.04-1.501-.106-.02-.171-.014-.191.016l-.015.028-.018.037-.043.099c-.013.027-.024.059-.038.091l-.108.26-.066.157-.083.202-.192.451-.064.146c-.037.088-.077.177-.117.267-.041.091-.077.169-.117.253-.062.133-.125.268-.19.402-.087.178-.176.357-.27.532-.073.13-.14.26-.211.384l-.085.145-.085.14c-.029.046-.056.091-.086.134-.03.043-.057.086-.086.127-.103.154-.217.3-.342.436-.409.443-.518.277-.614.494.241-1.495.16-2.25.42-3.742.135-.777.296-1.5.567-2.129.107-.257.24-.503.397-.734 2.363-3.439 9.807-1.89 10.686 2.17.038.179.073.355.094.525.352 2.397-.548 4.056-1.482 6.297z" opacity=".63" transform="translate(-7.614 16.571) translate(0 .8)"/>
                    <path fill="#1F60E5" d="M22.375 5.28l-.114.966c.043-.468.092-.823.114-.966zM22.265 9.15c.013.096.025.194.039.29 0-.01 0-.022-.007-.031-.011-.088-.023-.173-.032-.26z" opacity=".31" transform="translate(-7.614 16.571) translate(0 .8)"/>
                    <path fill="#00D0D3" d="M19.687 27.366l-1.863-.625.646 1.83-3.758 3.256-4.471 3.873-1.972-5.307-1.785-4.805 2.254-2.555-1.608-.358 1.075-4.821.426-.086 1.669-.038.889-.02 1.89-.044.024.145.165.974.594 3.494 2.506-2.035 1.619-1.314.386-.314.897.442.973.478 2.225 1.09c.265.136.515.298.746.485l.03.023-3.557 6.232z" opacity=".42" transform="translate(-7.614 16.571) translate(0 .8)"/>
                    <path fill="#FFF" d="M18.651 18.44l-.415.184c-1.488.659-3.23.29-4.321-.917l-.364-.403-.338.494-1.767 14.074 4.888-7.114 2.317-6.318z" transform="translate(-7.614 16.571) translate(0 .8)"/>
                </g>
            </g>
        </g>
        <circle cx="37.624" cy="33.419" r="21.244" stroke="#2D1D2C" stroke-width="1.134" transform="rotate(-45 37.624 33.419)"/>
        <circle cx="37.624" cy="33.419" r="21.244" stroke="#00D0D3" stroke-width="1.134" transform="rotate(-45 37.624 33.419)"/>
        <path fill="url(#prefix__c)" fill-rule="nonzero" d="M42.762 10.336c-12.748-2.84-25.385 5.194-28.224 17.942-.806 3.59-.758 7.32.14 10.89L1.866 45.43c.436 1.152.957 2.27 1.558 3.344l12.445-6.08c2.89 6.766 8.885 12.087 16.614 13.812 12.748 2.839 25.385-5.194 28.224-17.942 2.838-12.748-5.194-25.389-17.945-28.228zm-9.756 43.817c-11.453-2.55-18.668-13.9-16.118-25.353C19.44 17.347 30.79 10.132 42.242 12.682c11.452 2.551 18.668 13.902 16.117 25.354-2.55 11.452-13.901 18.669-25.353 16.117z"/>
        <path fill="url(#prefix__c)" fill-rule="nonzero" d="M42.762 10.336c-12.748-2.84-25.385 5.194-28.224 17.942-.806 3.59-.758 7.32.14 10.89L1.866 45.43c.436 1.152.957 2.27 1.558 3.344l12.445-6.08c2.89 6.766 8.885 12.087 16.614 13.812 12.748 2.839 25.385-5.194 28.224-17.942 2.838-12.748-5.194-25.389-17.945-28.228zm-9.756 43.817c-11.453-2.55-18.668-13.9-16.118-25.353C19.44 17.347 30.79 10.132 42.242 12.682c11.452 2.551 18.668 13.902 16.117 25.354-2.55 11.452-13.901 18.669-25.353 16.117z"/>
        <circle cx="37.685" cy="33.514" r="20.442" fill="#1F60E5" opacity=".08" transform="rotate(-45 37.685 33.514)"/>
        <path fill="url(#prefix__d)" d="M55.672 36.459c-.808 3.65-2.782 6.94-5.623 9.37-2.114 1.812-5.314-.1-4.71-2.818l.043-.193c1.928-9.155-3.863-18.272-12.969-20.417-2.46-.585-5.02-.62-7.496-.104 4.897-6.527 13.685-8.75 21.096-5.338 7.411 3.413 11.435 11.536 9.659 19.5z" opacity=".75"/>
    </g>
</svg>
