<svg xmlns="http://www.w3.org/2000/svg" xmlns:xlink="http://www.w3.org/1999/xlink" width="74" height="68" viewBox="0 0 74 68">
    <defs>
        <linearGradient id="prefix__c" x1="100%" x2="0%" y1="68.973%" y2="31.027%">
            <stop offset="0%" stop-color="#00D0D3" stop-opacity="0"/>
            <stop offset="100%" stop-color="#00D0D3"/>
        </linearGradient>
        <path id="prefix__a" d="M68.23 50.593c.165-.264.327-.53.488-.8C86.147 20.34 56.04-5.805 28.114 1.126 9.69 5.7-2.208 20.651.344 39.762c4.182 31.318 51.11 37.51 67.886 10.831z"/>
    </defs>
    <g fill="none" fill-rule="evenodd" transform="matrix(-1 0 0 1 74 0)">
        <mask id="prefix__b" fill="#fff">
            <use xlink:href="#prefix__a"/>
        </mask>
        <use fill="#EBFCFC" xlink:href="#prefix__a"/>
        <g mask="url(#prefix__b)">
            <g>
                <g opacity=".64">
                    <path fill="#FFF" d="M30.209 38.905L20.96 37.206 21.483 35.038 22.547 30.62 23.673 25.945 31.328 26.014 30.885 31.115 30.459 36.035z" transform="translate(-10.368 9.72)"/>
                    <path fill="#FFF" d="M44.288 61.585L.224 53.84l3.227-13.987c.878-3.812 3.941-6.67 7.67-7.235.227-.034.454-.062.684-.079l1.884-.141 3.065-.23 1.634-.121 3.473-.262.13-.01-.074.276-.399 1.493.782.33 5.813 2.463 2.063.874.816-3.508.195-.846.491.22 1.683.75 1.824.81 4.178 1.855c.498.232.97.514 1.41.843l.053.042c2.449 1.852 3.352 4.857 3.372 8.274l.09 15.933z" transform="translate(-10.368 9.72)"/>
                    <path fill="#00D0D3" d="M44.288 61.585L.224 53.84l3.227-13.987c.878-3.812 3.941-6.67 7.67-7.235.227-.034.454-.062.684-.079l1.884-.141 3.065-.23 1.634-.121 3.473-.262.13-.01-.074.276-.399 1.493.782.33 5.813 2.463 2.063.874.816-3.508.195-.846.491.22 1.683.75 1.824.81 4.178 1.855c.498.232.97.514 1.41.843l.053.042c2.449 1.852 3.352 4.857 3.372 8.274l.09 15.933z" transform="translate(-10.368 9.72)"/>
                    <path fill="#FFF" d="M37.017 21.105c-.299 1.41-1.017 2.76-1.817 3.971-.116.17-.228.338-.344.5-.708 1.01-1.76 1.627-2.718 2.41-.427.349-.876.696-1.348 1.013-1.47.993-3.144 1.72-4.906 1.409-1.35-.239-2.442-1.021-3.35-2.053-1.322-1.5-2.254-3.528-3.022-5.18-.22-.477-.416-.911-.584-1.324-.487-1.238-.702-2.331-.46-3.971.118-.755.31-1.496.573-2.212.489-1.368 1.162-2.685 1.703-4.026l2.241-5.588L35.856 4.56l.956 6.794.226 5.691c.022.54.068 1.093.098 1.65.043.81.043 1.626-.12 2.41z" transform="translate(-10.368 9.72)"/>
                    <path fill="#1F60E5" d="M30.561 30.182c-1.466 1.046-3.157 1.843-4.938 1.523-1.366-.246-2.462-1.08-3.367-2.173l.43-1.643c.88 1.02 1.936 1.792 3.244 2.028 1.706.307 3.327-.411 4.75-1.392l-.119 1.657z" opacity=".11" transform="translate(-10.368 9.72)"/>
                    <path fill="#FFF" d="M19.664 15.577l-2.122.43c-.691.148-1.166.779-1.114 1.478.082 1.204.621 2.332 1.508 3.157l1.535 1.415.193-6.48zM39.042 21.037c-.176.925-.712 1.845-1.307 2.3-.01.01-.02.018-.031.025-.028.022-.058.04-.088.062-.178.121-.364.23-.556.324l-1.719.839-.125.062 1.837-6.48.038.025 1.691 1.048c.01.01.017.021.024.033.311.492.358 1.13.236 1.762z" transform="translate(-10.368 9.72)"/>
                    <path fill="#2D1D2C" d="M36.475 11.04c.016-.91.054-1.615.075-1.943l-.075 1.944zM35.864 11.689v-.648c.002.21 0 .424 0 .648zM39.799 9.097c-.026-.212-.057-.425-.093-.648.038.223.069.436.093.648z" transform="translate(-10.368 9.72)"/>
                    <path fill="#FFF" d="M36.512 16.225c-1.03-2.127-1.995-6.299-1.995-6.299-1.796.817-9.769-1.793-9.769-1.793-.778 1.82-2.056 3.432-3.14 4.584 1.196-2.463 2.204-5.842 2.366-6.155.03-.056.14-.07.322-.047 1.616.201 8.797 3.222 12.034 2.088v.082c-.012.221-.04.895-.054 1.806v.04c-.024 1.572.002 3.825.236 5.694zM34.337 49.49l-3.472-1.007 1.327 3.398-6.657 6.504-7.922 7.736-4.026-9.841-3.643-8.916 3.952-5.038-2.981-.525 1.607-9.209.78-.202 3.062-.23 1.632-.121 3.469-.262.055.262.377 1.825 1.358 6.545 4.447-4.071 2.875-2.637.686-.628 1.681.752 1.822.811 4.173 1.857c.497.232.969.515 1.408.844l.053.042-6.063 12.112z" transform="translate(-10.368 9.72)"/>
                    <path fill="#00D0D3" d="M34.337 49.49l-3.472-1.007 1.327 3.398-6.657 6.504-7.922 7.736-4.026-9.841-3.643-8.916 3.952-5.038-2.981-.525 1.607-9.209.78-.202 3.062-.23 1.632-.121 3.469-.262.055.262-.352 1.441c-1.548 11.596-1.848 17.596-.9 18 .948.404 2.448.704 4.5.9l5.81-18.679.685-.628 1.681.752 1.822.811 4.173 1.857c.497.232.969.515 1.408.844l.053.042-6.063 12.112z" transform="translate(-10.368 9.72)"/>
                    <path fill="#FFF" d="M30.68 32.687l-.675.361c-2.404 1.3-5.339.797-7.22-1.238l-.633-.681-.526.902-1.962 25.018 7.6-12.996 3.416-11.366z" transform="translate(-10.368 9.72)"/>
                    <path fill="#00D0D3" d="M39.53 11.573c-.338 2.26-1.243 4.374-2.154 6.893-.053.147-.306.883-.781-.355-.07-.18-.13-.363-.18-.55-.054-.196-.105-.405-.15-.626l-.042-.225c-.064-.35-.118-.726-.163-1.113-.013-.108-.024-.219-.035-.33-.045-.434-.076-.881-.1-1.33 0-.087-.01-.175-.015-.26-.005-.084-.01-.176-.012-.26-.002-.085-.009-.196-.011-.294 0-.164-.01-.326-.015-.489v-.26c0-.216-.006-.43-.008-.636v-.108-.172-.498-.491l.049-1.633v-.174c-.067.022-.13.042-.201.06-3.34.91-10.299-1.866-11.89-2.056-.182-.02-.292 0-.323.047-.016.03-.042.09-.074.175 0 .014-.01.029-.017.044-.005.01-.008.02-.01.029-.014.034-.028.07-.042.11-.029.084-.064.18-.103.287l-.025.07c-.008.022-.016.047-.026.071-.02.059-.043.123-.068.189-.014.042-.03.086-.047.13-.017.044-.04.116-.06.176-.078.206-.16.435-.247.676l-.052.14c-.082.219-.168.449-.26.687-.03.077-.06.155-.093.235l-.145.366-.067.172-.119.29c-.073.178-.148.356-.225.533-.123.287-.251.572-.382.852-.067.143-.13.285-.204.425-.074.14-.13.27-.206.402l-.04.078c-.09.168-.179.33-.271.488l-.068.115c-.185.315-.393.615-.622.899-.663.802-.863.52-1.01.91.305-2.612.114-3.913.45-6.524.175-1.358.4-2.626.817-3.742.166-.453.375-.889.624-1.3C22.257 1.494 24.75.337 27.483.08c1.804-.164 3.623.032 5.35.577h.011c.612.301 1.244.557 1.893.766 4.653 1.49 4.431 5.056 4.431 5.056l.383 1.584c.024.173.043.343.06.52s.029.336.037.502c.007.082.01.164.011.246 0 .083 0 .165.007.244.006.08 0 .164 0 .244 0 .204-.008.405-.018.606 0 .056 0 .113-.01.169 0 .087-.014.173-.023.26 0 .058-.012.118-.017.177-.005.058-.014.13-.02.186-.007.056-.018.12-.024.183-.007.062-.017.112-.024.172z" opacity=".63" transform="translate(-10.368 9.72)"/>
                    <path fill="#2D1D2C" d="M35.961 9.16l-.198-.032c.07-.03.132-.06.202-.095l-.004.128z" transform="translate(-10.368 9.72)"/>
                </g>
                <g>
                    <path fill="url(#prefix__c)" fill-rule="nonzero" d="M57.475 13.713L54.478 30.82c-.545 3.116-3.495 5.196-6.588 4.647l-38.762-6.89c-1.485-.264-2.806-1.112-3.67-2.356-.866-1.245-1.204-2.785-.942-4.281l.375-2.138c.512-2.936-.907-5.87-3.518-7.273l-1.36-.73 1.999-.423c2.732-.578 4.84-2.77 5.325-5.54l.176-.998C8.059 1.723 11.008-.357 14.1.192l38.761 6.89c3.09.55 5.155 3.518 4.613 6.631z" transform="translate(-10.368 9.72) translate(40.6 12.287)"/>
                    <path fill="#FFF" d="M13.747 11.344L13.84 10.781 49.962 17.316 49.87 17.879zM13.141 14.99L13.234 14.427 49.357 20.962 49.264 21.525z" transform="translate(-10.368 9.72) translate(40.6 12.287)"/>
                    <path fill="#FFF" d="M13.141 14.99L13.234 14.427 49.357 20.962 49.264 21.525zM12.536 18.636L12.628 18.073 48.751 24.608 48.658 25.171z" transform="translate(-10.368 9.72) translate(40.6 12.287)"/>
                </g>
            </g>
        </g>
    </g>
</svg>
