<svg xmlns="http://www.w3.org/2000/svg" xmlns:xlink="http://www.w3.org/1999/xlink" width="72" height="74" viewBox="0 0 72 74">
    <defs>
        <path id="prefix__a" d="M.19 40.976c1.187 10.905 8.984 20.217 18.355 25.902 8.005 4.856 17.535 7.538 26.817 6.323 9.282-1.215 18.18-6.64 22.52-14.944 3.892-7.45 3.884-16.303 3.077-24.672-.834-8.65-2.732-17.831-8.955-23.888-22.978-22.363-65.175.497-61.815 31.28z"/>
        <path id="prefix__c" d="M2.7 1.8L13.027 1.8 13.027 15.982 2.7 15.982z"/>
    </defs>
    <g fill="none" fill-rule="evenodd">
        <path fill="#FFF" d="M.19 40.976c1.187 10.905 8.984 20.217 18.355 25.902 8.005 4.856 17.535 7.538 26.817 6.323 9.282-1.215 18.18-6.64 22.52-14.944 3.892-7.45 3.884-16.303 3.077-24.672-.834-8.65-2.732-17.831-8.955-23.888-22.978-22.363-65.175.497-61.815 31.28z"/>
        <mask id="prefix__b" fill="#fff">
            <use xlink:href="#prefix__a"/>
        </mask>
        <use fill="#EBFCFC" xlink:href="#prefix__a"/>
        <g mask="url(#prefix__b)">
            <g>
                <g opacity=".13">
                    <path fill="#00D0D3" d="M11.318 23.374L59.833 23.374 59.833 87.913 11.318 87.913z" transform="translate(7.944 -7.725) translate(0 .891) rotate(-24.84 35.576 55.644)"/>
                    <g fill="#003FC3">
                        <path d="M6.866 9.676L4.639 10.699 4.446 10.179 4.051 9.118 3.634 7.995 5.289 6.875 5.913 7.983 6.515 9.052zM4.125 2.966c-.108-.162-.189-.29-.223-.35l.223.35zM4.308 3.186l-.116-.116c.04.037.078.076.116.116zM4.667 2.043l-.116-.115c.04.038.079.076.116.115z" transform="translate(7.944 -7.725) translate(0 .891) translate(9.207 36.459)"/>
                        <path d="M4.967 4.084c-.51-.277-1.29-.973-1.29-.973-.264.426-2.302 1.059-2.302 1.059.09.477.042.986-.027 1.374-.089-.668-.343-1.49-.353-1.576 0-.016.02-.035.062-.057.367-.194 2.295-.63 2.821-1.328l.011.016c.028.047.115.186.239.372l.005.008c.253.387.532.756.834 1.105zM9.272 11.17l-.873.293.766.515-.462 2.316-.55 2.755-2.257-1.465-2.043-1.328.105-1.62-.7.322-.985-2.148.134-.154.609-.49.325-.262.69-.556.049.048.34.324 1.223 1.167.347-1.492.222-.965.054-.23.46-.087.5-.095 1.14-.218c.137-.023.277-.033.416-.028H8.8l.473 3.398z" transform="translate(7.944 -7.725) translate(0 .891) translate(9.207 36.459)"/>
                        <path d="M9.272 11.17l-.873.293.766.515-.462 2.316-.55 2.755-2.257-1.465-2.043-1.328.105-1.62-.7.322-.985-2.148.134-.154.609-.49.325-.262.69-.556.049.048.34.324 1.223 1.167.347-1.492.222-.965.054-.23.46-.087.5-.095 1.14-.218c.137-.023.277-.033.416-.028H8.8l.473 3.398z" opacity=".5" transform="translate(7.944 -7.725) translate(0 .891) translate(9.207 36.459)"/>
                        <path d="M6.122 8.23l-.094.174c-.333.624-1.036.956-1.73.817l-.233-.046.015.264 3.132 5.441-.209-3.805-.881-2.845z" transform="translate(7.944 -7.725) translate(0 .891) translate(9.207 36.459)"/>
                        <path d="M5.053 2.667c.257.52.372 1.097.548 1.757.01.038.063.23-.217.04-.038-.027-.074-.057-.117-.09-.044-.033-.08-.07-.122-.11l-.042-.04c-.064-.065-.129-.136-.195-.21l-.055-.065c-.074-.084-.143-.174-.213-.264l-.042-.053-.04-.054-.045-.06-.074-.1-.038-.053-.095-.132c-.004-.008-.01-.015-.015-.022l-.025-.037C4.24 3.14 4.217 3.1 4.19 3.07c-.026-.03-.043-.065-.063-.096l-.006-.008-.223-.35-.007-.01-.006-.01-.01-.016-.034.041c-.568.673-2.427 1.097-2.787 1.288-.041.021-.062.04-.062.056.001.016.006.024.01.047v.02c0 .009.005.018.008.029l.02.074.005.018.005.02.013.048.01.034c0 .015.007.03.012.046l.046.178c0 .012.007.024.01.036l.045.182.014.062c.004.022.016.065.023.098l.01.046.017.078c.01.048.021.095.03.144.016.075.03.156.044.234l.019.118.015.115v.022c.006.048.011.095.014.141v.034c.007.093.007.186 0 .279-.022.264-.104.234-.08.336C.97 5.81.742 5.567.434 4.971c-.157-.286-.281-.589-.37-.903-.032-.119-.052-.24-.06-.364-.036-.656.32-1.262.854-1.707.354-.296.764-.517 1.205-.652.172-.025.341-.063.507-.113C3.757.872 3.849.063 3.849.063s1.04.995.69 1.866c.029.033.058.065.086.099.028.033.054.066.08.1l.039.05.036.05.036.05.083.13c.007.013.016.025.022.038l.034.057.021.04.023.042.022.041c.02.013.028.027.032.041z" opacity=".63" transform="translate(7.944 -7.725) translate(0 .891) translate(9.207 36.459)"/>
                        <path d="M3.92 2.618l-.069.037c.018-.021.035-.043.05-.064l.018.027z" transform="translate(7.944 -7.725) translate(0 .891) translate(9.207 36.459)"/>
                    </g>
                    <path fill="#003FC3" d="M20.316 33.775L41.894 23.787M21.324 35.957L42.902 25.97M21.324 35.957L42.902 25.97M22.331 38.139L43.909 28.152M12.522 54.135L48.266 37.591M14.486 58.391L50.231 41.847M16.501 62.755L52.246 46.211M18.516 67.12L54.261 50.575M20.532 71.485L56.276 54.941M33.726 15.784L49.569.205M35.298 17.386L51.141 1.807M35.298 17.386L51.141 1.807M36.869 18.989L52.713 3.41M33.264 36.148L59.51 10.341M36.328 39.272L62.575 13.465M39.471 42.478L65.718 16.67M42.615 45.682L68.861 19.875M45.758 48.887L72.005 23.08" transform="translate(7.944 -7.725) translate(0 .891)"/>
                </g>
                <path fill="#FFF" d="M15.839 23.389L64.353 23.389 64.353 87.928 15.839 87.928z" transform="translate(7.944 -7.725) rotate(-24.84 40.096 55.658)"/>
                <g transform="translate(7.944 -7.725) translate(9.877 33.874)">
                    <mask id="prefix__d" fill="#fff">
                        <use xlink:href="#prefix__c"/>
                    </mask>
                    <use fill="#00D0D3" opacity=".08" transform="rotate(-24.84 7.864 8.89)" xlink:href="#prefix__c"/>
                    <g mask="url(#prefix__d)">
                        <g>
                            <path fill="#FFF" d="M6.931 9.616L4.705 10.64 4.511 10.12 4.117 9.058 3.699 7.936 5.354 6.815 5.979 7.924 6.581 8.992z" transform="translate(3.785 2.66)"/>
                            <path fill="#FFF" d="M13.073 12.255L2.735 17.007l-1.337-3.378c-.364-.906-.14-1.942.567-2.615.042-.04.086-.08.131-.116l.371-.301.61-.49.324-.262.69-.556.025-.021.024.068.132.371.209-.043 1.572-.327.557-.116-.333-.848-.076-.206.135-.025.46-.087.5-.095 1.14-.217c.138-.024.277-.033.416-.028h.018c.779.032 1.4.527 1.895 1.236l2.308 3.304z" transform="translate(3.785 2.66)"/>
                            <path fill="#00D0D3" d="M13.073 12.255L2.735 17.007l-1.337-3.378c-.364-.906-.14-1.942.567-2.615.042-.04.086-.08.131-.116l.371-.301.61-.49.324-.262.69-.556.025-.021.024.068.132.371.209-.043 1.572-.327.557-.116-.333-.848-.076-.206.135-.025.46-.087.5-.095 1.14-.217c.138-.024.277-.033.416-.028h.018c.779.032 1.4.527 1.895 1.236l2.308 3.304z" opacity=".47" transform="translate(3.785 2.66)"/>
                            <path fill="#FFF" d="M5.852 4.848c.129.344.192.71.185 1.078v.148c0 .31-.135.588-.222.887-.04.133-.084.27-.137.402-.165.416-.41.807-.82.995-.316.149-.655.14-.99.059-.489-.12-.972-.403-1.366-.633-.113-.067-.216-.129-.31-.19-.29-.181-.52-.443-.662-.753-.082-.173-.147-.353-.194-.539-.094-.352-.14-.72-.223-1.073L.785 3.756l2.47-2.154L4.42 2.865l.855 1.14c.081.108.17.215.255.325.13.158.238.332.322.518z" transform="translate(3.785 2.66)"/>
                            <path fill="#1F60E5" d="M5.89 7.73c-.165.437-.413.854-.842 1.052-.33.148-.685.14-1.04.046l-.144-.407c.336.082.674.087.99-.058.41-.189.655-.58.82-.995l.216.363z" opacity=".11" transform="translate(3.785 2.66)"/>
                            <path fill="#FFF" d="M1.423 6.215l-.384.4c-.124.131-.131.334-.017.474.193.244.471.405.779.452l.53.078-.908-1.404zM6.366 4.617c.09.21.103.445.037.664v.01l-.01.025c-.022.051-.046.101-.074.149l-.258.429-.018.032-.507-1.593h.012l.52-.041h.01c.135.065.239.182.288.325z" transform="translate(3.785 2.66)"/>
                            <path fill="#2D1D2C" d="M4.19 2.906c-.108-.162-.189-.289-.222-.349l.223.35zM4.374 3.13c-.04-.04-.076-.082-.116-.115.04.033.076.072.116.115zM4.732 1.984c-.038-.04-.075-.078-.116-.116.04.038.082.073.116.116z" transform="translate(3.785 2.66)"/>
                            <path fill="#FFF" d="M5.033 4.02c-.51-.276-1.29-.972-1.29-.972-.264.426-2.303 1.059-2.303 1.059.09.477.042.986-.027 1.374-.088-.668-.343-1.49-.353-1.576 0-.016.02-.034.061-.057.371-.194 2.297-.63 2.822-1.328l.01.016c.028.047.116.186.24.372l.004.008c.254.386.533.755.836 1.105zM9.337 11.11l-.873.293.767.516-.463 2.315-.55 2.755-2.256-1.464-2.044-1.327.106-1.62-.7.322-.986-2.147.135-.155.608-.49.325-.262.69-.556.05.048.34.325 1.225 1.165.347-1.493.223-.965.053-.23.46-.087.5-.095 1.14-.217c.138-.024.277-.033.417-.028h.017l.469 3.398z" transform="translate(3.785 2.66)"/>
                            <path fill="#00D0D3" d="M9.337 11.11l-.873.293.767.516-.463 2.315-.55 2.755-2.256-1.464-2.044-1.327.106-1.62-.7.322-.986-2.147.135-.155.608-.49.325-.262.69-.556.05.048.34.325 1.225 1.165.347-1.493.223-.965.053-.23.46-.087.5-.095 1.14-.217c.138-.024.277-.033.417-.028h.017l.469 3.398z" opacity=".637" transform="translate(3.785 2.66)"/>
                            <path fill="#FFF" d="M6.187 8.167l-.093.175c-.333.624-1.037.956-1.73.817l-.233-.046.015.264 3.13 5.445-.208-3.806-.88-2.849z" transform="translate(3.785 2.66)"/>
                            <path fill="#00D0D3" d="M5.123 2.608c.256.52.371 1.096.547 1.756.01.039.064.23-.217.04-.04-.028-.08-.058-.117-.09-.04-.033-.08-.07-.122-.11l-.041-.04c-.065-.065-.13-.135-.196-.21l-.055-.064c-.074-.085-.143-.174-.213-.264l-.04-.054-.042-.053-.045-.06-.074-.1-.038-.053-.094-.133-.016-.022-.025-.036c-.025-.036-.049-.074-.074-.104l-.064-.097-.006-.008-.222-.349-.008-.011-.005-.009-.01-.016c-.01.014-.022.027-.034.04-.568.674-2.426 1.098-2.787 1.288-.041.022-.062.041-.061.057.002.016.006.031.01.047v.019c0 .01.004.019.006.03l.02.074c0 .006 0 .011.006.018.005.007 0 .012.004.019.004.006.009.032.013.049l.01.034.012.046.047.177.009.037.045.182.015.062.022.098.011.045.017.075.03.148c.016.074.03.156.043.234l.02.118c.006.04.01.074.014.114v.023l.014.14v.035c.006.093.006.186 0 .278-.023.265-.104.236-.08.337-.315-.594-.543-.837-.85-1.433-.158-.286-.282-.59-.371-.903-.032-.12-.052-.241-.059-.364-.036-.656.319-1.262.854-1.708.354-.295.763-.517 1.204-.652.172-.025.341-.062.507-.112 1.188-.36 1.28-1.17 1.28-1.17S4.96 1 4.606 1.87c.03.032.058.065.087.098.028.034.055.066.08.1l.038.05.037.05c.01.018.024.035.035.051.03.043.058.086.084.13l.023.037.032.058.023.04.022.041.021.042c.008.013.025.027.035.04z" opacity=".63" transform="translate(3.785 2.66)"/>
                            <path fill="#2D1D2C" d="M3.985 2.555l-.07.037c.019-.02.036-.041.052-.063l.018.026z" transform="translate(3.785 2.66)"/>
                        </g>
                    </g>
                </g>
                <path stroke="#00D0D3" stroke-linecap="round" stroke-width="1.622" d="M24.837 33.79L46.414 23.802M25.844 35.972L47.422 25.985M25.844 35.972L47.422 25.985M26.852 38.154L48.43 28.168M17.042 54.15L52.787 37.605M19.007 58.406L54.752 41.861M21.022 62.77L56.766 46.226M23.037 67.135L58.781 50.591M25.052 71.5L60.797 54.955" transform="translate(7.944 -7.725)"/>
            </g>
        </g>
    </g>
</svg>
