<svg xmlns="http://www.w3.org/2000/svg" xmlns:xlink="http://www.w3.org/1999/xlink" width="74" height="68" viewBox="0 0 74 68">
    <defs>
        <linearGradient id="prefix__c" x1="88.281%" x2="11.719%" y1="100%" y2="0%">
            <stop offset="0%" stop-color="#0C9EE2"/>
            <stop offset="100%" stop-color="#00D0D3"/>
        </linearGradient>
        <linearGradient id="prefix__d" x1="96.002%" x2="3.998%" y1="100%" y2="0%">
            <stop offset="0%" stop-color="#0C9EE2"/>
            <stop offset="100%" stop-color="#00D0D3"/>
        </linearGradient>
        <path id="prefix__a" d="M68.23 50.593c.165-.264.327-.53.488-.8C86.147 20.34 56.04-5.805 28.114 1.126 9.69 5.7-2.208 20.651.344 39.762c4.182 31.318 51.11 37.51 67.886 10.831z"/>
    </defs>
    <g fill="none" fill-rule="evenodd">
        <mask id="prefix__b" fill="#fff">
            <use xlink:href="#prefix__a"/>
        </mask>
        <use fill="#EBFCFC" xlink:href="#prefix__a"/>
        <g mask="url(#prefix__b)">
            <g fill-rule="nonzero">
                <path fill="#A2EDEE" d="M15.69 28.679c0 .894.93 1.496 1.767 1.144 7.716-3.251 13.004-9.194 13.082-16.973v-.174-.174 0C30.427 5.706 23.822.225 15.689.225 7.49.225.84 5.799.84 12.675c0 6.877 6.65 12.452 14.85 12.452v3.552z" opacity=".406" transform="rotate(30 -24.657 31.807)"/>
                <path fill="url(#prefix__c)" d="M10.042 2.165c.295 0 .534.251.534.562v.586c1.482.13 2.858.8 3.921 1.92 1.19 1.254 1.845 2.921 1.845 4.694 0 1.118-.269 2.223-.777 3.196-.142.272-.467.372-.725.222-.259-.15-.353-.492-.21-.764.421-.808.644-1.726.644-2.654 0-3.04-2.347-5.512-5.232-5.512-2.885 0-5.232 2.472-5.232 5.512 0 3.04 2.347 5.513 5.232 5.513 1.126 0 2.198-.37 3.1-1.072.238-.184.572-.13.747.12.175.25.124.602-.113.786-1.088.844-2.379 1.29-3.734 1.29-1.683 0-3.265-.69-4.455-1.943-1.19-1.254-1.845-2.921-1.845-4.694 0-1.773.656-3.44 1.845-4.693 1.064-1.12 2.44-1.79 3.921-1.92v-.587c0-.31.24-.562.534-.562zm1.85 4.46c.186-.242.522-.28.751-.084.23.195.265.55.08.791l-1.684 2.192c.046.125.071.261.071.403 0 .62-.479 1.125-1.068 1.125-.589 0-1.068-.505-1.068-1.125s.48-1.125 1.068-1.125c.057 0 .113.005.167.014zM13.6 2.746c.19-.239.526-.27.752-.072l1.45 1.274c.226.199.257.553.068.792-.105.133-.257.202-.41.202-.12 0-.242-.043-.342-.13l-1.45-1.274c-.226-.199-.257-.554-.068-.792zm-7.868-.072c.227-.199.563-.167.752.072.189.238.158.593-.068.792l-1.45 1.274c-.1.087-.22.13-.341.13-.153 0-.305-.069-.41-.202-.19-.239-.159-.593.067-.792z" transform="rotate(30 -24.657 31.807) rotate(-57 14.721 8.733)"/>
            </g>
        </g>
        <g fill="url(#prefix__d)" fill-rule="nonzero" mask="url(#prefix__b)">
            <path d="M63.557 47.323c.922.955.59 2.52-.63 2.97-11.26 4.161-22.807 3.046-30.91-5.186-.06-.06-.12-.123-.18-.185l-.18-.187.36.372c-.06-.06-.12-.123-.18-.185l-.18-.187c-6.895-7.37-5.78-19.759 2.55-27.804 8.403-8.114 20.965-8.738 28.057-1.393 7.093 7.344 6.031 19.877-2.371 27.99l3.664 3.795z"/>
        </g>
    </g>
</svg>
