<svg xmlns="http://www.w3.org/2000/svg" width="78" height="72" viewBox="0 0 78 72">
    <defs>
        <linearGradient id="prefix__a" x1="64.768%" x2="35.232%" y1="100%" y2="0%">
            <stop offset="0%" stop-color="#0C9EE2"/>
            <stop offset="100%" stop-color="#00D0D3"/>
        </linearGradient>
        <linearGradient id="prefix__b" x1="74.621%" x2="25.379%" y1="100%" y2="0%">
            <stop offset="0%" stop-color="#0C9EE2"/>
            <stop offset="100%" stop-color="#00D0D3"/>
        </linearGradient>
        <linearGradient id="prefix__c" x1="69.554%" x2="30.446%" y1="100%" y2="0%">
            <stop offset="0%" stop-color="#0C9EE2"/>
            <stop offset="100%" stop-color="#00D0D3"/>
        </linearGradient>
        <linearGradient id="prefix__d" x1="98.731%" x2="1.269%" y1="100%" y2="0%">
            <stop offset="0%" stop-color="#0C9EE2"/>
            <stop offset="100%" stop-color="#00D0D3"/>
        </linearGradient>
        <linearGradient id="prefix__e" x1="100%" x2="0%" y1="64.657%" y2="35.343%">
            <stop offset="0%" stop-color="#0C9EE2"/>
            <stop offset="100%" stop-color="#00D0D3"/>
        </linearGradient>
        <linearGradient id="prefix__f" x1="100%" x2="0%" y1="85.448%" y2="14.552%">
            <stop offset="0%" stop-color="#0C9EE2"/>
            <stop offset="100%" stop-color="#00D0D3"/>
        </linearGradient>
        <linearGradient id="prefix__g" x1="81.388%" x2="18.612%" y1="100%" y2="0%">
            <stop offset="0%" stop-color="#0C9EE2"/>
            <stop offset="100%" stop-color="#00D0D3"/>
        </linearGradient>
        <linearGradient id="prefix__h" x1="100%" x2="0%" y1="69.6%" y2="30.4%">
            <stop offset="0%" stop-color="#0C9EE2"/>
            <stop offset="100%" stop-color="#00D0D3"/>
        </linearGradient>
        <linearGradient id="prefix__i" x1="49.775%" x2="50.334%" y1="5.844%" y2="78.35%">
            <stop offset="0%" stop-color="#FFF"/>
            <stop offset="100%" stop-color="#FFF" stop-opacity="0"/>
        </linearGradient>
        <linearGradient id="prefix__j" x1="47.08%" x2="48.859%" y1="-225.304%" y2="-29.917%">
            <stop offset="0%" stop-color="#FFF"/>
            <stop offset="100%" stop-color="#FFF" stop-opacity="0"/>
        </linearGradient>
        <linearGradient id="prefix__k" x1="49.931%" x2="50.182%" y1="34.357%" y2="91.928%">
            <stop offset="0%" stop-color="#FFF"/>
            <stop offset="100%" stop-color="#FFF" stop-opacity="0"/>
        </linearGradient>
    </defs>
    <g fill="none" fill-rule="evenodd">
        <path fill="#FFF" d="M75.332 47.255c.115-.302.227-.607.334-.915 11.739-33.601-25.318-55.118-52.9-42.862C4.574 11.563-4.561 29.174 2.26 48.452c11.181 31.585 61.411 29.42 73.072-1.197z"/>
        <path fill="#EBFCFC" d="M75.332 47.255c.115-.302.227-.607.334-.915 11.739-33.601-25.318-55.118-52.9-42.862C4.574 11.563-4.561 29.174 2.26 48.452c11.181 31.585 61.411 29.42 73.072-1.197z"/>
        <path fill="#00D0D3" d="M21.89 52.83l-.741.34-.504.232c-1.213.553-2.645.02-3.201-1.192l-2.394-5.234-1.542-3.37c-.266-.583-.29-1.248-.067-1.848.223-.6.676-1.088 1.259-1.354l.54-.248.485-.22.076-.037.02.048 5.623 12.288c.104.229.256.432.446.596z" opacity=".6"/>
        <path fill="#00D0D3" d="M50.063 43.538l-1.163.388-2.523.84-14.003 4.667-4.299 1.433-.122.04-1.496.498-1.763.588-2.116.704-.254.085-6.3-13.768c-.017-.158 1.309-1.366 3.335-3.118 1.462-1.261 3.29-2.804 5.25-4.44 1.877-1.574 3.874-3.221 5.78-4.793 1.615-1.33 3.165-2.602 4.52-3.712l2.32-1.9c.318-.26.613-.497.876-.714l.982-.8c.02.052.04.106.065.159l10.911 23.843z" opacity=".31"/>
        <path fill="url(#prefix__a)" fill-rule="nonzero" d="M53.703 45.545l-.43.196c-1.006.46-2.193.018-2.654-.987l-.556-1.215-10.91-23.845c-.026-.053-.046-.107-.066-.16-.35-.978.107-2.06 1.051-2.493l.431-.197c1.005-.46 2.194-.019 2.654.986L54.69 42.89c.46 1.005.019 2.194-.987 2.655z"/>
        <path fill="#00D0D3" d="M50.063 43.538l-1.163.388-.176-.388-10.615-23.202.983-.8c.02.052.04.106.065.159l10.906 23.843z" opacity=".42"/>
        <path fill="url(#prefix__b)" fill-rule="nonzero" d="M30.877 60.192l-.915.42c-.604.275-1.318.01-1.594-.594l-.462-1.008-.506-1.108-2.132-4.655-.275-.6-.3-.655 1.764-.587 1.496-.498.098.213.374.823 3.045 6.654c.008.018.016.035.022.054.241.595-.03 1.275-.615 1.54z"/>
        <path fill="url(#prefix__c)" fill-rule="nonzero" d="M26.739 52.02l-1.746.623-1.402.5c-.34.123-.709.135-1.055.034-.236-.07-.454-.187-.641-.346-.19-.163-.342-.365-.446-.592L15.82 39.951l-.02-.048c-.022-.05-.04-.104-.058-.158-.137-.441-.092-.919.127-1.326.107-.199.252-.374.426-.518l2.898-2.363.163.357 3.991 8.72 3.108 6.789.283.616z"/>
        <path fill="#00D0D3" d="M21.89 52.83l-.741.34c-.06-.081-.11-.17-.152-.262l-5.386-11.77-.236-.516-.02-.047c-.057-.132-.095-.27-.115-.413l.485-.22.076-.037.02.048 5.623 12.288c.104.227.256.428.446.59z" opacity=".55"/>
        <path fill="url(#prefix__d)" fill-rule="nonzero" d="M58.044 16.972L50.931 22.282 49.16 20.438 54.501 13.283z"/>
        <path fill="url(#prefix__e)" fill-rule="nonzero" d="M64.784 39.055L56.28 36.512 56.704 33.991 65.633 34.011z"/>
        <path fill="url(#prefix__f)" fill-rule="nonzero" d="M63.304 27.242L54.611 29.468 53.52 27.155 60.553 21.231z"/>
        <path fill="url(#prefix__g)" fill-rule="nonzero" d="M52.67 29.249c.76 1.66.03 3.621-1.63 4.381-.162.073-.329.132-.5.177l-2.71-5.93c.147-.1.304-.188.467-.262 1.658-.754 3.614-.023 4.373 1.634z"/>
        <path fill="url(#prefix__h)" fill-rule="nonzero" d="M28.426 51.944L27.951 52.141 25.268 53.243 24.993 52.643 24.694 51.992 26.457 51.404 27.951 50.906 28.049 51.119 28.049 51.12z"/>
        <g opacity=".49">
            <path fill="url(#prefix__i)" d="M9.584 8.583l-1.258 13.16-.772 8.082-.047.48c-.236-.069-.454-.187-.641-.346l-.741.34-.504.231c-1.213.553-2.645.02-3.201-1.191L.026 24.105l.56-5.843.115-1.196.018-.194.127-1.327c.107-.198.252-.374.426-.517l2.897-2.364.164.357c1.462-1.259 3.292-2.802 5.251-4.438z" transform="translate(15.024 22.872)"/>
            <path fill="url(#prefix__j)" d="M16.45 35.727l.022.053-.068.691-3.52-.336-.607-.058.101-1.05.551-5.76.099-1.021.373.823 3.048 6.658z" transform="translate(15.024 22.872)"/>
            <path fill="url(#prefix__k)" d="M19.884.079L17.35 26.56l-4.299 1.434 2.315-24.207c1.614-1.328 3.164-2.6 4.518-3.71z" transform="translate(15.024 22.872)"/>
        </g>
    </g>
</svg>
