<svg xmlns="http://www.w3.org/2000/svg" width="84" height="84" viewBox="0 0 84 84">
    <defs>
        <linearGradient id="prefix__a" x1="100%" x2="0%" y1="100%" y2="0%">
            <stop offset="0%" stop-color="#0C9EE2"/>
            <stop offset="100%" stop-color="#00D0D3"/>
        </linearGradient>
        <linearGradient id="prefix__b" x1="100%" x2="0%" y1="62.407%" y2="37.593%">
            <stop offset="0%" stop-color="#0C9EE2"/>
            <stop offset="100%" stop-color="#00D0D3"/>
        </linearGradient>
        <linearGradient id="prefix__c" x1="100%" x2="0%" y1="62.463%" y2="37.537%">
            <stop offset="0%" stop-color="#0C9EE2"/>
            <stop offset="100%" stop-color="#00D0D3"/>
        </linearGradient>
        <linearGradient id="prefix__d" x1="62.407%" x2="37.593%" y1="100%" y2="0%">
            <stop offset="0%" stop-color="#0C9EE2"/>
            <stop offset="100%" stop-color="#00D0D3"/>
        </linearGradient>
        <linearGradient id="prefix__e" x1="62.463%" x2="37.537%" y1="100%" y2="0%">
            <stop offset="0%" stop-color="#0C9EE2"/>
            <stop offset="100%" stop-color="#00D0D3"/>
        </linearGradient>
    </defs>
    <g fill="none" fill-rule="evenodd" stroke-width="1.8" transform="translate(1.3 1.8)">
        <circle cx="40.5" cy="40.5" r="40.5" stroke="url(#prefix__a)"/>
        <g stroke-linecap="round" stroke-linejoin="round" transform="translate(25.2 25.2)">
            <circle cx="15.3" cy="15.3" r="3.6" stroke="url(#prefix__a)"/>
            <path stroke="url(#prefix__b)" d="M25.182 12.54c-1.031-1.331-2.145-2.596-3.334-3.789C14.22 1.118 5.092-2.14 1.476 1.476-.668 3.62-.38 7.698 1.784 12.252"/>
            <path stroke="url(#prefix__c)" d="M5.43 18.038c1.025 1.34 2.134 2.612 3.321 3.81 7.636 7.634 16.757 10.892 20.373 7.276 2.142-2.142 1.856-6.22-.312-10.773"/>
            <path stroke="url(#prefix__d)" d="M18.06 25.182c1.33-1.031 2.596-2.145 3.788-3.334C29.482 14.22 32.74 5.092 29.124 1.476 26.98-.668 22.9-.38 18.347 1.784"/>
            <path stroke="url(#prefix__e)" d="M12.562 5.43c-1.34 1.025-2.613 2.134-3.81 3.321C1.117 16.38-2.14 25.508 1.475 29.124c2.142 2.142 6.219 1.856 10.773-.312"/>
        </g>
    </g>
</svg>
