<svg xmlns="http://www.w3.org/2000/svg" width="83" height="84" viewBox="0 0 83 84">
    <defs>
        <linearGradient id="prefix__a" x1="100%" x2="0%" y1="100%" y2="0%">
            <stop offset="0%" stop-color="#0C9EE2"/>
            <stop offset="100%" stop-color="#00D0D3"/>
        </linearGradient>
        <linearGradient id="prefix__b" x1="100%" x2="0%" y1="69.074%" y2="30.926%">
            <stop offset="0%" stop-color="#0C9EE2"/>
            <stop offset="100%" stop-color="#00D0D3"/>
        </linearGradient>
        <linearGradient id="prefix__c" x1="100%" x2="0%" y1="51.02%" y2="48.98%">
            <stop offset="0%" stop-color="#0C9EE2"/>
            <stop offset="100%" stop-color="#00D0D3"/>
        </linearGradient>
        <linearGradient id="prefix__d" x1="100%" x2="0%" y1="77.147%" y2="22.853%">
            <stop offset="0%" stop-color="#0C9EE2"/>
            <stop offset="100%" stop-color="#00D0D3"/>
        </linearGradient>
    </defs>
    <g fill="none" fill-rule="evenodd" transform="translate(1 1.8)">
        <circle cx="40.5" cy="40.5" r="40.5" stroke="url(#prefix__a)" stroke-width="1.8"/>
        <path stroke="url(#prefix__b)" stroke-linecap="round" stroke-linejoin="round" stroke-width="1.959" d="M24.068 46.122V29.468c0-2.164 1.755-3.918 3.919-3.918h25.47c2.165 0 3.92 1.754 3.92 3.918v16.654"/>
        <path stroke="url(#prefix__c)" stroke-linecap="round" stroke-linejoin="round" stroke-width="1.959" d="M47.629 49.061h13.666c0 2.165-1.96 5.878-8.25 5.878H28.4c-6.291 0-8.25-3.713-8.25-5.878h13.666c.405 0 .8.126 1.13.36l1.764 1.239c.33.235.725.361 1.13.36h5.78c.405.001.8-.125 1.13-.36l1.764-1.238c.326-.232.715-.358 1.115-.36z"/>
        <path fill="url(#prefix__d)" fill-rule="nonzero" d="M46.462 38.84c-.193-.001-.381-.064-.532-.179-3.18-2.41-7.708-2.41-10.888 0-.235.22-.582.295-.894.19-.311-.104-.532-.368-.566-.679-.035-.31.122-.612.403-.776 3.808-2.886 9.227-2.886 13.035 0 .288.218.396.584.27.911-.126.327-.46.542-.828.533zm3.35-3.448c.142-.168.208-.384.183-.599-.026-.214-.142-.41-.321-.545-5.36-4.064-12.99-4.064-18.35 0-.373.283-.433.797-.134 1.148.299.352.843.408 1.215.126 4.733-3.59 11.471-3.59 16.204 0 .179.135.407.198.634.173.227-.024.435-.133.577-.303h-.009zM37.728 41.81c1.62-1.232 3.928-1.232 5.548 0 .37.263.895.2 1.185-.141.29-.342.24-.84-.112-1.124-2.257-1.715-5.472-1.715-7.728 0-.25.177-.379.47-.335.763.044.292.254.54.547.644.293.105.623.05.86-.142h.035zm2.774 1.38c-.432 0-.82.245-.985.622-.164.377-.071.81.235 1.097.306.287.766.371 1.163.213.398-.158.655-.527.652-.935-.005-.552-.48-.998-1.065-.998z"/>
    </g>
</svg>
