<svg xmlns="http://www.w3.org/2000/svg" xmlns:xlink="http://www.w3.org/1999/xlink" width="249" height="268" viewBox="0 0 249 268">
    <defs>
        <path id="prefix__a" d="M0 224L248 224 248 0 0 0z"/>
        <path id="prefix__c" d="M0 224L248 224 248 0 0 0z"/>
        <path id="prefix__e" d="M0.635 0.487L5.513 0.487 5.513 6.006 0.635 6.006z"/>
        <path id="prefix__g" d="M0 0.242L4.878 0.242 4.878 5.763 0 5.763z"/>
    </defs>
    <g fill="none" fill-rule="evenodd" opacity=".709">
        <g opacity=".3" transform="translate(.5)">
            <path fill="#FFF" d="M107.031 121.233l35.185 19.62 34.602-19.62-34.602-20.395-35.185 20.395zm1.472-.012l33.71-19.54 33.152 19.54-33.152 18.797-33.71-18.797z"/>
            <path fill="#FFF" d="M107.031 160.506l35.185 19.62 34.602-19.62-34.602-20.395-35.185 20.395zm1.472-.013l33.71-19.54 33.152 19.54-33.152 18.798-33.71-18.798z"/>
            <path fill="#FFF" d="M106.909 200.031l35.185 19.62 34.602-19.62-34.602-20.395-35.185 20.395zm1.472-.012l33.71-19.54 33.152 19.54-33.152 18.797-33.71-18.797z"/>
            <mask id="prefix__b" fill="#fff">
                <use xlink:href="#prefix__a"/>
            </mask>
            <path fill="#FFF" d="M107.156 200.145L107.884 200.145 107.884 121.439 107.156 121.439zM175.636 200.16L176.364 200.16 176.364 121.455 175.636 121.455zM141.455 219.796L142.182 219.796 142.182 101.818 141.455 101.818z" mask="url(#prefix__b)"/>
            <path fill="#FFF" d="M175.395 121.233l35.184 19.62 34.603-19.62-34.603-20.395-35.184 20.395zm1.472-.012l33.71-19.54 33.151 19.54-33.152 18.797-33.71-18.797z" mask="url(#prefix__b)"/>
            <path fill="#FFF" d="M175.395 160.506l35.184 19.62 34.603-19.62-34.603-20.395-35.184 20.395zm1.472-.013l33.71-19.54 33.151 19.54-33.152 18.798-33.71-18.798z" mask="url(#prefix__b)"/>
            <path fill="#FFF" d="M175.273 200.031l35.185 19.62 34.602-19.62-34.602-20.395-35.185 20.395zm1.471-.012l33.71-19.54 33.153 19.54-33.152 18.797-33.71-18.797z" mask="url(#prefix__b)"/>
            <path fill="#FFF" d="M175.519 200.145L176.247 200.145 176.247 121.439 175.519 121.439zM244 200.16L244.727 200.16 244.727 121.455 244 121.455zM209.818 219.796L210.545 219.796 210.545 101.818 209.818 101.818z" mask="url(#prefix__b)"/>
        </g>
        <g opacity=".3" transform="translate(.5)">
            <path fill="#FFF" d="M3.758 23.051l35.186 19.62 34.601-19.62L38.944 2.656 3.758 23.051zm1.472-.012l33.71-19.54 33.152 19.54L38.94 41.836 5.23 23.039z"/>
            <path fill="#FFF" d="M3.758 62.324l35.186 19.62 34.601-19.62-34.601-20.395L3.758 62.324zm1.472-.012l33.71-19.54 33.152 19.54L38.94 81.109 5.23 62.312z"/>
            <path fill="#FFF" d="M3.637 101.85l35.184 19.619 34.602-19.62L38.82 81.454 3.637 101.85zm1.47-.013l33.711-19.54 33.152 19.54-33.152 18.797-33.71-18.797z"/>
            <mask id="prefix__d" fill="#fff">
                <use xlink:href="#prefix__c"/>
            </mask>
            <path fill="#FFF" d="M3.884 101.964L4.611 101.964 4.611 23.258 3.884 23.258zM72.364 101.978L73.091 101.978 73.091 23.272 72.364 23.272zM38.182 121.615L38.909 121.615 38.909 3.636 38.182 3.636z" mask="url(#prefix__d)"/>
            <path fill="#FFF" d="M72.122 23.051l35.185 19.62 34.602-19.62-34.602-20.395-35.185 20.395zm1.472-.012l33.71-19.54 33.151 19.54-33.15 18.797-33.711-18.797z" mask="url(#prefix__d)"/>
            <path fill="#FFF" d="M72.122 62.324l35.185 19.62 34.602-19.62-34.602-20.395-35.185 20.395zm1.472-.012l33.71-19.54 33.151 19.54-33.15 18.797-33.711-18.797z" mask="url(#prefix__d)"/>
            <path fill="#FFF" d="M72 101.85l35.185 19.619 34.602-19.62-34.602-20.395L72 101.85zm1.471-.013l33.71-19.54 33.153 19.54-33.152 18.797-33.71-18.797z" mask="url(#prefix__d)"/>
            <path fill="#FFF" d="M72.247 101.964L72.975 101.964 72.975 23.258 72.247 23.258zM140.727 101.978L141.455 101.978 141.455 23.272 140.727 23.272zM106.545 121.615L107.273 121.615 107.273 3.636 106.545 3.636z" mask="url(#prefix__d)"/>
        </g>
        <g>
            <path fill="#FFF" d="M42.13 17.73c-.075 0-.187.03-.32.107L5.557 38.692c-.447.258-.825.84-.825 1.269v22.093c0 .102.024.18.063.201.056.033.204.018.396-.093l36.253-20.855c.438-.256.824-.849.824-1.27V17.946c0-.102-.024-.178-.062-.2-.017-.01-.043-.016-.075-.016M4.867 63c-.158 0-.307-.037-.437-.112-.273-.157-.43-.46-.43-.834V39.961c0-.69.512-1.508 1.19-1.902l36.254-20.855c.41-.236.82-.268 1.128-.092.273.157.428.46.428.833v22.093c0 .677-.521 1.512-1.19 1.9L5.558 62.794c-.235.137-.473.206-.69.206" transform="translate(152.5 85)"/>
            <g>
                <path fill="#FFF" d="M12.837 25.434c-.199 0-.36-.162-.36-.36v-7.275c0-.052.014-1.261 1.221-1.954l8.316-4.798c.007-.005.86-.516.86-1.331V5.559c0-.2.161-.36.36-.36.198 0 .36.16.36.36v4.157c0 1.234-1.17 1.925-1.22 1.953l-8.317 4.8c-.837.48-.86 1.298-.86 1.332v7.273c0 .198-.161.36-.36.36M2.905 22.689c-.14 0-.283-.028-.416-.105-.186-.107-.408-.345-.408-.868v-4.157c0-.2.161-.36.36-.36.2 0 .36.16.36.36v4.157c0 .178.04.24.047.244.054.032.277-.017.45-.117l6.239-3.599c.17-.1.392-.04.492.132.1.172.04.392-.132.49l-6.24 3.6c-.08.048-.405.223-.752.223" transform="translate(152.5 85) translate(12 26)"/>
                <g transform="translate(152.5 85) translate(12 26) translate(20.16 .234)">
                    <mask id="prefix__f" fill="#fff">
                        <use xlink:href="#prefix__e"/>
                    </mask>
                    <path fill="#FFF" d="M4.112 1.206c-.247 0-.546.093-.855.272-1.032.593-1.902 1.952-1.902 2.968 0 .26.056.601.326.757.28.16.733.088 1.215-.19C3.924 4.42 4.793 3.06 4.793 2.044c0-.258-.057-.599-.328-.756-.098-.056-.218-.083-.353-.083m-2.08 4.8c-.261 0-.502-.059-.71-.18-.443-.256-.687-.745-.687-1.38 0-1.285.993-2.863 2.262-3.592C3.61.441 4.315.373 4.824.666c.444.255.689.746.689 1.379 0 1.285-.992 2.863-2.258 3.591-.424.246-.845.37-1.223.37" mask="url(#prefix__f)"/>
                </g>
                <path fill="#FFF" d="M13.876 7.438c-.247 0-.546.093-.857.274-1.032.59-1.902 1.948-1.902 2.965 0 .26.057.601.328.758.276.16.73.091 1.214-.188 1.027-.594 1.896-1.954 1.896-2.967 0-.26-.057-.602-.328-.759-.097-.056-.217-.083-.35-.083m-2.08 4.8c-.262 0-.504-.059-.713-.18-.443-.255-.687-.747-.687-1.38 0-1.287.994-2.864 2.262-3.589.713-.416 1.415-.485 1.926-.192.445.256.69.747.69 1.383 0 1.281-.991 2.859-2.256 3.59-.425.245-.845.369-1.222.369" transform="translate(152.5 85) translate(12 26)"/>
                <g transform="translate(152.5 85) translate(12 26) translate(0 12.474)">
                    <mask id="prefix__h" fill="#fff">
                        <use xlink:href="#prefix__g"/>
                    </mask>
                    <path fill="#FFF" d="M3.479.962c-.248 0-.547.093-.857.274C1.589 1.826.72 3.186.72 4.205c0 .257.057.598.327.754.277.16.731.09 1.214-.188 1.028-.594 1.897-1.954 1.897-2.967 0-.26-.057-.602-.329-.759C3.732.99 3.613.962 3.48.962m-2.08 4.8c-.262 0-.504-.059-.713-.18C.244 5.326 0 4.837 0 4.205 0 2.915.993 1.338 2.262.613 2.974.197 3.677.128 4.188.421c.445.256.69.747.69 1.383 0 1.281-.992 2.859-2.257 3.59-.425.245-.845.369-1.222.369" mask="url(#prefix__h)"/>
                </g>
                <path fill="#FFF" d="M12.837 15.037c-.199 0-.36-.161-.36-.36V11.56c0-.2.161-.36.36-.36.199 0 .36.16.36.36v3.117c0 .199-.161.36-.36.36" transform="translate(152.5 85) translate(12 26)"/>
            </g>
            <path fill="#FFF" d="M15.37 33c-.068 0-.137-.018-.198-.055-.173-.105-.224-.324-.114-.489l8.147-12.292c.097-.146.291-.203.457-.136l8.112 3.285c.188.076.276.284.196.464-.08.18-.296.264-.484.188l-7.824-3.168-7.98 12.039c-.07.106-.19.164-.312.164" transform="translate(152.5 85)"/>
            <path fill="#FFF" d="M44.619.726c-.537 0-1.166.193-1.824.571L4.57 23.257C2.454 24.475.73 27.168.73 29.26v38.061c0 .828.285 1.447.8 1.744.651.374 1.625.241 2.674-.363l38.224-21.96c2.117-1.216 3.84-3.91 3.84-6.004V2.674c0-.825-.284-1.444-.798-1.74-.242-.14-.531-.208-.852-.208M2.379 70c-.449 0-.86-.1-1.213-.304C.414 69.264 0 68.422 0 67.322V29.261c0-2.324 1.886-5.3 4.205-6.635L42.43.666c1.284-.737 2.527-.87 3.408-.362C46.587.735 47 1.577 47 2.674V40.74c0 2.327-1.886 5.303-4.205 6.635L4.57 69.334c-.769.442-1.522.666-2.193.666" transform="translate(152.5 85)"/>
            <path fill="#FFF" d="M3.37 32c-.128 0-.252-.063-.32-.174-.103-.167-.042-.38.135-.477l15.26-8.302c.177-.097.404-.04.505.127.103.167.042.38-.135.477l-15.26 8.302c-.059.032-.122.047-.185.047M4.4 27c-.138 0-.273-.07-.347-.193-.11-.186-.044-.422.147-.529l2.2-1.226c.191-.107.436-.044.547.142.11.185.044.422-.147.528l-2.2 1.226c-.063.036-.132.052-.2.052M8.4 25c-.138 0-.273-.07-.347-.193-.11-.186-.044-.422.147-.528l2.2-1.227c.19-.107.436-.043.547.142.11.185.044.421-.147.528l-2.2 1.226c-.063.036-.132.052-.2.052M40.4 7c-.138 0-.273-.07-.347-.193-.11-.186-.044-.422.147-.529l2.2-1.226c.191-.107.436-.044.547.142.11.185.044.42-.147.528l-2.2 1.226c-.063.036-.132.052-.2.052M28.37 18c-.128 0-.252-.067-.32-.186-.103-.177-.042-.405.135-.507l14.26-8.257c.178-.103.403-.042.505.136.103.177.042.405-.135.507l-14.26 8.257c-.058.034-.122.05-.185.05" transform="translate(152.5 85)"/>
        </g>
        <path fill="#FFF" d="M40.691 81.87l33.596 18.585 33.04-18.584-33.04-19.32-33.596 19.32zM74.29 102c-.121 0-.243-.03-.353-.091L38.87 82.512c-.227-.127-.37-.364-.371-.623-.002-.258.136-.498.361-.628l35.065-20.164c.227-.13.508-.129.732.003l34.485 20.164c.223.13.36.368.357.625-.002.257-.143.493-.368.62l-34.484 19.398c-.112.061-.235.093-.358.093z"/>
        <path fill="#FFF" d="M40.691 120.87l33.596 18.585 33.04-18.584-33.04-19.32-33.596 19.32zM74.29 141c-.121 0-.243-.03-.353-.091L38.87 121.51c-.227-.126-.37-.363-.371-.622-.002-.258.136-.499.361-.628l35.065-20.165c.227-.13.508-.128.732.003l34.485 20.165c.223.13.36.368.357.625-.002.256-.143.493-.368.62l-34.484 19.398c-.112.061-.235.093-.358.093z"/>
        <path fill="#FFF" d="M39 121c-.276 0-.5-.161-.5-.36V82.36c0-.2.224-.36.5-.36s.5.16.5.36v38.28c0 .199-.224.36-.5.36M108 121c-.276 0-.5-.161-.5-.36V82.36c0-.2.224-.36.5-.36s.5.16.5.36v38.28c0 .199-.224.36-.5.36M74 140c-.276 0-.5-.163-.5-.364V62.364c0-.202.224-.364.5-.364s.5.162.5.364v77.272c0 .201-.224.364-.5.364"/>
        <g fill="#E4A6E0">
            <path d="M25.155 0L0 43.577l25.155 14.66 25.206-14.659L25.155 0zM1.365 43.215L25.156 2l23.84 41.216-23.84 13.865L1.365 43.215z" transform="translate(23 181)"/>
            <path d="M0 43.23l25.206 43.577L50.361 43.23 25.207 28.57 0 43.23zm1.365.362l23.84-13.865 23.791 13.865-23.79 41.216-23.84-41.216z" transform="translate(23 181)"/>
            <path d="M24.838 85.07L25.339 85.07 25.339 1.833 24.838 1.833z" transform="translate(23 181)"/>
        </g>
    </g>
</svg>
