<svg xmlns="http://www.w3.org/2000/svg" xmlns:xlink="http://www.w3.org/1999/xlink" width="248" height="198" viewBox="0 0 248 198">
    <defs>
        <path id="prefix__a" d="M0.148 25.252L42.721 48.991 84.59 25.252 42.721 0.574z"/>
        <path id="prefix__c" d="M0.148 25.252L42.721 48.991 84.59 25.252 42.721 0.574z"/>
    </defs>
    <g fill="none" fill-rule="evenodd" opacity=".709">
        <g fill="#E4A6E0">
            <path d="M17.608 0L0 30.504l17.608 10.262 17.645-10.261L17.608 0zM.955 30.25L17.61 1.4l16.688 28.85-16.688 9.706L.955 30.251z" transform="translate(212)"/>
            <path d="M0 30.26l17.645 30.505L35.253 30.26 17.645 19.999 0 30.261zm.956.255l16.688-9.706 16.654 9.705-16.654 28.852L.956 30.515z" transform="translate(212)"/>
            <path d="M17.387 59.549L17.737 59.549 17.737 1.283 17.387 1.283z" transform="translate(212)"/>
        </g>
        <g>
            <g fill="#FFF" opacity=".3">
                <path d="M.148 25.252l42.573 23.74 41.869-23.74L42.72.574.148 25.252zm1.78-.015l40.79-23.644L82.83 25.237 42.718 47.981 1.928 25.237z" transform="translate(0 24) translate(0 6.16)"/>
                <path d="M.148 72.772l42.573 23.74 41.869-23.74L42.72 48.094.148 72.772zm1.78-.015l40.79-23.644L82.83 72.757 42.718 95.501 1.928 72.757z" transform="translate(0 24) translate(0 6.16)"/>
                <path d="M0 120.598l42.574 23.74 41.868-23.74L42.574 95.92 0 120.598zm1.78-.015l40.79-23.644 40.114 23.645-40.114 22.743-40.79-22.744z" transform="translate(0 24) translate(0 6.16)"/>
                <path d="M.299 120.736L1.179 120.736 1.179 25.502.299 25.502zM83.16 120.754L84.04 120.754 84.04 25.52 83.16 25.52zM41.8 144.514L42.68 144.514 42.68 1.76 41.8 1.76zM166.72 72.816l41.493 24.389.437-48.598-42.658-24.531.728 48.74zm.872-.508l-.697-46.697 40.87 23.503-.419 46.561-39.754-23.367z" transform="translate(0 24) translate(0 6.16)"/>
                <path d="M125.566 96.576l41.493 24.389.438-48.598-42.658-24.531.727 48.74zm.873-.508l-.698-46.697 40.871 23.503-.419 46.561-39.754-23.367z" transform="translate(0 24) translate(0 6.16)"/>
                <path d="M84.074 120.36l41.493 24.39.437-48.598-42.658-24.53.728 48.739zm.873-.508l-.698-46.697 40.871 23.503-.42 46.563-39.753-23.369z" transform="translate(0 24) translate(0 6.16)"/>
                <path d="M83.816 72.711L83.376 71.949 165.85 24.332 166.29 25.095zM125.231 144.48L124.791 143.718 207.266 96.101 207.706 96.863zM83.974 120.541L83.534 119.779 207.163 48.401 207.603 49.164z" transform="translate(0 24) translate(0 6.16)"/>
            </g>
            <g transform="translate(0 24) translate(41.36 77.44)">
                <mask id="prefix__b" fill="#fff">
                    <use xlink:href="#prefix__a"/>
                </mask>
                <path fill="#FFF" d="M1.928 25.237l40.79 22.744 40.114-22.744L42.718 1.593 1.928 25.237zm40.793 24.635c-.148 0-.295-.037-.428-.112L-.281 26.02c-.276-.154-.449-.444-.451-.761-.003-.316.165-.61.439-.768L42.28-.187c.275-.16.614-.159.888.003l41.869 24.678c.271.16.436.45.433.765-.003.314-.173.603-.446.758l-41.869 23.74c-.135.076-.284.115-.434.115z" mask="url(#prefix__b)"/>
            </g>
            <g transform="translate(0 24) translate(41.36 124.96)">
                <mask id="prefix__d" fill="#fff">
                    <use xlink:href="#prefix__c"/>
                </mask>
                <path fill="#FFF" d="M1.928 25.237l40.79 22.744 40.114-22.744L42.718 1.593 1.928 25.237zm40.793 24.635c-.148 0-.295-.037-.428-.112L-.281 26.02c-.276-.154-.449-.444-.451-.761-.003-.316.165-.61.439-.768L42.28-.187c.275-.16.614-.159.888.003l41.869 24.678c.271.16.436.45.433.765-.003.314-.173.603-.446.758l-41.869 23.74c-.135.076-.284.115-.434.115z" mask="url(#prefix__d)"/>
            </g>
            <g fill="#FFF">
                <path d="M.739 150.216c-.243 0-.44-.197-.44-.44v-46.833c0-.244.197-.44.44-.44s.44.196.44.44v46.833c0 .243-.197.44-.44.44M83.6 150.234c-.243 0-.44-.197-.44-.44V102.96c0-.244.197-.44.44-.44s.44.196.44.44v46.834c0 .243-.197.44-.44.44M42.24 173.114c-.243 0-.44-.197-.44-.44V79.2c0-.244.197-.44.44-.44s.44.196.44.44v93.474c0 .243-.197.44-.44.44M98.123 69.623c-.243 0-.44-.197-.44-.44v-3.305c-2.816.337-5.242-.287-7.043-1.823-2.045-1.745-3.125-4.535-3.125-8.068 0-6.796 4.039-15.205 10.29-21.424.171-.172.45-.17.622.002.171.173.17.45-.002.622-6.093 6.062-10.03 14.226-10.03 20.8 0 3.268.974 5.826 2.816 7.4 1.707 1.455 4.072 1.991 6.842 1.55.127-.021.257.016.356.1.098.084.154.206.154.335v3.81c0 .244-.197.44-.44.44M110.833 62.292c-.243 0-.44-.197-.44-.44v-3.81c0-.118.046-.23.13-.313 6.098-6.067 10.038-14.232 10.038-20.803 0-.244.197-.44.44-.44.244 0 .44.196.44.44 0 6.746-3.986 15.087-10.168 21.298v3.628c0 .243-.197.44-.44.44" transform="translate(0 24) translate(41.36)"/>
                <path d="M98.126 48.95c-.32 0-.615-.073-.87-.22-.543-.313-.841-.912-.841-1.685 0-1.572 1.212-3.5 2.759-4.39.876-.507 1.736-.594 2.36-.233.544.313.843.912.843 1.688 0 .243-.197.44-.44.44-.244 0-.44-.197-.44-.44 0-.317-.07-.735-.401-.926-.341-.195-.895-.108-1.482.233-1.258.724-2.32 2.384-2.32 3.628 0 .315.07.731.401.922.339.196.892.11 1.478-.229l11.44-6.6c.21-.123.48-.05.602.16.121.21.049.48-.162.601l-11.44 6.6c-.516.3-1.027.451-1.487.451" transform="translate(0 24) translate(41.36)"/>
                <path d="M104.478 65.957c-.243 0-.44-.198-.44-.44V45.184c0-.243.197-.44.44-.44s.44.197.44.44v20.333c0 .242-.197.44-.44.44M126.075.89c-2.213 0-4.759.776-7.398 2.299-8.288 4.784-15.03 15.402-15.03 23.67 0 3.5 1.242 6.148 3.497 7.45 2.764 1.596 6.806 1.092 11.093-1.381 8.288-4.786 15.03-15.404 15.03-23.67 0-3.502-1.242-6.148-3.497-7.45-1.062-.615-2.314-.918-3.695-.918m-15.24 35.213c-1.536 0-2.935-.342-4.131-1.032-2.539-1.467-3.937-4.383-3.937-8.213 0-8.547 6.94-19.507 15.47-24.431 4.568-2.635 8.931-3.138 11.974-1.383 2.538 1.467 3.937 4.384 3.937 8.214 0 8.547-6.94 19.506-15.47 24.432-2.774 1.599-5.472 2.413-7.843 2.413" transform="translate(0 24) translate(41.36)"/>
                <path d="M114.644 25.783c-.057 0-.115-.011-.172-.035l-5.082-2.155c-.118-.051-.209-.152-.248-.275-.038-.123-.02-.257.049-.366l5.082-8.012c.13-.207.402-.267.607-.137.205.13.266.402.135.607l-4.804 7.575 4.605 1.953c.224.094.328.353.233.577-.071.168-.234.268-.405.268M122.269 21.38c-.081 0-.162-.021-.235-.068-.205-.13-.267-.402-.136-.607l4.804-7.574-4.605-1.953c-.223-.095-.328-.354-.233-.577.095-.224.353-.328.577-.233l5.082 2.156c.12.05.21.15.249.273.037.124.02.258-.049.367l-5.082 8.013c-.083.132-.226.204-.372.204" transform="translate(0 24) translate(41.36)"/>
                <path d="M77.792 84.486c-.564 0-1.08-.127-1.524-.384-.943-.544-1.461-1.606-1.461-2.992V32.816c0-2.94 2.38-6.706 5.306-8.394L106.8 9.027c.21-.122.48-.05.601.16.122.211.05.48-.16.602L80.552 25.185c-2.683 1.547-4.866 4.97-4.866 7.63V81.11c0 1.058.363 1.85 1.02 2.231.83.479 2.071.31 3.406-.46l48.29-27.86c2.682-1.547 4.862-4.972 4.862-7.637V21.966c0-.243.197-.44.44-.44s.44.197.44.44v25.418c0 2.945-2.378 6.712-5.302 8.398l-48.29 27.86c-.968.56-1.918.844-2.761.844" transform="translate(0 24) translate(41.36)"/>
                <path d="M79.062 36.145c-.152 0-.3-.079-.382-.22-.121-.21-.05-.48.162-.6l20.332-11.736c.21-.121.478-.049.602.161.121.21.049.48-.162.602L79.282 36.086c-.07.04-.145.06-.22.06M80.332 30.327c-.152 0-.3-.08-.382-.22-.121-.211-.048-.48.162-.601l2.543-1.465c.21-.122.48-.05.6.16.122.212.05.48-.16.602l-2.544 1.465c-.07.04-.145.059-.219.059M85.415 27.393c-.152 0-.3-.08-.381-.22-.122-.212-.049-.48.161-.601l2.544-1.466c.21-.121.48-.048.6.161.122.212.05.48-.161.601l-2.543 1.466c-.07.04-.146.059-.22.059M80.333 45.576c-.243 0-.44-.197-.44-.44v-5.082c0-.158.084-.303.22-.381l5.082-2.935c.21-.123.479-.05.601.16.122.211.05.48-.16.602l-4.863 2.808v4.828c0 .243-.197.44-.44.44M123.542 53.69c-.153 0-.3-.08-.382-.22-.122-.21-.049-.48.162-.602l4.86-2.803v-4.828c0-.244.198-.44.44-.44.244 0 .44.196.44.44v5.082c0 .158-.083.303-.22.381l-5.08 2.93c-.07.04-.146.06-.22.06" transform="translate(0 24) translate(41.36)"/>
            </g>
        </g>
    </g>
</svg>
