<svg xmlns="http://www.w3.org/2000/svg" width="197" height="61" viewBox="0 0 197 61">
    <defs>
        <linearGradient id="prefix__a" x1="136.739%" x2="0%" y1="61.221%" y2="41.739%">
            <stop offset="0%" stop-color="#0C9EE2"/>
            <stop offset="100%" stop-color="#00D0D3"/>
        </linearGradient>
        <linearGradient id="prefix__b" x1="136.713%" x2=".015%" y1="117.913%" y2="0%">
            <stop offset="0%" stop-color="#0C9EE2"/>
            <stop offset="100%" stop-color="#00D0D3"/>
        </linearGradient>
    </defs>
    <g fill="none">
        <path fill="url(#prefix__a)" d="M114.41 13.614v-1.819h-1.064c-.664 0-1.15-.149-1.459-.446-.309-.298-.463-.618-.463-.961 0-.389.114-.68.343-.875.229-.195.515-.292.858-.292.412 0 .824.057 1.236.172l.308-1.716c-.251-.069-.532-.126-.84-.172-.31-.046-.601-.069-.876-.069-1.03 0-1.796.252-2.299.755-.503.504-.755 1.087-.755 1.75 0 .39.08.733.24 1.03.16.298.332.572.515.824h-1.544v1.819h5.8zm-.79 27.456V16.497h-3.878V41.07h3.878zm-8.717 0v-7.55c0-1.396-.2-2.551-.6-3.467-.401-.915-.927-1.636-1.58-2.162-.651-.526-1.412-.892-2.282-1.098-.869-.206-1.761-.309-2.677-.309h-.343l5.251-8.065-3.226-2.162-6.658 10.57v3.467h4.153c.549 0 1.07.028 1.561.085.492.058.921.206 1.287.447.366.24.658.594.876 1.063.217.47.326 1.116.326 1.94v3.26H90.42c-.32 0-.555.114-.704.343-.148.229-.223.47-.223.72v2.026c0 .229.069.434.206.617.138.184.378.275.721.275h14.483zm-14.311 0c.32 0 .56-.114.72-.343.16-.229.24-.435.24-.618v-2.093c0-.252-.068-.47-.205-.653-.138-.183-.39-.274-.755-.274h-2.334V16.497h-3.913V41.07h6.247zm-11.12 0v-7.756c0-1.51-.2-2.734-.6-3.673-.401-.938-.939-1.67-1.614-2.196-.675-.526-1.453-.88-2.333-1.064-.881-.183-1.79-.274-2.729-.274h-4.118v3.809h3.329c.64 0 1.218.046 1.733.137.515.092.95.275 1.304.55.355.274.624.652.807 1.132.183.48.274 1.11.274 1.888v3.466h-9.37v3.981h13.317zm-17.194 0V27.41h-3.913v9.679h-4.702c-.297 0-.52.114-.669.343-.149.229-.223.47-.223.72v2.026c0 .229.069.434.206.617.137.184.366.275.686.275h8.615zm-6.281 6.315c.595 0 1.087-.189 1.476-.566.389-.378.583-.853.583-1.425 0-.549-.194-1.012-.583-1.39-.39-.377-.881-.566-1.476-.566s-1.087.189-1.476.566c-.389.378-.583.841-.583 1.39 0 .572.194 1.047.583 1.425.39.377.881.566 1.476.566zm5.32 0c.595 0 1.086-.189 1.475-.566.39-.378.584-.853.584-1.425 0-.549-.195-1.012-.584-1.39-.389-.377-.88-.566-1.475-.566-.595 0-1.087.189-1.476.566-.39.378-.584.841-.584 1.39 0 .572.195 1.047.584 1.425.389.377.88.566 1.476.566zm-18.74-6.143c.55 0 1.088-.023 1.614-.069.526-.046 1.03-.154 1.51-.326.48-.172.95-.44 1.407-.807.458-.366.892-.869 1.304-1.51.344.733.875 1.339 1.596 1.82.72.48 1.562.72 2.523.72h1.338c.32 0 .56-.114.72-.343.161-.229.241-.435.241-.618v-2.093c0-.252-.074-.47-.223-.653-.149-.183-.395-.274-.738-.274h-1.235c-.687 0-1.23-.103-1.63-.309-.4-.206-.704-.452-.91-.738-.206-.286-.337-.589-.395-.91-.057-.32-.085-.583-.085-.789 0-2.562-.59-4.553-1.768-5.971-1.178-1.419-2.877-2.128-5.096-2.128-1.007 0-1.945.194-2.815.583-.87.39-1.618.921-2.248 1.596-.629.675-1.12 1.476-1.475 2.403-.355.926-.532 1.939-.532 3.037 0 .663-.058 1.207-.172 1.63-.114.423-.269.755-.463.995-.195.24-.418.4-.67.48-.251.08-.503.12-.755.12h-1.338c-.32 0-.555.115-.704.344-.148.229-.223.47-.223.72v2.026c0 .229.069.434.206.617.137.184.378.275.72.275h1.545c.755 0 1.43-.217 2.025-.652.595-.435 1.053-.984 1.373-1.647.55.732 1.253 1.327 2.11 1.784.859.458 1.94.687 3.244.687zm.138-3.947c-1.098 0-1.905-.326-2.42-.978-.514-.652-.772-1.459-.772-2.42 0-.595.086-1.132.258-1.613.171-.48.4-.892.686-1.235.286-.344.624-.607 1.013-.79.389-.183.8-.274 1.235-.274.412 0 .812.091 1.201.274.39.183.727.446 1.013.79.286.343.52.755.703 1.235.183.48.275 1.018.275 1.613 0 .961-.257 1.768-.772 2.42-.515.652-1.322.978-2.42.978zm-32.123 11.12c2.036 0 3.798-.264 5.285-.79s2.711-1.235 3.672-2.128c.961-.892 1.67-1.939 2.128-3.14.458-1.201.686-2.488.686-3.861v-7.241h.31c.617 0 1.16.04 1.63.12.469.08.858.246 1.166.497.31.252.538.612.687 1.081.149.47.223 1.093.223 1.87v6.247h6.109c.32 0 .555-.114.703-.343.15-.229.223-.435.223-.618v-2.093c0-.252-.074-.47-.223-.653-.148-.183-.383-.274-.703-.274H30.29v-2.643c0-2.356-.572-4.118-1.716-5.285-1.144-1.167-2.928-1.75-5.354-1.75h-4.77v11.874c0 .801-.183 1.516-.55 2.145-.365.63-.886 1.156-1.56 1.58-.676.422-1.47.743-2.386.96-.915.217-1.922.326-3.02.326S8.859 44.165 8 43.901c-.858-.263-1.58-.623-2.163-1.08-.583-.458-1.024-1.002-1.321-1.63-.297-.63-.446-1.322-.446-2.077 0-.618.12-1.299.36-2.042.24-.744.624-1.505 1.15-2.283l-3.226-1.887c-.664.96-1.207 1.968-1.63 3.02C.3 36.975.09 38.119.09 39.354c0 1.075.2 2.15.6 3.226.4 1.075 1.024 2.042 1.87 2.9.847.858 1.934 1.562 3.261 2.11 1.327.55 2.917.825 4.77.825zm-2.368 5.49c.594 0 1.086-.188 1.475-.566.39-.377.584-.852.584-1.424 0-.549-.195-1.012-.584-1.39-.389-.377-.88-.566-1.475-.566-.595 0-1.087.189-1.476.566-.39.378-.584.841-.584 1.39 0 .572.195 1.047.584 1.424.389.378.88.567 1.476.567zm5.32 0c.594 0 1.086-.188 1.475-.566.389-.377.583-.852.583-1.424 0-.549-.194-1.012-.583-1.39-.389-.377-.88-.566-1.476-.566-.595 0-1.087.189-1.476.566-.389.378-.583.841-.583 1.39 0 .572.194 1.047.583 1.424.39.378.881.567 1.476.567z"/>
        <path fill="url(#prefix__b)" d="M176.347 4.824l16.472 16.472c5.111 5.123 5.111 13.416 0 18.539l-16.477 16.47c-2.456 2.459-5.79 3.839-9.264 3.834-3.477.007-6.812-1.373-9.27-3.832l-16.471-16.472c-5.1-5.128-5.1-13.411 0-18.539l16.472-16.472c5.122-5.112 13.416-5.112 18.538 0zm-9.269-2.576c-3.143-.005-6.158 1.242-8.378 3.465l-16.471 16.472c-4.608 4.636-4.608 12.123 0 16.759l16.47 16.472c4.633 4.617 12.127 4.617 16.759 0l16.47-16.475c4.618-4.632 4.618-12.126 0-16.758L175.457 5.71c-2.22-2.222-5.236-3.468-8.378-3.462zm7.63 11.52c1.179-.288 1.62-.041 1.62.817-.049.795-.042 1.592.02 2.385.125.848-.413 1.229-1.448 1.462-2.345.485-4.573 1.427-6.555 2.771-2.29 1.56-3.872 3.96-4.404 6.678-.122.546.211.858 1 .858 1.279.007 2.566-.007 3.853-.007.674.038 1.293-.368 1.527-1.001.368-.825.889-1.573 1.536-2.204.95-.804 2.139-1.272 3.382-1.33.688-.062 1.111.032 1.081.633-.069 1.352-.079 2.707-.111 4.06-.042 2.96.336 5.942-1.237 8.802-2.271 4.133-6.544 6.856-12.088 8.67-1.199.394-2.458.694-3.698 1.02-.82.215-1.296.037-1.264-.632v-.177c.017-1.06-.39-2.278.174-3.138.564-.86 2.441-.95 3.718-1.408 4.802-1.726 7.49-4.508 8.271-8.254.099-.47.288-1.001-.266-1.43-1.485-.105-2.975-.127-4.463-.066-.596-.073-1.154.304-1.31.884-.224.902-.624 1.751-1.175 2.5-1.067 1.206-2.59 1.91-4.2 1.943-.412.033-.734.074-.734-.343.065-3.974-.337-8.001.647-11.904 1.285-5.105 6.092-8.418 12.548-10.575 1.163-.386 2.364-.718 3.575-1.014z"/>
    </g>
</svg>
