<svg xmlns="http://www.w3.org/2000/svg" width="26" height="22" viewBox="0 0 26 22">
    <path fill="#FFF" d="M20.738 3.453c-6.098-.898-12.3-.898-18.398 0H2.31c-.822.159-1.468.776-1.646 1.571C.235 7.244.013 9.498 0 11.757c0 2.363.233 4.72.693 7.041.163.783.786 1.4 1.589 1.571 2.198.42 4.432.637 6.672.645 2.41.002 4.813-.26 7.163-.782.186-.056.389-.025.548.084l3.003 1.459c.19.095.395.16.606.196h.029c.094.023.191.032.288.028 1.003-.002 1.852-.72 1.993-1.684.338-2.38.502-4.78.492-7.183.015-2.717-.207-5.429-.665-8.109-.152-.818-.826-1.45-1.673-1.57zm.722 16.692c-.02.222-.15.42-.346.533-.173.129-.39.189-.606.169-.116-.028-.203-.028-.26-.084l-.029-.028-3.033-1.459c-.277-.14-.583-.216-.895-.225-.147.005-.292.024-.434.057-2.262.52-4.578.783-6.903.782-2.165-.009-4.323-.225-6.444-.645-.346-.065-.613-.335-.664-.674-.46-2.245-.693-4.528-.693-6.817.012-2.185.234-4.364.664-6.509.067-.351.357-.622.722-.673 5.983-.884 12.069-.884 18.052 0 .37.041.664.317.722.673.458 2.604.68 5.242.664 7.884-.011 2.347-.184 4.691-.517 7.016zm4.535-9.82c.047 3.052-.243 6.1-.866 9.09-.056.254-.282.439-.549.45h-.115c-.153-.028-.288-.116-.37-.245-.082-.128-.106-.284-.064-.43.625-2.914.915-5.887.866-8.864.016-2.642-.207-5.28-.664-7.884-.068-.351-.358-.622-.722-.673-6.313-.94-12.74-.883-19.035.168-.31.054-.608-.147-.664-.449-.056-.302.151-.59.462-.645C10.682-.222 17.225-.278 23.652.675c.85.127 1.53.754 1.704 1.572.435 2.672.649 5.373.64 8.079zm-7.798 3.115c-.001.31-.26.56-.578.561H8.376c-.319 0-.577-.25-.577-.56 0-.31.258-.562.577-.562h9.243c.319 0 .577.252.578.561zm0-4.208c-.001.31-.26.56-.578.561H5.488c-.32 0-.578-.251-.578-.561 0-.31.258-.561.578-.561h12.13c.32 0 .578.251.579.56z"/>
</svg>
