<svg xmlns="http://www.w3.org/2000/svg" width="24" height="20" viewBox="0 0 24 20">
    <defs>
        <linearGradient id="prefix__a" x1="100%" x2="0%" y1="85.799%" y2="14.201%">
            <stop offset="0%" stop-color="#0C9EE2"/>
            <stop offset="100%" stop-color="#00D0D3"/>
        </linearGradient>
    </defs>
    <path fill="url(#prefix__a)" d="M32.938 19.234c-5.467-.805-11.028-.805-16.496 0h-.025c-.737.142-1.317.695-1.476 1.408-.385 1.99-.584 4.011-.596 6.036 0 2.12.208 4.233.622 6.313.145.703.703 1.255 1.424 1.41 1.97.376 3.973.57 5.982.577 2.16.002 4.315-.233 6.422-.701.167-.05.348-.022.491.075l2.692 1.308c.17.085.354.144.544.176h.025c.085.02.172.03.259.025.899-.002 1.66-.645 1.787-1.51.302-2.133.45-4.286.44-6.44.014-2.435-.185-4.867-.595-7.27-.137-.733-.74-1.3-1.5-1.407zm.647 14.965c-.019.199-.134.376-.31.478-.155.115-.35.17-.544.151-.104-.025-.181-.025-.233-.075l-.026-.025-2.719-1.308c-.248-.125-.523-.194-.803-.202-.13.005-.261.022-.389.05-2.027.468-4.104.704-6.188.702-1.941-.008-3.876-.201-5.778-.578-.31-.058-.55-.3-.595-.604-.413-2.013-.622-4.06-.622-6.112.01-1.959.21-3.913.596-5.835.06-.316.32-.558.647-.604 5.364-.793 10.82-.793 16.185 0 .33.037.595.284.647.604.41 2.334.61 4.7.596 7.068-.01 2.104-.166 4.206-.464 6.29zm4.066-8.804c.042 2.736-.219 5.468-.777 8.15-.05.227-.252.393-.492.402h-.103c-.138-.024-.258-.103-.332-.218-.074-.115-.094-.255-.057-.386.56-2.613.82-5.278.776-7.948.014-2.368-.185-4.733-.595-7.068-.06-.315-.321-.557-.648-.603-5.66-.843-11.422-.792-17.065.15-.279.05-.545-.13-.595-.402-.05-.27.135-.53.414-.578 5.745-.955 11.611-1.006 17.373-.15.762.113 1.371.675 1.528 1.408.39 2.396.581 4.818.573 7.243zm-6.992 2.793c0 .277-.232.502-.518.503h-8.286c-.286 0-.518-.225-.518-.503s.232-.503.518-.503h8.286c.286 0 .517.225.518.503zm0-3.773c0 .277-.232.502-.518.503H19.265c-.286 0-.518-.225-.518-.503s.232-.503.518-.503H30.14c.286 0 .517.225.518.503z" transform="translate(-14 -16)"/>
</svg>
