<svg xmlns="http://www.w3.org/2000/svg" width="18" height="24" viewBox="0 0 18 24">
    <path fill="#FFF" d="M8.65 0c4.64 0 8.416 3.835 8.416 8.548v6.833c0 4.699-3.776 8.522-8.416 8.522-4.64 0-8.416-3.835-8.416-8.548V8.548C.234 3.835 4.009 0 8.65 0zm0 1.583c-3.768 0-6.833 3.124-6.833 6.965v6.807c0 3.84 3.065 6.965 6.833 6.965 3.768 0 6.833-3.113 6.833-6.939V8.548c0-3.84-3.065-6.965-6.833-6.965zm0 4.96c.437 0 .791.354.791.791v2.77c0 .438-.354.792-.791.792-.437 0-.791-.354-.791-.791v-2.77c0-.438.354-.792.791-.792z"/>
</svg>
