<?xml version="1.0" encoding="UTF-8"?>
<svg width="1366px" height="358px" viewBox="0 0 1366 358" version="1.1" xmlns="http://www.w3.org/2000/svg" xmlns:xlink="http://www.w3.org/1999/xlink">
    <title>Group 24</title>
    <defs>
        <rect id="path-1" x="0" y="0" width="1366" height="358"></rect>
    </defs>
    <g id="Page-1" stroke="none" stroke-width="1" fill="none" fill-rule="evenodd">
        <g id="Intro" transform="translate(0.000000, -1.000000)">
            <g id="header_bg">
                <g id="Group-24" transform="translate(0.000000, 1.000000)">
                    <mask id="mask-2" fill="white">
                        <use xlink:href="#path-1"></use>
                    </mask>
                    <g id="Rectangle"></g>
                    <g id="Group-4" opacity="0.37327939" mask="url(#mask-2)">
                        <g transform="translate(-448.000000, -823.000000)" opacity="0.667829241">
                            <g id="Group-350" style="mix-blend-mode: overlay;" transform="translate(649.150000, 645.500071) scale(1, -1) translate(-649.150000, -645.500071) translate(0.650000, 3.000071)">
                                <g id="Group-349">
                                    <polygon id="Stroke-11" stroke="#FFFFFF" stroke-width="0.650000036" points="465.915569 323.118835 370.796316 528.183487 379.519029 583.566457 555.71876 539.185549"></polygon>
                                    <path d="M694.131208,272.648435 L762.751338,366.922198 L694.131208,272.648435 Z" id="Stroke-15" stroke="#FFFFFF" stroke-width="0.650000036"></path>
                                    <polygon id="Stroke-17" stroke="#FFFFFF" stroke-width="0.650000036" points="1055.33082 383.514324 950.858111 383.514324 887.833507 528.184578 1054.61265 615.352843"></polygon>
                                    <polygon id="Stroke-23" stroke="#FFFFFF" stroke-width="0.650000036" points="797.741016 337.809145 870.126884 374.870938 1033.19961 290.919405 861.596206 234.502652"></polygon>
                                    <line x1="465.915569" y1="323.118835" x2="587.237308" y2="478.81454" id="Stroke-55" stroke="#FFFFFF" stroke-width="0.650000036"></line>
                                    <line x1="606.510646" y1="272.648435" x2="465.915257" y2="323.118211" id="Stroke-57" stroke="#FFFFFF" stroke-width="0.650000036"></line>
                                    <line x1="762.750869" y1="366.922977" x2="555.71798" y2="539.185705" id="Stroke-59" stroke="#FFFFFF" stroke-width="0.650000036"></line>
                                    <line x1="816.720058" y1="488.81229" x2="762.750713" y2="366.922665" id="Stroke-61" stroke="#FFFFFF" stroke-width="0.650000036"></line>
                                    <line x1="816.720058" y1="488.81229" x2="821.236759" y2="395.444451" id="Stroke-69" stroke="#FFFFFF" stroke-width="0.650000036"></line>
                                    <line x1="950.858892" y1="383.514324" x2="821.235979" y2="395.444139" id="Stroke-71" stroke="#FFFFFF" stroke-width="0.650000036"></line>
                                    <line x1="757.889444" y1="370.245893" x2="797.740391" y2="337.808833" id="Stroke-73" stroke="#FFFFFF" stroke-width="0.650000036"></line>
                                    <line x1="870.127353" y1="374.870626" x2="821.236759" y2="395.444919" id="Stroke-75" stroke="#FFFFFF" stroke-width="0.650000036"></line>
                                    <line x1="762.750869" y1="366.922977" x2="821.235354" y2="395.444763" id="Stroke-77" stroke="#FFFFFF" stroke-width="0.650000036"></line>
                                    <line x1="870.127353" y1="374.870626" x2="950.858111" y2="383.513544" id="Stroke-79" stroke="#FFFFFF" stroke-width="0.650000036"></line>
                                    <line x1="1033.19961" y1="290.919716" x2="950.859204" y2="383.514168" id="Stroke-81" stroke="#FFFFFF" stroke-width="0.650000036"></line>
                                    <line x1="1055.33082" y1="383.514324" x2="1033.20008" y2="290.919872" id="Stroke-83" stroke="#FFFFFF" stroke-width="0.650000036"></line>
                                    <line x1="821.236135" y1="395.444607" x2="887.834444" y2="528.183487" id="Stroke-85" stroke="#FFFFFF" stroke-width="0.650000036"></line>
                                    <line x1="821.236135" y1="395.444607" x2="797.740859" y2="337.808521" id="Stroke-99" stroke="#FFFFFF" stroke-width="0.650000036"></line>
                                    <line x1="730.796265" y1="203.784508" x2="797.741172" y2="337.809769" id="Stroke-101" stroke="#FFFFFF" stroke-width="0.650000036"></line>
                                    <line x1="694.130583" y1="272.648435" x2="730.796577" y2="203.784196" id="Stroke-103" stroke="#FFFFFF" stroke-width="0.650000036"></line>
                                    <line x1="797.741016" y1="337.809145" x2="694.130115" y2="272.648123" id="Stroke-105" stroke="#FFFFFF" stroke-width="0.650000036"></line>
                                    <line x1="861.59683" y1="234.502496" x2="730.796733" y2="203.785288" id="Stroke-107" stroke="#FFFFFF" stroke-width="0.650000036"></line>
                                    <line x1="730.796265" y1="203.784508" x2="606.511271" y2="272.648747" id="Stroke-109" stroke="#FFFFFF" stroke-width="0.650000036"></line>
                                    <line x1="465.915569" y1="323.118835" x2="393.909084" y2="314.173423" id="Stroke-191" stroke="#FFFFFF" stroke-width="0.650000036"></line>
                                    <line x1="458.078867" y1="286.485212" x2="465.91635" y2="323.118211" id="Stroke-193" stroke="#FFFFFF" stroke-width="0.650000036"></line>
                                    <line x1="606.510646" y1="272.648435" x2="458.079335" y2="286.485212" id="Stroke-195" stroke="#FFFFFF" stroke-width="0.650000036"></line>
                                    <line x1="393.909709" y1="314.173735" x2="458.078711" y2="286.484588" id="Stroke-197" stroke="#FFFFFF" stroke-width="0.650000036"></line>
                                    <path d="M470.781522,322.206362 C471.285806,324.88983 469.516908,327.475065 466.829994,327.978703 C464.14308,328.48234 461.554525,326.715711 461.050241,324.030684 C460.544395,321.347216 462.314854,318.76354 465.001768,318.259903 C467.690244,317.754706 470.277238,319.522895 470.781522,322.206362" id="Fill-229" fill="#FFFFFF"></path>
                                    <path d="M462.9456,285.572739 C463.449884,288.256207 461.679425,290.841442 458.992511,291.34508 C456.305597,291.848717 453.717042,290.082088 453.212758,287.397061 C452.708473,284.713593 454.478933,282.129917 457.165847,281.62628 C459.852761,281.121083 462.441316,282.889271 462.9456,285.572739" id="Fill-231" fill="#FFFFFF"></path>
                                    <path d="M698.996536,271.735962 C699.500821,274.41943 697.731923,277.004665 695.043447,277.508303 C692.356533,278.01194 689.769539,276.245311 689.265255,273.560284 C688.75941,270.876816 690.529869,268.29314 693.216783,267.789503 C695.905258,267.284306 698.492252,269.052495 698.996536,271.735962" id="Fill-251" fill="#FFFFFF"></path>
                                    <path d="M735.662218,202.872036 C736.166502,205.555503 734.397604,208.140738 731.709129,208.644376 C729.022215,209.148013 726.435221,207.381384 725.930936,204.696357 C725.425091,202.012889 727.19555,199.429213 729.882464,198.924017 C732.570939,198.420379 735.157933,200.188568 735.662218,202.872036" id="Fill-253" fill="#FFFFFF"></path>
                                    <path d="M611.37738,271.735962 C611.881664,274.41943 610.111205,277.004665 607.424291,277.508303 C604.737377,278.01194 602.148822,276.245311 601.644537,273.560284 C601.140253,270.876816 602.910712,268.29314 605.597626,267.789503 C608.28454,267.284306 610.873095,269.052495 611.37738,271.735962" id="Fill-255" fill="#FFFFFF"></path>
                                    <path d="M802.606968,336.896672 C803.111253,339.58014 801.342355,342.165375 798.653879,342.669013 C795.966965,343.17265 793.379972,341.406021 792.875687,338.720994 C792.369842,336.037526 794.140301,333.45385 796.827215,332.950213 C799.51569,332.445016 802.102684,334.213205 802.606968,336.896672" id="Fill-257" fill="#FFFFFF"></path>
                                    <path d="M866.462783,233.590023 C866.967067,236.273491 865.198169,238.858726 862.511255,239.362364 C859.82278,239.866001 857.235786,238.099372 856.731502,235.414345 C856.225656,232.730877 857.996116,230.147201 860.68303,229.643564 C863.371505,229.138367 865.958499,230.906556 866.462783,233.590023" id="Fill-259" fill="#FFFFFF"></path>
                                    <path d="M826.782793,393.25277 C827.287077,395.936238 825.518179,398.521473 822.831265,399.025111 C820.14279,399.528748 817.555796,397.762119 817.051512,395.077092 C816.545667,392.393624 818.316126,389.809948 821.00304,389.306311 C823.691515,388.801114 826.278509,390.569302 826.782793,393.25277" id="Fill-261" fill="#FFFFFF"></path>
                                    <path d="M767.616822,366.010349 C768.121107,368.693817 766.352209,371.279052 763.663733,371.782689 C760.976819,372.286327 758.389825,370.519697 757.885541,367.83467 C757.379696,365.151202 759.150155,362.567527 761.837069,362.06233 C764.525544,361.558692 767.112538,363.326881 767.616822,366.010349" id="Fill-273" fill="#FFFFFF"></path>
                                    <path d="M874.993306,373.958154 C875.49759,376.641621 873.728692,379.226856 871.040217,379.730494 C868.353303,380.234131 865.766309,378.467502 865.262024,375.782475 C864.756179,373.099007 866.526638,370.515331 869.213552,370.011694 C871.902027,369.506497 874.489021,371.274686 874.993306,373.958154" id="Fill-275" fill="#FFFFFF"></path>
                                    <path d="M955.724845,382.601851 C956.229129,385.285319 954.460231,387.870554 951.771756,388.374192 C949.084842,388.877829 946.496286,387.1112 945.993563,384.426173 C945.487718,381.742705 947.258177,379.159029 949.945091,378.655392 C952.633566,378.150195 955.22056,379.918383 955.724845,382.601851" id="Fill-277" fill="#FFFFFF"></path>
                                    <path d="M1038.06635,290.007244 C1038.57063,292.690712 1036.80017,295.275947 1034.11326,295.779584 C1031.42634,296.283222 1028.83779,294.516592 1028.3335,291.831565 C1027.82922,289.148098 1029.59968,286.564422 1032.28659,286.060784 C1034.97351,285.555588 1037.56206,287.323776 1038.06635,290.007244" id="Fill-279" fill="#FFFFFF"></path>
                                    <path d="M1060.19756,382.601851 C1060.70184,385.285319 1058.93138,387.870554 1056.24447,388.374192 C1053.55755,388.877829 1050.969,387.1112 1050.46471,384.426173 C1049.96043,381.742705 1051.73089,379.159029 1054.4178,378.655392 C1057.10472,378.150195 1059.69327,379.918383 1060.19756,382.601851" id="Fill-281" fill="#FFFFFF"></path>
                                    <line x1="694.35" y1="273.000071" x2="606.35" y2="273.000071" id="Path-2" stroke="#FFFFFF" stroke-width="0.650000036"></line>
                                </g>
                            </g>
                            <g id="Group-350-Copy" style="mix-blend-mode: overlay;" transform="translate(1611.650123, 642.900071) scale(-1, -1) translate(-1611.650123, -642.900071) translate(963.150123, 0.400071)">
                                <g id="Group-349">
                                    <polygon id="Stroke-11" stroke="#FFFFFF" stroke-width="0.650000036" points="465.915569 323.118835 370.796316 528.183487 379.519029 583.566457 555.71876 539.185549"></polygon>
                                    <polygon id="Stroke-15" stroke="#FFFFFF" stroke-width="0.650000036" points="606.510646 272.648435 694.131208 272.648435 762.751338 366.922198 587.236995 478.813917"></polygon>
                                    <polygon id="Stroke-17" stroke="#FFFFFF" stroke-width="0.650000036" points="1055.33082 383.514324 950.858111 383.514324 887.833507 528.184578 1054.61265 615.352843"></polygon>
                                    <polygon id="Stroke-23" stroke="#FFFFFF" stroke-width="0.650000036" points="797.741016 337.809145 870.126884 374.870938 1033.19961 290.919405 861.596206 234.502652"></polygon>
                                    <line x1="465.915569" y1="323.118835" x2="587.237308" y2="478.81454" id="Stroke-55" stroke="#FFFFFF" stroke-width="0.650000036"></line>
                                    <line x1="606.510646" y1="272.648435" x2="465.915257" y2="323.118211" id="Stroke-57" stroke="#FFFFFF" stroke-width="0.650000036"></line>
                                    <line x1="762.750869" y1="366.922977" x2="555.71798" y2="539.185705" id="Stroke-59" stroke="#FFFFFF" stroke-width="0.650000036"></line>
                                    <line x1="816.720058" y1="488.81229" x2="762.750713" y2="366.922665" id="Stroke-61" stroke="#FFFFFF" stroke-width="0.650000036"></line>
                                    <line x1="816.720058" y1="488.81229" x2="821.236759" y2="395.444451" id="Stroke-69" stroke="#FFFFFF" stroke-width="0.650000036"></line>
                                    <line x1="950.858892" y1="383.514324" x2="821.235979" y2="395.444139" id="Stroke-71" stroke="#FFFFFF" stroke-width="0.650000036"></line>
                                    <line x1="757.889444" y1="370.245893" x2="797.740391" y2="337.808833" id="Stroke-73" stroke="#FFFFFF" stroke-width="0.650000036"></line>
                                    <line x1="870.127353" y1="374.870626" x2="821.236759" y2="395.444919" id="Stroke-75" stroke="#FFFFFF" stroke-width="0.650000036"></line>
                                    <line x1="762.750869" y1="366.922977" x2="821.235354" y2="395.444763" id="Stroke-77" stroke="#FFFFFF" stroke-width="0.650000036"></line>
                                    <line x1="870.127353" y1="374.870626" x2="950.858111" y2="383.513544" id="Stroke-79" stroke="#FFFFFF" stroke-width="0.650000036"></line>
                                    <line x1="1033.19961" y1="290.919716" x2="950.859204" y2="383.514168" id="Stroke-81" stroke="#FFFFFF" stroke-width="0.650000036"></line>
                                    <line x1="1055.33082" y1="383.514324" x2="1033.20008" y2="290.919872" id="Stroke-83" stroke="#FFFFFF" stroke-width="0.650000036"></line>
                                    <line x1="821.236135" y1="395.444607" x2="887.834444" y2="528.183487" id="Stroke-85" stroke="#FFFFFF" stroke-width="0.650000036"></line>
                                    <line x1="821.236135" y1="395.444607" x2="797.740859" y2="337.808521" id="Stroke-99" stroke="#FFFFFF" stroke-width="0.650000036"></line>
                                    <line x1="730.796265" y1="203.784508" x2="797.741172" y2="337.809769" id="Stroke-101" stroke="#FFFFFF" stroke-width="0.650000036"></line>
                                    <line x1="694.130583" y1="272.648435" x2="730.796577" y2="203.784196" id="Stroke-103" stroke="#FFFFFF" stroke-width="0.650000036"></line>
                                    <line x1="797.741016" y1="337.809145" x2="694.130115" y2="272.648123" id="Stroke-105" stroke="#FFFFFF" stroke-width="0.650000036"></line>
                                    <line x1="861.59683" y1="234.502496" x2="730.796733" y2="203.785288" id="Stroke-107" stroke="#FFFFFF" stroke-width="0.650000036"></line>
                                    <line x1="730.796265" y1="203.784508" x2="606.511271" y2="272.648747" id="Stroke-109" stroke="#FFFFFF" stroke-width="0.650000036"></line>
                                    <line x1="465.915569" y1="323.118835" x2="393.909084" y2="314.173423" id="Stroke-191" stroke="#FFFFFF" stroke-width="0.650000036"></line>
                                    <line x1="458.078867" y1="286.485212" x2="465.91635" y2="323.118211" id="Stroke-193" stroke="#FFFFFF" stroke-width="0.650000036"></line>
                                    <line x1="606.510646" y1="272.648435" x2="458.079335" y2="286.485212" id="Stroke-195" stroke="#FFFFFF" stroke-width="0.650000036"></line>
                                    <line x1="393.909709" y1="314.173735" x2="458.078711" y2="286.484588" id="Stroke-197" stroke="#FFFFFF" stroke-width="0.650000036"></line>
                                    <path d="M470.781522,322.206362 C471.285806,324.88983 469.516908,327.475065 466.829994,327.978703 C464.14308,328.48234 461.554525,326.715711 461.050241,324.030684 C460.544395,321.347216 462.314854,318.76354 465.001768,318.259903 C467.690244,317.754706 470.277238,319.522895 470.781522,322.206362" id="Fill-229" fill="#FFFFFF"></path>
                                    <path d="M462.9456,285.572739 C463.449884,288.256207 461.679425,290.841442 458.992511,291.34508 C456.305597,291.848717 453.717042,290.082088 453.212758,287.397061 C452.708473,284.713593 454.478933,282.129917 457.165847,281.62628 C459.852761,281.121083 462.441316,282.889271 462.9456,285.572739" id="Fill-231" fill="#FFFFFF"></path>
                                    <path d="M698.996536,271.735962 C699.500821,274.41943 697.731923,277.004665 695.043447,277.508303 C692.356533,278.01194 689.769539,276.245311 689.265255,273.560284 C688.75941,270.876816 690.529869,268.29314 693.216783,267.789503 C695.905258,267.284306 698.492252,269.052495 698.996536,271.735962" id="Fill-251" fill="#FFFFFF"></path>
                                    <path d="M735.662218,202.872036 C736.166502,205.555503 734.397604,208.140738 731.709129,208.644376 C729.022215,209.148013 726.435221,207.381384 725.930936,204.696357 C725.425091,202.012889 727.19555,199.429213 729.882464,198.924017 C732.570939,198.420379 735.157933,200.188568 735.662218,202.872036" id="Fill-253" fill="#FFFFFF"></path>
                                    <path d="M611.37738,271.735962 C611.881664,274.41943 610.111205,277.004665 607.424291,277.508303 C604.737377,278.01194 602.148822,276.245311 601.644537,273.560284 C601.140253,270.876816 602.910712,268.29314 605.597626,267.789503 C608.28454,267.284306 610.873095,269.052495 611.37738,271.735962" id="Fill-255" fill="#FFFFFF"></path>
                                    <path d="M802.606968,336.896672 C803.111253,339.58014 801.342355,342.165375 798.653879,342.669013 C795.966965,343.17265 793.379972,341.406021 792.875687,338.720994 C792.369842,336.037526 794.140301,333.45385 796.827215,332.950213 C799.51569,332.445016 802.102684,334.213205 802.606968,336.896672" id="Fill-257" fill="#FFFFFF"></path>
                                    <path d="M866.462783,233.590023 C866.967067,236.273491 865.198169,238.858726 862.511255,239.362364 C859.82278,239.866001 857.235786,238.099372 856.731502,235.414345 C856.225656,232.730877 857.996116,230.147201 860.68303,229.643564 C863.371505,229.138367 865.958499,230.906556 866.462783,233.590023" id="Fill-259" fill="#FFFFFF"></path>
                                    <path d="M826.782793,393.25277 C827.287077,395.936238 825.518179,398.521473 822.831265,399.025111 C820.14279,399.528748 817.555796,397.762119 817.051512,395.077092 C816.545667,392.393624 818.316126,389.809948 821.00304,389.306311 C823.691515,388.801114 826.278509,390.569302 826.782793,393.25277" id="Fill-261" fill="#FFFFFF"></path>
                                    <path d="M767.616822,366.010349 C768.121107,368.693817 766.352209,371.279052 763.663733,371.782689 C760.976819,372.286327 758.389825,370.519697 757.885541,367.83467 C757.379696,365.151202 759.150155,362.567527 761.837069,362.06233 C764.525544,361.558692 767.112538,363.326881 767.616822,366.010349" id="Fill-273" fill="#FFFFFF"></path>
                                    <path d="M874.993306,373.958154 C875.49759,376.641621 873.728692,379.226856 871.040217,379.730494 C868.353303,380.234131 865.766309,378.467502 865.262024,375.782475 C864.756179,373.099007 866.526638,370.515331 869.213552,370.011694 C871.902027,369.506497 874.489021,371.274686 874.993306,373.958154" id="Fill-275" fill="#FFFFFF"></path>
                                    <path d="M955.724845,382.601851 C956.229129,385.285319 954.460231,387.870554 951.771756,388.374192 C949.084842,388.877829 946.496286,387.1112 945.993563,384.426173 C945.487718,381.742705 947.258177,379.159029 949.945091,378.655392 C952.633566,378.150195 955.22056,379.918383 955.724845,382.601851" id="Fill-277" fill="#FFFFFF"></path>
                                    <path d="M1038.06635,290.007244 C1038.57063,292.690712 1036.80017,295.275947 1034.11326,295.779584 C1031.42634,296.283222 1028.83779,294.516592 1028.3335,291.831565 C1027.82922,289.148098 1029.59968,286.564422 1032.28659,286.060784 C1034.97351,285.555588 1037.56206,287.323776 1038.06635,290.007244" id="Fill-279" fill="#FFFFFF"></path>
                                    <path d="M1060.48569,382.312818 C1060.98997,384.996285 1059.21951,387.58152 1056.5326,388.085158 C1053.84568,388.588795 1051.25713,386.822166 1050.75285,384.137139 C1050.24856,381.453671 1052.01902,378.869996 1054.70593,378.366358 C1057.39285,377.861161 1059.9814,379.62935 1060.48569,382.312818" id="Fill-291" fill="#FFFFFF"></path>
                                </g>
                            </g>
                        </g>
                    </g>
                </g>
            </g>
        </g>
    </g>
</svg>