<svg xmlns="http://www.w3.org/2000/svg" xmlns:xlink="http://www.w3.org/1999/xlink" width="119" height="132" viewBox="0 0 119 132">
    <defs>
        <linearGradient id="prefix__c" x1="100%" x2="0%" y1="98.431%" y2="1.569%">
            <stop offset="0%" stop-color="#0C9EE2"/>
            <stop offset="100%" stop-color="#00D0D3"/>
        </linearGradient>
        <filter id="prefix__a" width="358.8%" height="363%" x="-129.4%" y="-131.5%" filterUnits="objectBoundingBox">
            <feOffset in="SourceAlpha" result="shadowOffsetOuter1"/>
            <feGaussianBlur in="shadowOffsetOuter1" result="shadowBlurOuter1" stdDeviation="22"/>
            <feColorMatrix in="shadowBlurOuter1" values="0 0 0 0 0.063 0 0 0 0 0.114 0 0 0 0 0.443 0 0 0 0.0767864948 0"/>
        </filter>
        <path id="prefix__b" d="M58.08.03l.105.006c.412.052.731.403.731.83v13.346h3.344V9.878c-.714-.253-1.276-.815-1.529-1.529-.461-1.306.223-2.739 1.53-3.2 1.305-.462 2.738.222 3.2 1.528.461 1.306-.223 2.74-1.529 3.201v4.334h1.672l.105.007c.412.051.731.403.731.83v1.671h2.508v-2.662c-.714-.253-1.276-.814-1.529-1.529-.461-1.306.223-2.739 1.53-3.2 1.305-.462 2.738.223 3.2 1.528.461 1.306-.223 2.74-1.529 3.201v3.498l-.007.105c-.051.412-.403.731-.829.731H66.44v3.344h5.17c.352-1 1.295-1.669 2.354-1.672 1.06-.002 2.007.664 2.363 1.663.464 1.303-.216 2.735-1.518 3.199-1.303.464-2.735-.216-3.199-1.518h-5.17v1.672l-.007.105c-.051.412-.403.731-.829.731H62.26v1.672h2.508l.105.007c.412.051.731.403.731.829v1.826c.714.253 1.276.814 1.529 1.529.461 1.305-.223 2.738-1.529 3.2-1.306.462-2.739-.223-3.2-1.528-.462-1.306.222-2.74 1.528-3.201v-.99h-2.508l-.105-.007c-.412-.051-.731-.403-.731-.829v-2.508h-1.672v15.913h6.056l.106-.002c1.324-.003 2.4 1.069 2.402 2.393 0 .581-.195 1.146-.555 1.602.49.47.768 1.12.769 1.8v.028c.009 1.394-1.114 2.53-2.508 2.54H50.974c-1.385-.002-2.507-1.124-2.508-2.509-.004-.695.272-1.362.767-1.85-.355-.44-.55-.987-.553-1.552-.015-.787.361-1.53 1.004-1.985-.183-2.117-1.872-4.55-3.39-6.712-.717-1.024-1.395-1.99-1.915-2.91-2.894-5.122-4.691-11.116-4.691-15.644C39.688 7.496 47.767.029 58.08.029zM36.344 48.487v1.672h-1.672v-1.672h1.672zm28.842-1.701H50.974c-.461 0-.836.374-.836.836l-.001.029c-.008.47.367.858.837.865h14.212c.461 0 .836-.374.836-.836l.001-.029c.008-.47-.367-.857-.837-.865zm-30.514.029v1.672H33v-1.672h1.672zm3.344 0v1.672h-1.672v-1.672h1.672zm-1.672-1.672v1.672h-1.672v-1.672h1.672zm14.795-1.646c-.417-.018-.77.305-.787.722l-.001.029c-.008.47.367.858.837.866h13.784c.462 0 .836-.375.836-.836 0-.029 0-.057-.003-.085-.039-.421-.412-.731-.833-.693H51.188c-.016-.001-.033-.003-.05-.003zm6.105-41.779c-8.973.387-15.884 6.972-15.884 15.309 0 4.192 1.757 10.01 4.475 14.82.48.85 1.134 1.784 1.828 2.773 1.57 2.238 3.315 4.745 3.657 7.208h5.924v-9.26c-.222-.017-.448-.037-.69-.067-.356-.043-.644-.308-.718-.658l-.254-1.21c-.21-.05-.42-.107-.628-.17l-.833.93c-.24.266-.62.35-.95.21-.936-.403-1.82-.92-2.631-1.537-.285-.215-.402-.588-.29-.928l.383-1.167c-.158-.149-.311-.303-.46-.46l-1.169.383c-.34.11-.712-.006-.928-.29-.617-.812-1.133-1.696-1.537-2.632-.14-.33-.055-.711.211-.95l.93-.833c-.062-.207-.118-.414-.167-.621l-1.3-.26c-.391-.078-.673-.421-.673-.82v-2.85c0-.399.282-.742.672-.82l1.3-.26c.05-.207.106-.414.168-.62l-.93-.834c-.266-.238-.351-.62-.21-.95.403-.936.919-1.82 1.536-2.631.216-.284.589-.4.928-.29l1.168.383c.15-.158.303-.312.461-.46l-.384-1.17c-.111-.34.006-.713.291-.928.812-.616 1.695-1.132 2.63-1.536.33-.14.712-.055.95.212l.834.929c.209-.063.418-.12.628-.169l.255-1.212c.073-.35.361-.614.716-.657.243-.03.469-.05.691-.066zm8.898 36.525l1.464.808c-.26.465-.49.946-.69 1.44l-1.554-.615c.225-.56.486-1.106.78-1.633zm1.881-2.945l1.372.955c-.318.457-.635.921-.938 1.39l-1.404-.908c.314-.485.641-.965.97-1.437zm1.902-2.782l1.415.89c-.295.469-.623.953-.968 1.45L69 33.902c.33-.475.644-.938.926-1.386zm-5.157-.749c-.461 0-.836.375-.836.836 0 .462.374.836.836.836.462 0 .836-.374.836-.836 0-.462-.374-.836-.836-.836zm6.726-2.164l1.508.72c-.25.525-.512 1.043-.786 1.555l-1.474-.789c.261-.49.512-.985.752-1.486zM57.244 9.715l-.139.658c-.07.333-.334.59-.67.651-.495.09-.982.221-1.456.393-.32.114-.678.023-.905-.23l-.786-.877c-.436.218-.856.465-1.258.74l.362 1.104c.106.323.006.677-.253.897-.385.328-.743.686-1.07 1.072-.222.258-.576.358-.9.253l-1.104-.363c-.274.403-.52.823-.739 1.259l.877.785c.254.227.344.585.23.906-.171.474-.303.961-.393 1.457-.061.338-.323.604-.66.671l-1.168.233v1.48l1.169.233c.337.068.598.334.659.672.09.495.222.982.393 1.456.114.32.024.678-.23.905l-.877.786c.218.436.465.857.74 1.26l1.104-.364c.323-.105.677-.005.898.253.327.386.684.743 1.07 1.07.26.22.36.575.254.9l-.363 1.104c.403.274.823.52 1.259.739l.786-.877c.158-.177.385-.279.622-.279.097 0 .193.017.283.05.474.17.961.302 1.457.392.335.06.6.318.67.652l.138.658v-2.875c-3.805-.43-6.683-3.646-6.688-7.475.005-3.83 2.883-7.045 6.688-7.475V9.715zm15.555 16.82l1.565.588c-.203.54-.418 1.079-.646 1.615l-1.539-.654c.22-.514.426-1.032.62-1.548zM57.244 14.28c-2.57.368-4.59 2.387-4.957 4.957-.457 3.195 1.762 6.156 4.957 6.613zm7.524 1.605h-5.852v8.36h5.852v-8.36zm9.196 5.852c-.462 0-.836.374-.836.836 0 .462.374.836.836.836.461 0 .836-.374.836-.836 0-.462-.374-.836-.836-.836zm2.507-4.875l.001.167c0 .513-.024 1.056-.07 1.611l-1.667-.14c.043-.51.065-1.005.065-1.471v-.154l1.671-.013zm-.426-3.558c.137.583.24 1.173.312 1.767l-1.661.198c-.063-.533-.156-1.062-.278-1.585zm-6.261-2.435c-.461 0-.836.375-.836.836 0 .462.374.836.836.836.462 0 .836-.374.836-.836 0-.462-.374-.836-.836-.836zm5.06-.944c.262.539.494 1.092.695 1.656l-1.575.56c-.18-.506-.388-1.001-.623-1.484zM72.93 6.897c.372.468.719.956 1.039 1.461l-1.414.893c-.288-.454-.6-.893-.934-1.314zm-9.835-.209c-.461 0-.836.375-.836.836 0 .462.374.836.836.836.462 0 .836-.374.836-.836 0-.462-.374-.836-.836-.836zm7.33-2.342c.46.38.9.784 1.318 1.209l-1.192 1.172c-.378-.384-.776-.75-1.192-1.093zm11.898-1.002v1.672h-1.672V3.344h1.672zm-14.856-.991c.525.284 1.038.594 1.527.922l-.933 1.388c-.444-.298-.912-.58-1.39-.839zm16.528-.681v1.672h-1.672V1.672h1.672zm-3.344 0v1.672H78.98V1.672h1.672zM64.191.966c.57.181 1.133.388 1.671.618l-.654 1.538c-.49-.208-1.003-.398-1.523-.562zM60.722.198c.589.077 1.178.18 1.752.307l-.362 1.632c-.525-.116-1.064-.21-1.604-.28zM82.324 0v1.672h-1.672V0h1.672z"/>
    </defs>
    <g fill="none" transform="translate(1.6 40.4)">
        <use fill="#000" filter="url(#prefix__a)" xlink:href="#prefix__b"/>
        <use fill="url(#prefix__c)" xlink:href="#prefix__b"/>
    </g>
</svg>
