<svg xmlns="http://www.w3.org/2000/svg" xmlns:xlink="http://www.w3.org/1999/xlink" width="128" height="128" viewBox="0 0 128 128">
    <defs>
        <linearGradient id="prefix__c" x1="100%" x2="0%" y1="99.971%" y2=".029%">
            <stop offset="0%" stop-color="#0C9EE2"/>
            <stop offset="100%" stop-color="#00D0D3"/>
        </linearGradient>
        <filter id="prefix__a" width="373.8%" height="373.9%" x="-136.9%" y="-136.9%" filterUnits="objectBoundingBox">
            <feOffset in="SourceAlpha" result="shadowOffsetOuter1"/>
            <feGaussianBlur in="shadowOffsetOuter1" result="shadowBlurOuter1" stdDeviation="22"/>
            <feColorMatrix in="shadowBlurOuter1" values="0 0 0 0 0.063 0 0 0 0 0.114 0 0 0 0 0.443 0 0 0 0.0767864948 0"/>
        </filter>
        <path id="prefix__b" d="M65.848.2l.1.007 4.749.679.1.02c.383.105.637.481.579.885l-.445 3.112c-.03.213.025.428.155.6.267.351.768.42 1.12.153l2.515-1.886c.353-.265.855-.194 1.12.16l2.88 3.84c.265.353.193.855-.16 1.12l-2.515 1.886c-.17.127-.282.317-.312.527-.063.438.241.843.679.905l3.112.444.001.002.1.02c.383.105.637.481.579.885l-.679 4.752-.02.099c-.105.383-.482.638-.885.58l-3.112-.444c-.32-.052-.64.1-.8.384-.17.277-.15.63.048.888l1.885 2.514c.266.354.194.855-.16 1.12l-3.84 2.88c-.353.265-.854.194-1.12-.16l-1.886-2.514c-.127-.17-.317-.282-.527-.312-.438-.063-.843.241-.905.679l-.444 3.112c-.057.394-.394.687-.793.686-.037 0-.075-.002-.113-.007l-4.752-.68-.098-.02c-.384-.105-.638-.481-.58-.885l.444-3.112c.03-.21-.025-.422-.151-.591-.265-.354-.766-.426-1.12-.162l-2.515 1.886c-.354.265-.855.194-1.12-.16l-2.88-3.84c-.265-.353-.194-.855.16-1.12l2.514-1.886c.17-.127.282-.317.312-.527.062-.437-.242-.842-.68-.905l-3.111-.444c-.438-.063-.742-.469-.68-.906l.68-4.751c.063-.438.468-.742.905-.68l3.112.445c.32.047.637-.105.8-.384.17-.278.151-.631-.048-.888L56.161 5.69c-.128-.17-.183-.383-.153-.593.009-.03.02-.058.031-.087-4.646.017-8.96 2.411-11.432 6.345-3.984 6.341-2.074 14.711 4.267 18.695 1.562.973 2.519 2.676 2.537 4.515V37.8c0 .884.717 1.6 1.6 1.6h6.4c.884 0 1.6-.716 1.6-1.6v-3.166c.02-1.876.993-3.612 2.581-4.609.595-.385 1.158-.816 1.686-1.289l1.067 1.192c-.59.528-1.22 1.01-1.883 1.44-1.132.704-1.83 1.934-1.85 3.266v3.166c-.004 1.138-.614 2.188-1.6 2.755V45c0 1.768-1.433 3.2-3.2 3.2h-3.2c-1.768 0-3.2-1.432-3.2-3.2v-4.445c-.987-.567-1.597-1.617-1.6-2.755v-2.28l-1.243 1.247c-.273.272-.702.311-1.02.092l-2.21-1.52-.553 2.63c-.078.37-.404.635-.783.635h-3.2c-.38 0-.706-.268-.782-.64l-.553-2.63-2.21 1.525c-.318.219-.747.18-1.02-.093l-2.4-2.4c-.273-.273-.312-.702-.093-1.02l1.52-2.21-2.63-.553c-.37-.078-.635-.404-.635-.783v-3.2c0-.376.261-.702.629-.783l2.63-.553-1.52-2.21c-.22-.318-.18-.746.092-1.02l2.4-2.4c.273-.272.702-.311 1.02-.092l2.215 1.527.552-2.629c.076-.372.403-.64.783-.64h.24c.011-.225.019-.45.04-.676.695-7.135 6.28-12.815 13.403-13.63 1.088-.115 2.184-.115 3.272 0L60.16 1.69c.354-.265.855-.194 1.12.16l1.886 2.515c.127.17.317.282.527.312.437.062.842-.242.905-.68l.444-3.111.02-.099c.106-.384.482-.638.886-.58zm-6.437 44h-6.4v.8c0 .883.717 1.6 1.6 1.6h3.2c.884 0 1.6-.717 1.6-1.6v-.8zm0-3.2h-6.4v1.6h6.4V41zm8.8-4.8v5.6h-1.6v-5.6h1.6zm2.912-2.216l4.8 4-1.023 1.229-4.8-4 1.023-1.229zM57.011 35.4v2.4h-1.6v-2.4h1.6zM41.171 20.73l-.14.666c-.044.207-.128.404-.248.578-.501.728-1.497.912-2.225.41l-1.664-1.145-1.457 1.455 1.145 1.665c.119.173.202.368.246.573.183.864-.37 1.714-1.234 1.897l-1.994.42v1.9l1.994.42c.208.044.405.129.58.25.727.501.91 1.498.408 2.225l-1.145 1.66 1.457 1.455 1.663-1.142c.174-.12.37-.205.578-.248.865-.182 1.713.371 1.895 1.236l.42 1.994h1.901l.42-1.997c.043-.208.127-.404.248-.579.501-.727 1.497-.91 2.225-.41l1.662 1.146 1.716-1.713c-.287-.846-.856-1.57-1.612-2.047-.474-.306-.93-.639-1.368-.996-.729 1.42-2.116 2.384-3.7 2.573-2.633.314-5.021-1.566-5.335-4.198-.314-2.633 1.566-5.021 4.198-5.335-.294-.883-.506-1.79-.635-2.713zm9.065-11.608l.855 1.354c-1.738 1.094-3.08 2.718-3.828 4.631-1.929 4.939.51 10.506 5.449 12.435 2.592.993 4.302 3.482 4.3 6.257h-1.6c-.001-2.115-1.306-4.011-3.28-4.768-2.232-.871-4.125-2.435-5.402-4.462-3.297-5.234-1.728-12.15 3.506-15.447zM77.011 29.8v1.6h-5.6v-1.6h5.6zM42.431 25H42.4c-1.35-.003-2.556.844-3.013 2.114-.597 1.66.264 3.49 1.925 4.088 1.66.597 3.49-.264 4.088-1.925-1.23-1.244-2.234-2.69-2.97-4.277zM66.513 1.905l-.33 2.32c-.091.63-.428 1.198-.937 1.58-1.06.795-2.565.58-3.36-.48L60.481 3.45l-2.56 1.92 1.41 1.876c.382.51.546 1.15.456 1.78-.188 1.313-1.404 2.224-2.716 2.036l-2.32-.33-.453 3.166 2.32.332c.63.09 1.199.427 1.58.936.796 1.06.58 2.564-.48 3.36l-1.873 1.406 1.92 2.56 1.874-1.406c.51-.382 1.15-.546 1.78-.455 1.313.187 2.224 1.403 2.036 2.715l-.331 2.32 3.167.453.324-2.323c.09-.63.427-1.199.936-1.58 1.06-.796 2.565-.58 3.36.48l1.407 1.874 2.56-1.92-1.406-1.875c-.382-.509-.546-1.15-.456-1.78.187-1.311 1.403-2.223 2.715-2.036l2.32.331.455-3.166-2.32-.331c-.63-.09-1.198-.427-1.58-.936-.795-1.06-.58-2.565.48-3.36l1.875-1.407-1.92-2.56-1.875 1.406c-.509.382-1.149.546-1.779.456-1.312-.187-2.224-1.403-2.037-2.715l.332-2.32-3.168-.452zM66.4 7.61c3.533.004 6.396 2.867 6.4 6.4 0 3.535-2.865 6.4-6.4 6.4s-6.4-2.865-6.4-6.4c0-3.534 2.865-6.4 6.4-6.4zm0 1.6c-2.651 0-4.8 2.15-4.8 4.8 0 2.651 2.149 4.8 4.8 4.8 2.65-.003 4.797-2.15 4.8-4.8 0-2.65-2.149-4.8-4.8-4.8zm-27.184 3.013l.388 1.551-6.4 1.6-.387-1.552 6.4-1.6zm-4.14-7.874l5.599 4-.93 1.301-5.6-4 .93-1.3zM42.55 0l1.637 6.4-1.55.396L41 .396 42.55 0z"/>
    </defs>
    <g fill="none" transform="translate(8.3 40.4)">
        <use fill="#000" filter="url(#prefix__a)" xlink:href="#prefix__b"/>
        <use fill="url(#prefix__c)" xlink:href="#prefix__b"/>
    </g>
</svg>
