<svg xmlns="http://www.w3.org/2000/svg" width="33" height="33"><defs><linearGradient id="a" x1="100%" x2="0%" y1="99.988%" y2=".012%"><stop offset="0%" stop-color="#0C9EE2"/><stop offset="100%" stop-color="#00D0D3"/></linearGradient></defs><path fill="url(#a)" d="M228.9 0l.32 1.37c.6.17 1.18.42 1.73.72l1.2-.74 2.8 2.8-.75 1.2c.3.54.55 1.12.72 1.73l1.37.32v24.89h-30.21a2.09 2.09 0 01-2.08-2.08V16.15a4.7 4.7 0 013.03-4.38 3.65 3.65 0 114.72-.3h1.27c.11 0 .22-.04.31-.11l3.52-2.64c.21-.15.44-.26.7-.32v-1l1.36-.32c.18-.6.42-1.19.72-1.74l-.74-1.2 2.8-2.79 1.2.74a8.3 8.3 0 011.73-.72l.32-1.37h3.95zm-23.86 22.38v7.83a1.04 1.04 0 102.08 0v-7.3h-.52c-.56 0-1.11-.18-1.56-.53zm30.21-10.79l-.33.08c-.17.6-.41 1.19-.72 1.74l.74 1.2-2.8 2.8-1.2-.75a8.3 8.3 0 01-1.73.72l-.32 1.37h-3.95l-.22-.93-10.3 7.18v1.04a2.08 2.08 0 01-3.56 1.48l-.03-.04-2.66 1.87v.86c0 .37-.1.72-.3 1.04h27.38V11.59zm-20.84 17.58v1.04h-1.04v-1.04h1.04zm-2.08 0v1.04h-1.04v-1.04h1.04zm21.88 0v1.04h-1.04v-1.04h1.04zm-23.96 0v1.04h-1.04v-1.04h1.04zm23.96-2.09v1.05h-1.04v-1.04h1.04zm-23.96-4.16h-2.08v5.16l2.15-1.51a2.13 2.13 0 01-.07-.53v-3.12zm7.98-13.55H218a.89.89 0 00-.53.18l-3.51 2.64c-.27.2-.6.31-.94.31h-4.34a3.65 3.65 0 00-3.65 3.65v4.16c0 .87.7 1.57 1.56 1.57h3.65a1.04 1.04 0 011.04 1.04v3.12a1.04 1.04 0 002.08 0v-4.69c0-.86-.7-1.56-1.56-1.56h-2.08v-5.73h4.13c.58 0 1.15-.2 1.6-.55l3.3-2.57a.88.88 0 00-.53-1.57zm-2 15.66l.59.85-.85.6-.6-.86.85-.6zM234.2 25v1.04h-1.04V25h1.04zm-9.86-5.64l.6.85-7.1 4.95-.59-.86 7.1-4.94zm-5.31-7.3l-2.93 2.28c-.65.5-1.43.76-2.24.76h-3.1v3.65h1.04c1.44 0 2.6 1.17 2.6 2.6v2.38l9.5-6.6a8.37 8.37 0 01-1.02-.47l-1.2.74-2.8-2.8.75-1.2a8.26 8.26 0 01-.6-1.35zm9.03-11.02h-2.3l-.28 1.18-.31.08c-.72.18-1.4.46-2.03.84l-.28.17-1.03-.64-1.63 1.62.64 1.04-.16.27a7.24 7.24 0 00-.84 2.04l-.08.3-1.19.29v.14a1.9 1.9 0 011.3 2.85c.17.68.44 1.33.8 1.93l.17.27-.64 1.03 1.63 1.63 1.03-.64.28.17c.63.38 1.31.66 2.03.84l.3.08.29 1.18h2.3l.27-1.18.31-.08c.72-.18 1.4-.46 2.04-.84l.27-.17 1.04.64 1.62-1.63-.64-1.03.16-.28c.39-.63.67-1.31.85-2.03l.08-.3 1.18-.29v-2.3l-1.18-.28-.08-.3a7.24 7.24 0 00-.84-2.04l-.17-.27.64-1.03L232 2.67l-1.04.64-.27-.17a7.25 7.25 0 00-2.03-.84l-.31-.08-.28-1.18zm-1.15 2.08a6.26 6.26 0 11-.02 12.52 6.26 6.26 0 01.02-12.52zm0 1.05a5.21 5.21 0 100 10.42 5.21 5.21 0 000-10.42zm0 2.08a3.13 3.13 0 110 6.25 3.13 3.13 0 010-6.25zm0 1.05a2.08 2.08 0 100 4.16 2.08 2.08 0 000-4.16zM209.2 6.25a2.6 2.6 0 100 5.2 2.6 2.6 0 000-5.2z" transform="translate(-204)"/></svg>