<svg xmlns="http://www.w3.org/2000/svg" width="32" height="32"><defs><linearGradient id="a" x1="99.987%" x2=".013%" y1="100%" y2="0%"><stop offset="0%" stop-color="#0C9EE2"/><stop offset="100%" stop-color="#00D0D3"/></linearGradient></defs><path fill="url(#a)" d="M225.1.3c2.77-.1 5.3 1.54 6.32 4.1 1.02 2.58.3 5.5-1.8 7.32-.77.64-1.23 1.58-1.25 2.58h1v1h-1v1.5c0 .28-.22.5-.5.5h-.5c0 .92-.62 1.7-1.5 1.94v1.12c.98.2 1.75.97 1.95 1.95h1.65c.2-.6.77-1 1.4-1s1.2.4 1.4 1h1.66c.25-1.25 1.42-2.1 2.7-1.98 1.28.13 2.25 1.2 2.25 2.5v1c0 .68-.3 1.35-.8 1.82 1.68.7 2.8 2.34 2.8 4.17v1c0 .28-.23.5-.5.5h-8c-.14 0-.27-.04-.36-.14-.1-.1-.15-.22-.15-.35v-1c0-1.82 1.12-3.47 2.82-4.16-.53-.47-.82-1.14-.82-1.83v-.5h-1.6c-.2.6-.77 1-1.4 1-.64 0-1.2-.4-1.4-1h-1.6v.5c0 .7-.3 1.37-.82 1.84 1.7.7 2.8 2.34 2.8 4.17v1c0 .3-.22.5-.5.5h-8c-.13 0-.25-.04-.35-.14-.08-.1-.13-.22-.13-.35v-1c0-1.82 1.1-3.47 2.8-4.16-.5-.47-.8-1.14-.8-1.83v-.5h-1.6c-.2.6-.77 1-1.4 1-.64 0-1.2-.4-1.4-1h-1.6v.5c0 .7-.3 1.37-.82 1.84 1.7.7 2.8 2.34 2.82 4.17v1c0 .3-.23.5-.5.5h-8c-.14 0-.26-.04-.36-.14-.08-.1-.13-.22-.13-.35v-1c0-1.82 1.1-3.47 2.8-4.16-.5-.47-.8-1.14-.8-1.84v-1c0-1.28.97-2.36 2.25-2.48 1.28-.13 2.44.73 2.7 1.98h1.64c.2-.6.78-1 1.4-1 .65 0 1.2.4 1.42 1h1.64c.2-.98.97-1.74 1.95-1.95v-1.12c-.88-.22-1.5-1.02-1.5-1.93h-.5c-.13 0-.26-.05-.35-.14-.1-.1-.15-.22-.15-.36v-1.5h-1v-1h1c-.05-1-.5-1.96-1.28-2.62-1.45-1.26-2.26-3.1-2.23-5 .1-3.42 2.8-6.2 6.23-6.38zm13.03 26.48c-1.1-.63-2.42-.63-3.5 0-1.1.62-1.75 1.78-1.75 3.03v.5h1v-1h1v1h3v-1h1v1h1v-.5c0-1.24-.67-2.4-1.75-3.02zm-12.76-.47c-1.93 0-3.5 1.58-3.5 3.5v.5h1v-1h1v1h3v-1h1v1h1v-.5c0-1.92-1.56-3.5-3.5-3.5zm-9.25.48c-1.08-.63-2.42-.63-3.5 0-1.1.62-1.75 1.78-1.75 3.03v.5h1v-1h1v1h3v-1h1v1h1v-.5c0-1.24-.67-2.4-1.75-3.02zm20.26-5.44c-.82 0-1.5.65-1.5 1.47v1c-.02.55.27 1.06.74 1.34.47.27 1.05.27 1.52 0s.75-.8.74-1.33v-1c-.02-.8-.7-1.46-1.5-1.46zm-11 0c-.82 0-1.5.65-1.5 1.47v1c-.02.55.26 1.06.73 1.34s1.06.27 1.53 0c.47-.28.76-.8.74-1.33v-1c0-.8-.68-1.46-1.5-1.46zm-11 0c-.83 0-1.5.65-1.5 1.47v1c-.02.55.26 1.06.73 1.34s1.06.27 1.53 0c.47-.28.75-.8.74-1.33v-1c-.02-.8-.68-1.46-1.5-1.46zm16.5.97c-.28 0-.5.23-.5.5 0 .3.22.5.5.5.27 0 .5-.22.5-.5 0-.27-.23-.5-.5-.5zm-11 0c-.28 0-.5.23-.5.5 0 .3.22.5.5.5.27 0 .5-.22.5-.5 0-.27-.23-.5-.5-.5zm6.5-5h-2c0 .36.18.7.5.87.3.18.68.18 1 0 .3-.18.5-.5.5-.86zm1-2h-4v1h4v-1zm-2-14h-.24c-2.9.16-5.18 2.5-5.27 5.4-.03 1.62.66 3.17 1.88 4.24 1 .84 1.57 2.06 1.62 3.37h4c.02-1.3.6-2.5 1.6-3.34 1.77-1.53 2.38-4 1.52-6.2-.87-2.16-3.02-3.56-5.36-3.46zm1 11v1h-2v-1h2zm-.5-9v1.05c.3.06.6.18.87.36l.77-.76.7.7-.76.78c.18.27.3.57.37.88h1.05v1h-1.05c-.07.3-.2.6-.37.88l.77.77-.7.7-.78-.76c-.26.16-.56.3-.88.35v1.05h-1V9.25c-.3-.06-.6-.18-.88-.36l-.78.76-.7-.7.77-.77c-.2-.28-.32-.58-.38-.9h-1.05v-1h1.05c.06-.3.2-.6.37-.87l-.78-.77.7-.7.77.76c.26-.18.56-.3.87-.37V3.3h1zm-.5 2c-.84 0-1.5.67-1.5 1.5s.66 1.5 1.5 1.5c.82 0 1.5-.67 1.5-1.5s-.68-1.5-1.5-1.5z" transform="translate(-209)"/></svg>