<svg xmlns="http://www.w3.org/2000/svg" width="34" height="34"><defs><linearGradient id="a" x1="98.672%" x2="1.328%" y1="100%" y2="0%"><stop offset="0%" stop-color="#0C9EE2"/><stop offset="100%" stop-color="#00D0D3"/></linearGradient></defs><path fill="url(#a)" d="M187.78 7.87c.2 0 .37.08.5.22l5.72 6.48c.1.13.17.3.15.48a.66.66 0 01-.22.45l-15.86 17.88a.66.66 0 01-.98 0L161.23 15.5a.66.66 0 01-.06-.94l5.72-6.47c.12-.14.3-.22.49-.22zm-16.9 7.8h-7.76l13.12 14.78-5.36-14.79zm21.16-.01h-19.76l5.31 14.66 3.88-10.49a.66.66 0 011.12-.2c.15.19.19.43.1.65l-3.74 10.14 13.1-14.76zm-9.11 1.3a.66.66 0 110 1.3.66.66 0 010-1.3zm-15.65-7.33l-4.17 4.72h7.1l-2.93-4.72zm10.3-.04l-4.73 4.76h9.46l-4.73-4.76zm10.31.04l-2.92 4.72h7.09l-4.17-4.72zm-1.27-.45h-7.59l4.67 4.7 2.92-4.7zm-10.48 0h-7.6l2.92 4.7 4.68-4.7zm-4.66-6.59a.66.66 0 01.93 0L174.8 5c.16.16.23.4.17.63a.66.66 0 01-1.1.3l-2.4-2.4a.66.66 0 010-.92zm11.15 0a.65.65 0 011.12.47c0 .17-.07.34-.2.47l-2.39 2.38a.66.66 0 01-.92-.93zM177.58 0a.66.66 0 01.66.66v3.38a.66.66 0 01-1.31 0V.66c0-.37.29-.66.65-.66z" transform="translate(-161)"/></svg>