<svg xmlns="http://www.w3.org/2000/svg" width="34" height="34"><defs><linearGradient id="a" x1="100%" x2="0%" y1="99.616%" y2=".384%"><stop offset="0%" stop-color="#0C9EE2"/><stop offset="100%" stop-color="#00D0D3"/></linearGradient></defs><path fill="url(#a)" d="M215.52 15.9c.74 0 1.34.6 1.34 1.35v15.88c0 .27-.22.5-.5.5h-5.92c-.27 0-.5-.23-.5-.5v-15.9c0-.72.6-1.32 1.35-1.33zm8.95-3.3c.74 0 1.34.6 1.34 1.33v19.2c0 .13-.04.26-.14.35-.1.1-.22.14-.35.14h-5.9c-.28 0-.5-.22-.5-.5v-19.2c0-.73.6-1.33 1.34-1.33zm8.94-3.33c.75 0 1.35.6 1.35 1.34v22.53c0 .27-.22.5-.5.5h-5.9c-.14 0-.27-.06-.36-.15-.1-.1-.16-.22-.16-.35V10.6c0-.73.6-1.33 1.34-1.33zm-26.83 9.95c.74 0 1.34.6 1.34 1.34v12.57c0 .13-.04.25-.13.35-.1.1-.22.14-.35.14h-5.93c-.28 0-.5-.22-.5-.5V20.57c0-.74.6-1.34 1.34-1.34zm8.95-2.33h-4.23c-.2 0-.36.15-.36.35v15.4h4.93v-15.4c0-.2-.16-.36-.35-.36zm17.9-6.64h-4.23c-.2 0-.37.16-.37.35v22.04h4.94V10.6c0-.18-.16-.34-.36-.34zm-26.85 9.95h-4.23c-.2 0-.35.17-.35.36v12.07h4.92V20.56c0-.1-.04-.18-.1-.25-.07-.06-.16-.1-.25-.1zm17.9-6.62h-4.23c-.2 0-.35.15-.35.35v18.7h4.92v-18.7c0-.2-.16-.35-.35-.35zm-18.33-4.96c.17-.02.35.06.45.2.1.16.1.35.02.5-.08.17-.24.28-.42.28-.93.06-1.86.1-2.78.1v2.57c6.3-.08 12.56-1.26 18.46-3.5.26-.08.54.05.63.3.1.25-.02.53-.27.63-6.17 2.33-12.7 3.54-19.3 3.56-.28 0-.5-.22-.5-.5V9.23c0-.28.22-.5.5-.5 1.05 0 2.13-.03 3.2-.1zM227.4 0l5.35.2c.33 0 .63.16.82.43.18.27.23.6.13.92L232 6.63c-.12.37-.44.64-.82.7-.4.05-.78-.12-1-.44l-.5-.73c-1.76 1.03-3.58 1.94-5.45 2.73-.17.07-.36.05-.5-.06-.15-.1-.22-.28-.2-.46.02-.17.14-.33.3-.4 1.98-.82 3.9-1.8 5.73-2.9.23-.13.52-.07.67.14l.76 1.1c0 .02.02.03.04.03 0 0 .03-.02.03-.03l1.7-5.08c0-.02 0-.03 0-.04s-.03-.02-.05-.02l-5.35-.2s-.03.02-.04.03c0 .03 0 .04 0 .06l.87 1.24c.08.1.1.25.07.4-.02.12-.1.24-.22.3-6.1 3.52-12.86 5.7-19.85 6.43h-.05c-.27 0-.5-.2-.5-.47 0-.26.18-.5.44-.52 6.67-.7 13.13-2.74 18.98-6.02l-.56-.8c-.22-.32-.24-.74-.06-1.08.2-.35.56-.55.95-.54z" transform="translate(-201)"/></svg>