<svg xmlns="http://www.w3.org/2000/svg" width="35" height="39"><defs><linearGradient id="a" x1="90.979%" x2="9.021%" y1="100%" y2="0%"><stop offset="0%" stop-color="#0C9EE2"/><stop offset="100%" stop-color="#00D0D3"/></linearGradient></defs><path fill="url(#a)" d="M234.66 15.76c.32-.05.6.16.66.48.4 2.04.63 4.12.68 6.2.08 4.5-.9 8.85-1.25 11.74-.17 1.33-1.08 2.45-2.35 2.9-5.93 2.04-13.26 2.74-17.6-1.77-.17-.15-.4-.2-.62-.14-2.37.73-4.9.8-7.3.2-2.1-.63-3.77-2.2-4.57-4.22-1.5-3.27-1.3-6.38-1.3-9.48 0-.8.35-1.57.94-2.1.6-.54 1.4-.8 2.2-.73 2.7.3 5.26 1.46 7.25 3.33.76.73 1.47 1.52 2.1 2.37 1.57-1.64 3.75-2.56 6.02-2.52 2.26.05 4.4 1.04 5.9 2.74.1-1.08.25-2.3.48-3.6.03-.2.18-.37.37-.44.2-.08.4-.04.57.1.15.13.23.33.2.53-.26 1.4-.42 2.8-.5 4.23-.03.36-.27.68-.62.78-.35.1-.72-.03-.94-.32-1.2-1.67-3.1-2.72-5.17-2.84s-4.06.67-5.48 2.18c-.22.23-.54.36-.86.34-.33 0-.63-.17-.83-.43-.6-.8-1.3-1.57-2.02-2.26-1.8-1.7-4.12-2.77-6.6-3.02-.47-.04-.94.12-1.3.43-.33.33-.53.8-.53 1.26v3.06c0 4.1 1.54 8.62 5 9.53 2.2.54 4.52.47 6.68-.2.63-.2 1.32 0 1.78.46 4 4.16 10.98 3.35 16.4 1.48.85-.3 1.46-1.05 1.58-1.95.37-2.9 1.33-7.2 1.25-11.57-.05-2.03-.27-4.05-.66-6.04-.06-.3.15-.6.46-.66zm-22.2 2.48c.2-.06.4 0 .57.12l2.35 2.1c.18.16.24.42.16.64-.1.22-.3.37-.54.37-.3 0-.17.04-2.74-2.25-.15-.13-.22-.34-.18-.54.04-.2.2-.37.38-.43zm11.3-1.3h.1c.2.02.4.14.48.33.08.2.06.4-.05.57l-1.83 2.58c-.2.26-.55.33-.8.14-.27-.18-.33-.54-.15-.8l1.82-2.58c.12-.17.32-.26.53-.24zm-5.86-1.68c.3-.03.6.2.64.5l.4 3.5c.03.3-.2.6-.5.63-.33.03-.6-.2-.65-.5l-.4-3.5c-.04-.3.18-.6.5-.64zm6.35-15.2c.3-.1.6-.08.9.02 2 .66 6.88 4.2 7.08 4.35 1.38 1.12 2.2 2.77 2.28 4.53.13 1.85.3 3.5.5 5 .02.22-.07.42-.23.55-.17.13-.38.16-.57.08-.2-.08-.33-.25-.35-.46-.2-1.54-.37-3.2-.5-5.08-.04-1.43-.7-2.78-1.8-3.7-.75-.53-6.2-4.4-7.02-4.18-.74.2-3.26.85-4.73 1.32-.37.12-.64.44-.7.82-.02.1-.03.22-.03.32-.07 1.54-.07 1.06.85 4.14.03.06.2.37.9.37.67-.04 1.34-.2 1.96-.5.4-.18.83-.12 1.17.13.78.58.9.74 4 1.3.5.1.9.48 1.02.97.76 3.08.43-.04-1.5 9.06-.07.3-.37.5-.68.43-.33-.07-.52-.37-.46-.68.72-3.4 1.6-6.3 1.85-7.12-.1-.48-.2-.96-.35-1.42 0-.05-.05-.1-.1-.1-3.24-.6-3.53-.8-4.5-1.52-.77.36-1.6.56-2.44.6-.83.1-1.64-.38-1.98-1.16-.74-2.5-.92-2.8-.92-3.7v-.1c0-.3.03-1 .07-1.22.14-.8.7-1.46 1.48-1.7 1.5-.5 4.05-1.16 4.8-1.35z" transform="translate(-201)"/></svg>