<svg xmlns="http://www.w3.org/2000/svg" width="60" height="60"><defs><linearGradient id="a" x1="100%" x2="0%" y1="99.518%" y2=".482%"><stop offset="0%" stop-color="#0C9EE2"/><stop offset="100%" stop-color="#00D0D3"/></linearGradient></defs><path fill="url(#a)" d="M147.2 55.96l1.35 1.35-1.92 1.92-1.35-1.35 1.92-1.92zm5.75 0l1.36 1.35-1.92 1.92-1.36-1.35 1.92-1.92zM152.68 0v7.69h1.92V3.83h1.92v3.84h1.92V1.92h1.92v5.76h3.7l1.02 6.6A20.2 20.2 0 01184.36 0a20.18 20.18 0 0120.16 20.16 20.17 20.17 0 01-19.05 20.1l1.63 10.62h2.06v-5.76h1.92v5.76H193V43.2h1.92v7.67h1.92v-3.83h1.92v3.83h1.92v-5.75h1.92v5.75h1.92v1.92l-19.06.01-1.93-12.5c-1.34-.07-2.69-.26-4.04-.6a24.42 24.42 0 01-4.84 3.19l-.85.42v1.75c0 5.12-2.76 9.88-7.2 12.41l-.22.13h-2.55l1.65-4.97c.43-1.26.64-2.58.64-3.92v-1.56l-4.03 2.02-6.74-6.74 2.02-4.03h-1.57c-1.33 0-2.64.21-3.91.64l-4.97 1.65v-2.54l.13-.23c2.53-4.44 7.3-7.2 12.41-7.2h1.75l.42-.85a24.42 24.42 0 013.2-4.84 20.32 20.32 0 01-.6-3.77h-.02l-1.8-11.66-17.4.01-.01-1.92h1.92V1.92h1.92v5.77h1.92V0h1.92zm7 49.24l1.35 1.36-5.76 5.75-1.36-1.35 5.76-5.76zm-2.89-2.88l1.36 1.35-8.64 8.64-1.35-1.35 8.63-8.64zm15.09-2.09l-3.84 1.92v2.52c0 1.55-.25 3.07-.73 4.53l-.64 1.91a12.41 12.41 0 005.21-10.09v-.79zM147.2 50.2l1.35 1.35-1.92 1.92-1.35-1.35 1.92-1.92zm6.72-6.72l1.35 1.36-5.76 5.75-1.35-1.35 5.75-5.76zm6.38-6.66l-2.61 5.23 4.78 4.78 5.23-2.61-7.4-7.4zm18.33-18.04a22.45 22.45 0 00-15.28 11.95L161.2 35l8.3 8.3 4.28-2.14a22.54 22.54 0 0011.95-15.28 7.68 7.68 0 01-7.11-7.1zm5.73-16.86a18.26 18.26 0 00-18.24 18.24c0 1.04.1 2.1.3 3.16 1.1-1.09 2.3-2.06 3.55-2.9 0-.09-.01-.17-.01-.26 0-7.94 6.46-14.4 14.4-14.4s14.4 6.46 14.4 14.4-6.46 14.4-14.4 14.4c-.09 0-.17 0-.26-.01a24.6 24.6 0 01-2.9 3.55c1.06.2 2.12.3 3.16.3a18.26 18.26 0 0018.24-18.24 18.26 18.26 0 00-18.24-18.24zm-24.11 30.72h-.79a12.4 12.4 0 00-10.1 5.21l1.92-.64c1.46-.48 2.99-.73 4.52-.73h2.53l1.92-3.84zM173.8 24a6.73 6.73 0 11-.02 13.46A6.73 6.73 0 01173.8 24zm0 1.92a4.8 4.8 0 10.01 9.61 4.8 4.8 0 00-.01-9.61zm0 1.92a2.88 2.88 0 110 5.77 2.88 2.88 0 010-5.77zm10.56-20.16a12.49 12.49 0 00-12.43 11.56 24.2 24.2 0 014.24-1.79 8.63 8.63 0 1110.9 10.9 24.23 24.23 0 01-1.8 4.24 12.49 12.49 0 0011.57-12.43 12.5 12.5 0 00-12.48-12.48zM173.8 29.76a.96.96 0 100 1.92.96.96 0 000-1.92zm10.56-16.32a6.7 6.7 0 00-5.8 3.4 24.7 24.7 0 015-.52 4.65 4.65 0 014.64 4.64c0 1.7-.18 3.38-.51 5a6.7 6.7 0 00-3.33-12.52zm-.8 4.8a23 23 0 00-3.03.2 5.76 5.76 0 005.54 5.55c.14-1 .21-2 .21-3.02 0-1.5-1.22-2.73-2.73-2.73z" transform="translate(-145)"/></svg>