<svg xmlns="http://www.w3.org/2000/svg" width="68" height="68"><defs><linearGradient id="a" x1="100%" x2="0%" y1="100%" y2="0%"><stop offset="0%" stop-color="#0C9EE2"/><stop offset="100%" stop-color="#00D0D3"/></linearGradient></defs><path fill="url(#a)" d="M126.48 37.55l6.7 16.8 5.6 5.6V68H71.45v-2.63l21.27-21.3h9.72l3.06 4.6 11.1-11.13h9.88zm-25.2 8.7h-7.66L74.07 65.83h38.65v-5l-5.25-5.28-6.2-9.3zM125 39.72h-7.5l-10.77 10.8 2.5 3.73 5.66 5.7v5.87h21.7v-4.98l-5.26-5.28L125 39.72zm-.83 6.18l4.68 11.7 5.27 5.28-1.54 1.54-5.6-5.6-4.82-12.1 2-.82zM82.1 61.23l1.53 1.53-1.54 1.54-1.54-1.54 1.53-1.53zm3.06-3.08l1.54 1.54-1.54 1.53-1.53-1.54 1.53-1.55zm16.4-7.26l4.4 6.62 1.03 1.03-1.55 1.54-1.24-1.3-4.46-6.7 1.8-1.2zm-13.32 4.18l1.53 1.53-1.53 1.55-1.54-1.54 1.54-1.52zM91.3 52l1.54 1.54-1.53 1.54-1.53-1.54L91.3 52zm8.22-4.2l1.06 1.6-1.8 1.2L97.7 49l1.8-1.2zm34.92-1.55v2.17h-2.18v-2.17h2.18zm-12.04-4.77l.88 2.2-2 .8-.9-2.2 2.02-.8zM129 0l10 11.44h-4.57v32.63h-2.17V9.27h1.95L129 3.3l-5.2 5.97h1.95v26.1h-2.18V11.44h-4.56L129 0zm-16.3.56v1.1c.02 8.7-3.37 16.9-9.52 23.04l-2 2c-.8.82-1.7 1.58-2.58 2.3v11.17l-2.17 2.18-7.82-7.83c-.83.28-1.67.54-2.53.76l-.83.2-.9-.9-4.3 3.32-4.6-4.62L78.76 29l-.9-.9.2-.84c.2-.86.47-1.7.76-2.55L71 16.9l2.17-2.18h11.15c.72-.9 1.48-1.77 2.3-2.6l2-2c6.14-6.14 14.32-9.54 23-9.54h1.1zm.02 16.84l10 11.44h-4.58v2.18h-2.17v-4.35h1.95l-5.2-5.96-5.2 5.97h1.94V41.9h-2.17V28.84h-4.58l10-11.44zm-16.3 13.23c-1.75 1.2-3.63 2.2-5.6 3.04l5.6 5.6zm21.73 2.56v2.17h-2.18V33.2h2.18zm-33.57-8.16l-6.25 8.07 1.9 1.9 8.04-6.26-3.7-3.7zM101.1 4.62c-4.06 1.52-7.8 3.9-10.95 7.05l-2 2c-3.66 3.67-6.3 8.22-7.72 13.2l3.95-5.1 7.17 7.2-5.08 3.96c4.97-1.4 9.5-4.06 13.18-7.73l2-2c3.15-3.17 5.52-6.9 7.02-10.98zm-5.76 6.84c3.6 0 6.52 2.93 6.52 6.53s-2.93 6.52-6.52 6.52c-3.6 0-6.5-2.93-6.5-6.53-.02-3.6 2.9-6.53 6.5-6.53zM82.7 16.88h-8.63l5.6 5.6c.82-1.96 1.84-3.84 3.03-5.6zm12.64-3.26c-2.4 0-4.34 1.95-4.34 4.35 0 2.4 1.94 4.35 4.34 4.35s4.34-1.95 4.34-4.35c0-2.4-1.94-4.35-4.34-4.35zm15.18-10.86c-2.43.08-4.8.46-7.1 1.1l6 6c.65-2.28 1.02-4.67 1.1-7.1z" transform="translate(-71)"/></svg>