<svg xmlns="http://www.w3.org/2000/svg" width="57" height="39"><defs><linearGradient id="a" x1="100%" x2="0%" y1="72.571%" y2="27.429%"><stop offset="0%" stop-color="#0C9EE2"/><stop offset="100%" stop-color="#00D0D3"/></linearGradient></defs><path fill="url(#a)" d="M331.34 35.15c.4 0 .65.1.9.28l.1.08-.3.35c-.2-.17-.4-.27-.72-.27-.45 0-.8.35-.83.8l-.02.1c0 .55.35.94.88.94.2 0 .38-.05.52-.13l.1-.08v-.48h-.65v-.4h1.1v1.1c-.25.22-.62.4-1.08.4-.76 0-1.28-.5-1.34-1.2v-.14c0-.73.56-1.35 1.34-1.35zm5.84 0c.74 0 1.28.53 1.35 1.2v.14c0 .73-.56 1.34-1.36 1.34-.75 0-1.28-.54-1.34-1.2v-.14c0-.74.55-1.35 1.35-1.35zm7.48 0c.75 0 1.28.53 1.34 1.2v.14c0 .73-.56 1.34-1.35 1.34-.75 0-1.3-.54-1.35-1.2v-.14c0-.74.56-1.35 1.36-1.35zm10.96.04v1.47c0 .48.25.74.65.74.37 0 .6-.2.65-.6v-1.6h.45v1.46c0 .77-.43 1.16-1.1 1.16-.63 0-1.05-.34-1.1-1V35.18h.45zm-4.7-.05c.33 0 .6.1.83.24l.1.08-.23.34c-.24-.17-.47-.26-.7-.26-.24 0-.4.1-.42.25v.07c0 .2.1.3.6.4.5.14.8.3.83.66v.1c0 .5-.38.78-.92.78-.33 0-.65-.1-.93-.3l-.14-.1.28-.33c.25.22.5.34.82.34.25 0 .42-.1.45-.25v-.07c0-.2-.1-.3-.57-.4-.5-.12-.8-.26-.86-.66v-.1c0-.46.37-.77.9-.77zm26.04.02l1.13 2.62h-.5l-.25-.64h-1.23l-.26.63h-.47l1.13-2.63h.43zM359 35.2c.77 0 1.32.5 1.38 1.16v.13c0 .68-.5 1.22-1.23 1.3h-1.1v-2.6h.97zm-32.52 0v2.6h-.45v-2.6h.45zm1.12 0L329 37v-1.8h.44v2.6h-.38l-1.43-1.86v1.85h-.45v-2.6h.42zm47.36 0v2.6h-.46v-2.6h.46zm-26.46 0v.4h-1.48v.72h1.3v.4h-1.3v1.07h-.45v-2.6h1.93zm-14.48 0c.77 0 1.3.5 1.36 1.16v.13c0 .68-.5 1.22-1.22 1.3H333.05v-2.6h.97zm-10.25 0v1.3l1.23-1.3h.56l-1.07 1.1 1.1 1.5h-.54l-.9-1.18-.4.4v.77h-.44v-2.6h.45zm15.8 0l.8 1.22.78-1.23h.48v2.6h-.45v-1.87l-.82 1.22-.82-1.2v1.84h-.45v-2.6h.48zm27.7 0c.33 0 .6.1.76.26.1.1.18.25.2.42v.14c0 .38-.2.63-.5.75l-.1.04.7 1h-.54l-.65-.9h-.57v.9h-.46v-2.6h1.16zm-5.85 0v2.6h-.46v-2.6h.46zm-7.68-.03l1.15 2.6h-.5l-.25-.62h-1.23l-.27.63h-.46l1.13-2.6h.42zm16.47 0l1.15 2.6h-.48l-.26-.62h-1.2l-.28.63h-.47l1.15-2.6h.4zm-5.65 0l1.14 2.6h-.5l-.25-.62h-1.23l-.27.63H363l1.13-2.6h.42zm8.4.02c.28 0 .52.07.66.22.1.1.16.2.18.33v.1c0 .32-.16.5-.35.6.26.08.46.23.5.5v.1c0 .45-.32.7-.83.73h-1.33v-2.6h1.17zm-28.3.37c-.48 0-.82.35-.87.8v.1c0 .52.36.94.87.94.48 0 .82-.34.87-.8v-.1c0-.5-.36-.93-.87-.93zm-7.5 0c-.46 0-.8.35-.85.8v.1c0 .52.36.94.87.94.48 0 .82-.34.87-.8v-.1c0-.5-.36-.93-.87-.93zm35.8 1.1h-.72v.7h.76c.26 0 .44-.08.48-.27v-.07c0-.23-.17-.36-.53-.36zM334 35.6h-.5v1.77h.5c.56 0 .92-.36.92-.87 0-.5-.36-.9-.9-.9zm25 0h-.5v1.77h.5c.55 0 .9-.36.9-.87 0-.5-.36-.9-.9-.9zm-5.47.12l-.44 1.04h.88l-.45-1.04zm10.8 0l-.44 1.04h.9l-.46-1.04zm5.67 0l-.44 1.04h.9l-.46-1.04zm6.74 0l-.45 1.04h.9l-.46-1.04zm-9.5-.1h-.66v.86h.66c.3 0 .5-.13.53-.35v-.08c0-.28-.2-.44-.53-.44zm5.65-.02h-.66v.7h.62c.26 0 .44-.1.48-.3v-.06c0-.2-.16-.34-.45-.34zm-15.84-6.05v3.26h-4.67v.1c0 .13-.02.26-.04.37-.03.1-.07.2-.1.27-.07.08-.14.14-.23.18-.1.05-.2.07-.33.07-.06 0-.13-.02-.2-.03l-.1-.03.1-.34c.04 0 .07.02.1.02.02 0 .04 0 .08 0 .07 0 .13 0 .17-.02.04-.02.08-.05.1-.1.03-.04.05-.1.06-.17.02-.04.02-.1.02-.16v-2.64h.37v2.1h1.34l-.64-1.52c.1-.07.2-.15.3-.23.1-.07.22-.14.34-.2.12-.04.23-.1.35-.12.1-.04.22-.05.34-.05.12 0 .23.02.35.05.1.03.23.08.34.13.12.06.23.13.34.2l.16.12.15.12-.65 1.52h1.55v-2.9h.36zm-14.93-.02v3.26h-1.03c-.1-.02-.18-.03-.26-.05-.1-.03-.18-.05-.25-.1-.08-.04-.14-.08-.18-.13-.04-.06-.08-.1-.1-.15-.1.15-.2.26-.37.34-.15.1-.33.12-.55.12-.2 0-.4-.03-.54-.12-.16-.07-.28-.2-.36-.34-.1.13-.2.23-.33.3-.1.07-.22.1-.35.12h-5.77v.07c0 .3-.07.5-.24.68-.15.17-.4.26-.76.26-.1 0-.22-.02-.33-.05-.07 0-.14-.04-.23-.07l-.13-.04.1-.35c.12.04.22.08.3.1.1.02.2.03.3.03.2 0 .37-.04.47-.12.1-.06.14-.16.16-.3v-.2h-.2c-.22 0-.4-.03-.6-.08-.17-.05-.34-.12-.47-.22-.14-.1-.25-.22-.33-.38-.07-.15-.12-.34-.12-.55 0-.17.04-.34.1-.5.08-.15.18-.28.3-.4.14-.1.3-.2.5-.25.12-.05.27-.08.43-.1h.76v2.1h1.25l-.63-1.5c.1-.1.2-.17.3-.25.1-.08.23-.14.34-.2.13-.05.24-.1.36-.13s.24-.05.35-.05c.13 0 .25 0 .37.04s.24.08.35.14c.12.05.23.12.34.2l.16.1.15.13-.64 1.54h1.9v-1.88h.37v1.88h.7c.08 0 .16-.02.23-.04.08-.02.14-.06.2-.1.06-.06.1-.12.13-.2.03-.05.04-.1.05-.17v-1.37h.37v1.3c0 .07.02.16.06.24.03.07.08.14.15.2.06.06.14.1.22.14.1.03.2.05.3.05.22 0 .4-.08.5-.2.1-.1.14-.23.16-.4v-1.34h.37v1.17c0 .14-.02.25-.04.34.06.13.16.22.28.28.1.05.22.08.38.1h.72v-2.92h.35zm-15.86 3.7v.4h-.37v-.4h.37zm24.68 0v.38h-.38v-.37h.38zm-1.96 0v.38h-.4v-.37h.4zm.62 0v.38h-.37v-.37h.37zm-22.7 0v.38h-.4v-.37h.4zm37.22-3.7l-.7 1.3h1.62c.18 0 .33.04.45.1.13.04.24.12.33.23.08.08.13.2.17.3.02.1.04.18.05.27V32.43h1.16v-2.9h.37v2.9h1.15c-.03-.08-.06-.16-.08-.26-.02-.08-.03-.17-.03-.27 0-.2.05-.36.1-.52.08-.15.17-.3.3-.42.1-.12.24-.2.4-.28.15-.07.32-.1.5-.1.2 0 .36.02.52.1.16.06.3.16.42.28.12.1.2.25.28.4.06.18.1.35.1.54 0 .14-.02.28-.06.4l-.05.14h1.13c-.03-.08-.06-.17-.08-.26-.02-.08-.03-.18-.03-.27 0-.18.04-.35.1-.5.07-.17.16-.3.27-.43.1-.12.25-.2.4-.28.16-.08.33-.12.5-.12.2 0 .37.03.53.1.16.07.3.16.42.28.12.12.2.26.28.42.06.16.1.33.1.53 0 .15-.02.28-.06.4l-.05.14h1.25v-2.9h.37v3.26h-1.84c-.12.13-.26.24-.43.3-.17.08-.36.1-.55.1-.2 0-.36-.03-.52-.1-.13-.06-.24-.13-.33-.2l-.1-.1h-1.6c-.1.12-.25.23-.42.3-.17.07-.35.1-.54.1-.18 0-.36-.03-.52-.1-.12-.06-.23-.13-.33-.22l-.1-.1h-7.2c-.18 0-.37 0-.56-.06-.2-.04-.35-.12-.5-.22-.12-.1-.23-.23-.3-.38-.1-.16-.13-.34-.13-.55 0-.17.03-.34.1-.5.07-.15.18-.27.3-.4.14-.1.3-.2.48-.25.14-.05.3-.07.45-.1h.73v2.1h3.36v-.55c0-.1-.02-.18-.04-.26-.02-.08-.06-.14-.1-.2-.06-.06-.13-.1-.2-.14-.07-.03-.13-.04-.2-.05H363.2c-.04-.04-.07-.1-.1-.16-.02-.03-.03-.08-.04-.13v-.06l.68-1.3h.4zm9.26 1.4c-.14 0-.26.04-.38.1-.1.04-.2.1-.3.2-.06.08-.13.2-.18.3-.05.1-.07.24-.07.37s.02.25.07.37.12.2.2.3c.1.1.18.15.3.2.1.05.23.08.36.08.14 0 .27-.02.38-.07.12-.05.22-.1.3-.2.1-.08.16-.2.2-.3.06-.1.1-.24.08-.38 0-.14-.03-.27-.07-.38-.06-.12-.13-.22-.22-.3-.08-.1-.18-.16-.3-.2-.12-.06-.24-.08-.38-.08zm-3.52 0c-.13 0-.26.04-.37.1-.1.04-.2.1-.28.2-.08.08-.14.2-.2.3-.04.1-.06.24-.06.37s.02.25.07.37.1.2.2.3c.08.1.18.15.3.2.1.05.22.08.36.08.13 0 .25-.02.37-.07.1-.05.22-.1.3-.2.08-.08.16-.2.2-.3.05-.1.08-.24.07-.38 0-.14-.02-.27-.07-.38-.05-.12-.12-.22-.2-.3-.1-.1-.2-.16-.3-.2-.12-.06-.25-.08-.4-.08zm-26.33-1.38v3.26h-.36v-3.25h.35zm34.1 0v3.26h-.37v-3.25h.36zm-30.24.8v2.1h1.46v-2.1h.35v2.1h1.38v-2.1h.36v2.46h-4.1c-.2 0-.4 0-.58-.06-.18-.04-.34-.12-.48-.22-.13-.1-.24-.23-.32-.38-.08-.16-.12-.34-.12-.55 0-.18.03-.35.1-.5.07-.16.18-.28.3-.4.14-.1.3-.2.48-.26.14-.05.3-.07.45-.1h.74zm11.07-.8v3.26h-.36v-3.25h.37zm-30.06.78c.18 0 .32.03.44.08.12.07.23.15.33.25.07.1.14.2.17.32.03.1.04.17.05.27v1.56h-2.06v-.36h1.7V31.4c0-.12 0-.2-.03-.3-.02-.07-.05-.14-.1-.2-.06-.06-.12-.1-.2-.15-.05-.02-.1-.04-.16-.05h-.4v-.37h.27zm-3.37 0v2.1h1.44v-2.1h.36v2.47h-2.38c-.2 0-.38-.02-.57-.07-.17-.04-.34-.12-.47-.22-.12-.1-.23-.2-.3-.37-.1-.15-.13-.34-.13-.55 0-.17.03-.34.1-.5.07-.14.18-.27.3-.38.14-.12.3-.2.48-.27.13-.04.28-.07.45-.08h.73zm-.36.38h-.37c-.1 0-.23.03-.35.07-.12.05-.23.1-.32.18-.1.08-.16.17-.22.28-.05.1-.07.22-.07.35 0 .13.02.25.07.37.05.1.12.2.2.27.1.07.2.13.32.17.08.02.17.03.25.04h.49v-1.73zm22.38 0h-.36c-.13 0-.25.02-.37.07-.12.04-.22.1-.3.17-.1.08-.18.17-.24.28-.07.1-.1.23-.1.35 0 .14.03.26.08.37.05.1.12.2.2.28.1.07.2.12.32.17.08 0 .17.03.25.04h.49V30.7zm-15.36.02h-.38c-.12 0-.24.02-.36.06-.12.04-.23.1-.32.18-.1.07-.16.17-.22.27-.05.12-.08.24-.08.36 0 .13.03.25.07.35.06.1.13.2.23.27s.2.13.3.17c.1 0 .18.03.26.04h.49v-1.72zm2.3-.02c-.15 0-.3.03-.44.1-.1.03-.22.1-.33.17l-.1.08.56 1.4v-.02h.65l.56-1.4c-.1-.08-.24-.16-.4-.23-.16-.06-.32-.1-.5-.1zm27.97 0h-.36c-.1 0-.23.02-.35.07-.12.04-.23.1-.32.17-.1.08-.17.17-.22.28-.05.1-.08.23-.08.35 0 .14.03.26.08.37.05.1.12.2.2.28.1.07.2.12.32.17.08 0 .16.03.25.04h.5V30.7zm-7.53 0c-.15 0-.3.03-.46.1-.1.03-.2.1-.32.17l-.1.08.56 1.4h.65l.57-1.4c-.12-.1-.25-.18-.4-.25-.17-.06-.34-.1-.5-.1zm7.9-1.15v.37h-.4v-.37h.4zm-15.56 0v.37h-.38v-.37h.38zm-21.76 0v.37h-.37v-.37h.37zm36.67 0v.37h-.38v-.37h.37zm-37.3 0v.37H324v-.37h.37zm23 0v.37h-.36v-.37h.37zm-3.6-2.9l.92.86-.86.93-.92-.85.85-.94zm-1.2-1.18l.73.68-.7.75-.73-.7.7-.73zm2.36-.04l.74.7-.7.73-.73-.7.7-.74zm-5.9-.22l.26 1.25-1.24.25-.24-1.24 1.23-.25zm9.4-.16l1.25.15-.15 1.25-1.25-.15.15-1.26zm23.17-13.74c4.36 0 7.52 3.2 7.65 7.2V18.78c0 4.12-3.24 7.5-7.7 7.5-4.36 0-7.52-3.22-7.64-7.2v-.3c0-4.1 3.23-7.48 7.7-7.48zm-8.75.24v2.4l-3.65 3.5c1.9.3 3.77 1.3 3.87 3.8v.29c0 2.73-1.97 4.73-5.2 4.73-2.48 0-4.23-.96-5.46-2.32l-.16-.18 2.18-2.1c1 1.12 2.03 1.74 3.5 1.74 1.13 0 1.95-.6 2.03-1.6v-.19c0-1.13-.97-1.78-2.6-1.83h-1.55l-.5-2.03 4.64-4.67-1.87 1.2h-5v-2.73h9.75zM340.73 24.9l.2 1-1 .2-.2-1 1-.2zm-12.07-13.56c2.9 0 4.86 1.66 4.97 4.24v.26c0 2.33-1.15 3.53-3.52 5.4l-.26.2-3.16 2.44-.6.48 2.2-1.1h5.5V26h-10.7v-2.5l4.82-3.95c1.8-1.5 2.5-2.28 2.5-3.48 0-1.22-.8-1.88-1.94-1.88-1.05 0-1.8.54-2.77 1.7l-.2.24-2.22-1.8c1.42-1.95 2.8-3 5.38-3zm18.13 13.44l1 .13-.13 1.02-1-.13.12-1.02zm-3.03-.1l.58.53-.54.6-.57-.55.54-.58zm-2.1-.28l.58.54-.53.58-.58-.54.54-.58zm3.76.06l.78.1-.1.8-.77-.1.1-.8zm-2.66-.7l.58.53-.53.57-.58-.54.53-.58zm1.74-.03l.6.53-.55.58-.58-.53.54-.57zm-5.7-.18l.2 1-1 .2-.2-1 1-.2zm1.4.05l.16.78-.78.15-.15-.77.77-.16zm8.5-.24l1 .13-.12 1-1-.13.1-1zm-1.42.1l.78.1-.1.78-.78-.1.1-.78zm-5.92-.2l.15.8-.76.14-.16-.78.78-.15zm4.58.03l.78.1-.1.78-.78-.1.1-.8zm-2.26-.05l.4.37-.37.4-.4-.36.38-.4zm-1.52-.28l.4.38-.36.4-.4-.38.36-.4zM345 23l.55.08-.07.55-.56-.06.07-.56zm26.6-8.77c-2.5 0-4.24 1.9-4.34 4.3v.25c0 2.48 1.8 4.54 4.37 4.54 2.48 0 4.23-1.9 4.33-4.28v-.26c0-2.5-1.82-4.55-4.37-4.55zm-31.67 8.04l.16.78-.8.15-.14-.77.77-.16zm-1.75-.16l.72.34-.33.72-.7-.33.3-.72zm9.15.15l.8.1-.1.78-.8-.1.1-.78zm-6.36.14l.1.54-.54.1-.1-.54.54-.1zm8.22-.47l.37.7-.7.38-.37-.7.7-.37zm-2.82.42l.55.07-.07.56-.55-.07.08-.55zm-9.7-.76l.93.42-.4.92-.94-.42.43-.93zm14-.3l.5.88-.9.5-.48-.9.9-.5zm-15.75-.54l1.16.53-.54 1.14-1.15-.53.53-1.14zm8.68-6.1c.04.18.1.35.16.5l.05.1.05.08c.17-.24.42-.35.66-.32.1 0 .2.03.28.08.08.05.15.1.22.2-.06-.03-.14-.05-.22-.06-.1 0-.18 0-.27.04-.13.04-.25.1-.34.24.1-.03.23-.06.35-.06.1 0 .18.02.28.04.13.04.26.1.37.2.14.12.24.3.26.5-.03-.04-.1-.16-.25-.26-.1-.06-.2-.12-.37-.15-.08-.02-.17-.03-.27-.03-.03 0-.08 0-.12 0 .04.02.08.03.13.04.1.03.18.08.28.13.13.08.27.2.37.36.14.22.2.53.1.94 0-.15-.03-.3-.1-.47-.06-.2-.18-.37-.37-.5-.05-.04-.1-.08-.17-.1l-.1-.05-.1-.03.1.1c.12.13.2.25.28.38.2.42.17.84.04 1.16l-.05.1c0-.03 0-.05 0-.08 0-.1 0-.2 0-.33 0-.22-.08-.48-.26-.7-.05-.1-.12-.16-.2-.23.1.2.4.98-.2 1.68.1-.25.24-1.1-.24-1.4-.06.63-.16 1.88.06 3.23.2-.14.4-.28.6-.4.1-.05.17-.1.26-.15.1-.05.2-.1.32-.14 0 0 .03 0 .06 0 .2-.1.4-.14.6-.16.56-.1 1.04 0 1.38.1.23.07.4.16.5.22 0 0 0 .02-.03.02-.16-.05-.32-.08-.5-.1-.48-.1-.94-.05-1.37.07-.2.06-.4.14-.6.23-.12.06-.25.14-.37.2-.1.06-.18.12-.27.18-.2.14-.42.3-.6.46.2.2.4.37.6.54.08.1.18.16.26.24.14.13.27.23.37.3.05.03.1.06.13.08.07-.1.2-.15.33-.12.04.02.1.05.13.08.05.04.08.1.1.16 0 .08 0 .17-.04.23l-.04.03-.03.03c-.17.13-.37.12-.6 0-.1-.06-.24-.16-.37-.26-.08-.07-.17-.15-.27-.23-.18-.15-.36-.33-.56-.5l-.2-.2-.14-.13c-.06.04-.1.1-.16.13-.6.55-1.07 1.07-1.47 1.24-.2.08-.38.07-.53-.08-.07-.06-.1-.17-.07-.27.02-.12.12-.22.23-.24.14-.03.26.02.33.12l.04-.02c.3-.17.77-.66 1.33-1.15-.4-.32-.84-.64-1.33-.86-.35-.16-.72-.27-1.12-.3-.37-.04-.75 0-1.15.1-.04 0-.07.02-.1.04-.02 0-.03-.02-.02-.02.03-.03.07-.05.12-.07.2-.12.62-.28 1.15-.3.33 0 .7.03 1.12.16.05.02.1.03.15.05.4.17.8.42 1.18.72.2-1.26.13-2.44.08-3.1v-.12c-.5.3-.36 1.14-.26 1.38 0 0 0 .02 0 0-.6-.7-.3-1.47-.2-1.67-.53.44-.5 1.02-.48 1.33-.22-.42-.3-1.13.38-1.72-.55.13-.8.62-.84 1.03V17.25c-.1-.3-.08-.57 0-.77.17-.47.63-.67.86-.7-.45-.04-.7.1-.86.23-.07.07-.12.14-.14.18l-.02.03c0 .02 0 .02 0 0 0-.15.07-.3.17-.4.25-.3.73-.4 1.05-.26-.2-.3-.6-.34-.83-.23.3-.34.78-.38 1.07-.04l.06.1c.04-.07.07-.13.1-.2.06-.15.12-.32.15-.5zm8.8 5.74l.6 1.1-1.1.6-.6-1.1 1.1-.6zm-12.5.88l.1.55-.53.1-.1-.54.53-.12zm7.9-.16l.26.5-.5.26-.26-.5.5-.26zm-9.44-.4l.72.33-.33.72-.72-.33.33-.72zm10.57-.03l.38.68-.68.37-.38-.68.7-.38zm-11.7-.4l.7.34-.32.72-.7-.33.32-.72zm12.9-.27l.37.7-.7.37-.37-.7.7-.37zm-14.23-.68l.92.42-.42.92-.92-.42.42-.93zm2.87.53l.5.23-.23.52-.5-.24.23-.5zm9.76-.1l.27.48-.5.27-.26-.5.5-.26zm2.87-.76l.48.9-.88.48-.5-.9.9-.48zm-13.62.06l.72.33-.33.73-.72-.33.33-.72zm11.67-.06l.38.7-.7.38-.37-.7.7-.38zm-12.62-.8l.72.34-.33.72-.72-.33.33-.72zm13.25-.17l.7.34-.33.7-.7-.34.33-.7zm-11.53.3l.5.23-.23.5-.5-.23.23-.5zm9.93-.13l.5.24-.24.5-.5-.23.24-.5zm-12.22-1.27l.5.88-.88.5-.5-.88.88-.5zm1.86.27l.4.7-.7.38-.38-.68.68-.4zm11.02-.03l.72.33-.34.7-.7-.33.32-.7zm1.78-.55l.92.44-.44.9-.92-.43.44-.92zm-11.97.12l.27.5-.48.26-.28-.48.5-.28zm9.33-.08l.5.23-.24.5-.5-.24.24-.5zm-10.84-.47l.4.68-.7.4-.38-.68.68-.4zm12.28-.26l.7.34-.32.72-.72-.34.34-.7zm-14.4-.72l.63 1.1-1.1.62-.62-1.1 1.1-.62zm3.3.3l.4.7-.7.38-.4-.68.7-.4zm13.17-.63l1.13.54-.54 1.15-1.15-.53.54-1.15zm-3.2.62l.7.34-.33.72-.7-.34.32-.72zm-8.93-.13l.27.5-.48.27-.28-.5.5-.26zm-2.74-.73l.5.88-.87.5-.5-.88.87-.5zm10.95.7l.1.54-.55.1-.1-.54.55-.1zm2.3-.97l.9.43-.43.92-.9-.44.42-.9zm-11.84-.1l.38.7-.68.4-.4-.7.7-.4zm10.97-.06l.15.78-.77.14-.15-.78.78-.14zm-10.1-.07l.78.08-.08.8-.78-.1.08-.78zm8.85-.07l.14.78-.78.14-.15-.78.78-.14zm-7.7.2l.56.06-.05.56-.55-.06.06-.56zm6.48-.07l.1.55-.54.1-.1-.55.53-.1zm-1.65-.73l.4.38-.38.4-.4-.4.38-.38zm-3.45.12l.56.06-.07.56-.56-.06.06-.56zm4.9-.54l.15.78-.77.14-.14-.78.78-.14zm-2.96.1l.4.4-.4.4-.38-.38.37-.4zm-3.1-.08l.8.08-.1.8-.78-.1.07-.78zm-2.95-.28l1 .1-.1 1.02-1-.1.1-1.02zm1.6.13l.8.1-.1.78-.78-.1.08-.78zm10.18-.38l.18 1-1 .2-.18-1 1-.2zm-1.6.2l.15.77-.78.14-.14-.78.78-.14zm-3.22-.4l.57.55-.55.56-.56-.54.54-.57zm-1.9-.07l.56.55-.55.57-.57-.55.54-.57zm3-.56l.57.55-.54.56-.56-.55.54-.56zm-4.62.18l.8.1-.1.77-.78-.1.08-.78zm2.54-.5l.57.56-.55.57-.56-.55.54-.57zm-4.1-.05l1 .1-.1 1.02-1-.12.1-1zm7.97-.2l.18 1-1 .2-.18-1 1-.2zm-9.86-.3l1.26.14-.13 1.27-1.26-.14.14-1.26zm11.73-.25l.23 1.24-1.24.23-.23-1.26 1.23-.22zm-4.55-.28l.74.7-.7.74-.74-.7.7-.74zm-2.37 0l.74.7-.7.74-.73-.7.7-.74zm1.22-1.43l.93.88-.86.92-.94-.86.86-.93zm26.32-.32v.64h-.63v-.64h.64zm-1.26 0v.64h-.64v-.64h.64zm-26.96-6.73c1.74 0 2.94 1.33 3.02 2.9v.17c0 1.66-1.23 3.1-3.04 3.1-1.75 0-2.94-1.33-3.02-2.9v-.17c0-1.66 1.23-3.1 3.04-3.1zm33.1.1V6.4c0 .5-.13.88-.4 1.18-.3.3-.73.44-1.35.44-.2 0-.38-.03-.57-.08-.14-.03-.3-.08-.47-.14l-.18-.06.2-.6c.2.08.38.15.54.18.14.04.32.06.52.06.34 0 .6-.07.8-.2.16-.13.25-.33.27-.6v-.76l-.2.45h-.18c-.36 0-.7-.04-1-.12-.32-.1-.6-.2-.85-.38-.24-.17-.43-.4-.56-.66-.13-.26-.2-.58-.2-.95 0-.3.06-.6.2-.87.12-.27.3-.5.52-.7.23-.2.5-.34.83-.45.26-.1.54-.15.84-.16h1.22zm2.82 0V6.4c0 .25-.02.48-.06.67-.04.2-.1.37-.2.5-.1.15-.22.26-.38.33-.15.08-.34.12-.57.1-.12 0-.23 0-.34-.02l-.2-.04.18-.6c.08 0 .14.02.18.03.04 0 .1 0 .15 0 .13 0 .22 0 .3-.04.08-.04.14-.1.18-.17.05-.08.07-.18.1-.3 0-.1.02-.2.02-.33V1.96h.64zm-44.17-.08c.8 0 1.38.2 1.93.6l.17.13-.4.52c-.55-.45-1.1-.64-1.7-.64-.73 0-1.2.37-1.27.85V3.45c0 .57.3.88 1.6 1.16 1.26.3 1.87.73 1.94 1.55v.15c0 1.03-.84 1.7-2.03 1.7-.85 0-1.58-.27-2.24-.8l-.18-.16.42-.5c.62.56 1.2.85 2.03.85.75 0 1.26-.4 1.32-.92V6.36c0-.55-.3-.87-1.53-1.13-1.3-.28-1.93-.7-2-1.57V3.5c0-.95.83-1.63 1.95-1.63zm-9.76.08l.37.9 1.76 4.24.16.4-.07-.66 2.02-4.9h.72l-2.55 6.02h-.6l-2.56-6h.75zm34.34 0v4.4c0 .17 0 .3.03.44.02.12.05.22.1.3.04.07.1.13.18.17.05.02.1.03.18.04l.1.02h10.9V1.96h.63v5.98H358.6c-.2 0-.4-.04-.56-.1-.1-.06-.2-.14-.3-.23l-.07-.1-.04-.05v.47h-1.32c-1.68 0-2.83-1.27-2.9-2.8v-.18c0-1.53 1.1-2.88 2.75-2.98h1.88zm-11.57 0l4.02 5.13-.28-.73v-4.4h.65v5.97h-.54l-4.2-5.37.36.87v4.5h-.66V1.95h.63zm-8.95 0V7.9h-.67V1.96h.67zm-7.27 0V7.9h-.67V1.96h.67zm11.45.53c-1.3 0-2.24 1-2.32 2.27v.17c0 1.37.98 2.47 2.34 2.47 1.3 0 2.25-1 2.32-2.28v-.17c0-1.37-.98-2.47-2.34-2.47zm16.1.08h-1.48c-1.27 0-2.18.97-2.25 2.2v.18c0 1.26.87 2.3 2.1 2.38h1.39c-.04-.1-.07-.2-.1-.32-.02-.14-.04-.3-.05-.5V2.76l.4-.2zm16.75.04h-1.18c-.16.03-.3.06-.46.12-.2.07-.38.17-.54.3-.16.14-.3.3-.4.5-.08.2-.13.4-.13.63 0 .24.04.45.14.63s.2.34.37.47c.16.13.34.23.55.3.15.04.3.07.48.08h.81V2.8l.35-.2zM356.77.7v.63h-.63V.7h.64zm1.27 0v.63h-.63V.7h.64zm16.6-.7v.45h-.43c-.1 0-.16.02-.2.05 0 .03-.03.07-.03.1V.85h.86v.48h-1.4V.8c0-.28.08-.48.2-.6.1-.1.25-.17.43-.2H374.63z" transform="translate(-322.64 .2)"/></svg>