<svg xmlns="http://www.w3.org/2000/svg" width="32" height="43"><path fill="#02BACC" d="M25.53 26.25c.08-.2.17-.35.27-.45.23-.24.8-.4 1.33-.57.9-.27 1.92-.58 2.43-1.47.5-.87.27-1.9.06-2.8-.13-.56-.27-1.14-.18-1.47.08-.32.5-.76.85-1.14.64-.7 1.38-1.47 1.38-2.52s-.74-1.83-1.4-2.52c-.35-.38-.76-.82-.84-1.12-.1-.34.05-.92.18-1.47.2-.9.45-1.94-.06-2.8-.5-.9-1.53-1.2-2.43-1.48-.54-.16-1.1-.33-1.33-.57-.24-.23-.4-.8-.57-1.33-.27-.9-.58-1.9-1.47-2.43-.87-.5-1.9-.27-2.8-.06-.56.13-1.14.27-1.47.18-.32-.1-.76-.5-1.14-.85C17.66.73 16.9 0 15.84 0 14.8 0 14 .74 13.32 1.4c-.38.35-.82.76-1.13.84-.34.1-.92-.05-1.47-.18-.92-.2-1.94-.44-2.82.06-.87.5-1.18 1.53-1.45 2.43-.16.54-.33 1.1-.57 1.33-.23.24-.8.4-1.33.57-.9.27-1.92.58-2.43 1.47-.5.87-.27 1.9-.06 2.8.13.56.27 1.14.17 1.47-.07.3-.5.74-.85 1.12C.74 14.02 0 14.8 0 15.84s.74 1.83 1.4 2.52c.35.38.76.82.84 1.13.08.32-.05.9-.18 1.45-.2.9-.45 1.94.06 2.8.5.9 1.53 1.2 2.43 1.48.54.16 1.1.33 1.33.57.1.1.2.26.27.45L.07 41.02c-.14.34-.06.73.2.98.18.16.4.24.6.24.14 0 .28-.03.4-.1l6.6-3.3 4.84 3.25c.24.14.52.17.77.1.26-.1.46-.28.55-.53l1.93-5.13 1.7 5.1c.08.26.3.46.54.55.25.08.54.04.77-.1l4.85-3.24 6.6 3.3c.1.05.25.08.38.08.22 0 .43-.08.6-.23.27-.24.35-.63.2-.97l-6.07-14.78zM15.03 34l-2.26 6-4.36-2.9c-.26-.17-.6-.2-.87-.05L2.6 39.52l4.46-10.87c.2.36.47.7.86.9.87.52 1.9.28 2.8.07.56-.13 1.13-.27 1.47-.18.3.1.74.5 1.12.85.25.23.5.46.8.68 0 .03 0 .06 0 .1l.95 2.84c-.02.03-.04.05-.05.1zm.8-4.08c-.34 0-.85-.48-1.3-.9-.57-.54-1.15-1.08-1.88-1.28-.24-.06-.48-.1-.72-.1-.53 0-1.07.14-1.6.26-.56.13-1.26.3-1.53.14-.3-.17-.5-.83-.66-1.42-.23-.75-.46-1.52-1-2.07-.56-.55-1.33-.78-2.08-1-.6-.18-1.25-.38-1.42-.67-.15-.27 0-.97.14-1.53.18-.76.36-1.56.16-2.32-.2-.73-.75-1.3-1.27-1.87-.43-.46-.9-.97-.9-1.32s.47-.86.9-1.3c.52-.57 1.07-1.15 1.27-1.9.2-.75.02-1.54-.16-2.3-.13-.57-.3-1.27-.14-1.54.17-.28.83-.48 1.42-.66.75-.23 1.52-.46 2.07-1 .55-.56.78-1.33 1-2.08.2-.58.4-1.25.67-1.4.27-.17.97 0 1.53.12.76.18 1.55.37 2.32.16.73-.2 1.3-.74 1.87-1.27.46-.42.97-.9 1.32-.9.34 0 .86.48 1.3.9.57.53 1.15 1.07 1.9 1.27.75.2 1.55.02 2.3-.16.57-.13 1.27-.3 1.54-.13.28.16.48.83.66 1.4.23.76.46 1.53 1 2.08.56.55 1.33.8 2.08 1 .58.2 1.25.4 1.4.67.17.27 0 .97-.12 1.53-.18.77-.36 1.56-.16 2.32.2.74.74 1.32 1.27 1.88.44.45.92.97.92 1.3 0 .36-.5.87-.9 1.33-.54.56-1.08 1.14-1.28 1.87-.2.76-.02 1.56.16 2.32.13.57.3 1.26.13 1.53-.16.3-.83.5-1.4.67-.76.22-1.53.46-2.08 1-.55.55-.78 1.33-1 2.07-.2.6-.4 1.25-.67 1.42-.27.15-.97 0-1.53-.14-.77-.18-1.56-.36-2.32-.16-.74.2-1.32.75-1.88 1.27-.45.44-.97.92-1.3.92zm8.32 7.13c-.28-.14-.62-.12-.88.06L18.95 40l-2.8-8.37c.9-.14 1.6-.76 2.2-1.33.4-.36.83-.77 1.14-.86.33-.1.9.05 1.46.18.9.2 1.93.44 2.8-.06.38-.22.64-.55.86-.9l4.47 10.86-4.95-2.47zm2.25-21.2c0-5.83-4.74-10.57-10.56-10.57S5.28 10.02 5.28 15.84 10.02 26.4 15.84 26.4 26.4 21.66 26.4 15.84zm-10.56 8.8c-4.85 0-8.8-3.96-8.8-8.8s3.95-8.8 8.8-8.8 8.8 3.94 8.8 8.8-3.95 8.8-8.8 8.8z"/></svg>