<svg xmlns="http://www.w3.org/2000/svg" width="93" height="92" viewBox="0 0 93 92">
    <path fill="#FFF" d="M60.778 5.902l25.368 25.364c7.872 7.889 7.872 20.659 0 28.548L60.778 85.177c-3.783 3.788-8.92 5.912-14.275 5.903-5.354.01-10.491-2.115-14.275-5.903L6.86 59.814c-7.853-7.896-7.853-20.652 0-28.548L32.228 5.902c7.89-7.87 20.661-7.87 28.55 0zM46.503 1.935c-4.84-.008-9.485 1.912-12.905 5.337L8.23 32.636c-7.096 7.139-7.096 18.667 0 25.806l25.368 25.364c7.13 7.117 18.678 7.117 25.809 0l25.368-25.364c7.12-7.13 7.12-18.677 0-25.806L59.407 7.272c-3.42-3.424-8.064-5.344-12.904-5.337zM58.791 19.98c1.826-.448 2.498-.072 2.508 1.265-.076 1.233-.065 2.47.031 3.7.204 1.317-.642 1.906-2.241 2.268-3.627.75-7.07 2.21-10.137 4.293-3.536 2.422-5.98 6.144-6.803 10.36-.187.852.324 1.337 1.547 1.337 1.984.012 3.97 0 5.955-.01 1.04.059 1.997-.568 2.362-1.546.568-1.28 1.374-2.44 2.375-3.418 1.468-1.249 3.307-1.974 5.229-2.063 1.059-.098 1.717.049 1.67.981-.106 2.1-.12 4.2-.17 6.301-.064 4.592.513 9.229-1.912 13.655-3.51 6.413-10.118 10.637-18.69 13.453-1.846.607-3.8 1.075-5.717 1.58-1.265.333-2.003.06-1.954-.98v-.273c.027-1.644-.6-3.535.27-4.868.87-1.333 3.77-1.472 5.747-2.186 7.424-2.676 11.58-6.992 12.787-12.804.157-.74.448-1.556-.407-2.229-2.297-.162-4.601-.196-6.901-.102-.922-.114-1.786.472-2.026 1.372-.346 1.402-.964 2.721-1.817 3.884-1.65 1.871-4.004 2.964-6.493 3.014-.638.051-1.145.115-1.135-.534.097-6.168-.522-12.416.998-18.47 1.989-7.92 9.42-13.06 19.403-16.406 1.79-.601 3.649-1.114 5.521-1.574z"/>
</svg>
