<svg xmlns="http://www.w3.org/2000/svg" width="33" height="33" viewBox="0 0 33 33">
    <defs>
        <linearGradient id="prefix__a" x1="100%" x2="0%" y1="98.431%" y2="1.569%">
            <stop offset="0%" stop-color="#0C9EE2"/>
            <stop offset="100%" stop-color="#00D0D3"/>
        </linearGradient>
    </defs>
    <path fill="url(#prefix__a)" d="M37.29.019l.095.008c.246.045.432.26.432.518v8.409h2.107v-2.73c-.45-.16-.804-.514-.963-.964-.291-.823.14-1.726.963-2.016.823-.291 1.725.14 2.016.963.291.823-.14 1.725-.963 2.016v2.73h1.054l.094.01c.246.044.432.259.432.517v1.054h1.58V8.857c-.45-.16-.804-.514-.963-.964-.29-.822.14-1.725.963-2.016.823-.29 1.726.14 2.017.963.29.823-.14 1.726-.963 2.017v2.203l-.009.095c-.045.246-.26.432-.518.432h-2.107v2.107h3.257c.222-.63.816-1.052 1.483-1.054.668 0 1.265.419 1.489 1.048.292.82-.136 1.723-.956 2.015-.821.293-1.723-.135-2.016-.956h-3.257V15.8l-.008.095c-.045.246-.26.432-.518.432h-2.107v1.053h1.58c.29 0 .527.236.527.527v1.15c.45.16.803.514.962.963.291.823-.14 1.726-.962 2.017-.823.29-1.726-.14-2.017-.963-.29-.823.14-1.726.963-2.016v-.624h-1.58l-.095-.009c-.245-.044-.432-.26-.432-.518v-1.58h-1.053v10.025h3.815l.067-.001c.834-.002 1.512.673 1.513 1.507 0 .367-.123.722-.35 1.01.31.296.485.706.485 1.134v.017c.006.879-.702 1.595-1.58 1.6h-8.953c-.873 0-1.58-.707-1.58-1.58-.003-.438.171-.858.483-1.166-.224-.276-.347-.621-.349-.977-.009-.496.228-.964.633-1.25-.116-1.334-1.18-2.867-2.136-4.23-.452-.645-.879-1.254-1.206-1.833-1.823-3.226-2.956-7.003-2.956-9.855 0-6.005 5.09-10.71 11.587-10.71zM23.597 30.547v1.054h-1.054v-1.054h1.054zm18.17-1.071h-8.953c-.291 0-.527.236-.527.526v.019c-.006.296.23.54.527.545h8.953c.29 0 .527-.236.527-.527v-.018c.005-.296-.23-.54-.527-.545zm-19.224.018v1.053H21.49v-1.053h1.053zm2.107 0v1.053h-1.053v-1.053h1.053zm-1.053-1.053v1.053h-1.054v-1.053h1.054zm9.32-1.037c-.262-.012-.484.192-.495.454l-.001.019c-.005.296.231.54.527.545h8.684c.291 0 .527-.236.527-.526 0-.018 0-.036-.002-.054-.024-.265-.26-.46-.525-.436h-8.684l-.03-.002zm3.847-26.32c-5.653.243-10.007 4.391-10.007 9.644 0 2.64 1.106 6.306 2.819 9.337.302.535.715 1.123 1.152 1.746.989 1.41 2.088 2.99 2.304 4.542h3.732v-5.835c-.14-.01-.283-.023-.436-.042-.223-.027-.405-.194-.451-.414l-.16-.763c-.133-.031-.264-.067-.396-.107l-.525.586c-.15.168-.391.221-.598.133-.59-.254-1.147-.58-1.658-.968-.18-.136-.253-.371-.183-.585l.242-.736c-.1-.093-.196-.19-.29-.29l-.736.242c-.214.07-.449-.004-.585-.183-.39-.511-.714-1.068-.968-1.658-.089-.207-.035-.448.133-.599l.586-.524c-.04-.13-.075-.261-.106-.392l-.82-.163c-.245-.05-.423-.266-.423-.517v-1.796c0-.25.178-.467.424-.516l.819-.164c.03-.13.066-.26.105-.39l-.585-.526c-.168-.15-.222-.39-.133-.598.254-.59.58-1.147.968-1.658.136-.179.37-.252.585-.183l.736.242c.093-.1.19-.197.29-.29l-.242-.737c-.07-.214.004-.45.183-.585.512-.388 1.068-.713 1.657-.967.208-.089.449-.035.6.133l.524.585c.132-.04.263-.075.396-.106l.16-.763c.047-.22.228-.387.452-.414.152-.02.295-.032.435-.042zm5.606 23.01l.922.509c-.164.293-.31.596-.435.907l-.98-.388c.143-.353.307-.696.493-1.028zm1.184-1.856l.865.602c-.2.288-.4.58-.591.876l-.885-.572c.198-.306.404-.608.611-.906zm1.199-1.752l.891.56c-.185.296-.392.6-.61.914l-.865-.601c.208-.3.406-.591.584-.873zm-3.25-.472c-.29 0-.526.236-.526.527 0 .29.236.526.527.526.29 0 .527-.236.527-.526 0-.291-.236-.527-.527-.527zm4.238-1.364l.95.454c-.157.33-.322.657-.495.98l-.929-.497c.165-.309.323-.62.474-.937zM36.764 6.12l-.088.415c-.044.21-.21.372-.422.41-.312.057-.619.14-.917.248-.202.071-.427.014-.57-.145l-.496-.552c-.274.137-.539.292-.792.465l.228.696c.067.203.004.427-.16.565-.242.207-.468.433-.674.676-.14.162-.362.225-.566.159l-.696-.229c-.172.254-.328.519-.465.793l.552.495c.16.143.217.369.145.57-.108.3-.19.606-.248.919-.038.212-.203.38-.415.422l-.736.147v.932l.736.148c.212.042.377.21.415.422.057.312.14.62.248.918.072.202.015.427-.145.57l-.553.496c.138.274.293.54.466.793l.696-.23c.203-.065.427-.002.566.16.206.243.431.468.674.674.164.139.227.363.16.567l-.229.696c.254.172.519.328.793.465l.496-.552c.1-.112.242-.176.392-.176.06 0 .12.01.178.031.298.108.605.19.918.248.21.038.378.2.422.41l.087.415v-1.812c-2.398-.27-4.21-2.296-4.214-4.709.004-2.412 1.816-4.438 4.214-4.709v-1.81zm9.8 10.597l.986.37c-.128.341-.264.68-.408 1.018l-.97-.412c.139-.324.27-.65.392-.976zm-9.8-7.721c-1.62.231-2.891 1.503-3.123 3.123-.288 2.012 1.11 3.878 3.123 4.166zm4.74 1.01h-3.687v5.268h3.687v-5.267zm5.793 3.688c-.29 0-.526.236-.526.526 0 .291.235.527.526.527.291 0 .527-.236.527-.527 0-.29-.236-.526-.527-.526zm1.58-3.071v.105c0 .323-.015.665-.044 1.015l-1.05-.089c.027-.32.041-.633.041-.926v-.097l1.053-.008zm-.268-2.242c.085.367.15.739.196 1.113l-1.047.125c-.04-.336-.098-.67-.175-.999zm-3.945-1.534c-.29 0-.526.236-.527.527 0 .29.236.526.527.526.29 0 .527-.236.527-.526 0-.291-.236-.527-.527-.527zm3.188-.595c.165.34.311.688.438 1.043l-.992.353c-.114-.318-.245-.63-.393-.935zm-1.205-1.907c.234.295.452.603.654.92l-.89.563c-.182-.286-.379-.562-.59-.828zm-6.197-.132c-.29 0-.526.236-.526.527 0 .291.236.527.526.527.291 0 .527-.236.527-.527 0-.29-.236-.527-.527-.527zm4.618-1.475c.29.24.567.494.83.762l-.75.738c-.239-.242-.49-.472-.751-.689zm7.496-.631V3.16h-1.053V2.107h1.053zm-9.36-.625c.331.18.655.375.963.582l-.588.874c-.28-.188-.574-.366-.875-.529zm10.413-.429v1.054h-1.053V1.053h1.053zm-2.106 0v1.054h-1.054V1.053h1.054zM41.14.61c.358.114.713.244 1.052.389l-.412.969c-.309-.131-.632-.25-.96-.355zM38.954.125c.37.048.742.113 1.104.193l-.228 1.029c-.331-.074-.671-.133-1.01-.177zM52.565 0v1.053H51.51V0h1.053z" transform="translate(-20.662 .562)"/>
</svg>
