<svg xmlns="http://www.w3.org/2000/svg" width="31" height="32" viewBox="0 0 31 32">
    <defs>
        <linearGradient id="prefix__a" x1="100%" x2="0%" y1="99.971%" y2=".029%">
            <stop offset="0%" stop-color="#0C9EE2"/>
            <stop offset="100%" stop-color="#00D0D3"/>
        </linearGradient>
    </defs>
    <path fill="url(#prefix__a)" d="M42.456.126l.091.005 2.992.427c.276.04.467.295.428.57l-.28 1.961c-.02.134.015.27.097.377.168.222.484.266.706.097l1.584-1.188c.223-.167.539-.122.706.1l1.814 2.42c.167.223.122.538-.1.705L48.908 6.79c-.107.08-.178.2-.197.332-.04.276.153.53.428.57l1.96.28h.002l.088.022c.227.075.374.304.339.55l-.427 2.993-.021.089c-.076.226-.305.374-.55.338l-1.96-.28c-.202-.032-.404.065-.504.243-.107.174-.095.397.03.56l1.188 1.583c.167.223.122.539-.101.706l-2.42 1.814c-.222.167-.538.122-.705-.1l-1.188-1.585c-.08-.107-.2-.177-.332-.196-.276-.04-.531.152-.57.428l-.28 1.96c-.036.249-.249.433-.5.433-.023 0-.047-.002-.07-.005l-2.994-.428-.09-.02c-.226-.076-.373-.305-.338-.55l.28-1.96c.019-.133-.016-.267-.096-.373-.166-.223-.482-.269-.705-.102l-1.585 1.188c-.222.167-.538.122-.705-.101l-1.815-2.42c-.167-.222-.121-.538.101-.705l1.584-1.188c.107-.08.178-.2.197-.332.04-.275-.152-.53-.428-.57l-1.96-.28c-.277-.04-.468-.295-.429-.57l.428-2.994.021-.089c.076-.227.305-.374.55-.339l1.96.28c.202.03.401-.066.504-.242.108-.175.095-.397-.03-.56l-1.188-1.584c-.08-.106-.115-.24-.096-.373.006-.019.012-.037.02-.055-2.927.01-5.645 1.52-7.203 3.998-2.51 3.994-1.306 9.267 2.688 11.777.984.613 1.587 1.686 1.6 2.845v2.037c0 .556.45 1.008 1.007 1.008h4.032c.557 0 1.008-.452 1.008-1.008v-1.995c.013-1.182.625-2.276 1.626-2.904.374-.242.73-.514 1.062-.812l.672.751c-.371.333-.768.636-1.186.907-.713.443-1.152 1.218-1.166 2.058v1.995c-.002.717-.386 1.378-1.008 1.735v2.8c0 1.114-.903 2.017-2.016 2.017h-2.016c-1.113 0-2.016-.903-2.016-2.016v-2.8c-.622-.358-1.006-1.02-1.008-1.736v-1.437l-.783.785c-.172.172-.442.197-.642.059l-1.392-.958-.349 1.657c-.049.233-.255.4-.493.4h-2.016c-.24 0-.445-.169-.493-.403l-.348-1.657-1.393.96c-.2.138-.47.114-.642-.058l-1.512-1.512c-.172-.172-.197-.442-.059-.642l.958-1.393-1.657-.348c-.233-.05-.4-.255-.4-.493v-2.016c0-.238.164-.443.396-.494l1.657-.348-.958-1.393c-.138-.2-.113-.47.059-.642l1.512-1.512c.172-.172.442-.196.642-.058l1.395.962.349-1.656c.047-.235.253-.403.493-.403h.15c.008-.142.013-.284.026-.426.438-4.496 3.957-8.074 8.444-8.587.685-.073 1.376-.073 2.061 0l1.515-1.137c.223-.167.538-.121.705.101l1.188 1.585c.08.107.2.178.332.196.276.04.531-.152.57-.427l.28-1.961.022-.089c.075-.226.304-.374.55-.338zm-4.027 27.72h-4.032v.504c0 .556.451 1.008 1.008 1.008h2.016c.557 0 1.008-.452 1.008-1.008v-.504zm0-2.016h-4.032v1.008h4.032V25.83zm5.544-3.024v3.528h-1.008v-3.528h1.008zm1.835-1.396l3.024 2.52-.645.774-3.024-2.52.645-.774zm-8.89.892v1.512h-1.009v-1.512h1.008zm-9.98-9.242l-.089.42c-.027.13-.08.254-.156.364-.315.458-.943.574-1.402.258l-1.048-.721-.918.916.722 1.05c.075.108.127.23.154.36.116.545-.232 1.08-.777 1.195l-1.256.265v1.197l1.256.265c.131.027.255.08.365.157.458.316.574.944.257 1.402l-.72 1.046.917.916 1.048-.72c.11-.075.234-.128.364-.156.545-.114 1.08.234 1.194.779l.264 1.257h1.198l.264-1.259c.028-.13.081-.254.157-.364.316-.459.943-.574 1.402-.258l1.047.721 1.08-1.079c-.18-.533-.539-.989-1.015-1.29-.299-.192-.586-.402-.861-.627-.46.894-1.334 1.502-2.332 1.62-1.658.198-3.163-.986-3.36-2.644-.198-1.658.986-3.163 2.644-3.36-.185-.557-.319-1.13-.4-1.71zm5.71-7.313l.54.853c-1.096.69-1.941 1.712-2.412 2.918-1.216 3.11.321 6.618 3.433 7.834 1.632.625 2.71 2.193 2.708 3.942H35.91c0-1.333-.822-2.528-2.066-3.004-1.406-.55-2.599-1.535-3.403-2.812-2.078-3.297-1.088-7.654 2.209-9.73zm16.87 13.027v1.008h-3.529v-1.008h3.528zM27.73 15.75h-.02c-.85-.002-1.61.53-1.897 1.331-.377 1.046.166 2.2 1.212 2.576 1.047.376 2.2-.167 2.576-1.213-.774-.784-1.407-1.695-1.87-2.694zM42.904 1.2l-.209 1.462c-.056.397-.269.755-.59.995-.667.501-1.615.366-2.116-.302l-.886-1.181-1.613 1.21.889 1.181c.24.321.344.725.287 1.122-.118.827-.885 1.4-1.711 1.282l-1.462-.208-.285 1.995 1.462.209c.397.056.755.269.995.59.501.667.366 1.615-.302 2.116l-1.18.886 1.209 1.613 1.18-.886c.322-.24.725-.344 1.122-.287.827.119 1.401.885 1.283 1.711l-.209 1.462 1.995.285.205-1.464c.056-.396.269-.755.59-.995.667-.501 1.615-.366 2.116.302l.886 1.18 1.613-1.209-.886-1.18c-.24-.321-.344-.725-.287-1.122.118-.826.884-1.4 1.71-1.283l1.462.209.287-1.995-1.462-.209c-.397-.056-.755-.268-.995-.59-.501-.667-.366-1.615.302-2.116l1.181-.886-1.21-1.613-1.18.886c-.321.24-.724.344-1.121.287-.827-.118-1.401-.884-1.283-1.71l.208-1.462-1.995-.285zm-.072 3.595c2.226.002 4.03 1.806 4.032 4.032 0 2.226-1.805 4.032-4.032 4.032-2.227 0-4.032-1.806-4.032-4.032 0-2.227 1.805-4.032 4.032-4.032zm0 1.008c-1.67 0-3.024 1.353-3.024 3.024 0 1.67 1.354 3.024 3.024 3.024 1.67-.002 3.022-1.355 3.024-3.024 0-1.67-1.354-3.024-3.024-3.024zM25.706 7.7l.245.978-4.032 1.007-.244-.977L25.706 7.7zm-2.609-4.96l3.528 2.52-.585.82-3.528-2.52.585-.82zM27.807 0l1.03 4.032-.976.25L26.831.25l.976-.25z" transform="translate(-21.061 .822)"/>
</svg>
