<svg id="Group_3451" data-name="Group 3451" xmlns="http://www.w3.org/2000/svg" xmlns:xlink="http://www.w3.org/1999/xlink" width="381.112" height="396.425" viewBox="0 0 381.112 396.425">
  <defs>
    <clipPath id="clip-path">
      <path id="Path_3336" data-name="Path 3336" d="M867.361,1191.334a8.133,8.133,0,0,1,1.043,3.865,3.189,3.189,0,0,1-1.932,2.883,8.285,8.285,0,0,1-6.472.123c-3.006-1.472-2.454-4.57-3.037-5.8-.583-.828-1.38-1.626-4.969-3.006-4.754-1.871-4.264-6.717-3.773-9.325,0,0,1.012-2.086,6.963,1.932Z" transform="translate(-847.921 -1179.536)"/>
    </clipPath>
    <clipPath id="clip-path-2">
      <path id="Path_3339" data-name="Path 3339" d="M702.7,1239.2s-5.153.245-8.834.337-7.822,1.5-4.509,7.331c2.392,3.742,7.607,5.4,11.441,5.245a18.068,18.068,0,0,1,5.644.43c-.153.644,1.166,1.626,3.4,2.362,1.963.644,5.8,1.2,8.282-.552a2.638,2.638,0,0,0,1.1-1.963,79.422,79.422,0,0,0-.245-8.558Z" transform="translate(-688.15 -1239.2)"/>
    </clipPath>
    <clipPath id="clip-path-3">
      <path id="Path_3368" data-name="Path 3368" d="M706.416,753.124a70.315,70.315,0,0,1-.736,14.048c-.245,1.411-.583,2.7-.889,3.926-1.1,4.386-2.086,7.668.583,9.846.184.153.4.307.613.46.061.031.123.092.184.123.153.092.307.215.491.307.061.031.153.092.215.123a6.479,6.479,0,0,0,.644.337.107.107,0,0,1,.061.031,5.792,5.792,0,0,0,.767.337,1.091,1.091,0,0,1,.276.123c.184.061.368.153.552.215a1.288,1.288,0,0,1,.307.123,5.3,5.3,0,0,1,.644.215.723.723,0,0,0,.245.061c.276.061.552.153.828.215l.368.092c.184.031.368.061.521.092a1.8,1.8,0,0,0,.4.061c.184.031.368.061.583.092.153.031.307.031.46.061a6.464,6.464,0,0,0,.767.061,2.329,2.329,0,0,1,.46.031,2.973,2.973,0,0,1,.521.031h1.012a2.024,2.024,0,0,0,.429-.031h0a19.677,19.677,0,0,0,4.356-.767c5.859-1.779,19.416-8.742,19.6-11.594a18.153,18.153,0,0,0-2.117-8.8c-1.38-2.791.429-6.963,1.656-8.926,1.043-1.656,4.294-6.441,5.8-9.079a2.384,2.384,0,0,1,.767-.8v.031a14.852,14.852,0,0,0,5.153-1.074,9.809,9.809,0,0,0,6.135-5.429,3.641,3.641,0,0,0,.061-2.607,38.617,38.617,0,0,1-2.239-8.19c-.521-3.619-4.049-12.7-20.305-12.668,0,0-2.73,7.147-14.447,6.779-12.821-.43-23.281,13.312-27.268,25.244-.184.583,1.626,2.024,2.055,2.423a18.422,18.422,0,0,0,10.49,4.478h0Zm10.03-1.564a1.1,1.1,0,0,1-.123.337A2.326,2.326,0,0,1,716.446,751.56Zm.184-.583c-.031.123-.061.215-.092.337A1.088,1.088,0,0,1,716.63,750.977Zm.153-.583c-.031.092-.061.215-.092.307C716.722,750.609,716.753,750.486,716.783,750.394Zm.123-.552c-.031.092-.031.215-.061.307C716.875,750.026,716.875,749.934,716.906,749.842Zm-1.135-3.006.061-.061h0Zm-.368.491a1.684,1.684,0,0,1,.215-.276A1.681,1.681,0,0,0,715.4,747.327Zm-.337.46c.061-.092.123-.153.184-.245C715.188,747.633,715.127,747.695,715.065,747.787Zm-.307.429a1.076,1.076,0,0,0,.153-.245A1.714,1.714,0,0,1,714.759,748.216Zm-.307.429c.061-.061.092-.153.153-.215A.93.93,0,0,1,714.452,748.646Zm-.245.4a.93.93,0,0,1,.153-.215A.93.93,0,0,0,714.207,749.044Zm-.245.4a1.337,1.337,0,0,0,.123-.215A1.337,1.337,0,0,0,713.961,749.443Zm-.245.368c.031-.061.092-.153.123-.215A.77.77,0,0,1,713.716,749.811Zm-.276.429c.031-.061.092-.123.123-.184C713.532,750.118,713.471,750.179,713.44,750.241Zm-.215.337c.031-.061.061-.092.092-.153C713.286,750.486,713.256,750.517,713.225,750.578Zm-.184.307c.031-.031.061-.092.092-.123A.424.424,0,0,0,713.041,750.885Zm-.215.276c.031-.031.061-.092.092-.123A.424.424,0,0,1,712.826,751.161Zm-.184.307c.031-.031.031-.061.061-.092C712.673,751.406,712.642,751.437,712.642,751.468Zm-.276.307c0-.031.031-.031.031-.061C712.4,751.744,712.4,751.744,712.366,751.774Zm-.245.307.092-.092Zm-.061,10.337c-.031.092-.061.153-.092.245A2.115,2.115,0,0,0,712.06,762.418Zm.215-.583-.092.276Zm.215-.583-.092.276Zm.245-.613a1.091,1.091,0,0,1-.123.276A1.091,1.091,0,0,0,712.734,760.639Zm.276-.644c-.031.092-.092.184-.123.276C712.918,760.209,712.949,760.117,713.01,759.995Zm.245-.613c-.031.092-.092.184-.123.276A1.085,1.085,0,0,0,713.256,759.381Zm.307-.675a3.2,3.2,0,0,0-.123.307A.92.92,0,0,1,713.563,758.706Zm.276-.675a3.18,3.18,0,0,0-.123.307A3.192,3.192,0,0,1,713.839,758.031Zm.4-.92a1.539,1.539,0,0,0-.153.4C714.145,757.357,714.176,757.234,714.237,757.111Zm.307-.705c-.061.123-.092.245-.153.368C714.452,756.621,714.483,756.529,714.544,756.406Zm.307-.705a1.538,1.538,0,0,0-.153.4A1.538,1.538,0,0,1,714.851,755.7Zm.307-.767-.184.46Zm.337-.859-.276.644A2.4,2.4,0,0,0,715.495,754.075Zm.276-.644c-.061.153-.123.337-.184.491C715.648,753.768,715.71,753.615,715.771,753.431Zm.245-.644c-.061.123-.092.276-.153.4A3.436,3.436,0,0,1,716.016,752.786Zm.215-.613c-.031.123-.092.245-.123.368C716.139,752.418,716.2,752.3,716.231,752.173Zm.705-5.276v.031c0-.031-.031-.061-.031-.092A.1.1,0,0,1,716.937,746.9Zm.184,1.227v0Zm-.061-.828a.567.567,0,0,0-.061-.215A1.992,1.992,0,0,0,717.059,747.3Zm.061.4c0-.061-.031-.153-.031-.215A.523.523,0,0,0,717.121,747.695Zm-.092,1.626c-.031.092-.031.184-.061.276A.893.893,0,0,1,717.029,749.32Zm.061-.521c0,.092-.031.184-.031.276C717.059,748.983,717.09,748.891,717.09,748.8Zm.031-.46v0Zm-5.337,14.876a.568.568,0,0,0,.061-.215A.567.567,0,0,1,711.783,763.215Zm-.153.521a1.969,1.969,0,0,0,.061-.215A.444.444,0,0,1,711.63,763.737Zm-.123.491a1.332,1.332,0,0,1,.031-.153A.334.334,0,0,1,711.507,764.227Zm-.736-11.349h-.031a2.272,2.272,0,0,0,1.227-.644l-.031.031A1.975,1.975,0,0,1,710.771,752.878Zm-.429.092c.061,0,.123-.031.184-.031A.389.389,0,0,0,710.342,752.971Zm-.4.031c.061,0,.123-.031.184-.031C710.1,753,710,753,709.943,753Zm-.368.031a.389.389,0,0,0,.184-.031A.389.389,0,0,1,709.575,753.032Zm-.767.061h0Zm-.337.031h0Zm-.982,0h0Zm.613,0h0Zm-.307,0h0Zm-.951,0h0Zm.245,0h0Zm.276,0h0Zm-.736,0h0Z" transform="translate(-693.857 -714.2)"/>
    </clipPath>
    <clipPath id="clip-path-4">
      <path id="Path_3377" data-name="Path 3377" d="M866.592,765.6a45.919,45.919,0,0,1-.092,13.281,14.945,14.945,0,0,0,5.429-1.166c-1.2-2.73-1.166-6.564-2.055-10.459-.429-1.871-1.135-2.669-1.81-2.914A1.122,1.122,0,0,0,866.592,765.6Z" transform="translate(-866.5 -764.268)"/>
    </clipPath>
    <clipPath id="clip-path-5">
      <path id="Path_3386" data-name="Path 3386" d="M733.577,837.152c.859-4.846,7.576-15.521,5.214-18.312a.288.288,0,0,0-.46,0c-2.362,2.914-2.853,4.509-4.2,5.92a1.968,1.968,0,0,1-1.2.613,20.867,20.867,0,0,1-4.356.215,70.315,70.315,0,0,1-.736,14.048c-.245,1.411-.583,2.7-.89,3.926-1.1,4.386-2.086,7.668.583,9.846.184.153.4.307.613.46.061.031.123.092.184.123.153.092.307.215.491.307.061.031.153.092.215.123a6.491,6.491,0,0,0,.644.337.107.107,0,0,1,.061.031,5.792,5.792,0,0,0,.767.337,1.092,1.092,0,0,1,.276.123c.184.061.368.153.552.215a1.281,1.281,0,0,1,.307.123,5.308,5.308,0,0,1,.644.215.721.721,0,0,0,.245.061c.276.061.552.153.828.215l.368.092c.184.031.368.061.521.092a1.8,1.8,0,0,0,.4.061c.184.031.368.061.583.092.153.031.307.031.46.061a6.465,6.465,0,0,0,.767.061,2.319,2.319,0,0,1,.46.031,2.979,2.979,0,0,1,.521.031h1.012a2.027,2.027,0,0,0,.429-.031h0C739.221,848.409,732.688,842.151,733.577,837.152Z" transform="translate(-725.825 -818.725)"/>
    </clipPath>
  </defs>
  <g id="Group_3361" data-name="Group 3361" transform="translate(0 33.35)">
    <g id="Group_3336" data-name="Group 3336">
      <g id="Group_3335" data-name="Group 3335">
        <path id="Path_3251" data-name="Path 3251" d="M85.639,109.117c-1.043-.613-2.485-.521-4.049.4l-75.916,43.8A12.684,12.684,0,0,0,0,163.163L.46,328.521a3.939,3.939,0,0,0,1.656,3.619l3.773,2.178A3.939,3.939,0,0,1,4.233,330.7l-.46-165.358a12.58,12.58,0,0,1,5.674-9.815l75.916-43.832a4.045,4.045,0,0,1,4.049-.4Z" transform="translate(0 -108.727)" fill="#e5e5e5"/>
        <g id="Group_3334" data-name="Group 3334" transform="translate(3.773 2.192)">
          <path id="Path_3252" data-name="Path 3252" d="M93.89,116.649c3.129-1.81,5.705-.337,5.736,3.251l.46,165.358a12.58,12.58,0,0,1-5.674,9.815L18.5,338.9c-3.129,1.81-5.705.337-5.736-3.251L12.3,170.3a12.58,12.58,0,0,1,5.674-9.815Z" transform="translate(-12.3 -115.874)" fill="#fff"/>
        </g>
      </g>
    </g>
    <g id="Group_3337" data-name="Group 3337" transform="translate(30.55 2.191)">
      <path id="Path_3253" data-name="Path 3253" d="M195.786,203.587a4.646,4.646,0,0,0-2.086,3.589c0,1.319.951,1.84,2.086,1.2l29.109-16.809a4.646,4.646,0,0,0,2.086-3.589c0-1.319-.951-1.84-2.086-1.2Z" transform="translate(-164.836 -164.837)" fill="#9ad2ff"/>
      <path id="Path_3254" data-name="Path 3254" d="M127.459,273.492a4.535,4.535,0,0,1,.153,1.2,7.04,7.04,0,0,1-.46,2.423c-.031.092-.061.153-.092.245,0,.031-.031.061-.031.123,0,.031-.031.061-.031.092-.031.061-.061.153-.092.215v.031a8.874,8.874,0,0,1-3.435,4.079c-2.3,1.319-4.172.245-4.172-2.362a9.128,9.128,0,0,1,4.141-7.177C125.343,271.222,126.968,271.774,127.459,273.492Zm-4.018,7.177a6.883,6.883,0,0,0,3.129-5.4c0-1.994-1.411-2.791-3.129-1.779a6.851,6.851,0,0,0-3.1,5.4c0,1.963,1.38,2.791,3.1,1.779" transform="translate(-113.257 -223.946)" fill="#fff"/>
      <path id="Path_3255" data-name="Path 3255" d="M105.7,173.826l.031,11.962,87.326-50.426-.031-11.962c0-3.589-2.577-5.061-5.736-3.251l-75.916,43.862A12.5,12.5,0,0,0,105.7,173.826Zm75-39.6a4.536,4.536,0,0,1-.153-1.2,7.441,7.441,0,0,1,.429-2.392v-.031c.031-.061.061-.153.092-.215.031-.031.031-.092.061-.123,0-.031.031-.061.031-.092.031-.061.061-.153.092-.215a9.04,9.04,0,0,1,3.466-4.11,4.667,4.667,0,0,1,1.84-.613,1.946,1.946,0,0,1,1.932,1.1c1.35,2.73-.859,7.392-3.742,9.079a4.668,4.668,0,0,1-1.84.613,1.879,1.879,0,0,1-1.9-1.1,1.6,1.6,0,0,1-.307-.705m-47.942,26.777a1.258,1.258,0,0,1-.031-.337,2.639,2.639,0,0,1,.031-.491,4.375,4.375,0,0,1,.767-1.84c.092-.123.153-.215.245-.337.031-.031.031-.061.061-.061.123-.123.215-.245.337-.368h0a2.917,2.917,0,0,1,.613-.46l18.465-10.644,10.644-6.165a1.758,1.758,0,0,1,.89-.276h.276a.967.967,0,0,1,.521.276l.061.061a1.472,1.472,0,0,1,.337.767,1.258,1.258,0,0,1,.031.337,3.479,3.479,0,0,1-.092.767,5.207,5.207,0,0,1-.675,1.534c-.092.123-.153.245-.245.368a1.984,1.984,0,0,1-.245.276.03.03,0,0,1-.031.031,2.763,2.763,0,0,1-.307.276c-.092.061-.153.123-.245.184l-.276.184-29.109,16.809a1.433,1.433,0,0,1-.307.153.443.443,0,0,1-.215.061,1.149,1.149,0,0,1-1.258-.337,2.7,2.7,0,0,1-.184-.307,3.185,3.185,0,0,1-.061-.46M110.27,175.728c-1.35-2.73.859-7.392,3.742-9.079a4.668,4.668,0,0,1,1.84-.613,1.879,1.879,0,0,1,1.9,1.1,4.82,4.82,0,0,1,.276.705,4.536,4.536,0,0,1,.153,1.2,7.441,7.441,0,0,1-.429,2.392,2.9,2.9,0,0,1-.092.276c0,.031-.031.061-.031.123,0,.031-.031.061-.031.092-.031.061-.061.153-.092.215a9.04,9.04,0,0,1-3.466,4.11,4.667,4.667,0,0,1-1.84.613,2.01,2.01,0,0,1-1.932-1.135" transform="translate(-103.828 -118.299)" fill="#6bf"/>
      <path id="Path_3256" data-name="Path 3256" d="M360.843,151.86a2.286,2.286,0,0,0-1.043,1.81c0,.675.46.92,1.043.583a2.369,2.369,0,0,0,1.043-1.81C361.886,151.768,361.426,151.523,360.843,151.86Z" transform="translate(-279.989 -140.716)" fill="#fff"/>
      <path id="Path_3257" data-name="Path 3257" d="M350.129,143.978c.031-.061.061-.153.092-.215.031-.031.031-.092.061-.123,0-.031.031-.061.031-.092a2.113,2.113,0,0,0,.092-.245,8.874,8.874,0,0,1,3.435-4.079c2.3-1.319,4.172-.245,4.172,2.362a9.128,9.128,0,0,1-4.141,7.177c-1.9,1.1-3.527.552-4.018-1.166a4.535,4.535,0,0,1-.153-1.2,7.441,7.441,0,0,1,.429-2.392Zm3.742,3.619a6.851,6.851,0,0,0,3.1-5.4c0-1.994-1.38-2.791-3.129-1.81a6.883,6.883,0,0,0-3.129,5.4c.031,1.994,1.411,2.791,3.159,1.81" transform="translate(-272.987 -131.668)" fill="#fff"/>
      <path id="Path_3258" data-name="Path 3258" d="M359.327,145.2a6.9,6.9,0,0,1-3.1,5.4c-1.718.982-3.129.184-3.129-1.779a6.849,6.849,0,0,1,3.129-5.4C357.916,142.408,359.3,143.236,359.327,145.2Zm-3.129,3.006a2.369,2.369,0,0,0,1.043-1.81c0-.675-.491-.92-1.043-.583a2.286,2.286,0,0,0-1.043,1.81c0,.644.46.92,1.043.583" transform="translate(-275.344 -134.669)" fill="#6bf"/>
      <path id="Path_3259" data-name="Path 3259" d="M130.443,284.86a2.37,2.37,0,0,0-1.043,1.81c0,.675.491.92,1.043.583a2.286,2.286,0,0,0,1.043-1.81C131.486,284.768,131.026,284.523,130.443,284.86Z" transform="translate(-120.259 -232.921)" fill="#fff"/>
      <path id="Path_3260" data-name="Path 3260" d="M128.857,278.2a6.849,6.849,0,0,1-3.129,5.4c-1.718.982-3.1.184-3.129-1.81a6.9,6.9,0,0,1,3.1-5.4C127.446,275.444,128.857,276.242,128.857,278.2Zm-3.129,3.006a2.286,2.286,0,0,0,1.043-1.81c0-.675-.46-.92-1.043-.583a2.369,2.369,0,0,0-1.043,1.81c0,.675.491.92,1.043.583" transform="translate(-115.545 -226.879)" fill="#6bf"/>
      <path id="Path_3261" data-name="Path 3261" d="M105.243,160.477l75.916-43.832a4.045,4.045,0,0,1,4.049-.4l1.871,1.1c-1.043-.613-2.485-.521-4.049.4l-75.885,43.832a12.5,12.5,0,0,0-5.674,9.815l.031,11.962-1.871-1.1L99.6,170.292A12.466,12.466,0,0,1,105.243,160.477Z" transform="translate(-99.599 -115.869)" fill="#5cade5"/>
    </g>
    <g id="Group_3360" data-name="Group 3360" transform="translate(33.832 47.491)">
      <g id="Group_3343" data-name="Group 3343" transform="translate(0.031 22.698)">
        <g id="Group_3338" data-name="Group 3338" transform="translate(1.932 10.644)">
          <path id="Path_3262" data-name="Path 3262" d="M193.628,372.547c1.166-.675,2.086-.123,2.086,1.2a4.563,4.563,0,0,1-2.086,3.589L118.786,420.52c-1.135.675-2.055.123-2.086-1.2a4.613,4.613,0,0,1,2.055-3.589Z" transform="translate(-116.7 -372.259)" fill="#9ad2ff"/>
        </g>
        <g id="Group_3339" data-name="Group 3339" transform="translate(1.902 1.074)">
          <path id="Path_3263" data-name="Path 3263" d="M193.528,341.347c1.166-.675,2.086-.123,2.086,1.2a4.563,4.563,0,0,1-2.086,3.589L118.686,389.32c-1.135.675-2.055.123-2.086-1.2a4.613,4.613,0,0,1,2.055-3.589Z" transform="translate(-116.6 -341.059)" fill="#9ad2ff"/>
        </g>
        <g id="Group_3342" data-name="Group 3342">
          <g id="Group_3340" data-name="Group 3340">
            <path id="Path_3264" data-name="Path 3264" d="M188.969,368.892a1.462,1.462,0,0,0-1.472.153l-74.842,43.188a4.613,4.613,0,0,0-2.055,3.589,1.449,1.449,0,0,0,.613,1.319l1.871,1.1a1.449,1.449,0,0,1-.613-1.319,4.613,4.613,0,0,1,2.055-3.589l74.842-43.187A1.463,1.463,0,0,1,190.84,370Z" transform="translate(-110.539 -359.186)" fill="#8cc1e5"/>
            <path id="Path_3265" data-name="Path 3265" d="M113.084,387.076a1.471,1.471,0,0,1-.613-1.35,4.613,4.613,0,0,1,2.055-3.589l74.842-43.187a1.462,1.462,0,0,1,1.472-.153l-1.871-1.1a1.462,1.462,0,0,0-1.472.153l-74.842,43.188a4.613,4.613,0,0,0-2.055,3.589,1.507,1.507,0,0,0,.613,1.35Z" transform="translate(-110.539 -337.556)" fill="#8cc1e5"/>
            <path id="Path_3266" data-name="Path 3266" d="M112.915,385.686a1.471,1.471,0,0,1-.613-1.35,4.613,4.613,0,0,1,2.055-3.589l51.96-30a1.462,1.462,0,0,1,1.472-.153l-1.871-1.1a1.462,1.462,0,0,0-1.472.153l-51.991,30a4.613,4.613,0,0,0-2.055,3.589,1.507,1.507,0,0,0,.613,1.35Z" transform="translate(-110.4 -345.737)" fill="#8cc1e5"/>
          </g>
          <g id="Group_3341" data-name="Group 3341" transform="translate(1.932 4.724)">
            <path id="Path_3267" data-name="Path 3267" d="M170.715,353.247c1.135-.675,2.086-.123,2.086,1.2a4.613,4.613,0,0,1-2.055,3.589l-51.96,30c-1.135.675-2.055.123-2.086-1.2a4.613,4.613,0,0,1,2.055-3.589Z" transform="translate(-116.7 -352.959)" fill="#9ad2ff"/>
          </g>
        </g>
      </g>
      <g id="Group_3349" data-name="Group 3349">
        <g id="Group_3345" data-name="Group 3345" transform="translate(22.852)">
          <path id="Path_3268" data-name="Path 3268" d="M186.886,293.844l51.96-30a1.462,1.462,0,0,1,1.472-.153l1.871,1.1a1.463,1.463,0,0,0-1.472.153l-51.96,30a4.563,4.563,0,0,0-2.086,3.589,1.507,1.507,0,0,0,.613,1.35l-1.871-1.1a1.471,1.471,0,0,1-.613-1.35A4.563,4.563,0,0,1,186.886,293.844Z" transform="translate(-184.8 -263.556)" fill="#2227cc"/>
          <g id="Group_3344" data-name="Group 3344" transform="translate(1.902 1.118)">
            <path id="Path_3269" data-name="Path 3269" d="M193.086,297.476A4.563,4.563,0,0,0,191,301.065c0,1.319.92,1.871,2.086,1.2l51.96-30a4.646,4.646,0,0,0,2.086-3.589c0-1.319-.951-1.84-2.086-1.2Z" transform="translate(-191 -267.203)" fill="#4e58e7"/>
          </g>
        </g>
        <g id="Group_3347" data-name="Group 3347" transform="translate(22.851 3.65)">
          <path id="Path_3270" data-name="Path 3270" d="M186.853,292.554l29.109-16.809a1.516,1.516,0,0,1,1.5-.153l1.871,1.1a1.519,1.519,0,0,0-1.5.153l-29.109,16.809a4.557,4.557,0,0,0-2.055,3.558,1.471,1.471,0,0,0,.613,1.35l-1.871-1.1a1.471,1.471,0,0,1-.613-1.35A4.355,4.355,0,0,1,186.853,292.554Z" transform="translate(-184.798 -275.456)" fill="#2227cc"/>
          <g id="Group_3346" data-name="Group 3346" transform="translate(1.872 1.099)">
            <path id="Path_3271" data-name="Path 3271" d="M192.955,296.142A4.557,4.557,0,0,0,190.9,299.7c0,1.35.92,1.871,2.086,1.2l29.109-16.809a4.646,4.646,0,0,0,2.086-3.589c0-1.319-.951-1.84-2.086-1.166Z" transform="translate(-190.9 -279.038)" fill="#4e58e7"/>
          </g>
        </g>
        <g id="Group_3348" data-name="Group 3348" transform="translate(0 24.871)">
          <path id="Path_3272" data-name="Path 3272" d="M131.024,364.394a7.238,7.238,0,0,0-3.343,6.533c0,3.129,1.963,3.159,1.994,4.11,0,1.534-3.773,3.527-5.674,7.177,1.718,1.288,4.264,1.288,7.085-.368a19.573,19.573,0,0,0,7.085-7.822c-1.932-1.442-5.705.92-5.705-.613,0-.951,1.963-3.251,1.963-6.38C134.367,363.934,132.926,363.321,131.024,364.394Z" transform="translate(-119.798 -357.996)" fill="#fa8a96"/>
          <path id="Path_3273" data-name="Path 3273" d="M119.624,345.916c2.607-1.5,4.938-1.626,6.656-.644l1.871,1.1c-1.687-.982-4.049-.859-6.656.644-5.184,2.975-9.355,10.214-9.325,16.165,0,2.669.859,4.632,2.3,5.705l-1.871-1.1c-1.411-1.074-2.27-3.037-2.3-5.705C110.269,356.13,114.44,348.922,119.624,345.916Z" transform="translate(-110.299 -344.64)" fill="#8d0018"/>
          <path id="Path_3274" data-name="Path 3274" d="M125.824,349.512c-5.184,2.975-9.355,10.214-9.325,16.165,0,2.669.859,4.632,2.3,5.705,1.9-3.65,5.674-5.644,5.674-7.177,0-.951-1.963-.982-1.994-4.11a7.3,7.3,0,0,1,3.343-6.533c1.9-1.1,3.343-.491,3.374,2.669,0,3.129-1.963,5.4-1.963,6.38,0,1.534,3.773-.828,5.705.613a18.874,18.874,0,0,0,2.239-8.312C135.179,348.93,130.977,346.537,125.824,349.512Z" transform="translate(-114.598 -347.132)" fill="#fdd0d5"/>
        </g>
      </g>
      <g id="Group_3357" data-name="Group 3357" transform="translate(0.123 44.783)">
        <g id="Group_3351" data-name="Group 3351" transform="translate(58.217)">
          <path id="Path_3275" data-name="Path 3275" d="M302.586,419.446l16.625-9.6a1.462,1.462,0,0,1,1.472-.153l1.871,1.1a1.462,1.462,0,0,0-1.472.153l-16.625,9.6a4.646,4.646,0,0,0-2.086,3.589,1.449,1.449,0,0,0,.613,1.319l-1.871-1.1a1.449,1.449,0,0,1-.613-1.319A4.517,4.517,0,0,1,302.586,419.446Z" transform="translate(-300.5 -409.556)" fill="#5cade5"/>
          <g id="Group_3350" data-name="Group 3350" transform="translate(1.871 1.074)">
            <path id="Path_3276" data-name="Path 3276" d="M308.686,422.948a4.646,4.646,0,0,0-2.086,3.589c0,1.319.951,1.84,2.086,1.2l16.625-9.6a4.563,4.563,0,0,0,2.086-3.589c0-1.319-.92-1.871-2.086-1.2Z" transform="translate(-306.6 -413.059)" fill="#6bf"/>
          </g>
        </g>
        <g id="Group_3356" data-name="Group 3356" transform="translate(0 33.587)">
          <g id="Group_3353" data-name="Group 3353" transform="translate(0 7.208)">
            <g id="Group_3352" data-name="Group 3352" transform="translate(1.902 1.105)">
              <path id="Path_3277" data-name="Path 3277" d="M118.986,548.84a4.646,4.646,0,0,0-2.086,3.589c0,1.319.951,1.84,2.086,1.2l4.172-2.392a4.613,4.613,0,0,0,2.055-3.589c0-1.319-.92-1.871-2.086-1.2Z" transform="translate(-116.9 -546.159)" fill="#6bf"/>
            </g>
            <path id="Path_3278" data-name="Path 3278" d="M112.786,545.238l4.172-2.392a1.46,1.46,0,0,1,1.472-.153l1.871,1.1a1.462,1.462,0,0,0-1.472.153l-4.172,2.392a4.646,4.646,0,0,0-2.086,3.589,1.449,1.449,0,0,0,.613,1.319l-1.871-1.1a1.449,1.449,0,0,1-.613-1.319A4.7,4.7,0,0,1,112.786,545.238Z" transform="translate(-110.7 -542.556)" fill="#5cade5"/>
          </g>
          <g id="Group_3355" data-name="Group 3355" transform="translate(12.514)">
            <path id="Path_3279" data-name="Path 3279" d="M153.553,521.738l4.172-2.393a1.46,1.46,0,0,1,1.472-.153l1.871,1.1a1.463,1.463,0,0,0-1.472.153l-4.172,2.393a4.613,4.613,0,0,0-2.055,3.589,1.507,1.507,0,0,0,.613,1.35l-1.871-1.1a1.471,1.471,0,0,1-.613-1.35A4.5,4.5,0,0,1,153.553,521.738Z" transform="translate(-151.498 -519.056)" fill="#5cade5"/>
            <g id="Group_3354" data-name="Group 3354" transform="translate(1.872 1.105)">
              <path id="Path_3280" data-name="Path 3280" d="M159.655,525.34a4.613,4.613,0,0,0-2.055,3.589c0,1.319.92,1.871,2.086,1.2l4.172-2.392a4.613,4.613,0,0,0,2.055-3.589c0-1.319-.92-1.871-2.086-1.2Z" transform="translate(-157.6 -522.659)" fill="#6bf"/>
            </g>
          </g>
        </g>
      </g>
      <g id="Group_3359" data-name="Group 3359" transform="translate(0.154 54.352)">
        <path id="Path_3281" data-name="Path 3281" d="M195.983,445.8c0-1.319-.92-1.84-2.086-1.166l-74.842,43.218A4.557,4.557,0,0,0,117,491.409l.123,47.789c0,1.319.92,1.871,2.055,1.2l74.842-43.218a4.563,4.563,0,0,0,2.086-3.589Z" transform="translate(-115.098 -443.239)" fill="#d9eeff"/>
        <path id="Path_3282" data-name="Path 3282" d="M189.2,440.892a1.519,1.519,0,0,0-1.5.153l-74.842,43.218a4.557,4.557,0,0,0-2.055,3.558l.123,47.789a1.507,1.507,0,0,0,.613,1.35l1.871,1.1a1.471,1.471,0,0,1-.613-1.35L112.7,488.9a4.51,4.51,0,0,1,2.055-3.558L189.6,442.119a1.516,1.516,0,0,1,1.5-.153Z" transform="translate(-110.8 -440.756)" fill="#c6d8e5"/>
        <g id="Group_3358" data-name="Group 3358" transform="translate(6.104 20.222)">
          <path id="Path_3283" data-name="Path 3283" d="M246.419,584.747c1.135-.675,2.086-.123,2.086,1.2a4.517,4.517,0,0,1-2.086,3.589l-45.733,26.409c-1.166.675-2.086.123-2.086-1.2a4.563,4.563,0,0,1,2.086-3.589Z" transform="translate(-177.773 -560.603)" fill="#9ad2ff"/>
          <path id="Path_3284" data-name="Path 3284" d="M221.451,600.547c1.135-.675,2.055-.123,2.086,1.2a4.566,4.566,0,0,1-2.055,3.589l-20.8,11.993c-1.166.675-2.086.153-2.086-1.2a4.563,4.563,0,0,1,2.086-3.589Z" transform="translate(-177.773 -571.557)" fill="#6bf"/>
          <path id="Path_3285" data-name="Path 3285" d="M143.757,670.667c1.687-.981,3.006-.46,3.006,2.331s-1.748,4.816-1.748,5.674c0,1.35,3.374-.736,5.092.521a17.407,17.407,0,0,1-6.288,6.963c-2.515,1.472-4.785,1.472-6.319.307,1.687-3.251,5.061-5.03,5.061-6.38,0-.859-1.779-.859-1.779-3.65A6.378,6.378,0,0,1,143.757,670.667Z" transform="translate(-135.414 -620.052)" fill="#6bf"/>
          <path id="Path_3286" data-name="Path 3286" d="M139.181,657.336c4.6-2.638,8.343-.521,8.343,4.754a16.808,16.808,0,0,1-1.994,7.392c-1.718-1.258-5.092.828-5.092-.521,0-.859,1.748-2.914,1.748-5.674,0-2.791-1.319-3.313-3.006-2.331a6.469,6.469,0,0,0-2.975,5.8c0,2.791,1.779,2.791,1.779,3.65,0,1.35-3.374,3.129-5.061,6.38-1.258-.951-2.024-2.669-2.024-5.061C130.869,666.446,134.58,660,139.181,657.336Z" transform="translate(-130.838 -610.34)" fill="#9ad2ff"/>
          <path id="Path_3287" data-name="Path 3287" d="M246.219,506.965l-45.733,26.409a4.563,4.563,0,0,0-2.086,3.589c0,1.319.92,1.871,2.086,1.2l45.733-26.409a4.6,4.6,0,0,0,2.086-3.589C248.3,506.812,247.354,506.321,246.219,506.965Z" transform="translate(-177.634 -506.684)" fill="#9ad2ff"/>
          <path id="Path_3288" data-name="Path 3288" d="M221.251,522.747c1.135-.675,2.055-.123,2.086,1.2a4.565,4.565,0,0,1-2.055,3.589l-20.8,11.962c-1.166.675-2.086.153-2.086-1.2a4.563,4.563,0,0,1,2.086-3.589Z" transform="translate(-177.634 -517.62)" fill="#6bf"/>
          <path id="Path_3289" data-name="Path 3289" d="M143.557,592.767c1.687-.982,3.006-.46,3.006,2.331s-1.748,4.816-1.748,5.674c0,1.35,3.374-.736,5.092.521a17.406,17.406,0,0,1-6.288,6.963c-2.515,1.472-4.785,1.472-6.319.307,1.687-3.251,5.061-5.03,5.061-6.38,0-.859-1.779-.859-1.779-3.65A6.451,6.451,0,0,1,143.557,592.767Z" transform="translate(-135.275 -566.046)" fill="#6bf"/>
          <path id="Path_3290" data-name="Path 3290" d="M138.981,579.536c4.6-2.638,8.343-.521,8.343,4.754a16.808,16.808,0,0,1-1.994,7.392c-1.718-1.257-5.092.828-5.092-.521,0-.859,1.748-2.914,1.748-5.675,0-2.791-1.319-3.313-3.006-2.331a6.469,6.469,0,0,0-2.975,5.8c0,2.791,1.779,2.791,1.779,3.65,0,1.35-3.374,3.129-5.061,6.38-1.258-.951-2.024-2.669-2.024-5.061C130.669,588.615,134.38,582.174,138.981,579.536Z" transform="translate(-130.699 -556.404)" fill="#9ad2ff"/>
        </g>
      </g>
    </g>
  </g>
  <g id="Group_3450" data-name="Group 3450" transform="translate(63.278 0)">
    <g id="Group_3390" data-name="Group 3390" transform="translate(0 0)">
      <g id="Group_3369" data-name="Group 3369">
        <g id="Group_3362" data-name="Group 3362">
          <path id="Path_3291" data-name="Path 3291" d="M206.3,145.083v-.46a.675.675,0,0,1,.031-.245c0-.092.031-.153.031-.245s.031-.153.031-.245h0c0-.092.031-.153.031-.245.031-.092.031-.184.061-.245.031-.092.031-.184.061-.245.031-.092.031-.184.061-.276a1.957,1.957,0,0,0,.061-.215h0v-.031a2.113,2.113,0,0,1,.092-.245c.031-.092.061-.153.092-.245s.061-.153.092-.245.061-.153.092-.245l.092-.184h0a.03.03,0,0,1,.031-.031.918.918,0,0,1,.123-.245,1.821,1.821,0,0,1,.123-.245,2.849,2.849,0,0,0,.153-.307c.061-.092.123-.215.184-.307,0-.031.031-.031.031-.061s.031-.031.031-.061c.123-.184.245-.4.368-.583.092-.153.215-.307.307-.46.061-.092.153-.184.215-.276s.123-.153.184-.245c.061-.061.123-.153.184-.215s.123-.153.184-.215l.031-.031.031-.031.153-.153.215-.215a1.417,1.417,0,0,0,.215-.215c.061-.061.153-.123.215-.184a.424.424,0,0,1,.123-.092.03.03,0,0,0,.031-.031c.031-.031.061-.061.092-.061a.932.932,0,0,1,.215-.153c.061-.061.153-.092.215-.153s.153-.092.215-.153c.061-.031.153-.092.215-.123.031,0,.031-.031.061-.031L446.531.705c.061-.031.092-.061.153-.092A1.5,1.5,0,0,1,446.9.521a1.494,1.494,0,0,1,.215-.092,1.5,1.5,0,0,1,.215-.092,1.5,1.5,0,0,1,.215-.092c.031,0,.031,0,.061-.031h.031a.184.184,0,0,1,.123-.031c.061-.031.153-.031.215-.061s.153-.031.215-.061c.061,0,.153-.031.215-.031A.277.277,0,0,0,448.555,0h.613c.092,0,.215.031.307.031h0c.123.031.215.061.337.092.153.061.276.123.429.184l2.853,1.656a3.263,3.263,0,0,0-.767-.276h0a2.661,2.661,0,0,0-.859-.031h-.031a3.826,3.826,0,0,0-.951.215h-.031a7.387,7.387,0,0,0-1.012.46L214.091,138.212a6.975,6.975,0,0,0-.982.675.03.03,0,0,0-.031.031,11.775,11.775,0,0,0-.92.859l-.031.031a10.459,10.459,0,0,0-1.534,2.086c0,.031-.031.031-.031.061-.215.368-.4.767-.583,1.135h0a8.4,8.4,0,0,0-.46,1.227v.031a8.82,8.82,0,0,0-.276,1.227h0a7.855,7.855,0,0,0-.092,1.2l.061,24.538h0l.552,198.454a6.183,6.183,0,0,0,.092,1.1v.031a2.959,2.959,0,0,0,.307.92h0a1.965,1.965,0,0,0,.4.583c.061.061.092.123.153.184a3.656,3.656,0,0,0,.552.46l-2.853-1.656a2.009,2.009,0,0,1-.552-.46c-.061-.061-.092-.123-.153-.184-.061-.092-.123-.153-.184-.245-.061-.123-.123-.215-.184-.337h0c-.031-.092-.092-.184-.123-.276l-.092-.276a.947.947,0,0,1-.061-.245.113.113,0,0,0-.031-.092v-.031c0-.031-.031-.092-.031-.123,0-.092-.031-.153-.031-.245s-.031-.153-.031-.245v-.491h0l-.552-198.454h0Z" transform="translate(-206.3 0)" fill="#c6cacc"/>
          <path id="Path_3292" data-name="Path 3292" d="M215.6,150.516a10.877,10.877,0,0,1,4.938-8.527L455.831,6.139c2.73-1.564,5.092-.4,5.092,2.761l.061,24.538-.092.123.552,198.331a11.034,11.034,0,0,1-5,8.65L221.121,376.392a3.728,3.728,0,0,1-3.037.552c-1.135-.429-1.84-1.656-1.84-3.435l-.552-198.454h0Z" transform="translate(-212.747 -3.777)" fill="#f4f7f9"/>
        </g>
        <g id="Group_3363" data-name="Group 3363" transform="translate(2.853 1.636)">
          <path id="Path_3293" data-name="Path 3293" d="M220.538,141.941a10.877,10.877,0,0,0-4.938,8.527l.061,24.538L460.984,33.359l-.061-24.538c0-3.129-2.239-4.417-5.092-2.761Z" transform="translate(-215.6 -5.335)" fill="#e6ecf0"/>
        </g>
        <g id="Group_3368" data-name="Group 3368" transform="translate(12.515 129.956)">
          <g id="Group_3364" data-name="Group 3364" transform="translate(24.929 0)">
            <ellipse id="Ellipse_33" data-name="Ellipse 33" cx="5.306" cy="3.067" rx="5.306" ry="3.067" transform="translate(0 9.176) rotate(-59.835)" fill="#95a2aa"/>
          </g>
          <g id="Group_3365" data-name="Group 3365" transform="translate(12.434 7.202)">
            <ellipse id="Ellipse_34" data-name="Ellipse 34" cx="5.306" cy="3.067" rx="5.306" ry="3.067" transform="translate(0 9.176) rotate(-59.835)" fill="#95a2aa"/>
          </g>
          <g id="Group_3366" data-name="Group 3366" transform="translate(0 0.526)">
            <path id="Path_3294" data-name="Path 3294" d="M328.453,431.995v-.184a.389.389,0,0,1,.031-.184c0-.061.031-.123.031-.184h0c0-.061.031-.123.031-.184s.031-.123.031-.184.031-.123.031-.184a1.947,1.947,0,0,0,.061-.215c0-.061.031-.092.061-.153h0v-.031c.031-.061.031-.123.061-.184s.031-.123.061-.184.031-.123.061-.184a.436.436,0,0,0,.061-.184c.031-.061.031-.092.061-.153h0v-.031l.092-.184a1.494,1.494,0,0,0,.092-.215c.031-.061.092-.153.123-.215.031-.092.092-.153.123-.245a.03.03,0,0,1,.031-.031c0-.031.031-.031.031-.061l.276-.46a2.341,2.341,0,0,1,.245-.337h0a.931.931,0,0,0,.153-.215c.061-.061.092-.123.153-.184s.092-.123.153-.184.092-.123.153-.153l.031-.031h0l.123-.123.153-.153c.061-.061.123-.092.153-.153.061-.061.123-.092.153-.153.031-.031.061-.031.092-.061l.031-.031.061-.061a899.311,899.311,0,0,1,.307-.245c.061-.031.092-.061.153-.092s.092-.061.153-.092a.03.03,0,0,0,.031-.031c.031-.031.092-.031.123-.061.061-.031.092-.061.153-.092s.092-.061.153-.061.092-.031.153-.061.092-.031.153-.061h.031c.031,0,.061-.031.123-.031a.277.277,0,0,1,.153-.031c.061,0,.092-.031.153-.031a1.328,1.328,0,0,0,.153-.031h.552c.061,0,.153.031.215.031h0c.092.031.184.031.245.061a1.432,1.432,0,0,1,.307.153l1.411.828a4.093,4.093,0,0,0-.552-.215h0a2.161,2.161,0,0,0-.644-.031h-.031a3.257,3.257,0,0,0-.705.153h0c-.245.092-.491.215-.767.337a6.349,6.349,0,0,0-.736.521h-.031a6.711,6.711,0,0,0-.705.644h0c-.215.245-.429.491-.644.767h0l-.552.828-.031.031a7.945,7.945,0,0,0-.429.889h0c-.123.307-.245.613-.337.92h0c-.092.307-.153.613-.215.92h0a4.643,4.643,0,0,0-.061.92,3.165,3.165,0,0,0,.092.8v.031a4.341,4.341,0,0,0,.215.675h0a3.23,3.23,0,0,0,.215.337,1.439,1.439,0,0,0,.583.552h0l-1.411-.828a1.991,1.991,0,0,1-.583-.552c-.031-.031-.061-.031-.061-.061-.061-.092-.092-.153-.153-.245h0l-.092-.184c-.031-.061-.031-.123-.061-.184s-.031-.123-.061-.184a.113.113,0,0,0-.031-.092v-.031a.113.113,0,0,0-.031-.092c0-.061-.031-.123-.031-.184a.389.389,0,0,0-.031-.184v-.368h0v-.184C328.453,432.117,328.453,432.056,328.453,431.995Z" transform="translate(-303.394 -425.4)" fill="#707a7f"/>
            <path id="Path_3295" data-name="Path 3295" d="M287.823,455.564v-.184a.389.389,0,0,1,.031-.184c0-.061.031-.123.031-.184h0c0-.061.031-.123.031-.184s.031-.123.031-.184a.436.436,0,0,1,.061-.184,1.962,1.962,0,0,0,.061-.215c0-.061.031-.092.061-.153h0v-.031c.031-.061.031-.123.061-.184s.031-.123.061-.184.031-.123.061-.184a.436.436,0,0,0,.061-.184c.031-.061.031-.092.061-.153h0v-.031l.092-.184a1.5,1.5,0,0,0,.092-.215c.031-.061.092-.153.123-.215.031-.092.092-.153.123-.245a.03.03,0,0,1,.031-.031c0-.031.031-.031.031-.061l.276-.46a2.343,2.343,0,0,1,.245-.337h0a.931.931,0,0,0,.153-.215c.061-.061.092-.123.153-.184s.092-.123.153-.184.092-.123.153-.153l.031-.031h0c.031-.031.061-.092.123-.123l.153-.153c.061-.061.123-.092.153-.153.061-.061.123-.092.153-.153.031-.031.061-.031.092-.061h.031l.061-.061a2023.378,2023.378,0,0,1,.307-.245c.061-.031.092-.061.153-.092s.092-.061.153-.092a.03.03,0,0,0,.031-.031c.031-.031.092-.031.123-.061.061-.031.092-.061.153-.092s.092-.061.153-.061c.061-.031.092-.031.153-.061s.092-.031.153-.061h.031c.031,0,.061-.031.123-.031a.277.277,0,0,1,.153-.031c.061,0,.092-.031.153-.031a1.325,1.325,0,0,0,.153-.031h.552c.061,0,.153.031.215.031h0c.092.031.184.031.245.061a1.434,1.434,0,0,1,.307.153l1.411.828a4.1,4.1,0,0,0-.552-.215h0a2.162,2.162,0,0,0-.644-.031h-.031a3.256,3.256,0,0,0-.706.153h0c-.245.092-.491.215-.767.337a6.349,6.349,0,0,0-.736.521l-.031.031a6.711,6.711,0,0,0-.705.644h0c-.215.245-.429.491-.644.767h0l-.552.828a.03.03,0,0,1-.031.031,7.948,7.948,0,0,0-.429.89h0c-.123.307-.245.613-.337.92h0c-.092.307-.153.613-.215.92h0a4.643,4.643,0,0,0-.061.92,3.166,3.166,0,0,0,.092.8v.031a4.34,4.34,0,0,0,.215.675h0a3.237,3.237,0,0,0,.215.337,1.439,1.439,0,0,0,.583.552l-1.411-.828a1.99,1.99,0,0,1-.583-.552c-.031-.031-.061-.031-.061-.061-.061-.092-.092-.153-.153-.245h0l-.092-.184c-.031-.061-.031-.123-.061-.184s-.031-.123-.061-.184a.113.113,0,0,0-.031-.092v-.031a.113.113,0,0,0-.031-.092c0-.061-.031-.123-.031-.184a.389.389,0,0,0-.031-.184v-.368h0v-.184C287.823,455.687,287.823,455.625,287.823,455.564Z" transform="translate(-275.247 -441.761)" fill="#707a7f"/>
            <path id="Path_3296" data-name="Path 3296" d="M247.161,479.248v-.368a.389.389,0,0,1,.031-.184c0-.061.031-.123.031-.184h0c0-.061.031-.123.031-.184s.031-.123.031-.184a.436.436,0,0,1,.061-.184,1.953,1.953,0,0,0,.061-.215c0-.061.031-.092.061-.153h0v-.031c.031-.061.031-.123.061-.184s.031-.123.061-.184.031-.123.061-.184a.436.436,0,0,0,.061-.184c.031-.061.031-.092.061-.153h0v-.031l.092-.184a1.5,1.5,0,0,0,.092-.215c.031-.061.092-.153.123-.215.031-.092.092-.153.123-.245a.03.03,0,0,1,.031-.031c0-.031.031-.031.031-.061l.276-.46a2.341,2.341,0,0,1,.245-.337h0a.932.932,0,0,0,.153-.215c.061-.061.092-.123.153-.184s.092-.123.153-.184.092-.123.153-.153l.031-.031h0c.031-.031.061-.092.123-.123l.153-.153c.061-.061.123-.092.153-.153.061-.061.123-.092.153-.153.031-.031.061-.031.092-.061h.031l.061-.061a2023.378,2023.378,0,0,1,.307-.245c.061-.031.092-.061.153-.092s.092-.061.153-.092a.03.03,0,0,0,.031-.031c.031-.031.092-.031.123-.061.061-.031.092-.061.153-.092s.092-.061.153-.061c.061-.031.092-.031.153-.061s.092-.031.153-.061h.031c.031,0,.092-.031.123-.031.061,0,.092-.031.153-.031s.092-.031.153-.031.092-.031.153-.031h.521c.061,0,.123.031.215.031h0c.092.031.153.031.245.061s.184.092.276.123l1.411.828a1.511,1.511,0,0,0-.521-.184h0a2.012,2.012,0,0,0-.613-.031h-.031a3.014,3.014,0,0,0-.675.153h0a3.927,3.927,0,0,0-.736.337,6.351,6.351,0,0,0-.736.521h-.031a6.714,6.714,0,0,0-.705.644h0c-.215.245-.429.491-.644.767h0l-.552.828a.03.03,0,0,1-.031.031,7.943,7.943,0,0,0-.429.89h0c-.123.307-.245.613-.337.92h0c-.092.307-.153.613-.215.92h0a4.644,4.644,0,0,0-.061.92,3.165,3.165,0,0,0,.092.8v.031a4.342,4.342,0,0,0,.215.675h0a3.237,3.237,0,0,0,.215.337,1.438,1.438,0,0,0,.583.552l-1.411-.828a1.99,1.99,0,0,1-.583-.552c-.031-.031-.061-.031-.061-.061-.061-.092-.092-.153-.153-.245h0l-.092-.184c-.031-.061-.031-.123-.061-.184s-.031-.123-.061-.184a.113.113,0,0,0-.031-.092v-.031a.113.113,0,0,0-.031-.092c0-.061-.031-.123-.031-.184a.389.389,0,0,0-.031-.184v-.368h0A.331.331,0,0,0,247.161,479.248Z" transform="translate(-247.1 -458.053)" fill="#707a7f"/>
          </g>
          <g id="Group_3367" data-name="Group 3367" transform="translate(1.472 15.702)">
            <path id="Path_3297" data-name="Path 3297" d="M255.673,475.373a8.286,8.286,0,0,0-3.773,6.5c0,2.393,1.718,3.374,3.773,2.147a7.941,7.941,0,0,0,3.619-6.441C259.323,475.22,257.759,474.177,255.673,475.373Z" transform="translate(-251.9 -474.875)" fill="#95a2aa"/>
          </g>
        </g>
      </g>
      <g id="Group_3452" data-name="Group 3452" transform="translate(87.505 103.607)">
        <path id="Path_3387" data-name="Path 3387" d="M78.785,16.971l-.778.467c-12.4,7.162-22.524,7.577-28.232,6.9h0C44.013,31.658,33.893,42.92,21.438,50.081a8.031,8.031,0,0,1-.778.415A54.124,54.124,0,0,1-.1,57.451v62.641c0,17.334,0,29.841,15.725,37.989,13.13,6.747,28.544,3.633,34.045,2.128h0a182.066,182.066,0,0,0,34.045-41.466C99.44,92.482,99.44,79.923,99.44,62.589V0A97.334,97.334,0,0,1,78.785,16.971Z" transform="translate(0.1)" fill="#7c7ee4"/>
        <path id="Path_3388" data-name="Path 3388" d="M78.785,16.971l-.778.467c-12.4,7.162-22.524,7.577-28.232,6.9h0C44.013,31.658,33.893,42.92,21.438,50.081a8.031,8.031,0,0,1-.778.415A54.124,54.124,0,0,1-.1,57.451v62.641c0,17.334,0,29.841,15.725,37.989,13.13,6.747,28.544,3.633,34.045,2.128h0a182.066,182.066,0,0,0,34.045-41.466C99.44,92.482,99.44,79.923,99.44,62.589l5.4-59.942L99.544,0C94.095,5.657,86.985,12.144,78.785,16.971Z" transform="translate(0.1)" fill="#65b200"/>
        <path id="Path_3389" data-name="Path 3389" d="M88.985,22.071l-.778.467c-12.455,7.214-22.576,7.577-28.284,6.9h0C54.161,36.758,44.093,48.02,31.638,55.181a8.031,8.031,0,0,1-.778.415A54.124,54.124,0,0,1,10.1,62.551v62.641c0,17.334,0,29.841,15.725,37.989,13.13,6.747,28.544,3.633,34.045,2.128h0a182.065,182.065,0,0,0,34.045-41.466c15.725-26.26,15.725-38.82,15.725-56.153V5.1A100.3,100.3,0,0,1,88.985,22.071Z" transform="translate(-4.806 -2.453)" fill="#81fc00"/>
        <g id="Group_3455" data-name="Group 3455" transform="translate(26.001 39.901)">
          <g id="Group_3453" data-name="Group 3453">
            <g id="Group_3452-2" data-name="Group 3452">
              <path id="Path_3390" data-name="Path 3390" d="M76.364,186.708a25.034,25.034,0,0,1-15.154-4.671A26.227,26.227,0,0,1,52.958,171.4a27.317,27.317,0,0,1-1.868-7.11,101.2,101.2,0,0,1-.934-11.418C50,147.162,50,141.3,50,135.641v-27.35l.986-.571A74.321,74.321,0,0,0,66.3,96.666,54.618,54.618,0,0,0,75.43,85.4a48.791,48.791,0,0,0,3.062-5.813l.311-.675.415.156a.653.653,0,0,1,.363.208,10.159,10.159,0,0,0,6.487,3.633,20.473,20.473,0,0,0,9.134-.727,53.561,53.561,0,0,0,11.781-5.034,3.062,3.062,0,0,1,.415-.208.387.387,0,0,1,.415,0l.363.052v38.353c-.052,5.5-.208,10.068-.571,14.324a71.5,71.5,0,0,1-1.557,10.743,84.5,84.5,0,0,1-3.737,11.366A101.4,101.4,0,0,1,92.5,170.361a109.6,109.6,0,0,1-12.092,15.206,3.215,3.215,0,0,1-2.128,1.194C77.61,186.708,76.987,186.708,76.364,186.708ZM50.986,108.862v26.779c0,5.657,0,11.573.156,17.23a101.591,101.591,0,0,0,.882,11.314,24.934,24.934,0,0,0,9.7,17.126c4.619,3.373,10.016,4.826,16.452,4.463a2.447,2.447,0,0,0,1.505-.882,103.841,103.841,0,0,0,11.988-15.05,102.827,102.827,0,0,0,9.7-18.424,78.025,78.025,0,0,0,3.685-11.262,75.68,75.68,0,0,0,1.557-10.587c.363-4.256.571-8.771.571-14.272.052-4.359,0-8.771,0-13.026V77.982a53.9,53.9,0,0,1-11.833,5.034,20.914,20.914,0,0,1-9.549.778,11.229,11.229,0,0,1-6.643-3.529,42.02,42.02,0,0,1-2.958,5.6,56.581,56.581,0,0,1-9.29,11.469,71,71,0,0,1-15.466,11.21Zm56.828-31.191ZM78.648,177.73h0a23.382,23.382,0,0,1-15.258-5.709,18.2,18.2,0,0,1-5.4-7.888,30.534,30.534,0,0,1-1.505-7.162c-.415-4.775-.623-10.016-.623-17.023V113.377l1.09-.727c.623-.415,1.194-.778,1.765-1.194A71.41,71.41,0,0,0,73.25,98.274a75.12,75.12,0,0,0,5.034-6.851l.675-.986.415.1a.737.737,0,0,1,.311.1,18.157,18.157,0,0,0,11.106,1.142,40.967,40.967,0,0,0,9.653-3.01c.363-.156.778-.311,1.142-.467a.564.564,0,0,1,.259-.052h.467l.052.675v21.486c0,3.529,0,7.162-.052,10.743-.052,4.411-.259,8.356-.623,12.092a55.281,55.281,0,0,1-4.567,17.178,98.775,98.775,0,0,1-6.643,12.455,95.711,95.711,0,0,1-10.535,14.168A1.677,1.677,0,0,1,78.648,177.73ZM56.8,113.792v26.1c0,7.006.208,12.248.623,16.971a26.986,26.986,0,0,0,1.453,6.954,16.725,16.725,0,0,0,5.086,7.473,22.717,22.717,0,0,0,14.687,5.5c.156,0,.311-.052.675-.415a97.371,97.371,0,0,0,10.431-14.012,96.007,96.007,0,0,0,6.539-12.3,55.488,55.488,0,0,0,4.515-16.919c.311-3.737.519-7.681.571-12.04.052-3.581.052-7.214.052-10.743V89.3c-.208.1-.467.208-.675.311a43.038,43.038,0,0,1-9.912,3.062A18.89,18.89,0,0,1,79.27,91.476l-.259.415a62.322,62.322,0,0,1-5.086,6.9,74.772,74.772,0,0,1-14.687,13.39c-.571.415-1.142.778-1.765,1.194Z" transform="translate(-50 -76.885)" fill="#fff"/>
            </g>
          </g>
          <g id="Group_3454" data-name="Group 3454" transform="translate(14.843 36.388)">
            <path id="Path_3391" data-name="Path 3391" d="M78.6,177.049l12.507,6.9,16.036-33.837L102.421,147,89.447,173.935l-7.837-4.152Z" transform="translate(-78.6 -147)" fill="#fff"/>
          </g>
        </g>
      </g>
    </g>
    <g id="Group_3397" data-name="Group 3397" transform="translate(277.345 30.581)">
      <g id="Group_3393" data-name="Group 3393" transform="translate(6.503)">
        <g id="Group_3391" data-name="Group 3391" transform="translate(0 0.3)">
          <path id="Path_3320" data-name="Path 3320" d="M1159.244,113.935a12.913,12.913,0,0,1,5.859,10.153l-.061,24.784c0,3.742-2.638,5.245-5.889,3.374l-21.594-12.453a12.913,12.913,0,0,1-5.859-10.153l.061-24.784c0-3.742,2.638-5.245,5.889-3.374Z" transform="translate(-1131.7 -100.678)" fill="#2fd3ec"/>
        </g>
        <path id="Path_3321" data-name="Path 3321" d="M1170.139,122.889v-.552a.23.23,0,0,0-.031-.153v-.123c0-.092-.031-.184-.031-.307h0v-.031c0-.092-.031-.153-.031-.245v-.031c0-.031-.031-.092-.031-.123,0-.061-.031-.092-.031-.153a.113.113,0,0,0-.031-.092c0-.031-.031-.092-.031-.123a.113.113,0,0,0-.031-.092c0-.031-.031-.092-.031-.123s-.031-.092-.031-.123,0-.031-.031-.061c-.031-.061-.031-.123-.062-.184,0-.031-.031-.061-.031-.123v-.031c-.031-.092-.061-.215-.092-.307h0v-.031l-.092-.276a.03.03,0,0,0-.031-.031c0-.031-.031-.061-.031-.092-.031-.061-.031-.092-.061-.153,0-.031-.031-.061-.031-.092s-.031-.061-.031-.123c0-.031-.031-.061-.031-.092a.516.516,0,0,1-.061-.153c0-.031-.031-.061-.031-.092v-.031c-.031-.092-.092-.184-.123-.276h0c0-.031-.031-.061-.031-.092-.031-.061-.061-.153-.092-.215a.03.03,0,0,0-.031-.031l-.092-.184c-.031-.061-.061-.092-.061-.153v-.031c-.092-.153-.153-.307-.245-.46a.03.03,0,0,0-.031-.031c-.031-.031-.031-.061-.061-.123a.642.642,0,0,0-.123-.184c-.031-.061-.061-.092-.092-.153s-.092-.123-.123-.184c0-.031-.031-.031-.031-.061s-.031-.031-.031-.061c-.123-.153-.215-.307-.337-.491h0c-.092-.123-.153-.215-.245-.337h0c-.061-.092-.123-.153-.184-.245l-.031-.031h0c-.061-.092-.153-.184-.215-.276h0c-.031-.031-.061-.061-.061-.092-.061-.061-.092-.123-.153-.153l-.031-.031-.092-.092c-.031-.031-.061-.092-.123-.123l-.031-.031-.123-.123-.092-.092-.061-.061c-.031-.031-.092-.061-.123-.123l-.092-.092-.061-.061c-.031-.031-.092-.061-.123-.092s-.061-.031-.061-.061c-.031-.031-.061-.031-.092-.061s-.092-.061-.123-.092l-.061-.061-.092-.092a.426.426,0,0,0-.123-.092l-.031-.031c-.031-.031-.092-.061-.123-.092s-.061-.031-.092-.061a.03.03,0,0,1-.031-.031,1.074,1.074,0,0,0-.245-.153h-.031c-.061-.061-.153-.092-.215-.153-.031,0-.031-.031-.061-.031L1142.9,100.5l-.184-.092a.107.107,0,0,1-.061-.031c-.031-.031-.061-.031-.092-.061a.107.107,0,0,1-.061-.031c-.031-.031-.092-.031-.123-.061-.031,0-.061-.031-.092-.031a.03.03,0,0,1-.031-.031c-.092-.031-.153-.061-.245-.092s-.153-.061-.245-.092h-.031c-.031,0-.061-.031-.092-.031s-.092-.031-.123-.031-.031,0-.061-.031c-.031,0-.061-.031-.092-.031s-.061-.031-.092-.031a.113.113,0,0,1-.092-.031c-.031,0-.061-.031-.092-.031h-.061a.113.113,0,0,1-.092-.031.185.185,0,0,1-.123-.031h-.889c-.092,0-.184.031-.276.031h-.092a1.329,1.329,0,0,0-.153.031c-.031,0-.061.031-.092.031s-.061.031-.092.031h-.031c-.061.031-.092.031-.153.061a.107.107,0,0,0-.061.031.767.767,0,0,0-.215.123h0l-.46.276c.061-.031.153-.092.215-.123a.107.107,0,0,0,.061-.031c.061-.031.092-.031.153-.061a.185.185,0,0,1,.123-.031c.031,0,.061-.031.092-.031a.334.334,0,0,1,.153-.031h.092a.85.85,0,0,1,.276-.031h.767a.276.276,0,0,1,.153.031.184.184,0,0,1,.123.031c.061,0,.092.031.153.031a.113.113,0,0,1,.092.031,1.332,1.332,0,0,1,.153.031c.031,0,.061.031.092.031.061.031.123.031.184.061.031,0,.061.031.092.031a4.1,4.1,0,0,1,.552.215c.031,0,.061.031.092.031l.184.092c.031.031.061.031.092.061a.67.67,0,0,1,.245.153l21.594,12.453.276.184h0l.276.184c.031.031.061.031.092.061.061.031.123.092.184.123a.425.425,0,0,0,.123.092.665.665,0,0,1,.153.123c.031.031.092.061.123.092.061.031.092.092.153.123.031.031.092.061.123.092.061.031.092.092.153.123.031.031.092.061.123.123l.153.153.123.123.153.153.092.092.184.184c.031.031.061.061.061.092.092.092.153.184.245.276l.031.031a1.543,1.543,0,0,0,.215.245c.092.123.153.215.245.337h0c.123.153.215.307.338.46a.426.426,0,0,1,.092.123c.031.061.092.123.123.184a.666.666,0,0,0,.092.153.642.642,0,0,0,.123.184c.031.061.061.092.092.153a3.343,3.343,0,0,1,.245.46.666.666,0,0,0,.092.153l.092.184c.031.092.092.153.123.245,0,.031.031.061.031.092.061.123.092.215.153.337,0,.031.031.061.031.092.031.092.061.153.092.245,0,.031.031.061.031.123.031.092.061.153.092.245,0,.031.031.061.031.092a1.284,1.284,0,0,0,.123.307v.031a1.491,1.491,0,0,0,.123.337c0,.031.031.061.031.123.031.092.031.153.061.245,0,.031.031.092.031.123.031.061.031.153.061.215,0,.031.031.092.031.123.031.061.031.153.061.215,0,.031.031.092.031.123.031.092.031.184.061.307v.031c.031.123.031.215.061.337v.092c0,.092.031.153.031.245v.736l-.061,24.784v.429a.521.521,0,0,1-.031.215v.123a.389.389,0,0,1-.031.184.185.185,0,0,1-.031.123,1.33,1.33,0,0,1-.031.153c0,.061-.031.092-.031.153s-.031.092-.031.153a1.329,1.329,0,0,1-.031.153c0,.031-.031.092-.031.123-.031.061-.031.123-.061.184,0,.031-.031.061-.031.092-.031.092-.092.215-.123.307a.767.767,0,0,1-.123.215h0c-.031.061-.092.123-.123.184l-.184.276-.061.061a.716.716,0,0,1-.215.215l-.031.031a1.754,1.754,0,0,1-.245.215c-.031.031-.031.031-.061.031a1.713,1.713,0,0,0-.245.184l.46-.276a1.691,1.691,0,0,0,.245-.184c.031,0,.031-.031.061-.031a1.542,1.542,0,0,0,.245-.215l.031-.031a1.412,1.412,0,0,1,.215-.215l.061-.061.184-.276h0c.031-.061.092-.123.123-.184h0a1.508,1.508,0,0,0,.092-.215h0a3.181,3.181,0,0,0,.123-.307v-.031a.107.107,0,0,1,.031-.061c.031-.061.031-.123.061-.184,0-.031,0-.031.031-.061,0-.031,0-.061.031-.061,0-.061.031-.092.031-.153,0-.031,0-.031.031-.061V149.3c0-.061.031-.092.031-.153v-.153a.185.185,0,0,1,.031-.123v-.951l.061-24.784A.267.267,0,0,1,1170.139,122.889Z" transform="translate(-1136.276 -99.7)" fill="#0caed2"/>
        <g id="Group_3392" data-name="Group 3392" transform="translate(9.325 13.404)">
          <path id="Path_3322" data-name="Path 3322" d="M1168.94,144.6a14.523,14.523,0,0,1,5.092,4.938,11.232,11.232,0,0,1,1.994,5.828,4.2,4.2,0,0,1-.46,2.086,2.314,2.314,0,0,1-1.1,1.074,4.814,4.814,0,0,1-1.319.276,4.254,4.254,0,0,1-1.1-.031l-.46-.123a4.573,4.573,0,0,1-.031.736.745.745,0,0,1-.276.429q-.23.184-.736,0a9.038,9.038,0,0,1-1.38-.675,9.645,9.645,0,0,1-1.38-.951,2.645,2.645,0,0,1-.705-.92,4.239,4.239,0,0,1-.245-.767,6.955,6.955,0,0,1-.031-.89v-.215c0-.859.245-1.38.706-1.6a2.112,2.112,0,0,1,1.564-.061,3.126,3.126,0,0,0,1.564.123c.491-.092.736-.46.736-1.074a3.246,3.246,0,0,0-.552-1.84,5.758,5.758,0,0,0-1.9-1.626,2.513,2.513,0,0,0-1.35-.429c-.337.031-.552.123-.644.337l-.092.307a1.569,1.569,0,0,1-.614.8c-.245.123-.552.061-.981-.184a6.328,6.328,0,0,1-1.166-.951,10.742,10.742,0,0,1-1.534-1.748,2.279,2.279,0,0,1-.429-1.166,3.28,3.28,0,0,1,.245-.89l.061-.123a3.64,3.64,0,0,1,.184-.4,3.292,3.292,0,0,1,.614-.705,3.413,3.413,0,0,1,1.166-.675,4.683,4.683,0,0,1,1.871,0A8.513,8.513,0,0,1,1168.94,144.6Zm.153,16.747a6.1,6.1,0,0,1,2.208,1.9,4.541,4.541,0,0,1,.521,2.484,7.313,7.313,0,0,1-.061,1.012,1.548,1.548,0,0,1-.307.644c-.153.215-.429.276-.828.153a6.734,6.734,0,0,1-1.564-.736,6.837,6.837,0,0,1-2.239-1.932,3.628,3.628,0,0,1-.491-1.994v-.46a8.663,8.663,0,0,1,.031-1.012,1.469,1.469,0,0,1,.276-.644q.23-.322.828-.184A10.373,10.373,0,0,1,1169.094,161.344Z" transform="translate(-1162.1 -143.4)" fill="#fff"/>
        </g>
      </g>
      <g id="Group_3396" data-name="Group 3396" transform="translate(0 2.607)">
        <g id="Group_3394" data-name="Group 3394" transform="translate(0 0.331)">
          <path id="Path_3323" data-name="Path 3323" d="M1138.045,122.535a12.913,12.913,0,0,1,5.859,10.153l-.061,24.784c0,3.742-2.638,5.245-5.889,3.374l-21.594-12.453a12.913,12.913,0,0,1-5.859-10.153l.061-24.784c0-3.742,2.638-5.245,5.889-3.374Z" transform="translate(-1110.5 -109.278)" fill="#71dcec"/>
        </g>
        <path id="Path_3324" data-name="Path 3324" d="M1148.939,131.389v-.552a.229.229,0,0,0-.031-.153v-.123c0-.092-.031-.184-.031-.307h0v-.031c0-.092-.031-.153-.031-.245v-.031c0-.031-.031-.092-.031-.123,0-.061-.031-.092-.031-.153a.113.113,0,0,0-.031-.092c0-.031-.031-.092-.031-.123a.112.112,0,0,0-.031-.092c0-.031-.031-.092-.031-.123s-.031-.092-.031-.123,0-.031-.031-.061c-.031-.061-.031-.123-.061-.184,0-.031-.031-.061-.031-.123v-.031c-.031-.092-.061-.215-.092-.307h0v-.031l-.092-.276a.03.03,0,0,0-.031-.031c0-.031-.031-.061-.031-.092-.031-.061-.031-.092-.061-.153,0-.031-.031-.061-.031-.092s-.031-.061-.031-.123c0-.031-.031-.061-.031-.092a.517.517,0,0,1-.062-.153c0-.031-.031-.061-.031-.092v-.031c-.031-.092-.092-.184-.123-.276h0c0-.031-.031-.061-.031-.092-.031-.061-.062-.153-.092-.215a.03.03,0,0,0-.031-.031l-.092-.184c-.031-.061-.061-.092-.061-.153v-.031c-.092-.153-.153-.307-.245-.46a.03.03,0,0,0-.031-.031c-.031-.031-.031-.061-.061-.123a.645.645,0,0,0-.123-.184c-.031-.061-.061-.092-.092-.153s-.092-.123-.123-.184c0-.031-.031-.031-.031-.061s-.031-.031-.031-.061c-.123-.153-.215-.307-.337-.491h0c-.092-.123-.153-.215-.245-.337h0c-.061-.092-.123-.153-.184-.245l-.031-.031h0c-.061-.092-.153-.184-.215-.276h0c-.031-.031-.061-.061-.061-.092-.061-.061-.092-.123-.153-.153l-.031-.031-.092-.092c-.031-.031-.061-.092-.123-.123l-.031-.031-.123-.123-.092-.092-.061-.061c-.031-.031-.092-.061-.123-.123l-.092-.092-.061-.061c-.031-.031-.092-.061-.123-.092s-.061-.031-.061-.061c-.031-.031-.061-.031-.092-.061s-.092-.061-.123-.092l-.061-.061-.092-.092a.422.422,0,0,0-.123-.092l-.031-.031c-.031-.031-.092-.061-.123-.092s-.061-.031-.092-.061a.03.03,0,0,1-.031-.031,1.08,1.08,0,0,0-.245-.153h-.031c-.061-.061-.153-.092-.215-.153-.031,0-.031-.031-.061-.031L1121.7,109l-.184-.092a.106.106,0,0,1-.061-.031c-.031-.031-.061-.031-.092-.061a.107.107,0,0,1-.061-.031c-.031-.031-.092-.031-.123-.061-.031,0-.061-.031-.092-.031a.03.03,0,0,1-.031-.031c-.092-.031-.153-.061-.245-.092s-.153-.061-.245-.092h-.031c-.031,0-.061-.031-.092-.031s-.092-.031-.123-.031-.031,0-.061-.031c-.031,0-.061-.031-.092-.031s-.061-.031-.092-.031a.113.113,0,0,1-.092-.031c-.031,0-.061-.031-.092-.031h-.061a.112.112,0,0,1-.092-.031.185.185,0,0,1-.123-.031h-.889c-.092,0-.184.031-.276.031h-.092a1.321,1.321,0,0,0-.153.031c-.031,0-.061.031-.092.031s-.061.031-.092.031h-.031c-.061.031-.092.031-.153.061a.106.106,0,0,0-.061.031.768.768,0,0,0-.215.123h0l-.46.276c.061-.031.153-.092.215-.123a.107.107,0,0,0,.061-.031c.062-.031.092-.031.153-.061a.184.184,0,0,1,.123-.031c.031,0,.061-.031.092-.031a.333.333,0,0,1,.153-.031h.092a.849.849,0,0,1,.276-.031h.767a.277.277,0,0,1,.153.031.184.184,0,0,1,.123.031c.061,0,.092.031.153.031a.113.113,0,0,1,.092.031,1.332,1.332,0,0,1,.153.031c.031,0,.061.031.092.031.062.031.123.031.184.061.031,0,.061.031.092.031a4.1,4.1,0,0,1,.552.215c.031,0,.061.031.092.031l.184.092c.031.031.061.031.092.061a.668.668,0,0,1,.245.153l21.594,12.453.276.184h0l.276.184c.031.031.061.031.092.061.061.031.123.092.184.123a.426.426,0,0,0,.123.092.667.667,0,0,1,.153.123c.031.031.092.061.123.092.061.031.092.092.153.123.031.031.092.061.123.092.061.031.092.092.153.123.031.031.092.061.123.123l.153.153.123.123.153.153.092.092.184.184c.031.031.061.061.061.092.092.092.153.184.245.276l.031.031a1.536,1.536,0,0,0,.215.245c.092.123.153.215.245.337h0c.123.153.215.307.337.46a.424.424,0,0,1,.092.123c.031.061.092.123.123.184a.666.666,0,0,0,.092.153.64.64,0,0,0,.123.184c.031.061.061.092.092.153a3.343,3.343,0,0,1,.245.46.671.671,0,0,0,.092.153l.092.184c.031.092.092.153.123.245,0,.031.031.061.031.092.061.123.092.215.153.337,0,.031.031.061.031.092.031.092.061.153.092.245,0,.031.031.061.031.123.031.092.061.153.092.245,0,.031.031.061.031.092a1.273,1.273,0,0,0,.123.307v.031a1.485,1.485,0,0,0,.123.337c0,.031.031.061.031.123.031.092.031.153.061.245,0,.031.031.092.031.123.031.061.031.153.061.215,0,.031.031.092.031.123.031.061.031.153.061.215,0,.031.031.092.031.123.031.092.031.184.061.307v.031c.031.123.031.215.061.337v.092c0,.092.031.153.031.245v.736l-.061,24.784v.429a.521.521,0,0,1-.031.215v.123a.389.389,0,0,1-.031.184.184.184,0,0,1-.031.123,1.335,1.335,0,0,1-.031.153c0,.061-.031.092-.031.153s-.031.092-.031.153a1.325,1.325,0,0,1-.031.153c0,.031-.031.092-.031.123-.031.061-.031.123-.061.184,0,.031-.031.061-.031.092-.031.092-.092.215-.123.307a.761.761,0,0,1-.123.215h0c-.031.061-.092.123-.123.184l-.184.276-.061.061a.716.716,0,0,1-.215.215l-.031.031a1.74,1.74,0,0,1-.245.215c-.031.031-.031.031-.061.031a1.706,1.706,0,0,0-.245.184l.46-.276a1.7,1.7,0,0,0,.245-.184c.031,0,.031-.031.061-.031a1.548,1.548,0,0,0,.245-.215l.031-.031a1.419,1.419,0,0,1,.215-.215l.061-.061.184-.276h0c.031-.061.092-.123.123-.184h0a1.508,1.508,0,0,0,.092-.215h0a3.181,3.181,0,0,0,.123-.307v-.031a.107.107,0,0,1,.031-.061c.031-.061.031-.123.061-.184,0-.031,0-.031.031-.061,0-.031,0-.061.031-.061,0-.061.031-.092.031-.153,0-.031,0-.031.031-.061V157.8c0-.061.031-.092.031-.153v-.153a.185.185,0,0,1,.031-.123v-.951l.061-24.784C1148.969,131.573,1148.969,131.481,1148.939,131.389Z" transform="translate(-1115.076 -108.2)" fill="#0caed2"/>
        <g id="Group_3395" data-name="Group 3395" transform="translate(9.355 13.404)">
          <path id="Path_3325" data-name="Path 3325" d="M1147.84,153.1a14.523,14.523,0,0,1,5.092,4.938,11.23,11.23,0,0,1,1.994,5.828,4.2,4.2,0,0,1-.46,2.086,2.314,2.314,0,0,1-1.1,1.074,4.812,4.812,0,0,1-1.319.276,4.254,4.254,0,0,1-1.1-.031l-.46-.123a4.591,4.591,0,0,1-.031.736.746.746,0,0,1-.276.429q-.23.184-.736,0a9.05,9.05,0,0,1-1.38-.675,9.643,9.643,0,0,1-1.38-.951,2.642,2.642,0,0,1-.706-.92,4.23,4.23,0,0,1-.245-.767,6.983,6.983,0,0,1-.031-.89v-.215c0-.859.245-1.38.706-1.595a2.112,2.112,0,0,1,1.564-.061,3.126,3.126,0,0,0,1.564.123c.491-.092.736-.46.736-1.074a3.246,3.246,0,0,0-.552-1.84,5.758,5.758,0,0,0-1.9-1.626,2.514,2.514,0,0,0-1.35-.429c-.337.031-.552.123-.644.337l-.092.307a1.568,1.568,0,0,1-.614.8c-.245.123-.552.061-.982-.184a6.336,6.336,0,0,1-1.166-.951,10.746,10.746,0,0,1-1.534-1.748,2.281,2.281,0,0,1-.429-1.166,3.28,3.28,0,0,1,.245-.89l.061-.123a3.664,3.664,0,0,1,.184-.4,3.3,3.3,0,0,1,.614-.705,3.414,3.414,0,0,1,1.166-.675,4.684,4.684,0,0,1,1.871,0A11.147,11.147,0,0,1,1147.84,153.1Zm.153,16.778a6.1,6.1,0,0,1,2.208,1.9,4.543,4.543,0,0,1,.521,2.485,7.294,7.294,0,0,1-.061,1.012,1.547,1.547,0,0,1-.307.644c-.153.215-.429.276-.828.153a6.736,6.736,0,0,1-1.564-.736,6.839,6.839,0,0,1-2.239-1.932,3.628,3.628,0,0,1-.491-1.994v-.46a8.7,8.7,0,0,1,.031-1.012,1.468,1.468,0,0,1,.276-.644q.23-.322.828-.184A7.309,7.309,0,0,1,1147.993,169.874Z" transform="translate(-1141 -151.9)" fill="#fff"/>
        </g>
      </g>
    </g>
    <g id="Group_3414" data-name="Group 3414" transform="translate(224.526 104.269)">
      <g id="Group_3405" data-name="Group 3405">
        <g id="Group_3400" data-name="Group 3400">
          <g id="Group_3399" data-name="Group 3399">
            <g id="Group_3398" data-name="Group 3398">
              <path id="Path_3326" data-name="Path 3326" d="M995.106,340.2c1.074-.613,1.932-.123,1.932,1.1l.092,34.875a4.252,4.252,0,0,1-1.932,3.343L940.355,411.18c-1.074.613-1.932.123-1.932-1.1l-.123-34.844a4.252,4.252,0,0,1,1.932-3.343Z" transform="translate(-938.3 -339.939)" fill="#71affe"/>
            </g>
          </g>
        </g>
        <g id="Group_3404" data-name="Group 3404" transform="translate(8.466 15.837)">
          <g id="Group_3401" data-name="Group 3401" transform="translate(0.061 12.852)">
            <path id="Path_3327" data-name="Path 3327" d="M1006.864,433.6c.521-.307.951-.061.981.552v.767a2.18,2.18,0,0,1-.951,1.687l-39.813,22.974c-.521.307-.951.061-.982-.552v-.767a2.123,2.123,0,0,1,.951-1.656Z" transform="translate(-966.1 -433.47)" fill="#f8f8f8"/>
          </g>
          <g id="Group_3402" data-name="Group 3402" transform="translate(0.031 15.931)">
            <path id="Path_3328" data-name="Path 3328" d="M990.722,443.629c.491-.276.89-.061.89.491v.982a1.967,1.967,0,0,1-.89,1.534L966.89,460.407c-.491.276-.89.061-.89-.491v-.982a2.015,2.015,0,0,1,.89-1.534Z" transform="translate(-966 -443.508)" fill="#f8f8f8"/>
          </g>
          <g id="Group_3403" data-name="Group 3403">
            <path id="Path_3329" data-name="Path 3329" d="M1006.664,391.7c.521-.307.951-.061.982.552v.8a2.124,2.124,0,0,1-.951,1.656l-39.813,22.974c-.521.307-.951.061-.982-.552v-.8a2.123,2.123,0,0,1,.951-1.656Z" transform="translate(-965.9 -391.569)" fill="#f8f8f8"/>
          </g>
        </g>
      </g>
      <g id="Group_3413" data-name="Group 3413" transform="translate(16.533 9.662)">
        <g id="Group_3408" data-name="Group 3408">
          <g id="Group_3407" data-name="Group 3407">
            <g id="Group_3406" data-name="Group 3406">
              <path id="Path_3330" data-name="Path 3330" d="M1048.976,371.7c1.073-.613,1.932-.123,1.932,1.1l.092,34.875a4.252,4.252,0,0,1-1.932,3.343L994.224,442.68c-1.074.613-1.932.123-1.932-1.1L992.2,406.7a4.252,4.252,0,0,1,1.932-3.343Z" transform="translate(-992.2 -371.439)" fill="#71dcec"/>
            </g>
          </g>
        </g>
        <g id="Group_3412" data-name="Group 3412" transform="translate(8.435 15.837)">
          <g id="Group_3409" data-name="Group 3409" transform="translate(0.031 15.962)">
            <path id="Path_3331" data-name="Path 3331" d="M1044.522,475.229c.491-.276.889-.061.889.491v.982a1.966,1.966,0,0,1-.889,1.534l-23.833,13.772c-.491.276-.89.061-.89-.491v-.982a1.966,1.966,0,0,1,.89-1.534Z" transform="translate(-1019.8 -475.108)" fill="#f8f8f8"/>
          </g>
          <g id="Group_3410" data-name="Group 3410">
            <path id="Path_3332" data-name="Path 3332" d="M1060.495,423.2c.521-.307.982-.061.982.552v.8a2.075,2.075,0,0,1-.982,1.656l-39.813,22.974c-.552.307-.982.061-.982-.552v-.8a2.075,2.075,0,0,1,.982-1.656Z" transform="translate(-1019.7 -423.069)" fill="#f8f8f8"/>
          </g>
          <g id="Group_3411" data-name="Group 3411" transform="translate(0.031 12.852)">
            <path id="Path_3333" data-name="Path 3333" d="M1060.6,465.1c.521-.307.981-.061.981.552v.767a2.129,2.129,0,0,1-.981,1.687l-39.814,22.974c-.552.307-.982.061-.982-.552v-.767a2.076,2.076,0,0,1,.982-1.656Z" transform="translate(-1019.8 -464.969)" fill="#f8f8f8"/>
          </g>
        </g>
      </g>
    </g>
    <g id="Group_3449" data-name="Group 3449" transform="translate(111.529 186.051)">
      <g id="Group_3416" data-name="Group 3416" transform="translate(85.275 175.748)">
        <path id="Path_3334" data-name="Path 3334" d="M867.361,1191.334a8.133,8.133,0,0,1,1.043,3.865,3.189,3.189,0,0,1-1.932,2.883,8.285,8.285,0,0,1-6.472.123c-3.006-1.472-2.454-4.57-3.037-5.8-.583-.828-1.38-1.626-4.969-3.006-4.754-1.871-4.264-6.717-3.773-9.325,0,0,1.012-2.086,6.963,1.932Z" transform="translate(-847.921 -1179.536)" fill="#002944"/>
        <g id="Group_3415" data-name="Group 3415" clip-path="url(#clip-path)">
          <path id="Path_3335" data-name="Path 3335" d="M852.2,1178.1s-1.748,4.355-.061,7.085c1.687,2.76,4.969,2.147,6.993,4.448s.859,3.527,1.9,4.846,4.632,4.325,10.736-.521" transform="translate(-850.337 -1178.54)" fill="none" stroke="#007eca" stroke-linecap="round" stroke-linejoin="round" stroke-miterlimit="10" stroke-width="0.75"/>
        </g>
      </g>
      <g id="Group_3418" data-name="Group 3418" transform="translate(36.269 194.048)">
        <path id="Path_3337" data-name="Path 3337" d="M702.7,1239.2s-5.153.245-8.834.337-7.822,1.5-4.509,7.331c2.392,3.742,7.607,5.4,11.441,5.245a18.068,18.068,0,0,1,5.644.43c-.153.644,1.166,1.626,3.4,2.362,1.963.644,5.8,1.2,8.282-.552a2.638,2.638,0,0,0,1.1-1.963,79.422,79.422,0,0,0-.245-8.558Z" transform="translate(-688.15 -1239.2)" fill="#002944"/>
        <g id="Group_3417" data-name="Group 3417" clip-path="url(#clip-path-2)">
          <path id="Path_3338" data-name="Path 3338" d="M723.333,1250.821s-6.349,5.951-13.312,1.135a3.176,3.176,0,0,0-.644-.337,9.909,9.909,0,0,0-5.705-.491c-3.129.8-12.269-2.638-11.809-10.828" transform="translate(-690.712 -1239.963)" fill="none" stroke="#007eca" stroke-linecap="round" stroke-linejoin="round" stroke-miterlimit="10" stroke-width="0.75"/>
        </g>
      </g>
      <path id="Path_3340" data-name="Path 3340" d="M802,901.6s4.018,10.429,4.325,16.5c.307,6.1,2.454,22.79,4.233,28.311,1.779,5.49,6.472,11.686,8.067,17.7,1.564,5.981,2.454,20.336,3.159,23s4.018,12.821.307,14.109c-4.264.982-11.1-4.264-13.128-11.9-.982-4.632-2.546-12.576-4.877-18.465-2.3-5.889-3.435-9.631-5.4-12.791A110.03,110.03,0,0,1,792,944.3c-2.147-5.214-8.1-21.072-8.1-21.072l.736-15.245Z" transform="translate(-718.262 -811.104)" fill="#008be0"/>
      <path id="Path_3341" data-name="Path 3341" d="M795,957.892l2.515,6.38s-1.687-4.11,3.435-10.858c5.122-6.717,1.9-15.214,1.9-15.214Z" transform="translate(-725.957 -836.477)" fill="#007eca"/>
      <path id="Path_3342" data-name="Path 3342" d="M722.942,919.766s-2.945,17.208-2.761,30.55c.184,13.373,4.509,34.691,5.214,40s-.215,18.649-.736,22.422-1.319,6.625,1.994,9.509,12.3,3.037,14.754.89c1.687-1.626.368-12.177.521-15.244.153-3.1.736-18.588-.429-25.735a67.811,67.811,0,0,1-.8-16.349c.245-2.791.92-12.576,1.166-18.557A4.413,4.413,0,0,1,743.585,944a20.061,20.061,0,0,0,5.306-25.4Z" transform="translate(-674.082 -822.889)" fill="#0097e3"/>
      <path id="Path_3343" data-name="Path 3343" d="M721,944.2c2.024.859,9.171-11.2,11.84-12.821,2.669-1.6,2.761-5.245,2.761-5.245s1.38-4.049-.307-5.429l-11.778.521" transform="translate(-674.655 -824.345)" fill="#008be0"/>
      <path id="Path_3344" data-name="Path 3344" d="M741.376,937.623a1.091,1.091,0,0,1-.276-.123A1.091,1.091,0,0,0,741.376,937.623Z" transform="translate(-688.59 -835.992)" fill="#dbe7f6"/>
      <path id="Path_3345" data-name="Path 3345" d="M735.815,934.923c-.061-.031-.153-.092-.215-.123A.494.494,0,0,1,735.815,934.923Z" transform="translate(-684.777 -834.12)" fill="#dbe7f6"/>
      <path id="Path_3346" data-name="Path 3346" d="M738.561,936.331a.107.107,0,0,1-.061-.031A.107.107,0,0,0,738.561,936.331Z" transform="translate(-686.787 -835.16)" fill="#dbe7f6"/>
      <path id="Path_3347" data-name="Path 3347" d="M744.107,938.723a1.278,1.278,0,0,1-.307-.123A1.278,1.278,0,0,1,744.107,938.723Z" transform="translate(-690.462 -836.755)" fill="#dbe7f6"/>
      <path id="Path_3348" data-name="Path 3348" d="M733.584,933.423c-.061-.031-.123-.092-.184-.123A.64.64,0,0,0,733.584,933.423Z" transform="translate(-683.252 -833.08)" fill="#dbe7f6"/>
      <path id="Path_3349" data-name="Path 3349" d="M747.145,939.661a.721.721,0,0,0-.245-.061A.578.578,0,0,0,747.145,939.661Z" transform="translate(-692.611 -837.448)" fill="#dbe7f6"/>
      <path id="Path_3350" data-name="Path 3350" d="M767.529,942.1a2.028,2.028,0,0,0-.429.031A1.889,1.889,0,0,1,767.529,942.1Z" transform="translate(-706.615 -839.181)" fill="#dbe7f6"/>
      <path id="Path_3351" data-name="Path 3351" d="M760.96,942.031a2.32,2.32,0,0,1-.46-.031A2.32,2.32,0,0,0,760.96,942.031Z" transform="translate(-702.039 -839.112)" fill="#dbe7f6"/>
      <path id="Path_3352" data-name="Path 3352" d="M764.26,942.2h0Z" transform="translate(-704.327 -839.25)" fill="#dbe7f6"/>
      <path id="Path_3353" data-name="Path 3353" d="M753.8,941.261a2.114,2.114,0,0,0-.4-.061A2.114,2.114,0,0,1,753.8,941.261Z" transform="translate(-697.117 -838.557)" fill="#dbe7f6"/>
      <path id="Path_3354" data-name="Path 3354" d="M756.96,941.661c-.153-.031-.307-.031-.46-.061A2.365,2.365,0,0,0,756.96,941.661Z" transform="translate(-699.266 -838.834)" fill="#dbe7f6"/>
      <path id="Path_3355" data-name="Path 3355" d="M750.768,940.592l-.368-.092C750.492,940.531,750.645,940.561,750.768,940.592Z" transform="translate(-695.037 -838.072)" fill="#dbe7f6"/>
      <g id="Group_3419" data-name="Group 3419" transform="translate(0 49.776)">
        <path id="Path_3356" data-name="Path 3356" d="M618.981,769.567c-5.03,2.853-13.864,21.44-14.294,22.391H604.6a68.568,68.568,0,0,0-11.717-4.172,29.921,29.921,0,0,1-8.8-3.282,2.178,2.178,0,0,1-1.043-1.534,9.25,9.25,0,0,1,.061-2.883,4.476,4.476,0,0,0-1.9-4.2s-2.423-1.779-2.546-3.159-1.963-.245-1.656,1.2,2.822,3.865,2.576,4.908-3.558-1.043-4.2-1.963c-.46-.675-1.748-2.761-2.423-3.834a.721.721,0,0,0-1.1-.184c-.736.583-1.748,1.9-1.9,4.724-.276,4.448,1.5,5.552,2.73,6.227s6.073,4.632,6.073,4.632a1.875,1.875,0,0,0,.184.153,2.673,2.673,0,0,0,.307.245c2.945,2.423,18.956,15.336,25.367,15a5.245,5.245,0,0,0,1.994-.337,6.337,6.337,0,0,0,1.043-.46c6.932-3.711,15.612-18.895,19.385-24.354C630.637,773.278,624.134,766.622,618.981,769.567Z" transform="translate(-569.907 -768.844)" fill="#d77774"/>
      </g>
      <path id="Path_3357" data-name="Path 3357" d="M881.684,808.458a1.3,1.3,0,0,0-.061-.337c-.982-9.325-5.92-23.557-7.331-27.36a7.774,7.774,0,0,0-.368-1.1c-.123-1.043-1.166-8.742-2.208-12.852-.337-1.35-1.411-3.711-2.791-3.527a10.981,10.981,0,0,0-8.987,6.687,2.711,2.711,0,0,0-.061,1.9c.613,1.963,2.27,6.84,3.8,11.2a5.237,5.237,0,0,0,.4,1.166c.092,1.074,1.012,11.042,5.429,15.643a23.185,23.185,0,0,1,5.767,9.509.113.113,0,0,0,.031.092c-2.392,1.472-2.454,4.264-2.27,6.993s-1.2,4.478.982,4.2.951-5.951,2.485-5.705c1.564.245,2.73,5.276,2.362,8.22-.368,2.914-1.442,2.607-1.932,3.619-.491.982-.429,2.975,2.423.675s4.846-4.11,5.03-7.392C884.6,817.077,882.083,809.685,881.684,808.458Z" transform="translate(-770.834 -715.201)" fill="#d77774"/>
      <g id="Group_3420" data-name="Group 3420" transform="translate(57.797)">
        <path id="Path_3358" data-name="Path 3358" d="M780.38,652.7s-.429-.276-.613-1.534l-.092-.644c7.269-34.262-16.717-23.741-19.324-22.729-2.607.982-1.871,10.4-1.871,10.4-.368,6.349-.429,12.913,5.153,13.343,0,0,2.024-.583,2.178,2.3s-.092,7.7-1.687,8.9c0,0,7.607,2.484,13.619-2.393s2.577-7.607,2.577-7.607" transform="translate(-758.337 -619.683)" fill="#d77774"/>
        <path id="Path_3359" data-name="Path 3359" d="M768.818,632.094s1.043,7.76,5.521,7.546,2.607-2.7,7.331-1.564,4.264-2.669,2.515-5.613,4.233-1.258,3.8-4.969c-.429-3.742-2.577-3.1-.307-7.7,2.239-4.6-.092-8.128-3.4-7.147-3.313.951.859-6.411-7.147-6.073-8.006.307-6.2,6.84-9.938,3.1s-8.251,2.454-4.877,5.03c3.374,2.546-.368,5.552,1.012,10.551,1.38,5.03,1.81-.215,4.172,1.718C769.831,628.843,768.849,630.193,768.818,632.094Z" transform="translate(-760.272 -606.563)" fill="#300408"/>
      </g>
      <g id="Group_3448" data-name="Group 3448" transform="translate(38.019 33.015)">
        <g id="Group_3429" data-name="Group 3429">
          <path id="Path_3360" data-name="Path 3360" d="M706.416,753.124a70.315,70.315,0,0,1-.736,14.048c-.245,1.411-.583,2.7-.889,3.926-1.1,4.386-2.086,7.668.583,9.846.184.153.4.307.613.46.061.031.123.092.184.123.153.092.307.215.491.307.061.031.153.092.215.123a6.479,6.479,0,0,0,.644.337.107.107,0,0,1,.061.031,5.792,5.792,0,0,0,.767.337,1.091,1.091,0,0,1,.276.123c.184.061.368.153.552.215a1.288,1.288,0,0,1,.307.123,5.3,5.3,0,0,1,.644.215.723.723,0,0,0,.245.061c.276.061.552.153.828.215l.368.092c.184.031.368.061.521.092a1.8,1.8,0,0,0,.4.061c.184.031.368.061.583.092.153.031.307.031.46.061a6.464,6.464,0,0,0,.767.061,2.329,2.329,0,0,1,.46.031,2.973,2.973,0,0,1,.521.031h1.012a2.024,2.024,0,0,0,.429-.031h0a19.677,19.677,0,0,0,4.356-.767c5.859-1.779,19.416-8.742,19.6-11.594a18.153,18.153,0,0,0-2.117-8.8c-1.38-2.791.429-6.963,1.656-8.926,1.043-1.656,4.294-6.441,5.8-9.079a2.384,2.384,0,0,1,.767-.8v.031a14.852,14.852,0,0,0,5.153-1.074,9.809,9.809,0,0,0,6.135-5.429,3.641,3.641,0,0,0,.061-2.607,38.617,38.617,0,0,1-2.239-8.19c-.521-3.619-4.049-12.7-20.305-12.668,0,0-2.73,7.147-14.447,6.779-12.821-.43-23.281,13.312-27.268,25.244-.184.583,1.626,2.024,2.055,2.423a18.422,18.422,0,0,0,10.49,4.478h0Zm10.03-1.564a1.1,1.1,0,0,1-.123.337A2.326,2.326,0,0,1,716.446,751.56Zm.184-.583c-.031.123-.061.215-.092.337A1.088,1.088,0,0,1,716.63,750.977Zm.153-.583c-.031.092-.061.215-.092.307C716.722,750.609,716.753,750.486,716.783,750.394Zm.123-.552c-.031.092-.031.215-.061.307C716.875,750.026,716.875,749.934,716.906,749.842Zm-1.135-3.006.061-.061h0Zm-.368.491a1.684,1.684,0,0,1,.215-.276A1.681,1.681,0,0,0,715.4,747.327Zm-.337.46c.061-.092.123-.153.184-.245C715.188,747.633,715.127,747.695,715.065,747.787Zm-.307.429a1.076,1.076,0,0,0,.153-.245A1.714,1.714,0,0,1,714.759,748.216Zm-.307.429c.061-.061.092-.153.153-.215A.93.93,0,0,1,714.452,748.646Zm-.245.4a.93.93,0,0,1,.153-.215A.93.93,0,0,0,714.207,749.044Zm-.245.4a1.337,1.337,0,0,0,.123-.215A1.337,1.337,0,0,0,713.961,749.443Zm-.245.368c.031-.061.092-.153.123-.215A.77.77,0,0,1,713.716,749.811Zm-.276.429c.031-.061.092-.123.123-.184C713.532,750.118,713.471,750.179,713.44,750.241Zm-.215.337c.031-.061.061-.092.092-.153C713.286,750.486,713.256,750.517,713.225,750.578Zm-.184.307c.031-.031.061-.092.092-.123A.424.424,0,0,0,713.041,750.885Zm-.215.276c.031-.031.061-.092.092-.123A.424.424,0,0,1,712.826,751.161Zm-.184.307c.031-.031.031-.061.061-.092C712.673,751.406,712.642,751.437,712.642,751.468Zm-.276.307c0-.031.031-.031.031-.061C712.4,751.744,712.4,751.744,712.366,751.774Zm-.245.307.092-.092Zm-.061,10.337c-.031.092-.061.153-.092.245A2.115,2.115,0,0,0,712.06,762.418Zm.215-.583-.092.276Zm.215-.583-.092.276Zm.245-.613a1.091,1.091,0,0,1-.123.276A1.091,1.091,0,0,0,712.734,760.639Zm.276-.644c-.031.092-.092.184-.123.276C712.918,760.209,712.949,760.117,713.01,759.995Zm.245-.613c-.031.092-.092.184-.123.276A1.085,1.085,0,0,0,713.256,759.381Zm.307-.675a3.2,3.2,0,0,0-.123.307A.92.92,0,0,1,713.563,758.706Zm.276-.675a3.18,3.18,0,0,0-.123.307A3.192,3.192,0,0,1,713.839,758.031Zm.4-.92a1.539,1.539,0,0,0-.153.4C714.145,757.357,714.176,757.234,714.237,757.111Zm.307-.705c-.061.123-.092.245-.153.368C714.452,756.621,714.483,756.529,714.544,756.406Zm.307-.705a1.538,1.538,0,0,0-.153.4A1.538,1.538,0,0,1,714.851,755.7Zm.307-.767-.184.46Zm.337-.859-.276.644A2.4,2.4,0,0,0,715.495,754.075Zm.276-.644c-.061.153-.123.337-.184.491C715.648,753.768,715.71,753.615,715.771,753.431Zm.245-.644c-.061.123-.092.276-.153.4A3.436,3.436,0,0,1,716.016,752.786Zm.215-.613c-.031.123-.092.245-.123.368C716.139,752.418,716.2,752.3,716.231,752.173Zm.705-5.276v.031c0-.031-.031-.061-.031-.092A.1.1,0,0,1,716.937,746.9Zm.184,1.227v0Zm-.061-.828a.567.567,0,0,0-.061-.215A1.992,1.992,0,0,0,717.059,747.3Zm.061.4c0-.061-.031-.153-.031-.215A.523.523,0,0,0,717.121,747.695Zm-.092,1.626c-.031.092-.031.184-.061.276A.893.893,0,0,1,717.029,749.32Zm.061-.521c0,.092-.031.184-.031.276C717.059,748.983,717.09,748.891,717.09,748.8Zm.031-.46v0Zm-5.337,14.876a.568.568,0,0,0,.061-.215A.567.567,0,0,1,711.783,763.215Zm-.153.521a1.969,1.969,0,0,0,.061-.215A.444.444,0,0,1,711.63,763.737Zm-.123.491a1.332,1.332,0,0,1,.031-.153A.334.334,0,0,1,711.507,764.227Zm-.736-11.349h-.031a2.272,2.272,0,0,0,1.227-.644l-.031.031A1.975,1.975,0,0,1,710.771,752.878Zm-.429.092c.061,0,.123-.031.184-.031A.389.389,0,0,0,710.342,752.971Zm-.4.031c.061,0,.123-.031.184-.031C710.1,753,710,753,709.943,753Zm-.368.031a.389.389,0,0,0,.184-.031A.389.389,0,0,1,709.575,753.032Zm-.767.061h0Zm-.337.031h0Zm-.982,0h0Zm.613,0h0Zm-.307,0h0Zm-.951,0h0Zm.245,0h0Zm.276,0h0Zm-.736,0h0Z" transform="translate(-693.857 -714.2)" fill="#ffc500"/>
          <g id="Group_3428" data-name="Group 3428" clip-path="url(#clip-path-3)">
            <g id="Group_3421" data-name="Group 3421" transform="translate(7.816 49.913)">
              <path id="Path_3361" data-name="Path 3361" d="M730.369,890.26a39.332,39.332,0,0,0,17.729-4.448,48.928,48.928,0,0,0,11.625-8.251.369.369,0,0,0-.521-.521,47.583,47.583,0,0,1-11.441,8.128c-6.472,3.282-16.533,6.411-27.943,2.669a.369.369,0,0,0-.215.705A34.239,34.239,0,0,0,730.369,890.26Z" transform="translate(-719.339 -876.925)" fill="#fff"/>
            </g>
            <g id="Group_3422" data-name="Group 3422" transform="translate(8.892 42.44)">
              <path id="Path_3362" data-name="Path 3362" d="M732.5,865.763a37.659,37.659,0,0,0,17.422-4.57,47.18,47.18,0,0,0,10.981-8.006.369.369,0,0,0-.521-.521c-.153.184-16.655,17.238-37.053,10.95a.369.369,0,1,0-.215.705A31.211,31.211,0,0,0,732.5,865.763Z" transform="translate(-722.848 -852.561)" fill="#fff"/>
            </g>
            <g id="Group_3423" data-name="Group 3423" transform="translate(10.676 34.035)">
              <path id="Path_3363" data-name="Path 3363" d="M734.655,840.478c4.877,0,11.257-1.871,19.048-5.644a134.619,134.619,0,0,0,15.643-8.987.374.374,0,1,0-.429-.613c-.276.184-28.127,19.232-39.721,13.343a.364.364,0,0,0-.337.644A12,12,0,0,0,734.655,840.478Z" transform="translate(-728.662 -825.16)" fill="#fff"/>
            </g>
            <g id="Group_3424" data-name="Group 3424" transform="translate(9.775 17.816)">
              <path id="Path_3364" data-name="Path 3364" d="M731.944,796.828q6.947,0,19.477-6.349a172.679,172.679,0,0,0,18.5-11.073c.951-.245,10-2.73,10.735-6.687a.373.373,0,0,0-.736-.123c-.276,1.472-2.116,3.006-5.306,4.417a32.856,32.856,0,0,1-4.938,1.718.232.232,0,0,0-.123.061c-.337.245-34.6,24.14-43.187,15.367a.369.369,0,0,0-.521.521C727.22,796.122,729.275,796.828,731.944,796.828Z" transform="translate(-725.725 -772.285)" fill="#fff"/>
            </g>
            <g id="Group_3425" data-name="Group 3425" transform="translate(-1.495 12.303)">
              <path id="Path_3365" data-name="Path 3365" d="M706.013,777.773c7.975,0,19.109-6.441,27.667-11.41,4.816-2.791,8.926-5.184,10.367-5.061,4.754.368,10.429-6.1,10.643-6.38a.369.369,0,0,0-.552-.491c-.061.061-5.644,6.441-10.03,6.1-1.656-.123-5.49,2.086-10.8,5.184-9.693,5.613-24.354,14.11-31.655,10.367-10.919-5.552-11.9-11.441-11.932-11.472a.373.373,0,0,0-.736.123c.031.245,1.043,6.319,12.331,12.055A10.63,10.63,0,0,0,706.013,777.773Z" transform="translate(-688.985 -754.311)" fill="#fff"/>
            </g>
            <g id="Group_3426" data-name="Group 3426" transform="translate(1.261 1.405)">
              <path id="Path_3366" data-name="Path 3366" d="M714.111,744.675c6.472,0,13.128-4.172,19.14-7.944,4.877-3.067,9.509-5.951,13.557-6.5,3.558-.46,6.135-1.81,7.576-4.018a9.332,9.332,0,0,0,1.1-7.147.379.379,0,0,0-.736.184,8.919,8.919,0,0,1-1.012,6.564c-1.35,1.994-3.711,3.221-7.055,3.681-4.233.552-8.9,3.5-13.864,6.595-8.067,5.061-16.379,10.275-24.262,6.625-6.993-3.251-9.11-6.2-9.631-8.1a3.335,3.335,0,0,1,.153-2.577.379.379,0,0,0-.644-.4,4.028,4.028,0,0,0-.276,3.221c.583,2.055,2.791,5.184,10.061,8.588A15.024,15.024,0,0,0,714.111,744.675Z" transform="translate(-697.967 -718.781)" fill="#fff"/>
            </g>
            <g id="Group_3427" data-name="Group 3427" transform="translate(-1.751 -4.801)">
              <path id="Path_3367" data-name="Path 3367" d="M704.389,722.673c6.288,0,12.821-3.742,18.8-7.116,5-2.853,9.754-5.552,13.833-5.92,3.589-.307,6.2-1.564,7.76-3.681a9.567,9.567,0,0,0,1.411-7.116.379.379,0,1,0-.736.184,8.871,8.871,0,0,1-1.288,6.5c-1.411,1.932-3.834,3.067-7.208,3.374-4.233.368-9.049,3.1-14.14,6.012-8.282,4.693-16.809,9.57-24.508,5.583-6.84-3.558-8.834-6.595-9.294-8.5a3.274,3.274,0,0,1,.276-2.577.374.374,0,1,0-.613-.429,4.094,4.094,0,0,0-.4,3.19c.491,2.086,2.577,5.306,9.662,8.987A13.872,13.872,0,0,0,704.389,722.673Z" transform="translate(-688.147 -698.548)" fill="#fff"/>
            </g>
          </g>
        </g>
        <g id="Group_3438" data-name="Group 3438" transform="translate(52.955 15.358)">
          <path id="Path_3369" data-name="Path 3369" d="M866.592,765.6a45.919,45.919,0,0,1-.092,13.281,14.945,14.945,0,0,0,5.429-1.166c-1.2-2.73-1.166-6.564-2.055-10.459-.429-1.871-1.135-2.669-1.81-2.914A1.122,1.122,0,0,0,866.592,765.6Z" transform="translate(-866.5 -764.268)" fill="#ffa400"/>
          <g id="Group_3437" data-name="Group 3437" clip-path="url(#clip-path-4)">
            <g id="Group_3430" data-name="Group 3430" transform="translate(-44.875 34.793)">
              <path id="Path_3370" data-name="Path 3370" d="M730.966,890.613a38.92,38.92,0,0,0,17.637-4.448,47.181,47.181,0,0,0,11.564-8.22l-.276-.245a47.764,47.764,0,0,1-11.472,8.159c-6.5,3.282-16.625,6.441-28.1,2.669l-.123.368A34.515,34.515,0,0,0,730.966,890.613Z" transform="translate(-720.2 -877.7)" fill="#fff"/>
            </g>
            <g id="Group_3431" data-name="Group 3431" transform="translate(-43.77 27.339)">
              <path id="Path_3371" data-name="Path 3371" d="M733.155,866.16a37.748,37.748,0,0,0,17.33-4.54,45.044,45.044,0,0,0,10.95-7.975l-.276-.245c-.153.184-16.747,17.3-37.237,11.012l-.123.368A33.085,33.085,0,0,0,733.155,866.16Z" transform="translate(-723.8 -853.4)" fill="#fff"/>
            </g>
            <g id="Group_3432" data-name="Group 3432" transform="translate(-42.053 18.904)">
              <path id="Path_3372" data-name="Path 3372" d="M735.167,840.807c4.846,0,11.2-1.871,18.956-5.613a127.865,127.865,0,0,0,15.613-8.987l-.215-.307c-.276.184-28.219,19.293-39.936,13.373l-.184.337A12.807,12.807,0,0,0,735.167,840.807Z" transform="translate(-729.4 -825.9)" fill="#fff"/>
            </g>
            <g id="Group_3433" data-name="Group 3433" transform="translate(-43.18 2.459)">
              <path id="Path_3373" data-name="Path 3373" d="M731.944,796.828q6.947,0,19.477-6.349a172.679,172.679,0,0,0,18.5-11.073c.951-.245,10-2.73,10.735-6.687a.373.373,0,0,0-.736-.123c-.276,1.472-2.116,3.006-5.306,4.417a32.856,32.856,0,0,1-4.938,1.718l-.061.031-.061.031c-.337.245-34.6,24.14-43.187,15.367a.369.369,0,0,0-.521.521C727.22,796.122,729.275,796.828,731.944,796.828Z" transform="translate(-725.725 -772.285)" fill="#fff"/>
            </g>
            <g id="Group_3434" data-name="Group 3434" transform="translate(-54.449 -3.054)">
              <path id="Path_3374" data-name="Path 3374" d="M706.013,777.773c7.975,0,19.109-6.441,27.667-11.41,4.816-2.791,8.926-5.184,10.367-5.061,4.754.368,10.429-6.1,10.643-6.38a.369.369,0,0,0-.552-.491c-.061.061-5.644,6.441-10.03,6.1-1.656-.123-5.49,2.086-10.8,5.184-9.693,5.613-24.354,14.11-31.655,10.367-10.919-5.552-11.9-11.441-11.932-11.472a.373.373,0,0,0-.736.123c.031.245,1.043,6.319,12.331,12.055A10.63,10.63,0,0,0,706.013,777.773Z" transform="translate(-688.985 -754.311)" fill="#fff"/>
            </g>
            <g id="Group_3435" data-name="Group 3435" transform="translate(-51.441 -13.609)">
              <path id="Path_3375" data-name="Path 3375" d="M714.684,745.267c6.441,0,13.036-4.141,19.048-7.914,4.908-3.067,9.539-5.981,13.649-6.533,3.527-.46,6.012-1.779,7.453-3.926a9.185,9.185,0,0,0,1.074-6.993l-.368.092a9.236,9.236,0,0,1-1.043,6.717q-2.07,3.083-7.177,3.773c-4.172.552-8.865,3.466-13.8,6.564-6.2,3.9-12.545,7.883-18.772,7.883a13.026,13.026,0,0,1-5.674-1.258c-7.024-3.282-9.171-6.257-9.723-8.19a3.558,3.558,0,0,1,.184-2.761l-.307-.215a3.838,3.838,0,0,0-.245,3.037c.583,2.024,2.761,5.122,9.938,8.466A13.886,13.886,0,0,0,714.684,745.267Z" transform="translate(-698.793 -719.9)" fill="#fff"/>
            </g>
            <g id="Group_3436" data-name="Group 3436" transform="translate(-54.526 -19.774)">
              <path id="Path_3376" data-name="Path 3376" d="M704.8,723.357c6.227,0,12.76-3.711,18.71-7.085,5.03-2.853,9.785-5.583,13.895-5.92,3.527-.307,6.1-1.534,7.607-3.589a9.273,9.273,0,0,0,1.38-6.963l-.368.092a9.193,9.193,0,0,1-1.319,6.656c-1.442,1.994-3.926,3.159-7.331,3.435-4.2.368-8.987,3.1-14.048,5.981-8.312,4.724-16.9,9.631-24.692,5.583-6.9-3.589-8.9-6.656-9.386-8.619a3.716,3.716,0,0,1,.307-2.761l-.307-.215a3.809,3.809,0,0,0-.368,3.037c.491,2.024,2.546,5.214,9.57,8.864A13.425,13.425,0,0,0,704.8,723.357Z" transform="translate(-688.735 -699.8)" fill="#fff"/>
            </g>
          </g>
        </g>
        <g id="Group_3447" data-name="Group 3447" transform="translate(9.805 32.061)">
          <path id="Path_3378" data-name="Path 3378" d="M733.577,837.152c.859-4.846,7.576-15.521,5.214-18.312a.288.288,0,0,0-.46,0c-2.362,2.914-2.853,4.509-4.2,5.92a1.968,1.968,0,0,1-1.2.613,20.867,20.867,0,0,1-4.356.215,70.315,70.315,0,0,1-.736,14.048c-.245,1.411-.583,2.7-.89,3.926-1.1,4.386-2.086,7.668.583,9.846.184.153.4.307.613.46.061.031.123.092.184.123.153.092.307.215.491.307.061.031.153.092.215.123a6.491,6.491,0,0,0,.644.337.107.107,0,0,1,.061.031,5.792,5.792,0,0,0,.767.337,1.092,1.092,0,0,1,.276.123c.184.061.368.153.552.215a1.281,1.281,0,0,1,.307.123,5.308,5.308,0,0,1,.644.215.721.721,0,0,0,.245.061c.276.061.552.153.828.215l.368.092c.184.031.368.061.521.092a1.8,1.8,0,0,0,.4.061c.184.031.368.061.583.092.153.031.307.031.46.061a6.465,6.465,0,0,0,.767.061,2.319,2.319,0,0,1,.46.031,2.979,2.979,0,0,1,.521.031h1.012a2.027,2.027,0,0,0,.429-.031h0C739.221,848.409,732.688,842.151,733.577,837.152Z" transform="translate(-725.825 -818.725)" fill="#ffa400"/>
          <g id="Group_3446" data-name="Group 3446" clip-path="url(#clip-path-5)">
            <g id="Group_3439" data-name="Group 3439" transform="translate(-1.989 17.852)">
              <path id="Path_3379" data-name="Path 3379" d="M730.369,890.26a39.332,39.332,0,0,0,17.729-4.448,48.928,48.928,0,0,0,11.625-8.251.369.369,0,0,0-.521-.521,47.583,47.583,0,0,1-11.441,8.128c-6.472,3.282-16.533,6.411-27.943,2.669a.369.369,0,0,0-.215.705A34.239,34.239,0,0,0,730.369,890.26Z" transform="translate(-719.339 -876.925)" fill="#fff"/>
            </g>
            <g id="Group_3440" data-name="Group 3440" transform="translate(-0.913 10.379)">
              <path id="Path_3380" data-name="Path 3380" d="M732.5,865.763a37.659,37.659,0,0,0,17.422-4.57,47.18,47.18,0,0,0,10.981-8.006.369.369,0,0,0-.521-.521c-.153.184-16.655,17.238-37.053,10.95a.369.369,0,1,0-.215.705A31.211,31.211,0,0,0,732.5,865.763Z" transform="translate(-722.848 -852.561)" fill="#fff"/>
            </g>
            <g id="Group_3441" data-name="Group 3441" transform="translate(0.87 1.974)">
              <path id="Path_3381" data-name="Path 3381" d="M734.655,840.478c4.877,0,11.257-1.871,19.048-5.644a134.619,134.619,0,0,0,15.643-8.987.374.374,0,1,0-.429-.613c-.276.184-28.127,19.232-39.721,13.343a.364.364,0,0,0-.337.644A12,12,0,0,0,734.655,840.478Z" transform="translate(-728.662 -825.16)" fill="#fff"/>
            </g>
            <g id="Group_3442" data-name="Group 3442" transform="translate(-0.031 -14.245)">
              <path id="Path_3382" data-name="Path 3382" d="M731.944,796.828q6.947,0,19.477-6.349a172.679,172.679,0,0,0,18.5-11.073c.951-.245,10-2.73,10.735-6.687a.373.373,0,0,0-.736-.123c-.276,1.472-2.116,3.006-5.306,4.417a32.856,32.856,0,0,1-4.938,1.718l-.061.031-.061.031c-.337.245-34.6,24.14-43.187,15.367a.369.369,0,0,0-.521.521C727.22,796.122,729.275,796.828,731.944,796.828Z" transform="translate(-725.725 -772.285)" fill="#fff"/>
            </g>
            <g id="Group_3443" data-name="Group 3443" transform="translate(-11.3 -19.758)">
              <path id="Path_3383" data-name="Path 3383" d="M706.013,777.773c7.975,0,19.109-6.441,27.667-11.41,4.816-2.791,8.926-5.184,10.367-5.061,4.754.368,10.429-6.1,10.643-6.38a.369.369,0,0,0-.552-.491c-.061.061-5.644,6.441-10.03,6.1-1.656-.123-5.49,2.086-10.8,5.184-9.693,5.613-24.354,14.11-31.655,10.367-10.919-5.552-11.9-11.441-11.932-11.472a.373.373,0,0,0-.736.123c.031.245,1.043,6.319,12.331,12.055A10.63,10.63,0,0,0,706.013,777.773Z" transform="translate(-688.985 -754.311)" fill="#fff"/>
            </g>
            <g id="Group_3444" data-name="Group 3444" transform="translate(-8.291 -30.313)">
              <path id="Path_3384" data-name="Path 3384" d="M714.684,745.267c6.441,0,13.036-4.141,19.048-7.914,4.908-3.067,9.539-5.981,13.649-6.533,3.527-.46,6.012-1.779,7.453-3.926a9.185,9.185,0,0,0,1.074-6.993l-.368.092a9.236,9.236,0,0,1-1.043,6.717q-2.07,3.083-7.177,3.773c-4.172.552-8.865,3.466-13.8,6.564-6.2,3.9-12.545,7.883-18.772,7.883a13.026,13.026,0,0,1-5.674-1.258c-7.024-3.282-9.171-6.257-9.723-8.19a3.558,3.558,0,0,1,.184-2.761l-.307-.215a3.838,3.838,0,0,0-.245,3.037c.583,2.024,2.761,5.122,9.938,8.466A13.886,13.886,0,0,0,714.684,745.267Z" transform="translate(-698.793 -719.9)" fill="#fff"/>
            </g>
            <g id="Group_3445" data-name="Group 3445" transform="translate(-11.377 -36.478)">
              <path id="Path_3385" data-name="Path 3385" d="M704.8,723.357c6.227,0,12.76-3.711,18.71-7.085,5.03-2.853,9.785-5.583,13.895-5.92,3.527-.307,6.1-1.534,7.607-3.589a9.273,9.273,0,0,0,1.38-6.963l-.368.092a9.193,9.193,0,0,1-1.319,6.656c-1.442,1.994-3.926,3.159-7.331,3.435-4.2.368-8.987,3.1-14.048,5.981-8.312,4.724-16.9,9.631-24.692,5.583-6.9-3.589-8.9-6.656-9.386-8.619a3.716,3.716,0,0,1,.307-2.761l-.307-.215a3.809,3.809,0,0,0-.368,3.037c.491,2.024,2.546,5.214,9.57,8.864A13.425,13.425,0,0,0,704.8,723.357Z" transform="translate(-688.735 -699.8)" fill="#fff"/>
            </g>
          </g>
        </g>
      </g>
    </g>
  </g>
</svg>
