<svg xmlns="http://www.w3.org/2000/svg" width="480.2" height="348.815" viewBox="0 0 480.2 348.815">
  <g id="Group_3461" data-name="Group 3461" transform="translate(0)">
    <path id="Path_3392" data-name="Path 3392" d="M613.532,100.049a97.577,97.577,0,0,1-36.122-36.384C556.286,26.114,509.223,0,454.516,0c-74.431,0-134.77,48.376-134.77,108.073,0,1.838.058,3.647.175,5.456a101.668,101.668,0,0,1-23.779,71.28c-7.411,8.928-11.642,19.169-11.642,30.053,0,34.575,42.482,62.585,94.914,62.585A132.707,132.707,0,0,0,428.4,268.46a100.011,100.011,0,0,1,67.516-2.626,149.515,149.515,0,0,0,45.662,7c67.049,0,121.407-42.861,121.407-95.731C662.988,145.507,643.526,117.468,613.532,100.049Z" transform="translate(-201.491)" fill="#eaf2f9" opacity="0.089"/>
    <g id="Group_3460" data-name="Group 3460" transform="translate(0 43.328)">
      <path id="Path_3487" data-name="Path 3487" d="M106.73,0c58.946,0,106.73,4.925,106.73,11S165.676,22,106.73,22,0,17.075,0,11,47.785,0,106.73,0Z" transform="translate(0 281.532)" fill="#c6d2eb" opacity="0.35"/>
      <path id="Path_3393" data-name="Path 3393" d="M1011.478,1056c-31.336-.029-56.9,6.477-58.18,14.647-12.809-2.859-30.636-4.639-50.389-4.668-38.981-.029-70.58,6.8-70.609,15.289,0,8.49,31.6,15.376,70.58,15.435,27.281.029,50.973-3.326,62.7-8.228a44.05,44.05,0,0,1,22.262-3.093,203.9,203.9,0,0,0,23.575,1.342c32.153.029,58.238-6.828,58.238-15.289S1043.631,1056.029,1011.478,1056Z" transform="translate(-589.458 -791.216)" fill="#d4e0f4" opacity="0.349"/>
      <path id="Path_3394" data-name="Path 3394" d="M1145.422,563.3l-16.223.35,45.546,152.743,21.358,13.626Z" transform="translate(-799.73 -442.273)" fill="#4f81a3"/>
      <path id="Path_3395" data-name="Path 3395" d="M1362.9,591.563l17.127-13.363,44.962,141.831-14.968,11.758Z" transform="translate(-965.243 -452.825)" fill="#7badc9"/>
      <path id="Path_3396" data-name="Path 3396" d="M1295.1,578.2h36.909l-17.127,13.363-18.469-1.751Z" transform="translate(-917.225 -452.825)" fill="#ced9ea"/>
      <path id="Path_3397" data-name="Path 3397" d="M1365.19,759.977l-47.121-140.226L1299.6,618l43.912,139.059Z" transform="translate(-920.412 -481.013)" fill="#4f81a3"/>
      <path id="Path_3398" data-name="Path 3398" d="M735.046,487.192l-160.767,17.8s-18.615,2.684-20.687-10.445c-2.072-13.1,21.971-13.1,21.971-13.1L732.42,463.5Z" transform="translate(-391.98 -371.592)" fill="#e6f0ff"/>
      <rect id="Rectangle_460" data-name="Rectangle 460" width="180.695" height="2.072" transform="matrix(0.994, -0.108, 0.108, 0.994, 161.785, 118.064)" fill="#ced9ea"/>
      <rect id="Rectangle_461" data-name="Rectangle 461" width="182.358" height="2.072" transform="matrix(0.994, -0.108, 0.108, 0.994, 160.593, 122.59)" fill="#ced9ea"/>
      <rect id="Rectangle_462" data-name="Rectangle 462" width="180.724" height="2.072" transform="matrix(0.994, -0.108, 0.108, 0.994, 162.689, 126.761)" fill="#ced9ea"/>
      <path id="Path_3399" data-name="Path 3399" d="M565.186,501.754a32.454,32.454,0,0,1-6.39-.584c-7.761-1.488-12.43-5.69-13.48-12.167a10.409,10.409,0,0,1,2.3-8.666c5.894-6.944,20.482-7.323,22.729-7.323L732.664,455.1l.554,4.931L570.642,477.975H570.5c-4,0-15.231,1.021-19.111,5.573a5.366,5.366,0,0,0-1.2,4.668c1.721,10.591,18.44,8.4,18.615,8.374h.088l166.486-17.8.525,4.931-166.456,17.8A39.386,39.386,0,0,1,565.186,501.754Z" transform="translate(-386.096 -365.642)" fill="#160c4f"/>
      <path id="Path_3400" data-name="Path 3400" d="M556.05,758.189l42.716-146.733a2.309,2.309,0,0,1,2.859-1.576l28.214,8.2a2.309,2.309,0,0,1,1.576,2.859L588.7,767.672a2.309,2.309,0,0,1-2.859,1.576l-28.214-8.2A2.264,2.264,0,0,1,556.05,758.189Z" transform="translate(-393.737 -475.199)" fill="#232f63"/>
      <path id="Path_3401" data-name="Path 3401" d="M645.518,383.258,814.6,364.964a2.316,2.316,0,0,1,2.538,2.042l2.188,20.132a2.316,2.316,0,0,1-2.042,2.538L648.2,407.971a2.316,2.316,0,0,1-2.538-2.042L643.475,385.8A2.337,2.337,0,0,1,645.518,383.258Z" transform="translate(-455.72 -301.795)" fill="#5364a0"/>
      <path id="Path_3402" data-name="Path 3402" d="M1022,386.438l2.6,24.742,4.464-.5L1026.2,386Z" transform="translate(-723.808 -316.704)" fill="#e6515b"/>
      <path id="Path_3403" data-name="Path 3403" d="M1314.882,591.563l-18.469-1.751.408-.846,18.061,1.663,15.464-11.846h-34.663l-.584-.584h36.909Z" transform="translate(-917.225 -452.825)" fill="#4f81a3"/>
      <path id="Path_3404" data-name="Path 3404" d="M1236.364,705.618,1186.15,540.387a2.313,2.313,0,0,1,1.546-2.888l28.1-8.549a2.313,2.313,0,0,1,2.889,1.546L1268.9,695.727a2.313,2.313,0,0,1-1.547,2.889l-28.1,8.549A2.336,2.336,0,0,1,1236.364,705.618Z" transform="translate(-839.99 -417.872)" fill="#669dbc"/>
      <path id="Path_3405" data-name="Path 3405" d="M216.169,1058.128H86.71a3.91,3.91,0,0,1-3.91-3.91V1020.11a3.91,3.91,0,0,1,3.91-3.91h129.46a3.91,3.91,0,0,1,3.91,3.91v34.108A3.91,3.91,0,0,1,216.169,1058.128Z" transform="translate(-58.641 -763.029)" fill="#a7c7d2"/>
      <rect id="Rectangle_463" data-name="Rectangle 463" width="3.618" height="41.957" transform="translate(43.62 253.142)" fill="#4f81a3"/>
      <rect id="Rectangle_464" data-name="Rectangle 464" width="6.623" height="41.957" transform="translate(137.746 253.142)" fill="#4f81a3"/>
      <rect id="Rectangle_465" data-name="Rectangle 465" width="3.618" height="41.957" transform="translate(49.047 253.142)" fill="#4f81a3"/>
      <rect id="Rectangle_466" data-name="Rectangle 466" width="3.618" height="41.957" transform="translate(131.94 253.142)" fill="#4f81a3"/>
      <rect id="Rectangle_467" data-name="Rectangle 467" width="129.518" height="21.154" transform="translate(34.517 227.437)" fill="#fff"/>
      <rect id="Rectangle_468" data-name="Rectangle 468" width="129.518" height="2.422" transform="translate(34.517 232.66)" fill="#ced9ea"/>
      <rect id="Rectangle_469" data-name="Rectangle 469" width="129.518" height="2.422" transform="translate(34.517 237.065)" fill="#ced9ea"/>
      <rect id="Rectangle_470" data-name="Rectangle 470" width="129.518" height="2.422" transform="translate(34.517 241.471)" fill="#ced9ea"/>
      <path id="Path_3406" data-name="Path 3406" d="M242.4,946.294H112.936a6.544,6.544,0,0,1-6.536-6.536V924.236a6.544,6.544,0,0,1,6.536-6.536H242.4v4.668H112.936a1.88,1.88,0,0,0-1.867,1.867v15.522a1.88,1.88,0,0,0,1.867,1.867H242.4Z" transform="translate(-75.355 -693.268)" fill="#4f81a3"/>
      <path id="Path_3407" data-name="Path 3407" d="M1128,537.8l16.223-.35,32.182-9.57-.467-1.08-31.395,9.629-17.039.175Z" transform="translate(-798.526 -416.422)" fill="#2d2e75"/>
      <rect id="Rectangle_471" data-name="Rectangle 471" width="34.021" height="11.729" transform="translate(198.002 160.33) rotate(16.237)" fill="#7badc9"/>
      <rect id="Rectangle_472" data-name="Rectangle 472" width="34.021" height="2.48" transform="translate(193.872 174.499) rotate(16.237)" fill="#e6515b"/>
      <rect id="Rectangle_473" data-name="Rectangle 473" width="24.451" height="2.48" transform="translate(357.679 139.255) rotate(-18.179)" fill="#232f63"/>
      <rect id="Rectangle_474" data-name="Rectangle 474" width="24.451" height="2.48" transform="translate(359.055 143.517) rotate(-18.179)" fill="#232f63"/>
      <rect id="Rectangle_475" data-name="Rectangle 475" width="24.451" height="2.48" transform="translate(395.176 267.839) rotate(-18.179)" fill="#232f63"/>
      <rect id="Rectangle_476" data-name="Rectangle 476" width="24.451" height="2.48" transform="translate(396.552 272.101) rotate(-18.179)" fill="#232f63"/>
      <rect id="Rectangle_477" data-name="Rectangle 477" width="24.451" height="2.48" transform="translate(172.41 269.059) rotate(16.237)" fill="#7badc9"/>
      <rect id="Rectangle_478" data-name="Rectangle 478" width="24.451" height="2.48" transform="translate(171.126 273.341) rotate(16.237)" fill="#7badc9"/>
      <g id="Group_3456" data-name="Group 3456" transform="translate(251.456 184.598)">
        <path id="Path_3408" data-name="Path 3408" d="M1153.241,960.7s-8.082-4.026-8.695-5.019a8.148,8.148,0,0,1-1.459-4.085c-.058-1.751-3.56-3.21-3.56-3.21a5.809,5.809,0,0,1-2.8-2.888s-2.218.146-1.284,2.6,4.085,10.445,4.085,10.445a3.962,3.962,0,0,1,4.7,1.43c2.042,2.655,9.016,8.928,9.016,8.928Z" transform="translate(-1055.446 -897.555)" fill="#fac2ae"/>
        <path id="Path_3409" data-name="Path 3409" d="M1135.86,954.5s7.44,4.2,8.4,9.57,8.345,7.061,8.345,7.061l-1.167,2.159a86.894,86.894,0,0,1-7.5-7.645s-1.43-1.313-2.626-.233S1135.218,956.922,1135.86,954.5Z" transform="translate(-1055.863 -903.93)" fill="#f1a080"/>
        <path id="Path_3410" data-name="Path 3410" d="M916.27,1072s-4.9,11.7-7.849,13.3S895,1091.024,895,1091.024s6.3,6.857,19.665-.263a46.785,46.785,0,0,1,.292-4.756c.321-2.889,8.374-6.944,10.154-10.183C926.891,1072.642,916.27,1072,916.27,1072Z" transform="translate(-885.32 -987.146)" fill="#f1a080"/>
        <path id="Path_3411" data-name="Path 3411" d="M875.879,1128.17c-.379-.817-.35-1.926.175-2.13a47.581,47.581,0,0,1,4.7-1.6c1.43-.35,3.676-.5,2.859-.262s.379,1.721,1.663,1.838c4.406.379,8.053-1.634,10.62-1.809,3.735-.263,5.077-3.647,5.339-4.2a14.631,14.631,0,0,1,2.626,4.522c.146.875.438,2.422.029,3.239a6.518,6.518,0,0,0-.9,2.976,8.383,8.383,0,0,1-2.714.438,13.2,13.2,0,0,1-2.8-.35v-1.955a11.088,11.088,0,0,0-2.247-.117,7.917,7.917,0,0,0-3.647,1.138,6.64,6.64,0,0,1-1.955,1.225,16.686,16.686,0,0,1-5.806.379C879.088,1131.087,876.521,1129.541,875.879,1128.17Z" transform="translate(-871.596 -1021.141)" fill="#1f2254"/>
        <path id="Path_3412" data-name="Path 3412" d="M902.47,1073.2s-4.9,11.7-7.849,13.3-13.422,5.719-13.422,5.719,6.3,6.857,19.665-.263a46.775,46.775,0,0,1,.292-4.756c.321-2.889,8.374-6.944,10.154-10.183C913.091,1073.813,902.47,1073.2,902.47,1073.2Z" transform="translate(-875.546 -987.996)" fill="#fac2ae"/>
        <path id="Path_3413" data-name="Path 3413" d="M862.079,1129.27c-.379-.817-.35-1.926.175-2.13a47.528,47.528,0,0,1,4.7-1.6c1.43-.35,3.676-.5,2.859-.263s.379,1.721,1.663,1.838c4.406.379,8.053-1.634,10.621-1.809,3.735-.263,5.077-3.647,5.339-4.2a14.631,14.631,0,0,1,2.626,4.522c.146.875.438,2.422.029,3.239a6.517,6.517,0,0,0-.9,2.976,8.385,8.385,0,0,1-2.714.438,13.2,13.2,0,0,1-2.8-.35v-1.955a11.088,11.088,0,0,0-2.247-.117,7.918,7.918,0,0,0-3.647,1.138,6.644,6.644,0,0,1-1.955,1.225,16.692,16.692,0,0,1-5.806.379C865.288,1132.187,862.75,1130.67,862.079,1129.27Z" transform="translate(-861.823 -1021.92)" fill="#2d2e75"/>
        <path id="Path_3414" data-name="Path 3414" d="M1139.184,824.368s-.233,4.143.846,6.682c0,0,.292,2.509-.875,3.968s1.255,1.546,2.918,1.138c0,0,1.138.233,1.546,2.568.409,2.3,3.151,4.873,4.552,4.231,1.371-.642,7.586-4.172,9.1-3.151,1.488,1.021,9.045,9.016,9.045,9.016s6.3,1.371,6.332-2.568l-.438-1.663s-6.361-5.894-6.828-8.812c-.438-2.918,2.509-9.483-1.021-11.408-3.531-1.9-13.217-2.568-13.217-2.568Z" transform="translate(-1058.02 -809.948)" fill="#fac2ae"/>
        <path id="Path_3415" data-name="Path 3415" d="M1199.309,828.87s7,2.1-2.509,12.371c0,0,10.066-.321,10.883-7.965C1208.471,825.661,1199.309,828.87,1199.309,828.87Z" transform="translate(-1099.063 -814.48)" fill="#15204c"/>
        <path id="Path_3416" data-name="Path 3416" d="M1224.8,895.318s7.411,1.6,5.66-4.318l3.735,3.5s-1.721,3.764-4.814,4.026l-3.3-1.867Z" transform="translate(-1118.893 -858.957)" fill="#f1a080"/>
        <path id="Path_3417" data-name="Path 3417" d="M1136.323,800.527s-9.424-.7-5.719-9.629c3.705-8.957,11.875-7.294,11.875-7.294S1131.889,797.2,1136.323,800.527Z" transform="translate(-1051.57 -782.81)" fill="#15204c"/>
        <path id="Path_3418" data-name="Path 3418" d="M1140.018,787.079s-6.332,10.883,3.705,11.087c10.037.175,10.825,3.53,10.825,3.53s-2.538-5.048,1.6-6.04,7.7,4.377,7.148,8.024a6.628,6.628,0,0,1-3.968,4.931s7.5,4.26,10.358-5.369-4.814-21.008-14.851-21.97S1140.018,787.079,1140.018,787.079Z" transform="translate(-1057.453 -781.179)" fill="#232f63"/>
        <path id="Path_3419" data-name="Path 3419" d="M996.845,1011.552s-6.682,16.31-17.127,23.283l-3.618-2.918L992.41,1007Z" transform="translate(-942.757 -941.111)" fill="#1f2254"/>
        <path id="Path_3420" data-name="Path 3420" d="M973.226,974.184s31.716,34.925,46.3,36.676,21.533-6.011,24.217-16.047-70.522-37.318-70.522-37.318-6.215-3.21-10.708,5.485c-5.4,10.445-13.918,28.506-13.918,28.506s5.339,4.814,9.22,5.894C957.849,997.351,972.438,982.354,973.226,974.184Z" transform="translate(-923.281 -905.64)" fill="#232f63"/>
        <path id="Path_3421" data-name="Path 3421" d="M1025.2,952.474v1.663l16.66,11.788s8.374-5.748,18.673-5.485L1065.727,946,1049.5,932.4l-5.135,2.743-4.114,11.175Z" transform="translate(-977.531 -888.278)" fill="#4f81a3"/>
        <path id="Path_3422" data-name="Path 3422" d="M1162.931,1045.334s11.875,6.769,12.4,14.005-9.424,11.554-29.031,5.631c0,0,10.533,10.416,25.413,5.193,0,0,9.774-2.976,12.05-14.88L1166.2,1042.3Z" transform="translate(-1063.297 -966.112)" fill="#1f2254"/>
        <path id="Path_3423" data-name="Path 3423" d="M1100.769,978.25l3.56-.35-5.6,13.976s-6.1-1.08-15.814,4.814l-.613-4.026,10.3-7.615Z" transform="translate(-1017.971 -920.502)" fill="#a8b6cc"/>
        <path id="Path_3424" data-name="Path 3424" d="M1072.4,947.721l4.493-12.021,16.864,12.663-5.631,10.62Z" transform="translate(-1010.959 -890.615)" fill="#f5f8fc"/>
        <path id="Path_3425" data-name="Path 3425" d="M1024.1,980.11l14.122-3.21,15.727,11.233s-9.1,1.08-12.838,3.822Z" transform="translate(-976.752 -919.794)" fill="#fff"/>
        <path id="Path_3426" data-name="Path 3426" d="M1087.8,934.567l4.756-.467,15.639,12.751-3.531.379Z" transform="translate(-1021.866 -889.482)" fill="#ced9ea"/>
        <path id="Path_3427" data-name="Path 3427" d="M1041.694,1003.773l-17.273-11.992-.321-3.881,16.981,11.846Z" transform="translate(-976.752 -927.584)" fill="#ced9ea"/>
        <path id="Path_3428" data-name="Path 3428" d="M1199.537,901.433s5.719,1.313,6.594-.642a18.911,18.911,0,0,0,1.08-2.743s3.209-1.809,7.965,9.687,2.48,33.992.934,37.405a9.012,9.012,0,0,0-.409,7.5c.671,2.334-3.735,2.947-5.631.321s-15.464-10.912-15.464-10.912l7.907-13.509-7.557-2.247-2.538,9.862L1188.1,934.2s1.634-3.851.35-6.39,7.09-13.713,7.761-17.594S1196.24,904,1199.537,901.433Z" transform="translate(-1092.901 -863.876)" fill="#e6515b"/>
        <path id="Path_3429" data-name="Path 3429" d="M1108.005,990.7s6.331,3.151,8.958,2.276c0,0-5.194,13.6-7.5,15.435s-4.581,2.1-10.212-.992c-5.631-3.064-18.411-10.1-18.411-10.1s-5.952-.263-8.957-1.546a12.308,12.308,0,0,1-4.814-1.809s-3.355-2.889,4.493-1.6,27.66,4.785,34.108,9.045A36.948,36.948,0,0,0,1108.005,990.7Z" transform="translate(-1006.679 -929.567)" fill="#fac2ae"/>
        <path id="Path_3430" data-name="Path 3430" d="M1090.49,988.114a8.313,8.313,0,0,0,4.056,3.618c3.122,1.459-3.735-.175-3.735-.175a3.982,3.982,0,0,1-.846-2.889C1090.315,987.3,1090.49,988.114,1090.49,988.114Z" transform="translate(-1023.359 -927.565)" fill="#fac2ae"/>
        <path id="Path_3431" data-name="Path 3431" d="M1090.264,992.147l1.751.233A2.832,2.832,0,0,1,1090,989.9,2.786,2.786,0,0,0,1090.264,992.147Z" transform="translate(-1023.338 -929.001)" fill="#f1a080"/>
        <path id="Path_3432" data-name="Path 3432" d="M1071.5,1003.2a14.738,14.738,0,0,0,3.647.934,62.825,62.825,0,0,1,9.308,1.663,27.664,27.664,0,0,1,2.859,1.9l-2.8-1.546s-5.865-.233-8.957-1.546C1075.526,1004.63,1072.55,1004.28,1071.5,1003.2Z" transform="translate(-1010.322 -938.42)" fill="#f1a080"/>
        <path id="Path_3433" data-name="Path 3433" d="M1203.056,960.2l-2.042,8.082.934.817a36.656,36.656,0,0,1-2.363,10.737l-.584-.35,1.838-6.361a7.482,7.482,0,0,0-.2-4.377,3.435,3.435,0,0,1,.175-2.422Z" transform="translate(-1100.621 -907.966)" fill="#b03e45"/>
        <path id="Path_3434" data-name="Path 3434" d="M1225.408,970.953c-.117-.467-2.013,7.615-2.013,7.615l-1.9.408s-4.26,12.138-7.5,15.435c0,0,4.814,2.509,5.689,3.91,0,0-3.589-5.077,3.881-16.631C1223.6,981.661,1226.342,974.629,1225.408,970.953Z" transform="translate(-1111.244 -915.568)" fill="#b03e45"/>
      </g>
      <g id="Group_3457" data-name="Group 3457" transform="translate(159.14)">
        <path id="Path_3435" data-name="Path 3435" d="M861.7,279.888l1.867,3.443a1.286,1.286,0,0,0,.759-1.459c-.2-1.05-.35-2.072-.35-2.072Z" transform="translate(-769.419 -241.49)" fill="#f1a080"/>
        <path id="Path_3436" data-name="Path 3436" d="M868.6,211.747l9.658-4.347,4.523,16.864-11.992,4.61Z" transform="translate(-774.306 -190.215)" fill="#afbed3"/>
        <path id="Path_3437" data-name="Path 3437" d="M858,202.545l4.231,16.339,8.52-7.849L864.682,194.2Z" transform="translate(-766.799 -180.866)" fill="#e8efff"/>
        <path id="Path_3438" data-name="Path 3438" d="M819.134,219.4l-3.034,1.955,5.4,17.01,3.005-3.21Z" transform="translate(-737.124 -198.713)" fill="#afbed3"/>
        <path id="Path_3439" data-name="Path 3439" d="M891.494,280.869a16.573,16.573,0,0,1-6.827-9.541,40.321,40.321,0,0,0-3.472-9.629l-1.6,1.488s-1.2-1.9-1.663,1.867c-.467,3.735-1.838,8.082,1.4,10.5s5.631,7.353,5.631,7.353Z" transform="translate(-780.423 -228.671)" fill="#fac2ae"/>
        <path id="Path_3440" data-name="Path 3440" d="M878.3,279.688s1.926,3.881.759,7.061l2.626,2.451a39.009,39.009,0,0,1,4.026,5.894c1.6,3.034.9-1.167.9-1.167s-6.594-6.711-6.011-9.424c.554-2.713-2.159-5.6-2.159-5.6Z" transform="translate(-781.176 -240.853)" fill="#f1a080"/>
        <path id="Path_3441" data-name="Path 3441" d="M635.42,298.765a34.182,34.182,0,0,1-2.859-5.923s.088,12.78-4.989,19.636a28.659,28.659,0,0,1-1.751,4.493,2.344,2.344,0,0,0,1.2,3.822s-22.992,6.857-19.228,1.109c0,0,14.793-2.451,14.705-13.947s1.342-27.4,5.544-29,10.883,2.1,19.9,15.96Z" transform="translate(-589.298 -240.644)" fill="#fac2ae"/>
        <path id="Path_3442" data-name="Path 3442" d="M611.881,233.785s.408,7.82,2.334,12.05,9.512-4.114,9.512-4.114l-2.684-14.093s-.817-6.3-10.708-2.538c-9.891,3.735-32.328,10.737-32.328,10.737s-1.284,1.225-15.843,1.167,14.793,8.374,14.793,8.374,1.2-5.223,4.873-5.515C585.534,239.562,600.852,242.568,611.881,233.785Z" transform="translate(-554.409 -201.894)" fill="#fac2ae"/>
        <path id="Path_3443" data-name="Path 3443" d="M982.271,202.8s-4.026,4.873-5.544,8.432c-1.546,3.56-6.828,3.472-6.828,3.472a5.185,5.185,0,0,0,2.48,3.355s.934.671-.613,3.939,2.072,7.907,5.223,8.17c0,0,.263,3.735-4.493,6.1,0,0,2.538,4.552,7.148,2.276,0,0,2.48-6.156,4.61-6.623s8.491.146,11.379-6.477,5.952-16.4.321-18.323C990.382,205.134,982.271,202.8,982.271,202.8Z" transform="translate(-846.05 -186.957)" fill="#fac2ae"/>
        <path id="Path_3444" data-name="Path 3444" d="M1031.434,229s3.355,8.14-2.334,10.562c0,0,10.1-4,7.148,3.968,0,0-.817,3.3-7.148,6.594,0,0,5.894,3.18,12.721-4.056s5.952-11.642,5.952-11.642Z" transform="translate(-887.977 -205.512)" fill="#160c4f"/>
        <path id="Path_3445" data-name="Path 3445" d="M1063.147,297.81l-31.161,3.939s-3.589.584-4.056-1.955c-.438-2.538,4.231-2.626,4.231-2.626l30.4-3.968Z" transform="translate(-887.127 -250.98)" fill="#fff"/>
        <rect id="Rectangle_479" data-name="Rectangle 479" width="35.071" height="0.408" transform="translate(140.836 47.884) rotate(-7.082)" fill="#ced9ea"/>
        <rect id="Rectangle_480" data-name="Rectangle 480" width="35.392" height="0.408" transform="translate(140.631 48.748) rotate(-7.082)" fill="#ced9ea"/>
        <rect id="Rectangle_481" data-name="Rectangle 481" width="35.071" height="0.408" transform="translate(141.037 49.547) rotate(-7.082)" fill="#ced9ea"/>
        <path id="Path_3446" data-name="Path 3446" d="M1029.533,300.866c-1.576,0-3.647-.525-4.026-2.626a2.3,2.3,0,0,1,.467-1.9c1.2-1.43,4.056-1.576,4.552-1.576l31.424-3.968.175,1.459-31.511,4h-.029c-1.021.029-2.889.321-3.5,1.05a.832.832,0,0,0-.175.7c.321,1.809,3.326,1.371,3.355,1.371l32.27-3.968.175,1.459-32.212,3.91A4.713,4.713,0,0,1,1029.533,300.866Z" transform="translate(-885.404 -249.281)" fill="#231f20"/>
        <rect id="Rectangle_482" data-name="Rectangle 482" width="32.912" height="5.69" transform="translate(139.101 52.174) rotate(-7.082)" fill="#4f81a3"/>
        <rect id="Rectangle_483" data-name="Rectangle 483" width="32.912" height="9.22" transform="translate(140.722 60.562) rotate(-7.082)" fill="#7badc9"/>
        <rect id="Rectangle_484" data-name="Rectangle 484" width="35.45" height="2.889" transform="translate(145 57.105) rotate(-7.082)" fill="#2d2e75"/>
        <path id="Path_3447" data-name="Path 3447" d="M699.8,298.837s4.464-8.111,11.963-8.024l2.684,2.947s-1.78-8.812-1.692-11.846c0,0,7.5-3.209,11.583-1.6,0,0,3.647,15.96,11.7,18.557,10.416,3.355-1.867,18.878-1.867,18.878s-20.745,6.944-28.273-6.565C699.534,299.829,699.8,298.837,699.8,298.837Z" transform="translate(-654.754 -241.533)" fill="#e6515b"/>
        <path id="Path_3448" data-name="Path 3448" d="M713.3,373.7s14.414,14.618,30.053,7l-.5,3.706C742.857,384.437,720.886,392.607,713.3,373.7Z" transform="translate(-664.318 -307.993)" fill="#b03e45"/>
        <path id="Path_3449" data-name="Path 3449" d="M859.632,313.222s.9,3.56,5.631,2.626c0,0-.9,16.514-20.074,20.57a237.6,237.6,0,0,1-35.159,5.777s-5.339-14.647.729-20.745c0,0,15.435.934,27.485-4.143C850.3,312.259,859.632,313.222,859.632,313.222Z" transform="translate(-731.288 -265.108)" fill="#7badc9"/>
        <path id="Path_3450" data-name="Path 3450" d="M887.261,270.694s-2.217-2.509-1.926-5.31l.642-.584Z" transform="translate(-786.14 -230.867)" fill="#f1a080"/>
        <path id="Path_3451" data-name="Path 3451" d="M754.936,324.107A30.21,30.21,0,0,1,748.371,319l-.671-3.5C747.7,315.471,752.252,323.086,754.936,324.107Z" transform="translate(-688.682 -266.774)" fill="#b03e45"/>
        <path id="Path_3452" data-name="Path 3452" d="M681.518,317.272s-1.6-2.859-1.576-4.172c0,0,1.08,12.955-3.443,23.809C676.529,336.909,681.548,330.694,681.518,317.272Z" transform="translate(-638.256 -265.074)" fill="#f1a080"/>
        <path id="Path_3453" data-name="Path 3453" d="M735.218,243.6a16.48,16.48,0,0,0-.438,4.172s-2.422,1.721-3.18,2.159A34.584,34.584,0,0,1,735.218,243.6Z" transform="translate(-677.279 -215.852)" fill="#f1a080"/>
        <path id="Path_3454" data-name="Path 3454" d="M567.125,266.629a4.539,4.539,0,0,0,4,4.056s-2.013,5.048-2.013,6.594-21.475-5.339-21.475-5.339-3.676-2.013-1.546-5.339h21.037Z" transform="translate(-545.425 -232.142)" fill="#232f63"/>
        <path id="Path_3455" data-name="Path 3455" d="M612.665,394.7a4.538,4.538,0,0,0,5.485,1.576s.729,5.4,1.488,6.74-21.329,5.865-21.329,5.865-4.2.029-3.939-3.881Z" transform="translate(-580.082 -322.866)" fill="#232f63"/>
        <path id="Path_3456" data-name="Path 3456" d="M834.6,276.432l2.422-2.947s5.485-1.342,8.666,1.342l-.233,1.255C845.454,276.053,844.608,274.448,834.6,276.432Z" transform="translate(-750.226 -236.781)" fill="#94a7bf"/>
        <path id="Path_3457" data-name="Path 3457" d="M834.2,218.312l4.231,16.368s-6.3-1.692-9.979-.088L824.4,216.823S830.877,215.365,834.2,218.312Z" transform="translate(-743.003 -196.633)" fill="#ced9ea"/>
        <path id="Path_3458" data-name="Path 3458" d="M839.579,278.038s-1.109,8.111-5.369,14.443-7.323,13.3-2.6,14.705c4.727,1.43,19.636-.263,29.79-4.639,0,0-5.077-7.236-4.2-11.875,0,0-8.957,6.419-17.652,8.928,0,0,4.172-10.008,4.435-20.074a9.624,9.624,0,0,0-.175-7.294c-1.692-4.026-1.459-4.727-1.459-4.727s-1.167-.554-1.313,2.509-.2,4.026-.2,4.026-.117.9-1.342-2.568a14.263,14.263,0,0,0-2.743.058S839.608,276.287,839.579,278.038Z" transform="translate(-746.423 -232.755)" fill="#fac2ae"/>
        <path id="Path_3459" data-name="Path 3459" d="M858.2,350.3s-4.464,8.461-6.3,9.074l3.735-1.109S858.144,351.642,858.2,350.3Z" transform="translate(-762.479 -291.42)" fill="#f1a080"/>
        <path id="Path_3460" data-name="Path 3460" d="M900.282,347.729s-1.2,5.427.759,8.782-9.541,6.39-9.541,6.39,11.058-2.042,14.005-4.026c0,0-5.164-7.236-4.2-11.875Z" transform="translate(-790.525 -289.083)" fill="#f1a080"/>
        <path id="Path_3461" data-name="Path 3461" d="M880.4,339.389l1.955-1.313v-.934l6.506-2.743-22.233,7.178-1.926,5.456C864.7,347,876.283,342.978,880.4,339.389Z" transform="translate(-771.544 -280.159)" fill="#5890a8"/>
        <path id="Path_3462" data-name="Path 3462" d="M926.736,347c-3.3,5.835-10.3,8.957-10.737,9.162h0l-6.186,2.684-.263-.584-12.05,4.289s17.536-1.167,24.188-8.4A23.252,23.252,0,0,0,926.736,347Z" transform="translate(-794.774 -289.083)" fill="#5890a8"/>
        <path id="Path_3463" data-name="Path 3463" d="M1010.239,148.5s-12.167,5.952-2.538,19.345,21.066,15.055,21.066,15.055,6.623-4.7,0-13.042S1007.292,167.232,1010.239,148.5Z" transform="translate(-870.195 -148.5)" fill="#232f63"/>
      </g>
      <g id="Group_3458" data-name="Group 3458" transform="translate(202.489 82.59)">
        <rect id="Rectangle_485" data-name="Rectangle 485" width="20.103" height="1.459" transform="matrix(0.096, 0.995, -0.995, 0.096, 6.423, 0)" fill="#e6515b"/>
        <rect id="Rectangle_486" data-name="Rectangle 486" width="14.443" height="1.459" transform="matrix(0.096, 0.995, -0.995, 0.096, 4.097, 3.372)" fill="#7badc9"/>
        <rect id="Rectangle_487" data-name="Rectangle 487" width="14.443" height="1.459" transform="matrix(0.096, 0.995, -0.995, 0.096, 1.452, 3.62)" fill="#7badc9"/>
      </g>
      <g id="Group_3459" data-name="Group 3459" transform="translate(61.25 129.139)">
        <path id="Path_3464" data-name="Path 3464" d="M292.015,907.97s-15.668.029-14.239,4.668,16.6,1.08,16.6,1.08S294.261,907.649,292.015,907.97Z" transform="translate(-257.914 -815.507)" fill="#e6515b"/>
        <path id="Path_3465" data-name="Path 3465" d="M285.3,907.909s10.066-1.459,11.2,1.488a5.153,5.153,0,0,1,.671,3.034l3.793-.875-3.21-6.156C297.788,905.4,287.109,906.713,285.3,907.909Z" transform="translate(-263.308 -813.696)" fill="#b03e45"/>
        <path id="Path_3466" data-name="Path 3466" d="M318.182,626.767s-4.464,22.35,9.716,24.8c0,0,1.867,8.607-2.042,9.132-3.939.525,9.016,5.981,11.7.438,0,0-4.289-6.244-1.167-13.392a15.559,15.559,0,0,1,4-5.6,9.087,9.087,0,0,0,.642-13.217l-.35-.35C335.66,623.879,318.182,626.767,318.182,626.767Z" transform="translate(-286.124 -615.738)" fill="#fac2ae"/>
        <path id="Path_3467" data-name="Path 3467" d="M349.822,740.6s2.072,3.5,5.485,1.751l3.414-1.721,3.005,2.714s-4.493,6.419-8.2,5.048C349.822,746.99,347.2,743.43,349.822,740.6Z" transform="translate(-308.251 -696.98)" fill="#f1a080"/>
        <path id="Path_3468" data-name="Path 3468" d="M308.611,741.8a85.233,85.233,0,0,0,11.408,2.538c4.727.525,7.411,9.016,8.461,14.618,1.08,5.631,5.339,17.127,3.122,19.257s-28.594,9.191-28.594,9.191L277.8,780.9s3.647-21.679,7.323-30.14c0,0,1.08-4.9,4.231-5.894s9.658-2.684,9.658-2.684.992,3.706,4,3.56C303.038,745.71,307.707,746.41,308.611,741.8Z" transform="translate(-257.996 -697.83)" fill="#232f63"/>
        <path id="Path_3469" data-name="Path 3469" d="M326.8,872.619l.9,6.565s22.408,2.6,39.273-5.981c16.631-8.461,13.276-18.849-4.406-13.859a11.793,11.793,0,0,0-1.313.467A260.134,260.134,0,0,1,326.8,872.619Z" transform="translate(-292.699 -780.156)" fill="#14204c"/>
        <path id="Path_3470" data-name="Path 3470" d="M326.8,884.311l.175,2.422s20.161-4.26,26.143-10.533C353.089,876.2,333.307,883.786,326.8,884.311Z" transform="translate(-292.699 -793.016)" fill="#0c1530"/>
        <path id="Path_3471" data-name="Path 3471" d="M343.194,871.442s10.27-5.427,14.18-5.164,4.552,4.989-6.682,8.578S339.284,875.264,343.194,871.442Z" transform="translate(-302.674 -785.982)" fill="#e6515b"/>
        <path id="Path_3472" data-name="Path 3472" d="M312.377,787.7s-2.276,12.138-2.1,17.944l3.647,1.255C313.953,806.9,312.261,804.3,312.377,787.7Z" transform="translate(-280.99 -730.337)" fill="#152049"/>
        <path id="Path_3473" data-name="Path 3473" d="M417.462,790.2s4.552,12.838,4.026,17.477l-4.989,1.867C416.47,809.544,420.847,805.46,417.462,790.2Z" transform="translate(-356.227 -732.108)" fill="#152049"/>
        <path id="Path_3474" data-name="Path 3474" d="M269.575,835.588s19.082-1.342,23.2,10.445L269.4,841.657Z" transform="translate(-252.047 -764.22)" fill="#ced9ea"/>
        <path id="Path_3475" data-name="Path 3475" d="M268.479,856.5l23.371,4.377v2.334l-23.75-4.756Z" transform="translate(-251.126 -779.063)" fill="#4f81a3"/>
        <path id="Path_3476" data-name="Path 3476" d="M349,855.14l20.366-6.74.671,2.363L348.8,857.912Z" transform="translate(-308.28 -773.327)" fill="#4f81a3"/>
        <path id="Path_3477" data-name="Path 3477" d="M349.5,832.76s1.167-13.83,16.952-15.96l1.05,7.995Z" transform="translate(-308.776 -750.947)" fill="#a2b3cc"/>
        <path id="Path_3478" data-name="Path 3478" d="M367.782,832.7l1.313,4.814L349.4,844.021A33.674,33.674,0,0,1,367.782,832.7Z" transform="translate(-308.705 -762.208)" fill="#ced9ea"/>
        <path id="Path_3479" data-name="Path 3479" d="M320.3,676.473h-5.339a2.154,2.154,0,0,1-2.159-2.159v-1.255a2.154,2.154,0,0,1,2.159-2.159H320.3a2.154,2.154,0,0,1,2.159,2.159v1.255A2.173,2.173,0,0,1,320.3,676.473Zm-5.369-4.989a1.569,1.569,0,0,0-1.576,1.576v1.255a1.569,1.569,0,0,0,1.576,1.576h5.339a1.569,1.569,0,0,0,1.576-1.576v-1.255a1.569,1.569,0,0,0-1.576-1.576Z" transform="translate(-282.784 -647.617)" fill="#2d2e75"/>
        <path id="Path_3480" data-name="Path 3480" d="M360.128,677.073h-5.369a2.154,2.154,0,0,1-2.159-2.159v-1.255a2.154,2.154,0,0,1,2.159-2.159H360.1a2.154,2.154,0,0,1,2.159,2.159v1.255A2.13,2.13,0,0,1,360.128,677.073Zm-5.369-4.989a1.569,1.569,0,0,0-1.576,1.576v1.255a1.569,1.569,0,0,0,1.576,1.576H360.1a1.569,1.569,0,0,0,1.576-1.576v-1.255a1.569,1.569,0,0,0-1.576-1.576Z" transform="translate(-310.971 -648.041)" fill="#2d2e75"/>
        <path id="Path_3481" data-name="Path 3481" d="M346.78,676.535a1.174,1.174,0,0,0-.846-.583,1.823,1.823,0,0,0-1.255.467l-.379-.438a2.419,2.419,0,0,1,1.721-.613,1.739,1.739,0,0,1,1.255.846Z" transform="translate(-305.093 -650.772)" fill="#2d2e75"/>
        <path id="Path_3482" data-name="Path 3482" d="M345.106,743a13.781,13.781,0,0,1,4,3.56s-5.369,1.546-5.894,5.573C343.209,752.132,341.6,746.3,345.106,743Z" transform="translate(-304.06 -698.68)" fill="#a7c7d2"/>
        <path id="Path_3483" data-name="Path 3483" d="M369.873,741.8s-2.743,3.18-5.573,3.91c0,0,5.31,2.626,6.827,5.923C371.128,751.633,372.907,744.163,369.873,741.8Z" transform="translate(-319.257 -697.83)" fill="#a7c7d2"/>
        <path id="Path_3484" data-name="Path 3484" d="M330.485,609.773a4.229,4.229,0,0,0-2.3-3.764,3.613,3.613,0,0,0,1.6-2.889c0-1.751-1.459-3.239-3.5-3.764a2.35,2.35,0,0,0-1.05-1.984c0-.088.029-.2.029-.321,0-1.9-2.159-3.443-4.814-3.443a6.136,6.136,0,0,0-3.268.9,4.366,4.366,0,0,0-8.2-.934,4.662,4.662,0,0,0-2.83-.963,4.269,4.269,0,0,0-4.172,2.976,3.316,3.316,0,0,0-1.43-.321,3.449,3.449,0,0,0-3.443,3.443,3.55,3.55,0,0,0,.233,1.255,3.982,3.982,0,0,0-3.822,3.968,3.926,3.926,0,0,0,1.138,2.772,3.876,3.876,0,1,0,5.806,3.355,3.62,3.62,0,0,0-.088-.788,1.708,1.708,0,0,0,1.284-1.109,3.014,3.014,0,0,0,.875.117,3.306,3.306,0,0,0,2.743-1.459,3.55,3.55,0,0,0,4.435-1.4,1.936,1.936,0,0,0,1.517.759h0a2.321,2.321,0,0,0,2.334,2.1,2.429,2.429,0,0,0,1.488-.525,2.972,2.972,0,0,0,2.889,2.3,2.939,2.939,0,0,0,1.342-.321,2.069,2.069,0,0,0,1.371,1.08,1.833,1.833,0,0,0-.409,1.167,1.924,1.924,0,0,0,1.926,1.926,1.958,1.958,0,0,0,1.225-.438,3.092,3.092,0,0,0,.671,3.151,2.553,2.553,0,0,0-2.042,2.363,3.054,3.054,0,0,0,6.01,0,2.238,2.238,0,0,0-.729-1.634,3.075,3.075,0,0,0,1.984-2.83,3.138,3.138,0,0,0-.409-1.546A3.873,3.873,0,0,0,330.485,609.773Z" transform="translate(-268.548 -591.1)" fill="#2d2e75"/>
        <path id="Path_3485" data-name="Path 3485" d="M209.947,865.241s-1.342-7.849,16.952-4.289,24.947,4.989,24.947,4.989l-.5,6.652a119.776,119.776,0,0,1-28.915,2.888C222.435,875.511,210.151,873.177,209.947,865.241Z" transform="translate(-209.925 -781.56)" fill="#14204c"/>
        <path id="Path_3486" data-name="Path 3486" d="M350,712.238a12.957,12.957,0,0,0,6.186-.438,6.348,6.348,0,0,1-5.048,2.042l-.087-1.313Z" transform="translate(-309.13 -676.583)" fill="#f1a080"/>
      </g>
    </g>
  </g>
</svg>
