<svg xmlns="http://www.w3.org/2000/svg" width="540.651" height="486.187" viewBox="0 0 540.651 486.187">
  <path id="Path_3489" data-name="Path 3489" d="M669.707,117.13a114.237,114.237,0,0,1-42.289-42.6C602.688,30.572,547.59,0,483.543,0,396.4,0,325.764,56.635,325.764,126.524c0,2.152.068,4.27.2,6.388,1.879,30.4-8.369,60.051-27.839,83.45C289.453,226.814,284.5,238.8,284.5,251.545c0,40.478,49.735,73.27,111.118,73.27,20.973,0,40.615-3.826,57.352-10.521a117.086,117.086,0,0,1,79.043-3.074,175.041,175.041,0,0,0,53.458,8.2c78.5,0,142.134-50.179,142.134-112.075C727.606,170.349,704.823,137.523,669.707,117.13Z" transform="matrix(0.899, 0.438, -0.438, 0.899, -113.317, -124.717)" fill="#eaf2f9" opacity="0.076"/>
</svg>
