<svg id="answer" xmlns="http://www.w3.org/2000/svg" width="39.502" height="28.63" viewBox="0 0 39.502 28.63">
  <path id="Path_2702" data-name="Path 2702" d="M306.387,148.668h1.423a.578.578,0,1,0,0-1.156h-1.423a.578.578,0,1,0,0,1.156Zm0,0" transform="translate(-282.215 -136.169)" fill="#fff"/>
  <path id="Path_2703" data-name="Path 2703" d="M351.015,148.668a.578.578,0,1,0,0-1.156h-3.9a.578.578,0,1,0,0,1.156Zm0,0" transform="translate(-319.799 -136.169)" fill="#fff"/>
  <path id="Path_2704" data-name="Path 2704" d="M306.387,184.168H316.58a.578.578,0,1,0,0-1.156H306.387a.578.578,0,1,0,0,1.156Zm0,0" transform="translate(-282.215 -168.931)" fill="#fff"/>
  <path id="Path_2705" data-name="Path 2705" d="M306.387,210.672H316.58a.578.578,0,1,0,0-1.156H306.387a.578.578,0,1,0,0,1.156Zm0,0" transform="translate(-282.215 -193.39)" fill="#fff"/>
  <path id="Path_2706" data-name="Path 2706" d="M306.387,237.176H316.58a.578.578,0,1,0,0-1.156H306.387a.578.578,0,1,0,0,1.156Zm0,0" transform="translate(-282.215 -217.849)" fill="#fff"/>
  <path id="Path_2707" data-name="Path 2707" d="M306.387,263.36H311.3a.578.578,0,0,0,0-1.156h-4.918a.578.578,0,0,0,0,1.156Zm0,0" transform="translate(-282.215 -242.012)" fill="#fff"/>
  <path id="Path_2708" data-name="Path 2708" d="M29.538,6.224H27.02a9.9,9.9,0,0,0-5,1.351A9.981,9.981,0,0,0,12.482.5H9.963a9.964,9.964,0,0,0,0,19.927h1.724v2.225a.753.753,0,0,0,1.291.527L16.4,19.686a.865.865,0,0,1,.253-.18q.428-.2.835-.437a9.974,9.974,0,0,0,1.97,3.588.578.578,0,1,0,.878-.753A8.82,8.82,0,0,1,18.5,18.391a10.088,10.088,0,0,0,2.028-2.065.578.578,0,1,0-.933-.683,8.916,8.916,0,0,1-3.426,2.814,2.014,2.014,0,0,0-.592.419l-2.73,2.788V20.316A1.047,1.047,0,0,0,11.8,19.271H9.963a8.807,8.807,0,1,1,0-17.615h2.518a8.817,8.817,0,0,1,8.807,8.807,8.719,8.719,0,0,1-.5,2.922.578.578,0,0,0,1.09.386,9.874,9.874,0,0,0,.568-3.309A9.991,9.991,0,0,0,22.3,8.756,8.752,8.752,0,0,1,27.02,7.38h2.518a8.807,8.807,0,1,1,0,17.615H27.7a1.047,1.047,0,0,0-1.045,1.045v1.348L23.927,24.6a2.01,2.01,0,0,0-.592-.419,8.87,8.87,0,0,1-1.108-.615.578.578,0,1,0-.632.968,9.967,9.967,0,0,0,1.253.7.87.87,0,0,1,.253.18L26.522,28.9a.753.753,0,0,0,1.292-.527V26.151h1.724a9.964,9.964,0,0,0,0-19.927Zm0,0" transform="translate(0 -0.5)" fill="#fff"/>
  <path id="Path_2709" data-name="Path 2709" d="M130.685,172.027a.888.888,0,0,0,0,1.776.888.888,0,1,0,0-1.776Zm0,0" transform="translate(-119.794 -158.794)" fill="#fff"/>
  <path id="Path_2710" data-name="Path 2710" d="M117.1,88.889a2.953,2.953,0,0,0,1.292-2.111c0-1.084-.98-1.9-2.457-1.9-1.557,0-2.272.923-2.272,1.545a.662.662,0,0,0,.692.658c.623,0,.369-.888,1.545-.888.577,0,1.038.254,1.038.784,0,.623-.646.98-1.027,1.3a2.111,2.111,0,0,0-.773,1.753c0,.6.162.773.634.773.565,0,.68-.254.68-.473A1.449,1.449,0,0,1,117.1,88.889Zm0,0" transform="translate(-104.891 -78.365)" fill="#fff"/>
</svg>
