<svg xmlns="http://www.w3.org/2000/svg" width="28.01" height="33.284" viewBox="0 0 28.01 33.284"><path d="M17.57,9.809a.865.865,0,0,1-.981-.865A7.267,7.267,0,0,1,18.252,4.6,8.016,8.016,0,0,1,22.359,2.01a.848.848,0,0,1,1.048.848,7.75,7.75,0,0,1-1.663,4.374A6.768,6.768,0,0,1,17.57,9.809Zm9.013,9.679c0-4.523,3.326-5.538,3.326-6.519s-2.877-3.176-5.92-3.176-4.224,1.43-6.286,1.43-3.742-1.43-6.3-1.43A8.581,8.581,0,0,0,4.482,14,11.042,11.042,0,0,0,3,19.887c0,7.3,5.238,15.383,9.1,15.383,2.162,0,2.711-1.414,5.687-1.414s3.509,1.414,5.538,1.414c4.191,0,7.683-8.315,7.683-8.431a.848.848,0,0,0-.5-.765A7.384,7.384,0,0,1,26.583,19.487Z" transform="translate(-2.997 -1.986)" fill="#fff" fill-rule="evenodd"/></svg>