<svg xmlns="http://www.w3.org/2000/svg" width="16.364" height="30" viewBox="0 0 16.364 30">
  <path id="attachment" d="M22.364,12.591V22.818A8.182,8.182,0,1,1,6,22.818V7.136a6.136,6.136,0,1,1,12.273,0V21.455a4.091,4.091,0,1,1-8.182,0V12.591a.682.682,0,0,1,.682-.682H11.8a.682.682,0,0,1,.682.682v8.864a1.7,1.7,0,1,0,3.409,0V7.136a3.75,3.75,0,1,0-7.5,0V22.818a5.8,5.8,0,0,0,11.591,0V12.591a.682.682,0,0,1,.682-.682h1.023A.682.682,0,0,1,22.364,12.591Z" transform="translate(-6 -1)" fill="#718996"/>
</svg>
