<svg xmlns="http://www.w3.org/2000/svg" width="21.083" height="22" viewBox="0 0 21.083 22">
  <g id="books" transform="translate(-0.5)">
    <g id="Group_3058" data-name="Group 3058" transform="translate(0.5)">
      <path id="Path_2723" data-name="Path 2723" d="M17.458,6.417a.459.459,0,0,0,.458-.458V.458a.458.458,0,1,0-.917,0v5.5A.459.459,0,0,0,17.458,6.417Zm1.833,0a.459.459,0,0,0,.458-.458V.458a.458.458,0,1,0-.917,0v5.5A.459.459,0,0,0,19.292,6.417Zm-7.333,0a.459.459,0,0,0,.458-.458V.458a.458.458,0,1,0-.917,0v5.5A.459.459,0,0,0,11.958,6.417ZM13.792,0a.459.459,0,0,0-.458.458V5.5a1.377,1.377,0,0,1-1.375,1.375H10.125A1.377,1.377,0,0,1,8.75,5.5V.458a.458.458,0,0,0-.917,0v19.25A2.3,2.3,0,0,0,10.125,22h1.833a2.3,2.3,0,0,0,2.292-2.292V.458A.459.459,0,0,0,13.792,0Zm-.458,19.708a1.377,1.377,0,0,1-1.375,1.375H10.125A1.377,1.377,0,0,1,8.75,19.708V17.863a2.271,2.271,0,0,0,1.375.47h1.833a2.271,2.271,0,0,0,1.375-.47Zm0-3.667a1.377,1.377,0,0,1-1.375,1.375H10.125A1.377,1.377,0,0,1,8.75,16.042V16.03a2.271,2.271,0,0,0,1.375.47h1.833a2.271,2.271,0,0,0,1.375-.47Zm0-1.833a1.377,1.377,0,0,1-1.375,1.375H10.125A1.377,1.377,0,0,1,8.75,14.208V7.332a2.281,2.281,0,0,0,1.375.459h1.833a2.283,2.283,0,0,0,1.375-.459ZM10.125,6.417a.459.459,0,0,0,.458-.458V.458a.458.458,0,0,0-.917,0v5.5A.459.459,0,0,0,10.125,6.417ZM21.125,0a.459.459,0,0,0-.458.458V5.5a1.377,1.377,0,0,1-1.375,1.375H17.458A1.377,1.377,0,0,1,16.083,5.5V.458a.458.458,0,0,0-.917,0v19.25A2.3,2.3,0,0,0,17.458,22h1.833a2.3,2.3,0,0,0,2.292-2.292V.458A.459.459,0,0,0,21.125,0Zm-.458,19.708a1.377,1.377,0,0,1-1.375,1.375H17.458a1.377,1.377,0,0,1-1.375-1.375V17.863a2.271,2.271,0,0,0,1.375.47h1.833a2.271,2.271,0,0,0,1.375-.47Zm0-3.667a1.377,1.377,0,0,1-1.375,1.375H17.458a1.377,1.377,0,0,1-1.375-1.375V16.03a2.271,2.271,0,0,0,1.375.47h1.833a2.271,2.271,0,0,0,1.375-.47Zm0-1.833a1.377,1.377,0,0,1-1.375,1.375H17.458a1.377,1.377,0,0,1-1.375-1.375V7.332a2.281,2.281,0,0,0,1.375.459h1.833a2.283,2.283,0,0,0,1.375-.459ZM6.458,0A.459.459,0,0,0,6,.458V5.5A1.377,1.377,0,0,1,4.625,6.875H2.792A1.377,1.377,0,0,1,1.417,5.5V.458A.458.458,0,1,0,.5.458v19.25A2.3,2.3,0,0,0,2.792,22H4.625a2.3,2.3,0,0,0,2.292-2.292V.458A.459.459,0,0,0,6.458,0ZM6,19.708a1.377,1.377,0,0,1-1.375,1.375H2.792a1.377,1.377,0,0,1-1.375-1.375V17.863a2.271,2.271,0,0,0,1.375.47H4.625A2.271,2.271,0,0,0,6,17.863Zm0-3.667a1.377,1.377,0,0,1-1.375,1.375H2.792a1.377,1.377,0,0,1-1.375-1.375V16.03a2.271,2.271,0,0,0,1.375.47H4.625A2.271,2.271,0,0,0,6,16.03Zm0-1.833a1.377,1.377,0,0,1-1.375,1.375H2.792a1.377,1.377,0,0,1-1.375-1.375V7.332a2.281,2.281,0,0,0,1.375.459H4.625A2.283,2.283,0,0,0,6,7.332ZM4.625,6.417a.459.459,0,0,0,.458-.458V.458a.458.458,0,0,0-.917,0v5.5A.459.459,0,0,0,4.625,6.417Zm-1.833,0a.459.459,0,0,0,.458-.458V.458a.458.458,0,0,0-.917,0v5.5A.459.459,0,0,0,2.792,6.417Z" transform="translate(-0.5)" fill="#19bdc1"/>
    </g>
  </g>
</svg>
