<svg id="broken-heart" xmlns="http://www.w3.org/2000/svg" width="20.829" height="20.606" viewBox="0 0 20.829 20.606">
  <path id="Path_2717" data-name="Path 2717" d="M9.87,20.6l-1.26-3.4a.439.439,0,0,1,.029-.368l1.58-2.8L8.234,11.23a.437.437,0,0,1,.045-.559L10.526,8.4,7.874,6.1a.437.437,0,0,1-.038-.622A26.009,26.009,0,0,0,9.87,2.925v-1.1A5.731,5.731,0,0,0,5.793.129,5.832,5.832,0,0,0,0,5.987C0,12.512,8.526,19.65,9.87,20.734Z" transform="translate(0 -0.129)" fill="#fff"/>
  <path id="Path_2718" data-name="Path 2718" d="M16.252.129a5.731,5.731,0,0,0-4.077,1.7V3.051a.438.438,0,0,1-.064.227,21.8,21.8,0,0,1-1.9,2.451l2.671,2.315a.432.432,0,0,1,.149.312.437.437,0,0,1-.125.324L10.59,11.025l1.934,2.738a.437.437,0,0,1,.023.468l-1.616,2.861,1.216,3.281a.441.441,0,0,1,.027.153v.21c1.345-1.085,9.871-8.223,9.871-14.748A5.832,5.832,0,0,0,16.252.129Z" transform="translate(-1.217 -0.129)" fill="#fff"/>
</svg>
