<svg xmlns="http://www.w3.org/2000/svg" width="18.034" height="23.993" viewBox="0 0 18.034 23.993">
  <g id="certificate-2" transform="translate(0.001 0.213)">
    <g id="Icons">
      <path id="Certificate" d="M12.5,23.77a1.49,1.49,0,0,1-.35,0L9.5,23.09a1.13,1.13,0,0,0-.73,0l-3,.65A1.5,1.5,0,0,1,4,22.25V16.74a1.5,1.5,0,0,1,2.11-1.37A7,7,0,1,0,2.94,12.5a1,1,0,0,1-1.73,1A9,9,0,0,1,.11,7.58,9,9,0,0,1,17.95,10a9,9,0,0,1-7.76,7.93A9.13,9.13,0,0,1,6,17.49v4.13l2.25-.49a2.93,2.93,0,0,1,1.81,0l1.94.46V20a1,1,0,0,1,2,0v2.27a1.5,1.5,0,0,1-1.5,1.5ZM8.71,11.71l4-4A1,1,0,0,0,11.3,6.3L8,9.58,6.71,8.29A1,1,0,0,0,5.29,9.71l2,2a1,1,0,0,0,1.41,0Z" fill="#fff"/>
    </g>
  </g>
</svg>
