<svg xmlns="http://www.w3.org/2000/svg" width="34.287" height="33.674" viewBox="0 0 34.287 33.674">
  <g id="certificate" transform="translate(0.2 0.4)">
    <path id="Path_2773" data-name="Path 2773" d="M32.234-.4H1.653A1.855,1.855,0,0,0-.2,1.453v19.89A1.856,1.856,0,0,0,1.653,23.2H21.172a1.3,1.3,0,0,1,.276.485c.019.08.043.156.068.231a.539.539,0,0,0-.026.052l-1.854,4.794a1.111,1.111,0,0,0,.259,1.2,1.147,1.147,0,0,0,1.238.241l1.428-.612a.142.142,0,0,1,.11,0,.173.173,0,0,1,.093.086l.525,1.231a1.132,1.132,0,0,0,1.035.669h.034a1.1,1.1,0,0,0,1.012-.719l.493-1.272L27,32.552a1.1,1.1,0,0,0,1.013.722h.034A1.135,1.135,0,0,0,29.09,32.6l.542-1.242a.185.185,0,0,1,.223-.086l1.422.565a1.123,1.123,0,0,0,1.46-1.452L30.275,24.01a.55.55,0,0,0-.034-.067l.111-.3a1.231,1.231,0,0,1,.256-.45h1.626a1.856,1.856,0,0,0,1.853-1.853V1.453A1.855,1.855,0,0,0,32.234-.4Zm-1.421,19a.564.564,0,0,1-.009.057c0,.014-.007.028-.009.043a2.388,2.388,0,0,1-.066.256l-.029.1a2.6,2.6,0,0,0-.083,1.319,2.284,2.284,0,0,0,.109.386c.029.1.057.2.075.29-.014.09-.019.17-.024.237a.923.923,0,0,1-.014.131.585.585,0,0,0-.014.063c-.013.076-.052.17-.263.342-.073.063-.146.12-.219.178s-.17.134-.249.2a2.321,2.321,0,0,0-.732,1.072l-.2.54a.509.509,0,0,1-.526.359c-.108,0-.21.006-.313.012s-.2,0-.3.012a2.285,2.285,0,0,0-1.145.358c-.072.046-.142.092-.212.137-.165.107-.32.209-.479.3L26.082,25c-.019.008-.039.013-.057.019L26,25.027a.423.423,0,0,1-.336-.053,3.092,3.092,0,0,1-.471-.3,2.819,2.819,0,0,0-.888-.424,3.1,3.1,0,0,0-.747-.085,4.316,4.316,0,0,1-.5-.041.4.4,0,0,1-.333-.257,2.184,2.184,0,0,1-.18-.457c0-.013-.006-.026-.01-.04a2.674,2.674,0,0,0-.942-1.329c-.06-.051-.123-.1-.186-.149a1.645,1.645,0,0,1-.228-.2.534.534,0,0,0-.046-.048.389.389,0,0,1-.106-.442c.016-.063.029-.127.042-.189a1.515,1.515,0,0,1,.064-.245c0-.009.008-.018.011-.028a2.442,2.442,0,0,0,.009-1.676l-.13-.453a.544.544,0,0,1,.215-.631c.043-.034.087-.072.13-.109a1.529,1.529,0,0,1,.147-.118l.03-.019a2.532,2.532,0,0,0,.962-1.3c.058-.175.141-.363.223-.546a.444.444,0,0,1,.425-.244l.025,0c.1-.01.212-.015.321-.021s.238-.012.353-.022a2.382,2.382,0,0,0,1.362-.512l.024-.019a1.724,1.724,0,0,1,.168-.109c.058-.035.118-.071.165-.1a.562.562,0,0,1,.687,0c.086.053.166.107.246.16s.179.119.268.175a2.57,2.57,0,0,0,1.29.405H28.1a4.158,4.158,0,0,1,.711.062.367.367,0,0,1,.275.236,2.919,2.919,0,0,1,.146.319,3.017,3.017,0,0,0,1.206,1.673,1.638,1.638,0,0,1,.3.286c.011.013.023.026.035.038s.054.054.059.27C30.823,18.527,30.818,18.564,30.813,18.6Zm-6.49,11.86L23.8,29.231a1.3,1.3,0,0,0-.7-.683,1.259,1.259,0,0,0-.988.006l-1.42.61,1.6-4.137a1.52,1.52,0,0,0,.628.222,5.306,5.306,0,0,0,.658.05,1.9,1.9,0,0,1,.438.048,1.5,1.5,0,0,1,.269.1.56.56,0,0,0,.031.12l.944,2.451Zm7.373.329-1.434-.569A1.309,1.309,0,0,0,28.6,30.9l-.537,1.244-2.3-5.985c.044,0,.089.009.133.009a1.576,1.576,0,0,0,.414-.056l.029-.009.031-.01a1.3,1.3,0,0,0,.3-.13c.192-.106.368-.221.539-.332l.21-.136a1.169,1.169,0,0,1,.59-.176c.1,0,.205-.006.305-.012s.187-.006.286-.011a1.8,1.8,0,0,0,.866-.254Zm1.261-9.442a.724.724,0,0,1-.723.723h-.5a1.424,1.424,0,0,0,.128-.374,1.815,1.815,0,0,0,.046-.335,1.209,1.209,0,0,1,.021-.186.56.56,0,0,0,.008-.2,4.081,4.081,0,0,0-.129-.55.532.532,0,0,0-.019-.054,1.132,1.132,0,0,1-.061-.217,1.467,1.467,0,0,1,.05-.75l.007-.024.03-.1a3.452,3.452,0,0,0,.094-.368c.012-.052.019-.1.026-.15l0-.013a.566.566,0,0,0,.028-.176,1.491,1.491,0,0,0-.372-1.126,2.741,2.741,0,0,0-.5-.464,1.917,1.917,0,0,1-.777-1.066c0-.011-.006-.021-.01-.032a3.477,3.477,0,0,0-.2-.465,1.462,1.462,0,0,0-1.121-.863,5.257,5.257,0,0,0-.866-.075,1.425,1.425,0,0,1-.735-.231c-.086-.053-.166-.107-.246-.16s-.179-.119-.272-.177a1.7,1.7,0,0,0-1.9.008c-.045.03-.09.057-.134.083a2.688,2.688,0,0,0-.276.184,1.254,1.254,0,0,1-.723.294l-.056,0c-.1.01-.212.015-.321.021-.125.006-.249.012-.368.024a1.568,1.568,0,0,0-1.365.876l-.011.023c-.094.211-.191.43-.268.661a1.416,1.416,0,0,1-.519.723,2.287,2.287,0,0,0-.287.222c-.032.028-.064.056-.1.086a1.671,1.671,0,0,0-.591,1.812l.136.474c0,.01.006.021.01.031a1.307,1.307,0,0,1,.007.918,2.4,2.4,0,0,0-.125.441c-.01.049-.021.1-.035.156a1.561,1.561,0,0,0,.116,1.124H1.653a.724.724,0,0,1-.723-.723V1.453A.724.724,0,0,1,1.653.73H32.234a.724.724,0,0,1,.723.723Z" transform="translate(0 0)" fill="#fff"/>
    <path id="Path_2774" data-name="Path 2774" d="M59.057,16.2H46.965a.565.565,0,0,0,0,1.13H59.057a.565.565,0,0,0,0-1.13Z" transform="translate(-36.067 -12.848)" fill="#fff"/>
    <path id="Path_2775" data-name="Path 2775" d="M65.523,26.03a.565.565,0,0,0,0-1.13H58.765a.565.565,0,1,0,0,1.13Z" transform="translate(-45.2 -19.582)" fill="#fff"/>
    <path id="Path_2776" data-name="Path 2776" d="M86.262,42.3h-3.8a.565.565,0,1,0,0,1.13h3.8a.565.565,0,1,0,0-1.13Z" transform="translate(-63.544 -33.049)" fill="#fff"/>
    <path id="Path_2777" data-name="Path 2777" d="M28.909,42.865a.565.565,0,0,0-.565-.565H16.365a.565.565,0,0,0,0,1.13H28.344A.565.565,0,0,0,28.909,42.865Z" transform="translate(-12.384 -33.049)" fill="#fff"/>
    <path id="Path_2778" data-name="Path 2778" d="M73.87,55.3h-1.6a.565.565,0,0,0,0,1.13h1.6a.565.565,0,1,0,0-1.13Z" transform="translate(-55.649 -43.111)" fill="#fff"/>
    <path id="Path_2779" data-name="Path 2779" d="M38,55.3H31.265a.565.565,0,0,0,0,1.13H38a.565.565,0,1,0,0-1.13Z" transform="translate(-23.916 -43.111)" fill="#fff"/>
    <path id="Path_2780" data-name="Path 2780" d="M17.834,55.865a.565.565,0,0,0-.565-.565h-.9a.565.565,0,0,0,0,1.13h.9A.565.565,0,0,0,17.834,55.865Z" transform="translate(-12.384 -43.111)" fill="#fff"/>
    <path id="Path_2781" data-name="Path 2781" d="M26.754,78.591a1.114,1.114,0,0,0-1.052.392l-.023.028a3.09,3.09,0,0,0-.278.445c-.161.3-.3.535-.513.554s-.429-.215-.67-.535c-.029-.042-.058-.079-.087-.115-.013-.016-.026-.031-.039-.05l-.023-.033a2.1,2.1,0,0,0-2.3-.708A2.276,2.276,0,0,0,20.3,80.532a.565.565,0,1,0,1.127.078,1.152,1.152,0,0,1,.712-.976.988.988,0,0,1,1.025.322c.028.04.055.075.083.11.013.016.026.031.039.05l.018.026a2.02,2.02,0,0,0,1.526,1A1.418,1.418,0,0,0,25,81.133,1.823,1.823,0,0,0,26.4,79.987l.012-.023a1.881,1.881,0,0,1,.148-.241.565.565,0,0,0,1.051-.414A1.139,1.139,0,0,0,26.754,78.591Z" transform="translate(-15.866 -61.036)" fill="#fff"/>
    <path id="Path_2782" data-name="Path 2782" d="M103.568,74.6a3.368,3.368,0,1,0,3.368,3.368A3.371,3.371,0,0,0,103.568,74.6Zm0,5.605a2.238,2.238,0,1,1,2.238-2.238A2.24,2.24,0,0,1,103.568,80.205Z" transform="translate(-77.708 -58.048)" fill="#fff"/>
  </g>
</svg>
