<svg id="chat" xmlns="http://www.w3.org/2000/svg" width="24" height="21" viewBox="0 0 24 21">
  <g id="Icons">
    <path id="Massage" d="M5,21a1,1,0,0,1-.71-1.71L7.7,15.88A3,3,0,0,1,9.83,15H21a1,1,0,0,0,1-1V3a1,1,0,0,0-1-1H3A1,1,0,0,0,2,3V14a1,1,0,0,0,1,1H4a1,1,0,0,1,0,2H3a3,3,0,0,1-3-3V3A3,3,0,0,1,3,0H21a3,3,0,0,1,3,3V14a3,3,0,0,1-3,3H9.83a1,1,0,0,0-.71.29L5.71,20.71A1,1,0,0,1,5,21ZM18,5.9a1,1,0,0,0-1-1H6a1,1,0,0,0,0,2H17A1,1,0,0,0,18,5.9Zm-4,4a1,1,0,0,0-1-1H6a1,1,0,1,0,0,2h7A1,1,0,0,0,14,9.9Z" fill="#fff"/>
  </g>
</svg>
