<svg id="diploma" xmlns="http://www.w3.org/2000/svg" width="31.695" height="33.945" viewBox="0 0 31.695 33.945">
  <g id="Group_3037" data-name="Group 3037" transform="translate(0)">
    <g id="Group_3036" data-name="Group 3036" transform="translate(0)">
      <path id="Path_2686" data-name="Path 2686" d="M307.1,171.037a.566.566,0,0,0,.566.566h5.66a.566.566,0,0,0,0-1.132h-5.66A.566.566,0,0,0,307.1,171.037Z" transform="translate(-287.855 -159.164)" fill="#fff"/>
      <path id="Path_2687" data-name="Path 2687" d="M358.3,222.237a.566.566,0,0,0,.566.566h3.4a.566.566,0,0,0,0-1.132h-3.4A.566.566,0,0,0,358.3,222.237Z" transform="translate(-335.659 -206.969)" fill="#fff"/>
      <path id="Path_2688" data-name="Path 2688" d="M325.862,120.4a.566.566,0,1,0,0-1.132H324.73a.566.566,0,1,0,0,1.132Z" transform="translate(-303.789 -111.36)" fill="#fff"/>
      <path id="Path_2689" data-name="Path 2689" d="M239.4,221.67a.566.566,0,1,0,0,1.132h5.66a.566.566,0,1,0,0-1.132Z" transform="translate(-224.116 -206.968)" fill="#fff"/>
      <path id="Path_2690" data-name="Path 2690" d="M66.945,62.236H56.192a1.7,1.7,0,0,1-1.7-1.7V34.5a.566.566,0,0,0-.566-.566,2.833,2.833,0,0,0-2.83,2.83.566.566,0,0,0,1.132,0,1.7,1.7,0,0,1,1.132-1.6V60.538a2.833,2.833,0,0,0,2.83,2.83H66.945a.566.566,0,0,0,0-1.132Z" transform="translate(-48.834 -31.686)" fill="#fff"/>
      <path id="Path_2691" data-name="Path 2691" d="M154.064,171.6h7.924a.566.566,0,1,0,0-1.132h-7.924a.566.566,0,0,0,0,1.132Z" transform="translate(-144.442 -159.164)" fill="#fff"/>
      <path id="Path_2692" data-name="Path 2692" d="M154.064,120.4h2.264a.566.566,0,0,0,0-1.132h-2.264a.566.566,0,0,0,0,1.132Z" transform="translate(-144.442 -111.36)" fill="#fff"/>
      <path id="Path_2693" data-name="Path 2693" d="M226.858,119.27H222.33a.566.566,0,1,0,0,1.132h4.528a.566.566,0,0,0,0-1.132Z" transform="translate(-208.181 -111.359)" fill="#fff"/>
      <path id="Path_2694" data-name="Path 2694" d="M43.565,0H22.058a5.1,5.1,0,0,0-5.094,5.074V5.1A5.114,5.114,0,0,0,19.51,9.493a.566.566,0,0,0,.567-.979,3.954,3.954,0,0,1,1.98-7.381H43.565a3.967,3.967,0,0,1,3.962,3.962V28.865a1.647,1.647,0,0,1-.231.832.566.566,0,1,0,.976.574,2.776,2.776,0,0,0,.388-1.406V5.094A5.1,5.1,0,0,0,43.565,0Z" transform="translate(-16.964)" fill="#fff"/>
      <path id="Path_2695" data-name="Path 2695" d="M348.023,344.533a3.4,3.4,0,1,0-3.4,3.4A3.4,3.4,0,0,0,348.023,344.533Zm-3.4,2.264a2.264,2.264,0,1,1,2.264-2.264A2.266,2.266,0,0,1,344.627,346.8Z" transform="translate(-319.724 -318.511)" fill="#fff"/>
      <path id="Path_2696" data-name="Path 2696" d="M313.868,434.6a.566.566,0,0,0-.773.207l-1.219,2.112-.194-.292a.563.563,0,0,0-.438-.253l-.35-.021,1.239-2.145a.566.566,0,0,0-.981-.566l-1.7,2.938a.566.566,0,0,0,.457.848l.981.059.542.82a.565.565,0,0,0,.472.254h.018a.569.569,0,0,0,.473-.283l1.677-2.9A.566.566,0,0,0,313.868,434.6Z" transform="translate(-289.986 -404.617)" fill="#fff"/>
      <path id="Path_2697" data-name="Path 2697" d="M406.668,434.044a.566.566,0,0,0-.981.566l1.224,2.118-.35.021a.568.568,0,0,0-.439.253l-.192.292-1.212-2.1a.566.566,0,0,0-.981.566l1.671,2.894a.569.569,0,0,0,.473.283h.018a.568.568,0,0,0,.473-.254l.541-.82.98-.059a.566.566,0,0,0,.457-.848Z" transform="translate(-378.013 -404.991)" fill="#fff"/>
      <path id="Path_2698" data-name="Path 2698" d="M154.064,222.8h3.4a.566.566,0,1,0,0-1.132h-3.4a.566.566,0,1,0,0,1.132Z" transform="translate(-144.442 -206.969)" fill="#fff"/>
      <path id="Path_2699" data-name="Path 2699" d="M154.064,274h6.792a.566.566,0,1,0,0-1.132h-6.792a.566.566,0,0,0,0,1.132Z" transform="translate(-144.442 -254.773)" fill="#fff"/>
      <path id="Path_2700" data-name="Path 2700" d="M153.82,328.852a.566.566,0,1,0,1.012-.506,3.01,3.01,0,0,1-.337-2.69,1.045,1.045,0,0,1,.963-.453.459.459,0,0,1,.434.183c.422.608.021,2.459-.4,3.58a.566.566,0,0,0,.93.6c.242-.241.5-.482.732-.677v.277a.566.566,0,0,0,.966.4,7.065,7.065,0,0,1,.811-.693l-.02.041a.567.567,0,0,0,.507.818h2.264a.566.566,0,0,0,0-1.132H160.21a1.093,1.093,0,0,0-.1-.764.787.787,0,0,0-.689-.368,2.2,2.2,0,0,0-1.137.477.654.654,0,0,0-.4-.542c-.151-.062-.346-.144-.818.14a3.916,3.916,0,0,0-.245-2.8,1.571,1.571,0,0,0-1.365-.671,2.16,2.16,0,0,0-1.927.99C152.967,325.975,153.072,327.356,153.82,328.852Z" transform="translate(-144.138 -302.577)" fill="#fff"/>
      <path id="Path_2701" data-name="Path 2701" d="M296.824,273.437a.566.566,0,0,0-.566-.566H290.6a.566.566,0,0,0,0,1.132h5.66A.566.566,0,0,0,296.824,273.437Z" transform="translate(-271.921 -254.773)" fill="#fff"/>
    </g>
  </g>
</svg>
