<svg xmlns="http://www.w3.org/2000/svg" width="13.841" height="13.42" viewBox="0 0 13.841 13.42">
  <path id="done" d="M16.63,12.46a6.4,6.4,0,0,1-6.315,6.46A6.4,6.4,0,0,1,4,12.46,6.4,6.4,0,0,1,10.315,6a6.082,6.082,0,0,1,3.644,1.19.29.29,0,0,1-.348.465,5.59,5.59,0,0,0-3.3-1.074A5.816,5.816,0,0,0,4.581,12.46a5.816,5.816,0,0,0,5.734,5.879,5.816,5.816,0,0,0,5.734-5.879.29.29,0,0,1,.581,0Zm.624-4.95a.281.281,0,0,0-.406,0l-6.17,6.3L8.036,11.124a.287.287,0,0,0-.406.406l2.845,2.9a.287.287,0,0,0,.2.087h0a.264.264,0,0,0,.2-.087l6.373-6.518A.281.281,0,0,0,17.254,7.51Z" transform="translate(-3.75 -5.75)" fill="#fff" stroke="#fff" stroke-width="0.5"/>
</svg>
