<svg xmlns="http://www.w3.org/2000/svg" xmlns:xlink="http://www.w3.org/1999/xlink" width="38.951" height="33.288" viewBox="0 0 38.951 33.288">
  <defs>
    <linearGradient id="linear-gradient" x1="1" y1="1.278" x2="0" gradientUnits="objectBoundingBox">
      <stop offset="0" stop-color="#5899cf"/>
      <stop offset="1" stop-color="#19bdc1"/>
    </linearGradient>
  </defs>
  <path id="download-folder-filled" d="M43.259,22.61a2.8,2.8,0,0,0-.173-.562c-.043,0-.13.043-.173.043-4.453.216-8.992.3-13.574.3H14.078a.865.865,0,0,1,0-1.729H32.668l-4.539-4.582a30.689,30.689,0,0,0-3.8-3.242,5.368,5.368,0,0,0-2.724-.994c-4.02-.216-7.047-.346-9.035-.346a34.663,34.663,0,0,0-4.928.3,2.116,2.116,0,0,0-1.859,1.9A139.3,139.3,0,0,0,5,28.36a126.31,126.31,0,0,0,.735,13.747,2.2,2.2,0,0,0,1.945,1.9c5.577.519,11.24.778,16.817.778s11.24-.259,16.817-.778a2.158,2.158,0,0,0,1.945-1.816,59.982,59.982,0,0,0,.692-9.511A78.329,78.329,0,0,0,43.259,22.61ZM27.783,35.277a30.4,30.4,0,0,1-2.81,2.334.865.865,0,0,1-1.038,0,22.974,22.974,0,0,1-2.853-2.334.856.856,0,0,1,1.21-1.21,13.469,13.469,0,0,0,1.3,1.124V30.521a.865.865,0,0,1,1.729,0V35.19c.519-.432.951-.821,1.254-1.124a.856.856,0,0,1,1.21,1.21ZM29.641,28.1a.842.842,0,0,1-.865.692H28.6a20.642,20.642,0,0,0-8.3,0,.882.882,0,0,1-.346-1.729,22.493,22.493,0,0,1,8.992,0A.909.909,0,0,1,29.641,28.1Z" transform="translate(-5 -11.5)" fill="url(#linear-gradient)"/>
</svg>
