<svg id="download_files" xmlns="http://www.w3.org/2000/svg" width="24" height="20.006" viewBox="0 0 24 20.006">
  <g id="Icons">
    <path id="Download" d="M21,20H19a1,1,0,0,1,0-2h2a1,1,0,0,0,1-1V7a1,1,0,0,0-1-1H5A1,1,0,0,1,5,4H21a3,3,0,0,1,3,3V17A3,3,0,0,1,21,20ZM7,19a1,1,0,0,0-1-1H3a1,1,0,0,1-1-1V3A1,1,0,0,1,3,2H9.17a1,1,0,0,1,.71.29l.41.41A1,1,0,0,0,11.7,1.29L11.29.88A3,3,0,0,0,9.17,0H3A3,3,0,0,0,0,3V17a3,3,0,0,0,3,3H6A1,1,0,0,0,7,19Zm5.71.71,4-4A1,1,0,0,0,15.3,14.3L13,16.59V9a1,1,0,0,0-2,0V19a1,1,0,0,0,1.71.71Zm-3-3a1,1,0,0,0,0-1.41l-1-1A1,1,0,0,0,7.3,15.71l1,1A1,1,0,0,0,9.71,16.71Z" fill="#fff"/>
  </g>
</svg>
