<svg xmlns="http://www.w3.org/2000/svg" width="46.319" height="39.623" viewBox="0 0 46.319 39.623">
  <path id="download-folder" d="M50.541,24.276a2.474,2.474,0,0,0-2.676-2.213q-4.708.232-9.571.154c0-.051-.051-.051-.1-.1l-5.66-5.66A32.952,32.952,0,0,0,28,12.544a6.027,6.027,0,0,0-3.242-1.132C19.408,11.1,16.218,11,14.057,11a48.567,48.567,0,0,0-5.918.36,2.471,2.471,0,0,0-2.213,2.264A164.354,164.354,0,0,0,5,31.069a156.427,156.427,0,0,0,.875,16.415A2.484,2.484,0,0,0,8.242,49.7c6.587.618,13.328.926,19.966.926s13.379-.309,19.966-.926a2.521,2.521,0,0,0,2.316-2.161,69.6,69.6,0,0,0,.823-11.321A74.7,74.7,0,0,0,50.541,24.276ZM48.483,47.227a.451.451,0,0,1-.463.412c-6.587.618-13.225.926-19.812.926S14.983,48.256,8.4,47.639a.452.452,0,0,1-.463-.412,151.54,151.54,0,0,1-.875-16.158,162.91,162.91,0,0,1,.926-17.29.547.547,0,0,1,.412-.463,44.588,44.588,0,0,1,5.66-.36c2.11,0,5.3.1,10.6.412a4.407,4.407,0,0,1,2.161.772,28.681,28.681,0,0,1,4.22,3.654l4.22,4.22-2.624-.154a131.948,131.948,0,0,0-16.878,0,1.03,1.03,0,0,0,.1,2.058,127.17,127.17,0,0,1,16.57,0,141.011,141.011,0,0,0,15.438.1.5.5,0,0,1,.515.463A85.508,85.508,0,0,1,49.2,36.163,57.088,57.088,0,0,1,48.483,47.227ZM32.119,38.376a1,1,0,0,1,0,1.441A40.461,40.461,0,0,1,28.774,42.6a1.029,1.029,0,0,1-1.235,0,23.882,23.882,0,0,1-3.4-2.779,1.019,1.019,0,0,1,1.441-1.441,16.032,16.032,0,0,0,1.544,1.338V34.156a1.029,1.029,0,0,1,2.058,0v5.506c.669-.515,1.132-.978,1.492-1.286A1,1,0,0,1,32.119,38.376Zm2.213-7.1A1.051,1.051,0,0,1,33.3,32.1H33.1a25.083,25.083,0,0,0-4.94-.515,21.72,21.72,0,0,0-4.94.515,1.03,1.03,0,1,1-.463-2.007,25.871,25.871,0,0,1,5.352-.515,29.506,29.506,0,0,1,5.352.515A1,1,0,0,1,34.332,31.275Z" transform="translate(-5 -11)" fill="#fff"/>
</svg>
