<svg xmlns="http://www.w3.org/2000/svg" width="22.097" height="24" viewBox="0 0 22.097 24">
  <g id="edit" transform="translate(-27.003 -256)">
    <g id="Icons" transform="translate(27 256)">
      <path id="Settings" d="M11.51,24h-1a3,3,0,0,1-2.88-2.19,1,1,0,1,1,1.93-.54,1,1,0,0,0,1,.73h1a1,1,0,0,0,1-.73l.46-1.67A2,2,0,0,1,14,18.31c.16-.07.32-.16.48-.25s.31-.19.46-.29a2,2,0,0,1,1.66-.32l1.69.43a1,1,0,0,0,1.11-.47l.48-.83a1,1,0,0,0-.15-1.2l-1.22-1.23A2,2,0,0,1,18,12.57a7.17,7.17,0,0,0,0-1.13,2,2,0,0,1,.56-1.57l1.22-1.24a1,1,0,0,0,.15-1.2l-.48-.83a1,1,0,0,0-1.12-.47l-1.69.43A2,2,0,0,1,15,6.25a7,7,0,0,0-1-.56,2,2,0,0,1-1-1.27l-.47-1.69a1,1,0,0,0-1-.73h-1a1,1,0,0,0-1,.73L9.13,4.4A2,2,0,0,1,8,5.69c-.16.08-.33.16-.48.25s-.31.19-.46.29a2,2,0,0,1-1.66.32L3.73,6.12a1,1,0,0,0-1.11.47l-.48.83a1,1,0,0,0,.15,1.2L3.51,9.85a2,2,0,0,1,.56,1.58,6.94,6.94,0,0,0,0,1.13,2,2,0,0,1-.56,1.57L2.28,15.38a1,1,0,0,0-.15,1.2l.48.83a1,1,0,0,0,1.12.47,1,1,0,1,1,.5,1.94A3,3,0,0,1,.88,18.41L.4,17.57A3,3,0,0,1,.86,14l1.22-1.24a8.15,8.15,0,0,1,0-1.46L.86,10A3,3,0,0,1,.4,6.41l.48-.83a3,3,0,0,1,3.34-1.4l1.69.43a7.31,7.31,0,0,1,.63-.41q.31-.18.64-.33L7.67,2.2A3,3,0,0,1,10.56,0h1a3,3,0,0,1,2.88,2.19l.47,1.69a8.27,8.27,0,0,1,1.28.72l1.69-.42a3,3,0,0,1,3.34,1.41l.48.83a3,3,0,0,1-.46,3.6L20,11.27a8.31,8.31,0,0,1,0,1.46L21.21,14a3,3,0,0,1,.46,3.61l-.48.83a3,3,0,0,1-3.34,1.4l-1.69-.43a7.311,7.311,0,0,1-.63.41c-.21.12-.42.23-.64.33l-.48,1.67A3,3,0,0,1,11.51,24ZM16,12a5,5,0,1,0-5,5A5,5,0,0,0,16,12Zm-2,0a3,3,0,1,1-3-3,3,3,0,0,1,3,3Z" fill="#19bdc1"/>
    </g>
  </g>
</svg>
