<svg xmlns="http://www.w3.org/2000/svg" width="27.728" height="32.181" viewBox="0 0 27.728 32.181"><path d="M18.122,19.183l7.3-4.281a1.11,1.11,0,0,0,.541-.95v-.438a1.11,1.11,0,0,0-.541-.95l-7.3-4.3L13.33,13.719Z" transform="translate(1.761 2.298)" fill="#fff"/><path d="M16.529,15.666l4.383-5.011L4.651,1.129a1.11,1.11,0,0,0-.891,0Z" transform="translate(-2.65 -1.036)" fill="#fff"/><path d="M16.529,13,3.76,27.609a1.11,1.11,0,0,0,.891,0L20.926,18.1Z" transform="translate(-2.65 4.478)" fill="#fff"/><path d="M3,2.09V31.046L15.666,16.568Z" transform="translate(-3 -0.55)" fill="#fff"/></svg>