<svg xmlns="http://www.w3.org/2000/svg" width="22.154" height="21.955" viewBox="0 0 22.154 21.955">
  <g id="heart_3" transform="translate(-0.026 0.005)">
    <g id="Icons">
      <path id="Like" d="M14,19.48a1,1,0,0,1-.68-1.73c3.76-3.5,6.22-7,6.76-9.72a5.61,5.61,0,0,0-2.77-5.68c-1.72-.84-3.67-.13-5.49,2l-2,2.23a1,1,0,0,1-1.5-1.33l2-2.22C13.79-1,17,0,18.22.55a7.56,7.56,0,0,1,3.86,7.87c-.84,4.22-5,8.57-7.36,10.79A1,1,0,0,1,14,19.48Zm-2.1,2.07a1,1,0,0,0-.2-1.4C8.29,17.6,2.93,12.26,2.08,8a5.69,5.69,0,0,1,2-5.22,3.48,3.48,0,0,1,3.83-.43A1,1,0,0,0,8.8.57a5.5,5.5,0,0,0-5.92.66A7.71,7.71,0,0,0,.12,8.42c1,5.16,7.24,11,10.38,13.33A1,1,0,0,0,11.9,21.55Z" fill="#fff"/>
    </g>
  </g>
</svg>
