<svg xmlns="http://www.w3.org/2000/svg" width="95.398" height="87.449" viewBox="0 0 95.398 87.449">
  <g id="heart" transform="translate(0 -1)">
    <g id="Group_3117" data-name="Group 3117" transform="translate(0 1)">
      <path id="Path_2771" data-name="Path 2771" d="M27.825,8.95A19.9,19.9,0,0,0,7.95,28.825a1.987,1.987,0,0,0,3.975,0,15.916,15.916,0,0,1,15.9-15.9,1.987,1.987,0,0,0,0-3.975ZM67.574,1A27.74,27.74,0,0,0,47.7,9.359,27.819,27.819,0,0,0,0,28.825c0,6.924,2.794,13.7,8.077,19.6C17.168,58.557,46,87.57,46.292,87.86a1.969,1.969,0,0,0,1.407.588,2.011,2.011,0,0,0,1.411-.58c.29-.29,29.124-29.3,38.215-39.443C92.6,42.53,95.4,35.757,95.4,28.825A27.858,27.858,0,0,0,67.574,1Zm16.79,44.766C76.5,54.542,53.618,77.673,47.7,83.639c-5.923-5.966-28.8-29.1-36.665-37.869-3.22-3.6-7.059-9.452-7.059-16.945A23.844,23.844,0,0,1,46.169,13.593a2.052,2.052,0,0,0,3.057,0,23.847,23.847,0,0,1,42.2,15.232C91.424,36.317,87.584,42.168,84.364,45.766Z" transform="translate(0 -1)" fill="#fff"/>
    </g>
  </g>
</svg>
