<svg id="help" xmlns="http://www.w3.org/2000/svg" width="20.617" height="20.617" viewBox="0 0 20.617 20.617">
  <path id="Path_2753" data-name="Path 2753" d="M20.617,13.953a6.68,6.68,0,0,0-4.88-6.422A7.872,7.872,0,1,0,1.092,11.874L.029,15.715l3.842-1.063a7.843,7.843,0,0,0,3.66,1.083,6.666,6.666,0,0,0,9.813,3.954l3.244.9-.9-3.244A6.64,6.64,0,0,0,20.617,13.953ZM4.061,13.347l-2.3.636.636-2.3-.145-.227a6.662,6.662,0,1,1,2.036,2.036Zm14.794,5.509-1.707-.472-.228.148a5.458,5.458,0,0,1-8.141-2.84A7.887,7.887,0,0,0,15.692,8.78a5.458,5.458,0,0,1,2.839,8.141l-.148.228Zm0,0" fill="rgba(255,255,255,0.6)"/>
  <path id="Path_2754" data-name="Path 2754" d="M180.5,271h1.208v1.208H180.5Zm0,0" transform="translate(-173.232 -260.088)" fill="rgba(255,255,255,0.6)"/>
  <path id="Path_2755" data-name="Path 2755" d="M139.124,92.416a1.2,1.2,0,0,1-.393.892l-1.419,1.3V96.08h1.208v-.942l1.026-.939a2.416,2.416,0,1,0-4.046-1.783h1.208a1.208,1.208,0,0,1,2.416,0Zm0,0" transform="translate(-130.044 -86.376)" fill="rgba(255,255,255,0.6)"/>
</svg>
