<svg id="lesson" xmlns="http://www.w3.org/2000/svg" width="31.075" height="31.075" viewBox="0 0 31.075 31.075">
  <g id="Group_3035" data-name="Group 3035">
    <g id="Group_3034" data-name="Group 3034">
      <path id="Path_2679" data-name="Path 2679" d="M.556,495.832H.491a.491.491,0,1,0,0,.981H.556a.491.491,0,1,0,0-.981Z" transform="translate(0 -465.739)" fill="rgba(255,255,255,0.6)"/>
      <path id="Path_2680" data-name="Path 2680" d="M27.967,0H3.107A3.111,3.111,0,0,0,0,3.107V20.771a3.111,3.111,0,0,0,3.107,3.107H4.416a.491.491,0,1,0,0-.981H3.107A2.129,2.129,0,0,1,.981,20.771V3.107A2.129,2.129,0,0,1,3.107.981h24.86a2.129,2.129,0,0,1,2.126,2.126V20.771a2.135,2.135,0,0,1-1.063,1.842.491.491,0,0,0,.491.849,3.119,3.119,0,0,0,1.553-2.691V3.107A3.111,3.111,0,0,0,27.967,0Z" fill="rgba(255,255,255,0.6)"/>
      <path id="Path_2681" data-name="Path 2681" d="M193.973,140.126a.491.491,0,0,0,0,.981h.065a.491.491,0,0,0,0-.981Z" transform="translate(-181.739 -131.621)" fill="rgba(255,255,255,0.6)"/>
      <path id="Path_2682" data-name="Path 2682" d="M67.158,60.78a.491.491,0,0,0,0,.981,1.8,1.8,0,0,0,1.8-1.8V44.915a1.8,1.8,0,0,0-1.8-1.8H44.915a1.8,1.8,0,0,0-1.8,1.8V59.962a1.8,1.8,0,0,0,1.8,1.8h1.308a.491.491,0,1,0,0-.981H44.915a.819.819,0,0,1-.818-.818V44.915a.819.819,0,0,1,.818-.818H67.158a.819.819,0,0,1,.818.818V59.962A.819.819,0,0,1,67.158,60.78Z" transform="translate(-40.499 -40.499)" fill="rgba(255,255,255,0.6)"/>
      <path id="Path_2683" data-name="Path 2683" d="M227.388,140.126a.491.491,0,0,0,0,.981h4.579a.491.491,0,0,0,0-.981Z" transform="translate(-213.126 -131.621)" fill="rgba(255,255,255,0.6)"/>
      <path id="Path_2684" data-name="Path 2684" d="M58.993,212.34h-.818v-4.089a6.388,6.388,0,0,0-3.866-5.862.479.479,0,0,0-.072-.03c-.079-.033-.159-.065-.24-.094a4.416,4.416,0,1,0-4.4,0c-.081.03-.161.061-.24.094a.482.482,0,0,0-.072.03,6.412,6.412,0,0,0-2.392,1.789,6.373,6.373,0,0,0-2.433-1.807l-.023-.009q-.125-.052-.252-.1a4.414,4.414,0,0,0-2.2-8.242H38.713a3.111,3.111,0,0,0-3.107,3.108v1.308a.491.491,0,0,0,.491.491h1.5a4.422,4.422,0,0,0,2.187,3.335c-.081.03-.161.061-.24.094a.482.482,0,0,0-.072.03,6.388,6.388,0,0,0-3.866,5.862v4.089h-2.78a.491.491,0,0,0,0,.981H58.993a.491.491,0,0,0,0-.981Zm-7.2-10.467a3.412,3.412,0,0,1-1.664-.432,4.431,4.431,0,0,0,3.079-2.512H55.2A3.44,3.44,0,0,1,51.8,201.872Zm1.741,1.271a1.8,1.8,0,0,1-3.482,0,5.375,5.375,0,0,1,3.482,0Zm-4.358-2.58a.5.5,0,0,0-.073.006,3.433,3.433,0,1,1,6.089-2.623H53.519a4.423,4.423,0,0,0,.077-.818.491.491,0,0,0-.981,0A3.438,3.438,0,0,1,49.18,200.564Zm-7.2,1.308a3.412,3.412,0,0,1-1.664-.432,4.432,4.432,0,0,0,3.079-2.512h1.985A3.44,3.44,0,0,1,41.984,201.872Zm1.742,1.27a1.8,1.8,0,0,1-3.483,0,5.389,5.389,0,0,1,3.483,0Zm-7.139-5.195v-.818A2.129,2.129,0,0,1,38.713,195h2.126v.818a2.129,2.129,0,0,1-2.126,2.126Zm2.78,2.617a.5.5,0,0,0-.073.006,3.418,3.418,0,0,1-.709-1.641h.128a3.111,3.111,0,0,0,3.107-3.107V195h.164a3.439,3.439,0,0,1,3.4,2.944H43.706a4.423,4.423,0,0,0,.077-.818.491.491,0,0,0-.981,0A3.438,3.438,0,0,1,39.367,200.564Zm6.051,7.687v4.089H36.587v-4.089a5.4,5.4,0,0,1,2.753-4.7,2.78,2.78,0,0,0,5.29,0,5.4,5.4,0,0,1,1.674,1.468A6.339,6.339,0,0,0,45.418,208.251Zm11.776,4.089H46.4v-4.089a5.4,5.4,0,0,1,2.753-4.7,2.78,2.78,0,0,0,5.289,0,5.4,5.4,0,0,1,2.753,4.7Z" transform="translate(-30.372 -182.246)" fill="rgba(255,255,255,0.6)"/>
      <path id="Path_2685" data-name="Path 2685" d="M168.4,97.5a.491.491,0,0,0-.491-.491H156.786a.491.491,0,1,0,0,.981h11.121A.491.491,0,0,0,168.4,97.5Z" transform="translate(-146.809 -91.123)" fill="rgba(255,255,255,0.6)"/>
    </g>
  </g>
</svg>
