<svg id="lessons" xmlns="http://www.w3.org/2000/svg" width="22.981" height="22.981" viewBox="0 0 22.981 22.981">
  <path id="Path_2724" data-name="Path 2724" d="M22.61,16.309H21.5V2.156A1.109,1.109,0,0,0,21.128,0H1.853a1.109,1.109,0,0,0-.371,2.156V16.309H.371A.371.371,0,0,0,0,16.68v1.483a.371.371,0,0,0,.371.371H11.12v1.853a.371.371,0,0,0,.371.371.741.741,0,1,1-.741.741h-.741a1.483,1.483,0,1,0,1.853-1.436v-1.53H22.61a.371.371,0,0,0,.371-.371V16.68A.371.371,0,0,0,22.61,16.309ZM1.853.741H21.128a.371.371,0,1,1,0,.741H1.853a.371.371,0,0,1,0-.741Zm.371,1.483H20.757v12.6h-.741V8.9h-.741v5.931h-.741V11.12h-.741v3.707H17.05V10.378h-.741v4.448h-.741V13.344h-.741v1.483h-.741V11.861h-.741v2.965H12.6V12.6h-.741v2.224H11.12v.741h9.637v.741H2.224ZM22.24,17.792H.741V17.05h21.5Zm0,0" fill="#19bdc1"/>
  <path id="Path_2725" data-name="Path 2725" d="M72.525,100.077H68.819V96.371A.371.371,0,0,0,68.448,96a4.448,4.448,0,1,0,4.448,4.448A.371.371,0,0,0,72.525,100.077Zm-4.448-.524-1.971-1.971a3.687,3.687,0,0,1,1.971-.822Zm.371,4.6a3.7,3.7,0,0,1-2.866-6.049l2.6,2.6a.369.369,0,0,0,.262.109h3.688A3.712,3.712,0,0,1,68.448,104.155Zm0,0" transform="translate(-61.035 -91.552)" fill="#19bdc1"/>
  <path id="Path_2726" data-name="Path 2726" d="M184.371,68.819h4.077a.371.371,0,0,0,.371-.371A4.453,4.453,0,0,0,184.371,64a.371.371,0,0,0-.371.371v4.077A.371.371,0,0,0,184.371,68.819Zm.371-4.059a3.714,3.714,0,0,1,3.317,3.317h-3.317Zm0,0" transform="translate(-175.475 -61.035)" fill="#19bdc1"/>
  <path id="Path_2727" data-name="Path 2727" d="M256,240h.741v.741H256Zm0,0" transform="translate(-244.139 -228.88)" fill="#19bdc1"/>
  <path id="Path_2728" data-name="Path 2728" d="M288,224h.741v.741H288Zm0,0" transform="translate(-274.656 -213.622)" fill="#19bdc1"/>
  <path id="Path_2729" data-name="Path 2729" d="M320,256h.741v.741H320Zm0,0" transform="translate(-305.174 -244.139)" fill="#19bdc1"/>
  <path id="Path_2730" data-name="Path 2730" d="M352,192h.741v.741H352Zm0,0" transform="translate(-335.691 -183.104)" fill="#19bdc1"/>
  <path id="Path_2731" data-name="Path 2731" d="M384,208h.741v.741H384Zm0,0" transform="translate(-366.208 -198.363)" fill="#19bdc1"/>
  <path id="Path_2732" data-name="Path 2732" d="M416,160h.741v.741H416Zm0,0" transform="translate(-396.726 -152.587)" fill="#19bdc1"/>
  <path id="Path_2733" data-name="Path 2733" d="M304,64h5.931v.741H304Zm0,0" transform="translate(-289.915 -61.035)" fill="#19bdc1"/>
  <path id="Path_2734" data-name="Path 2734" d="M304,96h5.931v.741H304Zm0,0" transform="translate(-289.915 -91.552)" fill="#19bdc1"/>
</svg>
