<svg xmlns="http://www.w3.org/2000/svg" width="60.5" height="60.5" viewBox="0 0 60.5 60.5">
  <g id="lock" transform="translate(-0.573 1.31)">
    <g id="Group_3049" data-name="Group 3049" transform="translate(364.587 201.822)">
      <circle id="Ellipse_17" data-name="Ellipse 17" cx="29.5" cy="29.5" r="29.5" transform="translate(-363.264 -202.382)" fill="none" stroke="#fff" stroke-miterlimit="10" stroke-width="1.5" opacity="0.05"/>
      <path id="lock-2" data-name="lock" d="M36.9,16.853a2.1,2.1,0,0,0-1.623-1.623c-.429-.092-.888-.184-1.348-.245a1.326,1.326,0,0,1,.031-.153V11.126A5.853,5.853,0,0,0,28.138,5a6.066,6.066,0,0,0-6.126,6.126v3.8c-.551.092-1.1.184-1.623.306h0a2.181,2.181,0,0,0-1.654,1.623A26.982,26.982,0,0,0,18,23.684a27.129,27.129,0,0,0,.674,6.555A2.066,2.066,0,0,0,20.3,31.831a36.471,36.471,0,0,0,7.5.735,38.468,38.468,0,0,0,7.473-.7A2.066,2.066,0,0,0,36.9,30.269a26.969,26.969,0,0,0,.7-6.585A32.671,32.671,0,0,0,36.9,16.853ZM23.207,11.126a4.838,4.838,0,0,1,4.9-4.9,4.645,4.645,0,0,1,4.594,4.9V14.8a41.664,41.664,0,0,0-4.9-.306,44.266,44.266,0,0,0-4.594.245ZM35.7,29.993a.891.891,0,0,1-.674.674,36.005,36.005,0,0,1-7.228.674,35.5,35.5,0,0,1-7.228-.7.886.886,0,0,1-.7-.674,26.579,26.579,0,0,1-.643-6.279,29.683,29.683,0,0,1,.643-6.555,1,1,0,0,1,.735-.735,37.816,37.816,0,0,1,7.2-.674,35.415,35.415,0,0,1,7.2.7.921.921,0,0,1,.7.7,30.561,30.561,0,0,1,.7,6.585A27.693,27.693,0,0,1,35.7,29.993Zm-7.9-7.535a2.143,2.143,0,0,0-.613,4.2V29.5a.613.613,0,0,0,1.225,0V26.655a2.143,2.143,0,0,0-.613-4.2Zm0,3.063a.919.919,0,1,1,.919-.919A.9.9,0,0,1,27.8,25.521Z" transform="translate(-361.764 -191.882)" fill="#fff"/>
    </g>
  </g>
</svg>
