<svg xmlns="http://www.w3.org/2000/svg" width="13.13" height="13.42" viewBox="0 0 13.13 13.42">
  <g id="not_done" transform="translate(-62.341 -8.197)">
    <path id="done" d="M16.63,12.46a6.4,6.4,0,0,1-6.315,6.46A6.4,6.4,0,0,1,4,12.46,6.4,6.4,0,0,1,10.315,6a6.082,6.082,0,0,1,3.644,1.19.29.29,0,0,1-.348.465,5.59,5.59,0,0,0-3.3-1.074A5.816,5.816,0,0,0,4.581,12.46a5.816,5.816,0,0,0,5.734,5.879,5.816,5.816,0,0,0,5.734-5.879.29.29,0,0,1,.581,0Z" transform="translate(58.591 2.447)" fill="#fff" stroke="#fff" stroke-width="0.5"/>
    <path id="close-icon" d="M1.916,2.327.086.5A.291.291,0,0,1,.5.086l1.83,1.83L4.157.086A.291.291,0,0,1,4.569.5l-1.83,1.83,1.83,1.83a.291.291,0,1,1-.411.411l-1.83-1.83L.5,4.569a.291.291,0,0,1-.411-.411Z" transform="translate(66.59 12.447)" fill="#fff" stroke="#fff" stroke-width="0.3" fill-rule="evenodd"/>
  </g>
</svg>
