<svg xmlns="http://www.w3.org/2000/svg" width="23.458" height="24.02" viewBox="0 0 23.458 24.02">
  <g id="notification" transform="translate(0.029 0.02)">
    <g id="Icons">
      <path id="Bell_is_on" data-name="Bell is on" d="M11.7,24a5,5,0,0,1-2.5-.67,1,1,0,1,1,1-1.73,3,3,0,0,0,4.43-2,2,2,0,0,1,2-1.62h2.83l-.69-2.76a1,1,0,0,1,0-.24V9.27A7.16,7.16,0,0,0,12.17,2,7,7,0,0,0,4.7,9v6a1,1,0,0,1,0,.24L4,18h7.7a1,1,0,0,1,0,2H4a2,2,0,0,1-2-2.48l.66-2.64V9a9,9,0,0,1,9.6-9,9.16,9.16,0,0,1,8.4,9.25v5.6l.66,2.64A2,2,0,0,1,19.42,20H16.59a5,5,0,0,1-4.89,4ZM2,6.24A9.49,9.49,0,0,1,4.42,1.85,1,1,0,1,0,3,.45,11.49,11.49,0,0,0,0,5.76a1.028,1.028,0,0,0,2,.48Zm20.67.58a1,1,0,0,0,.73-1.21A11.49,11.49,0,0,0,20.4.3,1,1,0,0,0,19,1.7a9.49,9.49,0,0,1,2.44,4.39,1,1,0,0,0,1.21.73Z" fill="#19bdc1"/>
    </g>
  </g>
</svg>
