<svg xmlns="http://www.w3.org/2000/svg" width="26" height="26" viewBox="0 0 26 26"><g transform="translate(0 6.527)"><path d="M25.238,128.533H.762a.762.762,0,0,0-.762.762v17.949a.762.762,0,0,0,.762.762H25.238a.762.762,0,0,0,.762-.762V129.295A.762.762,0,0,0,25.238,128.533ZM17.3,138.9l-6.119,4.079a.762.762,0,0,1-1.184-.634V134.19a.762.762,0,0,1,1.184-.634l6.119,4.079a.762.762,0,0,1,0,1.268Z" transform="translate(0 -128.533)" fill="#fff"/></g><g transform="translate(2.448 3.264)"><path d="M68.544,64.268H48.963a.762.762,0,0,0,0,1.523H68.544a.762.762,0,0,0,0-1.523Z" transform="translate(-48.201 -64.268)" fill="#fff"/></g><g transform="translate(4.895)"><path d="M111.848,0H97.162a.762.762,0,0,0,0,1.523h14.686a.762.762,0,0,0,0-1.523Z" transform="translate(-96.4)" fill="#fff"/></g></svg>