<svg xmlns="http://www.w3.org/2000/svg" width="35.343" height="32.03" viewBox="0 0 35.343 32.03">
  <g id="question-and-answer" transform="translate(0.4 0.4)">
    <path id="Path_2675" data-name="Path 2675" d="M22.706,9.072c4.93,1.024,8.565,4.553,8.565,8.749A8.212,8.212,0,0,1,27.8,24.29L27.516,29.3l-4.371-2.826a14.428,14.428,0,0,1-3.388.4C14.224,26.87,9.6,23.8,8.494,19.716" transform="translate(3.273 1.935)" fill="none" stroke="rgba(255,255,255,0.6)" stroke-linecap="round" stroke-linejoin="round" stroke-width="0.8"/>
    <path id="Path_2676" data-name="Path 2676" d="M20.823,20.271,17.1,12.42l-3.723,7.851" transform="translate(6.056 3.844)" fill="none" stroke="rgba(255,255,255,0.6)" stroke-linecap="round" stroke-linejoin="round" stroke-width="0.8"/>
    <line id="Line_2" data-name="Line 2" x2="5.747" transform="translate(20.282 22.321)" fill="none" stroke="rgba(255,255,255,0.6)" stroke-linecap="round" stroke-linejoin="round" stroke-width="0.8"/>
    <ellipse id="Ellipse_14" data-name="Ellipse 14" cx="3.723" cy="4.123" rx="3.723" ry="4.123" transform="translate(7.994 4.808)" fill="none" stroke="rgba(255,255,255,0.6)" stroke-linecap="round" stroke-linejoin="round" stroke-width="0.8"/>
    <path id="Path_2677" data-name="Path 2677" d="M8.844,9.194c.959.57,1.179,2.649,2.013,3.03" transform="translate(3.472 2.004)" fill="none" stroke="rgba(255,255,255,0.6)" stroke-linecap="round" stroke-linejoin="round" stroke-width="0.8"/>
    <path id="Path_2678" data-name="Path 2678" d="M12.522,2.062C6.163,2.062,1,6.113,1,11.109A8.215,8.215,0,0,0,4.475,17.58l.294,5.006L9.14,19.759a14.43,14.43,0,0,0,3.388.4c6.359,0,11.516-4.051,11.516-9.047S18.881,2.062,12.522,2.062Z" transform="translate(-1 -2.062)" fill="none" stroke="rgba(255,255,255,0.6)" stroke-linecap="round" stroke-linejoin="round" stroke-width="0.8"/>
  </g>
</svg>
