<svg xmlns="http://www.w3.org/2000/svg" width="26.837" height="26.84" viewBox="0 0 26.837 26.84">
  <g id="send-mail" transform="translate(0)">
    <path id="Path_2761" data-name="Path 2761" d="M19.432,27.844a.673.673,0,0,0,.637-.459l2.578-7.733,7.732-2.578a.67.67,0,0,0,.125-1.216L5.008,1.1a.671.671,0,0,0-1,.7L8.036,24.607a.672.672,0,0,0,.926.5l8.634-3.7,1.18,5.9a.669.669,0,0,0,.616.538A.2.2,0,0,1,19.432,27.844Zm9.11-11.573L21.9,18.484a.667.667,0,0,0-.424.424L19.6,24.563l-.847-4.232a.672.672,0,0,0-.923-.484L9.21,23.537,5.582,2.978Z" transform="translate(-4 -1.005)" fill="#fff"/>
    <path id="Path_2762" data-name="Path 2762" d="M24.089,21.135a.67.67,0,0,0,.546-1.06L15.927,7.885,27.641,19.6a.671.671,0,0,0,.949-.949L11.145,1.2a.671.671,0,0,0-1.021.864L23.543,20.854A.672.672,0,0,0,24.089,21.135Z" transform="translate(-9.999 -1.006)" fill="#fff"/>
    <path id="Path_2763" data-name="Path 2763" d="M16.7,22.716a.672.672,0,0,0,.538-1.074l-4.026-5.368a.671.671,0,0,0-1.075.805l4.026,5.368A.67.67,0,0,0,16.7,22.716Z" transform="translate(-1.264 4.123)" fill="#fff"/>
  </g>
</svg>
