<svg id="sign_out" data-name="sign out" xmlns="http://www.w3.org/2000/svg" width="20.984" height="24" viewBox="0 0 20.984 24">
  <g id="Icons">
    <path id="Exit_" data-name="Exit " d="M15,24H3a3,3,0,0,1-3-3V3A3,3,0,0,1,3,0H15a3,3,0,0,1,3,3V4a1,1,0,0,1-2,0V3a1,1,0,0,0-1-1H3A1,1,0,0,0,2,3V21a1,1,0,0,0,1,1H15a1,1,0,0,0,1-1V20a1,1,0,0,1,2,0v1A3,3,0,0,1,15,24Zm5.89-11.55a1,1,0,0,0-.09-1l-3-4a1,1,0,0,0-1.6,1.2L18,11H9a1,1,0,0,0,0,2H20A1,1,0,0,0,20.89,12.45ZM17.8,16.6l.75-1A1,1,0,1,0,17,14.4l-.75,1a1,1,0,0,0,1.6,1.2Zm-.42.32a1.16,1.16,0,0,0,.33-.21,1.59,1.59,0,0,0,.12-.15.76.76,0,0,0,.09-.18A.65.65,0,0,0,18,16.2a1.38,1.38,0,0,0,0-.2,1.05,1.05,0,0,0-.29-.71,1.16,1.16,0,0,0-.33-.21A1,1,0,0,0,16.8,15a.63.63,0,0,0-.18.06.56.56,0,0,0-.17.09l-.16.12A1.05,1.05,0,0,0,16,16a1,1,0,0,0,.29.71l.16.12a.56.56,0,0,0,.17.09l.18.06H17a1,1,0,0,0,.38-.06Z" fill="#19bdc1"/>
  </g>
</svg>
