<svg xmlns="http://www.w3.org/2000/svg" width="36.353" height="36.353" viewBox="0 0 36.353 36.353">
  <g id="smile" opacity="0.8">
    <path id="Path_2757" data-name="Path 2757" d="M18.177,0A18.177,18.177,0,1,0,36.353,18.177,18.2,18.2,0,0,0,18.177,0ZM11.36,10.6a2.272,2.272,0,1,1-2.272,2.272A2.275,2.275,0,0,1,11.36,10.6ZM27.1,23.887a10.589,10.589,0,0,1-17.852,0,.758.758,0,0,1,1.275-.818,9.073,9.073,0,0,0,15.3,0,.758.758,0,1,1,1.275.818Zm-2.11-8.74a2.272,2.272,0,1,1,2.272-2.272A2.275,2.275,0,0,1,24.993,15.147Z" fill="#718996"/>
  </g>
</svg>
