<svg xmlns="http://www.w3.org/2000/svg" width="20.186" height="18.925" viewBox="0 0 20.186 18.925">
  <path id="star-icon" d="M3.893,18.685A1.25,1.25,0,0,1,3.41,17.34l1.468-5.352L.479,8.5A1.237,1.237,0,0,1,.063,7.135a1.277,1.277,0,0,1,1.152-.87l5.658-.286L8.89.806a1.293,1.293,0,0,1,2.4,0l2.027,5.172,5.656.286a1.281,1.281,0,0,1,1.153.87A1.241,1.241,0,0,1,19.71,8.5l-4.4,3.48,1.47,5.351A1.251,1.251,0,0,1,16.3,18.68a1.3,1.3,0,0,1-1.451.038L10.1,15.691,5.347,18.718a1.3,1.3,0,0,1-1.453-.033Zm6.9-5.543,2.646,1.681-.816-2.969a1.247,1.247,0,0,1,.431-1.309l2.438-1.93-3.137-.161a1.277,1.277,0,0,1-1.129-.8L10.091,4.768,8.961,7.652a1.279,1.279,0,0,1-1.135.807l-3.138.159,2.44,1.93a1.252,1.252,0,0,1,.433,1.309l-.816,2.977L9.387,13.15a1.289,1.289,0,0,1,.709-.211,1.31,1.31,0,0,1,.7.2Z" transform="translate(0)" fill="#254a5d" fill-rule="evenodd" opacity="0.175"/>
</svg>
