<svg xmlns="http://www.w3.org/2000/svg" width="29.865" height="28.295" viewBox="0 0 29.865 28.295">
  <path id="star-outlined" d="M16.905,7.078m2.77,6.642,7.163.566-5.465,4.661,1.668,6.969-6.135-3.738-6.15,3.738,1.683-6.969L6.973,14.286l7.163-.566,2.77-6.642ZM16.712,2A.759.759,0,0,0,16,2.477l-3.648,8.771-9.516.759a.73.73,0,0,0-.655.521l-.164.372a.73.73,0,0,0,.223.8L9.459,19.87,7.315,29.133a.759.759,0,0,0,.283.789l.372.223a.7.7,0,0,0,.447.149.715.715,0,0,0,.387-.1l8.1-4.959,8.146,4.959a.715.715,0,0,0,.387.1.7.7,0,0,0,.447-.149l.328-.223a.759.759,0,0,0,.283-.789L24.351,19.87l7.237-6.18A.73.73,0,0,0,31.8,12.9l-.119-.372a.73.73,0,0,0-.655-.521l-9.516-.759L17.8,2.477A.73.73,0,0,0,17.1,2Z" transform="translate(-1.972 -2)" fill="#fff"/>
</svg>
