<svg xmlns="http://www.w3.org/2000/svg" width="24" height="20.96" viewBox="0 0 24 20.96">
  <g id="student_group" transform="translate(0 0.06)">
    <g id="Icons">
      <path id="Group" d="M8,20.87H3a3,3,0,0,1-3-3v-3.2a3.08,3.08,0,0,1,1.87-2.72A15.41,15.41,0,0,1,10,11.07a1.013,1.013,0,1,1-.32,2,13.43,13.43,0,0,0-7,.77,1.11,1.11,0,0,0-.6.86v3.2a1,1,0,0,0,1,1H8a1,1,0,0,1,0,2ZM12,4.44a4.5,4.5,0,1,0-4.5,4.5A4.5,4.5,0,0,0,12,4.44Zm-2,0a2.5,2.5,0,1,1-2.5-2.5A2.5,2.5,0,0,1,10,4.44ZM24,18.55V15.19a2.73,2.73,0,0,0-1.66-2.42,12.87,12.87,0,0,0-9.49,0,2.73,2.73,0,0,0-1.66,2.42v4.68a1,1,0,0,0,2,0V15.19a.76.76,0,0,1,.39-.55,10.89,10.89,0,0,1,8,0,.76.76,0,0,1,.39.55v3.36a.34.34,0,0,1-.35.33H16a1,1,0,0,0,0,2h5.65A2.34,2.34,0,0,0,24,18.55ZM21,6.42a3.5,3.5,0,1,0-3.5,3.45A3.5,3.5,0,0,0,21,6.42Zm-2,0A1.5,1.5,0,1,1,17.5,5,1.48,1.48,0,0,1,19,6.42Z" fill="#fff"/>
    </g>
  </g>
</svg>
