<svg xmlns="http://www.w3.org/2000/svg" width="24.004" height="22.808" viewBox="0 0 24.004 22.808">
  <g id="support" transform="translate(0.002 0.108)">
    <g id="Icons">
      <path id="Support-2" data-name="Support" d="M2,19.34A3,3,0,0,1,0,16.4V13.26a2.92,2.92,0,0,1,1.53-2.54v-.27A10.5,10.5,0,0,1,22,7.1a1,1,0,1,1-1.88.69,8.43,8.43,0,0,0-4-4.81A8.57,8.57,0,0,0,3.54,10.5v1a1,1,0,0,1-1,1c-.17,0-.5.39-.5.76V16.5a1,1,0,0,0,2,0V14.26a1,1,0,0,1,2,0V16.5A3,3,0,0,1,2,19.34Zm19.88.22A3,3,0,0,0,24,16.7V13.8a3,3,0,1,0-6-.09v2a1,1,0,1,0,2,0v-2a1,1,0,1,1,2,0v3a1,1,0,0,1-1,1,1,1,0,0,0-1,1.06,2,2,0,0,1-2,1.94H14V20a1,1,0,0,0-2,0v1.7a1,1,0,0,0,1,1h5a4,4,0,0,0,3.91-3.14Z" fill="#19bdc1"/>
    </g>
  </g>
</svg>
