<svg id="write-board" xmlns="http://www.w3.org/2000/svg" width="28.649" height="28.649" viewBox="0 0 28.649 28.649">
  <path id="Path_2711" data-name="Path 2711" d="M27.747,1.491H15.229V.9a.9.9,0,0,0-1.808,0v.587H.9a.9.9,0,0,0-.9.9V5.377a.9.9,0,0,0,.9.9h.587v15.5a.9.9,0,0,0,.9.9H12.518L9.129,27.2a.9.9,0,1,0,1.446,1.084l2.847-3.8v3.254a.9.9,0,0,0,1.808,0V24.492l2.847,3.8A.9.9,0,0,0,19.522,27.2l-3.389-4.519H26.255a.9.9,0,0,0,.9-.9V6.281h.588a.9.9,0,0,0,.9-.9V2.395A.9.9,0,0,0,27.747,1.491ZM1.808,4.474V3.3H26.843V4.474Zm23.543,16.4H3.3V6.281H25.351v14.6Z" transform="translate(-0.001 0)" fill="rgba(255,255,255,0.6)"/>
  <path id="Path_2712" data-name="Path 2712" d="M62.74,125.481H76.161a.9.9,0,0,0,0-1.808H62.74a.9.9,0,0,0,0,1.808Z" transform="translate(-55.871 -111.743)" fill="rgba(255,255,255,0.6)"/>
  <path id="Path_2713" data-name="Path 2713" d="M62.74,94.563h2.982a.9.9,0,0,0,0-1.808H62.74a.9.9,0,0,0,0,1.808Z" transform="translate(-55.871 -83.808)" fill="rgba(255,255,255,0.6)"/>
  <path id="Path_2714" data-name="Path 2714" d="M62.74,156.4h8.947a.9.9,0,1,0,0-1.808H62.74a.9.9,0,0,0,0,1.808Z" transform="translate(-55.871 -139.678)" fill="rgba(255,255,255,0.6)"/>
</svg>
