<svg id="Слой_2" data-name="Слой 2" xmlns="http://www.w3.org/2000/svg" width="19.256" height="21.163" viewBox="0 0 19.256 21.163">
  <g id="Icons" transform="translate(0 0)">
    <path id="Serch" d="M18.234,21.161a1.031,1.031,0,0,1-.773-.35l-3.979-4.5A8.819,8.819,0,1,1,9.019,0a8.9,8.9,0,0,1,8.607,8.153,8.8,8.8,0,0,1-.536,3.783,1.031,1.031,0,0,1-1.927-.732A6.772,6.772,0,0,0,8.978,2.062a6.659,6.659,0,0,0-5.319,2.4,6.772,6.772,0,0,0,8.761,10.1,2.061,2.061,0,0,1,2.6.381L19,19.45a1.031,1.031,0,0,1-.773,1.711Z" transform="translate(0.003 0.002)" fill="#fff"/>
  </g>
</svg>
